ISO-10303-21;
HEADER;
/* Generated by software containing ST-Developer
 * from STEP Tools, Inc. (www.steptools.com) 
 */
/* OPTION: using custom schema-name function */

FILE_DESCRIPTION(
/* description */ (''),
/* implementation_level */ '2;1');

FILE_NAME(
/* name */ 'FFF_Cage_Silicon_MoldB',
/* time_stamp */ '2026-04-16T18:04:27+03:00',
/* author */ (''),
/* organization */ (''),
/* preprocessor_version */ 'ST-DEVELOPER v16.5',
/* originating_system */ 'Rhino 7.23',
/* authorisation */ '');

FILE_SCHEMA (('CONFIG_CONTROL_DESIGN'));
ENDSEC;

DATA;
#10=SHAPE_REPRESENTATION_RELATIONSHIP('','',#506,#12);
#11=MANIFOLD_SOLID_BREP('brep_1',#13);
#12=ADVANCED_BREP_SHAPE_REPRESENTATION('brep_rep_0',(#11,#535),#505);
#13=CLOSED_SHELL('',(#15,#16,#17,#18,#19,#20,#21,#22,#23,#24,#25,#26,#27,
#28,#29,#30,#31,#32,#33,#34,#35,#36,#37,#38,#39,#40,#41));
#14=FACE_BOUND('',#78,.T.);
#15=ADVANCED_FACE('',(#42),#408,.F.);
#16=ADVANCED_FACE('',(#43),#393,.T.);
#17=ADVANCED_FACE('',(#44),#409,.F.);
#18=ADVANCED_FACE('',(#45),#394,.T.);
#19=ADVANCED_FACE('',(#46),#410,.F.);
#20=ADVANCED_FACE('',(#47),#395,.T.);
#21=ADVANCED_FACE('',(#48),#411,.F.);
#22=ADVANCED_FACE('',(#49),#396,.T.);
#23=ADVANCED_FACE('',(#50,#14),#397,.T.);
#24=ADVANCED_FACE('',(#51),#398,.T.);
#25=ADVANCED_FACE('',(#52),#399,.T.);
#26=ADVANCED_FACE('',(#53),#412,.T.);
#27=ADVANCED_FACE('',(#54),#400,.T.);
#28=ADVANCED_FACE('',(#55),#413,.T.);
#29=ADVANCED_FACE('',(#56),#401,.T.);
#30=ADVANCED_FACE('',(#57),#414,.T.);
#31=ADVANCED_FACE('',(#58),#402,.T.);
#32=ADVANCED_FACE('',(#59),#415,.T.);
#33=ADVANCED_FACE('',(#60),#416,.T.);
#34=ADVANCED_FACE('',(#61),#403,.T.);
#35=ADVANCED_FACE('',(#62),#404,.T.);
#36=ADVANCED_FACE('',(#63),#417,.T.);
#37=ADVANCED_FACE('',(#64),#418,.T.);
#38=ADVANCED_FACE('',(#65),#419,.T.);
#39=ADVANCED_FACE('',(#66),#405,.T.);
#40=ADVANCED_FACE('',(#67),#406,.T.);
#41=ADVANCED_FACE('',(#68),#407,.T.);
#42=FACE_OUTER_BOUND('',#69,.T.);
#43=FACE_OUTER_BOUND('',#70,.T.);
#44=FACE_OUTER_BOUND('',#71,.T.);
#45=FACE_OUTER_BOUND('',#72,.T.);
#46=FACE_OUTER_BOUND('',#73,.T.);
#47=FACE_OUTER_BOUND('',#74,.T.);
#48=FACE_OUTER_BOUND('',#75,.T.);
#49=FACE_OUTER_BOUND('',#76,.T.);
#50=FACE_OUTER_BOUND('',#77,.T.);
#51=FACE_OUTER_BOUND('',#79,.T.);
#52=FACE_OUTER_BOUND('',#80,.T.);
#53=FACE_OUTER_BOUND('',#81,.T.);
#54=FACE_OUTER_BOUND('',#82,.T.);
#55=FACE_OUTER_BOUND('',#83,.T.);
#56=FACE_OUTER_BOUND('',#84,.T.);
#57=FACE_OUTER_BOUND('',#85,.T.);
#58=FACE_OUTER_BOUND('',#86,.T.);
#59=FACE_OUTER_BOUND('',#87,.T.);
#60=FACE_OUTER_BOUND('',#88,.T.);
#61=FACE_OUTER_BOUND('',#89,.T.);
#62=FACE_OUTER_BOUND('',#90,.T.);
#63=FACE_OUTER_BOUND('',#91,.T.);
#64=FACE_OUTER_BOUND('',#92,.T.);
#65=FACE_OUTER_BOUND('',#93,.T.);
#66=FACE_OUTER_BOUND('',#94,.T.);
#67=FACE_OUTER_BOUND('',#95,.T.);
#68=FACE_OUTER_BOUND('',#96,.T.);
#69=EDGE_LOOP('',(#97,#98,#99,#100));
#70=EDGE_LOOP('',(#101,#102,#103,#104));
#71=EDGE_LOOP('',(#105,#106,#107,#108));
#72=EDGE_LOOP('',(#109,#110,#111,#112));
#73=EDGE_LOOP('',(#113,#114,#115,#116));
#74=EDGE_LOOP('',(#117,#118,#119,#120));
#75=EDGE_LOOP('',(#121,#122,#123,#124));
#76=EDGE_LOOP('',(#125,#126,#127,#128));
#77=EDGE_LOOP('',(#129,#130,#131,#132,#133,#134,#135,#136));
#78=EDGE_LOOP('',(#137,#138,#139,#140,#141,#142,#143,#144));
#79=EDGE_LOOP('',(#145,#146,#147,#148,#149,#150,#151,#152));
#80=EDGE_LOOP('',(#153,#154,#155,#156));
#81=EDGE_LOOP('',(#157,#158,#159,#160));
#82=EDGE_LOOP('',(#161,#162,#163,#164));
#83=EDGE_LOOP('',(#165,#166,#167,#168));
#84=EDGE_LOOP('',(#169,#170,#171,#172));
#85=EDGE_LOOP('',(#173,#174,#175,#176));
#86=EDGE_LOOP('',(#177,#178,#179,#180));
#87=EDGE_LOOP('',(#181,#182,#183,#184));
#88=EDGE_LOOP('',(#185,#186,#187,#188));
#89=EDGE_LOOP('',(#189,#190,#191,#192));
#90=EDGE_LOOP('',(#193,#194,#195,#196));
#91=EDGE_LOOP('',(#197,#198,#199,#200));
#92=EDGE_LOOP('',(#201,#202,#203,#204));
#93=EDGE_LOOP('',(#205,#206,#207,#208));
#94=EDGE_LOOP('',(#209,#210,#211,#212));
#95=EDGE_LOOP('',(#213,#214,#215,#216));
#96=EDGE_LOOP('',(#217,#218,#219,#220,#221,#222,#223,#224));
#97=ORIENTED_EDGE('',*,*,#249,.T.);
#98=ORIENTED_EDGE('',*,*,#265,.T.);
#99=ORIENTED_EDGE('',*,*,#241,.F.);
#100=ORIENTED_EDGE('',*,*,#266,.F.);
#101=ORIENTED_EDGE('',*,*,#250,.T.);
#102=ORIENTED_EDGE('',*,*,#267,.T.);
#103=ORIENTED_EDGE('',*,*,#242,.F.);
#104=ORIENTED_EDGE('',*,*,#265,.F.);
#105=ORIENTED_EDGE('',*,*,#251,.T.);
#106=ORIENTED_EDGE('',*,*,#268,.T.);
#107=ORIENTED_EDGE('',*,*,#243,.F.);
#108=ORIENTED_EDGE('',*,*,#267,.F.);
#109=ORIENTED_EDGE('',*,*,#252,.T.);
#110=ORIENTED_EDGE('',*,*,#269,.T.);
#111=ORIENTED_EDGE('',*,*,#244,.F.);
#112=ORIENTED_EDGE('',*,*,#268,.F.);
#113=ORIENTED_EDGE('',*,*,#253,.T.);
#114=ORIENTED_EDGE('',*,*,#270,.T.);
#115=ORIENTED_EDGE('',*,*,#245,.F.);
#116=ORIENTED_EDGE('',*,*,#269,.F.);
#117=ORIENTED_EDGE('',*,*,#254,.T.);
#118=ORIENTED_EDGE('',*,*,#271,.T.);
#119=ORIENTED_EDGE('',*,*,#246,.F.);
#120=ORIENTED_EDGE('',*,*,#270,.F.);
#121=ORIENTED_EDGE('',*,*,#255,.T.);
#122=ORIENTED_EDGE('',*,*,#272,.T.);
#123=ORIENTED_EDGE('',*,*,#247,.F.);
#124=ORIENTED_EDGE('',*,*,#271,.F.);
#125=ORIENTED_EDGE('',*,*,#256,.T.);
#126=ORIENTED_EDGE('',*,*,#266,.T.);
#127=ORIENTED_EDGE('',*,*,#248,.F.);
#128=ORIENTED_EDGE('',*,*,#272,.F.);
#129=ORIENTED_EDGE('',*,*,#233,.T.);
#130=ORIENTED_EDGE('',*,*,#234,.T.);
#131=ORIENTED_EDGE('',*,*,#235,.T.);
#132=ORIENTED_EDGE('',*,*,#236,.T.);
#133=ORIENTED_EDGE('',*,*,#237,.T.);
#134=ORIENTED_EDGE('',*,*,#238,.T.);
#135=ORIENTED_EDGE('',*,*,#239,.T.);
#136=ORIENTED_EDGE('',*,*,#240,.T.);
#137=ORIENTED_EDGE('',*,*,#241,.T.);
#138=ORIENTED_EDGE('',*,*,#242,.T.);
#139=ORIENTED_EDGE('',*,*,#243,.T.);
#140=ORIENTED_EDGE('',*,*,#244,.T.);
#141=ORIENTED_EDGE('',*,*,#245,.T.);
#142=ORIENTED_EDGE('',*,*,#246,.T.);
#143=ORIENTED_EDGE('',*,*,#247,.T.);
#144=ORIENTED_EDGE('',*,*,#248,.T.);
#145=ORIENTED_EDGE('',*,*,#255,.F.);
#146=ORIENTED_EDGE('',*,*,#254,.F.);
#147=ORIENTED_EDGE('',*,*,#253,.F.);
#148=ORIENTED_EDGE('',*,*,#252,.F.);
#149=ORIENTED_EDGE('',*,*,#251,.F.);
#150=ORIENTED_EDGE('',*,*,#250,.F.);
#151=ORIENTED_EDGE('',*,*,#249,.F.);
#152=ORIENTED_EDGE('',*,*,#256,.F.);
#153=ORIENTED_EDGE('',*,*,#257,.T.);
#154=ORIENTED_EDGE('',*,*,#233,.F.);
#155=ORIENTED_EDGE('',*,*,#258,.F.);
#156=ORIENTED_EDGE('',*,*,#232,.F.);
#157=ORIENTED_EDGE('',*,*,#259,.T.);
#158=ORIENTED_EDGE('',*,*,#234,.F.);
#159=ORIENTED_EDGE('',*,*,#257,.F.);
#160=ORIENTED_EDGE('',*,*,#231,.F.);
#161=ORIENTED_EDGE('',*,*,#260,.T.);
#162=ORIENTED_EDGE('',*,*,#235,.F.);
#163=ORIENTED_EDGE('',*,*,#259,.F.);
#164=ORIENTED_EDGE('',*,*,#230,.F.);
#165=ORIENTED_EDGE('',*,*,#261,.T.);
#166=ORIENTED_EDGE('',*,*,#236,.F.);
#167=ORIENTED_EDGE('',*,*,#260,.F.);
#168=ORIENTED_EDGE('',*,*,#229,.F.);
#169=ORIENTED_EDGE('',*,*,#262,.T.);
#170=ORIENTED_EDGE('',*,*,#237,.F.);
#171=ORIENTED_EDGE('',*,*,#261,.F.);
#172=ORIENTED_EDGE('',*,*,#228,.F.);
#173=ORIENTED_EDGE('',*,*,#263,.T.);
#174=ORIENTED_EDGE('',*,*,#238,.F.);
#175=ORIENTED_EDGE('',*,*,#262,.F.);
#176=ORIENTED_EDGE('',*,*,#227,.F.);
#177=ORIENTED_EDGE('',*,*,#264,.T.);
#178=ORIENTED_EDGE('',*,*,#239,.F.);
#179=ORIENTED_EDGE('',*,*,#263,.F.);
#180=ORIENTED_EDGE('',*,*,#226,.F.);
#181=ORIENTED_EDGE('',*,*,#258,.T.);
#182=ORIENTED_EDGE('',*,*,#240,.F.);
#183=ORIENTED_EDGE('',*,*,#264,.F.);
#184=ORIENTED_EDGE('',*,*,#225,.F.);
#185=ORIENTED_EDGE('',*,*,#282,.T.);
#186=ORIENTED_EDGE('',*,*,#225,.T.);
#187=ORIENTED_EDGE('',*,*,#281,.F.);
#188=ORIENTED_EDGE('',*,*,#273,.F.);
#189=ORIENTED_EDGE('',*,*,#281,.T.);
#190=ORIENTED_EDGE('',*,*,#226,.T.);
#191=ORIENTED_EDGE('',*,*,#283,.F.);
#192=ORIENTED_EDGE('',*,*,#274,.F.);
#193=ORIENTED_EDGE('',*,*,#284,.T.);
#194=ORIENTED_EDGE('',*,*,#228,.T.);
#195=ORIENTED_EDGE('',*,*,#285,.F.);
#196=ORIENTED_EDGE('',*,*,#275,.F.);
#197=ORIENTED_EDGE('',*,*,#287,.T.);
#198=ORIENTED_EDGE('',*,*,#231,.T.);
#199=ORIENTED_EDGE('',*,*,#288,.F.);
#200=ORIENTED_EDGE('',*,*,#276,.F.);
#201=ORIENTED_EDGE('',*,*,#283,.T.);
#202=ORIENTED_EDGE('',*,*,#227,.T.);
#203=ORIENTED_EDGE('',*,*,#284,.F.);
#204=ORIENTED_EDGE('',*,*,#277,.F.);
#205=ORIENTED_EDGE('',*,*,#285,.T.);
#206=ORIENTED_EDGE('',*,*,#229,.T.);
#207=ORIENTED_EDGE('',*,*,#286,.F.);
#208=ORIENTED_EDGE('',*,*,#278,.F.);
#209=ORIENTED_EDGE('',*,*,#286,.T.);
#210=ORIENTED_EDGE('',*,*,#230,.T.);
#211=ORIENTED_EDGE('',*,*,#287,.F.);
#212=ORIENTED_EDGE('',*,*,#279,.F.);
#213=ORIENTED_EDGE('',*,*,#288,.T.);
#214=ORIENTED_EDGE('',*,*,#232,.T.);
#215=ORIENTED_EDGE('',*,*,#282,.F.);
#216=ORIENTED_EDGE('',*,*,#280,.F.);
#217=ORIENTED_EDGE('',*,*,#273,.T.);
#218=ORIENTED_EDGE('',*,*,#274,.T.);
#219=ORIENTED_EDGE('',*,*,#277,.T.);
#220=ORIENTED_EDGE('',*,*,#275,.T.);
#221=ORIENTED_EDGE('',*,*,#278,.T.);
#222=ORIENTED_EDGE('',*,*,#279,.T.);
#223=ORIENTED_EDGE('',*,*,#276,.T.);
#224=ORIENTED_EDGE('',*,*,#280,.T.);
#225=EDGE_CURVE('',#353,#354,#302,.T.);
#226=EDGE_CURVE('',#354,#355,#289,.T.);
#227=EDGE_CURVE('',#355,#356,#303,.T.);
#228=EDGE_CURVE('',#356,#357,#290,.T.);
#229=EDGE_CURVE('',#357,#358,#304,.T.);
#230=EDGE_CURVE('',#358,#359,#291,.T.);
#231=EDGE_CURVE('',#359,#360,#305,.T.);
#232=EDGE_CURVE('',#360,#353,#292,.T.);
#233=EDGE_CURVE('',#362,#361,#306,.T.);
#234=EDGE_CURVE('',#361,#363,#307,.T.);
#235=EDGE_CURVE('',#363,#364,#308,.T.);
#236=EDGE_CURVE('',#364,#365,#309,.T.);
#237=EDGE_CURVE('',#365,#366,#310,.T.);
#238=EDGE_CURVE('',#366,#367,#311,.T.);
#239=EDGE_CURVE('',#367,#368,#312,.T.);
#240=EDGE_CURVE('',#368,#362,#313,.T.);
#241=EDGE_CURVE('',#370,#369,#314,.T.);
#242=EDGE_CURVE('',#369,#371,#315,.T.);
#243=EDGE_CURVE('',#371,#372,#316,.T.);
#244=EDGE_CURVE('',#372,#373,#317,.T.);
#245=EDGE_CURVE('',#373,#374,#318,.T.);
#246=EDGE_CURVE('',#374,#375,#319,.T.);
#247=EDGE_CURVE('',#375,#376,#320,.T.);
#248=EDGE_CURVE('',#376,#370,#321,.T.);
#249=EDGE_CURVE('',#377,#378,#322,.T.);
#250=EDGE_CURVE('',#378,#379,#293,.T.);
#251=EDGE_CURVE('',#379,#380,#323,.T.);
#252=EDGE_CURVE('',#380,#381,#324,.T.);
#253=EDGE_CURVE('',#381,#382,#325,.T.);
#254=EDGE_CURVE('',#382,#383,#326,.T.);
#255=EDGE_CURVE('',#383,#384,#327,.T.);
#256=EDGE_CURVE('',#384,#377,#294,.T.);
#257=EDGE_CURVE('',#360,#361,#328,.T.);
#258=EDGE_CURVE('',#353,#362,#329,.T.);
#259=EDGE_CURVE('',#359,#363,#330,.T.);
#260=EDGE_CURVE('',#358,#364,#331,.T.);
#261=EDGE_CURVE('',#357,#365,#332,.T.);
#262=EDGE_CURVE('',#356,#366,#333,.T.);
#263=EDGE_CURVE('',#355,#367,#334,.T.);
#264=EDGE_CURVE('',#354,#368,#335,.T.);
#265=EDGE_CURVE('',#378,#369,#336,.T.);
#266=EDGE_CURVE('',#377,#370,#337,.T.);
#267=EDGE_CURVE('',#379,#371,#338,.T.);
#268=EDGE_CURVE('',#380,#372,#339,.T.);
#269=EDGE_CURVE('',#381,#373,#340,.T.);
#270=EDGE_CURVE('',#382,#374,#341,.T.);
#271=EDGE_CURVE('',#383,#375,#342,.T.);
#272=EDGE_CURVE('',#384,#376,#343,.T.);
#273=EDGE_CURVE('',#385,#386,#344,.T.);
#274=EDGE_CURVE('',#386,#387,#295,.T.);
#275=EDGE_CURVE('',#388,#389,#296,.T.);
#276=EDGE_CURVE('',#390,#391,#345,.T.);
#277=EDGE_CURVE('',#387,#388,#346,.T.);
#278=EDGE_CURVE('',#389,#392,#347,.T.);
#279=EDGE_CURVE('',#392,#390,#297,.T.);
#280=EDGE_CURVE('',#391,#385,#298,.T.);
#281=EDGE_CURVE('',#386,#354,#348,.T.);
#282=EDGE_CURVE('',#385,#353,#349,.T.);
#283=EDGE_CURVE('',#387,#355,#299,.T.);
#284=EDGE_CURVE('',#388,#356,#350,.T.);
#285=EDGE_CURVE('',#389,#357,#300,.T.);
#286=EDGE_CURVE('',#392,#358,#351,.T.);
#287=EDGE_CURVE('',#390,#359,#301,.T.);
#288=EDGE_CURVE('',#391,#360,#352,.T.);
#289=B_SPLINE_CURVE_WITH_KNOTS('',1,(#638,#639),.UNSPECIFIED.,.F.,.F.,(2,
2),(-189.634790834436,-143.634790807663),.UNSPECIFIED.);
#290=B_SPLINE_CURVE_WITH_KNOTS('',1,(#643,#644),.UNSPECIFIED.,.F.,.F.,(2,
2),(-131.068420193304,-101.100580724397),.UNSPECIFIED.);
#291=B_SPLINE_CURVE_WITH_KNOTS('',1,(#648,#649),.UNSPECIFIED.,.F.,.F.,(2,
2),(-88.5342101100381,-42.5342100832659),.UNSPECIFIED.);
#292=B_SPLINE_CURVE_WITH_KNOTS('',1,(#653,#654),.UNSPECIFIED.,.F.,.F.,(2,
2),(-29.9678394689067,0.),.UNSPECIFIED.);
#293=B_SPLINE_CURVE_WITH_KNOTS('',1,(#706,#707),.UNSPECIFIED.,.F.,.F.,(2,
2),(8.90000000000005,54.9000000267724),.UNSPECIFIED.);
#294=B_SPLINE_CURVE_WITH_KNOTS('',1,(#723,#724),.UNSPECIFIED.,.F.,.F.,(2,
2),(-29.9678394689066,7.46069872548105E-14),.UNSPECIFIED.);
#295=B_SPLINE_CURVE_WITH_KNOTS('',1,(#760,#761),.UNSPECIFIED.,.F.,.F.,(2,
2),(-189.634790834436,-143.634790807663),.UNSPECIFIED.);
#296=B_SPLINE_CURVE_WITH_KNOTS('',1,(#762,#763),.UNSPECIFIED.,.F.,.F.,(2,
2),(-131.068420193304,-101.100580724397),.UNSPECIFIED.);
#297=B_SPLINE_CURVE_WITH_KNOTS('',1,(#773,#774),.UNSPECIFIED.,.F.,.F.,(2,
2),(-88.5342101100381,-42.5342100832659),.UNSPECIFIED.);
#298=B_SPLINE_CURVE_WITH_KNOTS('',1,(#775,#776),.UNSPECIFIED.,.F.,.F.,(2,
2),(-29.9678394689067,0.),.UNSPECIFIED.);
#299=B_SPLINE_CURVE_WITH_KNOTS('',1,(#781,#782),.UNSPECIFIED.,.F.,.F.,(2,
2),(-1.,0.),.UNSPECIFIED.);
#300=B_SPLINE_CURVE_WITH_KNOTS('',1,(#785,#786),.UNSPECIFIED.,.F.,.F.,(2,
2),(-1.,0.),.UNSPECIFIED.);
#301=B_SPLINE_CURVE_WITH_KNOTS('',1,(#789,#790),.UNSPECIFIED.,.F.,.F.,(2,
2),(-1.,0.),.UNSPECIFIED.);
#302=(
BOUNDED_CURVE()
B_SPLINE_CURVE(2,(#635,#636,#637),.UNSPECIFIED.,.F.,.F.)
B_SPLINE_CURVE_WITH_KNOTS((3,3),(-202.201161448795,-189.634790834436),
 .UNSPECIFIED.)
CURVE()
GEOMETRIC_REPRESENTATION_ITEM()
RATIONAL_B_SPLINE_CURVE((1.,0.70710678118656,1.))
REPRESENTATION_ITEM('')
);
#303=(
BOUNDED_CURVE()
B_SPLINE_CURVE(2,(#640,#641,#642),.UNSPECIFIED.,.F.,.F.)
B_SPLINE_CURVE_WITH_KNOTS((3,3),(-143.634790807663,-131.068420193304),
 .UNSPECIFIED.)
CURVE()
GEOMETRIC_REPRESENTATION_ITEM()
RATIONAL_B_SPLINE_CURVE((1.,0.70710678118656,1.))
REPRESENTATION_ITEM('')
);
#304=(
BOUNDED_CURVE()
B_SPLINE_CURVE(2,(#645,#646,#647),.UNSPECIFIED.,.F.,.F.)
B_SPLINE_CURVE_WITH_KNOTS((3,3),(-101.100580724397,-88.5342101100381),
 .UNSPECIFIED.)
CURVE()
GEOMETRIC_REPRESENTATION_ITEM()
RATIONAL_B_SPLINE_CURVE((1.,0.70710678118655,1.))
REPRESENTATION_ITEM('')
);
#305=(
BOUNDED_CURVE()
B_SPLINE_CURVE(2,(#650,#651,#652),.UNSPECIFIED.,.F.,.F.)
B_SPLINE_CURVE_WITH_KNOTS((3,3),(-42.5342100832659,-29.9678394689067),
 .UNSPECIFIED.)
CURVE()
GEOMETRIC_REPRESENTATION_ITEM()
RATIONAL_B_SPLINE_CURVE((1.,0.707106781186543,1.))
REPRESENTATION_ITEM('')
);
#306=(
BOUNDED_CURVE()
B_SPLINE_CURVE(2,(#655,#656,#657),.UNSPECIFIED.,.F.,.F.)
B_SPLINE_CURVE_WITH_KNOTS((3,3),(0.,29.9678394689067),.UNSPECIFIED.)
CURVE()
GEOMETRIC_REPRESENTATION_ITEM()
RATIONAL_B_SPLINE_CURVE((1.,1.,1.))
REPRESENTATION_ITEM('')
);
#307=(
BOUNDED_CURVE()
B_SPLINE_CURVE(2,(#658,#659,#660),.UNSPECIFIED.,.F.,.F.)
B_SPLINE_CURVE_WITH_KNOTS((3,3),(29.9678394689067,42.5342100832659),
 .UNSPECIFIED.)
CURVE()
GEOMETRIC_REPRESENTATION_ITEM()
RATIONAL_B_SPLINE_CURVE((1.,0.707106781186543,1.))
REPRESENTATION_ITEM('')
);
#308=(
BOUNDED_CURVE()
B_SPLINE_CURVE(2,(#661,#662,#663),.UNSPECIFIED.,.F.,.F.)
B_SPLINE_CURVE_WITH_KNOTS((3,3),(42.5342100832659,88.5342101100381),
 .UNSPECIFIED.)
CURVE()
GEOMETRIC_REPRESENTATION_ITEM()
RATIONAL_B_SPLINE_CURVE((1.,1.,1.))
REPRESENTATION_ITEM('')
);
#309=(
BOUNDED_CURVE()
B_SPLINE_CURVE(2,(#664,#665,#666),.UNSPECIFIED.,.F.,.F.)
B_SPLINE_CURVE_WITH_KNOTS((3,3),(88.5342101100381,101.100580724397),
 .UNSPECIFIED.)
CURVE()
GEOMETRIC_REPRESENTATION_ITEM()
RATIONAL_B_SPLINE_CURVE((1.,0.70710678118655,1.))
REPRESENTATION_ITEM('')
);
#310=(
BOUNDED_CURVE()
B_SPLINE_CURVE(2,(#667,#668,#669),.UNSPECIFIED.,.F.,.F.)
B_SPLINE_CURVE_WITH_KNOTS((3,3),(101.100580724397,131.068420193304),
 .UNSPECIFIED.)
CURVE()
GEOMETRIC_REPRESENTATION_ITEM()
RATIONAL_B_SPLINE_CURVE((1.,1.,1.))
REPRESENTATION_ITEM('')
);
#311=(
BOUNDED_CURVE()
B_SPLINE_CURVE(2,(#670,#671,#672),.UNSPECIFIED.,.F.,.F.)
B_SPLINE_CURVE_WITH_KNOTS((3,3),(131.068420193304,143.634790807663),
 .UNSPECIFIED.)
CURVE()
GEOMETRIC_REPRESENTATION_ITEM()
RATIONAL_B_SPLINE_CURVE((1.,0.70710678118656,1.))
REPRESENTATION_ITEM('')
);
#312=(
BOUNDED_CURVE()
B_SPLINE_CURVE(2,(#673,#674,#675),.UNSPECIFIED.,.F.,.F.)
B_SPLINE_CURVE_WITH_KNOTS((3,3),(143.634790807663,189.634790834436),
 .UNSPECIFIED.)
CURVE()
GEOMETRIC_REPRESENTATION_ITEM()
RATIONAL_B_SPLINE_CURVE((1.,1.,1.))
REPRESENTATION_ITEM('')
);
#313=(
BOUNDED_CURVE()
B_SPLINE_CURVE(2,(#676,#677,#678),.UNSPECIFIED.,.F.,.F.)
B_SPLINE_CURVE_WITH_KNOTS((3,3),(189.634790834436,202.201161448795),
 .UNSPECIFIED.)
CURVE()
GEOMETRIC_REPRESENTATION_ITEM()
RATIONAL_B_SPLINE_CURVE((1.,0.70710678118656,1.))
REPRESENTATION_ITEM('')
);
#314=(
BOUNDED_CURVE()
B_SPLINE_CURVE(2,(#679,#680,#681),.UNSPECIFIED.,.F.,.F.)
B_SPLINE_CURVE_WITH_KNOTS((3,3),(202.201161448795,214.767532063154),
 .UNSPECIFIED.)
CURVE()
GEOMETRIC_REPRESENTATION_ITEM()
RATIONAL_B_SPLINE_CURVE((1.,0.707106781186548,1.))
REPRESENTATION_ITEM('')
);
#315=(
BOUNDED_CURVE()
B_SPLINE_CURVE(2,(#682,#683,#684),.UNSPECIFIED.,.F.,.F.)
B_SPLINE_CURVE_WITH_KNOTS((3,3),(214.767532063154,260.767532089926),
 .UNSPECIFIED.)
CURVE()
GEOMETRIC_REPRESENTATION_ITEM()
RATIONAL_B_SPLINE_CURVE((1.,1.,1.))
REPRESENTATION_ITEM('')
);
#316=(
BOUNDED_CURVE()
B_SPLINE_CURVE(2,(#685,#686,#687),.UNSPECIFIED.,.F.,.F.)
B_SPLINE_CURVE_WITH_KNOTS((3,3),(260.767532089926,273.333902704285),
 .UNSPECIFIED.)
CURVE()
GEOMETRIC_REPRESENTATION_ITEM()
RATIONAL_B_SPLINE_CURVE((1.,0.707106781186548,1.))
REPRESENTATION_ITEM('')
);
#317=(
BOUNDED_CURVE()
B_SPLINE_CURVE(2,(#688,#689,#690),.UNSPECIFIED.,.F.,.F.)
B_SPLINE_CURVE_WITH_KNOTS((3,3),(273.333902704285,303.301742173192),
 .UNSPECIFIED.)
CURVE()
GEOMETRIC_REPRESENTATION_ITEM()
RATIONAL_B_SPLINE_CURVE((1.,1.,1.))
REPRESENTATION_ITEM('')
);
#318=(
BOUNDED_CURVE()
B_SPLINE_CURVE(2,(#691,#692,#693),.UNSPECIFIED.,.F.,.F.)
B_SPLINE_CURVE_WITH_KNOTS((3,3),(303.301742173192,315.868112787551),
 .UNSPECIFIED.)
CURVE()
GEOMETRIC_REPRESENTATION_ITEM()
RATIONAL_B_SPLINE_CURVE((1.,0.707106781186547,1.))
REPRESENTATION_ITEM('')
);
#319=(
BOUNDED_CURVE()
B_SPLINE_CURVE(2,(#694,#695,#696),.UNSPECIFIED.,.F.,.F.)
B_SPLINE_CURVE_WITH_KNOTS((3,3),(315.868112787551,361.868112814323),
 .UNSPECIFIED.)
CURVE()
GEOMETRIC_REPRESENTATION_ITEM()
RATIONAL_B_SPLINE_CURVE((1.,1.,1.))
REPRESENTATION_ITEM('')
);
#320=(
BOUNDED_CURVE()
B_SPLINE_CURVE(2,(#697,#698,#699),.UNSPECIFIED.,.F.,.F.)
B_SPLINE_CURVE_WITH_KNOTS((3,3),(361.868112814323,374.434483428683),
 .UNSPECIFIED.)
CURVE()
GEOMETRIC_REPRESENTATION_ITEM()
RATIONAL_B_SPLINE_CURVE((1.,0.707106781186546,1.))
REPRESENTATION_ITEM('')
);
#321=(
BOUNDED_CURVE()
B_SPLINE_CURVE(2,(#700,#701,#702),.UNSPECIFIED.,.F.,.F.)
B_SPLINE_CURVE_WITH_KNOTS((3,3),(374.434483428683,404.402322897589),
 .UNSPECIFIED.)
CURVE()
GEOMETRIC_REPRESENTATION_ITEM()
RATIONAL_B_SPLINE_CURVE((1.,1.,1.))
REPRESENTATION_ITEM('')
);
#322=(
BOUNDED_CURVE()
B_SPLINE_CURVE(2,(#703,#704,#705),.UNSPECIFIED.,.F.,.F.)
B_SPLINE_CURVE_WITH_KNOTS((3,3),(202.201161448795,214.767532063154),
 .UNSPECIFIED.)
CURVE()
GEOMETRIC_REPRESENTATION_ITEM()
RATIONAL_B_SPLINE_CURVE((1.,0.707106781186548,1.))
REPRESENTATION_ITEM('')
);
#323=(
BOUNDED_CURVE()
B_SPLINE_CURVE(2,(#708,#709,#710),.UNSPECIFIED.,.F.,.F.)
B_SPLINE_CURVE_WITH_KNOTS((3,3),(260.767532089926,273.333902704285),
 .UNSPECIFIED.)
CURVE()
GEOMETRIC_REPRESENTATION_ITEM()
RATIONAL_B_SPLINE_CURVE((1.,0.707106781186545,1.))
REPRESENTATION_ITEM('')
);
#324=(
BOUNDED_CURVE()
B_SPLINE_CURVE(2,(#711,#712,#713),.UNSPECIFIED.,.F.,.F.)
B_SPLINE_CURVE_WITH_KNOTS((3,3),(273.333902704285,303.301742173192),
 .UNSPECIFIED.)
CURVE()
GEOMETRIC_REPRESENTATION_ITEM()
RATIONAL_B_SPLINE_CURVE((1.,1.,1.))
REPRESENTATION_ITEM('')
);
#325=(
BOUNDED_CURVE()
B_SPLINE_CURVE(2,(#714,#715,#716),.UNSPECIFIED.,.F.,.F.)
B_SPLINE_CURVE_WITH_KNOTS((3,3),(303.301742173192,315.868112787551),
 .UNSPECIFIED.)
CURVE()
GEOMETRIC_REPRESENTATION_ITEM()
RATIONAL_B_SPLINE_CURVE((1.,0.707106781186548,1.))
REPRESENTATION_ITEM('')
);
#326=(
BOUNDED_CURVE()
B_SPLINE_CURVE(2,(#717,#718,#719),.UNSPECIFIED.,.F.,.F.)
B_SPLINE_CURVE_WITH_KNOTS((3,3),(315.868112787551,361.868112814323),
 .UNSPECIFIED.)
CURVE()
GEOMETRIC_REPRESENTATION_ITEM()
RATIONAL_B_SPLINE_CURVE((1.,1.,1.))
REPRESENTATION_ITEM('')
);
#327=(
BOUNDED_CURVE()
B_SPLINE_CURVE(2,(#720,#721,#722),.UNSPECIFIED.,.F.,.F.)
B_SPLINE_CURVE_WITH_KNOTS((3,3),(361.868112814323,374.434483428683),
 .UNSPECIFIED.)
CURVE()
GEOMETRIC_REPRESENTATION_ITEM()
RATIONAL_B_SPLINE_CURVE((1.,0.707106781186553,1.))
REPRESENTATION_ITEM('')
);
#328=(
BOUNDED_CURVE()
B_SPLINE_CURVE(1,(#725,#726),.UNSPECIFIED.,.F.,.F.)
B_SPLINE_CURVE_WITH_KNOTS((2,2),(19.0000012841308,38.0000025682617),
 .UNSPECIFIED.)
CURVE()
GEOMETRIC_REPRESENTATION_ITEM()
RATIONAL_B_SPLINE_CURVE((1.,1.))
REPRESENTATION_ITEM('')
);
#329=(
BOUNDED_CURVE()
B_SPLINE_CURVE(1,(#727,#728),.UNSPECIFIED.,.F.,.F.)
B_SPLINE_CURVE_WITH_KNOTS((2,2),(19.0000012841309,38.0000025682617),
 .UNSPECIFIED.)
CURVE()
GEOMETRIC_REPRESENTATION_ITEM()
RATIONAL_B_SPLINE_CURVE((1.,1.))
REPRESENTATION_ITEM('')
);
#330=(
BOUNDED_CURVE()
B_SPLINE_CURVE(1,(#729,#730),.UNSPECIFIED.,.F.,.F.)
B_SPLINE_CURVE_WITH_KNOTS((2,2),(19.0000012841308,38.0000025682617),
 .UNSPECIFIED.)
CURVE()
GEOMETRIC_REPRESENTATION_ITEM()
RATIONAL_B_SPLINE_CURVE((1.,1.))
REPRESENTATION_ITEM('')
);
#331=(
BOUNDED_CURVE()
B_SPLINE_CURVE(1,(#731,#732),.UNSPECIFIED.,.F.,.F.)
B_SPLINE_CURVE_WITH_KNOTS((2,2),(19.0000012841308,38.0000025682617),
 .UNSPECIFIED.)
CURVE()
GEOMETRIC_REPRESENTATION_ITEM()
RATIONAL_B_SPLINE_CURVE((1.,1.))
REPRESENTATION_ITEM('')
);
#332=(
BOUNDED_CURVE()
B_SPLINE_CURVE(1,(#733,#734),.UNSPECIFIED.,.F.,.F.)
B_SPLINE_CURVE_WITH_KNOTS((2,2),(19.0000012841308,38.0000025682617),
 .UNSPECIFIED.)
CURVE()
GEOMETRIC_REPRESENTATION_ITEM()
RATIONAL_B_SPLINE_CURVE((1.,1.))
REPRESENTATION_ITEM('')
);
#333=(
BOUNDED_CURVE()
B_SPLINE_CURVE(1,(#735,#736),.UNSPECIFIED.,.F.,.F.)
B_SPLINE_CURVE_WITH_KNOTS((2,2),(19.0000012841309,38.0000025682617),
 .UNSPECIFIED.)
CURVE()
GEOMETRIC_REPRESENTATION_ITEM()
RATIONAL_B_SPLINE_CURVE((1.,1.))
REPRESENTATION_ITEM('')
);
#334=(
BOUNDED_CURVE()
B_SPLINE_CURVE(1,(#737,#738),.UNSPECIFIED.,.F.,.F.)
B_SPLINE_CURVE_WITH_KNOTS((2,2),(19.0000012841309,38.0000025682617),
 .UNSPECIFIED.)
CURVE()
GEOMETRIC_REPRESENTATION_ITEM()
RATIONAL_B_SPLINE_CURVE((1.,1.))
REPRESENTATION_ITEM('')
);
#335=(
BOUNDED_CURVE()
B_SPLINE_CURVE(1,(#739,#740),.UNSPECIFIED.,.F.,.F.)
B_SPLINE_CURVE_WITH_KNOTS((2,2),(19.0000012841309,38.0000025682617),
 .UNSPECIFIED.)
CURVE()
GEOMETRIC_REPRESENTATION_ITEM()
RATIONAL_B_SPLINE_CURVE((1.,1.))
REPRESENTATION_ITEM('')
);
#336=(
BOUNDED_CURVE()
B_SPLINE_CURVE(1,(#741,#742),.UNSPECIFIED.,.F.,.F.)
B_SPLINE_CURVE_WITH_KNOTS((2,2),(19.0000012841309,38.0000025682617),
 .UNSPECIFIED.)
CURVE()
GEOMETRIC_REPRESENTATION_ITEM()
RATIONAL_B_SPLINE_CURVE((1.,1.))
REPRESENTATION_ITEM('')
);
#337=(
BOUNDED_CURVE()
B_SPLINE_CURVE(1,(#743,#744),.UNSPECIFIED.,.F.,.F.)
B_SPLINE_CURVE_WITH_KNOTS((2,2),(19.0000012841309,38.0000025682617),
 .UNSPECIFIED.)
CURVE()
GEOMETRIC_REPRESENTATION_ITEM()
RATIONAL_B_SPLINE_CURVE((1.,1.))
REPRESENTATION_ITEM('')
);
#338=(
BOUNDED_CURVE()
B_SPLINE_CURVE(1,(#745,#746),.UNSPECIFIED.,.F.,.F.)
B_SPLINE_CURVE_WITH_KNOTS((2,2),(19.0000012841309,38.0000025682617),
 .UNSPECIFIED.)
CURVE()
GEOMETRIC_REPRESENTATION_ITEM()
RATIONAL_B_SPLINE_CURVE((1.,1.))
REPRESENTATION_ITEM('')
);
#339=(
BOUNDED_CURVE()
B_SPLINE_CURVE(1,(#747,#748),.UNSPECIFIED.,.F.,.F.)
B_SPLINE_CURVE_WITH_KNOTS((2,2),(19.0000012841309,38.0000025682617),
 .UNSPECIFIED.)
CURVE()
GEOMETRIC_REPRESENTATION_ITEM()
RATIONAL_B_SPLINE_CURVE((1.,1.))
REPRESENTATION_ITEM('')
);
#340=(
BOUNDED_CURVE()
B_SPLINE_CURVE(1,(#749,#750),.UNSPECIFIED.,.F.,.F.)
B_SPLINE_CURVE_WITH_KNOTS((2,2),(19.0000012841308,38.0000025682617),
 .UNSPECIFIED.)
CURVE()
GEOMETRIC_REPRESENTATION_ITEM()
RATIONAL_B_SPLINE_CURVE((1.,1.))
REPRESENTATION_ITEM('')
);
#341=(
BOUNDED_CURVE()
B_SPLINE_CURVE(1,(#751,#752),.UNSPECIFIED.,.F.,.F.)
B_SPLINE_CURVE_WITH_KNOTS((2,2),(19.0000012841308,38.0000025682617),
 .UNSPECIFIED.)
CURVE()
GEOMETRIC_REPRESENTATION_ITEM()
RATIONAL_B_SPLINE_CURVE((1.,1.))
REPRESENTATION_ITEM('')
);
#342=(
BOUNDED_CURVE()
B_SPLINE_CURVE(1,(#753,#754),.UNSPECIFIED.,.F.,.F.)
B_SPLINE_CURVE_WITH_KNOTS((2,2),(19.0000012841308,38.0000025682617),
 .UNSPECIFIED.)
CURVE()
GEOMETRIC_REPRESENTATION_ITEM()
RATIONAL_B_SPLINE_CURVE((1.,1.))
REPRESENTATION_ITEM('')
);
#343=(
BOUNDED_CURVE()
B_SPLINE_CURVE(1,(#755,#756),.UNSPECIFIED.,.F.,.F.)
B_SPLINE_CURVE_WITH_KNOTS((2,2),(19.0000012841308,38.0000025682617),
 .UNSPECIFIED.)
CURVE()
GEOMETRIC_REPRESENTATION_ITEM()
RATIONAL_B_SPLINE_CURVE((1.,1.))
REPRESENTATION_ITEM('')
);
#344=(
BOUNDED_CURVE()
B_SPLINE_CURVE(2,(#757,#758,#759),.UNSPECIFIED.,.F.,.F.)
B_SPLINE_CURVE_WITH_KNOTS((3,3),(-202.201161448795,-189.634790834436),
 .UNSPECIFIED.)
CURVE()
GEOMETRIC_REPRESENTATION_ITEM()
RATIONAL_B_SPLINE_CURVE((1.,0.707106781186566,1.))
REPRESENTATION_ITEM('')
);
#345=(
BOUNDED_CURVE()
B_SPLINE_CURVE(2,(#764,#765,#766),.UNSPECIFIED.,.F.,.F.)
B_SPLINE_CURVE_WITH_KNOTS((3,3),(-42.5342100832659,-29.9678394689067),
 .UNSPECIFIED.)
CURVE()
GEOMETRIC_REPRESENTATION_ITEM()
RATIONAL_B_SPLINE_CURVE((1.,0.707106781186543,1.))
REPRESENTATION_ITEM('')
);
#346=(
BOUNDED_CURVE()
B_SPLINE_CURVE(2,(#767,#768,#769),.UNSPECIFIED.,.F.,.F.)
B_SPLINE_CURVE_WITH_KNOTS((3,3),(-143.634790807663,-131.068420193304),
 .UNSPECIFIED.)
CURVE()
GEOMETRIC_REPRESENTATION_ITEM()
RATIONAL_B_SPLINE_CURVE((1.,0.707106781186546,1.))
REPRESENTATION_ITEM('')
);
#347=(
BOUNDED_CURVE()
B_SPLINE_CURVE(2,(#770,#771,#772),.UNSPECIFIED.,.F.,.F.)
B_SPLINE_CURVE_WITH_KNOTS((3,3),(-101.100580724397,-88.5342101100381),
 .UNSPECIFIED.)
CURVE()
GEOMETRIC_REPRESENTATION_ITEM()
RATIONAL_B_SPLINE_CURVE((1.,0.707106781186544,1.))
REPRESENTATION_ITEM('')
);
#348=(
BOUNDED_CURVE()
B_SPLINE_CURVE(1,(#777,#778),.UNSPECIFIED.,.F.,.F.)
B_SPLINE_CURVE_WITH_KNOTS((2,2),(-1.,0.),.UNSPECIFIED.)
CURVE()
GEOMETRIC_REPRESENTATION_ITEM()
RATIONAL_B_SPLINE_CURVE((1.,1.))
REPRESENTATION_ITEM('')
);
#349=(
BOUNDED_CURVE()
B_SPLINE_CURVE(1,(#779,#780),.UNSPECIFIED.,.F.,.F.)
B_SPLINE_CURVE_WITH_KNOTS((2,2),(-1.,0.),.UNSPECIFIED.)
CURVE()
GEOMETRIC_REPRESENTATION_ITEM()
RATIONAL_B_SPLINE_CURVE((1.,1.))
REPRESENTATION_ITEM('')
);
#350=(
BOUNDED_CURVE()
B_SPLINE_CURVE(1,(#783,#784),.UNSPECIFIED.,.F.,.F.)
B_SPLINE_CURVE_WITH_KNOTS((2,2),(-1.,0.),.UNSPECIFIED.)
CURVE()
GEOMETRIC_REPRESENTATION_ITEM()
RATIONAL_B_SPLINE_CURVE((1.,1.))
REPRESENTATION_ITEM('')
);
#351=(
BOUNDED_CURVE()
B_SPLINE_CURVE(1,(#787,#788),.UNSPECIFIED.,.F.,.F.)
B_SPLINE_CURVE_WITH_KNOTS((2,2),(-1.,0.),.UNSPECIFIED.)
CURVE()
GEOMETRIC_REPRESENTATION_ITEM()
RATIONAL_B_SPLINE_CURVE((1.,1.))
REPRESENTATION_ITEM('')
);
#352=(
BOUNDED_CURVE()
B_SPLINE_CURVE(1,(#791,#792),.UNSPECIFIED.,.F.,.F.)
B_SPLINE_CURVE_WITH_KNOTS((2,2),(-1.,0.),.UNSPECIFIED.)
CURVE()
GEOMETRIC_REPRESENTATION_ITEM()
RATIONAL_B_SPLINE_CURVE((1.,1.))
REPRESENTATION_ITEM('')
);
#353=VERTEX_POINT('',#595);
#354=VERTEX_POINT('',#596);
#355=VERTEX_POINT('',#597);
#356=VERTEX_POINT('',#598);
#357=VERTEX_POINT('',#599);
#358=VERTEX_POINT('',#600);
#359=VERTEX_POINT('',#601);
#360=VERTEX_POINT('',#602);
#361=VERTEX_POINT('',#603);
#362=VERTEX_POINT('',#604);
#363=VERTEX_POINT('',#605);
#364=VERTEX_POINT('',#606);
#365=VERTEX_POINT('',#607);
#366=VERTEX_POINT('',#608);
#367=VERTEX_POINT('',#609);
#368=VERTEX_POINT('',#610);
#369=VERTEX_POINT('',#611);
#370=VERTEX_POINT('',#612);
#371=VERTEX_POINT('',#613);
#372=VERTEX_POINT('',#614);
#373=VERTEX_POINT('',#615);
#374=VERTEX_POINT('',#616);
#375=VERTEX_POINT('',#617);
#376=VERTEX_POINT('',#618);
#377=VERTEX_POINT('',#619);
#378=VERTEX_POINT('',#620);
#379=VERTEX_POINT('',#621);
#380=VERTEX_POINT('',#622);
#381=VERTEX_POINT('',#623);
#382=VERTEX_POINT('',#624);
#383=VERTEX_POINT('',#625);
#384=VERTEX_POINT('',#626);
#385=VERTEX_POINT('',#627);
#386=VERTEX_POINT('',#628);
#387=VERTEX_POINT('',#629);
#388=VERTEX_POINT('',#630);
#389=VERTEX_POINT('',#631);
#390=VERTEX_POINT('',#632);
#391=VERTEX_POINT('',#633);
#392=VERTEX_POINT('',#634);
#393=PLANE('',#509);
#394=PLANE('',#511);
#395=PLANE('',#513);
#396=PLANE('',#515);
#397=PLANE('',#516);
#398=PLANE('',#517);
#399=PLANE('',#518);
#400=PLANE('',#520);
#401=PLANE('',#522);
#402=PLANE('',#524);
#403=PLANE('',#527);
#404=PLANE('',#528);
#405=PLANE('',#532);
#406=PLANE('',#533);
#407=PLANE('',#534);
#408=CYLINDRICAL_SURFACE('',#508,7.99999999999999);
#409=CYLINDRICAL_SURFACE('',#510,8.);
#410=CYLINDRICAL_SURFACE('',#512,8.00000000000004);
#411=CYLINDRICAL_SURFACE('',#514,7.99999999999989);
#412=CYLINDRICAL_SURFACE('',#519,8.89999999999975);
#413=CYLINDRICAL_SURFACE('',#521,8.90000000000009);
#414=CYLINDRICAL_SURFACE('',#523,8.9000000000002);
#415=CYLINDRICAL_SURFACE('',#525,8.90000000000029);
#416=CYLINDRICAL_SURFACE('',#526,8.90000000000026);
#417=CYLINDRICAL_SURFACE('',#529,8.89999999999981);
#418=CYLINDRICAL_SURFACE('',#530,8.90000000000015);
#419=CYLINDRICAL_SURFACE('',#531,8.90000000000006);
#420=SHAPE_DEFINITION_REPRESENTATION(#421,#506);
#421=PRODUCT_DEFINITION_SHAPE('Document','',#423);
#422=PRODUCT_DEFINITION_CONTEXT('3D Mechanical Parts',#495,'design');
#423=PRODUCT_DEFINITION('A','First version',#465,#422);
#424=DATE_TIME_ROLE('classification_date');
#425=DATE_TIME_ROLE('creation_date');
#426=APPLIED_DATE_AND_TIME_ASSIGNMENT(#450,#424,(#429));
#427=APPLIED_DATE_AND_TIME_ASSIGNMENT(#452,#425,(#423));
#428=SECURITY_CLASSIFICATION_LEVEL('unclassified');
#429=SECURITY_CLASSIFICATION('A','Security for version',#428);
#430=APPLIED_SECURITY_CLASSIFICATION_ASSIGNMENT(#429,(#465));
#431=APPROVAL_ROLE('Version approval');
#432=APPROVAL_ROLE('Version Security approval');
#433=APPROVAL_ROLE('Definition approval');
#434=APPROVAL_PERSON_ORGANIZATION(#483,#459,#431);
#435=APPROVAL_PERSON_ORGANIZATION(#484,#460,#432);
#436=APPROVAL_PERSON_ORGANIZATION(#487,#461,#433);
#437=COORDINATED_UNIVERSAL_TIME_OFFSET(5,0,.BEHIND.);
#438=LOCAL_TIME(0,0,0.,#437);
#439=LOCAL_TIME(0,0,0.,#437);
#440=LOCAL_TIME(0,0,0.,#437);
#441=LOCAL_TIME(0,0,0.,#437);
#442=LOCAL_TIME(0,0,0.,#437);
#443=CALENDAR_DATE(1999,1,1);
#444=CALENDAR_DATE(1999,1,1);
#445=CALENDAR_DATE(1999,1,1);
#446=CALENDAR_DATE(1999,1,1);
#447=CALENDAR_DATE(1999,1,1);
#448=DATE_AND_TIME(#443,#438);
#449=DATE_AND_TIME(#444,#439);
#450=DATE_AND_TIME(#445,#440);
#451=DATE_AND_TIME(#446,#441);
#452=DATE_AND_TIME(#447,#442);
#453=APPROVAL_DATE_TIME(#448,#459);
#454=APPROVAL_DATE_TIME(#449,#460);
#455=APPROVAL_DATE_TIME(#451,#461);
#456=APPROVAL_STATUS('not_yet_approved');
#457=APPROVAL_STATUS('not_yet_approved');
#458=APPROVAL_STATUS('approved');
#459=APPROVAL(#456,'Version approval');
#460=APPROVAL(#457,'Version Security approval');
#461=APPROVAL(#458,'Definition approval');
#462=APPLIED_APPROVAL_ASSIGNMENT(#459,(#465));
#463=APPLIED_APPROVAL_ASSIGNMENT(#460,(#429));
#464=APPLIED_APPROVAL_ASSIGNMENT(#461,(#423));
#465=PRODUCT_DEFINITION_FORMATION_WITH_SPECIFIED_SOURCE('A',
'First version',#497,.MADE.);
#466=PERSON_AND_ORGANIZATION_ROLE('design_owner');
#467=PERSON_AND_ORGANIZATION_ROLE('creator');
#468=PERSON_AND_ORGANIZATION_ROLE('design_supplier');
#469=PERSON_AND_ORGANIZATION_ROLE('classification_officer');
#470=PERSON_AND_ORGANIZATION_ROLE('creator');
#471=ORGANIZATION('STI','lab','lab');
#472=ORGANIZATION('STI','unknown','unknown');
#473=ORGANIZATION('STI','unknown','unknown');
#474=ORGANIZATION('STI','unknown','unknown');
#475=ORGANIZATION('STI','unknown','unknown');
#476=ORGANIZATION('STI','unknown','unknown');
#477=ORGANIZATION('STI','unknown','unknown');
#478=PERSON('1','Box','vc60',$,$,$);
#479=PERSON('2','last','first',$,$,$);
#480=PERSON('3','President','Mr.',$,$,$);
#481=PERSON_AND_ORGANIZATION(#478,#471);
#482=PERSON_AND_ORGANIZATION(#479,#472);
#483=PERSON_AND_ORGANIZATION(#480,#473);
#484=PERSON_AND_ORGANIZATION(#480,#474);
#485=PERSON_AND_ORGANIZATION(#480,#475);
#486=PERSON_AND_ORGANIZATION(#479,#476);
#487=PERSON_AND_ORGANIZATION(#480,#477);
#488=APPLIED_PERSON_AND_ORGANIZATION_ASSIGNMENT(#481,#466,(#497));
#489=APPLIED_PERSON_AND_ORGANIZATION_ASSIGNMENT(#482,#467,(#465));
#490=APPLIED_PERSON_AND_ORGANIZATION_ASSIGNMENT(#482,#468,(#465));
#491=APPLIED_PERSON_AND_ORGANIZATION_ASSIGNMENT(#485,#469,(#429));
#492=APPLIED_PERSON_AND_ORGANIZATION_ASSIGNMENT(#486,#470,(#423));
#493=PRODUCT_RELATED_PRODUCT_CATEGORY('detail','detail',(#497));
#494=APPLICATION_PROTOCOL_DEFINITION('International Standard',
'config_control_design',1994,#495);
#495=APPLICATION_CONTEXT(
'configuration controlled 3d designs of mechanical parts and assemblie
s');
#496=PRODUCT_CONTEXT('3D Mechanical Parts',#495,'mechanical');
#497=PRODUCT('Document','Document','',(#496));
#498=(
LENGTH_UNIT()
NAMED_UNIT(*)
SI_UNIT(.MILLI.,.METRE.)
);
#499=(
NAMED_UNIT(*)
PLANE_ANGLE_UNIT()
SI_UNIT($,.RADIAN.)
);
#500=DIMENSIONAL_EXPONENTS(0.,0.,0.,0.,0.,0.,0.);
#501=PLANE_ANGLE_MEASURE_WITH_UNIT(PLANE_ANGLE_MEASURE(0.01745329252),#499);
#502=(
CONVERSION_BASED_UNIT('DEGREES',#501)
NAMED_UNIT(#500)
PLANE_ANGLE_UNIT()
);
#503=(
NAMED_UNIT(*)
SI_UNIT($,.STERADIAN.)
SOLID_ANGLE_UNIT()
);
#504=UNCERTAINTY_MEASURE_WITH_UNIT(LENGTH_MEASURE(0.001),#498,
'DISTANCE_ACCURACY_VALUE',
'Maximum model space distance between geometric entities at asserted c
onnectivities');
#505=(
GEOMETRIC_REPRESENTATION_CONTEXT(3)
GLOBAL_UNCERTAINTY_ASSIGNED_CONTEXT((#504))
GLOBAL_UNIT_ASSIGNED_CONTEXT((#503,#502,#498))
REPRESENTATION_CONTEXT('ID1','3D')
);
#506=SHAPE_REPRESENTATION('Document',(#507,#535),#505);
#507=AXIS2_PLACEMENT_3D('',#567,#536,#537);
#508=AXIS2_PLACEMENT_3D('',#568,#538,$);
#509=AXIS2_PLACEMENT_3D('',#569,#539,$);
#510=AXIS2_PLACEMENT_3D('',#570,#540,$);
#511=AXIS2_PLACEMENT_3D('',#571,#541,$);
#512=AXIS2_PLACEMENT_3D('',#572,#542,$);
#513=AXIS2_PLACEMENT_3D('',#573,#543,$);
#514=AXIS2_PLACEMENT_3D('',#574,#544,$);
#515=AXIS2_PLACEMENT_3D('',#575,#545,$);
#516=AXIS2_PLACEMENT_3D('',#576,#546,$);
#517=AXIS2_PLACEMENT_3D('',#577,#547,$);
#518=AXIS2_PLACEMENT_3D('',#578,#548,$);
#519=AXIS2_PLACEMENT_3D('',#579,#549,$);
#520=AXIS2_PLACEMENT_3D('',#580,#550,$);
#521=AXIS2_PLACEMENT_3D('',#581,#551,$);
#522=AXIS2_PLACEMENT_3D('',#582,#552,$);
#523=AXIS2_PLACEMENT_3D('',#583,#553,$);
#524=AXIS2_PLACEMENT_3D('',#584,#554,$);
#525=AXIS2_PLACEMENT_3D('',#585,#555,$);
#526=AXIS2_PLACEMENT_3D('',#586,#556,$);
#527=AXIS2_PLACEMENT_3D('',#587,#557,$);
#528=AXIS2_PLACEMENT_3D('',#588,#558,$);
#529=AXIS2_PLACEMENT_3D('',#589,#559,$);
#530=AXIS2_PLACEMENT_3D('',#590,#560,$);
#531=AXIS2_PLACEMENT_3D('',#591,#561,$);
#532=AXIS2_PLACEMENT_3D('',#592,#562,$);
#533=AXIS2_PLACEMENT_3D('',#593,#563,$);
#534=AXIS2_PLACEMENT_3D('',#594,#564,$);
#535=AXIS2_PLACEMENT_3D('',#793,#565,#566);
#536=DIRECTION('',(0.,0.,1.));
#537=DIRECTION('',(1.,0.,0.));
#538=DIRECTION('',(-3.1026647828863E-15,5.95968606414156E-18,-1.));
#539=DIRECTION('',(-1.,0.,0.));
#540=DIRECTION('',(-3.25967387548261E-15,1.51049406532198E-16,-1.));
#541=DIRECTION('',(0.,1.,0.));
#542=DIRECTION('',(-3.06612202665568E-15,4.25024422947549E-17,-1.));
#543=DIRECTION('',(1.,0.,0.));
#544=DIRECTION('',(-3.0661216432335E-15,-4.25028257169821E-17,-1.));
#545=DIRECTION('',(0.,-1.,0.));
#546=DIRECTION('',(0.,0.,1.));
#547=DIRECTION('',(0.,0.,1.));
#548=DIRECTION('',(0.,1.,0.));
#549=DIRECTION('',(3.03832754523568E-15,1.55122952562572E-16,1.));
#550=DIRECTION('',(-1.,0.,0.));
#551=DIRECTION('',(3.03832898127397E-15,-1.55121516524237E-16,1.));
#552=DIRECTION('',(0.,-1.,0.));
#553=DIRECTION('',(3.071173518866E-15,-2.76904333292581E-16,1.));
#554=DIRECTION('',(1.,0.,0.));
#555=DIRECTION('',(3.07117351886604E-15,2.76904333292613E-16,1.));
#556=DIRECTION('',(-9.63708937818979E-16,-9.63708937818976E-16,-1.));
#557=DIRECTION('',(1.,0.,0.));
#558=DIRECTION('',(0.,-1.,0.));
#559=DIRECTION('',(4.81854468909472E-16,-4.81854468909464E-16,-1.));
#560=DIRECTION('',(-9.63708937818957E-16,9.63708937818961E-16,-1.));
#561=DIRECTION('',(0.,0.,-1.));
#562=DIRECTION('',(-1.,0.,0.));
#563=DIRECTION('',(0.,1.,0.));
#564=DIRECTION('',(0.,0.,-1.));
#565=DIRECTION('',(0.,0.,1.));
#566=DIRECTION('',(1.,0.,0.));
#567=CARTESIAN_POINT('',(0.,0.,0.));
#568=CARTESIAN_POINT('',(-248.032160531093,120.,-1.31654615747372E-6));
#569=CARTESIAN_POINT('',(-240.032160531093,120.,-19.000002600677));
#570=CARTESIAN_POINT('',(-248.032160531093,73.9999999732277,-1.31654615621765E-6));
#571=CARTESIAN_POINT('',(-248.032160531093,65.9999999732277,-19.000002600677));
#572=CARTESIAN_POINT('',(-278.,73.9999999732277,-1.31654606826818E-6));
#573=CARTESIAN_POINT('',(-286.,73.9999999732277,-19.0000026006769));
#574=CARTESIAN_POINT('',(-278.,120.,-1.31654606826818E-6));
#575=CARTESIAN_POINT('',(-278.,128.,-19.0000026006769));
#576=CARTESIAN_POINT('',(-292.870979933613,57.1249999698811,18.9999999675848));
#577=CARTESIAN_POINT('',(-287.377678394689,129.538000000268,-1.31654614642409E-6));
#578=CARTESIAN_POINT('',(-248.032160531093,128.9,-19.000002600677));
#579=CARTESIAN_POINT('',(-278.,120.,-1.31654606722761E-6));
#580=CARTESIAN_POINT('',(-286.9,120.,-19.0000026006769));
#581=CARTESIAN_POINT('',(-278.,73.9999999732278,-1.31654606722762E-6));
#582=CARTESIAN_POINT('',(-278.,65.0999999732277,-19.0000026006769));
#583=CARTESIAN_POINT('',(-248.032160531094,73.9999999732279,-1.3165461549616E-6));
#584=CARTESIAN_POINT('',(-239.132160531093,73.9999999732277,-19.000002600677));
#585=CARTESIAN_POINT('',(-248.032160531094,120.,-1.3165461549616E-6));
#586=CARTESIAN_POINT('',(-248.032160531094,120.,-11.0000013165461));
#587=CARTESIAN_POINT('',(-239.132160531093,120.,-1.31654614642409E-6));
#588=CARTESIAN_POINT('',(-248.032160531093,65.0999999732277,-1.31654614642409E-6));
#589=CARTESIAN_POINT('',(-278.,120.,-11.0000013165461));
#590=CARTESIAN_POINT('',(-248.032160531093,73.9999999732278,-11.0000013165461));
#591=CARTESIAN_POINT('',(-278.,73.9999999732277,-11.0000013165461));
#592=CARTESIAN_POINT('',(-286.9,73.9999999732277,-1.31654614642409E-6));
#593=CARTESIAN_POINT('',(-278.,128.9,-1.31654614642409E-6));
#594=CARTESIAN_POINT('',(-295.9,37.,-1.00000131654615));
#595=CARTESIAN_POINT('',(-248.032160531093,128.9,-1.31654614642409E-6));
#596=CARTESIAN_POINT('',(-239.132160531093,120.,-1.31654614642409E-6));
#597=CARTESIAN_POINT('',(-239.132160531093,73.9999999732277,-1.31654614642409E-6));
#598=CARTESIAN_POINT('',(-248.032160531093,65.0999999732277,-1.31654614642409E-6));
#599=CARTESIAN_POINT('',(-278.,65.0999999732277,-1.31654614642409E-6));
#600=CARTESIAN_POINT('',(-286.9,73.9999999732277,-1.31654614642409E-6));
#601=CARTESIAN_POINT('',(-286.9,120.,-1.31654614642409E-6));
#602=CARTESIAN_POINT('',(-278.,128.9,-1.31654614642409E-6));
#603=CARTESIAN_POINT('',(-278.,128.9,18.9999999675848));
#604=CARTESIAN_POINT('',(-248.032160531093,128.9,18.9999999675847));
#605=CARTESIAN_POINT('',(-286.9,120.,18.9999999675848));
#606=CARTESIAN_POINT('',(-286.9,73.9999999732277,18.9999999675848));
#607=CARTESIAN_POINT('',(-278.,65.0999999732277,18.9999999675848));
#608=CARTESIAN_POINT('',(-248.032160531093,65.0999999732277,18.9999999675847));
#609=CARTESIAN_POINT('',(-239.132160531093,73.9999999732277,18.9999999675847));
#610=CARTESIAN_POINT('',(-239.132160531093,120.,18.9999999675847));
#611=CARTESIAN_POINT('',(-240.032160531093,120.,18.9999999675847));
#612=CARTESIAN_POINT('',(-248.032160531093,128.,18.9999999675847));
#613=CARTESIAN_POINT('',(-240.032160531093,73.9999999732277,18.9999999675847));
#614=CARTESIAN_POINT('',(-248.032160531093,65.9999999732277,18.9999999675847));
#615=CARTESIAN_POINT('',(-278.,65.9999999732277,18.9999999675848));
#616=CARTESIAN_POINT('',(-286.,73.9999999732277,18.9999999675848));
#617=CARTESIAN_POINT('',(-286.,120.,18.9999999675848));
#618=CARTESIAN_POINT('',(-278.,128.,18.9999999675848));
#619=CARTESIAN_POINT('',(-248.032160531093,128.,-1.31654614570782E-6));
#620=CARTESIAN_POINT('',(-240.032160531093,120.,-1.31654614570782E-6));
#621=CARTESIAN_POINT('',(-240.032160531093,73.9999999732277,-1.31654614570782E-6));
#622=CARTESIAN_POINT('',(-248.032160531093,65.9999999732277,-1.31654614393146E-6));
#623=CARTESIAN_POINT('',(-278.,65.9999999732277,-1.31654614748418E-6));
#624=CARTESIAN_POINT('',(-286.,73.9999999732277,-1.316546146596E-6));
#625=CARTESIAN_POINT('',(-286.,120.,-1.31654614570782E-6));
#626=CARTESIAN_POINT('',(-278.,128.,-1.31654614748418E-6));
#627=CARTESIAN_POINT('',(-248.032160531093,128.9,-1.00000131654615));
#628=CARTESIAN_POINT('',(-239.132160531093,120.,-1.00000131654615));
#629=CARTESIAN_POINT('',(-239.132160531093,73.9999999732277,-1.00000131654615));
#630=CARTESIAN_POINT('',(-248.032160531093,65.0999999732277,-1.00000131654615));
#631=CARTESIAN_POINT('',(-278.,65.0999999732277,-1.00000131654615));
#632=CARTESIAN_POINT('',(-286.9,120.,-1.00000131654615));
#633=CARTESIAN_POINT('',(-278.,128.9,-1.00000131654615));
#634=CARTESIAN_POINT('',(-286.9,73.9999999732277,-1.00000131654615));
#635=CARTESIAN_POINT('',(-248.032160531093,128.9,-1.31654614642409E-6));
#636=CARTESIAN_POINT('',(-239.132160531093,128.9,-1.31654614642409E-6));
#637=CARTESIAN_POINT('',(-239.132160531093,120.,-1.31654614642409E-6));
#638=CARTESIAN_POINT('',(-239.132160531093,120.,-1.31654614642409E-6));
#639=CARTESIAN_POINT('',(-239.132160531093,73.9999999732277,-1.31654614642409E-6));
#640=CARTESIAN_POINT('',(-239.132160531093,73.9999999732277,-1.31654614642409E-6));
#641=CARTESIAN_POINT('',(-239.132160531094,65.0999999732278,-1.31654614642409E-6));
#642=CARTESIAN_POINT('',(-248.032160531093,65.0999999732277,-1.31654614642409E-6));
#643=CARTESIAN_POINT('',(-248.032160531093,65.0999999732277,-1.31654614642409E-6));
#644=CARTESIAN_POINT('',(-278.,65.0999999732277,-1.31654614642409E-6));
#645=CARTESIAN_POINT('',(-278.,65.0999999732277,-1.31654614642409E-6));
#646=CARTESIAN_POINT('',(-286.9,65.0999999732277,-1.31654614642409E-6));
#647=CARTESIAN_POINT('',(-286.9,73.9999999732277,-1.31654614642409E-6));
#648=CARTESIAN_POINT('',(-286.9,73.9999999732277,-1.31654614642409E-6));
#649=CARTESIAN_POINT('',(-286.9,120.,-1.31654614642409E-6));
#650=CARTESIAN_POINT('',(-286.9,120.,-1.31654614642409E-6));
#651=CARTESIAN_POINT('',(-286.9,128.9,-1.31654614642409E-6));
#652=CARTESIAN_POINT('',(-278.,128.9,-1.31654614642409E-6));
#653=CARTESIAN_POINT('',(-278.,128.9,-1.31654614642409E-6));
#654=CARTESIAN_POINT('',(-248.032160531093,128.9,-1.31654614642409E-6));
#655=CARTESIAN_POINT('',(-248.032160531093,128.9,18.9999999675847));
#656=CARTESIAN_POINT('',(-263.016080265547,128.9,18.9999999675848));
#657=CARTESIAN_POINT('',(-278.,128.9,18.9999999675848));
#658=CARTESIAN_POINT('',(-278.,128.9,18.9999999675848));
#659=CARTESIAN_POINT('',(-286.9,128.9,18.9999999675848));
#660=CARTESIAN_POINT('',(-286.9,120.,18.9999999675848));
#661=CARTESIAN_POINT('',(-286.9,120.,18.9999999675848));
#662=CARTESIAN_POINT('',(-286.9,96.9999999866138,18.9999999675848));
#663=CARTESIAN_POINT('',(-286.9,73.9999999732277,18.9999999675848));
#664=CARTESIAN_POINT('',(-286.9,73.9999999732277,18.9999999675848));
#665=CARTESIAN_POINT('',(-286.9,65.0999999732277,18.9999999675848));
#666=CARTESIAN_POINT('',(-278.,65.0999999732277,18.9999999675848));
#667=CARTESIAN_POINT('',(-278.,65.0999999732277,18.9999999675848));
#668=CARTESIAN_POINT('',(-263.016080265547,65.0999999732277,18.9999999675848));
#669=CARTESIAN_POINT('',(-248.032160531093,65.0999999732277,18.9999999675847));
#670=CARTESIAN_POINT('',(-248.032160531093,65.0999999732277,18.9999999675847));
#671=CARTESIAN_POINT('',(-239.132160531093,65.0999999732278,18.9999999675847));
#672=CARTESIAN_POINT('',(-239.132160531093,73.9999999732277,18.9999999675847));
#673=CARTESIAN_POINT('',(-239.132160531093,73.9999999732277,18.9999999675847));
#674=CARTESIAN_POINT('',(-239.132160531093,96.9999999866138,18.9999999675847));
#675=CARTESIAN_POINT('',(-239.132160531093,120.,18.9999999675847));
#676=CARTESIAN_POINT('',(-239.132160531093,120.,18.9999999675847));
#677=CARTESIAN_POINT('',(-239.132160531093,128.9,18.9999999675847));
#678=CARTESIAN_POINT('',(-248.032160531093,128.9,18.9999999675847));
#679=CARTESIAN_POINT('',(-248.032160531093,128.,18.9999999675847));
#680=CARTESIAN_POINT('',(-240.032160531093,128.,18.9999999675847));
#681=CARTESIAN_POINT('',(-240.032160531093,120.,18.9999999675847));
#682=CARTESIAN_POINT('',(-240.032160531093,120.,18.9999999675847));
#683=CARTESIAN_POINT('',(-240.032160531093,96.9999999866138,18.9999999675847));
#684=CARTESIAN_POINT('',(-240.032160531093,73.9999999732277,18.9999999675847));
#685=CARTESIAN_POINT('',(-240.032160531093,73.9999999732277,18.9999999675847));
#686=CARTESIAN_POINT('',(-240.032160531093,65.9999999732277,18.9999999675847));
#687=CARTESIAN_POINT('',(-248.032160531093,65.9999999732277,18.9999999675847));
#688=CARTESIAN_POINT('',(-248.032160531093,65.9999999732277,18.9999999675847));
#689=CARTESIAN_POINT('',(-263.016080265547,65.9999999732277,18.9999999675848));
#690=CARTESIAN_POINT('',(-278.,65.9999999732277,18.9999999675848));
#691=CARTESIAN_POINT('',(-278.,65.9999999732277,18.9999999675848));
#692=CARTESIAN_POINT('',(-286.,65.9999999732277,18.9999999675848));
#693=CARTESIAN_POINT('',(-286.,73.9999999732277,18.9999999675848));
#694=CARTESIAN_POINT('',(-286.,73.9999999732277,18.9999999675848));
#695=CARTESIAN_POINT('',(-286.,96.9999999866138,18.9999999675848));
#696=CARTESIAN_POINT('',(-286.,120.,18.9999999675848));
#697=CARTESIAN_POINT('',(-286.,120.,18.9999999675848));
#698=CARTESIAN_POINT('',(-286.,128.,18.9999999675848));
#699=CARTESIAN_POINT('',(-278.,128.,18.9999999675848));
#700=CARTESIAN_POINT('',(-278.,128.,18.9999999675848));
#701=CARTESIAN_POINT('',(-263.016080265547,128.,18.9999999675848));
#702=CARTESIAN_POINT('',(-248.032160531093,128.,18.9999999675847));
#703=CARTESIAN_POINT('',(-248.032160531093,128.,-1.31654614570782E-6));
#704=CARTESIAN_POINT('',(-240.032160531093,128.,-1.31654616215018E-6));
#705=CARTESIAN_POINT('',(-240.032160531093,120.,-1.31654614570782E-6));
#706=CARTESIAN_POINT('',(-240.032160531093,120.,-1.31654614570782E-6));
#707=CARTESIAN_POINT('',(-240.032160531093,73.9999999732277,-1.31654614570782E-6));
#708=CARTESIAN_POINT('',(-240.032160531093,73.9999999732277,-1.31654614570782E-6));
#709=CARTESIAN_POINT('',(-240.032160531093,65.9999999732276,-1.31654616340625E-6));
#710=CARTESIAN_POINT('',(-248.032160531093,65.9999999732277,-1.31654614393146E-6));
#711=CARTESIAN_POINT('',(-248.032160531093,65.9999999732277,-1.31654614393146E-6));
#712=CARTESIAN_POINT('',(-263.016080265547,65.9999999732277,-1.31654614676791E-6));
#713=CARTESIAN_POINT('',(-278.,65.9999999732277,-1.31654614748418E-6));
#714=CARTESIAN_POINT('',(-278.,65.9999999732277,-1.31654614748418E-6));
#715=CARTESIAN_POINT('',(-286.,65.9999999732277,-1.31654613200441E-6));
#716=CARTESIAN_POINT('',(-286.,73.9999999732277,-1.316546146596E-6));
#717=CARTESIAN_POINT('',(-286.,73.9999999732277,-1.316546146596E-6));
#718=CARTESIAN_POINT('',(-286.,96.9999999866138,-1.31654614499155E-6));
#719=CARTESIAN_POINT('',(-286.,120.,-1.31654614570782E-6));
#720=CARTESIAN_POINT('',(-286.,120.,-1.31654614570782E-6));
#721=CARTESIAN_POINT('',(-286.,128.,-1.31654613200441E-6));
#722=CARTESIAN_POINT('',(-278.,128.,-1.31654614748418E-6));
#723=CARTESIAN_POINT('',(-278.,128.,-1.31654614748418E-6));
#724=CARTESIAN_POINT('',(-248.032160531093,128.,-1.31654614570782E-6));
#725=CARTESIAN_POINT('',(-278.,128.9,-1.31654614642409E-6));
#726=CARTESIAN_POINT('',(-278.,128.9,18.9999999675848));
#727=CARTESIAN_POINT('',(-248.032160531093,128.9,-1.31654614642409E-6));
#728=CARTESIAN_POINT('',(-248.032160531093,128.9,18.9999999675847));
#729=CARTESIAN_POINT('',(-286.9,120.,-1.31654614642409E-6));
#730=CARTESIAN_POINT('',(-286.9,120.,18.9999999675848));
#731=CARTESIAN_POINT('',(-286.9,73.9999999732277,-1.31654614642409E-6));
#732=CARTESIAN_POINT('',(-286.9,73.9999999732277,18.9999999675848));
#733=CARTESIAN_POINT('',(-278.,65.0999999732277,-1.31654614642409E-6));
#734=CARTESIAN_POINT('',(-278.,65.0999999732277,18.9999999675848));
#735=CARTESIAN_POINT('',(-248.032160531093,65.0999999732277,-1.31654614642409E-6));
#736=CARTESIAN_POINT('',(-248.032160531093,65.0999999732277,18.9999999675847));
#737=CARTESIAN_POINT('',(-239.132160531093,73.9999999732277,-1.31654614642409E-6));
#738=CARTESIAN_POINT('',(-239.132160531093,73.9999999732277,18.9999999675847));
#739=CARTESIAN_POINT('',(-239.132160531093,120.,-1.31654614642409E-6));
#740=CARTESIAN_POINT('',(-239.132160531093,120.,18.9999999675847));
#741=CARTESIAN_POINT('',(-240.032160531093,120.,-1.31654614570782E-6));
#742=CARTESIAN_POINT('',(-240.032160531093,120.,18.9999999675847));
#743=CARTESIAN_POINT('',(-248.032160531093,128.,-1.31654614570782E-6));
#744=CARTESIAN_POINT('',(-248.032160531093,128.,18.9999999675847));
#745=CARTESIAN_POINT('',(-240.032160531093,73.9999999732277,-1.31654614570782E-6));
#746=CARTESIAN_POINT('',(-240.032160531093,73.9999999732277,18.9999999675847));
#747=CARTESIAN_POINT('',(-248.032160531093,65.9999999732277,-1.31654614393146E-6));
#748=CARTESIAN_POINT('',(-248.032160531093,65.9999999732277,18.9999999675847));
#749=CARTESIAN_POINT('',(-278.,65.9999999732277,-1.31654614748418E-6));
#750=CARTESIAN_POINT('',(-278.,65.9999999732277,18.9999999675848));
#751=CARTESIAN_POINT('',(-286.,73.9999999732277,-1.316546146596E-6));
#752=CARTESIAN_POINT('',(-286.,73.9999999732277,18.9999999675848));
#753=CARTESIAN_POINT('',(-286.,120.,-1.31654614570782E-6));
#754=CARTESIAN_POINT('',(-286.,120.,18.9999999675848));
#755=CARTESIAN_POINT('',(-278.,128.,-1.31654614748418E-6));
#756=CARTESIAN_POINT('',(-278.,128.,18.9999999675848));
#757=CARTESIAN_POINT('',(-248.032160531093,128.9,-1.00000131654615));
#758=CARTESIAN_POINT('',(-239.132160531094,128.9,-1.00000131654615));
#759=CARTESIAN_POINT('',(-239.132160531093,120.,-1.00000131654615));
#760=CARTESIAN_POINT('',(-239.132160531093,120.,-1.00000131654615));
#761=CARTESIAN_POINT('',(-239.132160531093,73.9999999732277,-1.00000131654615));
#762=CARTESIAN_POINT('',(-248.032160531093,65.0999999732277,-1.00000131654615));
#763=CARTESIAN_POINT('',(-278.,65.0999999732277,-1.00000131654615));
#764=CARTESIAN_POINT('',(-286.9,120.,-1.00000131654615));
#765=CARTESIAN_POINT('',(-286.9,128.9,-1.00000131654615));
#766=CARTESIAN_POINT('',(-278.,128.9,-1.00000131654615));
#767=CARTESIAN_POINT('',(-239.132160531093,73.9999999732277,-1.00000131654615));
#768=CARTESIAN_POINT('',(-239.132160531093,65.0999999732276,-1.00000131654615));
#769=CARTESIAN_POINT('',(-248.032160531093,65.0999999732277,-1.00000131654615));
#770=CARTESIAN_POINT('',(-278.,65.0999999732277,-1.00000131654615));
#771=CARTESIAN_POINT('',(-286.9,65.0999999732277,-1.00000131654615));
#772=CARTESIAN_POINT('',(-286.9,73.9999999732277,-1.00000131654615));
#773=CARTESIAN_POINT('',(-286.9,73.9999999732277,-1.00000131654615));
#774=CARTESIAN_POINT('',(-286.9,120.,-1.00000131654615));
#775=CARTESIAN_POINT('',(-278.,128.9,-1.00000131654615));
#776=CARTESIAN_POINT('',(-248.032160531093,128.9,-1.00000131654615));
#777=CARTESIAN_POINT('',(-239.132160531093,120.,-1.00000131654615));
#778=CARTESIAN_POINT('',(-239.132160531093,120.,-1.31654614642409E-6));
#779=CARTESIAN_POINT('',(-248.032160531093,128.9,-1.00000131654615));
#780=CARTESIAN_POINT('',(-248.032160531093,128.9,-1.31654614642409E-6));
#781=CARTESIAN_POINT('',(-239.132160531093,73.9999999732277,-1.00000131654615));
#782=CARTESIAN_POINT('',(-239.132160531093,73.9999999732277,-1.31654614642409E-6));
#783=CARTESIAN_POINT('',(-248.032160531093,65.0999999732277,-1.00000131654615));
#784=CARTESIAN_POINT('',(-248.032160531093,65.0999999732277,-1.31654614642409E-6));
#785=CARTESIAN_POINT('',(-278.,65.0999999732277,-1.00000131654615));
#786=CARTESIAN_POINT('',(-278.,65.0999999732277,-1.31654614642409E-6));
#787=CARTESIAN_POINT('',(-286.9,73.9999999732277,-1.00000131654615));
#788=CARTESIAN_POINT('',(-286.9,73.9999999732277,-1.31654614642409E-6));
#789=CARTESIAN_POINT('',(-286.9,120.,-1.00000131654615));
#790=CARTESIAN_POINT('',(-286.9,120.,-1.31654614642409E-6));
#791=CARTESIAN_POINT('',(-278.,128.9,-1.00000131654615));
#792=CARTESIAN_POINT('',(-278.,128.9,-1.31654614642409E-6));
#793=CARTESIAN_POINT('',(0.,0.,0.));
ENDSEC;
END-ISO-10303-21;
