  0
SECTION
  2
HEADER
  9
$ACADVER
  1
AC1009
  9
$DWGCODEPAGE
  3
ansi_1252
  9
$INSBASE
 10
0.0
 20
0.0
 30
0.0
  9
$EXTMIN
 10
-384.0
 20
-166.5
 30
158.692464054651
  9
$EXTMAX
 10
384.0
 20
166.5
 30
158.692464054651
  9
$LIMMIN
 10
0.0
 20
0.0
  9
$LIMMAX
 10
12.0
 20
9.0
  9
$ORTHOMODE
 70
     0
  9
$REGENMODE
 70
     1
  9
$FILLMODE
 70
     1
  9
$QTEXTMODE
 70
     0
  9
$MIRRTEXT
 70
     1
  9
$DRAGMODE
 70
     2
  9
$LTSCALE
 40
1.0
  9
$OSMODE
 70
    37
  9
$ATTMODE
 70
     1
  9
$TEXTSIZE
 40
0.2
  9
$TRACEWID
 40
0.05
  9
$TEXTSTYLE
  7
STANDARD
  9
$CLAYER
  8
DEFAULT
  9
$CELTYPE
  6
BYLAYER
  9
$CECOLOR
 62
   256
  9
$DIMSCALE
 40
1.0
  9
$DIMASZ
 40
0.18
  9
$DIMEXO
 40
0.0625
  9
$DIMDLI
 40
0.38
  9
$DIMRND
 40
0.0
  9
$DIMDLE
 40
0.0
  9
$DIMEXE
 40
0.18
  9
$DIMTP
 40
0.0
  9
$DIMTM
 40
0.0
  9
$DIMTXT
 40
0.18
  9
$DIMCEN
 40
0.09
  9
$DIMTSZ
 40
0.0
  9
$DIMTOL
 70
     0
  9
$DIMLIM
 70
     0
  9
$DIMTIH
 70
     1
  9
$DIMTOH
 70
     1
  9
$DIMSE1
 70
     0
  9
$DIMSE2
 70
     0
  9
$DIMTAD
 70
     0
  9
$DIMZIN
 70
     0
  9
$DIMBLK
  1

  9
$DIMASO
 70
     1
  9
$DIMSHO
 70
     1
  9
$DIMPOST
  1

  9
$DIMAPOST
  1

  9
$DIMALT
 70
     0
  9
$DIMALTD
 70
     2
  9
$DIMALTF
 40
25.4
  9
$DIMLFAC
 40
1.0
  9
$DIMTOFL
 70
     0
  9
$DIMTVP
 40
0.0
  9
$DIMTIX
 70
     0
  9
$DIMSOXD
 70
     0
  9
$DIMSAH
 70
     0
  9
$DIMBLK1
  1

  9
$DIMBLK2
  1

  9
$DIMSTYLE
  2
STANDARD_ACAD
  9
$DIMCLRD
 70
     0
  9
$DIMCLRE
 70
     0
  9
$DIMCLRT
 70
     0
  9
$DIMTFAC
 40
1.0
  9
$DIMGAP
 40
0.09
  9
$LUNITS
 70
     2
  9
$LUPREC
 70
     3
  9
$SKETCHINC
 40
0.1
  9
$FILLETRAD
 40
0.0
  9
$AUNITS
 70
     0
  9
$AUPREC
 70
     0
  9
$MENU
  1
.
  9
$ELEVATION
 40
0.0
  9
$PELEVATION
 40
0.0
  9
$THICKNESS
 40
0.0
  9
$LIMCHECK
 70
     0
  9
$CHAMFERA
 40
0.0
  9
$CHAMFERB
 40
0.0
  9
$SKPOLY
 70
     0
  9
$TDCREATE
 40
2461030.759677326
  9
$TDUPDATE
 40
2461030.7597325
  9
$TDINDWG
 40
0.0000000116
  9
$TDUSRTIMER
 40
0.0000000116
  9
$USRTIMER
 70
     1
  9
$ANGBASE
 50
0.0
  9
$ANGDIR
 70
     0
  9
$PDMODE
 70
     0
  9
$PDSIZE
 40
0.0
  9
$PLINEWID
 40
0.0
  9
$COORDS
 70
     1
  9
$SPLFRAME
 70
     0
  9
$SPLINETYPE
 70
     6
  9
$SPLINESEGS
 70
     8
  9
$ATTDIA
 70
     0
  9
$ATTREQ
 70
     1
  9
$HANDLING
 70
     1
  9
$HANDSEED
  5
4C4
  9
$SURFTAB1
 70
     6
  9
$SURFTAB2
 70
     6
  9
$SURFTYPE
 70
     6
  9
$SURFU
 70
     6
  9
$SURFV
 70
     6
  9
$UCSNAME
  2

  9
$UCSORG
 10
0.0
 20
0.0
 30
0.0
  9
$UCSXDIR
 10
1.0
 20
0.0
 30
0.0
  9
$UCSYDIR
 10
0.0
 20
1.0
 30
0.0
  9
$PUCSNAME
  2

  9
$PUCSORG
 10
0.0
 20
0.0
 30
0.0
  9
$PUCSXDIR
 10
1.0
 20
0.0
 30
0.0
  9
$PUCSYDIR
 10
0.0
 20
1.0
 30
0.0
  9
$USERI1
 70
     0
  9
$USERI2
 70
     0
  9
$USERI3
 70
     0
  9
$USERI4
 70
     0
  9
$USERI5
 70
     0
  9
$USERR1
 40
0.0
  9
$USERR2
 40
0.0
  9
$USERR3
 40
0.0
  9
$USERR4
 40
0.0
  9
$USERR5
 40
0.0
  9
$WORLDVIEW
 70
     1
  9
$SHADEDGE
 70
     3
  9
$SHADEDIF
 70
    70
  9
$TILEMODE
 70
     1
  9
$MAXACTVP
 70
    64
  9
$PLIMCHECK
 70
     0
  9
$PEXTMIN
 10
1.000000000000000E+20
 20
1.000000000000000E+20
 30
1.000000000000000E+20
  9
$PEXTMAX
 10
-1.000000000000000E+20
 20
-1.000000000000000E+20
 30
-1.000000000000000E+20
  9
$PLIMMIN
 10
0.0
 20
0.0
  9
$PLIMMAX
 10
12.0
 20
9.0
  9
$UNITMODE
 70
     0
  9
$VISRETAIN
 70
     1
  9
$PLINEGEN
 70
     0
  9
$PSLTSCALE
 70
     1
  0
ENDSEC
  0
SECTION
  2
TABLES
  0
TABLE
  2
VPORT
 70
     1
  0
VPORT
  2
*ACTIVE
 70
     0
 10
0.0
 20
0.0
 11
1.0
 21
1.0
 12
10.42990654205607
 22
4.5
 13
0.0
 23
0.0
 14
0.5
 24
0.5
 15
0.5
 25
0.5
 16
0.0
 26
0.0
 36
1.0
 17
0.0
 27
0.0
 37
0.0
 40
9.0
 41
1.972972972850329
 42
50.0
 43
0.0
 44
0.0
 50
0.0
 51
0.0
 71
     0
 72
   100
 73
     1
 74
     3
 75
     0
 76
     0
 77
     0
 78
     0
  0
ENDTAB
  0
TABLE
  2
LTYPE
 70
     1
  0
LTYPE
  2
CONTINUOUS
 70
     0
  3
Solid line
 72
    65
 73
     0
 40
0.0
  0
ENDTAB
  0
TABLE
  2
LAYER
 70
     2
  0
LAYER
  2
0
 70
     0
 62
     7
  6
CONTINUOUS
  0
LAYER
  2
DEFAULT
 70
     0
 62
     7
  6
CONTINUOUS
  0
ENDTAB
  0
TABLE
  2
STYLE
 70
     1
  0
STYLE
  2
STANDARD
 70
     0
 40
0.0
 41
1.0
 50
0.0
 71
     0
 42
0.2
  3
txt
  4

  0
ENDTAB
  0
TABLE
  2
VIEW
 70
     0
  0
ENDTAB
  0
TABLE
  2
UCS
 70
     0
  0
ENDTAB
  0
TABLE
  2
APPID
 70
     2
  0
APPID
  2
ACAD
 70
     0
  0
APPID
  2
RHINO
 70
     0
  0
ENDTAB
  0
TABLE
  2
DIMSTYLE
 70
     1
  0
DIMSTYLE
  2
STANDARD_ACAD
 70
     0
  3

  4

  5

  6

  7

 40
1.0
 41
0.18
 42
0.0625
 43
0.38
 44
0.18
 45
0.0
 46
0.0
 47
0.0
 48
0.0
140
0.18
141
0.09
142
0.0
143
25.4
144
1.0
145
0.0
146
1.0
147
0.09
 71
     0
 72
     0
 73
     1
 74
     1
 75
     0
 76
     0
 77
     0
 78
     0
170
     0
171
     2
172
     0
173
     0
174
     0
175
     0
176
     0
177
     0
178
     0
  0
ENDTAB
  0
ENDSEC
  0
SECTION
  2
BLOCKS
  0
BLOCK
  8
0
  2
$MODEL_SPACE
 70
     0
 10
0.0
 20
0.0
 30
0.0
  3
$MODEL_SPACE
  1

  0
ENDBLK
  5
21
  8
0
  0
BLOCK
 67
     1
  8
0
  2
$PAPER_SPACE
 70
     0
 10
0.0
 20
0.0
 30
0.0
  3
$PAPER_SPACE
  1

  0
ENDBLK
  5
1D
 67
     1
  8
0
  0
ENDSEC
  0
SECTION
  2
ENTITIES
  0
POLYLINE
  5
60
  8
DEFAULT
 66
     1
 10
0.0
 20
0.0
 30
158.692464054651
 70
     1
  0
VERTEX
  5
61
  8
DEFAULT
 10
219.874589644118
 20
39.49999999999991
 30
158.692464054651
  0
VERTEX
  5
62
  8
DEFAULT
 10
328.65844820197
 20
39.5
 30
158.692464054651
 42
-0.9999999999998882
  0
VERTEX
  5
63
  8
DEFAULT
 10
334.7584482019711
 20
39.50000000000003
 30
158.692464054651
  0
VERTEX
  5
64
  8
DEFAULT
 10
334.758448201971
 20
27.5
 30
158.692464054651
 42
-0.9999999999999719
  0
VERTEX
  5
65
  8
DEFAULT
 10
328.658448201971
 20
27.50000000000003
 30
158.692464054651
  0
VERTEX
  5
66
  8
DEFAULT
 10
219.874589644118
 20
27.5
 30
158.692464054651
 42
0.3011101405733352
  0
VERTEX
  5
67
  8
DEFAULT
 10
212.5088975121465
 20
22.62195121951216
 30
158.692464054651
 42
-0.6622661785325148
  0
VERTEX
  5
68
  8
DEFAULT
 10
189.4911095997356
 20
22.62195121951216
 30
158.692464054651
 42
0.301110140573334
  0
VERTEX
  5
69
  8
DEFAULT
 10
182.1254174677642
 20
27.49999999999994
 30
158.692464054651
  0
VERTEX
  5
6A
  8
DEFAULT
 10
72.66956637519512
 20
27.5
 30
158.692464054651
 42
-0.9999999999999948
  0
VERTEX
  5
6B
  8
DEFAULT
 10
66.56956637519524
 20
27.49999999999994
 30
158.692464054651
  0
VERTEX
  5
6C
  8
DEFAULT
 10
66.56956637519502
 20
39.5
 30
158.692464054651
 42
-1.000000000000037
  0
VERTEX
  5
6D
  8
DEFAULT
 10
72.6695663751951
 20
39.49999999999999
 30
158.692464054651
  0
VERTEX
  5
6E
  8
DEFAULT
 10
182.125417467764
 20
39.50000000000001
 30
158.692464054651
 42
0.3011101405733378
  0
VERTEX
  5
6F
  8
DEFAULT
 10
189.4911095997356
 20
44.37804878048795
 30
158.692464054651
 42
-0.662266178532527
  0
VERTEX
  5
70
  8
DEFAULT
 10
212.5088975121465
 20
44.37804878048801
 30
158.692464054651
 42
0.3011101405733425
  0
SEQEND
  5
71
  8
DEFAULT
  0
POLYLINE
  5
72
  8
DEFAULT
 66
     1
 10
0.0
 20
0.0
 30
158.692464054651
 70
     1
  0
VERTEX
  5
73
  8
DEFAULT
 10
-219.8745825322357
 20
27.50000000000005
 30
158.692464054651
  0
VERTEX
  5
74
  8
DEFAULT
 10
-329.330433624805
 20
27.5
 30
158.692464054651
 42
-0.9999999999999888
  0
VERTEX
  5
75
  8
DEFAULT
 10
-335.430433624805
 20
27.49999999999997
 30
158.692464054651
  0
VERTEX
  5
76
  8
DEFAULT
 10
-335.430433624805
 20
39.5
 30
158.692464054651
 42
-1.000000000000037
  0
VERTEX
  5
77
  8
DEFAULT
 10
-329.3304336248049
 20
39.5
 30
158.692464054651
  0
VERTEX
  5
78
  8
DEFAULT
 10
-219.8745825322359
 20
39.49999999999999
 30
158.692464054651
 42
0.3011101405733352
  0
VERTEX
  5
79
  8
DEFAULT
 10
-212.5088904002644
 20
44.37804878048782
 30
158.692464054651
 42
-0.6622661785325289
  0
VERTEX
  5
7A
  8
DEFAULT
 10
-189.4911024878534
 20
44.37804878048784
 30
158.692464054651
 42
0.3011101405733335
  0
VERTEX
  5
7B
  8
DEFAULT
 10
-182.125410355882
 20
39.49999999999999
 30
158.692464054651
  0
VERTEX
  5
7C
  8
DEFAULT
 10
-73.34155179802949
 20
39.5
 30
158.692464054651
 42
-0.999999999999987
  0
VERTEX
  5
7D
  8
DEFAULT
 10
-67.2415517980294
 20
39.50000000000006
 30
158.692464054651
  0
VERTEX
  5
7E
  8
DEFAULT
 10
-67.24155179802929
 20
27.5
 30
158.692464054651
 42
-0.9999999999999255
  0
VERTEX
  5
7F
  8
DEFAULT
 10
-73.34155179802914
 20
27.5
 30
158.692464054651
  0
VERTEX
  5
80
  8
DEFAULT
 10
-182.1254103558821
 20
27.50000000000003
 30
158.692464054651
 42
0.3011101405733326
  0
VERTEX
  5
81
  8
DEFAULT
 10
-189.4911024878536
 20
22.62195121951228
 30
158.692464054651
 42
-0.6622661785325177
  0
VERTEX
  5
82
  8
DEFAULT
 10
-212.5088904002642
 20
22.62195121951228
 30
158.692464054651
 42
0.301110140573335
  0
SEQEND
  5
83
  8
DEFAULT
  0
POLYLINE
  5
84
  8
DEFAULT
 66
     1
 10
0.0
 20
0.0
 30
158.692464054651
 70
     1
  0
VERTEX
  5
85
  8
DEFAULT
 10
322.089067529085
 20
152.683750537601
 30
158.692464054651
 42
-0.8032705069724836
  0
VERTEX
  5
86
  8
DEFAULT
 10
325.0449349932391
 20
152.03103568927
 30
158.692464054651
  0
VERTEX
  5
87
  8
DEFAULT
 10
325.044934993239
 20
150.5
 30
158.692464054651
  0
VERTEX
  5
88
  8
DEFAULT
 10
325.0458810381609
 20
150.2509460449219
 30
158.692464054651
  0
VERTEX
  5
89
  8
DEFAULT
 10
325.052259211989
 20
150.00732421875
 30
158.692464054651
  0
VERTEX
  5
8A
  8
DEFAULT
 10
325.059001689406
 20
149.889066696167
 30
158.692464054651
  0
VERTEX
  5
8B
  8
DEFAULT
 10
325.0688302569109
 20
149.7738952636719
 30
158.692464054651
  0
VERTEX
  5
8C
  8
DEFAULT
 10
325.0750538162905
 20
149.7176188230515
 30
158.692464054651
  0
VERTEX
  5
8D
  8
DEFAULT
 10
325.0822255663592
 20
149.6622905731201
 30
158.692464054651
  0
VERTEX
  5
8E
  8
DEFAULT
 10
325.0903984360415
 20
149.6079634428024
 30
158.692464054651
  0
VERTEX
  5
8F
  8
DEFAULT
 10
325.099622493239
 20
149.5546875
 30
158.692464054651
  0
VERTEX
  5
90
  8
DEFAULT
 10
325.1099449448305
 20
149.5025099515915
 30
158.692464054651
  0
VERTEX
  5
91
  8
DEFAULT
 10
325.1214101366717
 20
149.4514751434326
 30
158.692464054651
  0
VERTEX
  5
92
  8
DEFAULT
 10
325.1340595535952
 20
149.4016245603561
 30
158.692464054651
  0
VERTEX
  5
93
  8
DEFAULT
 10
325.1479318194109
 20
149.3529968261719
 30
158.692464054651
  0
VERTEX
  5
94
  8
DEFAULT
 10
325.1630626969057
 20
149.3056277036667
 30
158.692464054651
  0
VERTEX
  5
95
  8
DEFAULT
 10
325.1794850878435
 20
149.2595500946045
 30
158.692464054651
  0
VERTEX
  5
96
  8
DEFAULT
 10
325.1881901003438
 20
149.2370051071048
 30
158.692464054651
  0
VERTEX
  5
97
  8
DEFAULT
 10
325.1972290329652
 20
149.2147940397263
 30
158.692464054651
  0
VERTEX
  5
98
  8
DEFAULT
 10
325.2066051937656
 20
149.1929202005267
 30
158.692464054651
  0
VERTEX
  5
99
  8
DEFAULT
 10
325.216321711989
 20
149.17138671875
 30
158.692464054651
  0
VERTEX
  5
9A
  8
DEFAULT
 10
325.2263815380651
 20
149.150196544826
 30
158.692464054651
  0
VERTEX
  5
9B
  8
DEFAULT
 10
325.2367874436098
 20
149.1293524503708
 30
158.692464054651
  0
VERTEX
  5
9C
  8
DEFAULT
 10
325.2475420214253
 20
149.1088570281863
 30
158.692464054651
  0
VERTEX
  5
9D
  8
DEFAULT
 10
325.2586476854997
 20
149.0887126922607
 30
158.692464054651
  0
VERTEX
  5
9E
  8
DEFAULT
 10
325.2701066710072
 20
149.0689216777682
 30
158.692464054651
  0
VERTEX
  5
9F
  8
DEFAULT
 10
325.281921034308
 20
149.049486041069
 30
158.692464054651
  0
VERTEX
  5
A0
  8
DEFAULT
 10
325.2940926529484
 20
149.0304076597095
 30
158.692464054651
  0
VERTEX
  5
A1
  8
DEFAULT
 10
325.3066232256609
 20
149.0116882324219
 30
158.692464054651
  0
VERTEX
  5
A2
  8
DEFAULT
 10
325.3195142723637
 20
148.9933292791247
 30
158.692464054651
  0
VERTEX
  5
A3
  8
DEFAULT
 10
325.3327671341615
 20
148.9753321409225
 30
158.692464054651
  0
VERTEX
  5
A4
  8
DEFAULT
 10
325.3463829733449
 20
148.9576979801059
 30
158.692464054651
  0
VERTEX
  5
A5
  8
DEFAULT
 10
325.3603627733903
 20
148.9404277801514
 30
158.692464054651
  0
VERTEX
  5
A6
  8
DEFAULT
 10
325.3747073389608
 20
148.9235223457217
 30
158.692464054651
  0
VERTEX
  5
A7
  8
DEFAULT
 10
325.3894172959047
 20
148.9069823026657
 30
158.692464054651
  0
VERTEX
  5
A8
  8
DEFAULT
 10
325.4044930912572
 20
148.8908080980182
 30
158.692464054651
  0
VERTEX
  5
A9
  8
DEFAULT
 10
325.419934993239
 20
148.875
 30
158.692464054651
  0
VERTEX
  5
AA
  8
DEFAULT
 10
325.4357430912572
 20
148.8595580980182
 30
158.692464054651
  0
VERTEX
  5
AB
  8
DEFAULT
 10
325.4519172959047
 20
148.8444823026657
 30
158.692464054651
  0
VERTEX
  5
AC
  8
DEFAULT
 10
325.4684573389606
 20
148.8297723457217
 30
158.692464054651
  0
VERTEX
  5
AD
  8
DEFAULT
 10
325.4853627733903
 20
148.8154277801514
 30
158.692464054651
  0
VERTEX
  5
AE
  8
DEFAULT
 10
325.5026329733449
 20
148.8014479801059
 30
158.692464054651
  0
VERTEX
  5
AF
  8
DEFAULT
 10
325.5202671341616
 20
148.7878321409225
 30
158.692464054651
  0
VERTEX
  5
B0
  8
DEFAULT
 10
325.5382642723638
 20
148.7745792791247
 30
158.692464054651
  0
VERTEX
  5
B1
  8
DEFAULT
 10
325.5566232256609
 20
148.7616882324219
 30
158.692464054651
  0
VERTEX
  5
B2
  8
DEFAULT
 10
325.5753426529485
 20
148.7491576597095
 30
158.692464054651
  0
VERTEX
  5
B3
  8
DEFAULT
 10
325.5944210343081
 20
148.736986041069
 30
158.692464054651
  0
VERTEX
  5
B4
  8
DEFAULT
 10
325.6138566710072
 20
148.7251716777682
 30
158.692464054651
  0
VERTEX
  5
B5
  8
DEFAULT
 10
325.6336476854998
 20
148.7137126922607
 30
158.692464054651
  0
VERTEX
  5
B6
  8
DEFAULT
 10
325.6537920214254
 20
148.7026070281863
 30
158.692464054651
  0
VERTEX
  5
B7
  8
DEFAULT
 10
325.6742874436098
 20
148.6918524503708
 30
158.692464054651
  0
VERTEX
  5
B8
  8
DEFAULT
 10
325.695131538065
 20
148.681446544826
 30
158.692464054651
  0
VERTEX
  5
B9
  8
DEFAULT
 10
325.716321711989
 20
148.67138671875
 30
158.692464054651
  0
VERTEX
  5
BA
  8
DEFAULT
 10
325.7378551937658
 20
148.6616702005267
 30
158.692464054651
  0
VERTEX
  5
BB
  8
DEFAULT
 10
325.7597290329653
 20
148.6522940397263
 30
158.692464054651
  0
VERTEX
  5
BC
  8
DEFAULT
 10
325.7819401003438
 20
148.6432551071048
 30
158.692464054651
  0
VERTEX
  5
BD
  8
DEFAULT
 10
325.8044850878435
 20
148.6345500946045
 30
158.692464054651
  0
VERTEX
  5
BE
  8
DEFAULT
 10
325.8505626969057
 20
148.6181277036667
 30
158.692464054651
  0
VERTEX
  5
BF
  8
DEFAULT
 10
325.8979318194109
 20
148.6029968261719
 30
158.692464054651
  0
VERTEX
  5
C0
  8
DEFAULT
 10
325.9465595535952
 20
148.5891245603561
 30
158.692464054651
  0
VERTEX
  5
C1
  8
DEFAULT
 10
325.9964101366717
 20
148.5764751434326
 30
158.692464054651
  0
VERTEX
  5
C2
  8
DEFAULT
 10
326.0474449448305
 20
148.5650099515915
 30
158.692464054651
  0
VERTEX
  5
C3
  8
DEFAULT
 10
326.099622493239
 20
148.5546875
 30
158.692464054651
  0
VERTEX
  5
C4
  8
DEFAULT
 10
326.1528984360415
 20
148.5454634428024
 30
158.692464054651
  0
VERTEX
  5
C5
  8
DEFAULT
 10
326.2072255663592
 20
148.5372905731201
 30
158.692464054651
  0
VERTEX
  5
C6
  8
DEFAULT
 10
326.2625538162905
 20
148.5301188230515
 30
158.692464054651
  0
VERTEX
  5
C7
  8
DEFAULT
 10
326.3188302569109
 20
148.5238952636719
 30
158.692464054651
  0
VERTEX
  5
C8
  8
DEFAULT
 10
326.434001689406
 20
148.514066696167
 30
158.692464054651
  0
VERTEX
  5
C9
  8
DEFAULT
 10
326.552259211989
 20
148.50732421875
 30
158.692464054651
  0
VERTEX
  5
CA
  8
DEFAULT
 10
326.7958810381609
 20
148.5009460449219
 30
158.692464054651
  0
VERTEX
  5
CB
  8
DEFAULT
 10
327.044934993239
 20
148.5
 30
158.692464054651
  0
VERTEX
  5
CC
  8
DEFAULT
 10
332.758448201971
 20
148.5
 30
158.692464054651
  0
VERTEX
  5
CD
  8
DEFAULT
 10
333.0075021570492
 20
148.5009460449219
 30
158.692464054651
  0
VERTEX
  5
CE
  8
DEFAULT
 10
333.2511239832211
 20
148.50732421875
 30
158.692464054651
  0
VERTEX
  5
CF
  8
DEFAULT
 10
333.3693815058041
 20
148.514066696167
 30
158.692464054651
  0
VERTEX
  5
D0
  8
DEFAULT
 10
333.4845529382992
 20
148.5238952636719
 30
158.692464054651
  0
VERTEX
  5
D1
  8
DEFAULT
 10
333.5408293789196
 20
148.5301188230515
 30
158.692464054651
  0
VERTEX
  5
D2
  8
DEFAULT
 10
333.5961576288509
 20
148.5372905731201
 30
158.692464054651
  0
VERTEX
  5
D3
  8
DEFAULT
 10
333.6504847591686
 20
148.5454634428024
 30
158.692464054651
  0
VERTEX
  5
D4
  8
DEFAULT
 10
333.703760701971
 20
148.5546875
 30
158.692464054651
  0
VERTEX
  5
D5
  8
DEFAULT
 10
333.7559382503796
 20
148.5650099515915
 30
158.692464054651
  0
VERTEX
  5
D6
  8
DEFAULT
 10
333.8069730585384
 20
148.5764751434326
 30
158.692464054651
  0
VERTEX
  5
D7
  8
DEFAULT
 10
333.8568236416148
 20
148.5891245603561
 30
158.692464054651
  0
VERTEX
  5
D8
  8
DEFAULT
 10
333.9054513757991
 20
148.6029968261719
 30
158.692464054651
  0
VERTEX
  5
D9
  8
DEFAULT
 10
333.9528204983043
 20
148.6181277036667
 30
158.692464054651
  0
VERTEX
  5
DA
  8
DEFAULT
 10
333.9988981073665
 20
148.6345500946045
 30
158.692464054651
  0
VERTEX
  5
DB
  8
DEFAULT
 10
334.0214430948662
 20
148.6432551071048
 30
158.692464054651
  0
VERTEX
  5
DC
  8
DEFAULT
 10
334.0436541622447
 20
148.6522940397263
 30
158.692464054651
  0
VERTEX
  5
DD
  8
DEFAULT
 10
334.0655280014442
 20
148.6616702005267
 30
158.692464054651
  0
VERTEX
  5
DE
  8
DEFAULT
 10
334.087061483221
 20
148.67138671875
 30
158.692464054651
  0
VERTEX
  5
DF
  8
DEFAULT
 10
334.108251657145
 20
148.681446544826
 30
158.692464054651
  0
VERTEX
  5
E0
  8
DEFAULT
 10
334.1290957516002
 20
148.6918524503708
 30
158.692464054651
  0
VERTEX
  5
E1
  8
DEFAULT
 10
334.1495911737846
 20
148.7026070281863
 30
158.692464054651
  0
VERTEX
  5
E2
  8
DEFAULT
 10
334.1697355097102
 20
148.7137126922607
 30
158.692464054651
  0
VERTEX
  5
E3
  8
DEFAULT
 10
334.1895265242028
 20
148.7251716777682
 30
158.692464054651
  0
VERTEX
  5
E4
  8
DEFAULT
 10
334.2089621609019
 20
148.736986041069
 30
158.692464054651
  0
VERTEX
  5
E5
  8
DEFAULT
 10
334.2280405422615
 20
148.7491576597095
 30
158.692464054651
  0
VERTEX
  5
E6
  8
DEFAULT
 10
334.2467599695491
 20
148.7616882324219
 30
158.692464054651
  0
VERTEX
  5
E7
  8
DEFAULT
 10
334.2651189228462
 20
148.7745792791247
 30
158.692464054651
  0
VERTEX
  5
E8
  8
DEFAULT
 10
334.2831160610484
 20
148.7878321409225
 30
158.692464054651
  0
VERTEX
  5
E9
  8
DEFAULT
 10
334.3007502218651
 20
148.8014479801059
 30
158.692464054651
  0
VERTEX
  5
EA
  8
DEFAULT
 10
334.3180204218196
 20
148.8154277801514
 30
158.692464054651
  0
VERTEX
  5
EB
  8
DEFAULT
 10
334.3349258562493
 20
148.8297723457217
 30
158.692464054651
  0
VERTEX
  5
EC
  8
DEFAULT
 10
334.3514658993053
 20
148.8444823026657
 30
158.692464054651
  0
VERTEX
  5
ED
  8
DEFAULT
 10
334.3676401039528
 20
148.8595580980182
 30
158.692464054651
  0
VERTEX
  5
EE
  8
DEFAULT
 10
334.383448201971
 20
148.875
 30
158.692464054651
  0
VERTEX
  5
EF
  8
DEFAULT
 10
334.3988901039528
 20
148.8908080980182
 30
158.692464054651
  0
VERTEX
  5
F0
  8
DEFAULT
 10
334.4139658993052
 20
148.9069823026657
 30
158.692464054651
  0
VERTEX
  5
F1
  8
DEFAULT
 10
334.4286758562492
 20
148.9235223457217
 30
158.692464054651
  0
VERTEX
  5
F2
  8
DEFAULT
 10
334.4430204218196
 20
148.9404277801514
 30
158.692464054651
  0
VERTEX
  5
F3
  8
DEFAULT
 10
334.4570002218651
 20
148.9576979801059
 30
158.692464054651
  0
VERTEX
  5
F4
  8
DEFAULT
 10
334.4706160610485
 20
148.9753321409225
 30
158.692464054651
  0
VERTEX
  5
F5
  8
DEFAULT
 10
334.4838689228463
 20
148.9933292791247
 30
158.692464054651
  0
VERTEX
  5
F6
  8
DEFAULT
 10
334.4967599695491
 20
149.0116882324219
 30
158.692464054651
  0
VERTEX
  5
F7
  8
DEFAULT
 10
334.5092905422616
 20
149.0304076597095
 30
158.692464054651
  0
VERTEX
  5
F8
  8
DEFAULT
 10
334.521462160902
 20
149.049486041069
 30
158.692464054651
  0
VERTEX
  5
F9
  8
DEFAULT
 10
334.5332765242028
 20
149.0689216777682
 30
158.692464054651
  0
VERTEX
  5
FA
  8
DEFAULT
 10
334.5447355097103
 20
149.0887126922607
 30
158.692464054651
  0
VERTEX
  5
FB
  8
DEFAULT
 10
334.5558411737847
 20
149.1088570281863
 30
158.692464054651
  0
VERTEX
  5
FC
  8
DEFAULT
 10
334.5665957516002
 20
149.1293524503708
 30
158.692464054651
  0
VERTEX
  5
FD
  8
DEFAULT
 10
334.5770016571449
 20
149.150196544826
 30
158.692464054651
  0
VERTEX
  5
FE
  8
DEFAULT
 10
334.587061483221
 20
149.17138671875
 30
158.692464054651
  0
VERTEX
  5
FF
  8
DEFAULT
 10
334.5967780014443
 20
149.1929202005267
 30
158.692464054651
  0
VERTEX
  5
100
  8
DEFAULT
 10
334.6061541622447
 20
149.2147940397263
 30
158.692464054651
  0
VERTEX
  5
101
  8
DEFAULT
 10
334.6151930948662
 20
149.2370051071048
 30
158.692464054651
  0
VERTEX
  5
102
  8
DEFAULT
 10
334.6238981073665
 20
149.2595500946045
 30
158.692464054651
  0
VERTEX
  5
103
  8
DEFAULT
 10
334.6403204983043
 20
149.3056277036667
 30
158.692464054651
  0
VERTEX
  5
104
  8
DEFAULT
 10
334.6554513757991
 20
149.3529968261719
 30
158.692464054651
  0
VERTEX
  5
105
  8
DEFAULT
 10
334.6693236416148
 20
149.4016245603561
 30
158.692464054651
  0
VERTEX
  5
106
  8
DEFAULT
 10
334.6819730585383
 20
149.4514751434326
 30
158.692464054651
  0
VERTEX
  5
107
  8
DEFAULT
 10
334.6934382503795
 20
149.5025099515915
 30
158.692464054651
  0
VERTEX
  5
108
  8
DEFAULT
 10
334.703760701971
 20
149.5546875
 30
158.692464054651
  0
VERTEX
  5
109
  8
DEFAULT
 10
334.7129847591685
 20
149.6079634428024
 30
158.692464054651
  0
VERTEX
  5
10A
  8
DEFAULT
 10
334.7211576288508
 20
149.6622905731201
 30
158.692464054651
  0
VERTEX
  5
10B
  8
DEFAULT
 10
334.7283293789195
 20
149.7176188230515
 30
158.692464054651
  0
VERTEX
  5
10C
  8
DEFAULT
 10
334.7345529382991
 20
149.7738952636719
 30
158.692464054651
  0
VERTEX
  5
10D
  8
DEFAULT
 10
334.744381505804
 20
149.889066696167
 30
158.692464054651
  0
VERTEX
  5
10E
  8
DEFAULT
 10
334.751123983221
 20
150.00732421875
 30
158.692464054651
  0
VERTEX
  5
10F
  8
DEFAULT
 10
334.7575021570491
 20
150.2509460449219
 30
158.692464054651
  0
VERTEX
  5
110
  8
DEFAULT
 10
334.758448201971
 20
150.5
 30
158.692464054651
  0
VERTEX
  5
111
  8
DEFAULT
 10
334.758448201971
 20
164.5
 30
158.692464054651
  0
VERTEX
  5
112
  8
DEFAULT
 10
334.7575021570491
 20
164.7490539550781
 30
158.692464054651
  0
VERTEX
  5
113
  8
DEFAULT
 10
334.751123983221
 20
164.99267578125
 30
158.692464054651
  0
VERTEX
  5
114
  8
DEFAULT
 10
334.744381505804
 20
165.110933303833
 30
158.692464054651
  0
VERTEX
  5
115
  8
DEFAULT
 10
334.7345529382991
 20
165.2261047363281
 30
158.692464054651
  0
VERTEX
  5
116
  8
DEFAULT
 10
334.7283293789195
 20
165.2823811769485
 30
158.692464054651
  0
VERTEX
  5
117
  8
DEFAULT
 10
334.7211576288508
 20
165.3377094268799
 30
158.692464054651
  0
VERTEX
  5
118
  8
DEFAULT
 10
334.7129847591685
 20
165.3920365571976
 30
158.692464054651
  0
VERTEX
  5
119
  8
DEFAULT
 10
334.703760701971
 20
165.4453125
 30
158.692464054651
  0
VERTEX
  5
11A
  8
DEFAULT
 10
334.6934382503795
 20
165.4974900484085
 30
158.692464054651
  0
VERTEX
  5
11B
  8
DEFAULT
 10
334.6819730585383
 20
165.5485248565674
 30
158.692464054651
  0
VERTEX
  5
11C
  8
DEFAULT
 10
334.6693236416148
 20
165.5983754396439
 30
158.692464054651
  0
VERTEX
  5
11D
  8
DEFAULT
 10
334.6554513757991
 20
165.6470031738281
 30
158.692464054651
  0
VERTEX
  5
11E
  8
DEFAULT
 10
334.6403204983043
 20
165.6943722963333
 30
158.692464054651
  0
VERTEX
  5
11F
  8
DEFAULT
 10
334.6238981073665
 20
165.7404499053955
 30
158.692464054651
  0
VERTEX
  5
120
  8
DEFAULT
 10
334.6151930948662
 20
165.7629948928952
 30
158.692464054651
  0
VERTEX
  5
121
  8
DEFAULT
 10
334.6061541622447
 20
165.7852059602737
 30
158.692464054651
  0
VERTEX
  5
122
  8
DEFAULT
 10
334.5967780014442
 20
165.8070797994733
 30
158.692464054651
  0
VERTEX
  5
123
  8
DEFAULT
 10
334.587061483221
 20
165.82861328125
 30
158.692464054651
  0
VERTEX
  5
124
  8
DEFAULT
 10
334.5770016571449
 20
165.849803455174
 30
158.692464054651
  0
VERTEX
  5
125
  8
DEFAULT
 10
334.5665957516002
 20
165.8706475496292
 30
158.692464054651
  0
VERTEX
  5
126
  8
DEFAULT
 10
334.5558411737846
 20
165.8911429718137
 30
158.692464054651
  0
VERTEX
  5
127
  8
DEFAULT
 10
334.5447355097102
 20
165.9112873077393
 30
158.692464054651
  0
VERTEX
  5
128
  8
DEFAULT
 10
334.5332765242027
 20
165.9310783222318
 30
158.692464054651
  0
VERTEX
  5
129
  8
DEFAULT
 10
334.5214621609019
 20
165.950513958931
 30
158.692464054651
  0
VERTEX
  5
12A
  8
DEFAULT
 10
334.5092905422615
 20
165.9695923402905
 30
158.692464054651
  0
VERTEX
  5
12B
  8
DEFAULT
 10
334.4967599695491
 20
165.9883117675781
 30
158.692464054651
  0
VERTEX
  5
12C
  8
DEFAULT
 10
334.4838689228462
 20
166.0066707208753
 30
158.692464054651
  0
VERTEX
  5
12D
  8
DEFAULT
 10
334.4706160610484
 20
166.0246678590775
 30
158.692464054651
  0
VERTEX
  5
12E
  8
DEFAULT
 10
334.4570002218651
 20
166.0423020198941
 30
158.692464054651
  0
VERTEX
  5
12F
  8
DEFAULT
 10
334.4430204218196
 20
166.0595722198486
 30
158.692464054651
  0
VERTEX
  5
130
  8
DEFAULT
 10
334.4286758562492
 20
166.0764776542783
 30
158.692464054651
  0
VERTEX
  5
131
  8
DEFAULT
 10
334.4139658993052
 20
166.0930176973343
 30
158.692464054651
  0
VERTEX
  5
132
  8
DEFAULT
 10
334.3988901039528
 20
166.1091919019818
 30
158.692464054651
  0
VERTEX
  5
133
  8
DEFAULT
 10
334.383448201971
 20
166.125
 30
158.692464054651
  0
VERTEX
  5
134
  8
DEFAULT
 10
334.3676401039528
 20
166.1404419019818
 30
158.692464054651
  0
VERTEX
  5
135
  8
DEFAULT
 10
334.3514658993052
 20
166.1555176973343
 30
158.692464054651
  0
VERTEX
  5
136
  8
DEFAULT
 10
334.3349258562492
 20
166.1702276542783
 30
158.692464054651
  0
VERTEX
  5
137
  8
DEFAULT
 10
334.3180204218196
 20
166.1845722198486
 30
158.692464054651
  0
VERTEX
  5
138
  8
DEFAULT
 10
334.300750221865
 20
166.1985520198941
 30
158.692464054651
  0
VERTEX
  5
139
  8
DEFAULT
 10
334.2831160610484
 20
166.2121678590775
 30
158.692464054651
  0
VERTEX
  5
13A
  8
DEFAULT
 10
334.2651189228461
 20
166.2254207208753
 30
158.692464054651
  0
VERTEX
  5
13B
  8
DEFAULT
 10
334.246759969549
 20
166.2383117675781
 30
158.692464054651
  0
VERTEX
  5
13C
  8
DEFAULT
 10
334.2280405422615
 20
166.2508423402905
 30
158.692464054651
  0
VERTEX
  5
13D
  8
DEFAULT
 10
334.2089621609019
 20
166.263013958931
 30
158.692464054651
  0
VERTEX
  5
13E
  8
DEFAULT
 10
334.1895265242027
 20
166.2748283222318
 30
158.692464054651
  0
VERTEX
  5
13F
  8
DEFAULT
 10
334.1697355097101
 20
166.2862873077393
 30
158.692464054651
  0
VERTEX
  5
140
  8
DEFAULT
 10
334.1495911737845
 20
166.2973929718137
 30
158.692464054651
  0
VERTEX
  5
141
  8
DEFAULT
 10
334.1290957516001
 20
166.3081475496292
 30
158.692464054651
  0
VERTEX
  5
142
  8
DEFAULT
 10
334.1082516571449
 20
166.318553455174
 30
158.692464054651
  0
VERTEX
  5
143
  8
DEFAULT
 10
334.0870614832209
 20
166.32861328125
 30
158.692464054651
  0
VERTEX
  5
144
  8
DEFAULT
 10
334.0655280014441
 20
166.3383297994733
 30
158.692464054651
  0
VERTEX
  5
145
  8
DEFAULT
 10
334.0436541622446
 20
166.3477059602737
 30
158.692464054651
  0
VERTEX
  5
146
  8
DEFAULT
 10
334.0214430948661
 20
166.3567448928952
 30
158.692464054651
  0
VERTEX
  5
147
  8
DEFAULT
 10
333.9988981073664
 20
166.3654499053955
 30
158.692464054651
  0
VERTEX
  5
148
  8
DEFAULT
 10
333.9528204983042
 20
166.3818722963333
 30
158.692464054651
  0
VERTEX
  5
149
  8
DEFAULT
 10
333.905451375799
 20
166.3970031738281
 30
158.692464054651
  0
VERTEX
  5
14A
  8
DEFAULT
 10
333.8568236416147
 20
166.4108754396439
 30
158.692464054651
  0
VERTEX
  5
14B
  8
DEFAULT
 10
333.8069730585382
 20
166.4235248565674
 30
158.692464054651
  0
VERTEX
  5
14C
  8
DEFAULT
 10
333.7559382503793
 20
166.4349900484085
 30
158.692464054651
  0
VERTEX
  5
14D
  8
DEFAULT
 10
333.7037607019708
 20
166.4453125
 30
158.692464054651
  0
VERTEX
  5
14E
  8
DEFAULT
 10
333.6504847591683
 20
166.4545365571976
 30
158.692464054651
  0
VERTEX
  5
14F
  8
DEFAULT
 10
333.5961576288506
 20
166.4627094268799
 30
158.692464054651
  0
VERTEX
  5
150
  8
DEFAULT
 10
333.5408293789192
 20
166.4698811769485
 30
158.692464054651
  0
VERTEX
  5
151
  8
DEFAULT
 10
333.4845529382988
 20
166.4761047363281
 30
158.692464054651
  0
VERTEX
  5
152
  8
DEFAULT
 10
333.3693815058036
 20
166.485933303833
 30
158.692464054651
  0
VERTEX
  5
153
  8
DEFAULT
 10
333.2511239832205
 20
166.49267578125
 30
158.692464054651
  0
VERTEX
  5
154
  8
DEFAULT
 10
333.0075021570484
 20
166.4990539550781
 30
158.692464054651
  0
VERTEX
  5
155
  8
DEFAULT
 10
332.75844820197
 20
166.5
 30
158.692464054651
  0
VERTEX
  5
156
  8
DEFAULT
 10
68.56956637519502
 20
166.5
 30
158.692464054651
  0
VERTEX
  5
157
  8
DEFAULT
 10
68.3205124201169
 20
166.4990539550781
 30
158.692464054651
  0
VERTEX
  5
158
  8
DEFAULT
 10
68.07689059394502
 20
166.49267578125
 30
158.692464054651
  0
VERTEX
  5
159
  8
DEFAULT
 10
67.95863307136202
 20
166.485933303833
 30
158.692464054651
  0
VERTEX
  5
15A
  8
DEFAULT
 10
67.8434616388669
 20
166.4761047363281
 30
158.692464054651
  0
VERTEX
  5
15B
  8
DEFAULT
 10
67.78718519824648
 20
166.4698811769485
 30
158.692464054651
  0
VERTEX
  5
15C
  8
DEFAULT
 10
67.73185694831514
 20
166.4627094268799
 30
158.692464054651
  0
VERTEX
  5
15D
  8
DEFAULT
 10
67.67752981799742
 20
166.4545365571976
 30
158.692464054651
  0
VERTEX
  5
15E
  8
DEFAULT
 10
67.62425387519502
 20
166.4453125
 30
158.692464054651
  0
VERTEX
  5
15F
  8
DEFAULT
 10
67.5720763267865
 20
166.4349900484085
 30
158.692464054651
  0
VERTEX
  5
160
  8
DEFAULT
 10
67.52104151862763
 20
166.4235248565674
 30
158.692464054651
  0
VERTEX
  5
161
  8
DEFAULT
 10
67.47119093555116
 20
166.4108754396439
 30
158.692464054651
  0
VERTEX
  5
162
  8
DEFAULT
 10
67.42256320136688
 20
166.3970031738281
 30
158.692464054651
  0
VERTEX
  5
163
  8
DEFAULT
 10
67.3751940788617
 20
166.3818722963333
 30
158.692464054651
  0
VERTEX
  5
164
  8
DEFAULT
 10
67.3291164697995
 20
166.3654499053955
 30
158.692464054651
  0
VERTEX
  5
165
  8
DEFAULT
 10
67.30657148229977
 20
166.3567448928952
 30
158.692464054651
  0
VERTEX
  5
166
  8
DEFAULT
 10
67.28436041492127
 20
166.3477059602737
 30
158.692464054651
  0
VERTEX
  5
167
  8
DEFAULT
 10
67.26248657572172
 20
166.3383297994733
 30
158.692464054651
  0
VERTEX
  5
168
  8
DEFAULT
 10
67.24095309394502
 20
166.32861328125
 30
158.692464054651
  0
VERTEX
  5
169
  8
DEFAULT
 10
67.21976292002105
 20
166.318553455174
 30
158.692464054651
  0
VERTEX
  5
16A
  8
DEFAULT
 10
67.19891882556581
 20
166.3081475496292
 30
158.692464054651
  0
VERTEX
  5
16B
  8
DEFAULT
 10
67.17842340338134
 20
166.2973929718137
 30
158.692464054651
  0
VERTEX
  5
16C
  8
DEFAULT
 10
67.15827906745577
 20
166.2862873077393
 30
158.692464054651
  0
VERTEX
  5
16D
  8
DEFAULT
 10
67.13848805296325
 20
166.2748283222318
 30
158.692464054651
  0
VERTEX
  5
16E
  8
DEFAULT
 10
67.11905241626405
 20
166.263013958931
 30
158.692464054651
  0
VERTEX
  5
16F
  8
DEFAULT
 10
67.09997403490448
 20
166.2508423402905
 30
158.692464054651
  0
VERTEX
  5
170
  8
DEFAULT
 10
67.0812546076169
 20
166.2383117675781
 30
158.692464054651
  0
VERTEX
  5
171
  8
DEFAULT
 10
67.06289565431976
 20
166.2254207208753
 30
158.692464054651
  0
VERTEX
  5
172
  8
DEFAULT
 10
67.04489851611757
 20
166.2121678590775
 30
158.692464054651
  0
VERTEX
  5
173
  8
DEFAULT
 10
67.0272643553009
 20
166.1985520198941
 30
158.692464054651
  0
VERTEX
  5
174
  8
DEFAULT
 10
67.00999415534639
 20
166.1845722198486
 30
158.692464054651
  0
VERTEX
  5
175
  8
DEFAULT
 10
66.99308872091675
 20
166.1702276542783
 30
158.692464054651
  0
VERTEX
  5
176
  8
DEFAULT
 10
66.97654867786073
 20
166.1555176973343
 30
158.692464054651
  0
VERTEX
  5
177
  8
DEFAULT
 10
66.9603744732132
 20
166.1404419019818
 30
158.692464054651
  0
VERTEX
  5
178
  8
DEFAULT
 10
66.94456637519502
 20
166.125
 30
158.692464054651
  0
VERTEX
  5
179
  8
DEFAULT
 10
66.9291244732132
 20
166.1091919019818
 30
158.692464054651
  0
VERTEX
  5
17A
  8
DEFAULT
 10
66.91404867786073
 20
166.0930176973343
 30
158.692464054651
  0
VERTEX
  5
17B
  8
DEFAULT
 10
66.89933872091675
 20
166.0764776542783
 30
158.692464054651
  0
VERTEX
  5
17C
  8
DEFAULT
 10
66.88499415534639
 20
166.0595722198486
 30
158.692464054651
  0
VERTEX
  5
17D
  8
DEFAULT
 10
66.8710143553009
 20
166.0423020198941
 30
158.692464054651
  0
VERTEX
  5
17E
  8
DEFAULT
 10
66.85739851611757
 20
166.0246678590775
 30
158.692464054651
  0
VERTEX
  5
17F
  8
DEFAULT
 10
66.84414565431977
 20
166.0066707208753
 30
158.692464054651
  0
VERTEX
  5
180
  8
DEFAULT
 10
66.83125460761691
 20
165.9883117675781
 30
158.692464054651
  0
VERTEX
  5
181
  8
DEFAULT
 10
66.81872403490449
 20
165.9695923402905
 30
158.692464054651
  0
VERTEX
  5
182
  8
DEFAULT
 10
66.80655241626408
 20
165.950513958931
 30
158.692464054651
  0
VERTEX
  5
183
  8
DEFAULT
 10
66.79473805296328
 20
165.9310783222318
 30
158.692464054651
  0
VERTEX
  5
184
  8
DEFAULT
 10
66.7832790674558
 20
165.9112873077393
 30
158.692464054651
  0
VERTEX
  5
185
  8
DEFAULT
 10
66.77217340338137
 20
165.8911429718137
 30
158.692464054651
  0
VERTEX
  5
186
  8
DEFAULT
 10
66.76141882556584
 20
165.8706475496292
 30
158.692464054651
  0
VERTEX
  5
187
  8
DEFAULT
 10
66.75101292002108
 20
165.849803455174
 30
158.692464054651
  0
VERTEX
  5
188
  8
DEFAULT
 10
66.74095309394505
 20
165.82861328125
 30
158.692464054651
  0
VERTEX
  5
189
  8
DEFAULT
 10
66.73123657572177
 20
165.8070797994733
 30
158.692464054651
  0
VERTEX
  5
18A
  8
DEFAULT
 10
66.72186041492131
 20
165.7852059602737
 30
158.692464054651
  0
VERTEX
  5
18B
  8
DEFAULT
 10
66.71282148229983
 20
165.7629948928952
 30
158.692464054651
  0
VERTEX
  5
18C
  8
DEFAULT
 10
66.70411646979954
 20
165.7404499053955
 30
158.692464054651
  0
VERTEX
  5
18D
  8
DEFAULT
 10
66.68769407886175
 20
165.6943722963333
 30
158.692464054651
  0
VERTEX
  5
18E
  8
DEFAULT
 10
66.67256320136694
 20
165.6470031738281
 30
158.692464054651
  0
VERTEX
  5
18F
  8
DEFAULT
 10
66.6586909355512
 20
165.5983754396439
 30
158.692464054651
  0
VERTEX
  5
190
  8
DEFAULT
 10
66.6460415186277
 20
165.5485248565674
 30
158.692464054651
  0
VERTEX
  5
191
  8
DEFAULT
 10
66.63457632678657
 20
165.4974900484085
 30
158.692464054651
  0
VERTEX
  5
192
  8
DEFAULT
 10
66.62425387519508
 20
165.4453125
 30
158.692464054651
  0
VERTEX
  5
193
  8
DEFAULT
 10
66.61502981799751
 20
165.3920365571976
 30
158.692464054651
  0
VERTEX
  5
194
  8
DEFAULT
 10
66.6068569483152
 20
165.3377094268799
 30
158.692464054651
  0
VERTEX
  5
195
  8
DEFAULT
 10
66.59968519824655
 20
165.2823811769485
 30
158.692464054651
  0
VERTEX
  5
196
  8
DEFAULT
 10
66.59346163886698
 20
165.2261047363281
 30
158.692464054651
  0
VERTEX
  5
197
  8
DEFAULT
 10
66.5836330713621
 20
165.110933303833
 30
158.692464054651
  0
VERTEX
  5
198
  8
DEFAULT
 10
66.57689059394511
 20
164.99267578125
 30
158.692464054651
  0
VERTEX
  5
199
  8
DEFAULT
 10
66.57051242011698
 20
164.7490539550781
 30
158.692464054651
  0
VERTEX
  5
19A
  8
DEFAULT
 10
66.56956637519511
 20
164.5
 30
158.692464054651
  0
VERTEX
  5
19B
  8
DEFAULT
 10
66.56956637519511
 20
150.5
 30
158.692464054651
  0
VERTEX
  5
19C
  8
DEFAULT
 10
66.57051242011698
 20
150.2509460449219
 30
158.692464054651
  0
VERTEX
  5
19D
  8
DEFAULT
 10
66.57689059394511
 20
150.00732421875
 30
158.692464054651
  0
VERTEX
  5
19E
  8
DEFAULT
 10
66.58363307136212
 20
149.889066696167
 30
158.692464054651
  0
VERTEX
  5
19F
  8
DEFAULT
 10
66.59346163886698
 20
149.7738952636719
 30
158.692464054651
  0
VERTEX
  5
1A0
  8
DEFAULT
 10
66.59968519824658
 20
149.7176188230515
 30
158.692464054651
  0
VERTEX
  5
1A1
  8
DEFAULT
 10
66.60685694831525
 20
149.6622905731201
 30
158.692464054651
  0
VERTEX
  5
1A2
  8
DEFAULT
 10
66.61502981799755
 20
149.6079634428024
 30
158.692464054651
  0
VERTEX
  5
1A3
  8
DEFAULT
 10
66.62425387519514
 20
149.5546875
 30
158.692464054651
  0
VERTEX
  5
1A4
  8
DEFAULT
 10
66.63457632678663
 20
149.5025099515915
 30
158.692464054651
  0
VERTEX
  5
1A5
  8
DEFAULT
 10
66.64604151862775
 20
149.4514751434326
 30
158.692464054651
  0
VERTEX
  5
1A6
  8
DEFAULT
 10
66.65869093555128
 20
149.4016245603561
 30
158.692464054651
  0
VERTEX
  5
1A7
  8
DEFAULT
 10
66.67256320136701
 20
149.3529968261719
 30
158.692464054651
  0
VERTEX
  5
1A8
  8
DEFAULT
 10
66.68769407886182
 20
149.3056277036667
 30
158.692464054651
  0
VERTEX
  5
1A9
  8
DEFAULT
 10
66.70411646979963
 20
149.2595500946045
 30
158.692464054651
  0
VERTEX
  5
1AA
  8
DEFAULT
 10
66.71282148229992
 20
149.2370051071048
 30
158.692464054651
  0
VERTEX
  5
1AB
  8
DEFAULT
 10
66.7218604149214
 20
149.2147940397263
 30
158.692464054651
  0
VERTEX
  5
1AC
  8
DEFAULT
 10
66.73123657572187
 20
149.1929202005267
 30
158.692464054651
  0
VERTEX
  5
1AD
  8
DEFAULT
 10
66.74095309394514
 20
149.17138671875
 30
158.692464054651
  0
VERTEX
  5
1AE
  8
DEFAULT
 10
66.75101292002117
 20
149.150196544826
 30
158.692464054651
  0
VERTEX
  5
1AF
  8
DEFAULT
 10
66.76141882556595
 20
149.1293524503708
 30
158.692464054651
  0
VERTEX
  5
1B0
  8
DEFAULT
 10
66.77217340338147
 20
149.1088570281863
 30
158.692464054651
  0
VERTEX
  5
1B1
  8
DEFAULT
 10
66.7832790674559
 20
149.0887126922607
 30
158.692464054651
  0
VERTEX
  5
1B2
  8
DEFAULT
 10
66.79473805296338
 20
149.0689216777682
 30
158.692464054651
  0
VERTEX
  5
1B3
  8
DEFAULT
 10
66.80655241626418
 20
149.049486041069
 30
158.692464054651
  0
VERTEX
  5
1B4
  8
DEFAULT
 10
66.8187240349046
 20
149.0304076597095
 30
158.692464054651
  0
VERTEX
  5
1B5
  8
DEFAULT
 10
66.83125460761703
 20
149.0116882324219
 30
158.692464054651
  0
VERTEX
  5
1B6
  8
DEFAULT
 10
66.84414565431987
 20
148.9933292791247
 30
158.692464054651
  0
VERTEX
  5
1B7
  8
DEFAULT
 10
66.85739851611768
 20
148.9753321409225
 30
158.692464054651
  0
VERTEX
  5
1B8
  8
DEFAULT
 10
66.87101435530101
 20
148.9576979801059
 30
158.692464054651
  0
VERTEX
  5
1B9
  8
DEFAULT
 10
66.8849941553465
 20
148.9404277801514
 30
158.692464054651
  0
VERTEX
  5
1BA
  8
DEFAULT
 10
66.89933872091687
 20
148.9235223457217
 30
158.692464054651
  0
VERTEX
  5
1BB
  8
DEFAULT
 10
66.91404867786086
 20
148.9069823026657
 30
158.692464054651
  0
VERTEX
  5
1BC
  8
DEFAULT
 10
66.92912447321332
 20
148.8908080980182
 30
158.692464054651
  0
VERTEX
  5
1BD
  8
DEFAULT
 10
66.94456637519515
 20
148.875
 30
158.692464054651
  0
VERTEX
  5
1BE
  8
DEFAULT
 10
66.96037447321332
 20
148.8595580980182
 30
158.692464054651
  0
VERTEX
  5
1BF
  8
DEFAULT
 10
66.97654867786086
 20
148.8444823026657
 30
158.692464054651
  0
VERTEX
  5
1C0
  8
DEFAULT
 10
66.99308872091687
 20
148.8297723457217
 30
158.692464054651
  0
VERTEX
  5
1C1
  8
DEFAULT
 10
67.0099941553465
 20
148.8154277801514
 30
158.692464054651
  0
VERTEX
  5
1C2
  8
DEFAULT
 10
67.02726435530101
 20
148.8014479801059
 30
158.692464054651
  0
VERTEX
  5
1C3
  8
DEFAULT
 10
67.04489851611768
 20
148.7878321409225
 30
158.692464054651
  0
VERTEX
  5
1C4
  8
DEFAULT
 10
67.06289565431987
 20
148.7745792791247
 30
158.692464054651
  0
VERTEX
  5
1C5
  8
DEFAULT
 10
67.08125460761703
 20
148.7616882324219
 30
158.692464054651
  0
VERTEX
  5
1C6
  8
DEFAULT
 10
67.0999740349046
 20
148.7491576597095
 30
158.692464054651
  0
VERTEX
  5
1C7
  8
DEFAULT
 10
67.11905241626418
 20
148.736986041069
 30
158.692464054651
  0
VERTEX
  5
1C8
  8
DEFAULT
 10
67.13848805296338
 20
148.7251716777682
 30
158.692464054651
  0
VERTEX
  5
1C9
  8
DEFAULT
 10
67.1582790674559
 20
148.7137126922607
 30
158.692464054651
  0
VERTEX
  5
1CA
  8
DEFAULT
 10
67.17842340338147
 20
148.7026070281863
 30
158.692464054651
  0
VERTEX
  5
1CB
  8
DEFAULT
 10
67.19891882556595
 20
148.6918524503708
 30
158.692464054651
  0
VERTEX
  5
1CC
  8
DEFAULT
 10
67.21976292002118
 20
148.681446544826
 30
158.692464054651
  0
VERTEX
  5
1CD
  8
DEFAULT
 10
67.24095309394515
 20
148.67138671875
 30
158.692464054651
  0
VERTEX
  5
1CE
  8
DEFAULT
 10
67.26248657572187
 20
148.6616702005267
 30
158.692464054651
  0
VERTEX
  5
1CF
  8
DEFAULT
 10
67.2843604149214
 20
148.6522940397263
 30
158.692464054651
  0
VERTEX
  5
1D0
  8
DEFAULT
 10
67.30657148229994
 20
148.6432551071048
 30
158.692464054651
  0
VERTEX
  5
1D1
  8
DEFAULT
 10
67.32911646979964
 20
148.6345500946045
 30
158.692464054651
  0
VERTEX
  5
1D2
  8
DEFAULT
 10
67.37519407886182
 20
148.6181277036667
 30
158.692464054651
  0
VERTEX
  5
1D3
  8
DEFAULT
 10
67.42256320136703
 20
148.6029968261719
 30
158.692464054651
  0
VERTEX
  5
1D4
  8
DEFAULT
 10
67.47119093555129
 20
148.5891245603561
 30
158.692464054651
  0
VERTEX
  5
1D5
  8
DEFAULT
 10
67.52104151862775
 20
148.5764751434326
 30
158.692464054651
  0
VERTEX
  5
1D6
  8
DEFAULT
 10
67.57207632678663
 20
148.5650099515915
 30
158.692464054651
  0
VERTEX
  5
1D7
  8
DEFAULT
 10
67.62425387519514
 20
148.5546875
 30
158.692464054651
  0
VERTEX
  5
1D8
  8
DEFAULT
 10
67.67752981799758
 20
148.5454634428024
 30
158.692464054651
  0
VERTEX
  5
1D9
  8
DEFAULT
 10
67.73185694831525
 20
148.5372905731201
 30
158.692464054651
  0
VERTEX
  5
1DA
  8
DEFAULT
 10
67.7871851982466
 20
148.5301188230515
 30
158.692464054651
  0
VERTEX
  5
1DB
  8
DEFAULT
 10
67.84346163886701
 20
148.5238952636719
 30
158.692464054651
  0
VERTEX
  5
1DC
  8
DEFAULT
 10
67.95863307136213
 20
148.514066696167
 30
158.692464054651
  0
VERTEX
  5
1DD
  8
DEFAULT
 10
68.07689059394512
 20
148.50732421875
 30
158.692464054651
  0
VERTEX
  5
1DE
  8
DEFAULT
 10
68.32051242011698
 20
148.5009460449219
 30
158.692464054651
  0
VERTEX
  5
1DF
  8
DEFAULT
 10
68.56956637519511
 20
148.5
 30
158.692464054651
  0
VERTEX
  5
1E0
  8
DEFAULT
 10
74.85605316646381
 20
148.5
 30
158.692464054651
  0
VERTEX
  5
1E1
  8
DEFAULT
 10
75.10510712154195
 20
148.5009460449219
 30
158.692464054651
  0
VERTEX
  5
1E2
  8
DEFAULT
 10
75.34872894771382
 20
148.50732421875
 30
158.692464054651
  0
VERTEX
  5
1E3
  8
DEFAULT
 10
75.46698647029683
 20
148.514066696167
 30
158.692464054651
  0
VERTEX
  5
1E4
  8
DEFAULT
 10
75.58215790279195
 20
148.5238952636719
 30
158.692464054651
  0
VERTEX
  5
1E5
  8
DEFAULT
 10
75.63843434341237
 20
148.5301188230515
 30
158.692464054651
  0
VERTEX
  5
1E6
  8
DEFAULT
 10
75.6937625933437
 20
148.5372905731201
 30
158.692464054651
  0
VERTEX
  5
1E7
  8
DEFAULT
 10
75.74808972366141
 20
148.5454634428024
 30
158.692464054651
  0
VERTEX
  5
1E8
  8
DEFAULT
 10
75.80136566646384
 20
148.5546875
 30
158.692464054651
  0
VERTEX
  5
1E9
  8
DEFAULT
 10
75.85354321487233
 20
148.5650099515915
 30
158.692464054651
  0
VERTEX
  5
1EA
  8
DEFAULT
 10
75.9045780230312
 20
148.5764751434326
 30
158.692464054651
  0
VERTEX
  5
1EB
  8
DEFAULT
 10
75.95442860610771
 20
148.5891245603561
 30
158.692464054651
  0
VERTEX
  5
1EC
  8
DEFAULT
 10
76.00305634029198
 20
148.6029968261719
 30
158.692464054651
  0
VERTEX
  5
1ED
  8
DEFAULT
 10
76.05042546279716
 20
148.6181277036667
 30
158.692464054651
  0
VERTEX
  5
1EE
  8
DEFAULT
 10
76.09650307185936
 20
148.6345500946045
 30
158.692464054651
  0
VERTEX
  5
1EF
  8
DEFAULT
 10
76.11904805935907
 20
148.6432551071048
 30
158.692464054651
  0
VERTEX
  5
1F0
  8
DEFAULT
 10
76.1412591267376
 20
148.6522940397263
 30
158.692464054651
  0
VERTEX
  5
1F1
  8
DEFAULT
 10
76.16313296593714
 20
148.6616702005267
 30
158.692464054651
  0
VERTEX
  5
1F2
  8
DEFAULT
 10
76.18466644771385
 20
148.67138671875
 30
158.692464054651
  0
VERTEX
  5
1F3
  8
DEFAULT
 10
76.20585662163782
 20
148.681446544826
 30
158.692464054651
  0
VERTEX
  5
1F4
  8
DEFAULT
 10
76.22670071609306
 20
148.6918524503708
 30
158.692464054651
  0
VERTEX
  5
1F5
  8
DEFAULT
 10
76.24719613827753
 20
148.7026070281863
 30
158.692464054651
  0
VERTEX
  5
1F6
  8
DEFAULT
 10
76.26734047420311
 20
148.7137126922607
 30
158.692464054651
  0
VERTEX
  5
1F7
  8
DEFAULT
 10
76.28713148869562
 20
148.7251716777682
 30
158.692464054651
  0
VERTEX
  5
1F8
  8
DEFAULT
 10
76.30656712539485
 20
148.736986041069
 30
158.692464054651
  0
VERTEX
  5
1F9
  8
DEFAULT
 10
76.32564550675443
 20
148.7491576597095
 30
158.692464054651
  0
VERTEX
  5
1FA
  8
DEFAULT
 10
76.344364934042
 20
148.7616882324219
 30
158.692464054651
  0
VERTEX
  5
1FB
  8
DEFAULT
 10
76.36272388733914
 20
148.7745792791247
 30
158.692464054651
  0
VERTEX
  5
1FC
  8
DEFAULT
 10
76.38072102554133
 20
148.7878321409225
 30
158.692464054651
  0
VERTEX
  5
1FD
  8
DEFAULT
 10
76.398355186358
 20
148.8014479801059
 30
158.692464054651
  0
VERTEX
  5
1FE
  8
DEFAULT
 10
76.4156253863125
 20
148.8154277801514
 30
158.692464054651
  0
VERTEX
  5
1FF
  8
DEFAULT
 10
76.43253082074213
 20
148.8297723457217
 30
158.692464054651
  0
VERTEX
  5
200
  8
DEFAULT
 10
76.44907086379816
 20
148.8444823026657
 30
158.692464054651
  0
VERTEX
  5
201
  8
DEFAULT
 10
76.4652450684457
 20
148.8595580980182
 30
158.692464054651
  0
VERTEX
  5
202
  8
DEFAULT
 10
76.48105316646387
 20
148.875
 30
158.692464054651
  0
VERTEX
  5
203
  8
DEFAULT
 10
76.4964950684457
 20
148.8908080980182
 30
158.692464054651
  0
VERTEX
  5
204
  8
DEFAULT
 10
76.51157086379817
 20
148.9069823026657
 30
158.692464054651
  0
VERTEX
  5
205
  8
DEFAULT
 10
76.52628082074216
 20
148.9235223457217
 30
158.692464054651
  0
VERTEX
  5
206
  8
DEFAULT
 10
76.5406253863125
 20
148.9404277801514
 30
158.692464054651
  0
VERTEX
  5
207
  8
DEFAULT
 10
76.55460518635799
 20
148.9576979801059
 30
158.692464054651
  0
VERTEX
  5
208
  8
DEFAULT
 10
76.56822102554132
 20
148.9753321409225
 30
158.692464054651
  0
VERTEX
  5
209
  8
DEFAULT
 10
76.58147388733911
 20
148.9933292791247
 30
158.692464054651
  0
VERTEX
  5
20A
  8
DEFAULT
 10
76.59436493404199
 20
149.0116882324219
 30
158.692464054651
  0
VERTEX
  5
20B
  8
DEFAULT
 10
76.6068955067544
 20
149.0304076597095
 30
158.692464054651
  0
VERTEX
  5
20C
  8
DEFAULT
 10
76.61906712539482
 20
149.049486041069
 30
158.692464054651
  0
VERTEX
  5
20D
  8
DEFAULT
 10
76.63088148869562
 20
149.0689216777682
 30
158.692464054651
  0
VERTEX
  5
20E
  8
DEFAULT
 10
76.64234047420311
 20
149.0887126922607
 30
158.692464054651
  0
VERTEX
  5
20F
  8
DEFAULT
 10
76.65344613827754
 20
149.1088570281863
 30
158.692464054651
  0
VERTEX
  5
210
  8
DEFAULT
 10
76.66420071609309
 20
149.1293524503708
 30
158.692464054651
  0
VERTEX
  5
211
  8
DEFAULT
 10
76.67460662163785
 20
149.150196544826
 30
158.692464054651
  0
VERTEX
  5
212
  8
DEFAULT
 10
76.68466644771387
 20
149.17138671875
 30
158.692464054651
  0
VERTEX
  5
213
  8
DEFAULT
 10
76.69438296593714
 20
149.1929202005267
 30
158.692464054651
  0
VERTEX
  5
214
  8
DEFAULT
 10
76.70375912673761
 20
149.2147940397263
 30
158.692464054651
  0
VERTEX
  5
215
  8
DEFAULT
 10
76.7127980593591
 20
149.2370051071048
 30
158.692464054651
  0
VERTEX
  5
216
  8
DEFAULT
 10
76.72150307185939
 20
149.2595500946045
 30
158.692464054651
  0
VERTEX
  5
217
  8
DEFAULT
 10
76.7379254627972
 20
149.3056277036667
 30
158.692464054651
  0
VERTEX
  5
218
  8
DEFAULT
 10
76.753056340292
 20
149.3529968261719
 30
158.692464054651
  0
VERTEX
  5
219
  8
DEFAULT
 10
76.76692860610774
 20
149.4016245603561
 30
158.692464054651
  0
VERTEX
  5
21A
  8
DEFAULT
 10
76.77957802303126
 20
149.4514751434326
 30
158.692464054651
  0
VERTEX
  5
21B
  8
DEFAULT
 10
76.79104321487239
 20
149.5025099515915
 30
158.692464054651
  0
VERTEX
  5
21C
  8
DEFAULT
 10
76.80136566646388
 20
149.5546875
 30
158.692464054651
  0
VERTEX
  5
21D
  8
DEFAULT
 10
76.81058972366145
 20
149.6079634428024
 30
158.692464054651
  0
VERTEX
  5
21E
  8
DEFAULT
 10
76.81876259334376
 20
149.6622905731201
 30
158.692464054651
  0
VERTEX
  5
21F
  8
DEFAULT
 10
76.82593434341244
 20
149.7176188230515
 30
158.692464054651
  0
VERTEX
  5
220
  8
DEFAULT
 10
76.832157902792
 20
149.7738952636719
 30
158.692464054651
  0
VERTEX
  5
221
  8
DEFAULT
 10
76.84198647029689
 20
149.889066696167
 30
158.692464054651
  0
VERTEX
  5
222
  8
DEFAULT
 10
76.8487289477139
 20
150.00732421875
 30
158.692464054651
  0
VERTEX
  5
223
  8
DEFAULT
 10
76.85510712154203
 20
150.2509460449219
 30
158.692464054651
  0
VERTEX
  5
224
  8
DEFAULT
 10
76.85605316646391
 20
150.5
 30
158.692464054651
  0
VERTEX
  5
225
  8
DEFAULT
 10
76.85605316646378
 20
156.762353838252
 30
158.692464054651
 42
-1.019245066368271
  0
VERTEX
  5
226
  8
DEFAULT
 10
79.95492699749994
 20
156.70327883904
 30
158.692464054651
  0
VERTEX
  5
227
  8
DEFAULT
 10
321.16299634817
 20
152.105038548018
 30
158.692464054651
 42
0.4337233635270321
  0
SEQEND
  5
228
  8
DEFAULT
  0
POLYLINE
  5
229
  8
DEFAULT
 66
     1
 10
0.0
 20
0.0
 30
158.692464054651
 70
     1
  0
VERTEX
  5
22A
  8
DEFAULT
 10
-321.598054638583
 20
159.216396999912
 30
158.692464054651
 42
0.822901182550372
  0
VERTEX
  5
22B
  8
DEFAULT
 10
-324.5831951215352
 20
158.630844445318
 30
158.692464054651
  0
VERTEX
  5
22C
  8
DEFAULT
 10
-324.583195121535
 20
150.5
 30
158.692464054651
  0
VERTEX
  5
22D
  8
DEFAULT
 10
-324.5841411664569
 20
150.2509460449219
 30
158.692464054651
  0
VERTEX
  5
22E
  8
DEFAULT
 10
-324.5905193402852
 20
150.00732421875
 30
158.692464054651
  0
VERTEX
  5
22F
  8
DEFAULT
 10
-324.5972618177021
 20
149.889066696167
 30
158.692464054651
  0
VERTEX
  5
230
  8
DEFAULT
 10
-324.6070903852071
 20
149.7738952636719
 30
158.692464054651
  0
VERTEX
  5
231
  8
DEFAULT
 10
-324.6133139445867
 20
149.7176188230515
 30
158.692464054651
  0
VERTEX
  5
232
  8
DEFAULT
 10
-324.6204856946554
 20
149.6622905731201
 30
158.692464054651
  0
VERTEX
  5
233
  8
DEFAULT
 10
-324.6286585643377
 20
149.6079634428024
 30
158.692464054651
  0
VERTEX
  5
234
  8
DEFAULT
 10
-324.6378826215353
 20
149.5546875
 30
158.692464054651
  0
VERTEX
  5
235
  8
DEFAULT
 10
-324.6482050731269
 20
149.5025099515915
 30
158.692464054651
  0
VERTEX
  5
236
  8
DEFAULT
 10
-324.659670264968
 20
149.4514751434326
 30
158.692464054651
  0
VERTEX
  5
237
  8
DEFAULT
 10
-324.6723196818915
 20
149.4016245603561
 30
158.692464054651
  0
VERTEX
  5
238
  8
DEFAULT
 10
-324.6861919477073
 20
149.3529968261719
 30
158.692464054651
  0
VERTEX
  5
239
  8
DEFAULT
 10
-324.7013228252021
 20
149.3056277036667
 30
158.692464054651
  0
VERTEX
  5
23A
  8
DEFAULT
 10
-324.7177452161399
 20
149.2595500946045
 30
158.692464054651
  0
VERTEX
  5
23B
  8
DEFAULT
 10
-324.7264502286402
 20
149.2370051071048
 30
158.692464054651
  0
VERTEX
  5
23C
  8
DEFAULT
 10
-324.7354891612617
 20
149.2147940397263
 30
158.692464054651
  0
VERTEX
  5
23D
  8
DEFAULT
 10
-324.7448653220621
 20
149.1929202005267
 30
158.692464054651
  0
VERTEX
  5
23E
  8
DEFAULT
 10
-324.7545818402854
 20
149.17138671875
 30
158.692464054651
  0
VERTEX
  5
23F
  8
DEFAULT
 10
-324.7646416663615
 20
149.150196544826
 30
158.692464054651
  0
VERTEX
  5
240
  8
DEFAULT
 10
-324.7750475719063
 20
149.1293524503708
 30
158.692464054651
  0
VERTEX
  5
241
  8
DEFAULT
 10
-324.7858021497218
 20
149.1088570281863
 30
158.692464054651
  0
VERTEX
  5
242
  8
DEFAULT
 10
-324.7969078137962
 20
149.0887126922607
 30
158.692464054651
  0
VERTEX
  5
243
  8
DEFAULT
 10
-324.8083667993037
 20
149.0689216777682
 30
158.692464054651
  0
VERTEX
  5
244
  8
DEFAULT
 10
-324.8201811626045
 20
149.049486041069
 30
158.692464054651
  0
VERTEX
  5
245
  8
DEFAULT
 10
-324.8323527812449
 20
149.0304076597095
 30
158.692464054651
  0
VERTEX
  5
246
  8
DEFAULT
 10
-324.8448833539574
 20
149.0116882324219
 30
158.692464054651
  0
VERTEX
  5
247
  8
DEFAULT
 10
-324.8577744006602
 20
148.9933292791247
 30
158.692464054651
  0
VERTEX
  5
248
  8
DEFAULT
 10
-324.871027262458
 20
148.9753321409225
 30
158.692464054651
  0
VERTEX
  5
249
  8
DEFAULT
 10
-324.8846431016414
 20
148.9576979801059
 30
158.692464054651
  0
VERTEX
  5
24A
  8
DEFAULT
 10
-324.8986229016869
 20
148.9404277801514
 30
158.692464054651
  0
VERTEX
  5
24B
  8
DEFAULT
 10
-324.9129674672572
 20
148.9235223457217
 30
158.692464054651
  0
VERTEX
  5
24C
  8
DEFAULT
 10
-324.9276774242012
 20
148.9069823026657
 30
158.692464054651
  0
VERTEX
  5
24D
  8
DEFAULT
 10
-324.9427532195537
 20
148.8908080980182
 30
158.692464054651
  0
VERTEX
  5
24E
  8
DEFAULT
 10
-324.9581951215355
 20
148.875
 30
158.692464054651
  0
VERTEX
  5
24F
  8
DEFAULT
 10
-324.9740032195537
 20
148.8595580980182
 30
158.692464054651
  0
VERTEX
  5
250
  8
DEFAULT
 10
-324.9901774242012
 20
148.8444823026657
 30
158.692464054651
  0
VERTEX
  5
251
  8
DEFAULT
 10
-325.0067174672572
 20
148.8297723457217
 30
158.692464054651
  0
VERTEX
  5
252
  8
DEFAULT
 10
-325.0236229016869
 20
148.8154277801514
 30
158.692464054651
  0
VERTEX
  5
253
  8
DEFAULT
 10
-325.0408931016414
 20
148.8014479801059
 30
158.692464054651
  0
VERTEX
  5
254
  8
DEFAULT
 10
-325.058527262458
 20
148.7878321409225
 30
158.692464054651
  0
VERTEX
  5
255
  8
DEFAULT
 10
-325.0765244006602
 20
148.7745792791247
 30
158.692464054651
  0
VERTEX
  5
256
  8
DEFAULT
 10
-325.0948833539574
 20
148.7616882324219
 30
158.692464054651
  0
VERTEX
  5
257
  8
DEFAULT
 10
-325.1136027812449
 20
148.7491576597095
 30
158.692464054651
  0
VERTEX
  5
258
  8
DEFAULT
 10
-325.1326811626045
 20
148.736986041069
 30
158.692464054651
  0
VERTEX
  5
259
  8
DEFAULT
 10
-325.1521167993037
 20
148.7251716777682
 30
158.692464054651
  0
VERTEX
  5
25A
  8
DEFAULT
 10
-325.1719078137962
 20
148.7137126922607
 30
158.692464054651
  0
VERTEX
  5
25B
  8
DEFAULT
 10
-325.1920521497218
 20
148.7026070281863
 30
158.692464054651
  0
VERTEX
  5
25C
  8
DEFAULT
 10
-325.2125475719063
 20
148.6918524503708
 30
158.692464054651
  0
VERTEX
  5
25D
  8
DEFAULT
 10
-325.2333916663615
 20
148.681446544826
 30
158.692464054651
  0
VERTEX
  5
25E
  8
DEFAULT
 10
-325.2545818402855
 20
148.67138671875
 30
158.692464054651
  0
VERTEX
  5
25F
  8
DEFAULT
 10
-325.2761153220622
 20
148.6616702005267
 30
158.692464054651
  0
VERTEX
  5
260
  8
DEFAULT
 10
-325.2979891612618
 20
148.6522940397263
 30
158.692464054651
  0
VERTEX
  5
261
  8
DEFAULT
 10
-325.3202002286403
 20
148.6432551071048
 30
158.692464054651
  0
VERTEX
  5
262
  8
DEFAULT
 10
-325.34274521614
 20
148.6345500946045
 30
158.692464054651
  0
VERTEX
  5
263
  8
DEFAULT
 10
-325.3888228252022
 20
148.6181277036667
 30
158.692464054651
  0
VERTEX
  5
264
  8
DEFAULT
 10
-325.4361919477074
 20
148.6029968261719
 30
158.692464054651
  0
VERTEX
  5
265
  8
DEFAULT
 10
-325.4848196818917
 20
148.5891245603561
 30
158.692464054651
  0
VERTEX
  5
266
  8
DEFAULT
 10
-325.5346702649681
 20
148.5764751434326
 30
158.692464054651
  0
VERTEX
  5
267
  8
DEFAULT
 10
-325.585705073127
 20
148.5650099515915
 30
158.692464054651
  0
VERTEX
  5
268
  8
DEFAULT
 10
-325.6378826215356
 20
148.5546875
 30
158.692464054651
  0
VERTEX
  5
269
  8
DEFAULT
 10
-325.691158564338
 20
148.5454634428024
 30
158.692464054651
  0
VERTEX
  5
26A
  8
DEFAULT
 10
-325.7454856946556
 20
148.5372905731201
 30
158.692464054651
  0
VERTEX
  5
26B
  8
DEFAULT
 10
-325.8008139445869
 20
148.5301188230515
 30
158.692464054651
  0
VERTEX
  5
26C
  8
DEFAULT
 10
-325.8570903852074
 20
148.5238952636719
 30
158.692464054651
  0
VERTEX
  5
26D
  8
DEFAULT
 10
-325.9722618177024
 20
148.514066696167
 30
158.692464054651
  0
VERTEX
  5
26E
  8
DEFAULT
 10
-326.0905193402854
 20
148.50732421875
 30
158.692464054651
  0
VERTEX
  5
26F
  8
DEFAULT
 10
-326.3341411664571
 20
148.5009460449219
 30
158.692464054651
  0
VERTEX
  5
270
  8
DEFAULT
 10
-326.583195121535
 20
148.5
 30
158.692464054651
  0
VERTEX
  5
271
  8
DEFAULT
 10
-332.430433624805
 20
148.5
 30
158.692464054651
  0
VERTEX
  5
272
  8
DEFAULT
 10
-332.6794875798831
 20
148.5009460449219
 30
158.692464054651
  0
VERTEX
  5
273
  8
DEFAULT
 10
-332.923109406055
 20
148.50732421875
 30
158.692464054651
  0
VERTEX
  5
274
  8
DEFAULT
 10
-333.041366928638
 20
148.514066696167
 30
158.692464054651
  0
VERTEX
  5
275
  8
DEFAULT
 10
-333.1565383611331
 20
148.5238952636719
 30
158.692464054651
  0
VERTEX
  5
276
  8
DEFAULT
 10
-333.2128148017536
 20
148.5301188230515
 30
158.692464054651
  0
VERTEX
  5
277
  8
DEFAULT
 10
-333.2681430516849
 20
148.5372905731201
 30
158.692464054651
  0
VERTEX
  5
278
  8
DEFAULT
 10
-333.3224701820025
 20
148.5454634428024
 30
158.692464054651
  0
VERTEX
  5
279
  8
DEFAULT
 10
-333.375746124805
 20
148.5546875
 30
158.692464054651
  0
VERTEX
  5
27A
  8
DEFAULT
 10
-333.4279236732135
 20
148.5650099515915
 30
158.692464054651
  0
VERTEX
  5
27B
  8
DEFAULT
 10
-333.4789584813724
 20
148.5764751434326
 30
158.692464054651
  0
VERTEX
  5
27C
  8
DEFAULT
 10
-333.5288090644488
 20
148.5891245603561
 30
158.692464054651
  0
VERTEX
  5
27D
  8
DEFAULT
 10
-333.5774367986331
 20
148.6029968261719
 30
158.692464054651
  0
VERTEX
  5
27E
  8
DEFAULT
 10
-333.6248059211383
 20
148.6181277036667
 30
158.692464054651
  0
VERTEX
  5
27F
  8
DEFAULT
 10
-333.6708835302005
 20
148.6345500946045
 30
158.692464054651
  0
VERTEX
  5
280
  8
DEFAULT
 10
-333.6934285177002
 20
148.6432551071048
 30
158.692464054651
  0
VERTEX
  5
281
  8
DEFAULT
 10
-333.7156395850786
 20
148.6522940397263
 30
158.692464054651
  0
VERTEX
  5
282
  8
DEFAULT
 10
-333.7375134242782
 20
148.6616702005267
 30
158.692464054651
  0
VERTEX
  5
283
  8
DEFAULT
 10
-333.759046906055
 20
148.67138671875
 30
158.692464054651
  0
VERTEX
  5
284
  8
DEFAULT
 10
-333.7802370799789
 20
148.681446544826
 30
158.692464054651
  0
VERTEX
  5
285
  8
DEFAULT
 10
-333.8010811744342
 20
148.6918524503708
 30
158.692464054651
  0
VERTEX
  5
286
  8
DEFAULT
 10
-333.8215765966186
 20
148.7026070281863
 30
158.692464054651
  0
VERTEX
  5
287
  8
DEFAULT
 10
-333.8417209325442
 20
148.7137126922607
 30
158.692464054651
  0
VERTEX
  5
288
  8
DEFAULT
 10
-333.8615119470367
 20
148.7251716777682
 30
158.692464054651
  0
VERTEX
  5
289
  8
DEFAULT
 10
-333.8809475837359
 20
148.736986041069
 30
158.692464054651
  0
VERTEX
  5
28A
  8
DEFAULT
 10
-333.9000259650955
 20
148.7491576597095
 30
158.692464054651
  0
VERTEX
  5
28B
  8
DEFAULT
 10
-333.918745392383
 20
148.7616882324219
 30
158.692464054651
  0
VERTEX
  5
28C
  8
DEFAULT
 10
-333.9371043456802
 20
148.7745792791247
 30
158.692464054651
  0
VERTEX
  5
28D
  8
DEFAULT
 10
-333.9551014838824
 20
148.7878321409225
 30
158.692464054651
  0
VERTEX
  5
28E
  8
DEFAULT
 10
-333.972735644699
 20
148.8014479801059
 30
158.692464054651
  0
VERTEX
  5
28F
  8
DEFAULT
 10
-333.9900058446536
 20
148.8154277801514
 30
158.692464054651
  0
VERTEX
  5
290
  8
DEFAULT
 10
-334.0069112790833
 20
148.8297723457217
 30
158.692464054651
  0
VERTEX
  5
291
  8
DEFAULT
 10
-334.0234513221393
 20
148.8444823026657
 30
158.692464054651
  0
VERTEX
  5
292
  8
DEFAULT
 10
-334.0396255267868
 20
148.8595580980182
 30
158.692464054651
  0
VERTEX
  5
293
  8
DEFAULT
 10
-334.055433624805
 20
148.875
 30
158.692464054651
  0
VERTEX
  5
294
  8
DEFAULT
 10
-334.0708755267868
 20
148.8908080980182
 30
158.692464054651
  0
VERTEX
  5
295
  8
DEFAULT
 10
-334.0859513221392
 20
148.9069823026657
 30
158.692464054651
  0
VERTEX
  5
296
  8
DEFAULT
 10
-334.1006612790832
 20
148.9235223457217
 30
158.692464054651
  0
VERTEX
  5
297
  8
DEFAULT
 10
-334.1150058446536
 20
148.9404277801514
 30
158.692464054651
  0
VERTEX
  5
298
  8
DEFAULT
 10
-334.1289856446991
 20
148.9576979801059
 30
158.692464054651
  0
VERTEX
  5
299
  8
DEFAULT
 10
-334.1426014838824
 20
148.9753321409225
 30
158.692464054651
  0
VERTEX
  5
29A
  8
DEFAULT
 10
-334.1558543456803
 20
148.9933292791247
 30
158.692464054651
  0
VERTEX
  5
29B
  8
DEFAULT
 10
-334.1687453923831
 20
149.0116882324219
 30
158.692464054651
  0
VERTEX
  5
29C
  8
DEFAULT
 10
-334.1812759650956
 20
149.0304076597095
 30
158.692464054651
  0
VERTEX
  5
29D
  8
DEFAULT
 10
-334.193447583736
 20
149.049486041069
 30
158.692464054651
  0
VERTEX
  5
29E
  8
DEFAULT
 10
-334.2052619470368
 20
149.0689216777682
 30
158.692464054651
  0
VERTEX
  5
29F
  8
DEFAULT
 10
-334.2167209325443
 20
149.0887126922607
 30
158.692464054651
  0
VERTEX
  5
2A0
  8
DEFAULT
 10
-334.2278265966187
 20
149.1088570281863
 30
158.692464054651
  0
VERTEX
  5
2A1
  8
DEFAULT
 10
-334.2385811744342
 20
149.1293524503708
 30
158.692464054651
  0
VERTEX
  5
2A2
  8
DEFAULT
 10
-334.248987079979
 20
149.150196544826
 30
158.692464054651
  0
VERTEX
  5
2A3
  8
DEFAULT
 10
-334.259046906055
 20
149.17138671875
 30
158.692464054651
  0
VERTEX
  5
2A4
  8
DEFAULT
 10
-334.2687634242783
 20
149.1929202005267
 30
158.692464054651
  0
VERTEX
  5
2A5
  8
DEFAULT
 10
-334.2781395850787
 20
149.2147940397263
 30
158.692464054651
  0
VERTEX
  5
2A6
  8
DEFAULT
 10
-334.2871785177002
 20
149.2370051071048
 30
158.692464054651
  0
VERTEX
  5
2A7
  8
DEFAULT
 10
-334.2958835302005
 20
149.2595500946045
 30
158.692464054651
  0
VERTEX
  5
2A8
  8
DEFAULT
 10
-334.3123059211383
 20
149.3056277036667
 30
158.692464054651
  0
VERTEX
  5
2A9
  8
DEFAULT
 10
-334.3274367986331
 20
149.3529968261719
 30
158.692464054651
  0
VERTEX
  5
2AA
  8
DEFAULT
 10
-334.3413090644489
 20
149.4016245603561
 30
158.692464054651
  0
VERTEX
  5
2AB
  8
DEFAULT
 10
-334.3539584813724
 20
149.4514751434326
 30
158.692464054651
  0
VERTEX
  5
2AC
  8
DEFAULT
 10
-334.3654236732135
 20
149.5025099515915
 30
158.692464054651
  0
VERTEX
  5
2AD
  8
DEFAULT
 10
-334.375746124805
 20
149.5546875
 30
158.692464054651
  0
VERTEX
  5
2AE
  8
DEFAULT
 10
-334.3849701820026
 20
149.6079634428024
 30
158.692464054651
  0
VERTEX
  5
2AF
  8
DEFAULT
 10
-334.3931430516849
 20
149.6622905731201
 30
158.692464054651
  0
VERTEX
  5
2B0
  8
DEFAULT
 10
-334.4003148017535
 20
149.7176188230515
 30
158.692464054651
  0
VERTEX
  5
2B1
  8
DEFAULT
 10
-334.4065383611331
 20
149.7738952636719
 30
158.692464054651
  0
VERTEX
  5
2B2
  8
DEFAULT
 10
-334.416366928638
 20
149.889066696167
 30
158.692464054651
  0
VERTEX
  5
2B3
  8
DEFAULT
 10
-334.423109406055
 20
150.00732421875
 30
158.692464054651
  0
VERTEX
  5
2B4
  8
DEFAULT
 10
-334.4294875798831
 20
150.2509460449219
 30
158.692464054651
  0
VERTEX
  5
2B5
  8
DEFAULT
 10
-334.430433624805
 20
150.5
 30
158.692464054651
  0
VERTEX
  5
2B6
  8
DEFAULT
 10
-334.430433624805
 20
164.5
 30
158.692464054651
  0
VERTEX
  5
2B7
  8
DEFAULT
 10
-334.4294875798831
 20
164.7490539550781
 30
158.692464054651
  0
VERTEX
  5
2B8
  8
DEFAULT
 10
-334.423109406055
 20
164.99267578125
 30
158.692464054651
  0
VERTEX
  5
2B9
  8
DEFAULT
 10
-334.416366928638
 20
165.110933303833
 30
158.692464054651
  0
VERTEX
  5
2BA
  8
DEFAULT
 10
-334.4065383611331
 20
165.2261047363281
 30
158.692464054651
  0
VERTEX
  5
2BB
  8
DEFAULT
 10
-334.4003148017535
 20
165.2823811769485
 30
158.692464054651
  0
VERTEX
  5
2BC
  8
DEFAULT
 10
-334.3931430516849
 20
165.3377094268799
 30
158.692464054651
  0
VERTEX
  5
2BD
  8
DEFAULT
 10
-334.3849701820026
 20
165.3920365571976
 30
158.692464054651
  0
VERTEX
  5
2BE
  8
DEFAULT
 10
-334.375746124805
 20
165.4453125
 30
158.692464054651
  0
VERTEX
  5
2BF
  8
DEFAULT
 10
-334.3654236732135
 20
165.4974900484085
 30
158.692464054651
  0
VERTEX
  5
2C0
  8
DEFAULT
 10
-334.3539584813724
 20
165.5485248565674
 30
158.692464054651
  0
VERTEX
  5
2C1
  8
DEFAULT
 10
-334.3413090644489
 20
165.5983754396439
 30
158.692464054651
  0
VERTEX
  5
2C2
  8
DEFAULT
 10
-334.3274367986331
 20
165.6470031738281
 30
158.692464054651
  0
VERTEX
  5
2C3
  8
DEFAULT
 10
-334.3123059211383
 20
165.6943722963333
 30
158.692464054651
  0
VERTEX
  5
2C4
  8
DEFAULT
 10
-334.2958835302005
 20
165.7404499053955
 30
158.692464054651
  0
VERTEX
  5
2C5
  8
DEFAULT
 10
-334.2871785177002
 20
165.7629948928952
 30
158.692464054651
  0
VERTEX
  5
2C6
  8
DEFAULT
 10
-334.2781395850787
 20
165.7852059602737
 30
158.692464054651
  0
VERTEX
  5
2C7
  8
DEFAULT
 10
-334.2687634242783
 20
165.8070797994733
 30
158.692464054651
  0
VERTEX
  5
2C8
  8
DEFAULT
 10
-334.259046906055
 20
165.82861328125
 30
158.692464054651
  0
VERTEX
  5
2C9
  8
DEFAULT
 10
-334.248987079979
 20
165.849803455174
 30
158.692464054651
  0
VERTEX
  5
2CA
  8
DEFAULT
 10
-334.2385811744342
 20
165.8706475496292
 30
158.692464054651
  0
VERTEX
  5
2CB
  8
DEFAULT
 10
-334.2278265966187
 20
165.8911429718137
 30
158.692464054651
  0
VERTEX
  5
2CC
  8
DEFAULT
 10
-334.2167209325443
 20
165.9112873077393
 30
158.692464054651
  0
VERTEX
  5
2CD
  8
DEFAULT
 10
-334.2052619470368
 20
165.9310783222318
 30
158.692464054651
  0
VERTEX
  5
2CE
  8
DEFAULT
 10
-334.193447583736
 20
165.950513958931
 30
158.692464054651
  0
VERTEX
  5
2CF
  8
DEFAULT
 10
-334.1812759650956
 20
165.9695923402905
 30
158.692464054651
  0
VERTEX
  5
2D0
  8
DEFAULT
 10
-334.1687453923831
 20
165.9883117675781
 30
158.692464054651
  0
VERTEX
  5
2D1
  8
DEFAULT
 10
-334.1558543456803
 20
166.0066707208753
 30
158.692464054651
  0
VERTEX
  5
2D2
  8
DEFAULT
 10
-334.1426014838824
 20
166.0246678590775
 30
158.692464054651
  0
VERTEX
  5
2D3
  8
DEFAULT
 10
-334.1289856446991
 20
166.0423020198941
 30
158.692464054651
  0
VERTEX
  5
2D4
  8
DEFAULT
 10
-334.1150058446536
 20
166.0595722198486
 30
158.692464054651
  0
VERTEX
  5
2D5
  8
DEFAULT
 10
-334.1006612790832
 20
166.0764776542783
 30
158.692464054651
  0
VERTEX
  5
2D6
  8
DEFAULT
 10
-334.0859513221392
 20
166.0930176973343
 30
158.692464054651
  0
VERTEX
  5
2D7
  8
DEFAULT
 10
-334.0708755267868
 20
166.1091919019818
 30
158.692464054651
  0
VERTEX
  5
2D8
  8
DEFAULT
 10
-334.055433624805
 20
166.125
 30
158.692464054651
  0
VERTEX
  5
2D9
  8
DEFAULT
 10
-334.0396255267868
 20
166.1404419019818
 30
158.692464054651
  0
VERTEX
  5
2DA
  8
DEFAULT
 10
-334.0234513221393
 20
166.1555176973343
 30
158.692464054651
  0
VERTEX
  5
2DB
  8
DEFAULT
 10
-334.0069112790833
 20
166.1702276542783
 30
158.692464054651
  0
VERTEX
  5
2DC
  8
DEFAULT
 10
-333.9900058446536
 20
166.1845722198486
 30
158.692464054651
  0
VERTEX
  5
2DD
  8
DEFAULT
 10
-333.972735644699
 20
166.1985520198941
 30
158.692464054651
  0
VERTEX
  5
2DE
  8
DEFAULT
 10
-333.9551014838824
 20
166.2121678590775
 30
158.692464054651
  0
VERTEX
  5
2DF
  8
DEFAULT
 10
-333.9371043456802
 20
166.2254207208753
 30
158.692464054651
  0
VERTEX
  5
2E0
  8
DEFAULT
 10
-333.918745392383
 20
166.2383117675781
 30
158.692464054651
  0
VERTEX
  5
2E1
  8
DEFAULT
 10
-333.9000259650955
 20
166.2508423402905
 30
158.692464054651
  0
VERTEX
  5
2E2
  8
DEFAULT
 10
-333.8809475837359
 20
166.263013958931
 30
158.692464054651
  0
VERTEX
  5
2E3
  8
DEFAULT
 10
-333.8615119470367
 20
166.2748283222318
 30
158.692464054651
  0
VERTEX
  5
2E4
  8
DEFAULT
 10
-333.8417209325442
 20
166.2862873077393
 30
158.692464054651
  0
VERTEX
  5
2E5
  8
DEFAULT
 10
-333.8215765966186
 20
166.2973929718137
 30
158.692464054651
  0
VERTEX
  5
2E6
  8
DEFAULT
 10
-333.8010811744342
 20
166.3081475496292
 30
158.692464054651
  0
VERTEX
  5
2E7
  8
DEFAULT
 10
-333.7802370799789
 20
166.318553455174
 30
158.692464054651
  0
VERTEX
  5
2E8
  8
DEFAULT
 10
-333.759046906055
 20
166.32861328125
 30
158.692464054651
  0
VERTEX
  5
2E9
  8
DEFAULT
 10
-333.7375134242782
 20
166.3383297994733
 30
158.692464054651
  0
VERTEX
  5
2EA
  8
DEFAULT
 10
-333.7156395850786
 20
166.3477059602737
 30
158.692464054651
  0
VERTEX
  5
2EB
  8
DEFAULT
 10
-333.6934285177002
 20
166.3567448928952
 30
158.692464054651
  0
VERTEX
  5
2EC
  8
DEFAULT
 10
-333.6708835302005
 20
166.3654499053955
 30
158.692464054651
  0
VERTEX
  5
2ED
  8
DEFAULT
 10
-333.6248059211383
 20
166.3818722963333
 30
158.692464054651
  0
VERTEX
  5
2EE
  8
DEFAULT
 10
-333.5774367986331
 20
166.3970031738281
 30
158.692464054651
  0
VERTEX
  5
2EF
  8
DEFAULT
 10
-333.5288090644488
 20
166.4108754396439
 30
158.692464054651
  0
VERTEX
  5
2F0
  8
DEFAULT
 10
-333.4789584813724
 20
166.4235248565674
 30
158.692464054651
  0
VERTEX
  5
2F1
  8
DEFAULT
 10
-333.4279236732135
 20
166.4349900484085
 30
158.692464054651
  0
VERTEX
  5
2F2
  8
DEFAULT
 10
-333.375746124805
 20
166.4453125
 30
158.692464054651
  0
VERTEX
  5
2F3
  8
DEFAULT
 10
-333.3224701820025
 20
166.4545365571976
 30
158.692464054651
  0
VERTEX
  5
2F4
  8
DEFAULT
 10
-333.2681430516849
 20
166.4627094268799
 30
158.692464054651
  0
VERTEX
  5
2F5
  8
DEFAULT
 10
-333.2128148017536
 20
166.4698811769485
 30
158.692464054651
  0
VERTEX
  5
2F6
  8
DEFAULT
 10
-333.1565383611331
 20
166.4761047363281
 30
158.692464054651
  0
VERTEX
  5
2F7
  8
DEFAULT
 10
-333.041366928638
 20
166.485933303833
 30
158.692464054651
  0
VERTEX
  5
2F8
  8
DEFAULT
 10
-332.923109406055
 20
166.49267578125
 30
158.692464054651
  0
VERTEX
  5
2F9
  8
DEFAULT
 10
-332.6794875798831
 20
166.4990539550781
 30
158.692464054651
  0
VERTEX
  5
2FA
  8
DEFAULT
 10
-332.430433624805
 20
166.5
 30
158.692464054651
  0
VERTEX
  5
2FB
  8
DEFAULT
 10
-68.24155179802919
 20
166.5
 30
158.692464054651
  0
VERTEX
  5
2FC
  8
DEFAULT
 10
-67.99249784295104
 20
166.4990539550781
 30
158.692464054651
  0
VERTEX
  5
2FD
  8
DEFAULT
 10
-67.74887601677915
 20
166.49267578125
 30
158.692464054651
  0
VERTEX
  5
2FE
  8
DEFAULT
 10
-67.63061849419614
 20
166.485933303833
 30
158.692464054651
  0
VERTEX
  5
2FF
  8
DEFAULT
 10
-67.51544706170102
 20
166.4761047363281
 30
158.692464054651
  0
VERTEX
  5
300
  8
DEFAULT
 10
-67.4591706210806
 20
166.4698811769485
 30
158.692464054651
  0
VERTEX
  5
301
  8
DEFAULT
 10
-67.40384237114927
 20
166.4627094268799
 30
158.692464054651
  0
VERTEX
  5
302
  8
DEFAULT
 10
-67.34951524083156
 20
166.4545365571976
 30
158.692464054651
  0
VERTEX
  5
303
  8
DEFAULT
 10
-67.29623929802914
 20
166.4453125
 30
158.692464054651
  0
VERTEX
  5
304
  8
DEFAULT
 10
-67.24406174962064
 20
166.4349900484085
 30
158.692464054651
  0
VERTEX
  5
305
  8
DEFAULT
 10
-67.19302694146177
 20
166.4235248565674
 30
158.692464054651
  0
VERTEX
  5
306
  8
DEFAULT
 10
-67.14317635838529
 20
166.4108754396439
 30
158.692464054651
  0
VERTEX
  5
307
  8
DEFAULT
 10
-67.09454862420102
 20
166.3970031738281
 30
158.692464054651
  0
VERTEX
  5
308
  8
DEFAULT
 10
-67.04717950169584
 20
166.3818722963333
 30
158.692464054651
  0
VERTEX
  5
309
  8
DEFAULT
 10
-67.00110189263364
 20
166.3654499053955
 30
158.692464054651
  0
VERTEX
  5
30A
  8
DEFAULT
 10
-66.97855690513393
 20
166.3567448928952
 30
158.692464054651
  0
VERTEX
  5
30B
  8
DEFAULT
 10
-66.9563458377554
 20
166.3477059602737
 30
158.692464054651
  0
VERTEX
  5
30C
  8
DEFAULT
 10
-66.93447199855586
 20
166.3383297994733
 30
158.692464054651
  0
VERTEX
  5
30D
  8
DEFAULT
 10
-66.91293851677915
 20
166.32861328125
 30
158.692464054651
  0
VERTEX
  5
30E
  8
DEFAULT
 10
-66.89174834285518
 20
166.318553455174
 30
158.692464054651
  0
VERTEX
  5
30F
  8
DEFAULT
 10
-66.87090424839994
 20
166.3081475496292
 30
158.692464054651
  0
VERTEX
  5
310
  8
DEFAULT
 10
-66.8504088262155
 20
166.2973929718137
 30
158.692464054651
  0
VERTEX
  5
311
  8
DEFAULT
 10
-66.8302644902899
 20
166.2862873077393
 30
158.692464054651
  0
VERTEX
  5
312
  8
DEFAULT
 10
-66.81047347579741
 20
166.2748283222318
 30
158.692464054651
  0
VERTEX
  5
313
  8
DEFAULT
 10
-66.79103783909821
 20
166.263013958931
 30
158.692464054651
  0
VERTEX
  5
314
  8
DEFAULT
 10
-66.77195945773863
 20
166.2508423402905
 30
158.692464054651
  0
VERTEX
  5
315
  8
DEFAULT
 10
-66.75324003045105
 20
166.2383117675781
 30
158.692464054651
  0
VERTEX
  5
316
  8
DEFAULT
 10
-66.73488107715391
 20
166.2254207208753
 30
158.692464054651
  0
VERTEX
  5
317
  8
DEFAULT
 10
-66.71688393895172
 20
166.2121678590775
 30
158.692464054651
  0
VERTEX
  5
318
  8
DEFAULT
 10
-66.69924977813506
 20
166.1985520198941
 30
158.692464054651
  0
VERTEX
  5
319
  8
DEFAULT
 10
-66.68197957818055
 20
166.1845722198486
 30
158.692464054651
  0
VERTEX
  5
31A
  8
DEFAULT
 10
-66.6650741437509
 20
166.1702276542783
 30
158.692464054651
  0
VERTEX
  5
31B
  8
DEFAULT
 10
-66.64853410069489
 20
166.1555176973343
 30
158.692464054651
  0
VERTEX
  5
31C
  8
DEFAULT
 10
-66.63235989604736
 20
166.1404419019818
 30
158.692464054651
  0
VERTEX
  5
31D
  8
DEFAULT
 10
-66.61655179802919
 20
166.125
 30
158.692464054651
  0
VERTEX
  5
31E
  8
DEFAULT
 10
-66.60110989604736
 20
166.1091919019818
 30
158.692464054651
  0
VERTEX
  5
31F
  8
DEFAULT
 10
-66.58603410069489
 20
166.0930176973343
 30
158.692464054651
  0
VERTEX
  5
320
  8
DEFAULT
 10
-66.57132414375093
 20
166.0764776542783
 30
158.692464054651
  0
VERTEX
  5
321
  8
DEFAULT
 10
-66.55697957818057
 20
166.0595722198486
 30
158.692464054651
  0
VERTEX
  5
322
  8
DEFAULT
 10
-66.54299977813508
 20
166.0423020198941
 30
158.692464054651
  0
VERTEX
  5
323
  8
DEFAULT
 10
-66.52938393895175
 20
166.0246678590775
 30
158.692464054651
  0
VERTEX
  5
324
  8
DEFAULT
 10
-66.51613107715397
 20
166.0066707208753
 30
158.692464054651
  0
VERTEX
  5
325
  8
DEFAULT
 10
-66.5032400304511
 20
165.9883117675781
 30
158.692464054651
  0
VERTEX
  5
326
  8
DEFAULT
 10
-66.49070945773869
 20
165.9695923402905
 30
158.692464054651
  0
VERTEX
  5
327
  8
DEFAULT
 10
-66.47853783909827
 20
165.950513958931
 30
158.692464054651
  0
VERTEX
  5
328
  8
DEFAULT
 10
-66.46672347579747
 20
165.9310783222318
 30
158.692464054651
  0
VERTEX
  5
329
  8
DEFAULT
 10
-66.45526449028998
 20
165.9112873077393
 30
158.692464054651
  0
VERTEX
  5
32A
  8
DEFAULT
 10
-66.44415882621556
 20
165.8911429718137
 30
158.692464054651
  0
VERTEX
  5
32B
  8
DEFAULT
 10
-66.43340424840002
 20
165.8706475496292
 30
158.692464054651
  0
VERTEX
  5
32C
  8
DEFAULT
 10
-66.42299834285527
 20
165.849803455174
 30
158.692464054651
  0
VERTEX
  5
32D
  8
DEFAULT
 10
-66.41293851677923
 20
165.82861328125
 30
158.692464054651
  0
VERTEX
  5
32E
  8
DEFAULT
 10
-66.40322199855595
 20
165.8070797994733
 30
158.692464054651
  0
VERTEX
  5
32F
  8
DEFAULT
 10
-66.39384583775549
 20
165.7852059602737
 30
158.692464054651
  0
VERTEX
  5
330
  8
DEFAULT
 10
-66.38480690513403
 20
165.7629948928952
 30
158.692464054651
  0
VERTEX
  5
331
  8
DEFAULT
 10
-66.37610189263374
 20
165.7404499053955
 30
158.692464054651
  0
VERTEX
  5
332
  8
DEFAULT
 10
-66.35967950169595
 20
165.6943722963333
 30
158.692464054651
  0
VERTEX
  5
333
  8
DEFAULT
 10
-66.34454862420114
 20
165.6470031738281
 30
158.692464054651
  0
VERTEX
  5
334
  8
DEFAULT
 10
-66.3306763583854
 20
165.5983754396439
 30
158.692464054651
  0
VERTEX
  5
335
  8
DEFAULT
 10
-66.31802694146188
 20
165.5485248565674
 30
158.692464054651
  0
VERTEX
  5
336
  8
DEFAULT
 10
-66.30656174962076
 20
165.4974900484085
 30
158.692464054651
  0
VERTEX
  5
337
  8
DEFAULT
 10
-66.29623929802926
 20
165.4453125
 30
158.692464054651
  0
VERTEX
  5
338
  8
DEFAULT
 10
-66.28701524083169
 20
165.3920365571976
 30
158.692464054651
  0
VERTEX
  5
339
  8
DEFAULT
 10
-66.27884237114938
 20
165.3377094268799
 30
158.692464054651
  0
VERTEX
  5
33A
  8
DEFAULT
 10
-66.27167062108072
 20
165.2823811769485
 30
158.692464054651
  0
VERTEX
  5
33B
  8
DEFAULT
 10
-66.26544706170114
 20
165.2261047363281
 30
158.692464054651
  0
VERTEX
  5
33C
  8
DEFAULT
 10
-66.25561849419628
 20
165.110933303833
 30
158.692464054651
  0
VERTEX
  5
33D
  8
DEFAULT
 10
-66.24887601677929
 20
164.99267578125
 30
158.692464054651
  0
VERTEX
  5
33E
  8
DEFAULT
 10
-66.24249784295117
 20
164.7490539550781
 30
158.692464054651
  0
VERTEX
  5
33F
  8
DEFAULT
 10
-66.24155179802929
 20
164.5
 30
158.692464054651
  0
VERTEX
  5
340
  8
DEFAULT
 10
-66.24155179802929
 20
150.5
 30
158.692464054651
  0
VERTEX
  5
341
  8
DEFAULT
 10
-66.24249784295117
 20
150.2509460449219
 30
158.692464054651
  0
VERTEX
  5
342
  8
DEFAULT
 10
-66.24887601677929
 20
150.00732421875
 30
158.692464054651
  0
VERTEX
  5
343
  8
DEFAULT
 10
-66.25561849419628
 20
149.889066696167
 30
158.692464054651
  0
VERTEX
  5
344
  8
DEFAULT
 10
-66.26544706170117
 20
149.7738952636719
 30
158.692464054651
  0
VERTEX
  5
345
  8
DEFAULT
 10
-66.27167062108073
 20
149.7176188230515
 30
158.692464054651
  0
VERTEX
  5
346
  8
DEFAULT
 10
-66.27884237114941
 20
149.6622905731201
 30
158.692464054651
  0
VERTEX
  5
347
  8
DEFAULT
 10
-66.28701524083172
 20
149.6079634428024
 30
158.692464054651
  0
VERTEX
  5
348
  8
DEFAULT
 10
-66.29623929802929
 20
149.5546875
 30
158.692464054651
  0
VERTEX
  5
349
  8
DEFAULT
 10
-66.30656174962078
 20
149.5025099515915
 30
158.692464054651
  0
VERTEX
  5
34A
  8
DEFAULT
 10
-66.31802694146191
 20
149.4514751434326
 30
158.692464054651
  0
VERTEX
  5
34B
  8
DEFAULT
 10
-66.33067635838543
 20
149.4016245603561
 30
158.692464054651
  0
VERTEX
  5
34C
  8
DEFAULT
 10
-66.34454862420117
 20
149.3529968261719
 30
158.692464054651
  0
VERTEX
  5
34D
  8
DEFAULT
 10
-66.35967950169598
 20
149.3056277036667
 30
158.692464054651
  0
VERTEX
  5
34E
  8
DEFAULT
 10
-66.37610189263377
 20
149.2595500946045
 30
158.692464054651
  0
VERTEX
  5
34F
  8
DEFAULT
 10
-66.38480690513406
 20
149.2370051071048
 30
158.692464054651
  0
VERTEX
  5
350
  8
DEFAULT
 10
-66.39384583775553
 20
149.2147940397263
 30
158.692464054651
  0
VERTEX
  5
351
  8
DEFAULT
 10
-66.403221998556
 20
149.1929202005267
 30
158.692464054651
  0
VERTEX
  5
352
  8
DEFAULT
 10
-66.41293851677929
 20
149.17138671875
 30
158.692464054651
  0
VERTEX
  5
353
  8
DEFAULT
 10
-66.42299834285532
 20
149.150196544826
 30
158.692464054651
  0
VERTEX
  5
354
  8
DEFAULT
 10
-66.43340424840008
 20
149.1293524503708
 30
158.692464054651
  0
VERTEX
  5
355
  8
DEFAULT
 10
-66.44415882621561
 20
149.1088570281863
 30
158.692464054651
  0
VERTEX
  5
356
  8
DEFAULT
 10
-66.45526449029003
 20
149.0887126922607
 30
158.692464054651
  0
VERTEX
  5
357
  8
DEFAULT
 10
-66.46672347579752
 20
149.0689216777682
 30
158.692464054651
  0
VERTEX
  5
358
  8
DEFAULT
 10
-66.47853783909832
 20
149.049486041069
 30
158.692464054651
  0
VERTEX
  5
359
  8
DEFAULT
 10
-66.49070945773875
 20
149.0304076597095
 30
158.692464054651
  0
VERTEX
  5
35A
  8
DEFAULT
 10
-66.50324003045115
 20
149.0116882324219
 30
158.692464054651
  0
VERTEX
  5
35B
  8
DEFAULT
 10
-66.51613107715403
 20
148.9933292791247
 30
158.692464054651
  0
VERTEX
  5
35C
  8
DEFAULT
 10
-66.52938393895182
 20
148.9753321409225
 30
158.692464054651
  0
VERTEX
  5
35D
  8
DEFAULT
 10
-66.54299977813515
 20
148.9576979801059
 30
158.692464054651
  0
VERTEX
  5
35E
  8
DEFAULT
 10
-66.55697957818064
 20
148.9404277801514
 30
158.692464054651
  0
VERTEX
  5
35F
  8
DEFAULT
 10
-66.57132414375099
 20
148.9235223457217
 30
158.692464054651
  0
VERTEX
  5
360
  8
DEFAULT
 10
-66.58603410069497
 20
148.9069823026657
 30
158.692464054651
  0
VERTEX
  5
361
  8
DEFAULT
 10
-66.60110989604745
 20
148.8908080980182
 30
158.692464054651
  0
VERTEX
  5
362
  8
DEFAULT
 10
-66.61655179802928
 20
148.875
 30
158.692464054651
  0
VERTEX
  5
363
  8
DEFAULT
 10
-66.63235989604745
 20
148.8595580980182
 30
158.692464054651
  0
VERTEX
  5
364
  8
DEFAULT
 10
-66.64853410069499
 20
148.8444823026657
 30
158.692464054651
  0
VERTEX
  5
365
  8
DEFAULT
 10
-66.66507414375101
 20
148.8297723457217
 30
158.692464054651
  0
VERTEX
  5
366
  8
DEFAULT
 10
-66.68197957818064
 20
148.8154277801514
 30
158.692464054651
  0
VERTEX
  5
367
  8
DEFAULT
 10
-66.69924977813514
 20
148.8014479801059
 30
158.692464054651
  0
VERTEX
  5
368
  8
DEFAULT
 10
-66.71688393895181
 20
148.7878321409225
 30
158.692464054651
  0
VERTEX
  5
369
  8
DEFAULT
 10
-66.734881077154
 20
148.7745792791247
 30
158.692464054651
  0
VERTEX
  5
36A
  8
DEFAULT
 10
-66.75324003045114
 20
148.7616882324219
 30
158.692464054651
  0
VERTEX
  5
36B
  8
DEFAULT
 10
-66.77195945773872
 20
148.7491576597095
 30
158.692464054651
  0
VERTEX
  5
36C
  8
DEFAULT
 10
-66.7910378390983
 20
148.736986041069
 30
158.692464054651
  0
VERTEX
  5
36D
  8
DEFAULT
 10
-66.81047347579751
 20
148.7251716777682
 30
158.692464054651
  0
VERTEX
  5
36E
  8
DEFAULT
 10
-66.83026449029
 20
148.7137126922607
 30
158.692464054651
  0
VERTEX
  5
36F
  8
DEFAULT
 10
-66.85040882621558
 20
148.7026070281863
 30
158.692464054651
  0
VERTEX
  5
370
  8
DEFAULT
 10
-66.87090424840007
 20
148.6918524503708
 30
158.692464054651
  0
VERTEX
  5
371
  8
DEFAULT
 10
-66.89174834285531
 20
148.681446544826
 30
158.692464054651
  0
VERTEX
  5
372
  8
DEFAULT
 10
-66.91293851677928
 20
148.67138671875
 30
158.692464054651
  0
VERTEX
  5
373
  8
DEFAULT
 10
-66.93447199855598
 20
148.6616702005267
 30
158.692464054651
  0
VERTEX
  5
374
  8
DEFAULT
 10
-66.95634583775552
 20
148.6522940397263
 30
158.692464054651
  0
VERTEX
  5
375
  8
DEFAULT
 10
-66.97855690513406
 20
148.6432551071048
 30
158.692464054651
  0
VERTEX
  5
376
  8
DEFAULT
 10
-67.00110189263377
 20
148.6345500946045
 30
158.692464054651
  0
VERTEX
  5
377
  8
DEFAULT
 10
-67.04717950169596
 20
148.6181277036667
 30
158.692464054651
  0
VERTEX
  5
378
  8
DEFAULT
 10
-67.09454862420115
 20
148.6029968261719
 30
158.692464054651
  0
VERTEX
  5
379
  8
DEFAULT
 10
-67.1431763583854
 20
148.5891245603561
 30
158.692464054651
  0
VERTEX
  5
37A
  8
DEFAULT
 10
-67.19302694146191
 20
148.5764751434326
 30
158.692464054651
  0
VERTEX
  5
37B
  8
DEFAULT
 10
-67.24406174962078
 20
148.5650099515915
 30
158.692464054651
  0
VERTEX
  5
37C
  8
DEFAULT
 10
-67.29623929802928
 20
148.5546875
 30
158.692464054651
  0
VERTEX
  5
37D
  8
DEFAULT
 10
-67.3495152408317
 20
148.5454634428024
 30
158.692464054651
  0
VERTEX
  5
37E
  8
DEFAULT
 10
-67.40384237114941
 20
148.5372905731201
 30
158.692464054651
  0
VERTEX
  5
37F
  8
DEFAULT
 10
-67.45917062108074
 20
148.5301188230515
 30
158.692464054651
  0
VERTEX
  5
380
  8
DEFAULT
 10
-67.51544706170117
 20
148.5238952636719
 30
158.692464054651
  0
VERTEX
  5
381
  8
DEFAULT
 10
-67.63061849419628
 20
148.514066696167
 30
158.692464054651
  0
VERTEX
  5
382
  8
DEFAULT
 10
-67.74887601677929
 20
148.50732421875
 30
158.692464054651
  0
VERTEX
  5
383
  8
DEFAULT
 10
-67.99249784295117
 20
148.5009460449219
 30
158.692464054651
  0
VERTEX
  5
384
  8
DEFAULT
 10
-68.24155179802929
 20
148.5
 30
158.692464054651
  0
VERTEX
  5
385
  8
DEFAULT
 10
-74.456824420078
 20
148.5
 30
158.692464054651
  0
VERTEX
  5
386
  8
DEFAULT
 10
-74.70587837515613
 20
148.5009460449219
 30
158.692464054651
  0
VERTEX
  5
387
  8
DEFAULT
 10
-74.94950020132804
 20
148.50732421875
 30
158.692464054651
  0
VERTEX
  5
388
  8
DEFAULT
 10
-75.06775772391106
 20
148.514066696167
 30
158.692464054651
  0
VERTEX
  5
389
  8
DEFAULT
 10
-75.18292915640617
 20
148.5238952636719
 30
158.692464054651
  0
VERTEX
  5
38A
  8
DEFAULT
 10
-75.2392055970266
 20
148.5301188230515
 30
158.692464054651
  0
VERTEX
  5
38B
  8
DEFAULT
 10
-75.29453384695793
 20
148.5372905731201
 30
158.692464054651
  0
VERTEX
  5
38C
  8
DEFAULT
 10
-75.34886097727563
 20
148.5454634428024
 30
158.692464054651
  0
VERTEX
  5
38D
  8
DEFAULT
 10
-75.40213692007806
 20
148.5546875
 30
158.692464054651
  0
VERTEX
  5
38E
  8
DEFAULT
 10
-75.45431446848656
 20
148.5650099515915
 30
158.692464054651
  0
VERTEX
  5
38F
  8
DEFAULT
 10
-75.50534927664543
 20
148.5764751434326
 30
158.692464054651
  0
VERTEX
  5
390
  8
DEFAULT
 10
-75.55519985972194
 20
148.5891245603561
 30
158.692464054651
  0
VERTEX
  5
391
  8
DEFAULT
 10
-75.60382759390619
 20
148.6029968261719
 30
158.692464054651
  0
VERTEX
  5
392
  8
DEFAULT
 10
-75.65119671641138
 20
148.6181277036667
 30
158.692464054651
  0
VERTEX
  5
393
  8
DEFAULT
 10
-75.69727432547357
 20
148.6345500946045
 30
158.692464054651
  0
VERTEX
  5
394
  8
DEFAULT
 10
-75.71981931297327
 20
148.6432551071048
 30
158.692464054651
  0
VERTEX
  5
395
  8
DEFAULT
 10
-75.74203038035179
 20
148.6522940397263
 30
158.692464054651
  0
VERTEX
  5
396
  8
DEFAULT
 10
-75.76390421955134
 20
148.6616702005267
 30
158.692464054651
  0
VERTEX
  5
397
  8
DEFAULT
 10
-75.78543770132805
 20
148.67138671875
 30
158.692464054651
  0
VERTEX
  5
398
  8
DEFAULT
 10
-75.80662787525202
 20
148.681446544826
 30
158.692464054651
  0
VERTEX
  5
399
  8
DEFAULT
 10
-75.82747196970726
 20
148.6918524503708
 30
158.692464054651
  0
VERTEX
  5
39A
  8
DEFAULT
 10
-75.84796739189173
 20
148.7026070281863
 30
158.692464054651
  0
VERTEX
  5
39B
  8
DEFAULT
 10
-75.86811172781731
 20
148.7137126922607
 30
158.692464054651
  0
VERTEX
  5
39C
  8
DEFAULT
 10
-75.88790274230982
 20
148.7251716777682
 30
158.692464054651
  0
VERTEX
  5
39D
  8
DEFAULT
 10
-75.90733837900902
 20
148.736986041069
 30
158.692464054651
  0
VERTEX
  5
39E
  8
DEFAULT
 10
-75.9264167603686
 20
148.7491576597095
 30
158.692464054651
  0
VERTEX
  5
39F
  8
DEFAULT
 10
-75.94513618765617
 20
148.7616882324219
 30
158.692464054651
  0
VERTEX
  5
3A0
  8
DEFAULT
 10
-75.96349514095331
 20
148.7745792791247
 30
158.692464054651
  0
VERTEX
  5
3A1
  8
DEFAULT
 10
-75.9814922791555
 20
148.7878321409225
 30
158.692464054651
  0
VERTEX
  5
3A2
  8
DEFAULT
 10
-75.99912643997217
 20
148.8014479801059
 30
158.692464054651
  0
VERTEX
  5
3A3
  8
DEFAULT
 10
-76.01639663992667
 20
148.8154277801514
 30
158.692464054651
  0
VERTEX
  5
3A4
  8
DEFAULT
 10
-76.0333020743563
 20
148.8297723457217
 30
158.692464054651
  0
VERTEX
  5
3A5
  8
DEFAULT
 10
-76.04984211741233
 20
148.8444823026657
 30
158.692464054651
  0
VERTEX
  5
3A6
  8
DEFAULT
 10
-76.06601632205987
 20
148.8595580980182
 30
158.692464054651
  0
VERTEX
  5
3A7
  8
DEFAULT
 10
-76.08182442007804
 20
148.875
 30
158.692464054651
  0
VERTEX
  5
3A8
  8
DEFAULT
 10
-76.09726632205987
 20
148.8908080980182
 30
158.692464054651
  0
VERTEX
  5
3A9
  8
DEFAULT
 10
-76.11234211741234
 20
148.9069823026657
 30
158.692464054651
  0
VERTEX
  5
3AA
  8
DEFAULT
 10
-76.1270520743563
 20
148.9235223457217
 30
158.692464054651
  0
VERTEX
  5
3AB
  8
DEFAULT
 10
-76.14139663992665
 20
148.9404277801514
 30
158.692464054651
  0
VERTEX
  5
3AC
  8
DEFAULT
 10
-76.15537643997214
 20
148.9576979801059
 30
158.692464054651
  0
VERTEX
  5
3AD
  8
DEFAULT
 10
-76.16899227915547
 20
148.9753321409225
 30
158.692464054651
  0
VERTEX
  5
3AE
  8
DEFAULT
 10
-76.18224514095328
 20
148.9933292791247
 30
158.692464054651
  0
VERTEX
  5
3AF
  8
DEFAULT
 10
-76.19513618765615
 20
149.0116882324219
 30
158.692464054651
  0
VERTEX
  5
3B0
  8
DEFAULT
 10
-76.20766676036857
 20
149.0304076597095
 30
158.692464054651
  0
VERTEX
  5
3B1
  8
DEFAULT
 10
-76.21983837900899
 20
149.049486041069
 30
158.692464054651
  0
VERTEX
  5
3B2
  8
DEFAULT
 10
-76.23165274230979
 20
149.0689216777682
 30
158.692464054651
  0
VERTEX
  5
3B3
  8
DEFAULT
 10
-76.24311172781728
 20
149.0887126922607
 30
158.692464054651
  0
VERTEX
  5
3B4
  8
DEFAULT
 10
-76.2542173918917
 20
149.1088570281863
 30
158.692464054651
  0
VERTEX
  5
3B5
  8
DEFAULT
 10
-76.26497196970723
 20
149.1293524503708
 30
158.692464054651
  0
VERTEX
  5
3B6
  8
DEFAULT
 10
-76.27537787525199
 20
149.150196544826
 30
158.692464054651
  0
VERTEX
  5
3B7
  8
DEFAULT
 10
-76.28543770132801
 20
149.17138671875
 30
158.692464054651
  0
VERTEX
  5
3B8
  8
DEFAULT
 10
-76.29515421955128
 20
149.1929202005267
 30
158.692464054651
  0
VERTEX
  5
3B9
  8
DEFAULT
 10
-76.30453038035175
 20
149.2147940397263
 30
158.692464054651
  0
VERTEX
  5
3BA
  8
DEFAULT
 10
-76.31356931297323
 20
149.2370051071048
 30
158.692464054651
  0
VERTEX
  5
3BB
  8
DEFAULT
 10
-76.32227432547351
 20
149.2595500946045
 30
158.692464054651
  0
VERTEX
  5
3BC
  8
DEFAULT
 10
-76.3386967164113
 20
149.3056277036667
 30
158.692464054651
  0
VERTEX
  5
3BD
  8
DEFAULT
 10
-76.35382759390612
 20
149.3529968261719
 30
158.692464054651
  0
VERTEX
  5
3BE
  8
DEFAULT
 10
-76.36769985972185
 20
149.4016245603561
 30
158.692464054651
  0
VERTEX
  5
3BF
  8
DEFAULT
 10
-76.38034927664538
 20
149.4514751434326
 30
158.692464054651
  0
VERTEX
  5
3C0
  8
DEFAULT
 10
-76.3918144684865
 20
149.5025099515915
 30
158.692464054651
  0
VERTEX
  5
3C1
  8
DEFAULT
 10
-76.402136920078
 20
149.5546875
 30
158.692464054651
  0
VERTEX
  5
3C2
  8
DEFAULT
 10
-76.41136097727556
 20
149.6079634428024
 30
158.692464054651
  0
VERTEX
  5
3C3
  8
DEFAULT
 10
-76.41953384695788
 20
149.6622905731201
 30
158.692464054651
  0
VERTEX
  5
3C4
  8
DEFAULT
 10
-76.42670559702654
 20
149.7176188230515
 30
158.692464054651
  0
VERTEX
  5
3C5
  8
DEFAULT
 10
-76.43292915640612
 20
149.7738952636719
 30
158.692464054651
  0
VERTEX
  5
3C6
  8
DEFAULT
 10
-76.44275772391099
 20
149.889066696167
 30
158.692464054651
  0
VERTEX
  5
3C7
  8
DEFAULT
 10
-76.449500201328
 20
150.00732421875
 30
158.692464054651
  0
VERTEX
  5
3C8
  8
DEFAULT
 10
-76.45587837515612
 20
150.2509460449219
 30
158.692464054651
  0
VERTEX
  5
3C9
  8
DEFAULT
 10
-76.456824420078
 20
150.5
 30
158.692464054651
  0
VERTEX
  5
3CA
  8
DEFAULT
 10
-76.456824420078
 20
156.265245180412
 30
158.692464054651
  0
VERTEX
  5
3CB
  8
DEFAULT
 10
-76.45720259776263
 20
156.2994827008245
 30
158.692464054651
  0
VERTEX
  5
3CC
  8
DEFAULT
 10
-76.45835040872996
 20
156.3340073515504
 30
158.692464054651
  0
VERTEX
  5
3CD
  8
DEFAULT
 10
-76.46028729355743
 20
156.3687966955796
 30
158.692464054651
  0
VERTEX
  5
3CE
  8
DEFAULT
 10
-76.46303198994386
 20
156.4038270430801
 30
158.692464054651
  0
VERTEX
  5
3CF
  8
DEFAULT
 10
-76.46660244683493
 20
156.4390734667732
 30
158.692464054651
  0
VERTEX
  5
3D0
  8
DEFAULT
 10
-76.47101573762362
 20
156.4745098236218
 30
158.692464054651
  0
VERTEX
  5
3D1
  8
DEFAULT
 10
-76.47628797291647
 20
156.510108783077
 30
158.692464054651
  0
VERTEX
  5
3D2
  8
DEFAULT
 10
-76.48243421339342
 20
156.5458418620821
 30
158.692464054651
  0
VERTEX
  5
3D3
  8
DEFAULT
 10
-76.48946838332289
 20
156.5816794669911
 30
158.692464054651
  0
VERTEX
  5
3D4
  8
DEFAULT
 10
-76.4974031853235
 20
156.6175909425152
 30
158.692464054651
  0
VERTEX
  5
3D5
  8
DEFAULT
 10
-76.50625001699049
 20
156.6535446277442
 30
158.692464054651
  0
VERTEX
  5
3D6
  8
DEFAULT
 10
-76.51601889002451
 20
156.6895079192448
 30
158.692464054651
  0
VERTEX
  5
3D7
  8
DEFAULT
 10
-76.52671835251557
 20
156.7254473411684
 30
158.692464054651
  0
VERTEX
  5
3D8
  8
DEFAULT
 10
-76.53835541504334
 20
156.7613286222365
 30
158.692464054651
  0
VERTEX
  5
3D9
  8
DEFAULT
 10
-76.55093548125649
 20
156.7971167794067
 30
158.692464054651
  0
VERTEX
  5
3DA
  8
DEFAULT
 10
-76.56446228358713
 20
156.8327762079492
 30
158.692464054651
  0
VERTEX
  5
3DB
  8
DEFAULT
 10
-76.57893782474251
 20
156.8682707775976
 30
158.692464054651
  0
VERTEX
  5
3DC
  8
DEFAULT
 10
-76.59436232559455
 20
156.9035639343643
 30
158.692464054651
  0
VERTEX
  5
3DD
  8
DEFAULT
 10
-76.61073418005631
 20
156.9386188075434
 30
158.692464054651
  0
VERTEX
  5
3DE
  8
DEFAULT
 10
-76.62804991749657
 20
156.9733983213575
 30
158.692464054651
  0
VERTEX
  5
3DF
  8
DEFAULT
 10
-76.64630417319589
 20
157.0078653106424
 30
158.692464054651
  0
VERTEX
  5
3E0
  8
DEFAULT
 10
-76.6654896672937
 20
157.0419826399005
 30
158.692464054651
  0
VERTEX
  5
3E1
  8
DEFAULT
 10
-76.68559719261252
 20
157.0757133250071
 30
158.692464054651
  0
VERTEX
  5
3E2
  8
DEFAULT
 10
-76.70661561167682
 20
157.1090206568011
 30
158.692464054651
  0
VERTEX
  5
3E3
  8
DEFAULT
 10
-76.72853186316897
 20
157.1418683257548
 30
158.692464054651
  0
VERTEX
  5
3E4
  8
DEFAULT
 10
-76.75133097798359
 20
157.1742205468864
 30
158.692464054651
  0
VERTEX
  5
3E5
  8
DEFAULT
 10
-76.77499610495751
 20
157.2060421840567
 30
158.692464054651
  0
VERTEX
  5
3E6
  8
DEFAULT
 10
-76.799508546265
 20
157.237298872776
 30
158.692464054651
  0
VERTEX
  5
3E7
  8
DEFAULT
 10
-76.82484780237718
 20
157.2679571406518
 30
158.692464054651
  0
VERTEX
  5
3E8
  8
DEFAULT
 10
-76.85099162639638
 20
157.2979845246075
 30
158.692464054651
  0
VERTEX
  5
3E9
  8
DEFAULT
 10
-76.87791608748506
 20
157.3273496840281
 30
158.692464054651
  0
VERTEX
  5
3EA
  8
DEFAULT
 10
-76.90559564302335
 20
157.3560225090113
 30
158.692464054651
  0
VERTEX
  5
3EB
  8
DEFAULT
 10
-76.93400321904394
 20
157.383974222947
 30
158.692464054651
  0
VERTEX
  5
3EC
  8
DEFAULT
 10
-76.96311029841581
 20
157.4111774786924
 30
158.692464054651
  0
VERTEX
  5
3ED
  8
DEFAULT
 10
-76.9928870161737
 20
157.4376064476685
 30
158.692464054651
  0
VERTEX
  5
3EE
  8
DEFAULT
 10
-77.02330226132588
 20
157.4632369012694
 30
158.692464054651
  0
VERTEX
  5
3EF
  8
DEFAULT
 10
-77.05432378441279
 20
157.4880462840493
 30
158.692464054651
  0
VERTEX
  5
3F0
  8
DEFAULT
 10
-77.08591831004196
 20
157.512013778227
 30
158.692464054651
  0
VERTEX
  5
3F1
  8
DEFAULT
 10
-77.11805165358419
 20
157.5351203591358
 30
158.692464054651
  0
VERTEX
  5
3F2
  8
DEFAULT
 10
-77.15068884118585
 20
157.5573488413289
 30
158.692464054651
  0
VERTEX
  5
3F3
  8
DEFAULT
 10
-77.18379423223402
 20
157.578683915145
 30
158.692464054651
  0
VERTEX
  5
3F4
  8
DEFAULT
 10
-77.21733164340137
 20
157.5991121736219
 30
158.692464054651
  0
VERTEX
  5
3F5
  8
DEFAULT
 10
-77.25126447339993
 20
157.618622129741
 30
158.692464054651
  0
VERTEX
  5
3F6
  8
DEFAULT
 10
-77.28555582758392
 20
157.6372042240721
 30
158.692464054651
  0
VERTEX
  5
3F7
  8
DEFAULT
 10
-77.32016864156313
 20
157.6548508229709
 30
158.692464054651
  0
VERTEX
  5
3F8
  8
DEFAULT
 10
-77.35506580301951
 20
157.671556207564
 30
158.692464054651
  0
VERTEX
  5
3F9
  8
DEFAULT
 10
-77.39021027095667
 20
157.6873165538327
 30
158.692464054651
  0
VERTEX
  5
3FA
  8
DEFAULT
 10
-77.4255651916603
 20
157.7021299041732
 30
158.692464054651
  0
VERTEX
  5
3FB
  8
DEFAULT
 10
-77.46109401069849
 20
157.7159961308778
 30
158.692464054651
  0
VERTEX
  5
3FC
  8
DEFAULT
 10
-77.49676058035023
 20
157.7289168920336
 30
158.692464054651
  0
VERTEX
  5
3FD
  8
DEFAULT
 10
-77.5325292619131
 20
157.740895580385
 30
158.692464054651
  0
VERTEX
  5
3FE
  8
DEFAULT
 10
-77.56836502240726
 20
157.7519372657455
 30
158.692464054651
  0
VERTEX
  5
3FF
  8
DEFAULT
 10
-77.60423352526142
 20
157.7620486315737
 30
158.692464054651
  0
VERTEX
  5
400
  8
DEFAULT
 10
-77.6401012146365
 20
157.7712379063538
 30
158.692464054651
  0
VERTEX
  5
401
  8
DEFAULT
 10
-77.67593539311255
 20
157.7795147904331
 30
158.692464054651
  0
VERTEX
  5
402
  8
DEFAULT
 10
-77.7117042925343
 20
157.7868903789778
 30
158.692464054651
  0
VERTEX
  5
403
  8
DEFAULT
 10
-77.7473771378772
 20
157.7933770817079
 30
158.692464054651
  0
VERTEX
  5
404
  8
DEFAULT
 10
-77.78292420406316
 20
157.7989885400611
 30
158.692464054651
  0
VERTEX
  5
405
  8
DEFAULT
 10
-77.81831686571527
 20
157.8037395424257
 30
158.692464054651
  0
VERTEX
  5
406
  8
DEFAULT
 10
-77.85352763990053
 20
157.8076459380579
 30
158.692464054651
  0
VERTEX
  5
407
  8
DEFAULT
 10
-77.88853022196307
 20
157.8107245502814
 30
158.692464054651
  0
VERTEX
  5
408
  8
DEFAULT
 10
-77.92329951460057
 20
157.8129930895252
 30
158.692464054651
  0
VERTEX
  5
409
  8
DEFAULT
 10
-77.95781165038039
 20
157.8144700667362
 30
158.692464054651
  0
VERTEX
  5
40A
  8
DEFAULT
 10
-77.99204400793188
 20
157.815174707654
 30
158.692464054651
  0
VERTEX
  5
40B
  8
DEFAULT
 10
-78.04242954280672
 20
157.8148361829786
 30
158.692464054651
  0
VERTEX
  5
40C
  8
DEFAULT
 10
-78.09342771489746
 20
157.8128238922474
 30
158.692464054651
  0
VERTEX
  5
40D
  8
DEFAULT
 10
-78.1449652502515
 20
157.8090771372773
 30
158.692464054651
  0
VERTEX
  5
40E
  8
DEFAULT
 10
-78.19696308507149
 20
157.8035388091038
 30
158.692464054651
  0
VERTEX
  5
40F
  8
DEFAULT
 10
-78.24933651615983
 20
157.7961559822725
 30
158.692464054651
  0
VERTEX
  5
410
  8
DEFAULT
 10
-78.3019954178597
 20
157.7868805119116
 30
158.692464054651
  0
VERTEX
  5
411
  8
DEFAULT
 10
-78.35484452811018
 20
157.7756696255282
 30
158.692464054651
  0
VERTEX
  5
412
  8
DEFAULT
 10
-78.38130932389505
 20
157.7693266465608
 30
158.692464054651
  0
VERTEX
  5
413
  8
DEFAULT
 10
-78.4077838051901
 20
157.7624865008042
 30
158.692464054651
  0
VERTEX
  5
414
  8
DEFAULT
 10
-78.43425479015112
 20
157.7551456061917
 30
158.692464054651
  0
VERTEX
  5
415
  8
DEFAULT
 10
-78.4607088555342
 20
157.7473008201402
 30
158.692464054651
  0
VERTEX
  5
416
  8
DEFAULT
 10
-78.48713235387187
 20
157.7389494549304
 30
158.692464054651
  0
VERTEX
  5
417
  8
DEFAULT
 10
-78.51351143168522
 20
157.7300892923461
 30
158.692464054651
  0
VERTEX
  5
418
  8
DEFAULT
 10
-78.53983204870005
 20
157.7207185974933
 30
158.692464054651
  0
VERTEX
  5
419
  8
DEFAULT
 10
-78.56607999802699
 20
157.71083613173
 30
158.692464054651
  0
VERTEX
  5
41A
  8
DEFAULT
 10
-78.59224092726183
 20
157.7004411646301
 30
158.692464054651
  0
VERTEX
  5
41B
  8
DEFAULT
 10
-78.61830036045433
 20
157.6895334849136
 30
158.692464054651
  0
VERTEX
  5
41C
  8
DEFAULT
 10
-78.64424372088999
 20
157.6781134102734
 30
158.692464054651
  0
VERTEX
  5
41D
  8
DEFAULT
 10
-78.67005635462142
 20
157.6661817960378
 30
158.692464054651
  0
VERTEX
  5
41E
  8
DEFAULT
 10
-78.69572355468262
 20
157.6537400426064
 30
158.692464054651
  0
VERTEX
  5
41F
  8
DEFAULT
 10
-78.7212305859128
 20
157.6407901016038
 30
158.692464054651
  0
VERTEX
  5
420
  8
DEFAULT
 10
-78.74656271031265
 20
157.6273344807004
 30
158.692464054651
  0
VERTEX
  5
421
  8
DEFAULT
 10
-78.77170521284962
 20
157.6133762470551
 30
158.692464054651
  0
VERTEX
  5
422
  8
DEFAULT
 10
-78.79664342762771
 20
157.5989190293391
 30
158.692464054651
  0
VERTEX
  5
423
  8
DEFAULT
 10
-78.82136276432963
 20
157.5839670183078
 30
158.692464054651
  0
VERTEX
  5
424
  8
DEFAULT
 10
-78.84584873484029
 20
157.5685249658906
 30
158.692464054651
  0
VERTEX
  5
425
  8
DEFAULT
 10
-78.8700869799531
 20
157.5525981827843
 30
158.692464054651
  0
VERTEX
  5
426
  8
DEFAULT
 10
-78.894063296064
 20
157.5361925345294
 30
158.692464054651
  0
VERTEX
  5
427
  8
DEFAULT
 10
-78.91776366175083
 20
157.5193144360674
 30
158.692464054651
  0
VERTEX
  5
428
  8
DEFAULT
 10
-78.9411742641395
 20
157.501970844778
 30
158.692464054651
  0
VERTEX
  5
429
  8
DEFAULT
 10
-78.9642815249549
 20
157.4841692520097
 30
158.692464054651
  0
VERTEX
  5
42A
  8
DEFAULT
 10
-78.98707212615699
 20
157.4659176731119
 30
158.692464054651
  0
VERTEX
  5
42B
  8
DEFAULT
 10
-79.00953303506155
 20
157.4472246360022
 30
158.692464054651
  0
VERTEX
  5
42C
  8
DEFAULT
 10
-79.03165152884876
 20
157.4280991682918
 30
158.692464054651
  0
VERTEX
  5
42D
  8
DEFAULT
 10
-79.05341521836304
 20
157.4085507830155
 30
158.692464054651
  0
VERTEX
  5
42E
  8
DEFAULT
 10
-79.07481207111222
 20
157.3885894630066
 30
158.692464054651
  0
VERTEX
  5
42F
  8
DEFAULT
 10
-79.09583043337642
 20
157.368225643974
 30
158.692464054651
  0
VERTEX
  5
430
  8
DEFAULT
 10
-79.11645905134172
 20
157.3474701963398
 30
158.692464054651
  0
VERTEX
  5
431
  8
DEFAULT
 10
-79.13668709117816
 20
157.3263344059035
 30
158.692464054651
  0
VERTEX
  5
432
  8
DEFAULT
 10
-79.15650415798721
 20
157.3048299534059
 30
158.692464054651
  0
VERTEX
  5
433
  8
DEFAULT
 10
-79.17590031354871
 20
157.2829688930695
 30
158.692464054651
  0
VERTEX
  5
434
  8
DEFAULT
 10
-79.19486609280422
 20
157.2607636301985
 30
158.692464054651
  0
VERTEX
  5
435
  8
DEFAULT
 10
-79.21339251901989
 20
157.2382268979254
 30
158.692464054651
  0
VERTEX
  5
436
  8
DEFAULT
 10
-79.23147111757858
 20
157.2153717331936
 30
158.692464054651
  0
VERTEX
  5
437
  8
DEFAULT
 10
-79.24909392835842
 20
157.1922114520727
 30
158.692464054651
  0
VERTEX
  5
438
  8
DEFAULT
 10
-79.2662535166625
 20
157.1687596245003
 30
158.692464054651
  0
VERTEX
  5
439
  8
DEFAULT
 10
-79.28294298267069
 20
157.145030048551
 30
158.692464054651
  0
VERTEX
  5
43A
  8
DEFAULT
 10
-79.29915596939416
 20
157.1210367243303
 30
158.692464054651
  0
VERTEX
  5
43B
  8
DEFAULT
 10
-79.31488666911889
 20
157.0967938275962
 30
158.692464054651
  0
VERTEX
  5
43C
  8
DEFAULT
 10
-79.33012982833311
 20
157.0723156832075
 30
158.692464054651
  0
VERTEX
  5
43D
  8
DEFAULT
 10
-79.34488075114068
 20
157.0476167384987
 30
158.692464054651
  0
VERTEX
  5
43E
  8
DEFAULT
 10
-79.35913530117038
 20
157.0227115366808
 30
158.692464054651
  0
VERTEX
  5
43F
  8
DEFAULT
 10
-79.37288990199725
 20
156.9976146903648
 30
158.692464054651
  0
VERTEX
  5
440
  8
DEFAULT
 10
-79.38614153609991
 20
156.9723408553025
 30
158.692464054651
  0
VERTEX
  5
441
  8
DEFAULT
 10
-79.398887742384
 20
156.9469047044344
 30
158.692464054651
  0
VERTEX
  5
442
  8
DEFAULT
 10
-79.4111266123087
 20
156.9213209023344
 30
158.692464054651
  0
VERTEX
  5
443
  8
DEFAULT
 10
-79.42285678465778
 20
156.895604080137
 30
158.692464054651
  0
VERTEX
  5
444
  8
DEFAULT
 10
-79.50155193753056
 20
156.7091977545089
 30
158.692464054651
  0
VERTEX
  5
445
  8
DEFAULT
 10
-79.51801743597959
 20
156.6737568266364
 30
158.692464054651
  0
VERTEX
  5
446
  8
DEFAULT
 10
-79.5265429334655
 20
156.6564497944218
 30
158.692464054651
  0
VERTEX
  5
447
  8
DEFAULT
 10
-79.53529484855103
 20
156.6394485867586
 30
158.692464054651
  0
VERTEX
  5
448
  8
DEFAULT
 10
-79.54429410856922
 20
156.6227739647588
 30
158.692464054651
  0
VERTEX
  5
449
  8
DEFAULT
 10
-79.55355969954752
 20
156.6064452066902
 30
158.692464054651
  0
VERTEX
  5
44A
  8
DEFAULT
 10
-79.56310872294384
 20
156.5904801332325
 30
158.692464054651
  0
VERTEX
  5
44B
  8
DEFAULT
 10
-79.5729564523826
 20
156.574895132734
 30
158.692464054651
  0
VERTEX
  5
44C
  8
DEFAULT
 10
-79.58311639039066
 20
156.5597051864682
 30
158.692464054651
  0
VERTEX
  5
44D
  8
DEFAULT
 10
-79.59360032513341
 20
156.54492389389
 30
158.692464054651
  0
VERTEX
  5
44E
  8
DEFAULT
 10
-79.60441838715082
 20
156.5305634978924
 30
158.692464054651
  0
VERTEX
  5
44F
  8
DEFAULT
 10
-79.61557910609336
 20
156.5166349100634
 30
158.692464054651
  0
VERTEX
  5
450
  8
DEFAULT
 10
-79.62708946745813
 20
156.5031477359419
 30
158.692464054651
  0
VERTEX
  5
451
  8
DEFAULT
 10
-79.6389549693248
 20
156.4901103002744
 30
158.692464054651
  0
VERTEX
  5
452
  8
DEFAULT
 10
-79.6511796790917
 20
156.4775296722719
 30
158.692464054651
  0
VERTEX
  5
453
  8
DEFAULT
 10
-79.66376629021174
 20
156.4654116908661
 30
158.692464054651
  0
VERTEX
  5
454
  8
DEFAULT
 10
-79.67671617892856
 20
156.4537609899657
 30
158.692464054651
  0
VERTEX
  5
455
  8
DEFAULT
 10
-79.69002946101246
 20
156.4425810237136
 30
158.692464054651
  0
VERTEX
  5
456
  8
DEFAULT
 10
-79.70370504849639
 20
156.4318740917428
 30
158.692464054651
  0
VERTEX
  5
457
  8
DEFAULT
 10
-79.71774070641217
 20
156.4216413644332
 30
158.692464054651
  0
VERTEX
  5
458
  8
DEFAULT
 10
-79.7321331095262
 20
156.411882908168
 30
158.692464054651
  0
VERTEX
  5
459
  8
DEFAULT
 10
-79.74687789907578
 20
156.4025977105903
 30
158.692464054651
  0
VERTEX
  5
45A
  8
DEFAULT
 10
-79.76196973950496
 20
156.3937837058597
 30
158.692464054651
  0
VERTEX
  5
45B
  8
DEFAULT
 10
-79.77740237520054
 20
156.3854377999087
 30
158.692464054651
  0
VERTEX
  5
45C
  8
DEFAULT
 10
-79.79316868722826
 20
156.3775558956994
 30
158.692464054651
  0
VERTEX
  5
45D
  8
DEFAULT
 10
-79.80926075006863
 20
156.3701329184797
 30
158.692464054651
  0
VERTEX
  5
45E
  8
DEFAULT
 10
-79.82566988835305
 20
156.3631628410401
 30
158.692464054651
  0
VERTEX
  5
45F
  8
DEFAULT
 10
-79.84238673359988
 20
156.3566387089701
 30
158.692464054651
  0
VERTEX
  5
460
  8
DEFAULT
 10
-79.85940128095032
 20
156.3505526659149
 30
158.692464054651
  0
VERTEX
  5
461
  8
DEFAULT
 10
-79.87670294590457
 20
156.3448959788315
 30
158.692464054651
  0
VERTEX
  5
462
  8
DEFAULT
 10
-79.89428062105772
 20
156.339659063246
 30
158.692464054651
  0
VERTEX
  5
463
  8
DEFAULT
 10
-79.91212273283588
 20
156.3348315085092
 30
158.692464054651
  0
VERTEX
  5
464
  8
DEFAULT
 10
-79.9302172982322
 20
156.3304021030537
 30
158.692464054651
  0
VERTEX
  5
465
  8
DEFAULT
 10
-79.94855198154278
 20
156.3263588596504
 30
158.692464054651
  0
VERTEX
  5
466
  8
DEFAULT
 10
-79.96711415110278
 20
156.3226890406648
 30
158.692464054651
  0
VERTEX
  5
467
  8
DEFAULT
 10
-79.98589093602247
 20
156.3193791833136
 30
158.692464054651
  0
VERTEX
  5
468
  8
DEFAULT
 10
-80.00486928292317
 20
156.3164151249214
 30
158.692464054651
  0
VERTEX
  5
469
  8
DEFAULT
 10
-80.02403601267332
 20
156.3137820281768
 30
158.692464054651
  0
VERTEX
  5
46A
  8
DEFAULT
 10
-80.06288161584736
 20
156.3094461487468
 30
158.692464054651
  0
VERTEX
  5
46B
  8
DEFAULT
 10
-80.102321953403
 20
156.3062403135675
 30
158.692464054651
  0
VERTEX
  5
46C
  8
DEFAULT
 10
-80.14225285225774
 20
156.3040241134293
 30
158.692464054651
  0
VERTEX
  5
46D
  8
DEFAULT
 10
-80.18257357394072
 20
156.3026487695773
 30
158.692464054651
  0
VERTEX
  5
46E
  8
DEFAULT
 10
-80.34596180190039
 20
156.302332707545
 30
158.692464054651
  0
VERTEX
  5
46F
  8
DEFAULT
 10
-320.681693302579
 20
158.594218307881
 30
158.692464054651
 42
-0.4426396981507156
  0
SEQEND
  5
470
  8
DEFAULT
  0
POLYLINE
  5
471
  8
DEFAULT
 66
     1
 10
0.0
 20
0.0
 30
158.692464054651
 70
     1
  0
VERTEX
  5
472
  8
DEFAULT
 10
-327.566385448376
 20
128.5
 30
158.692464054651
  0
VERTEX
  5
473
  8
DEFAULT
 10
-327.566385448376
 20
116.5
 30
158.692464054651
  0
VERTEX
  5
474
  8
DEFAULT
 10
-73.40014327786999
 20
116.5
 30
158.692464054651
  0
VERTEX
  5
475
  8
DEFAULT
 10
-73.40014327786999
 20
128.5
 30
158.692464054651
  0
SEQEND
  5
476
  8
DEFAULT
  0
POLYLINE
  5
477
  8
DEFAULT
 66
     1
 10
0.0
 20
0.0
 30
158.692464054651
 70
     1
  0
VERTEX
  5
478
  8
DEFAULT
 10
327.861266266693
 20
128.5
 30
158.692464054651
  0
VERTEX
  5
479
  8
DEFAULT
 10
327.861266266693
 20
116.5
 30
158.692464054651
  0
VERTEX
  5
47A
  8
DEFAULT
 10
73.62729108631632
 20
116.5
 30
158.692464054651
  0
VERTEX
  5
47B
  8
DEFAULT
 10
73.62729108631632
 20
128.5
 30
158.692464054651
  0
SEQEND
  5
47C
  8
DEFAULT
  0
POLYLINE
  5
47D
  8
DEFAULT
 66
     1
 10
0.0
 20
0.0
 30
158.692464054651
 70
     1
  0
VERTEX
  5
47E
  8
DEFAULT
 10
-18.00000000000018
 20
-11.5
 30
158.692464054651
  0
VERTEX
  5
47F
  8
DEFAULT
 10
-18.00000000000018
 20
78.5
 30
158.692464054651
 42
0.4142135623730842
  0
VERTEX
  5
480
  8
DEFAULT
 10
-30.00000000000018
 20
90.49999999999999
 30
158.692464054651
  0
VERTEX
  5
481
  8
DEFAULT
 10
-372.0
 20
90.5
 30
158.692464054651
 42
0.4142135623730948
  0
VERTEX
  5
482
  8
DEFAULT
 10
-384.0
 20
78.5
 30
158.692464054651
  0
VERTEX
  5
483
  8
DEFAULT
 10
-384.0
 20
-11.5
 30
158.692464054651
 42
0.4142135623730945
  0
VERTEX
  5
484
  8
DEFAULT
 10
-372.0
 20
-23.49999999999994
 30
158.692464054651
  0
VERTEX
  5
485
  8
DEFAULT
 10
-30.00000000000018
 20
-23.5
 30
158.692464054651
 42
0.4142135623730894
  0
SEQEND
  5
486
  8
DEFAULT
  0
CIRCLE
  5
487
  8
DEFAULT
 10
28.54212772576819
 20
-12.50000000000011
 30
-158.692464054651
 40
3.049999999999905
210
0.0
220
0.0
230
-1.0
  0
CIRCLE
  5
488
  8
DEFAULT
 10
28.54212772576819
 20
79.49999999999989
 30
-158.692464054651
 40
3.049999999999905
210
0.0
220
0.0
230
-1.0
  0
CIRCLE
  5
489
  8
DEFAULT
 10
372.542127725768
 20
-12.50000000000011
 30
-158.692464054651
 40
3.050000000000011
210
0.0
220
0.0
230
-1.0
  0
CIRCLE
  5
48A
  8
DEFAULT
 10
372.542127725768
 20
79.49999999999977
 30
-158.692464054651
 40
3.049999999999955
210
0.0
220
0.0
230
-1.0
  0
POLYLINE
  5
48B
  8
DEFAULT
 66
     1
 10
0.0
 20
0.0
 30
158.692464054651
 70
     1
  0
VERTEX
  5
48C
  8
DEFAULT
 10
384.0
 20
-11.5
 30
158.692464054651
  0
VERTEX
  5
48D
  8
DEFAULT
 10
384.0
 20
78.5
 30
158.692464054651
 42
0.4142135623730959
  0
VERTEX
  5
48E
  8
DEFAULT
 10
372.0
 20
90.50000000000006
 30
158.692464054651
  0
VERTEX
  5
48F
  8
DEFAULT
 10
29.99999999999982
 20
90.5
 30
158.692464054651
 42
0.4142135623731035
  0
VERTEX
  5
490
  8
DEFAULT
 10
17.99999999999983
 20
78.50000000000003
 30
158.692464054651
  0
VERTEX
  5
491
  8
DEFAULT
 10
17.99999999999982
 20
-11.5
 30
158.692464054651
 42
0.414213562373101
  0
VERTEX
  5
492
  8
DEFAULT
 10
29.99999999999982
 20
-23.49999999999999
 30
158.692464054651
  0
VERTEX
  5
493
  8
DEFAULT
 10
372.0
 20
-23.49999999999999
 30
158.692464054651
 42
0.4142135623730829
  0
SEQEND
  5
494
  8
DEFAULT
  0
CIRCLE
  5
495
  8
DEFAULT
 10
-373.4578722742319
 20
-12.50000000000011
 30
-158.692464054651
 40
3.049999999999898
210
0.0
220
0.0
230
-1.0
  0
CIRCLE
  5
496
  8
DEFAULT
 10
-373.4578722742321
 20
79.49999999999966
 30
-158.692464054651
 40
3.050000000000068
210
0.0
220
0.0
230
-1.0
  0
CIRCLE
  5
497
  8
DEFAULT
 10
-29.4578722742319
 20
-12.50000000000011
 30
-158.692464054651
 40
3.050000000000011
210
0.0
220
0.0
230
-1.0
  0
CIRCLE
  5
498
  8
DEFAULT
 10
-29.45787227423187
 20
79.49999999999977
 30
-158.692464054651
 40
3.050000000000043
210
0.0
220
0.0
230
-1.0
  0
CIRCLE
  5
499
  8
DEFAULT
 10
-29.45787227423193
 20
-63.49999999999977
 30
-158.692464054651
 40
3.049999999999983
210
0.0
220
0.0
230
-1.0
  0
CIRCLE
  5
49A
  8
DEFAULT
 10
-29.45787227423193
 20
-155.5
 30
-158.692464054651
 40
3.049999999999983
210
0.0
220
0.0
230
-1.0
  0
CIRCLE
  5
49B
  8
DEFAULT
 10
-373.4578722742321
 20
-63.50000000000011
 30
-158.692464054651
 40
3.050000000000068
210
0.0
220
0.0
230
-1.0
  0
CIRCLE
  5
49C
  8
DEFAULT
 10
-373.4578722742321
 20
-155.5
 30
-158.692464054651
 40
3.050000000000125
210
0.0
220
0.0
230
-1.0
  0
POLYLINE
  5
49D
  8
DEFAULT
 66
     1
 10
0.0
 20
0.0
 30
158.692464054651
 70
     1
  0
VERTEX
  5
49E
  8
DEFAULT
 10
384.0
 20
-154.5
 30
158.692464054651
  0
VERTEX
  5
49F
  8
DEFAULT
 10
384.0
 20
-64.5
 30
158.692464054651
 42
0.4142135623730924
  0
VERTEX
  5
4A0
  8
DEFAULT
 10
371.9999999999999
 20
-52.50000000000002
 30
158.692464054651
  0
VERTEX
  5
4A1
  8
DEFAULT
 10
29.99999999999982
 20
-52.5
 30
158.692464054651
 42
0.4142135623730893
  0
VERTEX
  5
4A2
  8
DEFAULT
 10
17.99999999999971
 20
-64.5
 30
158.692464054651
  0
VERTEX
  5
4A3
  8
DEFAULT
 10
17.9999999999998
 20
-154.5
 30
158.692464054651
 42
0.4142135623731099
  0
VERTEX
  5
4A4
  8
DEFAULT
 10
29.99999999999982
 20
-166.5
 30
158.692464054651
  0
VERTEX
  5
4A5
  8
DEFAULT
 10
372.0
 20
-166.5
 30
158.692464054651
 42
0.4142135623730946
  0
SEQEND
  5
4A6
  8
DEFAULT
  0
CIRCLE
  5
4A7
  8
DEFAULT
 10
371.5421277257679
 20
-63.49999999999977
 30
-158.692464054651
 40
3.049999999999898
210
0.0
220
0.0
230
-1.0
  0
CIRCLE
  5
4A8
  8
DEFAULT
 10
371.542127725768
 20
-155.5
 30
-158.692464054651
 40
3.049999999999955
210
0.0
220
0.0
230
-1.0
  0
CIRCLE
  5
4A9
  8
DEFAULT
 10
27.5421277257683
 20
-63.5
 30
-158.692464054651
 40
3.049999999999791
210
0.0
220
0.0
230
-1.0
  0
CIRCLE
  5
4AA
  8
DEFAULT
 10
27.5421277257683
 20
-155.5000000000001
 30
-158.692464054651
 40
3.049999999999791
210
0.0
220
0.0
230
-1.0
  0
POLYLINE
  5
4AB
  8
DEFAULT
 66
     1
 10
0.0
 20
0.0
 30
158.692464054651
 70
     1
  0
VERTEX
  5
4AC
  8
DEFAULT
 10
-17.00000000000018
 20
-154.5
 30
158.692464054651
  0
VERTEX
  5
4AD
  8
DEFAULT
 10
-17.00000000000019
 20
-64.5
 30
158.692464054651
 42
0.4142135623730847
  0
VERTEX
  5
4AE
  8
DEFAULT
 10
-29.00000000000018
 20
-52.50000000000001
 30
158.692464054651
  0
VERTEX
  5
4AF
  8
DEFAULT
 10
-371.0
 20
-52.5
 30
158.692464054651
 42
0.4142135623731031
  0
VERTEX
  5
4B0
  8
DEFAULT
 10
-382.9999999999998
 20
-64.50000000000011
 30
158.692464054651
  0
VERTEX
  5
4B1
  8
DEFAULT
 10
-383.0
 20
-154.5
 30
158.692464054651
 42
0.4142135623731257
  0
VERTEX
  5
4B2
  8
DEFAULT
 10
-370.9999999999999
 20
-166.5
 30
158.692464054651
  0
VERTEX
  5
4B3
  8
DEFAULT
 10
-29.00000000000018
 20
-166.5
 30
158.692464054651
 42
0.4142135623730942
  0
SEQEND
  5
4B4
  8
DEFAULT
  0
CIRCLE
  5
4B5
  8
DEFAULT
 10
-28.54212772576739
 20
79.50000000000023
 30
158.692464054651
 40
8.000000000000302
  0
CIRCLE
  5
4B6
  8
DEFAULT
 10
29.45787227423252
 20
79.50000000000011
 30
158.692464054651
 40
8.000000000000384
  0
CIRCLE
  5
4B7
  8
DEFAULT
 10
-372.5421277257677
 20
79.50000000000011
 30
158.692464054651
 40
8.00000000000046
  0
CIRCLE
  5
4B8
  8
DEFAULT
 10
372.5421277257677
 20
-12.50000000000034
 30
-158.692464054651
 40
8.000000000000245
210
0.0
220
0.0
230
-1.0
  0
CIRCLE
  5
4B9
  8
DEFAULT
 10
-28.54212772576857
 20
-12.50000000000023
 30
158.692464054651
 40
8.00000000000027
  0
CIRCLE
  5
4BA
  8
DEFAULT
 10
373.4578722742316
 20
-12.49999999999989
 30
158.692464054651
 40
8.000000000000393
  0
CIRCLE
  5
4BB
  8
DEFAULT
 10
-373.4578722742317
 20
79.49999999999989
 30
-158.692464054651
 40
8.000000000000375
210
0.0
220
0.0
230
-1.0
  0
CIRCLE
  5
4BC
  8
DEFAULT
 10
-29.45787227423248
 20
-12.50000000000023
 30
-158.692464054651
 40
8.00000000000026
210
0.0
220
0.0
230
-1.0
  0
ENDSEC
  0
EOF
