  0
SECTION
  2
HEADER
  9
$ACADVER
  1
AC1009
  9
$DWGCODEPAGE
  3
ansi_1252
  9
$INSBASE
 10
0.0
 20
0.0
 30
0.0
  9
$EXTMIN
 10
-391.49547078821
 20
-804.0
 30
158.692464054651
  9
$EXTMAX
 10
376.50452921179
 20
-471.0
 30
158.692464054651
  9
$LIMMIN
 10
0.0
 20
0.0
  9
$LIMMAX
 10
12.0
 20
9.0
  9
$ORTHOMODE
 70
     0
  9
$REGENMODE
 70
     1
  9
$FILLMODE
 70
     1
  9
$QTEXTMODE
 70
     0
  9
$MIRRTEXT
 70
     1
  9
$DRAGMODE
 70
     2
  9
$LTSCALE
 40
1.0
  9
$OSMODE
 70
    37
  9
$ATTMODE
 70
     1
  9
$TEXTSIZE
 40
0.2
  9
$TRACEWID
 40
0.05
  9
$TEXTSTYLE
  7
STANDARD
  9
$CLAYER
  8
DEFAULT
  9
$CELTYPE
  6
BYLAYER
  9
$CECOLOR
 62
   256
  9
$DIMSCALE
 40
1.0
  9
$DIMASZ
 40
0.18
  9
$DIMEXO
 40
0.0625
  9
$DIMDLI
 40
0.38
  9
$DIMRND
 40
0.0
  9
$DIMDLE
 40
0.0
  9
$DIMEXE
 40
0.18
  9
$DIMTP
 40
0.0
  9
$DIMTM
 40
0.0
  9
$DIMTXT
 40
0.18
  9
$DIMCEN
 40
0.09
  9
$DIMTSZ
 40
0.0
  9
$DIMTOL
 70
     0
  9
$DIMLIM
 70
     0
  9
$DIMTIH
 70
     1
  9
$DIMTOH
 70
     1
  9
$DIMSE1
 70
     0
  9
$DIMSE2
 70
     0
  9
$DIMTAD
 70
     0
  9
$DIMZIN
 70
     0
  9
$DIMBLK
  1

  9
$DIMASO
 70
     1
  9
$DIMSHO
 70
     1
  9
$DIMPOST
  1

  9
$DIMAPOST
  1

  9
$DIMALT
 70
     0
  9
$DIMALTD
 70
     2
  9
$DIMALTF
 40
25.4
  9
$DIMLFAC
 40
1.0
  9
$DIMTOFL
 70
     0
  9
$DIMTVP
 40
0.0
  9
$DIMTIX
 70
     0
  9
$DIMSOXD
 70
     0
  9
$DIMSAH
 70
     0
  9
$DIMBLK1
  1

  9
$DIMBLK2
  1

  9
$DIMSTYLE
  2
STANDARD_ACAD
  9
$DIMCLRD
 70
     0
  9
$DIMCLRE
 70
     0
  9
$DIMCLRT
 70
     0
  9
$DIMTFAC
 40
1.0
  9
$DIMGAP
 40
0.09
  9
$LUNITS
 70
     2
  9
$LUPREC
 70
     3
  9
$SKETCHINC
 40
0.1
  9
$FILLETRAD
 40
0.0
  9
$AUNITS
 70
     0
  9
$AUPREC
 70
     0
  9
$MENU
  1
.
  9
$ELEVATION
 40
0.0
  9
$PELEVATION
 40
0.0
  9
$THICKNESS
 40
0.0
  9
$LIMCHECK
 70
     0
  9
$CHAMFERA
 40
0.0
  9
$CHAMFERB
 40
0.0
  9
$SKPOLY
 70
     0
  9
$TDCREATE
 40
2461028.812881643
  9
$TDUPDATE
 40
2461028.812892454
  9
$TDINDWG
 40
0.0000000116
  9
$TDUSRTIMER
 40
0.0000000116
  9
$USRTIMER
 70
     1
  9
$ANGBASE
 50
0.0
  9
$ANGDIR
 70
     0
  9
$PDMODE
 70
     0
  9
$PDSIZE
 40
0.0
  9
$PLINEWID
 40
0.0
  9
$COORDS
 70
     1
  9
$SPLFRAME
 70
     0
  9
$SPLINETYPE
 70
     6
  9
$SPLINESEGS
 70
     8
  9
$ATTDIA
 70
     0
  9
$ATTREQ
 70
     1
  9
$HANDLING
 70
     1
  9
$HANDSEED
  5
4C0
  9
$SURFTAB1
 70
     6
  9
$SURFTAB2
 70
     6
  9
$SURFTYPE
 70
     6
  9
$SURFU
 70
     6
  9
$SURFV
 70
     6
  9
$UCSNAME
  2

  9
$UCSORG
 10
0.0
 20
0.0
 30
0.0
  9
$UCSXDIR
 10
1.0
 20
0.0
 30
0.0
  9
$UCSYDIR
 10
0.0
 20
1.0
 30
0.0
  9
$PUCSNAME
  2

  9
$PUCSORG
 10
0.0
 20
0.0
 30
0.0
  9
$PUCSXDIR
 10
1.0
 20
0.0
 30
0.0
  9
$PUCSYDIR
 10
0.0
 20
1.0
 30
0.0
  9
$USERI1
 70
     0
  9
$USERI2
 70
     0
  9
$USERI3
 70
     0
  9
$USERI4
 70
     0
  9
$USERI5
 70
     0
  9
$USERR1
 40
0.0
  9
$USERR2
 40
0.0
  9
$USERR3
 40
0.0
  9
$USERR4
 40
0.0
  9
$USERR5
 40
0.0
  9
$WORLDVIEW
 70
     1
  9
$SHADEDGE
 70
     3
  9
$SHADEDIF
 70
    70
  9
$TILEMODE
 70
     1
  9
$MAXACTVP
 70
    64
  9
$PLIMCHECK
 70
     0
  9
$PEXTMIN
 10
1.000000000000000E+20
 20
1.000000000000000E+20
 30
1.000000000000000E+20
  9
$PEXTMAX
 10
-1.000000000000000E+20
 20
-1.000000000000000E+20
 30
-1.000000000000000E+20
  9
$PLIMMIN
 10
0.0
 20
0.0
  9
$PLIMMAX
 10
12.0
 20
9.0
  9
$UNITMODE
 70
     0
  9
$VISRETAIN
 70
     1
  9
$PLINEGEN
 70
     0
  9
$PSLTSCALE
 70
     1
  0
ENDSEC
  0
SECTION
  2
TABLES
  0
TABLE
  2
VPORT
 70
     1
  0
VPORT
  2
*ACTIVE
 70
     0
 10
0.0
 20
0.0
 11
1.0
 21
1.0
 12
10.42990654205607
 22
4.5
 13
0.0
 23
0.0
 14
0.5
 24
0.5
 15
0.5
 25
0.5
 16
0.0
 26
0.0
 36
1.0
 17
0.0
 27
0.0
 37
0.0
 40
9.0
 41
1.972972972850329
 42
50.0
 43
0.0
 44
0.0
 50
0.0
 51
0.0
 71
     0
 72
   100
 73
     1
 74
     3
 75
     0
 76
     0
 77
     0
 78
     0
  0
ENDTAB
  0
TABLE
  2
LTYPE
 70
     1
  0
LTYPE
  2
CONTINUOUS
 70
     0
  3
Solid line
 72
    65
 73
     0
 40
0.0
  0
ENDTAB
  0
TABLE
  2
LAYER
 70
     2
  0
LAYER
  2
0
 70
     0
 62
     7
  6
CONTINUOUS
  0
LAYER
  2
DEFAULT
 70
     0
 62
     7
  6
CONTINUOUS
  0
ENDTAB
  0
TABLE
  2
STYLE
 70
     1
  0
STYLE
  2
STANDARD
 70
     0
 40
0.0
 41
1.0
 50
0.0
 71
     0
 42
0.2
  3
txt
  4

  0
ENDTAB
  0
TABLE
  2
VIEW
 70
     0
  0
ENDTAB
  0
TABLE
  2
UCS
 70
     0
  0
ENDTAB
  0
TABLE
  2
APPID
 70
     2
  0
APPID
  2
ACAD
 70
     0
  0
APPID
  2
RHINO
 70
     0
  0
ENDTAB
  0
TABLE
  2
DIMSTYLE
 70
     1
  0
DIMSTYLE
  2
STANDARD_ACAD
 70
     0
  3

  4

  5

  6

  7

 40
1.0
 41
0.18
 42
0.0625
 43
0.38
 44
0.18
 45
0.0
 46
0.0
 47
0.0
 48
0.0
140
0.18
141
0.09
142
0.0
143
25.4
144
1.0
145
0.0
146
1.0
147
0.09
 71
     0
 72
     0
 73
     1
 74
     1
 75
     0
 76
     0
 77
     0
 78
     0
170
     0
171
     2
172
     0
173
     0
174
     0
175
     0
176
     0
177
     0
178
     0
  0
ENDTAB
  0
ENDSEC
  0
SECTION
  2
BLOCKS
  0
BLOCK
  8
0
  2
$MODEL_SPACE
 70
     0
 10
0.0
 20
0.0
 30
0.0
  3
$MODEL_SPACE
  1

  0
ENDBLK
  5
21
  8
0
  0
BLOCK
 67
     1
  8
0
  2
$PAPER_SPACE
 70
     0
 10
0.0
 20
0.0
 30
0.0
  3
$PAPER_SPACE
  1

  0
ENDBLK
  5
1D
 67
     1
  8
0
  0
ENDSEC
  0
SECTION
  2
ENTITIES
  0
CIRCLE
  5
60
  8
DEFAULT
 10
-21.96240148602246
 20
-650.0000000000002
 30
-158.692464054651
 40
8.00000000000026
210
0.0
220
0.0
230
-1.0
  0
CIRCLE
  5
61
  8
DEFAULT
 10
-365.9624014860217
 20
-558.0000000000001
 30
-158.692464054651
 40
8.000000000000375
210
0.0
220
0.0
230
-1.0
  0
CIRCLE
  5
62
  8
DEFAULT
 10
365.9624014860216
 20
-649.9999999999999
 30
158.692464054651
 40
8.000000000000393
  0
CIRCLE
  5
63
  8
DEFAULT
 10
-36.03759851397859
 20
-650.0000000000002
 30
158.692464054651
 40
8.00000000000027
  0
CIRCLE
  5
64
  8
DEFAULT
 10
380.0375985139777
 20
-650.0000000000003
 30
-158.692464054651
 40
8.000000000000245
210
0.0
220
0.0
230
-1.0
  0
CIRCLE
  5
65
  8
DEFAULT
 10
-380.0375985139777
 20
-557.9999999999999
 30
158.692464054651
 40
8.00000000000046
  0
CIRCLE
  5
66
  8
DEFAULT
 10
21.96240148602251
 20
-557.9999999999999
 30
158.692464054651
 40
8.000000000000384
  0
CIRCLE
  5
67
  8
DEFAULT
 10
-36.0375985139774
 20
-557.9999999999998
 30
158.692464054651
 40
8.000000000000302
  0
POLYLINE
  5
68
  8
DEFAULT
 66
     1
 10
0.0
 20
0.0
 30
158.692464054651
 70
     1
  0
VERTEX
  5
69
  8
DEFAULT
 10
-24.4954707882102
 20
-792.0
 30
158.692464054651
  0
VERTEX
  5
6A
  8
DEFAULT
 10
-24.4954707882102
 20
-702.0
 30
158.692464054651
 42
0.4142135623730844
  0
VERTEX
  5
6B
  8
DEFAULT
 10
-36.4954707882102
 20
-690.0
 30
158.692464054651
  0
VERTEX
  5
6C
  8
DEFAULT
 10
-378.49547078821
 20
-690.0
 30
158.692464054651
 42
0.4142135623731033
  0
VERTEX
  5
6D
  8
DEFAULT
 10
-390.4954707882098
 20
-702.0000000000001
 30
158.692464054651
  0
VERTEX
  5
6E
  8
DEFAULT
 10
-390.49547078821
 20
-792.0
 30
158.692464054651
 42
0.414213562373121
  0
VERTEX
  5
6F
  8
DEFAULT
 10
-378.49547078821
 20
-804.0
 30
158.692464054651
  0
VERTEX
  5
70
  8
DEFAULT
 10
-36.4954707882102
 20
-804.0
 30
158.692464054651
 42
0.4142135623730906
  0
SEQEND
  5
71
  8
DEFAULT
  0
CIRCLE
  5
72
  8
DEFAULT
 10
35.03759851397831
 20
-793.0000000000001
 30
-158.692464054651
 40
3.049999999999791
210
0.0
220
0.0
230
-1.0
  0
CIRCLE
  5
73
  8
DEFAULT
 10
35.03759851397831
 20
-701.0
 30
-158.692464054651
 40
3.049999999999791
210
0.0
220
0.0
230
-1.0
  0
CIRCLE
  5
74
  8
DEFAULT
 10
379.037598513978
 20
-793.0
 30
-158.692464054651
 40
3.049999999999955
210
0.0
220
0.0
230
-1.0
  0
CIRCLE
  5
75
  8
DEFAULT
 10
379.0375985139779
 20
-700.9999999999998
 30
-158.692464054651
 40
3.049999999999898
210
0.0
220
0.0
230
-1.0
  0
POLYLINE
  5
76
  8
DEFAULT
 66
     1
 10
0.0
 20
0.0
 30
158.692464054651
 70
     1
  0
VERTEX
  5
77
  8
DEFAULT
 10
376.50452921179
 20
-792.0
 30
158.692464054651
  0
VERTEX
  5
78
  8
DEFAULT
 10
376.50452921179
 20
-702.0
 30
158.692464054651
 42
0.4142135623730906
  0
VERTEX
  5
79
  8
DEFAULT
 10
364.50452921179
 20
-690.0
 30
158.692464054651
  0
VERTEX
  5
7A
  8
DEFAULT
 10
22.5045292117898
 20
-690.0
 30
158.692464054651
 42
0.4142135623730915
  0
VERTEX
  5
7B
  8
DEFAULT
 10
10.5045292117897
 20
-702.0
 30
158.692464054651
  0
VERTEX
  5
7C
  8
DEFAULT
 10
10.5045292117898
 20
-792.0
 30
158.692464054651
 42
0.41421356237311
  0
VERTEX
  5
7D
  8
DEFAULT
 10
22.5045292117898
 20
-804.0
 30
158.692464054651
  0
VERTEX
  5
7E
  8
DEFAULT
 10
364.50452921179
 20
-804.0
 30
158.692464054651
 42
0.4142135623730946
  0
SEQEND
  5
7F
  8
DEFAULT
  0
CIRCLE
  5
80
  8
DEFAULT
 10
-365.9624014860221
 20
-793.0
 30
-158.692464054651
 40
3.050000000000125
210
0.0
220
0.0
230
-1.0
  0
CIRCLE
  5
81
  8
DEFAULT
 10
-365.9624014860221
 20
-701.0000000000001
 30
-158.692464054651
 40
3.050000000000068
210
0.0
220
0.0
230
-1.0
  0
CIRCLE
  5
82
  8
DEFAULT
 10
-21.96240148602192
 20
-793.0
 30
-158.692464054651
 40
3.049999999999983
210
0.0
220
0.0
230
-1.0
  0
CIRCLE
  5
83
  8
DEFAULT
 10
-21.96240148602192
 20
-700.9999999999998
 30
-158.692464054651
 40
3.049999999999983
210
0.0
220
0.0
230
-1.0
  0
CIRCLE
  5
84
  8
DEFAULT
 10
-21.96240148602186
 20
-558.0000000000002
 30
-158.692464054651
 40
3.050000000000043
210
0.0
220
0.0
230
-1.0
  0
CIRCLE
  5
85
  8
DEFAULT
 10
-21.96240148602189
 20
-650.0000000000001
 30
-158.692464054651
 40
3.050000000000011
210
0.0
220
0.0
230
-1.0
  0
CIRCLE
  5
86
  8
DEFAULT
 10
-365.9624014860221
 20
-558.0000000000003
 30
-158.692464054651
 40
3.050000000000068
210
0.0
220
0.0
230
-1.0
  0
CIRCLE
  5
87
  8
DEFAULT
 10
-365.9624014860219
 20
-650.0000000000001
 30
-158.692464054651
 40
3.049999999999898
210
0.0
220
0.0
230
-1.0
  0
POLYLINE
  5
88
  8
DEFAULT
 66
     1
 10
0.0
 20
0.0
 30
158.692464054651
 70
     1
  0
VERTEX
  5
89
  8
DEFAULT
 10
376.50452921179
 20
-649.0
 30
158.692464054651
  0
VERTEX
  5
8A
  8
DEFAULT
 10
376.50452921179
 20
-559.0
 30
158.692464054651
 42
0.4142135623730868
  0
VERTEX
  5
8B
  8
DEFAULT
 10
364.50452921179
 20
-547.0
 30
158.692464054651
  0
VERTEX
  5
8C
  8
DEFAULT
 10
22.5045292117898
 20
-547.0
 30
158.692464054651
 42
0.4142135623730988
  0
VERTEX
  5
8D
  8
DEFAULT
 10
10.50452921178982
 20
-559.0
 30
158.692464054651
  0
VERTEX
  5
8E
  8
DEFAULT
 10
10.5045292117898
 20
-649.0
 30
158.692464054651
 42
0.4142135623731013
  0
VERTEX
  5
8F
  8
DEFAULT
 10
22.5045292117898
 20
-661.0
 30
158.692464054651
  0
VERTEX
  5
90
  8
DEFAULT
 10
364.50452921179
 20
-661.0
 30
158.692464054651
 42
0.4142135623730829
  0
SEQEND
  5
91
  8
DEFAULT
  0
POLYLINE
  5
92
  8
DEFAULT
 66
     1
 10
0.0
 20
0.0
 30
158.692464054651
 70
     1
  0
VERTEX
  5
93
  8
DEFAULT
 10
65.1740955869851
 20
-610.0
 30
158.692464054651
 42
-0.9999999999999815
  0
VERTEX
  5
94
  8
DEFAULT
 10
59.07409558698522
 20
-610.0
 30
158.692464054651
  0
VERTEX
  5
95
  8
DEFAULT
 10
59.074095586985
 20
-598.0
 30
158.692464054651
 42
-1.000000000000038
  0
VERTEX
  5
96
  8
DEFAULT
 10
65.17409558698509
 20
-598.0
 30
158.692464054651
  0
VERTEX
  5
97
  8
DEFAULT
 10
181.004532767731
 20
-598.0
 30
158.692464054651
 42
-1.000000000000015
  0
VERTEX
  5
98
  8
DEFAULT
 10
206.004532767731
 20
-598.0
 30
158.692464054651
  0
VERTEX
  5
99
  8
DEFAULT
 10
321.16297741376
 20
-598.0
 30
158.692464054651
 42
-0.9999999999998789
  0
VERTEX
  5
9A
  8
DEFAULT
 10
327.262977413761
 20
-598.0
 30
158.692464054651
  0
VERTEX
  5
9B
  8
DEFAULT
 10
327.262977413761
 20
-610.0
 30
158.692464054651
 42
-0.9999999999999719
  0
VERTEX
  5
9C
  8
DEFAULT
 10
321.162977413761
 20
-610.0
 30
158.692464054651
  0
VERTEX
  5
9D
  8
DEFAULT
 10
206.004532767731
 20
-610.0
 30
158.692464054651
 42
-0.9999999999999999
  0
VERTEX
  5
9E
  8
DEFAULT
 10
181.004532767731
 20
-610.0
 30
158.692464054651
  0
SEQEND
  5
9F
  8
DEFAULT
  0
CIRCLE
  5
A0
  8
DEFAULT
 10
380.037598513978
 20
-558.0000000000002
 30
-158.692464054651
 40
3.049999999999955
210
0.0
220
0.0
230
-1.0
  0
CIRCLE
  5
A1
  8
DEFAULT
 10
380.037598513978
 20
-650.0000000000001
 30
-158.692464054651
 40
3.050000000000011
210
0.0
220
0.0
230
-1.0
  0
CIRCLE
  5
A2
  8
DEFAULT
 10
36.0375985139782
 20
-558.0000000000001
 30
-158.692464054651
 40
3.049999999999905
210
0.0
220
0.0
230
-1.0
  0
CIRCLE
  5
A3
  8
DEFAULT
 10
36.0375985139782
 20
-650.0000000000001
 30
-158.692464054651
 40
3.049999999999905
210
0.0
220
0.0
230
-1.0
  0
POLYLINE
  5
A4
  8
DEFAULT
 66
     1
 10
0.0
 20
0.0
 30
158.692464054651
 70
     1
  0
VERTEX
  5
A5
  8
DEFAULT
 10
-25.4954707882102
 20
-649.0
 30
158.692464054651
  0
VERTEX
  5
A6
  8
DEFAULT
 10
-25.4954707882102
 20
-559.0
 30
158.692464054651
 42
0.4142135623730844
  0
VERTEX
  5
A7
  8
DEFAULT
 10
-37.4954707882102
 20
-547.0
 30
158.692464054651
  0
VERTEX
  5
A8
  8
DEFAULT
 10
-379.49547078821
 20
-547.0
 30
158.692464054651
 42
0.4142135623730946
  0
VERTEX
  5
A9
  8
DEFAULT
 10
-391.49547078821
 20
-559.0
 30
158.692464054651
  0
VERTEX
  5
AA
  8
DEFAULT
 10
-391.49547078821
 20
-649.0
 30
158.692464054651
 42
0.4142135623730952
  0
VERTEX
  5
AB
  8
DEFAULT
 10
-379.49547078821
 20
-660.9999999999999
 30
158.692464054651
  0
VERTEX
  5
AC
  8
DEFAULT
 10
-37.4954707882102
 20
-661.0
 30
158.692464054651
 42
0.4142135623730885
  0
SEQEND
  5
AD
  8
DEFAULT
  0
POLYLINE
  5
AE
  8
DEFAULT
 66
     1
 10
0.0
 20
0.0
 30
158.692464054651
 70
     1
  0
VERTEX
  5
AF
  8
DEFAULT
 10
-336.825904413015
 20
-610.0
 30
158.692464054651
 42
-0.9999999999999906
  0
VERTEX
  5
B0
  8
DEFAULT
 10
-342.925904413015
 20
-610.0
 30
158.692464054651
  0
VERTEX
  5
B1
  8
DEFAULT
 10
-342.925904413015
 20
-598.0
 30
158.692464054651
 42
-1.000000000000037
  0
VERTEX
  5
B2
  8
DEFAULT
 10
-336.8259044130149
 20
-598.0
 30
158.692464054651
  0
VERTEX
  5
B3
  8
DEFAULT
 10
-220.995467232269
 20
-598.0
 30
158.692464054651
 42
-1.000000000000012
  0
VERTEX
  5
B4
  8
DEFAULT
 10
-195.9954672322689
 20
-598.0
 30
158.692464054651
  0
VERTEX
  5
B5
  8
DEFAULT
 10
-80.8370225862395
 20
-598.0
 30
158.692464054651
 42
-0.9999999999999815
  0
VERTEX
  5
B6
  8
DEFAULT
 10
-74.73702258623942
 20
-598.0
 30
158.692464054651
  0
VERTEX
  5
B7
  8
DEFAULT
 10
-74.7370225862393
 20
-610.0
 30
158.692464054651
 42
-0.9999999999999255
  0
VERTEX
  5
B8
  8
DEFAULT
 10
-80.83702258623916
 20
-610.0
 30
158.692464054651
  0
VERTEX
  5
B9
  8
DEFAULT
 10
-195.995467232269
 20
-610.0
 30
158.692464054651
 42
-0.9999999999999952
  0
VERTEX
  5
BA
  8
DEFAULT
 10
-220.9954672322688
 20
-610.0
 30
158.692464054651
  0
SEQEND
  5
BB
  8
DEFAULT
  0
POLYLINE
  5
BC
  8
DEFAULT
 66
     1
 10
0.0
 20
0.0
 30
158.692464054651
 70
     1
  0
VERTEX
  5
BD
  8
DEFAULT
 10
320.365795478483
 20
-509.0
 30
158.692464054651
  0
VERTEX
  5
BE
  8
DEFAULT
 10
320.365795478483
 20
-521.0
 30
158.692464054651
  0
VERTEX
  5
BF
  8
DEFAULT
 10
317.365795478483
 20
-521.0
 30
158.692464054651
  0
VERTEX
  5
C0
  8
DEFAULT
 10
69.1318202981063
 20
-521.0
 30
158.692464054651
  0
VERTEX
  5
C1
  8
DEFAULT
 10
66.1318202981063
 20
-521.0
 30
158.692464054651
  0
VERTEX
  5
C2
  8
DEFAULT
 10
66.1318202981063
 20
-509.0
 30
158.692464054651
  0
VERTEX
  5
C3
  8
DEFAULT
 10
69.1318202981063
 20
-509.0
 30
158.692464054651
  0
VERTEX
  5
C4
  8
DEFAULT
 10
317.365795478483
 20
-509.0
 30
158.692464054651
  0
SEQEND
  5
C5
  8
DEFAULT
  0
POLYLINE
  5
C6
  8
DEFAULT
 66
     1
 10
0.0
 20
0.0
 30
158.692464054651
 70
     1
  0
VERTEX
  5
C7
  8
DEFAULT
 10
-335.061856236586
 20
-509.0
 30
158.692464054651
  0
VERTEX
  5
C8
  8
DEFAULT
 10
-335.061856236586
 20
-521.0
 30
158.692464054651
  0
VERTEX
  5
C9
  8
DEFAULT
 10
-80.89561406608
 20
-521.0
 30
158.692464054651
  0
VERTEX
  5
CA
  8
DEFAULT
 10
-80.89561406608
 20
-509.0
 30
158.692464054651
  0
SEQEND
  5
CB
  8
DEFAULT
  0
POLYLINE
  5
CC
  8
DEFAULT
 66
     1
 10
0.0
 20
0.0
 30
158.692464054651
 70
     1
  0
VERTEX
  5
CD
  8
DEFAULT
 10
-329.093525426793
 20
-478.283603000088
 30
158.692464054651
 42
0.8229011825503685
  0
VERTEX
  5
CE
  8
DEFAULT
 10
-332.0786659097452
 20
-478.869155554682
 30
158.692464054651
  0
VERTEX
  5
CF
  8
DEFAULT
 10
-332.078665909745
 20
-487.0
 30
158.692464054651
  0
VERTEX
  5
D0
  8
DEFAULT
 10
-332.0796119546669
 20
-487.2490539550781
 30
158.692464054651
  0
VERTEX
  5
D1
  8
DEFAULT
 10
-332.0859901284952
 20
-487.49267578125
 30
158.692464054651
  0
VERTEX
  5
D2
  8
DEFAULT
 10
-332.0927326059121
 20
-487.610933303833
 30
158.692464054651
  0
VERTEX
  5
D3
  8
DEFAULT
 10
-332.1025611734171
 20
-487.7261047363281
 30
158.692464054651
  0
VERTEX
  5
D4
  8
DEFAULT
 10
-332.1087847327967
 20
-487.7823811769485
 30
158.692464054651
  0
VERTEX
  5
D5
  8
DEFAULT
 10
-332.1159564828654
 20
-487.8377094268799
 30
158.692464054651
  0
VERTEX
  5
D6
  8
DEFAULT
 10
-332.1241293525477
 20
-487.8920365571976
 30
158.692464054651
  0
VERTEX
  5
D7
  8
DEFAULT
 10
-332.1333534097453
 20
-487.9453125
 30
158.692464054651
  0
VERTEX
  5
D8
  8
DEFAULT
 10
-332.1436758613369
 20
-487.9974900484085
 30
158.692464054651
  0
VERTEX
  5
D9
  8
DEFAULT
 10
-332.155141053178
 20
-488.0485248565674
 30
158.692464054651
  0
VERTEX
  5
DA
  8
DEFAULT
 10
-332.1677904701015
 20
-488.0983754396439
 30
158.692464054651
  0
VERTEX
  5
DB
  8
DEFAULT
 10
-332.1816627359173
 20
-488.1470031738281
 30
158.692464054651
  0
VERTEX
  5
DC
  8
DEFAULT
 10
-332.1967936134121
 20
-488.1943722963333
 30
158.692464054651
  0
VERTEX
  5
DD
  8
DEFAULT
 10
-332.2132160043499
 20
-488.2404499053955
 30
158.692464054651
  0
VERTEX
  5
DE
  8
DEFAULT
 10
-332.2219210168502
 20
-488.2629948928952
 30
158.692464054651
  0
VERTEX
  5
DF
  8
DEFAULT
 10
-332.2309599494717
 20
-488.2852059602737
 30
158.692464054651
  0
VERTEX
  5
E0
  8
DEFAULT
 10
-332.2403361102721
 20
-488.3070797994733
 30
158.692464054651
  0
VERTEX
  5
E1
  8
DEFAULT
 10
-332.2500526284954
 20
-488.32861328125
 30
158.692464054651
  0
VERTEX
  5
E2
  8
DEFAULT
 10
-332.2601124545715
 20
-488.349803455174
 30
158.692464054651
  0
VERTEX
  5
E3
  8
DEFAULT
 10
-332.2705183601163
 20
-488.3706475496292
 30
158.692464054651
  0
VERTEX
  5
E4
  8
DEFAULT
 10
-332.2812729379318
 20
-488.3911429718137
 30
158.692464054651
  0
VERTEX
  5
E5
  8
DEFAULT
 10
-332.2923786020062
 20
-488.4112873077393
 30
158.692464054651
  0
VERTEX
  5
E6
  8
DEFAULT
 10
-332.3038375875137
 20
-488.4310783222318
 30
158.692464054651
  0
VERTEX
  5
E7
  8
DEFAULT
 10
-332.3156519508145
 20
-488.450513958931
 30
158.692464054651
  0
VERTEX
  5
E8
  8
DEFAULT
 10
-332.3278235694549
 20
-488.4695923402905
 30
158.692464054651
  0
VERTEX
  5
E9
  8
DEFAULT
 10
-332.3403541421674
 20
-488.4883117675781
 30
158.692464054651
  0
VERTEX
  5
EA
  8
DEFAULT
 10
-332.3532451888702
 20
-488.5066707208753
 30
158.692464054651
  0
VERTEX
  5
EB
  8
DEFAULT
 10
-332.366498050668
 20
-488.5246678590775
 30
158.692464054651
  0
VERTEX
  5
EC
  8
DEFAULT
 10
-332.3801138898514
 20
-488.5423020198941
 30
158.692464054651
  0
VERTEX
  5
ED
  8
DEFAULT
 10
-332.3940936898969
 20
-488.5595722198486
 30
158.692464054651
  0
VERTEX
  5
EE
  8
DEFAULT
 10
-332.4084382554672
 20
-488.5764776542783
 30
158.692464054651
  0
VERTEX
  5
EF
  8
DEFAULT
 10
-332.4231482124112
 20
-488.5930176973343
 30
158.692464054651
  0
VERTEX
  5
F0
  8
DEFAULT
 10
-332.4382240077637
 20
-488.6091919019818
 30
158.692464054651
  0
VERTEX
  5
F1
  8
DEFAULT
 10
-332.4536659097455
 20
-488.625
 30
158.692464054651
  0
VERTEX
  5
F2
  8
DEFAULT
 10
-332.4694740077637
 20
-488.6404419019818
 30
158.692464054651
  0
VERTEX
  5
F3
  8
DEFAULT
 10
-332.4856482124112
 20
-488.6555176973343
 30
158.692464054651
  0
VERTEX
  5
F4
  8
DEFAULT
 10
-332.5021882554672
 20
-488.6702276542783
 30
158.692464054651
  0
VERTEX
  5
F5
  8
DEFAULT
 10
-332.5190936898969
 20
-488.6845722198486
 30
158.692464054651
  0
VERTEX
  5
F6
  8
DEFAULT
 10
-332.5363638898514
 20
-488.6985520198941
 30
158.692464054651
  0
VERTEX
  5
F7
  8
DEFAULT
 10
-332.553998050668
 20
-488.7121678590775
 30
158.692464054651
  0
VERTEX
  5
F8
  8
DEFAULT
 10
-332.5719951888702
 20
-488.7254207208753
 30
158.692464054651
  0
VERTEX
  5
F9
  8
DEFAULT
 10
-332.5903541421674
 20
-488.7383117675781
 30
158.692464054651
  0
VERTEX
  5
FA
  8
DEFAULT
 10
-332.6090735694549
 20
-488.7508423402905
 30
158.692464054651
  0
VERTEX
  5
FB
  8
DEFAULT
 10
-332.6281519508145
 20
-488.763013958931
 30
158.692464054651
  0
VERTEX
  5
FC
  8
DEFAULT
 10
-332.6475875875137
 20
-488.7748283222318
 30
158.692464054651
  0
VERTEX
  5
FD
  8
DEFAULT
 10
-332.6673786020062
 20
-488.7862873077393
 30
158.692464054651
  0
VERTEX
  5
FE
  8
DEFAULT
 10
-332.6875229379318
 20
-488.7973929718137
 30
158.692464054651
  0
VERTEX
  5
FF
  8
DEFAULT
 10
-332.7080183601163
 20
-488.8081475496292
 30
158.692464054651
  0
VERTEX
  5
100
  8
DEFAULT
 10
-332.7288624545715
 20
-488.818553455174
 30
158.692464054651
  0
VERTEX
  5
101
  8
DEFAULT
 10
-332.7500526284955
 20
-488.82861328125
 30
158.692464054651
  0
VERTEX
  5
102
  8
DEFAULT
 10
-332.7715861102722
 20
-488.8383297994733
 30
158.692464054651
  0
VERTEX
  5
103
  8
DEFAULT
 10
-332.7934599494718
 20
-488.8477059602737
 30
158.692464054651
  0
VERTEX
  5
104
  8
DEFAULT
 10
-332.8156710168503
 20
-488.8567448928952
 30
158.692464054651
  0
VERTEX
  5
105
  8
DEFAULT
 10
-332.83821600435
 20
-488.8654499053955
 30
158.692464054651
  0
VERTEX
  5
106
  8
DEFAULT
 10
-332.8842936134122
 20
-488.8818722963333
 30
158.692464054651
  0
VERTEX
  5
107
  8
DEFAULT
 10
-332.9316627359174
 20
-488.8970031738281
 30
158.692464054651
  0
VERTEX
  5
108
  8
DEFAULT
 10
-332.9802904701017
 20
-488.9108754396439
 30
158.692464054651
  0
VERTEX
  5
109
  8
DEFAULT
 10
-333.0301410531781
 20
-488.9235248565674
 30
158.692464054651
  0
VERTEX
  5
10A
  8
DEFAULT
 10
-333.081175861337
 20
-488.9349900484085
 30
158.692464054651
  0
VERTEX
  5
10B
  8
DEFAULT
 10
-333.1333534097456
 20
-488.9453125
 30
158.692464054651
  0
VERTEX
  5
10C
  8
DEFAULT
 10
-333.186629352548
 20
-488.9545365571976
 30
158.692464054651
  0
VERTEX
  5
10D
  8
DEFAULT
 10
-333.2409564828656
 20
-488.9627094268799
 30
158.692464054651
  0
VERTEX
  5
10E
  8
DEFAULT
 10
-333.2962847327969
 20
-488.9698811769485
 30
158.692464054651
  0
VERTEX
  5
10F
  8
DEFAULT
 10
-333.3525611734174
 20
-488.9761047363281
 30
158.692464054651
  0
VERTEX
  5
110
  8
DEFAULT
 10
-333.4677326059124
 20
-488.985933303833
 30
158.692464054651
  0
VERTEX
  5
111
  8
DEFAULT
 10
-333.5859901284954
 20
-488.99267578125
 30
158.692464054651
  0
VERTEX
  5
112
  8
DEFAULT
 10
-333.8296119546671
 20
-488.9990539550781
 30
158.692464054651
  0
VERTEX
  5
113
  8
DEFAULT
 10
-334.078665909745
 20
-489.0
 30
158.692464054651
  0
VERTEX
  5
114
  8
DEFAULT
 10
-339.925904413015
 20
-489.0
 30
158.692464054651
  0
VERTEX
  5
115
  8
DEFAULT
 10
-340.1749583680931
 20
-488.9990539550781
 30
158.692464054651
  0
VERTEX
  5
116
  8
DEFAULT
 10
-340.418580194265
 20
-488.99267578125
 30
158.692464054651
  0
VERTEX
  5
117
  8
DEFAULT
 10
-340.536837716848
 20
-488.985933303833
 30
158.692464054651
  0
VERTEX
  5
118
  8
DEFAULT
 10
-340.6520091493431
 20
-488.9761047363281
 30
158.692464054651
  0
VERTEX
  5
119
  8
DEFAULT
 10
-340.7082855899636
 20
-488.9698811769485
 30
158.692464054651
  0
VERTEX
  5
11A
  8
DEFAULT
 10
-340.7636138398949
 20
-488.9627094268799
 30
158.692464054651
  0
VERTEX
  5
11B
  8
DEFAULT
 10
-340.8179409702125
 20
-488.9545365571976
 30
158.692464054651
  0
VERTEX
  5
11C
  8
DEFAULT
 10
-340.871216913015
 20
-488.9453125
 30
158.692464054651
  0
VERTEX
  5
11D
  8
DEFAULT
 10
-340.9233944614235
 20
-488.9349900484085
 30
158.692464054651
  0
VERTEX
  5
11E
  8
DEFAULT
 10
-340.9744292695824
 20
-488.9235248565674
 30
158.692464054651
  0
VERTEX
  5
11F
  8
DEFAULT
 10
-341.0242798526588
 20
-488.9108754396439
 30
158.692464054651
  0
VERTEX
  5
120
  8
DEFAULT
 10
-341.0729075868431
 20
-488.8970031738281
 30
158.692464054651
  0
VERTEX
  5
121
  8
DEFAULT
 10
-341.1202767093483
 20
-488.8818722963333
 30
158.692464054651
  0
VERTEX
  5
122
  8
DEFAULT
 10
-341.1663543184105
 20
-488.8654499053955
 30
158.692464054651
  0
VERTEX
  5
123
  8
DEFAULT
 10
-341.1888993059102
 20
-488.8567448928952
 30
158.692464054651
  0
VERTEX
  5
124
  8
DEFAULT
 10
-341.2111103732886
 20
-488.8477059602737
 30
158.692464054651
  0
VERTEX
  5
125
  8
DEFAULT
 10
-341.2329842124882
 20
-488.8383297994733
 30
158.692464054651
  0
VERTEX
  5
126
  8
DEFAULT
 10
-341.254517694265
 20
-488.82861328125
 30
158.692464054651
  0
VERTEX
  5
127
  8
DEFAULT
 10
-341.2757078681889
 20
-488.818553455174
 30
158.692464054651
  0
VERTEX
  5
128
  8
DEFAULT
 10
-341.2965519626442
 20
-488.8081475496292
 30
158.692464054651
  0
VERTEX
  5
129
  8
DEFAULT
 10
-341.3170473848286
 20
-488.7973929718137
 30
158.692464054651
  0
VERTEX
  5
12A
  8
DEFAULT
 10
-341.3371917207542
 20
-488.7862873077393
 30
158.692464054651
  0
VERTEX
  5
12B
  8
DEFAULT
 10
-341.3569827352467
 20
-488.7748283222318
 30
158.692464054651
  0
VERTEX
  5
12C
  8
DEFAULT
 10
-341.3764183719459
 20
-488.763013958931
 30
158.692464054651
  0
VERTEX
  5
12D
  8
DEFAULT
 10
-341.3954967533055
 20
-488.7508423402905
 30
158.692464054651
  0
VERTEX
  5
12E
  8
DEFAULT
 10
-341.414216180593
 20
-488.7383117675781
 30
158.692464054651
  0
VERTEX
  5
12F
  8
DEFAULT
 10
-341.4325751338902
 20
-488.7254207208753
 30
158.692464054651
  0
VERTEX
  5
130
  8
DEFAULT
 10
-341.4505722720924
 20
-488.7121678590775
 30
158.692464054651
  0
VERTEX
  5
131
  8
DEFAULT
 10
-341.468206432909
 20
-488.6985520198941
 30
158.692464054651
  0
VERTEX
  5
132
  8
DEFAULT
 10
-341.4854766328636
 20
-488.6845722198486
 30
158.692464054651
  0
VERTEX
  5
133
  8
DEFAULT
 10
-341.5023820672933
 20
-488.6702276542783
 30
158.692464054651
  0
VERTEX
  5
134
  8
DEFAULT
 10
-341.5189221103493
 20
-488.6555176973343
 30
158.692464054651
  0
VERTEX
  5
135
  8
DEFAULT
 10
-341.5350963149968
 20
-488.6404419019818
 30
158.692464054651
  0
VERTEX
  5
136
  8
DEFAULT
 10
-341.550904413015
 20
-488.625
 30
158.692464054651
  0
VERTEX
  5
137
  8
DEFAULT
 10
-341.5663463149968
 20
-488.6091919019818
 30
158.692464054651
  0
VERTEX
  5
138
  8
DEFAULT
 10
-341.5814221103492
 20
-488.5930176973343
 30
158.692464054651
  0
VERTEX
  5
139
  8
DEFAULT
 10
-341.5961320672932
 20
-488.5764776542783
 30
158.692464054651
  0
VERTEX
  5
13A
  8
DEFAULT
 10
-341.6104766328636
 20
-488.5595722198486
 30
158.692464054651
  0
VERTEX
  5
13B
  8
DEFAULT
 10
-341.6244564329091
 20
-488.5423020198941
 30
158.692464054651
  0
VERTEX
  5
13C
  8
DEFAULT
 10
-341.6380722720924
 20
-488.5246678590775
 30
158.692464054651
  0
VERTEX
  5
13D
  8
DEFAULT
 10
-341.6513251338903
 20
-488.5066707208753
 30
158.692464054651
  0
VERTEX
  5
13E
  8
DEFAULT
 10
-341.6642161805931
 20
-488.4883117675781
 30
158.692464054651
  0
VERTEX
  5
13F
  8
DEFAULT
 10
-341.6767467533056
 20
-488.4695923402905
 30
158.692464054651
  0
VERTEX
  5
140
  8
DEFAULT
 10
-341.688918371946
 20
-488.450513958931
 30
158.692464054651
  0
VERTEX
  5
141
  8
DEFAULT
 10
-341.7007327352468
 20
-488.4310783222318
 30
158.692464054651
  0
VERTEX
  5
142
  8
DEFAULT
 10
-341.7121917207543
 20
-488.4112873077393
 30
158.692464054651
  0
VERTEX
  5
143
  8
DEFAULT
 10
-341.7232973848287
 20
-488.3911429718137
 30
158.692464054651
  0
VERTEX
  5
144
  8
DEFAULT
 10
-341.7340519626442
 20
-488.3706475496292
 30
158.692464054651
  0
VERTEX
  5
145
  8
DEFAULT
 10
-341.744457868189
 20
-488.349803455174
 30
158.692464054651
  0
VERTEX
  5
146
  8
DEFAULT
 10
-341.754517694265
 20
-488.32861328125
 30
158.692464054651
  0
VERTEX
  5
147
  8
DEFAULT
 10
-341.7642342124883
 20
-488.3070797994733
 30
158.692464054651
  0
VERTEX
  5
148
  8
DEFAULT
 10
-341.7736103732887
 20
-488.2852059602737
 30
158.692464054651
  0
VERTEX
  5
149
  8
DEFAULT
 10
-341.7826493059102
 20
-488.2629948928952
 30
158.692464054651
  0
VERTEX
  5
14A
  8
DEFAULT
 10
-341.7913543184105
 20
-488.2404499053955
 30
158.692464054651
  0
VERTEX
  5
14B
  8
DEFAULT
 10
-341.8077767093483
 20
-488.1943722963333
 30
158.692464054651
  0
VERTEX
  5
14C
  8
DEFAULT
 10
-341.8229075868431
 20
-488.1470031738281
 30
158.692464054651
  0
VERTEX
  5
14D
  8
DEFAULT
 10
-341.8367798526589
 20
-488.0983754396439
 30
158.692464054651
  0
VERTEX
  5
14E
  8
DEFAULT
 10
-341.8494292695824
 20
-488.0485248565674
 30
158.692464054651
  0
VERTEX
  5
14F
  8
DEFAULT
 10
-341.8608944614235
 20
-487.9974900484085
 30
158.692464054651
  0
VERTEX
  5
150
  8
DEFAULT
 10
-341.871216913015
 20
-487.9453125
 30
158.692464054651
  0
VERTEX
  5
151
  8
DEFAULT
 10
-341.8804409702126
 20
-487.8920365571976
 30
158.692464054651
  0
VERTEX
  5
152
  8
DEFAULT
 10
-341.8886138398949
 20
-487.8377094268799
 30
158.692464054651
  0
VERTEX
  5
153
  8
DEFAULT
 10
-341.8957855899635
 20
-487.7823811769485
 30
158.692464054651
  0
VERTEX
  5
154
  8
DEFAULT
 10
-341.9020091493431
 20
-487.7261047363281
 30
158.692464054651
  0
VERTEX
  5
155
  8
DEFAULT
 10
-341.911837716848
 20
-487.610933303833
 30
158.692464054651
  0
VERTEX
  5
156
  8
DEFAULT
 10
-341.918580194265
 20
-487.49267578125
 30
158.692464054651
  0
VERTEX
  5
157
  8
DEFAULT
 10
-341.9249583680931
 20
-487.2490539550781
 30
158.692464054651
  0
VERTEX
  5
158
  8
DEFAULT
 10
-341.925904413015
 20
-487.0
 30
158.692464054651
  0
VERTEX
  5
159
  8
DEFAULT
 10
-341.925904413015
 20
-473.0
 30
158.692464054651
  0
VERTEX
  5
15A
  8
DEFAULT
 10
-341.9249583680931
 20
-472.7509460449219
 30
158.692464054651
  0
VERTEX
  5
15B
  8
DEFAULT
 10
-341.918580194265
 20
-472.50732421875
 30
158.692464054651
  0
VERTEX
  5
15C
  8
DEFAULT
 10
-341.911837716848
 20
-472.389066696167
 30
158.692464054651
  0
VERTEX
  5
15D
  8
DEFAULT
 10
-341.9020091493431
 20
-472.2738952636719
 30
158.692464054651
  0
VERTEX
  5
15E
  8
DEFAULT
 10
-341.8957855899635
 20
-472.2176188230515
 30
158.692464054651
  0
VERTEX
  5
15F
  8
DEFAULT
 10
-341.8886138398949
 20
-472.1622905731201
 30
158.692464054651
  0
VERTEX
  5
160
  8
DEFAULT
 10
-341.8804409702126
 20
-472.1079634428024
 30
158.692464054651
  0
VERTEX
  5
161
  8
DEFAULT
 10
-341.871216913015
 20
-472.0546875
 30
158.692464054651
  0
VERTEX
  5
162
  8
DEFAULT
 10
-341.8608944614235
 20
-472.0025099515915
 30
158.692464054651
  0
VERTEX
  5
163
  8
DEFAULT
 10
-341.8494292695824
 20
-471.9514751434326
 30
158.692464054651
  0
VERTEX
  5
164
  8
DEFAULT
 10
-341.8367798526589
 20
-471.9016245603561
 30
158.692464054651
  0
VERTEX
  5
165
  8
DEFAULT
 10
-341.8229075868431
 20
-471.8529968261719
 30
158.692464054651
  0
VERTEX
  5
166
  8
DEFAULT
 10
-341.8077767093483
 20
-471.8056277036667
 30
158.692464054651
  0
VERTEX
  5
167
  8
DEFAULT
 10
-341.7913543184105
 20
-471.7595500946045
 30
158.692464054651
  0
VERTEX
  5
168
  8
DEFAULT
 10
-341.7826493059102
 20
-471.7370051071048
 30
158.692464054651
  0
VERTEX
  5
169
  8
DEFAULT
 10
-341.7736103732887
 20
-471.7147940397263
 30
158.692464054651
  0
VERTEX
  5
16A
  8
DEFAULT
 10
-341.7642342124883
 20
-471.6929202005267
 30
158.692464054651
  0
VERTEX
  5
16B
  8
DEFAULT
 10
-341.754517694265
 20
-471.67138671875
 30
158.692464054651
  0
VERTEX
  5
16C
  8
DEFAULT
 10
-341.744457868189
 20
-471.650196544826
 30
158.692464054651
  0
VERTEX
  5
16D
  8
DEFAULT
 10
-341.7340519626442
 20
-471.6293524503708
 30
158.692464054651
  0
VERTEX
  5
16E
  8
DEFAULT
 10
-341.7232973848287
 20
-471.6088570281863
 30
158.692464054651
  0
VERTEX
  5
16F
  8
DEFAULT
 10
-341.7121917207543
 20
-471.5887126922607
 30
158.692464054651
  0
VERTEX
  5
170
  8
DEFAULT
 10
-341.7007327352468
 20
-471.5689216777682
 30
158.692464054651
  0
VERTEX
  5
171
  8
DEFAULT
 10
-341.688918371946
 20
-471.549486041069
 30
158.692464054651
  0
VERTEX
  5
172
  8
DEFAULT
 10
-341.6767467533056
 20
-471.5304076597095
 30
158.692464054651
  0
VERTEX
  5
173
  8
DEFAULT
 10
-341.6642161805931
 20
-471.5116882324219
 30
158.692464054651
  0
VERTEX
  5
174
  8
DEFAULT
 10
-341.6513251338903
 20
-471.4933292791247
 30
158.692464054651
  0
VERTEX
  5
175
  8
DEFAULT
 10
-341.6380722720924
 20
-471.4753321409225
 30
158.692464054651
  0
VERTEX
  5
176
  8
DEFAULT
 10
-341.6244564329091
 20
-471.4576979801059
 30
158.692464054651
  0
VERTEX
  5
177
  8
DEFAULT
 10
-341.6104766328636
 20
-471.4404277801514
 30
158.692464054651
  0
VERTEX
  5
178
  8
DEFAULT
 10
-341.5961320672932
 20
-471.4235223457217
 30
158.692464054651
  0
VERTEX
  5
179
  8
DEFAULT
 10
-341.5814221103492
 20
-471.4069823026657
 30
158.692464054651
  0
VERTEX
  5
17A
  8
DEFAULT
 10
-341.5663463149968
 20
-471.3908080980182
 30
158.692464054651
  0
VERTEX
  5
17B
  8
DEFAULT
 10
-341.550904413015
 20
-471.375
 30
158.692464054651
  0
VERTEX
  5
17C
  8
DEFAULT
 10
-341.5350963149968
 20
-471.3595580980182
 30
158.692464054651
  0
VERTEX
  5
17D
  8
DEFAULT
 10
-341.5189221103493
 20
-471.3444823026657
 30
158.692464054651
  0
VERTEX
  5
17E
  8
DEFAULT
 10
-341.5023820672933
 20
-471.3297723457217
 30
158.692464054651
  0
VERTEX
  5
17F
  8
DEFAULT
 10
-341.4854766328636
 20
-471.3154277801514
 30
158.692464054651
  0
VERTEX
  5
180
  8
DEFAULT
 10
-341.468206432909
 20
-471.3014479801059
 30
158.692464054651
  0
VERTEX
  5
181
  8
DEFAULT
 10
-341.4505722720924
 20
-471.2878321409225
 30
158.692464054651
  0
VERTEX
  5
182
  8
DEFAULT
 10
-341.4325751338902
 20
-471.2745792791247
 30
158.692464054651
  0
VERTEX
  5
183
  8
DEFAULT
 10
-341.414216180593
 20
-471.2616882324219
 30
158.692464054651
  0
VERTEX
  5
184
  8
DEFAULT
 10
-341.3954967533055
 20
-471.2491576597095
 30
158.692464054651
  0
VERTEX
  5
185
  8
DEFAULT
 10
-341.3764183719459
 20
-471.236986041069
 30
158.692464054651
  0
VERTEX
  5
186
  8
DEFAULT
 10
-341.3569827352467
 20
-471.2251716777682
 30
158.692464054651
  0
VERTEX
  5
187
  8
DEFAULT
 10
-341.3371917207542
 20
-471.2137126922607
 30
158.692464054651
  0
VERTEX
  5
188
  8
DEFAULT
 10
-341.3170473848286
 20
-471.2026070281863
 30
158.692464054651
  0
VERTEX
  5
189
  8
DEFAULT
 10
-341.2965519626442
 20
-471.1918524503708
 30
158.692464054651
  0
VERTEX
  5
18A
  8
DEFAULT
 10
-341.2757078681889
 20
-471.181446544826
 30
158.692464054651
  0
VERTEX
  5
18B
  8
DEFAULT
 10
-341.254517694265
 20
-471.17138671875
 30
158.692464054651
  0
VERTEX
  5
18C
  8
DEFAULT
 10
-341.2329842124882
 20
-471.1616702005267
 30
158.692464054651
  0
VERTEX
  5
18D
  8
DEFAULT
 10
-341.2111103732886
 20
-471.1522940397263
 30
158.692464054651
  0
VERTEX
  5
18E
  8
DEFAULT
 10
-341.1888993059102
 20
-471.1432551071048
 30
158.692464054651
  0
VERTEX
  5
18F
  8
DEFAULT
 10
-341.1663543184105
 20
-471.1345500946045
 30
158.692464054651
  0
VERTEX
  5
190
  8
DEFAULT
 10
-341.1202767093483
 20
-471.1181277036667
 30
158.692464054651
  0
VERTEX
  5
191
  8
DEFAULT
 10
-341.0729075868431
 20
-471.1029968261719
 30
158.692464054651
  0
VERTEX
  5
192
  8
DEFAULT
 10
-341.0242798526588
 20
-471.0891245603561
 30
158.692464054651
  0
VERTEX
  5
193
  8
DEFAULT
 10
-340.9744292695824
 20
-471.0764751434326
 30
158.692464054651
  0
VERTEX
  5
194
  8
DEFAULT
 10
-340.9233944614235
 20
-471.0650099515915
 30
158.692464054651
  0
VERTEX
  5
195
  8
DEFAULT
 10
-340.871216913015
 20
-471.0546875
 30
158.692464054651
  0
VERTEX
  5
196
  8
DEFAULT
 10
-340.8179409702125
 20
-471.0454634428024
 30
158.692464054651
  0
VERTEX
  5
197
  8
DEFAULT
 10
-340.7636138398949
 20
-471.0372905731201
 30
158.692464054651
  0
VERTEX
  5
198
  8
DEFAULT
 10
-340.7082855899636
 20
-471.0301188230515
 30
158.692464054651
  0
VERTEX
  5
199
  8
DEFAULT
 10
-340.6520091493431
 20
-471.0238952636719
 30
158.692464054651
  0
VERTEX
  5
19A
  8
DEFAULT
 10
-340.536837716848
 20
-471.014066696167
 30
158.692464054651
  0
VERTEX
  5
19B
  8
DEFAULT
 10
-340.418580194265
 20
-471.00732421875
 30
158.692464054651
  0
VERTEX
  5
19C
  8
DEFAULT
 10
-340.1749583680931
 20
-471.0009460449219
 30
158.692464054651
  0
VERTEX
  5
19D
  8
DEFAULT
 10
-339.925904413015
 20
-471.0
 30
158.692464054651
  0
VERTEX
  5
19E
  8
DEFAULT
 10
-75.7370225862392
 20
-471.0
 30
158.692464054651
  0
VERTEX
  5
19F
  8
DEFAULT
 10
-75.48796863116105
 20
-471.0009460449219
 30
158.692464054651
  0
VERTEX
  5
1A0
  8
DEFAULT
 10
-75.24434680498916
 20
-471.00732421875
 30
158.692464054651
  0
VERTEX
  5
1A1
  8
DEFAULT
 10
-75.12608928240616
 20
-471.014066696167
 30
158.692464054651
  0
VERTEX
  5
1A2
  8
DEFAULT
 10
-75.01091784991104
 20
-471.0238952636719
 30
158.692464054651
  0
VERTEX
  5
1A3
  8
DEFAULT
 10
-74.95464140929062
 20
-471.0301188230515
 30
158.692464054651
  0
VERTEX
  5
1A4
  8
DEFAULT
 10
-74.89931315935928
 20
-471.0372905731201
 30
158.692464054651
  0
VERTEX
  5
1A5
  8
DEFAULT
 10
-74.84498602904158
 20
-471.0454634428024
 30
158.692464054651
  0
VERTEX
  5
1A6
  8
DEFAULT
 10
-74.79171008623915
 20
-471.0546875
 30
158.692464054651
  0
VERTEX
  5
1A7
  8
DEFAULT
 10
-74.73953253783066
 20
-471.0650099515915
 30
158.692464054651
  0
VERTEX
  5
1A8
  8
DEFAULT
 10
-74.68849772967178
 20
-471.0764751434326
 30
158.692464054651
  0
VERTEX
  5
1A9
  8
DEFAULT
 10
-74.6386471465953
 20
-471.0891245603561
 30
158.692464054651
  0
VERTEX
  5
1AA
  8
DEFAULT
 10
-74.59001941241104
 20
-471.1029968261719
 30
158.692464054651
  0
VERTEX
  5
1AB
  8
DEFAULT
 10
-74.54265028990585
 20
-471.1181277036667
 30
158.692464054651
  0
VERTEX
  5
1AC
  8
DEFAULT
 10
-74.49657268084366
 20
-471.1345500946045
 30
158.692464054651
  0
VERTEX
  5
1AD
  8
DEFAULT
 10
-74.47402769334394
 20
-471.1432551071048
 30
158.692464054651
  0
VERTEX
  5
1AE
  8
DEFAULT
 10
-74.45181662596542
 20
-471.1522940397263
 30
158.692464054651
  0
VERTEX
  5
1AF
  8
DEFAULT
 10
-74.42994278676588
 20
-471.1616702005267
 30
158.692464054651
  0
VERTEX
  5
1B0
  8
DEFAULT
 10
-74.40840930498916
 20
-471.17138671875
 30
158.692464054651
  0
VERTEX
  5
1B1
  8
DEFAULT
 10
-74.3872191310652
 20
-471.181446544826
 30
158.692464054651
  0
VERTEX
  5
1B2
  8
DEFAULT
 10
-74.36637503660995
 20
-471.1918524503708
 30
158.692464054651
  0
VERTEX
  5
1B3
  8
DEFAULT
 10
-74.34587961442551
 20
-471.2026070281863
 30
158.692464054651
  0
VERTEX
  5
1B4
  8
DEFAULT
 10
-74.32573527849992
 20
-471.2137126922607
 30
158.692464054651
  0
VERTEX
  5
1B5
  8
DEFAULT
 10
-74.30594426400742
 20
-471.2251716777682
 30
158.692464054651
  0
VERTEX
  5
1B6
  8
DEFAULT
 10
-74.28650862730822
 20
-471.236986041069
 30
158.692464054651
  0
VERTEX
  5
1B7
  8
DEFAULT
 10
-74.26743024594865
 20
-471.2491576597095
 30
158.692464054651
  0
VERTEX
  5
1B8
  8
DEFAULT
 10
-74.24871081866107
 20
-471.2616882324219
 30
158.692464054651
  0
VERTEX
  5
1B9
  8
DEFAULT
 10
-74.23035186536393
 20
-471.2745792791247
 30
158.692464054651
  0
VERTEX
  5
1BA
  8
DEFAULT
 10
-74.21235472716174
 20
-471.2878321409225
 30
158.692464054651
  0
VERTEX
  5
1BB
  8
DEFAULT
 10
-74.19472056634507
 20
-471.3014479801059
 30
158.692464054651
  0
VERTEX
  5
1BC
  8
DEFAULT
 10
-74.17745036639056
 20
-471.3154277801514
 30
158.692464054651
  0
VERTEX
  5
1BD
  8
DEFAULT
 10
-74.16054493196091
 20
-471.3297723457217
 30
158.692464054651
  0
VERTEX
  5
1BE
  8
DEFAULT
 10
-74.1440048889049
 20
-471.3444823026657
 30
158.692464054651
  0
VERTEX
  5
1BF
  8
DEFAULT
 10
-74.12783068425738
 20
-471.3595580980182
 30
158.692464054651
  0
VERTEX
  5
1C0
  8
DEFAULT
 10
-74.1120225862392
 20
-471.375
 30
158.692464054651
  0
VERTEX
  5
1C1
  8
DEFAULT
 10
-74.09658068425738
 20
-471.3908080980182
 30
158.692464054651
  0
VERTEX
  5
1C2
  8
DEFAULT
 10
-74.0815048889049
 20
-471.4069823026657
 30
158.692464054651
  0
VERTEX
  5
1C3
  8
DEFAULT
 10
-74.06679493196094
 20
-471.4235223457217
 30
158.692464054651
  0
VERTEX
  5
1C4
  8
DEFAULT
 10
-74.05245036639059
 20
-471.4404277801514
 30
158.692464054651
  0
VERTEX
  5
1C5
  8
DEFAULT
 10
-74.0384705663451
 20
-471.4576979801059
 30
158.692464054651
  0
VERTEX
  5
1C6
  8
DEFAULT
 10
-74.02485472716177
 20
-471.4753321409225
 30
158.692464054651
  0
VERTEX
  5
1C7
  8
DEFAULT
 10
-74.01160186536399
 20
-471.4933292791247
 30
158.692464054651
  0
VERTEX
  5
1C8
  8
DEFAULT
 10
-73.99871081866111
 20
-471.5116882324219
 30
158.692464054651
  0
VERTEX
  5
1C9
  8
DEFAULT
 10
-73.9861802459487
 20
-471.5304076597095
 30
158.692464054651
  0
VERTEX
  5
1CA
  8
DEFAULT
 10
-73.97400862730828
 20
-471.549486041069
 30
158.692464054651
  0
VERTEX
  5
1CB
  8
DEFAULT
 10
-73.96219426400748
 20
-471.5689216777682
 30
158.692464054651
  0
VERTEX
  5
1CC
  8
DEFAULT
 10
-73.95073527849999
 20
-471.5887126922607
 30
158.692464054651
  0
VERTEX
  5
1CD
  8
DEFAULT
 10
-73.93962961442557
 20
-471.6088570281863
 30
158.692464054651
  0
VERTEX
  5
1CE
  8
DEFAULT
 10
-73.92887503661004
 20
-471.6293524503708
 30
158.692464054651
  0
VERTEX
  5
1CF
  8
DEFAULT
 10
-73.91846913106528
 20
-471.650196544826
 30
158.692464054651
  0
VERTEX
  5
1D0
  8
DEFAULT
 10
-73.90840930498925
 20
-471.67138671875
 30
158.692464054651
  0
VERTEX
  5
1D1
  8
DEFAULT
 10
-73.89869278676596
 20
-471.6929202005267
 30
158.692464054651
  0
VERTEX
  5
1D2
  8
DEFAULT
 10
-73.8893166259655
 20
-471.7147940397263
 30
158.692464054651
  0
VERTEX
  5
1D3
  8
DEFAULT
 10
-73.88027769334404
 20
-471.7370051071048
 30
158.692464054651
  0
VERTEX
  5
1D4
  8
DEFAULT
 10
-73.87157268084376
 20
-471.7595500946045
 30
158.692464054651
  0
VERTEX
  5
1D5
  8
DEFAULT
 10
-73.85515028990596
 20
-471.8056277036667
 30
158.692464054651
  0
VERTEX
  5
1D6
  8
DEFAULT
 10
-73.84001941241115
 20
-471.8529968261719
 30
158.692464054651
  0
VERTEX
  5
1D7
  8
DEFAULT
 10
-73.82614714659542
 20
-471.9016245603561
 30
158.692464054651
  0
VERTEX
  5
1D8
  8
DEFAULT
 10
-73.8134977296719
 20
-471.9514751434326
 30
158.692464054651
  0
VERTEX
  5
1D9
  8
DEFAULT
 10
-73.80203253783077
 20
-472.0025099515915
 30
158.692464054651
  0
VERTEX
  5
1DA
  8
DEFAULT
 10
-73.79171008623928
 20
-472.0546875
 30
158.692464054651
  0
VERTEX
  5
1DB
  8
DEFAULT
 10
-73.7824860290417
 20
-472.1079634428024
 30
158.692464054651
  0
VERTEX
  5
1DC
  8
DEFAULT
 10
-73.7743131593594
 20
-472.1622905731201
 30
158.692464054651
  0
VERTEX
  5
1DD
  8
DEFAULT
 10
-73.76714140929073
 20
-472.2176188230515
 30
158.692464054651
  0
VERTEX
  5
1DE
  8
DEFAULT
 10
-73.76091784991115
 20
-472.2738952636719
 30
158.692464054651
  0
VERTEX
  5
1DF
  8
DEFAULT
 10
-73.7510892824063
 20
-472.389066696167
 30
158.692464054651
  0
VERTEX
  5
1E0
  8
DEFAULT
 10
-73.7443468049893
 20
-472.50732421875
 30
158.692464054651
  0
VERTEX
  5
1E1
  8
DEFAULT
 10
-73.73796863116118
 20
-472.7509460449219
 30
158.692464054651
  0
VERTEX
  5
1E2
  8
DEFAULT
 10
-73.7370225862393
 20
-473.0
 30
158.692464054651
  0
VERTEX
  5
1E3
  8
DEFAULT
 10
-73.7370225862393
 20
-487.0
 30
158.692464054651
  0
VERTEX
  5
1E4
  8
DEFAULT
 10
-73.73796863116118
 20
-487.2490539550781
 30
158.692464054651
  0
VERTEX
  5
1E5
  8
DEFAULT
 10
-73.7443468049893
 20
-487.49267578125
 30
158.692464054651
  0
VERTEX
  5
1E6
  8
DEFAULT
 10
-73.7510892824063
 20
-487.610933303833
 30
158.692464054651
  0
VERTEX
  5
1E7
  8
DEFAULT
 10
-73.76091784991118
 20
-487.7261047363281
 30
158.692464054651
  0
VERTEX
  5
1E8
  8
DEFAULT
 10
-73.76714140929074
 20
-487.7823811769485
 30
158.692464054651
  0
VERTEX
  5
1E9
  8
DEFAULT
 10
-73.77431315935942
 20
-487.8377094268799
 30
158.692464054651
  0
VERTEX
  5
1EA
  8
DEFAULT
 10
-73.78248602904173
 20
-487.8920365571976
 30
158.692464054651
  0
VERTEX
  5
1EB
  8
DEFAULT
 10
-73.7917100862393
 20
-487.9453125
 30
158.692464054651
  0
VERTEX
  5
1EC
  8
DEFAULT
 10
-73.8020325378308
 20
-487.9974900484085
 30
158.692464054651
  0
VERTEX
  5
1ED
  8
DEFAULT
 10
-73.81349772967192
 20
-488.0485248565674
 30
158.692464054651
  0
VERTEX
  5
1EE
  8
DEFAULT
 10
-73.82614714659545
 20
-488.0983754396439
 30
158.692464054651
  0
VERTEX
  5
1EF
  8
DEFAULT
 10
-73.84001941241118
 20
-488.1470031738281
 30
158.692464054651
  0
VERTEX
  5
1F0
  8
DEFAULT
 10
-73.85515028990599
 20
-488.1943722963333
 30
158.692464054651
  0
VERTEX
  5
1F1
  8
DEFAULT
 10
-73.87157268084378
 20
-488.2404499053955
 30
158.692464054651
  0
VERTEX
  5
1F2
  8
DEFAULT
 10
-73.88027769334407
 20
-488.2629948928952
 30
158.692464054651
  0
VERTEX
  5
1F3
  8
DEFAULT
 10
-73.88931662596555
 20
-488.2852059602737
 30
158.692464054651
  0
VERTEX
  5
1F4
  8
DEFAULT
 10
-73.89869278676602
 20
-488.3070797994733
 30
158.692464054651
  0
VERTEX
  5
1F5
  8
DEFAULT
 10
-73.9084093049893
 20
-488.32861328125
 30
158.692464054651
  0
VERTEX
  5
1F6
  8
DEFAULT
 10
-73.91846913106534
 20
-488.349803455174
 30
158.692464054651
  0
VERTEX
  5
1F7
  8
DEFAULT
 10
-73.9288750366101
 20
-488.3706475496292
 30
158.692464054651
  0
VERTEX
  5
1F8
  8
DEFAULT
 10
-73.93962961442563
 20
-488.3911429718137
 30
158.692464054651
  0
VERTEX
  5
1F9
  8
DEFAULT
 10
-73.95073527850005
 20
-488.4112873077393
 30
158.692464054651
  0
VERTEX
  5
1FA
  8
DEFAULT
 10
-73.96219426400754
 20
-488.4310783222318
 30
158.692464054651
  0
VERTEX
  5
1FB
  8
DEFAULT
 10
-73.97400862730834
 20
-488.450513958931
 30
158.692464054651
  0
VERTEX
  5
1FC
  8
DEFAULT
 10
-73.98618024594876
 20
-488.4695923402905
 30
158.692464054651
  0
VERTEX
  5
1FD
  8
DEFAULT
 10
-73.99871081866117
 20
-488.4883117675781
 30
158.692464054651
  0
VERTEX
  5
1FE
  8
DEFAULT
 10
-74.01160186536404
 20
-488.5066707208753
 30
158.692464054651
  0
VERTEX
  5
1FF
  8
DEFAULT
 10
-74.02485472716184
 20
-488.5246678590775
 30
158.692464054651
  0
VERTEX
  5
200
  8
DEFAULT
 10
-74.03847056634517
 20
-488.5423020198941
 30
158.692464054651
  0
VERTEX
  5
201
  8
DEFAULT
 10
-74.05245036639066
 20
-488.5595722198486
 30
158.692464054651
  0
VERTEX
  5
202
  8
DEFAULT
 10
-74.066794931961
 20
-488.5764776542783
 30
158.692464054651
  0
VERTEX
  5
203
  8
DEFAULT
 10
-74.08150488890499
 20
-488.5930176973343
 30
158.692464054651
  0
VERTEX
  5
204
  8
DEFAULT
 10
-74.09658068425746
 20
-488.6091919019818
 30
158.692464054651
  0
VERTEX
  5
205
  8
DEFAULT
 10
-74.11202258623929
 20
-488.625
 30
158.692464054651
  0
VERTEX
  5
206
  8
DEFAULT
 10
-74.12783068425746
 20
-488.6404419019818
 30
158.692464054651
  0
VERTEX
  5
207
  8
DEFAULT
 10
-74.144004888905
 20
-488.6555176973343
 30
158.692464054651
  0
VERTEX
  5
208
  8
DEFAULT
 10
-74.16054493196103
 20
-488.6702276542783
 30
158.692464054651
  0
VERTEX
  5
209
  8
DEFAULT
 10
-74.17745036639066
 20
-488.6845722198486
 30
158.692464054651
  0
VERTEX
  5
20A
  8
DEFAULT
 10
-74.19472056634515
 20
-488.6985520198941
 30
158.692464054651
  0
VERTEX
  5
20B
  8
DEFAULT
 10
-74.21235472716182
 20
-488.7121678590775
 30
158.692464054651
  0
VERTEX
  5
20C
  8
DEFAULT
 10
-74.23035186536401
 20
-488.7254207208753
 30
158.692464054651
  0
VERTEX
  5
20D
  8
DEFAULT
 10
-74.24871081866115
 20
-488.7383117675781
 30
158.692464054651
  0
VERTEX
  5
20E
  8
DEFAULT
 10
-74.26743024594873
 20
-488.7508423402905
 30
158.692464054651
  0
VERTEX
  5
20F
  8
DEFAULT
 10
-74.28650862730831
 20
-488.763013958931
 30
158.692464054651
  0
VERTEX
  5
210
  8
DEFAULT
 10
-74.30594426400752
 20
-488.7748283222318
 30
158.692464054651
  0
VERTEX
  5
211
  8
DEFAULT
 10
-74.32573527850002
 20
-488.7862873077393
 30
158.692464054651
  0
VERTEX
  5
212
  8
DEFAULT
 10
-74.3458796144256
 20
-488.7973929718137
 30
158.692464054651
  0
VERTEX
  5
213
  8
DEFAULT
 10
-74.36637503661008
 20
-488.8081475496292
 30
158.692464054651
  0
VERTEX
  5
214
  8
DEFAULT
 10
-74.38721913106532
 20
-488.818553455174
 30
158.692464054651
  0
VERTEX
  5
215
  8
DEFAULT
 10
-74.40840930498929
 20
-488.82861328125
 30
158.692464054651
  0
VERTEX
  5
216
  8
DEFAULT
 10
-74.42994278676599
 20
-488.8383297994733
 30
158.692464054651
  0
VERTEX
  5
217
  8
DEFAULT
 10
-74.45181662596553
 20
-488.8477059602737
 30
158.692464054651
  0
VERTEX
  5
218
  8
DEFAULT
 10
-74.47402769334407
 20
-488.8567448928952
 30
158.692464054651
  0
VERTEX
  5
219
  8
DEFAULT
 10
-74.49657268084378
 20
-488.8654499053955
 30
158.692464054651
  0
VERTEX
  5
21A
  8
DEFAULT
 10
-74.54265028990598
 20
-488.8818722963333
 30
158.692464054651
  0
VERTEX
  5
21B
  8
DEFAULT
 10
-74.59001941241117
 20
-488.8970031738281
 30
158.692464054651
  0
VERTEX
  5
21C
  8
DEFAULT
 10
-74.63864714659542
 20
-488.9108754396439
 30
158.692464054651
  0
VERTEX
  5
21D
  8
DEFAULT
 10
-74.68849772967192
 20
-488.9235248565674
 30
158.692464054651
  0
VERTEX
  5
21E
  8
DEFAULT
 10
-74.7395325378308
 20
-488.9349900484085
 30
158.692464054651
  0
VERTEX
  5
21F
  8
DEFAULT
 10
-74.79171008623929
 20
-488.9453125
 30
158.692464054651
  0
VERTEX
  5
220
  8
DEFAULT
 10
-74.84498602904172
 20
-488.9545365571976
 30
158.692464054651
  0
VERTEX
  5
221
  8
DEFAULT
 10
-74.89931315935942
 20
-488.9627094268799
 30
158.692464054651
  0
VERTEX
  5
222
  8
DEFAULT
 10
-74.95464140929076
 20
-488.9698811769485
 30
158.692464054651
  0
VERTEX
  5
223
  8
DEFAULT
 10
-75.01091784991118
 20
-488.9761047363281
 30
158.692464054651
  0
VERTEX
  5
224
  8
DEFAULT
 10
-75.1260892824063
 20
-488.985933303833
 30
158.692464054651
  0
VERTEX
  5
225
  8
DEFAULT
 10
-75.2443468049893
 20
-488.99267578125
 30
158.692464054651
  0
VERTEX
  5
226
  8
DEFAULT
 10
-75.48796863116118
 20
-488.9990539550781
 30
158.692464054651
  0
VERTEX
  5
227
  8
DEFAULT
 10
-75.7370225862393
 20
-489.0
 30
158.692464054651
  0
VERTEX
  5
228
  8
DEFAULT
 10
-81.952295208288
 20
-489.0
 30
158.692464054651
  0
VERTEX
  5
229
  8
DEFAULT
 10
-82.20134916336615
 20
-488.9990539550781
 30
158.692464054651
  0
VERTEX
  5
22A
  8
DEFAULT
 10
-82.44497098953805
 20
-488.99267578125
 30
158.692464054651
  0
VERTEX
  5
22B
  8
DEFAULT
 10
-82.56322851212107
 20
-488.985933303833
 30
158.692464054651
  0
VERTEX
  5
22C
  8
DEFAULT
 10
-82.67839994461619
 20
-488.9761047363281
 30
158.692464054651
  0
VERTEX
  5
22D
  8
DEFAULT
 10
-82.73467638523661
 20
-488.9698811769485
 30
158.692464054651
  0
VERTEX
  5
22E
  8
DEFAULT
 10
-82.79000463516795
 20
-488.9627094268799
 30
158.692464054651
  0
VERTEX
  5
22F
  8
DEFAULT
 10
-82.84433176548565
 20
-488.9545365571976
 30
158.692464054651
  0
VERTEX
  5
230
  8
DEFAULT
 10
-82.89760770828808
 20
-488.9453125
 30
158.692464054651
  0
VERTEX
  5
231
  8
DEFAULT
 10
-82.94978525669657
 20
-488.9349900484085
 30
158.692464054651
  0
VERTEX
  5
232
  8
DEFAULT
 10
-83.00082006485545
 20
-488.9235248565674
 30
158.692464054651
  0
VERTEX
  5
233
  8
DEFAULT
 10
-83.05067064793195
 20
-488.9108754396439
 30
158.692464054651
  0
VERTEX
  5
234
  8
DEFAULT
 10
-83.0992983821162
 20
-488.8970031738281
 30
158.692464054651
  0
VERTEX
  5
235
  8
DEFAULT
 10
-83.14666750462139
 20
-488.8818722963333
 30
158.692464054651
  0
VERTEX
  5
236
  8
DEFAULT
 10
-83.19274511368359
 20
-488.8654499053955
 30
158.692464054651
  0
VERTEX
  5
237
  8
DEFAULT
 10
-83.21529010118329
 20
-488.8567448928952
 30
158.692464054651
  0
VERTEX
  5
238
  8
DEFAULT
 10
-83.2375011685618
 20
-488.8477059602737
 30
158.692464054651
  0
VERTEX
  5
239
  8
DEFAULT
 10
-83.25937500776135
 20
-488.8383297994733
 30
158.692464054651
  0
VERTEX
  5
23A
  8
DEFAULT
 10
-83.28090848953806
 20
-488.82861328125
 30
158.692464054651
  0
VERTEX
  5
23B
  8
DEFAULT
 10
-83.30209866346203
 20
-488.818553455174
 30
158.692464054651
  0
VERTEX
  5
23C
  8
DEFAULT
 10
-83.32294275791728
 20
-488.8081475496292
 30
158.692464054651
  0
VERTEX
  5
23D
  8
DEFAULT
 10
-83.34343818010174
 20
-488.7973929718137
 30
158.692464054651
  0
VERTEX
  5
23E
  8
DEFAULT
 10
-83.36358251602732
 20
-488.7862873077393
 30
158.692464054651
  0
VERTEX
  5
23F
  8
DEFAULT
 10
-83.38337353051983
 20
-488.7748283222318
 30
158.692464054651
  0
VERTEX
  5
240
  8
DEFAULT
 10
-83.40280916721903
 20
-488.763013958931
 30
158.692464054651
  0
VERTEX
  5
241
  8
DEFAULT
 10
-83.42188754857861
 20
-488.7508423402905
 30
158.692464054651
  0
VERTEX
  5
242
  8
DEFAULT
 10
-83.44060697586619
 20
-488.7383117675781
 30
158.692464054651
  0
VERTEX
  5
243
  8
DEFAULT
 10
-83.45896592916333
 20
-488.7254207208753
 30
158.692464054651
  0
VERTEX
  5
244
  8
DEFAULT
 10
-83.47696306736552
 20
-488.7121678590775
 30
158.692464054651
  0
VERTEX
  5
245
  8
DEFAULT
 10
-83.49459722818219
 20
-488.6985520198941
 30
158.692464054651
  0
VERTEX
  5
246
  8
DEFAULT
 10
-83.51186742813668
 20
-488.6845722198486
 30
158.692464054651
  0
VERTEX
  5
247
  8
DEFAULT
 10
-83.52877286256631
 20
-488.6702276542783
 30
158.692464054651
  0
VERTEX
  5
248
  8
DEFAULT
 10
-83.54531290562234
 20
-488.6555176973343
 30
158.692464054651
  0
VERTEX
  5
249
  8
DEFAULT
 10
-83.56148711026988
 20
-488.6404419019818
 30
158.692464054651
  0
VERTEX
  5
24A
  8
DEFAULT
 10
-83.57729520828805
 20
-488.625
 30
158.692464054651
  0
VERTEX
  5
24B
  8
DEFAULT
 10
-83.59273711026988
 20
-488.6091919019818
 30
158.692464054651
  0
VERTEX
  5
24C
  8
DEFAULT
 10
-83.60781290562235
 20
-488.5930176973343
 30
158.692464054651
  0
VERTEX
  5
24D
  8
DEFAULT
 10
-83.62252286256631
 20
-488.5764776542783
 30
158.692464054651
  0
VERTEX
  5
24E
  8
DEFAULT
 10
-83.63686742813667
 20
-488.5595722198486
 30
158.692464054651
  0
VERTEX
  5
24F
  8
DEFAULT
 10
-83.65084722818216
 20
-488.5423020198941
 30
158.692464054651
  0
VERTEX
  5
250
  8
DEFAULT
 10
-83.66446306736549
 20
-488.5246678590775
 30
158.692464054651
  0
VERTEX
  5
251
  8
DEFAULT
 10
-83.6777159291633
 20
-488.5066707208753
 30
158.692464054651
  0
VERTEX
  5
252
  8
DEFAULT
 10
-83.69060697586616
 20
-488.4883117675781
 30
158.692464054651
  0
VERTEX
  5
253
  8
DEFAULT
 10
-83.70313754857858
 20
-488.4695923402905
 30
158.692464054651
  0
VERTEX
  5
254
  8
DEFAULT
 10
-83.715309167219
 20
-488.450513958931
 30
158.692464054651
  0
VERTEX
  5
255
  8
DEFAULT
 10
-83.7271235305198
 20
-488.4310783222318
 30
158.692464054651
  0
VERTEX
  5
256
  8
DEFAULT
 10
-83.7385825160273
 20
-488.4112873077393
 30
158.692464054651
  0
VERTEX
  5
257
  8
DEFAULT
 10
-83.74968818010171
 20
-488.3911429718137
 30
158.692464054651
  0
VERTEX
  5
258
  8
DEFAULT
 10
-83.76044275791725
 20
-488.3706475496292
 30
158.692464054651
  0
VERTEX
  5
259
  8
DEFAULT
 10
-83.770848663462
 20
-488.349803455174
 30
158.692464054651
  0
VERTEX
  5
25A
  8
DEFAULT
 10
-83.78090848953802
 20
-488.32861328125
 30
158.692464054651
  0
VERTEX
  5
25B
  8
DEFAULT
 10
-83.79062500776129
 20
-488.3070797994733
 30
158.692464054651
  0
VERTEX
  5
25C
  8
DEFAULT
 10
-83.80000116856176
 20
-488.2852059602737
 30
158.692464054651
  0
VERTEX
  5
25D
  8
DEFAULT
 10
-83.80904010118324
 20
-488.2629948928952
 30
158.692464054651
  0
VERTEX
  5
25E
  8
DEFAULT
 10
-83.81774511368353
 20
-488.2404499053955
 30
158.692464054651
  0
VERTEX
  5
25F
  8
DEFAULT
 10
-83.83416750462132
 20
-488.1943722963333
 30
158.692464054651
  0
VERTEX
  5
260
  8
DEFAULT
 10
-83.84929838211613
 20
-488.1470031738281
 30
158.692464054651
  0
VERTEX
  5
261
  8
DEFAULT
 10
-83.86317064793187
 20
-488.0983754396439
 30
158.692464054651
  0
VERTEX
  5
262
  8
DEFAULT
 10
-83.87582006485539
 20
-488.0485248565674
 30
158.692464054651
  0
VERTEX
  5
263
  8
DEFAULT
 10
-83.88728525669652
 20
-487.9974900484085
 30
158.692464054651
  0
VERTEX
  5
264
  8
DEFAULT
 10
-83.897607708288
 20
-487.9453125
 30
158.692464054651
  0
VERTEX
  5
265
  8
DEFAULT
 10
-83.90683176548558
 20
-487.8920365571976
 30
158.692464054651
  0
VERTEX
  5
266
  8
DEFAULT
 10
-83.91500463516789
 20
-487.8377094268799
 30
158.692464054651
  0
VERTEX
  5
267
  8
DEFAULT
 10
-83.92217638523655
 20
-487.7823811769485
 30
158.692464054651
  0
VERTEX
  5
268
  8
DEFAULT
 10
-83.92839994461613
 20
-487.7261047363281
 30
158.692464054651
  0
VERTEX
  5
269
  8
DEFAULT
 10
-83.938228512121
 20
-487.610933303833
 30
158.692464054651
  0
VERTEX
  5
26A
  8
DEFAULT
 10
-83.944970989538
 20
-487.49267578125
 30
158.692464054651
  0
VERTEX
  5
26B
  8
DEFAULT
 10
-83.95134916336613
 20
-487.2490539550781
 30
158.692464054651
  0
VERTEX
  5
26C
  8
DEFAULT
 10
-83.952295208288
 20
-487.0
 30
158.692464054651
  0
VERTEX
  5
26D
  8
DEFAULT
 10
-83.952295208288
 20
-481.234754819588
 30
158.692464054651
  0
VERTEX
  5
26E
  8
DEFAULT
 10
-83.95267338597264
 20
-481.2005172991755
 30
158.692464054651
  0
VERTEX
  5
26F
  8
DEFAULT
 10
-83.95382119693997
 20
-481.1659926484496
 30
158.692464054651
  0
VERTEX
  5
270
  8
DEFAULT
 10
-83.95575808176744
 20
-481.1312033044204
 30
158.692464054651
  0
VERTEX
  5
271
  8
DEFAULT
 10
-83.95850277815387
 20
-481.0961729569199
 30
158.692464054651
  0
VERTEX
  5
272
  8
DEFAULT
 10
-83.96207323504494
 20
-481.0609265332268
 30
158.692464054651
  0
VERTEX
  5
273
  8
DEFAULT
 10
-83.96648652583363
 20
-481.0254901763782
 30
158.692464054651
  0
VERTEX
  5
274
  8
DEFAULT
 10
-83.97175876112648
 20
-480.989891216923
 30
158.692464054651
  0
VERTEX
  5
275
  8
DEFAULT
 10
-83.97790500160343
 20
-480.9541581379179
 30
158.692464054651
  0
VERTEX
  5
276
  8
DEFAULT
 10
-83.9849391715329
 20
-480.9183205330089
 30
158.692464054651
  0
VERTEX
  5
277
  8
DEFAULT
 10
-83.99287397353352
 20
-480.8824090574848
 30
158.692464054651
  0
VERTEX
  5
278
  8
DEFAULT
 10
-84.0017208052005
 20
-480.8464553722558
 30
158.692464054651
  0
VERTEX
  5
279
  8
DEFAULT
 10
-84.01148967823453
 20
-480.8104920807552
 30
158.692464054651
  0
VERTEX
  5
27A
  8
DEFAULT
 10
-84.02218914072559
 20
-480.7745526588316
 30
158.692464054651
  0
VERTEX
  5
27B
  8
DEFAULT
 10
-84.03382620325335
 20
-480.7386713777635
 30
158.692464054651
  0
VERTEX
  5
27C
  8
DEFAULT
 10
-84.0464062694665
 20
-480.7028832205933
 30
158.692464054651
  0
VERTEX
  5
27D
  8
DEFAULT
 10
-84.05993307179715
 20
-480.6672237920508
 30
158.692464054651
  0
VERTEX
  5
27E
  8
DEFAULT
 10
-84.07440861295252
 20
-480.6317292224024
 30
158.692464054651
  0
VERTEX
  5
27F
  8
DEFAULT
 10
-84.08983311380456
 20
-480.5964360656357
 30
158.692464054651
  0
VERTEX
  5
280
  8
DEFAULT
 10
-84.10620496826633
 20
-480.5613811924566
 30
158.692464054651
  0
VERTEX
  5
281
  8
DEFAULT
 10
-84.12352070570658
 20
-480.5266016786425
 30
158.692464054651
  0
VERTEX
  5
282
  8
DEFAULT
 10
-84.1417749614059
 20
-480.4921346893576
 30
158.692464054651
  0
VERTEX
  5
283
  8
DEFAULT
 10
-84.16096045550371
 20
-480.4580173600995
 30
158.692464054651
  0
VERTEX
  5
284
  8
DEFAULT
 10
-84.18106798082253
 20
-480.4242866749929
 30
158.692464054651
  0
VERTEX
  5
285
  8
DEFAULT
 10
-84.20208639988684
 20
-480.3909793431989
 30
158.692464054651
  0
VERTEX
  5
286
  8
DEFAULT
 10
-84.22400265137898
 20
-480.3581316742452
 30
158.692464054651
  0
VERTEX
  5
287
  8
DEFAULT
 10
-84.2468017661936
 20
-480.3257794531136
 30
158.692464054651
  0
VERTEX
  5
288
  8
DEFAULT
 10
-84.27046689316752
 20
-480.2939578159433
 30
158.692464054651
  0
VERTEX
  5
289
  8
DEFAULT
 10
-84.29497933447502
 20
-480.262701127224
 30
158.692464054651
  0
VERTEX
  5
28A
  8
DEFAULT
 10
-84.32031859058719
 20
-480.2320428593482
 30
158.692464054651
  0
VERTEX
  5
28B
  8
DEFAULT
 10
-84.34646241460639
 20
-480.2020154753925
 30
158.692464054651
  0
VERTEX
  5
28C
  8
DEFAULT
 10
-84.37338687569508
 20
-480.1726503159719
 30
158.692464054651
  0
VERTEX
  5
28D
  8
DEFAULT
 10
-84.40106643123336
 20
-480.1439774909887
 30
158.692464054651
  0
VERTEX
  5
28E
  8
DEFAULT
 10
-84.42947400725396
 20
-480.116025777053
 30
158.692464054651
  0
VERTEX
  5
28F
  8
DEFAULT
 10
-84.45858108662583
 20
-480.0888225213076
 30
158.692464054651
  0
VERTEX
  5
290
  8
DEFAULT
 10
-84.48835780438371
 20
-480.0623935523315
 30
158.692464054651
  0
VERTEX
  5
291
  8
DEFAULT
 10
-84.5187730495359
 20
-480.0367630987306
 30
158.692464054651
  0
VERTEX
  5
292
  8
DEFAULT
 10
-84.5497945726228
 20
-480.0119537159507
 30
158.692464054651
  0
VERTEX
  5
293
  8
DEFAULT
 10
-84.58138909825198
 20
-479.987986221773
 30
158.692464054651
  0
VERTEX
  5
294
  8
DEFAULT
 10
-84.6135224417942
 20
-479.9648796408642
 30
158.692464054651
  0
VERTEX
  5
295
  8
DEFAULT
 10
-84.64615962939587
 20
-479.9426511586711
 30
158.692464054651
  0
VERTEX
  5
296
  8
DEFAULT
 10
-84.67926502044403
 20
-479.921316084855
 30
158.692464054651
  0
VERTEX
  5
297
  8
DEFAULT
 10
-84.71280243161138
 20
-479.9008878263781
 30
158.692464054651
  0
VERTEX
  5
298
  8
DEFAULT
 10
-84.74673526160994
 20
-479.881377870259
 30
158.692464054651
  0
VERTEX
  5
299
  8
DEFAULT
 10
-84.78102661579393
 20
-479.8627957759279
 30
158.692464054651
  0
VERTEX
  5
29A
  8
DEFAULT
 10
-84.81563942977314
 20
-479.8451491770291
 30
158.692464054651
  0
VERTEX
  5
29B
  8
DEFAULT
 10
-84.85053659122953
 20
-479.828443792436
 30
158.692464054651
  0
VERTEX
  5
29C
  8
DEFAULT
 10
-84.88568105916669
 20
-479.8126834461673
 30
158.692464054651
  0
VERTEX
  5
29D
  8
DEFAULT
 10
-84.92103597987031
 20
-479.7978700958268
 30
158.692464054651
  0
VERTEX
  5
29E
  8
DEFAULT
 10
-84.9565647989085
 20
-479.7840038691222
 30
158.692464054651
  0
VERTEX
  5
29F
  8
DEFAULT
 10
-84.99223136856024
 20
-479.7710831079664
 30
158.692464054651
  0
VERTEX
  5
2A0
  8
DEFAULT
 10
-85.02800005012311
 20
-479.759104419615
 30
158.692464054651
  0
VERTEX
  5
2A1
  8
DEFAULT
 10
-85.06383581061728
 20
-479.7480627342545
 30
158.692464054651
  0
VERTEX
  5
2A2
  8
DEFAULT
 10
-85.09970431347143
 20
-479.7379513684263
 30
158.692464054651
  0
VERTEX
  5
2A3
  8
DEFAULT
 10
-85.13557200284652
 20
-479.7287620936462
 30
158.692464054651
  0
VERTEX
  5
2A4
  8
DEFAULT
 10
-85.17140618132257
 20
-479.7204852095669
 30
158.692464054651
  0
VERTEX
  5
2A5
  8
DEFAULT
 10
-85.2071750807443
 20
-479.7131096210222
 30
158.692464054651
  0
VERTEX
  5
2A6
  8
DEFAULT
 10
-85.24284792608721
 20
-479.7066229182921
 30
158.692464054651
  0
VERTEX
  5
2A7
  8
DEFAULT
 10
-85.27839499227318
 20
-479.7010114599389
 30
158.692464054651
  0
VERTEX
  5
2A8
  8
DEFAULT
 10
-85.31378765392529
 20
-479.6962604575743
 30
158.692464054651
  0
VERTEX
  5
2A9
  8
DEFAULT
 10
-85.34899842811055
 20
-479.6923540619421
 30
158.692464054651
  0
VERTEX
  5
2AA
  8
DEFAULT
 10
-85.38400101017308
 20
-479.6892754497186
 30
158.692464054651
  0
VERTEX
  5
2AB
  8
DEFAULT
 10
-85.41877030281059
 20
-479.6870069104748
 30
158.692464054651
  0
VERTEX
  5
2AC
  8
DEFAULT
 10
-85.4532824385904
 20
-479.6855299332638
 30
158.692464054651
  0
VERTEX
  5
2AD
  8
DEFAULT
 10
-85.4875147961419
 20
-479.684825292346
 30
158.692464054651
  0
VERTEX
  5
2AE
  8
DEFAULT
 10
-85.53790033101673
 20
-479.6851638170214
 30
158.692464054651
  0
VERTEX
  5
2AF
  8
DEFAULT
 10
-85.58889850310747
 20
-479.6871761077526
 30
158.692464054651
  0
VERTEX
  5
2B0
  8
DEFAULT
 10
-85.64043603846152
 20
-479.6909228627227
 30
158.692464054651
  0
VERTEX
  5
2B1
  8
DEFAULT
 10
-85.6924338732815
 20
-479.6964611908962
 30
158.692464054651
  0
VERTEX
  5
2B2
  8
DEFAULT
 10
-85.74480730436984
 20
-479.7038440177275
 30
158.692464054651
  0
VERTEX
  5
2B3
  8
DEFAULT
 10
-85.79746620606971
 20
-479.7131194880884
 30
158.692464054651
  0
VERTEX
  5
2B4
  8
DEFAULT
 10
-85.85031531632019
 20
-479.7243303744718
 30
158.692464054651
  0
VERTEX
  5
2B5
  8
DEFAULT
 10
-85.87678011210507
 20
-479.7306733534392
 30
158.692464054651
  0
VERTEX
  5
2B6
  8
DEFAULT
 10
-85.90325459340012
 20
-479.7375134991958
 30
158.692464054651
  0
VERTEX
  5
2B7
  8
DEFAULT
 10
-85.92972557836113
 20
-479.7448543938083
 30
158.692464054651
  0
VERTEX
  5
2B8
  8
DEFAULT
 10
-85.9561796437442
 20
-479.7526991798598
 30
158.692464054651
  0
VERTEX
  5
2B9
  8
DEFAULT
 10
-85.98260314208189
 20
-479.7610505450696
 30
158.692464054651
  0
VERTEX
  5
2BA
  8
DEFAULT
 10
-86.00898221989523
 20
-479.7699107076539
 30
158.692464054651
  0
VERTEX
  5
2BB
  8
DEFAULT
 10
-86.03530283691006
 20
-479.7792814025067
 30
158.692464054651
  0
VERTEX
  5
2BC
  8
DEFAULT
 10
-86.061550786237
 20
-479.78916386827
 30
158.692464054651
  0
VERTEX
  5
2BD
  8
DEFAULT
 10
-86.08771171547184
 20
-479.7995588353699
 30
158.692464054651
  0
VERTEX
  5
2BE
  8
DEFAULT
 10
-86.11377114866434
 20
-479.8104665150864
 30
158.692464054651
  0
VERTEX
  5
2BF
  8
DEFAULT
 10
-86.1397145091
 20
-479.8218865897266
 30
158.692464054651
  0
VERTEX
  5
2C0
  8
DEFAULT
 10
-86.16552714283144
 20
-479.8338182039622
 30
158.692464054651
  0
VERTEX
  5
2C1
  8
DEFAULT
 10
-86.19119434289263
 20
-479.8462599573936
 30
158.692464054651
  0
VERTEX
  5
2C2
  8
DEFAULT
 10
-86.21670137412282
 20
-479.8592098983962
 30
158.692464054651
  0
VERTEX
  5
2C3
  8
DEFAULT
 10
-86.24203349852266
 20
-479.8726655192996
 30
158.692464054651
  0
VERTEX
  5
2C4
  8
DEFAULT
 10
-86.26717600105964
 20
-479.8866237529449
 30
158.692464054651
  0
VERTEX
  5
2C5
  8
DEFAULT
 10
-86.29211421583773
 20
-479.9010809706609
 30
158.692464054651
  0
VERTEX
  5
2C6
  8
DEFAULT
 10
-86.31683355253965
 20
-479.9160329816922
 30
158.692464054651
  0
VERTEX
  5
2C7
  8
DEFAULT
 10
-86.3413195230503
 20
-479.9314750341094
 30
158.692464054651
  0
VERTEX
  5
2C8
  8
DEFAULT
 10
-86.36555776816311
 20
-479.9474018172157
 30
158.692464054651
  0
VERTEX
  5
2C9
  8
DEFAULT
 10
-86.38953408427402
 20
-479.9638074654706
 30
158.692464054651
  0
VERTEX
  5
2CA
  8
DEFAULT
 10
-86.41323444996084
 20
-479.9806855639326
 30
158.692464054651
  0
VERTEX
  5
2CB
  8
DEFAULT
 10
-86.43664505234952
 20
-479.998029155222
 30
158.692464054651
  0
VERTEX
  5
2CC
  8
DEFAULT
 10
-86.45975231316491
 20
-480.0158307479903
 30
158.692464054651
  0
VERTEX
  5
2CD
  8
DEFAULT
 10
-86.482542914367
 20
-480.0340823268881
 30
158.692464054651
  0
VERTEX
  5
2CE
  8
DEFAULT
 10
-86.50500382327157
 20
-480.0527753639978
 30
158.692464054651
  0
VERTEX
  5
2CF
  8
DEFAULT
 10
-86.52712231705877
 20
-480.0719008317082
 30
158.692464054651
  0
VERTEX
  5
2D0
  8
DEFAULT
 10
-86.54888600657306
 20
-480.0914492169845
 30
158.692464054651
  0
VERTEX
  5
2D1
  8
DEFAULT
 10
-86.57028285932223
 20
-480.1114105369934
 30
158.692464054651
  0
VERTEX
  5
2D2
  8
DEFAULT
 10
-86.59130122158643
 20
-480.131774356026
 30
158.692464054651
  0
VERTEX
  5
2D3
  8
DEFAULT
 10
-86.61192983955173
 20
-480.1525298036602
 30
158.692464054651
  0
VERTEX
  5
2D4
  8
DEFAULT
 10
-86.63215787938817
 20
-480.1736655940965
 30
158.692464054651
  0
VERTEX
  5
2D5
  8
DEFAULT
 10
-86.65197494619723
 20
-480.1951700465941
 30
158.692464054651
  0
VERTEX
  5
2D6
  8
DEFAULT
 10
-86.67137110175872
 20
-480.2170311069305
 30
158.692464054651
  0
VERTEX
  5
2D7
  8
DEFAULT
 10
-86.69033688101423
 20
-480.2392363698015
 30
158.692464054651
  0
VERTEX
  5
2D8
  8
DEFAULT
 10
-86.7088633072299
 20
-480.2617731020746
 30
158.692464054651
  0
VERTEX
  5
2D9
  8
DEFAULT
 10
-86.72694190578859
 20
-480.2846282668064
 30
158.692464054651
  0
VERTEX
  5
2DA
  8
DEFAULT
 10
-86.74456471656843
 20
-480.3077885479273
 30
158.692464054651
  0
VERTEX
  5
2DB
  8
DEFAULT
 10
-86.76172430487252
 20
-480.3312403754997
 30
158.692464054651
  0
VERTEX
  5
2DC
  8
DEFAULT
 10
-86.7784137708807
 20
-480.354969951449
 30
158.692464054651
  0
VERTEX
  5
2DD
  8
DEFAULT
 10
-86.79462675760418
 20
-480.3789632756697
 30
158.692464054651
  0
VERTEX
  5
2DE
  8
DEFAULT
 10
-86.8103574573289
 20
-480.4032061724038
 30
158.692464054651
  0
VERTEX
  5
2DF
  8
DEFAULT
 10
-86.82560061654313
 20
-480.4276843167925
 30
158.692464054651
  0
VERTEX
  5
2E0
  8
DEFAULT
 10
-86.84035153935069
 20
-480.4523832615013
 30
158.692464054651
  0
VERTEX
  5
2E1
  8
DEFAULT
 10
-86.8546060893804
 20
-480.4772884633192
 30
158.692464054651
  0
VERTEX
  5
2E2
  8
DEFAULT
 10
-86.86836069020727
 20
-480.5023853096352
 30
158.692464054651
  0
VERTEX
  5
2E3
  8
DEFAULT
 10
-86.88161232430993
 20
-480.5276591446975
 30
158.692464054651
  0
VERTEX
  5
2E4
  8
DEFAULT
 10
-86.89435853059402
 20
-480.5530952955656
 30
158.692464054651
  0
VERTEX
  5
2E5
  8
DEFAULT
 10
-86.90659740051872
 20
-480.5786790976656
 30
158.692464054651
  0
VERTEX
  5
2E6
  8
DEFAULT
 10
-86.9183275728678
 20
-480.604395919863
 30
158.692464054651
  0
VERTEX
  5
2E7
  8
DEFAULT
 10
-86.99702272574058
 20
-480.7908022454911
 30
158.692464054651
  0
VERTEX
  5
2E8
  8
DEFAULT
 10
-87.0134882241896
 20
-480.8262431733636
 30
158.692464054651
  0
VERTEX
  5
2E9
  8
DEFAULT
 10
-87.02201372167552
 20
-480.8435502055782
 30
158.692464054651
  0
VERTEX
  5
2EA
  8
DEFAULT
 10
-87.03076563676105
 20
-480.8605514132414
 30
158.692464054651
  0
VERTEX
  5
2EB
  8
DEFAULT
 10
-87.03976489677923
 20
-480.8772260352412
 30
158.692464054651
  0
VERTEX
  5
2EC
  8
DEFAULT
 10
-87.04903048775753
 20
-480.8935547933098
 30
158.692464054651
  0
VERTEX
  5
2ED
  8
DEFAULT
 10
-87.05857951115385
 20
-480.9095198667675
 30
158.692464054651
  0
VERTEX
  5
2EE
  8
DEFAULT
 10
-87.06842724059261
 20
-480.925104867266
 30
158.692464054651
  0
VERTEX
  5
2EF
  8
DEFAULT
 10
-87.07858717860067
 20
-480.9402948135318
 30
158.692464054651
  0
VERTEX
  5
2F0
  8
DEFAULT
 10
-87.08907111334342
 20
-480.95507610611
 30
158.692464054651
  0
VERTEX
  5
2F1
  8
DEFAULT
 10
-87.09988917536083
 20
-480.9694365021076
 30
158.692464054651
  0
VERTEX
  5
2F2
  8
DEFAULT
 10
-87.11104989430338
 20
-480.9833650899366
 30
158.692464054651
  0
VERTEX
  5
2F3
  8
DEFAULT
 10
-87.12256025566815
 20
-480.9968522640581
 30
158.692464054651
  0
VERTEX
  5
2F4
  8
DEFAULT
 10
-87.13442575753481
 20
-481.0098896997256
 30
158.692464054651
  0
VERTEX
  5
2F5
  8
DEFAULT
 10
-87.14665046730171
 20
-481.0224703277281
 30
158.692464054651
  0
VERTEX
  5
2F6
  8
DEFAULT
 10
-87.15923707842175
 20
-481.0345883091339
 30
158.692464054651
  0
VERTEX
  5
2F7
  8
DEFAULT
 10
-87.17218696713857
 20
-481.0462390100343
 30
158.692464054651
  0
VERTEX
  5
2F8
  8
DEFAULT
 10
-87.18550024922247
 20
-481.0574189762864
 30
158.692464054651
  0
VERTEX
  5
2F9
  8
DEFAULT
 10
-87.1991758367064
 20
-481.0681259082572
 30
158.692464054651
  0
VERTEX
  5
2FA
  8
DEFAULT
 10
-87.21321149462219
 20
-481.0783586355668
 30
158.692464054651
  0
VERTEX
  5
2FB
  8
DEFAULT
 10
-87.22760389773622
 20
-481.088117091832
 30
158.692464054651
  0
VERTEX
  5
2FC
  8
DEFAULT
 10
-87.2423486872858
 20
-481.0974022894097
 30
158.692464054651
  0
VERTEX
  5
2FD
  8
DEFAULT
 10
-87.25744052771498
 20
-481.1062162941403
 30
158.692464054651
  0
VERTEX
  5
2FE
  8
DEFAULT
 10
-87.27287316341055
 20
-481.1145622000913
 30
158.692464054651
  0
VERTEX
  5
2FF
  8
DEFAULT
 10
-87.28863947543827
 20
-481.1224441043006
 30
158.692464054651
  0
VERTEX
  5
300
  8
DEFAULT
 10
-87.30473153827865
 20
-481.1298670815203
 30
158.692464054651
  0
VERTEX
  5
301
  8
DEFAULT
 10
-87.32114067656306
 20
-481.1368371589599
 30
158.692464054651
  0
VERTEX
  5
302
  8
DEFAULT
 10
-87.3378575218099
 20
-481.1433612910299
 30
158.692464054651
  0
VERTEX
  5
303
  8
DEFAULT
 10
-87.35487206916034
 20
-481.1494473340851
 30
158.692464054651
  0
VERTEX
  5
304
  8
DEFAULT
 10
-87.37217373411458
 20
-481.1551040211685
 30
158.692464054651
  0
VERTEX
  5
305
  8
DEFAULT
 10
-87.38975140926773
 20
-481.160340936754
 30
158.692464054651
  0
VERTEX
  5
306
  8
DEFAULT
 10
-87.4075935210459
 20
-481.1651684914908
 30
158.692464054651
  0
VERTEX
  5
307
  8
DEFAULT
 10
-87.42568808644221
 20
-481.1695978969463
 30
158.692464054651
  0
VERTEX
  5
308
  8
DEFAULT
 10
-87.44402276975279
 20
-481.1736411403496
 30
158.692464054651
  0
VERTEX
  5
309
  8
DEFAULT
 10
-87.46258493931279
 20
-481.1773109593352
 30
158.692464054651
  0
VERTEX
  5
30A
  8
DEFAULT
 10
-87.48136172423249
 20
-481.1806208166864
 30
158.692464054651
  0
VERTEX
  5
30B
  8
DEFAULT
 10
-87.50034007113318
 20
-481.1835848750786
 30
158.692464054651
  0
VERTEX
  5
30C
  8
DEFAULT
 10
-87.51950680088333
 20
-481.1862179718232
 30
158.692464054651
  0
VERTEX
  5
30D
  8
DEFAULT
 10
-87.55835240405737
 20
-481.1905538512532
 30
158.692464054651
  0
VERTEX
  5
30E
  8
DEFAULT
 10
-87.59779274161302
 20
-481.1937596864325
 30
158.692464054651
  0
VERTEX
  5
30F
  8
DEFAULT
 10
-87.63772364046775
 20
-481.1959758865707
 30
158.692464054651
  0
VERTEX
  5
310
  8
DEFAULT
 10
-87.67804436215073
 20
-481.1973512304227
 30
158.692464054651
  0
VERTEX
  5
311
  8
DEFAULT
 10
-87.8414325901104
 20
-481.197667292455
 30
158.692464054651
  0
VERTEX
  5
312
  8
DEFAULT
 10
-328.177164090789
 20
-478.905781692119
 30
158.692464054651
 42
-0.442639698150708
  0
SEQEND
  5
313
  8
DEFAULT
  0
POLYLINE
  5
314
  8
DEFAULT
 66
     1
 10
0.0
 20
0.0
 30
158.692464054651
 70
     1
  0
VERTEX
  5
315
  8
DEFAULT
 10
314.593596740875
 20
-484.816249462399
 30
158.692464054651
 42
-0.8032705069724836
  0
VERTEX
  5
316
  8
DEFAULT
 10
317.549464205029
 20
-485.46896431073
 30
158.692464054651
  0
VERTEX
  5
317
  8
DEFAULT
 10
317.549464205029
 20
-487.0
 30
158.692464054651
  0
VERTEX
  5
318
  8
DEFAULT
 10
317.5504102499509
 20
-487.2490539550781
 30
158.692464054651
  0
VERTEX
  5
319
  8
DEFAULT
 10
317.556788423779
 20
-487.49267578125
 30
158.692464054651
  0
VERTEX
  5
31A
  8
DEFAULT
 10
317.563530901196
 20
-487.610933303833
 30
158.692464054651
  0
VERTEX
  5
31B
  8
DEFAULT
 10
317.5733594687009
 20
-487.7261047363281
 30
158.692464054651
  0
VERTEX
  5
31C
  8
DEFAULT
 10
317.5795830280805
 20
-487.7823811769485
 30
158.692464054651
  0
VERTEX
  5
31D
  8
DEFAULT
 10
317.5867547781492
 20
-487.8377094268799
 30
158.692464054651
  0
VERTEX
  5
31E
  8
DEFAULT
 10
317.5949276478315
 20
-487.8920365571976
 30
158.692464054651
  0
VERTEX
  5
31F
  8
DEFAULT
 10
317.604151705029
 20
-487.9453125
 30
158.692464054651
  0
VERTEX
  5
320
  8
DEFAULT
 10
317.6144741566205
 20
-487.9974900484085
 30
158.692464054651
  0
VERTEX
  5
321
  8
DEFAULT
 10
317.6259393484617
 20
-488.0485248565674
 30
158.692464054651
  0
VERTEX
  5
322
  8
DEFAULT
 10
317.6385887653852
 20
-488.0983754396439
 30
158.692464054651
  0
VERTEX
  5
323
  8
DEFAULT
 10
317.6524610312009
 20
-488.1470031738281
 30
158.692464054651
  0
VERTEX
  5
324
  8
DEFAULT
 10
317.6675919086957
 20
-488.1943722963333
 30
158.692464054651
  0
VERTEX
  5
325
  8
DEFAULT
 10
317.6840142996335
 20
-488.2404499053955
 30
158.692464054651
  0
VERTEX
  5
326
  8
DEFAULT
 10
317.6927193121338
 20
-488.2629948928952
 30
158.692464054651
  0
VERTEX
  5
327
  8
DEFAULT
 10
317.7017582447552
 20
-488.2852059602737
 30
158.692464054651
  0
VERTEX
  5
328
  8
DEFAULT
 10
317.7111344055556
 20
-488.3070797994733
 30
158.692464054651
  0
VERTEX
  5
329
  8
DEFAULT
 10
317.720850923779
 20
-488.32861328125
 30
158.692464054651
  0
VERTEX
  5
32A
  8
DEFAULT
 10
317.7309107498551
 20
-488.349803455174
 30
158.692464054651
  0
VERTEX
  5
32B
  8
DEFAULT
 10
317.7413166553998
 20
-488.3706475496292
 30
158.692464054651
  0
VERTEX
  5
32C
  8
DEFAULT
 10
317.7520712332153
 20
-488.3911429718137
 30
158.692464054651
  0
VERTEX
  5
32D
  8
DEFAULT
 10
317.7631768972897
 20
-488.4112873077393
 30
158.692464054651
  0
VERTEX
  5
32E
  8
DEFAULT
 10
317.7746358827972
 20
-488.4310783222318
 30
158.692464054651
  0
VERTEX
  5
32F
  8
DEFAULT
 10
317.786450246098
 20
-488.450513958931
 30
158.692464054651
  0
VERTEX
  5
330
  8
DEFAULT
 10
317.7986218647384
 20
-488.4695923402905
 30
158.692464054651
  0
VERTEX
  5
331
  8
DEFAULT
 10
317.8111524374509
 20
-488.4883117675781
 30
158.692464054651
  0
VERTEX
  5
332
  8
DEFAULT
 10
317.8240434841537
 20
-488.5066707208753
 30
158.692464054651
  0
VERTEX
  5
333
  8
DEFAULT
 10
317.8372963459515
 20
-488.5246678590775
 30
158.692464054651
  0
VERTEX
  5
334
  8
DEFAULT
 10
317.8509121851349
 20
-488.5423020198941
 30
158.692464054651
  0
VERTEX
  5
335
  8
DEFAULT
 10
317.8648919851803
 20
-488.5595722198486
 30
158.692464054651
  0
VERTEX
  5
336
  8
DEFAULT
 10
317.8792365507508
 20
-488.5764776542783
 30
158.692464054651
  0
VERTEX
  5
337
  8
DEFAULT
 10
317.8939465076947
 20
-488.5930176973343
 30
158.692464054651
  0
VERTEX
  5
338
  8
DEFAULT
 10
317.9090223030472
 20
-488.6091919019818
 30
158.692464054651
  0
VERTEX
  5
339
  8
DEFAULT
 10
317.924464205029
 20
-488.625
 30
158.692464054651
  0
VERTEX
  5
33A
  8
DEFAULT
 10
317.9402723030472
 20
-488.6404419019818
 30
158.692464054651
  0
VERTEX
  5
33B
  8
DEFAULT
 10
317.9564465076947
 20
-488.6555176973343
 30
158.692464054651
  0
VERTEX
  5
33C
  8
DEFAULT
 10
317.9729865507506
 20
-488.6702276542783
 30
158.692464054651
  0
VERTEX
  5
33D
  8
DEFAULT
 10
317.9898919851803
 20
-488.6845722198486
 30
158.692464054651
  0
VERTEX
  5
33E
  8
DEFAULT
 10
318.0071621851349
 20
-488.6985520198941
 30
158.692464054651
  0
VERTEX
  5
33F
  8
DEFAULT
 10
318.0247963459516
 20
-488.7121678590775
 30
158.692464054651
  0
VERTEX
  5
340
  8
DEFAULT
 10
318.0427934841538
 20
-488.7254207208753
 30
158.692464054651
  0
VERTEX
  5
341
  8
DEFAULT
 10
318.0611524374509
 20
-488.7383117675781
 30
158.692464054651
  0
VERTEX
  5
342
  8
DEFAULT
 10
318.0798718647385
 20
-488.7508423402905
 30
158.692464054651
  0
VERTEX
  5
343
  8
DEFAULT
 10
318.0989502460981
 20
-488.763013958931
 30
158.692464054651
  0
VERTEX
  5
344
  8
DEFAULT
 10
318.1183858827972
 20
-488.7748283222318
 30
158.692464054651
  0
VERTEX
  5
345
  8
DEFAULT
 10
318.1381768972898
 20
-488.7862873077393
 30
158.692464054651
  0
VERTEX
  5
346
  8
DEFAULT
 10
318.1583212332154
 20
-488.7973929718137
 30
158.692464054651
  0
VERTEX
  5
347
  8
DEFAULT
 10
318.1788166553998
 20
-488.8081475496292
 30
158.692464054651
  0
VERTEX
  5
348
  8
DEFAULT
 10
318.199660749855
 20
-488.818553455174
 30
158.692464054651
  0
VERTEX
  5
349
  8
DEFAULT
 10
318.220850923779
 20
-488.82861328125
 30
158.692464054651
  0
VERTEX
  5
34A
  8
DEFAULT
 10
318.2423844055558
 20
-488.8383297994733
 30
158.692464054651
  0
VERTEX
  5
34B
  8
DEFAULT
 10
318.2642582447553
 20
-488.8477059602737
 30
158.692464054651
  0
VERTEX
  5
34C
  8
DEFAULT
 10
318.2864693121338
 20
-488.8567448928952
 30
158.692464054651
  0
VERTEX
  5
34D
  8
DEFAULT
 10
318.3090142996335
 20
-488.8654499053955
 30
158.692464054651
  0
VERTEX
  5
34E
  8
DEFAULT
 10
318.3550919086957
 20
-488.8818722963333
 30
158.692464054651
  0
VERTEX
  5
34F
  8
DEFAULT
 10
318.4024610312009
 20
-488.8970031738281
 30
158.692464054651
  0
VERTEX
  5
350
  8
DEFAULT
 10
318.4510887653852
 20
-488.9108754396439
 30
158.692464054651
  0
VERTEX
  5
351
  8
DEFAULT
 10
318.5009393484617
 20
-488.9235248565674
 30
158.692464054651
  0
VERTEX
  5
352
  8
DEFAULT
 10
318.5519741566205
 20
-488.9349900484085
 30
158.692464054651
  0
VERTEX
  5
353
  8
DEFAULT
 10
318.604151705029
 20
-488.9453125
 30
158.692464054651
  0
VERTEX
  5
354
  8
DEFAULT
 10
318.6574276478315
 20
-488.9545365571976
 30
158.692464054651
  0
VERTEX
  5
355
  8
DEFAULT
 10
318.7117547781492
 20
-488.9627094268799
 30
158.692464054651
  0
VERTEX
  5
356
  8
DEFAULT
 10
318.7670830280805
 20
-488.9698811769485
 30
158.692464054651
  0
VERTEX
  5
357
  8
DEFAULT
 10
318.8233594687009
 20
-488.9761047363281
 30
158.692464054651
  0
VERTEX
  5
358
  8
DEFAULT
 10
318.938530901196
 20
-488.985933303833
 30
158.692464054651
  0
VERTEX
  5
359
  8
DEFAULT
 10
319.056788423779
 20
-488.99267578125
 30
158.692464054651
  0
VERTEX
  5
35A
  8
DEFAULT
 10
319.3004102499509
 20
-488.9990539550781
 30
158.692464054651
  0
VERTEX
  5
35B
  8
DEFAULT
 10
319.549464205029
 20
-489.0
 30
158.692464054651
  0
VERTEX
  5
35C
  8
DEFAULT
 10
325.262977413761
 20
-489.0
 30
158.692464054651
  0
VERTEX
  5
35D
  8
DEFAULT
 10
325.5120313688392
 20
-488.9990539550781
 30
158.692464054651
  0
VERTEX
  5
35E
  8
DEFAULT
 10
325.7556531950111
 20
-488.99267578125
 30
158.692464054651
  0
VERTEX
  5
35F
  8
DEFAULT
 10
325.8739107175941
 20
-488.985933303833
 30
158.692464054651
  0
VERTEX
  5
360
  8
DEFAULT
 10
325.9890821500892
 20
-488.9761047363281
 30
158.692464054651
  0
VERTEX
  5
361
  8
DEFAULT
 10
326.0453585907096
 20
-488.9698811769485
 30
158.692464054651
  0
VERTEX
  5
362
  8
DEFAULT
 10
326.1006868406409
 20
-488.9627094268799
 30
158.692464054651
  0
VERTEX
  5
363
  8
DEFAULT
 10
326.1550139709586
 20
-488.9545365571976
 30
158.692464054651
  0
VERTEX
  5
364
  8
DEFAULT
 10
326.208289913761
 20
-488.9453125
 30
158.692464054651
  0
VERTEX
  5
365
  8
DEFAULT
 10
326.2604674621696
 20
-488.9349900484085
 30
158.692464054651
  0
VERTEX
  5
366
  8
DEFAULT
 10
326.3115022703284
 20
-488.9235248565674
 30
158.692464054651
  0
VERTEX
  5
367
  8
DEFAULT
 10
326.3613528534048
 20
-488.9108754396439
 30
158.692464054651
  0
VERTEX
  5
368
  8
DEFAULT
 10
326.4099805875891
 20
-488.8970031738281
 30
158.692464054651
  0
VERTEX
  5
369
  8
DEFAULT
 10
326.4573497100943
 20
-488.8818722963333
 30
158.692464054651
  0
VERTEX
  5
36A
  8
DEFAULT
 10
326.5034273191565
 20
-488.8654499053955
 30
158.692464054651
  0
VERTEX
  5
36B
  8
DEFAULT
 10
326.5259723066562
 20
-488.8567448928952
 30
158.692464054651
  0
VERTEX
  5
36C
  8
DEFAULT
 10
326.5481833740347
 20
-488.8477059602737
 30
158.692464054651
  0
VERTEX
  5
36D
  8
DEFAULT
 10
326.5700572132342
 20
-488.8383297994733
 30
158.692464054651
  0
VERTEX
  5
36E
  8
DEFAULT
 10
326.591590695011
 20
-488.82861328125
 30
158.692464054651
  0
VERTEX
  5
36F
  8
DEFAULT
 10
326.612780868935
 20
-488.818553455174
 30
158.692464054651
  0
VERTEX
  5
370
  8
DEFAULT
 10
326.6336249633902
 20
-488.8081475496292
 30
158.692464054651
  0
VERTEX
  5
371
  8
DEFAULT
 10
326.6541203855746
 20
-488.7973929718137
 30
158.692464054651
  0
VERTEX
  5
372
  8
DEFAULT
 10
326.6742647215002
 20
-488.7862873077393
 30
158.692464054651
  0
VERTEX
  5
373
  8
DEFAULT
 10
326.6940557359928
 20
-488.7748283222318
 30
158.692464054651
  0
VERTEX
  5
374
  8
DEFAULT
 10
326.7134913726919
 20
-488.763013958931
 30
158.692464054651
  0
VERTEX
  5
375
  8
DEFAULT
 10
326.7325697540515
 20
-488.7508423402905
 30
158.692464054651
  0
VERTEX
  5
376
  8
DEFAULT
 10
326.7512891813391
 20
-488.7383117675781
 30
158.692464054651
  0
VERTEX
  5
377
  8
DEFAULT
 10
326.7696481346362
 20
-488.7254207208753
 30
158.692464054651
  0
VERTEX
  5
378
  8
DEFAULT
 10
326.7876452728384
 20
-488.7121678590775
 30
158.692464054651
  0
VERTEX
  5
379
  8
DEFAULT
 10
326.8052794336551
 20
-488.6985520198941
 30
158.692464054651
  0
VERTEX
  5
37A
  8
DEFAULT
 10
326.8225496336096
 20
-488.6845722198486
 30
158.692464054651
  0
VERTEX
  5
37B
  8
DEFAULT
 10
326.8394550680393
 20
-488.6702276542783
 30
158.692464054651
  0
VERTEX
  5
37C
  8
DEFAULT
 10
326.8559951110953
 20
-488.6555176973343
 30
158.692464054651
  0
VERTEX
  5
37D
  8
DEFAULT
 10
326.8721693157428
 20
-488.6404419019818
 30
158.692464054651
  0
VERTEX
  5
37E
  8
DEFAULT
 10
326.887977413761
 20
-488.625
 30
158.692464054651
  0
VERTEX
  5
37F
  8
DEFAULT
 10
326.9034193157428
 20
-488.6091919019818
 30
158.692464054651
  0
VERTEX
  5
380
  8
DEFAULT
 10
326.9184951110952
 20
-488.5930176973343
 30
158.692464054651
  0
VERTEX
  5
381
  8
DEFAULT
 10
326.9332050680392
 20
-488.5764776542783
 30
158.692464054651
  0
VERTEX
  5
382
  8
DEFAULT
 10
326.9475496336096
 20
-488.5595722198486
 30
158.692464054651
  0
VERTEX
  5
383
  8
DEFAULT
 10
326.9615294336551
 20
-488.5423020198941
 30
158.692464054651
  0
VERTEX
  5
384
  8
DEFAULT
 10
326.9751452728385
 20
-488.5246678590775
 30
158.692464054651
  0
VERTEX
  5
385
  8
DEFAULT
 10
326.9883981346363
 20
-488.5066707208753
 30
158.692464054651
  0
VERTEX
  5
386
  8
DEFAULT
 10
327.0012891813391
 20
-488.4883117675781
 30
158.692464054651
  0
VERTEX
  5
387
  8
DEFAULT
 10
327.0138197540516
 20
-488.4695923402905
 30
158.692464054651
  0
VERTEX
  5
388
  8
DEFAULT
 10
327.025991372692
 20
-488.450513958931
 30
158.692464054651
  0
VERTEX
  5
389
  8
DEFAULT
 10
327.0378057359928
 20
-488.4310783222318
 30
158.692464054651
  0
VERTEX
  5
38A
  8
DEFAULT
 10
327.0492647215003
 20
-488.4112873077393
 30
158.692464054651
  0
VERTEX
  5
38B
  8
DEFAULT
 10
327.0603703855747
 20
-488.3911429718137
 30
158.692464054651
  0
VERTEX
  5
38C
  8
DEFAULT
 10
327.0711249633902
 20
-488.3706475496292
 30
158.692464054651
  0
VERTEX
  5
38D
  8
DEFAULT
 10
327.0815308689349
 20
-488.349803455174
 30
158.692464054651
  0
VERTEX
  5
38E
  8
DEFAULT
 10
327.091590695011
 20
-488.32861328125
 30
158.692464054651
  0
VERTEX
  5
38F
  8
DEFAULT
 10
327.1013072132343
 20
-488.3070797994733
 30
158.692464054651
  0
VERTEX
  5
390
  8
DEFAULT
 10
327.1106833740347
 20
-488.2852059602737
 30
158.692464054651
  0
VERTEX
  5
391
  8
DEFAULT
 10
327.1197223066562
 20
-488.2629948928952
 30
158.692464054651
  0
VERTEX
  5
392
  8
DEFAULT
 10
327.1284273191565
 20
-488.2404499053955
 30
158.692464054651
  0
VERTEX
  5
393
  8
DEFAULT
 10
327.1448497100943
 20
-488.1943722963333
 30
158.692464054651
  0
VERTEX
  5
394
  8
DEFAULT
 10
327.1599805875891
 20
-488.1470031738281
 30
158.692464054651
  0
VERTEX
  5
395
  8
DEFAULT
 10
327.1738528534048
 20
-488.0983754396439
 30
158.692464054651
  0
VERTEX
  5
396
  8
DEFAULT
 10
327.1865022703283
 20
-488.0485248565674
 30
158.692464054651
  0
VERTEX
  5
397
  8
DEFAULT
 10
327.1979674621695
 20
-487.9974900484085
 30
158.692464054651
  0
VERTEX
  5
398
  8
DEFAULT
 10
327.208289913761
 20
-487.9453125
 30
158.692464054651
  0
VERTEX
  5
399
  8
DEFAULT
 10
327.2175139709585
 20
-487.8920365571976
 30
158.692464054651
  0
VERTEX
  5
39A
  8
DEFAULT
 10
327.2256868406408
 20
-487.8377094268799
 30
158.692464054651
  0
VERTEX
  5
39B
  8
DEFAULT
 10
327.2328585907095
 20
-487.7823811769485
 30
158.692464054651
  0
VERTEX
  5
39C
  8
DEFAULT
 10
327.2390821500891
 20
-487.7261047363281
 30
158.692464054651
  0
VERTEX
  5
39D
  8
DEFAULT
 10
327.248910717594
 20
-487.610933303833
 30
158.692464054651
  0
VERTEX
  5
39E
  8
DEFAULT
 10
327.255653195011
 20
-487.49267578125
 30
158.692464054651
  0
VERTEX
  5
39F
  8
DEFAULT
 10
327.2620313688391
 20
-487.2490539550781
 30
158.692464054651
  0
VERTEX
  5
3A0
  8
DEFAULT
 10
327.262977413761
 20
-487.0
 30
158.692464054651
  0
VERTEX
  5
3A1
  8
DEFAULT
 10
327.262977413761
 20
-473.0
 30
158.692464054651
  0
VERTEX
  5
3A2
  8
DEFAULT
 10
327.2620313688391
 20
-472.7509460449219
 30
158.692464054651
  0
VERTEX
  5
3A3
  8
DEFAULT
 10
327.255653195011
 20
-472.50732421875
 30
158.692464054651
  0
VERTEX
  5
3A4
  8
DEFAULT
 10
327.248910717594
 20
-472.389066696167
 30
158.692464054651
  0
VERTEX
  5
3A5
  8
DEFAULT
 10
327.2390821500891
 20
-472.2738952636719
 30
158.692464054651
  0
VERTEX
  5
3A6
  8
DEFAULT
 10
327.2328585907095
 20
-472.2176188230515
 30
158.692464054651
  0
VERTEX
  5
3A7
  8
DEFAULT
 10
327.2256868406408
 20
-472.1622905731201
 30
158.692464054651
  0
VERTEX
  5
3A8
  8
DEFAULT
 10
327.2175139709585
 20
-472.1079634428024
 30
158.692464054651
  0
VERTEX
  5
3A9
  8
DEFAULT
 10
327.208289913761
 20
-472.0546875
 30
158.692464054651
  0
VERTEX
  5
3AA
  8
DEFAULT
 10
327.1979674621695
 20
-472.0025099515915
 30
158.692464054651
  0
VERTEX
  5
3AB
  8
DEFAULT
 10
327.1865022703283
 20
-471.9514751434326
 30
158.692464054651
  0
VERTEX
  5
3AC
  8
DEFAULT
 10
327.1738528534048
 20
-471.9016245603561
 30
158.692464054651
  0
VERTEX
  5
3AD
  8
DEFAULT
 10
327.1599805875891
 20
-471.8529968261719
 30
158.692464054651
  0
VERTEX
  5
3AE
  8
DEFAULT
 10
327.1448497100943
 20
-471.8056277036667
 30
158.692464054651
  0
VERTEX
  5
3AF
  8
DEFAULT
 10
327.1284273191565
 20
-471.7595500946045
 30
158.692464054651
  0
VERTEX
  5
3B0
  8
DEFAULT
 10
327.1197223066562
 20
-471.7370051071048
 30
158.692464054651
  0
VERTEX
  5
3B1
  8
DEFAULT
 10
327.1106833740347
 20
-471.7147940397263
 30
158.692464054651
  0
VERTEX
  5
3B2
  8
DEFAULT
 10
327.1013072132342
 20
-471.6929202005267
 30
158.692464054651
  0
VERTEX
  5
3B3
  8
DEFAULT
 10
327.091590695011
 20
-471.67138671875
 30
158.692464054651
  0
VERTEX
  5
3B4
  8
DEFAULT
 10
327.0815308689349
 20
-471.650196544826
 30
158.692464054651
  0
VERTEX
  5
3B5
  8
DEFAULT
 10
327.0711249633902
 20
-471.6293524503708
 30
158.692464054651
  0
VERTEX
  5
3B6
  8
DEFAULT
 10
327.0603703855746
 20
-471.6088570281863
 30
158.692464054651
  0
VERTEX
  5
3B7
  8
DEFAULT
 10
327.0492647215002
 20
-471.5887126922607
 30
158.692464054651
  0
VERTEX
  5
3B8
  8
DEFAULT
 10
327.0378057359927
 20
-471.5689216777682
 30
158.692464054651
  0
VERTEX
  5
3B9
  8
DEFAULT
 10
327.0259913726919
 20
-471.549486041069
 30
158.692464054651
  0
VERTEX
  5
3BA
  8
DEFAULT
 10
327.0138197540515
 20
-471.5304076597095
 30
158.692464054651
  0
VERTEX
  5
3BB
  8
DEFAULT
 10
327.0012891813391
 20
-471.5116882324219
 30
158.692464054651
  0
VERTEX
  5
3BC
  8
DEFAULT
 10
326.9883981346362
 20
-471.4933292791247
 30
158.692464054651
  0
VERTEX
  5
3BD
  8
DEFAULT
 10
326.9751452728384
 20
-471.4753321409225
 30
158.692464054651
  0
VERTEX
  5
3BE
  8
DEFAULT
 10
326.9615294336551
 20
-471.4576979801059
 30
158.692464054651
  0
VERTEX
  5
3BF
  8
DEFAULT
 10
326.9475496336096
 20
-471.4404277801514
 30
158.692464054651
  0
VERTEX
  5
3C0
  8
DEFAULT
 10
326.9332050680392
 20
-471.4235223457217
 30
158.692464054651
  0
VERTEX
  5
3C1
  8
DEFAULT
 10
326.9184951110952
 20
-471.4069823026657
 30
158.692464054651
  0
VERTEX
  5
3C2
  8
DEFAULT
 10
326.9034193157428
 20
-471.3908080980182
 30
158.692464054651
  0
VERTEX
  5
3C3
  8
DEFAULT
 10
326.887977413761
 20
-471.375
 30
158.692464054651
  0
VERTEX
  5
3C4
  8
DEFAULT
 10
326.8721693157428
 20
-471.3595580980182
 30
158.692464054651
  0
VERTEX
  5
3C5
  8
DEFAULT
 10
326.8559951110952
 20
-471.3444823026657
 30
158.692464054651
  0
VERTEX
  5
3C6
  8
DEFAULT
 10
326.8394550680392
 20
-471.3297723457217
 30
158.692464054651
  0
VERTEX
  5
3C7
  8
DEFAULT
 10
326.8225496336096
 20
-471.3154277801514
 30
158.692464054651
  0
VERTEX
  5
3C8
  8
DEFAULT
 10
326.805279433655
 20
-471.3014479801059
 30
158.692464054651
  0
VERTEX
  5
3C9
  8
DEFAULT
 10
326.7876452728384
 20
-471.2878321409225
 30
158.692464054651
  0
VERTEX
  5
3CA
  8
DEFAULT
 10
326.7696481346361
 20
-471.2745792791247
 30
158.692464054651
  0
VERTEX
  5
3CB
  8
DEFAULT
 10
326.751289181339
 20
-471.2616882324219
 30
158.692464054651
  0
VERTEX
  5
3CC
  8
DEFAULT
 10
326.7325697540515
 20
-471.2491576597095
 30
158.692464054651
  0
VERTEX
  5
3CD
  8
DEFAULT
 10
326.7134913726919
 20
-471.236986041069
 30
158.692464054651
  0
VERTEX
  5
3CE
  8
DEFAULT
 10
326.6940557359927
 20
-471.2251716777682
 30
158.692464054651
  0
VERTEX
  5
3CF
  8
DEFAULT
 10
326.6742647215001
 20
-471.2137126922607
 30
158.692464054651
  0
VERTEX
  5
3D0
  8
DEFAULT
 10
326.6541203855745
 20
-471.2026070281863
 30
158.692464054651
  0
VERTEX
  5
3D1
  8
DEFAULT
 10
326.6336249633901
 20
-471.1918524503708
 30
158.692464054651
  0
VERTEX
  5
3D2
  8
DEFAULT
 10
326.6127808689349
 20
-471.181446544826
 30
158.692464054651
  0
VERTEX
  5
3D3
  8
DEFAULT
 10
326.5915906950109
 20
-471.17138671875
 30
158.692464054651
  0
VERTEX
  5
3D4
  8
DEFAULT
 10
326.5700572132341
 20
-471.1616702005267
 30
158.692464054651
  0
VERTEX
  5
3D5
  8
DEFAULT
 10
326.5481833740346
 20
-471.1522940397263
 30
158.692464054651
  0
VERTEX
  5
3D6
  8
DEFAULT
 10
326.5259723066561
 20
-471.1432551071048
 30
158.692464054651
  0
VERTEX
  5
3D7
  8
DEFAULT
 10
326.5034273191564
 20
-471.1345500946045
 30
158.692464054651
  0
VERTEX
  5
3D8
  8
DEFAULT
 10
326.4573497100942
 20
-471.1181277036667
 30
158.692464054651
  0
VERTEX
  5
3D9
  8
DEFAULT
 10
326.409980587589
 20
-471.1029968261719
 30
158.692464054651
  0
VERTEX
  5
3DA
  8
DEFAULT
 10
326.3613528534047
 20
-471.0891245603561
 30
158.692464054651
  0
VERTEX
  5
3DB
  8
DEFAULT
 10
326.3115022703282
 20
-471.0764751434326
 30
158.692464054651
  0
VERTEX
  5
3DC
  8
DEFAULT
 10
326.2604674621693
 20
-471.0650099515915
 30
158.692464054651
  0
VERTEX
  5
3DD
  8
DEFAULT
 10
326.2082899137608
 20
-471.0546875
 30
158.692464054651
  0
VERTEX
  5
3DE
  8
DEFAULT
 10
326.1550139709583
 20
-471.0454634428024
 30
158.692464054651
  0
VERTEX
  5
3DF
  8
DEFAULT
 10
326.1006868406406
 20
-471.0372905731201
 30
158.692464054651
  0
VERTEX
  5
3E0
  8
DEFAULT
 10
326.0453585907092
 20
-471.0301188230515
 30
158.692464054651
  0
VERTEX
  5
3E1
  8
DEFAULT
 10
325.9890821500888
 20
-471.0238952636719
 30
158.692464054651
  0
VERTEX
  5
3E2
  8
DEFAULT
 10
325.8739107175936
 20
-471.014066696167
 30
158.692464054651
  0
VERTEX
  5
3E3
  8
DEFAULT
 10
325.7556531950105
 20
-471.00732421875
 30
158.692464054651
  0
VERTEX
  5
3E4
  8
DEFAULT
 10
325.5120313688384
 20
-471.0009460449219
 30
158.692464054651
  0
VERTEX
  5
3E5
  8
DEFAULT
 10
325.26297741376
 20
-471.0
 30
158.692464054651
  0
VERTEX
  5
3E6
  8
DEFAULT
 10
61.074095586985
 20
-471.0
 30
158.692464054651
  0
VERTEX
  5
3E7
  8
DEFAULT
 10
60.82504163190688
 20
-471.0009460449219
 30
158.692464054651
  0
VERTEX
  5
3E8
  8
DEFAULT
 10
60.58141980573501
 20
-471.00732421875
 30
158.692464054651
  0
VERTEX
  5
3E9
  8
DEFAULT
 10
60.463162283152
 20
-471.014066696167
 30
158.692464054651
  0
VERTEX
  5
3EA
  8
DEFAULT
 10
60.34799085065688
 20
-471.0238952636719
 30
158.692464054651
  0
VERTEX
  5
3EB
  8
DEFAULT
 10
60.29171441003646
 20
-471.0301188230515
 30
158.692464054651
  0
VERTEX
  5
3EC
  8
DEFAULT
 10
60.23638616010512
 20
-471.0372905731201
 30
158.692464054651
  0
VERTEX
  5
3ED
  8
DEFAULT
 10
60.18205902978742
 20
-471.0454634428024
 30
158.692464054651
  0
VERTEX
  5
3EE
  8
DEFAULT
 10
60.128783086985
 20
-471.0546875
 30
158.692464054651
  0
VERTEX
  5
3EF
  8
DEFAULT
 10
60.07660553857649
 20
-471.0650099515915
 30
158.692464054651
  0
VERTEX
  5
3F0
  8
DEFAULT
 10
60.02557073041761
 20
-471.0764751434326
 30
158.692464054651
  0
VERTEX
  5
3F1
  8
DEFAULT
 10
59.97572014734114
 20
-471.0891245603561
 30
158.692464054651
  0
VERTEX
  5
3F2
  8
DEFAULT
 10
59.92709241315687
 20
-471.1029968261719
 30
158.692464054651
  0
VERTEX
  5
3F3
  8
DEFAULT
 10
59.87972329065168
 20
-471.1181277036667
 30
158.692464054651
  0
VERTEX
  5
3F4
  8
DEFAULT
 10
59.83364568158949
 20
-471.1345500946045
 30
158.692464054651
  0
VERTEX
  5
3F5
  8
DEFAULT
 10
59.81110069408977
 20
-471.1432551071048
 30
158.692464054651
  0
VERTEX
  5
3F6
  8
DEFAULT
 10
59.78888962671125
 20
-471.1522940397263
 30
158.692464054651
  0
VERTEX
  5
3F7
  8
DEFAULT
 10
59.76701578751171
 20
-471.1616702005267
 30
158.692464054651
  0
VERTEX
  5
3F8
  8
DEFAULT
 10
59.745482305735
 20
-471.17138671875
 30
158.692464054651
  0
VERTEX
  5
3F9
  8
DEFAULT
 10
59.72429213181104
 20
-471.181446544826
 30
158.692464054651
  0
VERTEX
  5
3FA
  8
DEFAULT
 10
59.7034480373558
 20
-471.1918524503708
 30
158.692464054651
  0
VERTEX
  5
3FB
  8
DEFAULT
 10
59.68295261517133
 20
-471.2026070281863
 30
158.692464054651
  0
VERTEX
  5
3FC
  8
DEFAULT
 10
59.66280827924575
 20
-471.2137126922607
 30
158.692464054651
  0
VERTEX
  5
3FD
  8
DEFAULT
 10
59.64301726475324
 20
-471.2251716777682
 30
158.692464054651
  0
VERTEX
  5
3FE
  8
DEFAULT
 10
59.62358162805404
 20
-471.236986041069
 30
158.692464054651
  0
VERTEX
  5
3FF
  8
DEFAULT
 10
59.60450324669446
 20
-471.2491576597095
 30
158.692464054651
  0
VERTEX
  5
400
  8
DEFAULT
 10
59.58578381940688
 20
-471.2616882324219
 30
158.692464054651
  0
VERTEX
  5
401
  8
DEFAULT
 10
59.56742486610975
 20
-471.2745792791247
 30
158.692464054651
  0
VERTEX
  5
402
  8
DEFAULT
 10
59.54942772790756
 20
-471.2878321409225
 30
158.692464054651
  0
VERTEX
  5
403
  8
DEFAULT
 10
59.53179356709089
 20
-471.3014479801059
 30
158.692464054651
  0
VERTEX
  5
404
  8
DEFAULT
 10
59.51452336713638
 20
-471.3154277801514
 30
158.692464054651
  0
VERTEX
  5
405
  8
DEFAULT
 10
59.49761793270673
 20
-471.3297723457217
 30
158.692464054651
  0
VERTEX
  5
406
  8
DEFAULT
 10
59.48107788965072
 20
-471.3444823026657
 30
158.692464054651
  0
VERTEX
  5
407
  8
DEFAULT
 10
59.46490368500318
 20
-471.3595580980182
 30
158.692464054651
  0
VERTEX
  5
408
  8
DEFAULT
 10
59.44909558698501
 20
-471.375
 30
158.692464054651
  0
VERTEX
  5
409
  8
DEFAULT
 10
59.43365368500318
 20
-471.3908080980182
 30
158.692464054651
  0
VERTEX
  5
40A
  8
DEFAULT
 10
59.41857788965072
 20
-471.4069823026657
 30
158.692464054651
  0
VERTEX
  5
40B
  8
DEFAULT
 10
59.40386793270673
 20
-471.4235223457217
 30
158.692464054651
  0
VERTEX
  5
40C
  8
DEFAULT
 10
59.38952336713638
 20
-471.4404277801514
 30
158.692464054651
  0
VERTEX
  5
40D
  8
DEFAULT
 10
59.37554356709089
 20
-471.4576979801059
 30
158.692464054651
  0
VERTEX
  5
40E
  8
DEFAULT
 10
59.36192772790756
 20
-471.4753321409225
 30
158.692464054651
  0
VERTEX
  5
40F
  8
DEFAULT
 10
59.34867486610976
 20
-471.4933292791247
 30
158.692464054651
  0
VERTEX
  5
410
  8
DEFAULT
 10
59.3357838194069
 20
-471.5116882324219
 30
158.692464054651
  0
VERTEX
  5
411
  8
DEFAULT
 10
59.32325324669448
 20
-471.5304076597095
 30
158.692464054651
  0
VERTEX
  5
412
  8
DEFAULT
 10
59.31108162805406
 20
-471.549486041069
 30
158.692464054651
  0
VERTEX
  5
413
  8
DEFAULT
 10
59.29926726475327
 20
-471.5689216777682
 30
158.692464054651
  0
VERTEX
  5
414
  8
DEFAULT
 10
59.28780827924578
 20
-471.5887126922607
 30
158.692464054651
  0
VERTEX
  5
415
  8
DEFAULT
 10
59.27670261517136
 20
-471.6088570281863
 30
158.692464054651
  0
VERTEX
  5
416
  8
DEFAULT
 10
59.26594803735583
 20
-471.6293524503708
 30
158.692464054651
  0
VERTEX
  5
417
  8
DEFAULT
 10
59.25554213181107
 20
-471.650196544826
 30
158.692464054651
  0
VERTEX
  5
418
  8
DEFAULT
 10
59.24548230573504
 20
-471.67138671875
 30
158.692464054651
  0
VERTEX
  5
419
  8
DEFAULT
 10
59.23576578751175
 20
-471.6929202005267
 30
158.692464054651
  0
VERTEX
  5
41A
  8
DEFAULT
 10
59.2263896267113
 20
-471.7147940397263
 30
158.692464054651
  0
VERTEX
  5
41B
  8
DEFAULT
 10
59.21735069408982
 20
-471.7370051071048
 30
158.692464054651
  0
VERTEX
  5
41C
  8
DEFAULT
 10
59.20864568158954
 20
-471.7595500946045
 30
158.692464054651
  0
VERTEX
  5
41D
  8
DEFAULT
 10
59.19222329065174
 20
-471.8056277036667
 30
158.692464054651
  0
VERTEX
  5
41E
  8
DEFAULT
 10
59.17709241315693
 20
-471.8529968261719
 30
158.692464054651
  0
VERTEX
  5
41F
  8
DEFAULT
 10
59.16322014734119
 20
-471.9016245603561
 30
158.692464054651
  0
VERTEX
  5
420
  8
DEFAULT
 10
59.15057073041768
 20
-471.9514751434326
 30
158.692464054651
  0
VERTEX
  5
421
  8
DEFAULT
 10
59.13910553857656
 20
-472.0025099515915
 30
158.692464054651
  0
VERTEX
  5
422
  8
DEFAULT
 10
59.12878308698507
 20
-472.0546875
 30
158.692464054651
  0
VERTEX
  5
423
  8
DEFAULT
 10
59.1195590297875
 20
-472.1079634428024
 30
158.692464054651
  0
VERTEX
  5
424
  8
DEFAULT
 10
59.11138616010519
 20
-472.1622905731201
 30
158.692464054651
  0
VERTEX
  5
425
  8
DEFAULT
 10
59.10421441003653
 20
-472.2176188230515
 30
158.692464054651
  0
VERTEX
  5
426
  8
DEFAULT
 10
59.09799085065696
 20
-472.2738952636719
 30
158.692464054651
  0
VERTEX
  5
427
  8
DEFAULT
 10
59.08816228315209
 20
-472.389066696167
 30
158.692464054651
  0
VERTEX
  5
428
  8
DEFAULT
 10
59.08141980573509
 20
-472.50732421875
 30
158.692464054651
  0
VERTEX
  5
429
  8
DEFAULT
 10
59.07504163190697
 20
-472.7509460449219
 30
158.692464054651
  0
VERTEX
  5
42A
  8
DEFAULT
 10
59.0740955869851
 20
-473.0
 30
158.692464054651
  0
VERTEX
  5
42B
  8
DEFAULT
 10
59.0740955869851
 20
-487.0
 30
158.692464054651
  0
VERTEX
  5
42C
  8
DEFAULT
 10
59.07504163190697
 20
-487.2490539550781
 30
158.692464054651
  0
VERTEX
  5
42D
  8
DEFAULT
 10
59.0814198057351
 20
-487.49267578125
 30
158.692464054651
  0
VERTEX
  5
42E
  8
DEFAULT
 10
59.0881622831521
 20
-487.610933303833
 30
158.692464054651
  0
VERTEX
  5
42F
  8
DEFAULT
 10
59.09799085065698
 20
-487.7261047363281
 30
158.692464054651
  0
VERTEX
  5
430
  8
DEFAULT
 10
59.10421441003656
 20
-487.7823811769485
 30
158.692464054651
  0
VERTEX
  5
431
  8
DEFAULT
 10
59.11138616010523
 20
-487.8377094268799
 30
158.692464054651
  0
VERTEX
  5
432
  8
DEFAULT
 10
59.11955902978754
 20
-487.8920365571976
 30
158.692464054651
  0
VERTEX
  5
433
  8
DEFAULT
 10
59.12878308698512
 20
-487.9453125
 30
158.692464054651
  0
VERTEX
  5
434
  8
DEFAULT
 10
59.13910553857662
 20
-487.9974900484085
 30
158.692464054651
  0
VERTEX
  5
435
  8
DEFAULT
 10
59.15057073041774
 20
-488.0485248565674
 30
158.692464054651
  0
VERTEX
  5
436
  8
DEFAULT
 10
59.16322014734126
 20
-488.0983754396439
 30
158.692464054651
  0
VERTEX
  5
437
  8
DEFAULT
 10
59.177092413157
 20
-488.1470031738281
 30
158.692464054651
  0
VERTEX
  5
438
  8
DEFAULT
 10
59.19222329065181
 20
-488.1943722963333
 30
158.692464054651
  0
VERTEX
  5
439
  8
DEFAULT
 10
59.20864568158962
 20
-488.2404499053955
 30
158.692464054651
  0
VERTEX
  5
43A
  8
DEFAULT
 10
59.2173506940899
 20
-488.2629948928952
 30
158.692464054651
  0
VERTEX
  5
43B
  8
DEFAULT
 10
59.22638962671138
 20
-488.2852059602737
 30
158.692464054651
  0
VERTEX
  5
43C
  8
DEFAULT
 10
59.23576578751185
 20
-488.3070797994733
 30
158.692464054651
  0
VERTEX
  5
43D
  8
DEFAULT
 10
59.24548230573513
 20
-488.32861328125
 30
158.692464054651
  0
VERTEX
  5
43E
  8
DEFAULT
 10
59.25554213181116
 20
-488.349803455174
 30
158.692464054651
  0
VERTEX
  5
43F
  8
DEFAULT
 10
59.26594803735593
 20
-488.3706475496292
 30
158.692464054651
  0
VERTEX
  5
440
  8
DEFAULT
 10
59.27670261517146
 20
-488.3911429718137
 30
158.692464054651
  0
VERTEX
  5
441
  8
DEFAULT
 10
59.28780827924588
 20
-488.4112873077393
 30
158.692464054651
  0
VERTEX
  5
442
  8
DEFAULT
 10
59.29926726475337
 20
-488.4310783222318
 30
158.692464054651
  0
VERTEX
  5
443
  8
DEFAULT
 10
59.31108162805417
 20
-488.450513958931
 30
158.692464054651
  0
VERTEX
  5
444
  8
DEFAULT
 10
59.32325324669459
 20
-488.4695923402905
 30
158.692464054651
  0
VERTEX
  5
445
  8
DEFAULT
 10
59.33578381940701
 20
-488.4883117675781
 30
158.692464054651
  0
VERTEX
  5
446
  8
DEFAULT
 10
59.34867486610987
 20
-488.5066707208753
 30
158.692464054651
  0
VERTEX
  5
447
  8
DEFAULT
 10
59.36192772790768
 20
-488.5246678590775
 30
158.692464054651
  0
VERTEX
  5
448
  8
DEFAULT
 10
59.37554356709101
 20
-488.5423020198941
 30
158.692464054651
  0
VERTEX
  5
449
  8
DEFAULT
 10
59.3895233671365
 20
-488.5595722198486
 30
158.692464054651
  0
VERTEX
  5
44A
  8
DEFAULT
 10
59.40386793270686
 20
-488.5764776542783
 30
158.692464054651
  0
VERTEX
  5
44B
  8
DEFAULT
 10
59.41857788965085
 20
-488.5930176973343
 30
158.692464054651
  0
VERTEX
  5
44C
  8
DEFAULT
 10
59.43365368500331
 20
-488.6091919019818
 30
158.692464054651
  0
VERTEX
  5
44D
  8
DEFAULT
 10
59.44909558698514
 20
-488.625
 30
158.692464054651
  0
VERTEX
  5
44E
  8
DEFAULT
 10
59.46490368500331
 20
-488.6404419019818
 30
158.692464054651
  0
VERTEX
  5
44F
  8
DEFAULT
 10
59.48107788965085
 20
-488.6555176973343
 30
158.692464054651
  0
VERTEX
  5
450
  8
DEFAULT
 10
59.49761793270686
 20
-488.6702276542783
 30
158.692464054651
  0
VERTEX
  5
451
  8
DEFAULT
 10
59.5145233671365
 20
-488.6845722198486
 30
158.692464054651
  0
VERTEX
  5
452
  8
DEFAULT
 10
59.53179356709101
 20
-488.6985520198941
 30
158.692464054651
  0
VERTEX
  5
453
  8
DEFAULT
 10
59.54942772790768
 20
-488.7121678590775
 30
158.692464054651
  0
VERTEX
  5
454
  8
DEFAULT
 10
59.56742486610987
 20
-488.7254207208753
 30
158.692464054651
  0
VERTEX
  5
455
  8
DEFAULT
 10
59.58578381940701
 20
-488.7383117675781
 30
158.692464054651
  0
VERTEX
  5
456
  8
DEFAULT
 10
59.60450324669459
 20
-488.7508423402905
 30
158.692464054651
  0
VERTEX
  5
457
  8
DEFAULT
 10
59.62358162805417
 20
-488.763013958931
 30
158.692464054651
  0
VERTEX
  5
458
  8
DEFAULT
 10
59.64301726475337
 20
-488.7748283222318
 30
158.692464054651
  0
VERTEX
  5
459
  8
DEFAULT
 10
59.66280827924588
 20
-488.7862873077393
 30
158.692464054651
  0
VERTEX
  5
45A
  8
DEFAULT
 10
59.68295261517146
 20
-488.7973929718137
 30
158.692464054651
  0
VERTEX
  5
45B
  8
DEFAULT
 10
59.70344803735593
 20
-488.8081475496292
 30
158.692464054651
  0
VERTEX
  5
45C
  8
DEFAULT
 10
59.72429213181117
 20
-488.818553455174
 30
158.692464054651
  0
VERTEX
  5
45D
  8
DEFAULT
 10
59.74548230573514
 20
-488.82861328125
 30
158.692464054651
  0
VERTEX
  5
45E
  8
DEFAULT
 10
59.76701578751185
 20
-488.8383297994733
 30
158.692464054651
  0
VERTEX
  5
45F
  8
DEFAULT
 10
59.78888962671139
 20
-488.8477059602737
 30
158.692464054651
  0
VERTEX
  5
460
  8
DEFAULT
 10
59.81110069408992
 20
-488.8567448928952
 30
158.692464054651
  0
VERTEX
  5
461
  8
DEFAULT
 10
59.83364568158963
 20
-488.8654499053955
 30
158.692464054651
  0
VERTEX
  5
462
  8
DEFAULT
 10
59.87972329065182
 20
-488.8818722963333
 30
158.692464054651
  0
VERTEX
  5
463
  8
DEFAULT
 10
59.92709241315701
 20
-488.8970031738281
 30
158.692464054651
  0
VERTEX
  5
464
  8
DEFAULT
 10
59.97572014734128
 20
-488.9108754396439
 30
158.692464054651
  0
VERTEX
  5
465
  8
DEFAULT
 10
60.02557073041775
 20
-488.9235248565674
 30
158.692464054651
  0
VERTEX
  5
466
  8
DEFAULT
 10
60.07660553857662
 20
-488.9349900484085
 30
158.692464054651
  0
VERTEX
  5
467
  8
DEFAULT
 10
60.12878308698513
 20
-488.9453125
 30
158.692464054651
  0
VERTEX
  5
468
  8
DEFAULT
 10
60.18205902978757
 20
-488.9545365571976
 30
158.692464054651
  0
VERTEX
  5
469
  8
DEFAULT
 10
60.23638616010525
 20
-488.9627094268799
 30
158.692464054651
  0
VERTEX
  5
46A
  8
DEFAULT
 10
60.29171441003659
 20
-488.9698811769485
 30
158.692464054651
  0
VERTEX
  5
46B
  8
DEFAULT
 10
60.347990850657
 20
-488.9761047363281
 30
158.692464054651
  0
VERTEX
  5
46C
  8
DEFAULT
 10
60.46316228315211
 20
-488.985933303833
 30
158.692464054651
  0
VERTEX
  5
46D
  8
DEFAULT
 10
60.58141980573511
 20
-488.99267578125
 30
158.692464054651
  0
VERTEX
  5
46E
  8
DEFAULT
 10
60.82504163190698
 20
-488.9990539550781
 30
158.692464054651
  0
VERTEX
  5
46F
  8
DEFAULT
 10
61.0740955869851
 20
-489.0
 30
158.692464054651
  0
VERTEX
  5
470
  8
DEFAULT
 10
67.3605823782538
 20
-489.0
 30
158.692464054651
  0
VERTEX
  5
471
  8
DEFAULT
 10
67.60963633333193
 20
-488.9990539550781
 30
158.692464054651
  0
VERTEX
  5
472
  8
DEFAULT
 10
67.85325815950381
 20
-488.99267578125
 30
158.692464054651
  0
VERTEX
  5
473
  8
DEFAULT
 10
67.97151568208682
 20
-488.985933303833
 30
158.692464054651
  0
VERTEX
  5
474
  8
DEFAULT
 10
68.08668711458193
 20
-488.9761047363281
 30
158.692464054651
  0
VERTEX
  5
475
  8
DEFAULT
 10
68.14296355520236
 20
-488.9698811769485
 30
158.692464054651
  0
VERTEX
  5
476
  8
DEFAULT
 10
68.19829180513369
 20
-488.9627094268799
 30
158.692464054651
  0
VERTEX
  5
477
  8
DEFAULT
 10
68.2526189354514
 20
-488.9545365571976
 30
158.692464054651
  0
VERTEX
  5
478
  8
DEFAULT
 10
68.30589487825382
 20
-488.9453125
 30
158.692464054651
  0
VERTEX
  5
479
  8
DEFAULT
 10
68.35807242666232
 20
-488.9349900484085
 30
158.692464054651
  0
VERTEX
  5
47A
  8
DEFAULT
 10
68.40910723482119
 20
-488.9235248565674
 30
158.692464054651
  0
VERTEX
  5
47B
  8
DEFAULT
 10
68.4589578178977
 20
-488.9108754396439
 30
158.692464054651
  0
VERTEX
  5
47C
  8
DEFAULT
 10
68.50758555208196
 20
-488.8970031738281
 30
158.692464054651
  0
VERTEX
  5
47D
  8
DEFAULT
 10
68.55495467458715
 20
-488.8818722963333
 30
158.692464054651
  0
VERTEX
  5
47E
  8
DEFAULT
 10
68.60103228364935
 20
-488.8654499053955
 30
158.692464054651
  0
VERTEX
  5
47F
  8
DEFAULT
 10
68.62357727114906
 20
-488.8567448928952
 30
158.692464054651
  0
VERTEX
  5
480
  8
DEFAULT
 10
68.64578833852758
 20
-488.8477059602737
 30
158.692464054651
  0
VERTEX
  5
481
  8
DEFAULT
 10
68.66766217772712
 20
-488.8383297994733
 30
158.692464054651
  0
VERTEX
  5
482
  8
DEFAULT
 10
68.68919565950384
 20
-488.82861328125
 30
158.692464054651
  0
VERTEX
  5
483
  8
DEFAULT
 10
68.71038583342781
 20
-488.818553455174
 30
158.692464054651
  0
VERTEX
  5
484
  8
DEFAULT
 10
68.73122992788305
 20
-488.8081475496292
 30
158.692464054651
  0
VERTEX
  5
485
  8
DEFAULT
 10
68.75172535006752
 20
-488.7973929718137
 30
158.692464054651
  0
VERTEX
  5
486
  8
DEFAULT
 10
68.7718696859931
 20
-488.7862873077393
 30
158.692464054651
  0
VERTEX
  5
487
  8
DEFAULT
 10
68.79166070048561
 20
-488.7748283222318
 30
158.692464054651
  0
VERTEX
  5
488
  8
DEFAULT
 10
68.81109633718484
 20
-488.763013958931
 30
158.692464054651
  0
VERTEX
  5
489
  8
DEFAULT
 10
68.83017471854441
 20
-488.7508423402905
 30
158.692464054651
  0
VERTEX
  5
48A
  8
DEFAULT
 10
68.84889414583199
 20
-488.7383117675781
 30
158.692464054651
  0
VERTEX
  5
48B
  8
DEFAULT
 10
68.86725309912913
 20
-488.7254207208753
 30
158.692464054651
  0
VERTEX
  5
48C
  8
DEFAULT
 10
68.88525023733132
 20
-488.7121678590775
 30
158.692464054651
  0
VERTEX
  5
48D
  8
DEFAULT
 10
68.90288439814799
 20
-488.6985520198941
 30
158.692464054651
  0
VERTEX
  5
48E
  8
DEFAULT
 10
68.92015459810249
 20
-488.6845722198486
 30
158.692464054651
  0
VERTEX
  5
48F
  8
DEFAULT
 10
68.93706003253212
 20
-488.6702276542783
 30
158.692464054651
  0
VERTEX
  5
490
  8
DEFAULT
 10
68.95360007558814
 20
-488.6555176973343
 30
158.692464054651
  0
VERTEX
  5
491
  8
DEFAULT
 10
68.96977428023568
 20
-488.6404419019818
 30
158.692464054651
  0
VERTEX
  5
492
  8
DEFAULT
 10
68.98558237825385
 20
-488.625
 30
158.692464054651
  0
VERTEX
  5
493
  8
DEFAULT
 10
69.00102428023568
 20
-488.6091919019818
 30
158.692464054651
  0
VERTEX
  5
494
  8
DEFAULT
 10
69.01610007558816
 20
-488.5930176973343
 30
158.692464054651
  0
VERTEX
  5
495
  8
DEFAULT
 10
69.03081003253214
 20
-488.5764776542783
 30
158.692464054651
  0
VERTEX
  5
496
  8
DEFAULT
 10
69.04515459810249
 20
-488.5595722198486
 30
158.692464054651
  0
VERTEX
  5
497
  8
DEFAULT
 10
69.05913439814798
 20
-488.5423020198941
 30
158.692464054651
  0
VERTEX
  5
498
  8
DEFAULT
 10
69.0727502373313
 20
-488.5246678590775
 30
158.692464054651
  0
VERTEX
  5
499
  8
DEFAULT
 10
69.0860030991291
 20
-488.5066707208753
 30
158.692464054651
  0
VERTEX
  5
49A
  8
DEFAULT
 10
69.09889414583198
 20
-488.4883117675781
 30
158.692464054651
  0
VERTEX
  5
49B
  8
DEFAULT
 10
69.11142471854438
 20
-488.4695923402905
 30
158.692464054651
  0
VERTEX
  5
49C
  8
DEFAULT
 10
69.12359633718481
 20
-488.450513958931
 30
158.692464054651
  0
VERTEX
  5
49D
  8
DEFAULT
 10
69.13541070048561
 20
-488.4310783222318
 30
158.692464054651
  0
VERTEX
  5
49E
  8
DEFAULT
 10
69.1468696859931
 20
-488.4112873077393
 30
158.692464054651
  0
VERTEX
  5
49F
  8
DEFAULT
 10
69.15797535006753
 20
-488.3911429718137
 30
158.692464054651
  0
VERTEX
  5
4A0
  8
DEFAULT
 10
69.16872992788308
 20
-488.3706475496292
 30
158.692464054651
  0
VERTEX
  5
4A1
  8
DEFAULT
 10
69.17913583342784
 20
-488.349803455174
 30
158.692464054651
  0
VERTEX
  5
4A2
  8
DEFAULT
 10
69.18919565950385
 20
-488.32861328125
 30
158.692464054651
  0
VERTEX
  5
4A3
  8
DEFAULT
 10
69.19891217772712
 20
-488.3070797994733
 30
158.692464054651
  0
VERTEX
  5
4A4
  8
DEFAULT
 10
69.2082883385276
 20
-488.2852059602737
 30
158.692464054651
  0
VERTEX
  5
4A5
  8
DEFAULT
 10
69.21732727114909
 20
-488.2629948928952
 30
158.692464054651
  0
VERTEX
  5
4A6
  8
DEFAULT
 10
69.22603228364937
 20
-488.2404499053955
 30
158.692464054651
  0
VERTEX
  5
4A7
  8
DEFAULT
 10
69.24245467458718
 20
-488.1943722963333
 30
158.692464054651
  0
VERTEX
  5
4A8
  8
DEFAULT
 10
69.25758555208199
 20
-488.1470031738281
 30
158.692464054651
  0
VERTEX
  5
4A9
  8
DEFAULT
 10
69.27145781789773
 20
-488.0983754396439
 30
158.692464054651
  0
VERTEX
  5
4AA
  8
DEFAULT
 10
69.28410723482125
 20
-488.0485248565674
 30
158.692464054651
  0
VERTEX
  5
4AB
  8
DEFAULT
 10
69.29557242666237
 20
-487.9974900484085
 30
158.692464054651
  0
VERTEX
  5
4AC
  8
DEFAULT
 10
69.30589487825387
 20
-487.9453125
 30
158.692464054651
  0
VERTEX
  5
4AD
  8
DEFAULT
 10
69.31511893545144
 20
-487.8920365571976
 30
158.692464054651
  0
VERTEX
  5
4AE
  8
DEFAULT
 10
69.32329180513375
 20
-487.8377094268799
 30
158.692464054651
  0
VERTEX
  5
4AF
  8
DEFAULT
 10
69.33046355520243
 20
-487.7823811769485
 30
158.692464054651
  0
VERTEX
  5
4B0
  8
DEFAULT
 10
69.33668711458199
 20
-487.7261047363281
 30
158.692464054651
  0
VERTEX
  5
4B1
  8
DEFAULT
 10
69.34651568208687
 20
-487.610933303833
 30
158.692464054651
  0
VERTEX
  5
4B2
  8
DEFAULT
 10
69.35325815950388
 20
-487.49267578125
 30
158.692464054651
  0
VERTEX
  5
4B3
  8
DEFAULT
 10
69.35963633333202
 20
-487.2490539550781
 30
158.692464054651
  0
VERTEX
  5
4B4
  8
DEFAULT
 10
69.3605823782539
 20
-487.0
 30
158.692464054651
  0
VERTEX
  5
4B5
  8
DEFAULT
 10
69.3605823782538
 20
-480.737646161748
 30
158.692464054651
 42
-1.019245066368305
  0
VERTEX
  5
4B6
  8
DEFAULT
 10
72.45945620928993
 20
-480.79672116096
 30
158.692464054651
  0
VERTEX
  5
4B7
  8
DEFAULT
 10
313.66752555996
 20
-485.394961451982
 30
158.692464054651
 42
0.4337233635270343
  0
SEQEND
  5
4B8
  8
DEFAULT
  0
ENDSEC
  0
EOF
