  0
SECTION
  2
HEADER
  9
$ACADVER
  1
AC1009
  9
$DWGCODEPAGE
  3
ansi_1252
  9
$INSBASE
 10
0.0
 20
0.0
 30
0.0
  9
$EXTMIN
 10
9.000000000000004
 20
-637.4999995820283
 30
-30.00000000003144
  9
$EXTMAX
 10
189.9938671903402
 20
-517.0
 30
-18.0
  9
$LIMMIN
 10
0.0
 20
0.0
  9
$LIMMAX
 10
12.0
 20
9.0
  9
$ORTHOMODE
 70
     0
  9
$REGENMODE
 70
     1
  9
$FILLMODE
 70
     1
  9
$QTEXTMODE
 70
     0
  9
$MIRRTEXT
 70
     1
  9
$DRAGMODE
 70
     2
  9
$LTSCALE
 40
1.0
  9
$OSMODE
 70
    37
  9
$ATTMODE
 70
     1
  9
$TEXTSIZE
 40
0.2
  9
$TRACEWID
 40
0.05
  9
$TEXTSTYLE
  7
STANDARD
  9
$CLAYER
  8
DEFAULT
  9
$CELTYPE
  6
BYLAYER
  9
$CECOLOR
 62
   256
  9
$DIMSCALE
 40
1.0
  9
$DIMASZ
 40
0.18
  9
$DIMEXO
 40
0.0625
  9
$DIMDLI
 40
0.38
  9
$DIMRND
 40
0.0
  9
$DIMDLE
 40
0.0
  9
$DIMEXE
 40
0.18
  9
$DIMTP
 40
0.0
  9
$DIMTM
 40
0.0
  9
$DIMTXT
 40
0.18
  9
$DIMCEN
 40
0.09
  9
$DIMTSZ
 40
0.0
  9
$DIMTOL
 70
     0
  9
$DIMLIM
 70
     0
  9
$DIMTIH
 70
     1
  9
$DIMTOH
 70
     1
  9
$DIMSE1
 70
     0
  9
$DIMSE2
 70
     0
  9
$DIMTAD
 70
     0
  9
$DIMZIN
 70
     0
  9
$DIMBLK
  1

  9
$DIMASO
 70
     1
  9
$DIMSHO
 70
     1
  9
$DIMPOST
  1

  9
$DIMAPOST
  1

  9
$DIMALT
 70
     0
  9
$DIMALTD
 70
     2
  9
$DIMALTF
 40
25.4
  9
$DIMLFAC
 40
1.0
  9
$DIMTOFL
 70
     0
  9
$DIMTVP
 40
0.0
  9
$DIMTIX
 70
     0
  9
$DIMSOXD
 70
     0
  9
$DIMSAH
 70
     0
  9
$DIMBLK1
  1

  9
$DIMBLK2
  1

  9
$DIMSTYLE
  2
STANDARD_ACAD
  9
$DIMCLRD
 70
     0
  9
$DIMCLRE
 70
     0
  9
$DIMCLRT
 70
     0
  9
$DIMTFAC
 40
1.0
  9
$DIMGAP
 40
0.09
  9
$LUNITS
 70
     2
  9
$LUPREC
 70
     3
  9
$SKETCHINC
 40
0.1
  9
$FILLETRAD
 40
0.0
  9
$AUNITS
 70
     0
  9
$AUPREC
 70
     0
  9
$MENU
  1
.
  9
$ELEVATION
 40
0.0
  9
$PELEVATION
 40
0.0
  9
$THICKNESS
 40
0.0
  9
$LIMCHECK
 70
     0
  9
$CHAMFERA
 40
0.0
  9
$CHAMFERB
 40
0.0
  9
$SKPOLY
 70
     0
  9
$TDCREATE
 40
2461061.752484653
  9
$TDUPDATE
 40
2461061.752524641
  9
$TDINDWG
 40
0.0000000116
  9
$TDUSRTIMER
 40
0.0000000116
  9
$USRTIMER
 70
     1
  9
$ANGBASE
 50
0.0
  9
$ANGDIR
 70
     0
  9
$PDMODE
 70
     0
  9
$PDSIZE
 40
0.0
  9
$PLINEWID
 40
0.0
  9
$COORDS
 70
     1
  9
$SPLFRAME
 70
     0
  9
$SPLINETYPE
 70
     6
  9
$SPLINESEGS
 70
     8
  9
$ATTDIA
 70
     0
  9
$ATTREQ
 70
     1
  9
$HANDLING
 70
     1
  9
$HANDSEED
  5
3BC
  9
$SURFTAB1
 70
     6
  9
$SURFTAB2
 70
     6
  9
$SURFTYPE
 70
     6
  9
$SURFU
 70
     6
  9
$SURFV
 70
     6
  9
$UCSNAME
  2

  9
$UCSORG
 10
0.0
 20
0.0
 30
0.0
  9
$UCSXDIR
 10
1.0
 20
0.0
 30
0.0
  9
$UCSYDIR
 10
0.0
 20
1.0
 30
0.0
  9
$PUCSNAME
  2

  9
$PUCSORG
 10
0.0
 20
0.0
 30
0.0
  9
$PUCSXDIR
 10
1.0
 20
0.0
 30
0.0
  9
$PUCSYDIR
 10
0.0
 20
1.0
 30
0.0
  9
$USERI1
 70
     0
  9
$USERI2
 70
     0
  9
$USERI3
 70
     0
  9
$USERI4
 70
     0
  9
$USERI5
 70
     0
  9
$USERR1
 40
0.0
  9
$USERR2
 40
0.0
  9
$USERR3
 40
0.0
  9
$USERR4
 40
0.0
  9
$USERR5
 40
0.0
  9
$WORLDVIEW
 70
     1
  9
$SHADEDGE
 70
     3
  9
$SHADEDIF
 70
    70
  9
$TILEMODE
 70
     1
  9
$MAXACTVP
 70
    64
  9
$PLIMCHECK
 70
     0
  9
$PEXTMIN
 10
1.000000000000000E+20
 20
1.000000000000000E+20
 30
1.000000000000000E+20
  9
$PEXTMAX
 10
-1.000000000000000E+20
 20
-1.000000000000000E+20
 30
-1.000000000000000E+20
  9
$PLIMMIN
 10
0.0
 20
0.0
  9
$PLIMMAX
 10
12.0
 20
9.0
  9
$UNITMODE
 70
     0
  9
$VISRETAIN
 70
     1
  9
$PLINEGEN
 70
     0
  9
$PSLTSCALE
 70
     1
  0
ENDSEC
  0
SECTION
  2
TABLES
  0
TABLE
  2
VPORT
 70
     1
  0
VPORT
  2
*ACTIVE
 70
     0
 10
0.0
 20
0.0
 11
1.0
 21
1.0
 12
10.42990654205607
 22
4.5
 13
0.0
 23
0.0
 14
0.5
 24
0.5
 15
0.5
 25
0.5
 16
0.0
 26
0.0
 36
1.0
 17
0.0
 27
0.0
 37
0.0
 40
9.0
 41
1.972972972850329
 42
50.0
 43
0.0
 44
0.0
 50
0.0
 51
0.0
 71
     0
 72
   100
 73
     1
 74
     3
 75
     0
 76
     0
 77
     0
 78
     0
  0
ENDTAB
  0
TABLE
  2
LTYPE
 70
     1
  0
LTYPE
  2
CONTINUOUS
 70
     0
  3
Solid line
 72
    65
 73
     0
 40
0.0
  0
ENDTAB
  0
TABLE
  2
LAYER
 70
     2
  0
LAYER
  2
0
 70
     0
 62
     7
  6
CONTINUOUS
  0
LAYER
  2
DEFAULT
 70
     0
 62
     7
  6
CONTINUOUS
  0
ENDTAB
  0
TABLE
  2
STYLE
 70
     1
  0
STYLE
  2
STANDARD
 70
     0
 40
0.0
 41
1.0
 50
0.0
 71
     0
 42
0.2
  3
txt
  4

  0
ENDTAB
  0
TABLE
  2
VIEW
 70
     0
  0
ENDTAB
  0
TABLE
  2
UCS
 70
     0
  0
ENDTAB
  0
TABLE
  2
APPID
 70
     2
  0
APPID
  2
ACAD
 70
     0
  0
APPID
  2
RHINO
 70
     0
  0
ENDTAB
  0
TABLE
  2
DIMSTYLE
 70
     1
  0
DIMSTYLE
  2
STANDARD_ACAD
 70
     0
  3

  4

  5

  6

  7

 40
1.0
 41
0.18
 42
0.0625
 43
0.38
 44
0.18
 45
0.0
 46
0.0
 47
0.0
 48
0.0
140
0.18
141
0.09
142
0.0
143
25.4
144
1.0
145
0.0
146
1.0
147
0.09
 71
     0
 72
     0
 73
     1
 74
     1
 75
     0
 76
     0
 77
     0
 78
     0
170
     0
171
     2
172
     0
173
     0
174
     0
175
     0
176
     0
177
     0
178
     0
  0
ENDTAB
  0
ENDSEC
  0
SECTION
  2
BLOCKS
  0
BLOCK
  8
0
  2
$MODEL_SPACE
 70
     0
 10
0.0
 20
0.0
 30
0.0
  3
$MODEL_SPACE
  1

  0
ENDBLK
  5
21
  8
0
  0
BLOCK
 67
     1
  8
0
  2
$PAPER_SPACE
 70
     0
 10
0.0
 20
0.0
 30
0.0
  3
$PAPER_SPACE
  1

  0
ENDBLK
  5
1D
 67
     1
  8
0
  0
ENDSEC
  0
SECTION
  2
ENTITIES
  0
CIRCLE
  5
60
  8
DEFAULT
 10
-174.9999999999997
 20
-615.4999999998955
 30
24.0
 40
3.049999999999955
210
0.0
220
0.0
230
-1.0
  0
CIRCLE
  5
61
  8
DEFAULT
 10
-24.00000000000001
 20
-615.4999999998957
 30
24.0
 40
3.049999999999994
210
0.0
220
0.0
230
-1.0
  0
POLYLINE
  5
62
  8
DEFAULT
 66
     1
 10
0.0
 20
0.0
 30
-24.0
 70
     1
  0
VERTEX
  5
63
  8
DEFAULT
 10
9.000000000000005
 20
-608.7160959050475
 30
-24.0
  0
VERTEX
  5
64
  8
DEFAULT
 10
9.000000000000004
 20
-634.4999995820281
 30
-24.0
  0
VERTEX
  5
65
  8
DEFAULT
 10
9.001419067382816
 20
-634.8735805146453
 30
-24.0
  0
VERTEX
  5
66
  8
DEFAULT
 10
9.010986328124996
 20
-635.2390132539031
 30
-24.0
  0
VERTEX
  5
67
  8
DEFAULT
 10
9.02110004425048
 20
-635.4163995377776
 30
-24.0
  0
VERTEX
  5
68
  8
DEFAULT
 10
9.035842895507797
 20
-635.5891566865201
 30
-24.0
  0
VERTEX
  5
69
  8
DEFAULT
 10
9.04517823457716
 20
-635.6735713474509
 30
-24.0
  0
VERTEX
  5
6A
  8
DEFAULT
 10
9.055935859680151
 20
-635.7565637223479
 30
-24.0
  0
VERTEX
  5
6B
  8
DEFAULT
 10
9.068195164203614
 20
-635.8380544178244
 30
-24.0
  0
VERTEX
  5
6C
  8
DEFAULT
 10
9.082031249999964
 20
-635.917968332028
 30
-24.0
  0
VERTEX
  5
6D
  8
DEFAULT
 10
9.097514927387198
 20
-635.9962346546407
 30
-24.0
  0
VERTEX
  5
6E
  8
DEFAULT
 10
9.11471271514888
 20
-636.0727868668791
 30
-24.0
  0
VERTEX
  5
6F
  8
DEFAULT
 10
9.133686840534157
 20
-636.1475627414939
 30
-24.0
  0
VERTEX
  5
70
  8
DEFAULT
 10
9.154495239257752
 20
-636.2205043427703
 30
-24.0
  0
VERTEX
  5
71
  8
DEFAULT
 10
9.177191555499961
 20
-636.291558026528
 30
-24.0
  0
VERTEX
  5
72
  8
DEFAULT
 10
9.201825141906664
 20
-636.3606744401213
 30
-24.0
  0
VERTEX
  5
73
  8
DEFAULT
 10
9.21488266065709
 20
-636.3944919213709
 30
-24.0
  0
VERTEX
  5
74
  8
DEFAULT
 10
9.228441059589302
 20
-636.4278085224387
 30
-24.0
  0
VERTEX
  5
75
  8
DEFAULT
 10
9.242505300789983
 20
-636.460619281238
 30
-24.0
  0
VERTEX
  5
76
  8
DEFAULT
 10
9.257080078124908
 20
-636.4929195039031
 30
-24.0
  0
VERTEX
  5
77
  8
DEFAULT
 10
9.27216981723895
 20
-636.524704764789
 30
-24.0
  0
VERTEX
  5
78
  8
DEFAULT
 10
9.287778675556083
 20
-636.5559709064719
 30
-24.0
  0
VERTEX
  5
79
  8
DEFAULT
 10
9.303910542279379
 20
-636.5867140397486
 30
-24.0
  0
VERTEX
  5
7A
  8
DEFAULT
 10
9.320569038391007
 20
-636.616930543637
 30
-24.0
  0
VERTEX
  5
7B
  8
DEFAULT
 10
9.337757516652236
 20
-636.6466170653757
 30
-24.0
  0
VERTEX
  5
7C
  8
DEFAULT
 10
9.355479061603432
 20
-636.6757705204245
 30
-24.0
  0
VERTEX
  5
7D
  8
DEFAULT
 10
9.373736489564063
 20
-636.7043880924639
 30
-24.0
  0
VERTEX
  5
7E
  8
DEFAULT
 10
9.39253234863269
 20
-636.7324672333953
 30
-24.0
  0
VERTEX
  5
7F
  8
DEFAULT
 10
9.411868918686977
 20
-636.760005663341
 30
-24.0
  0
VERTEX
  5
80
  8
DEFAULT
 10
9.431748211383688
 20
-636.7870013706444
 30
-24.0
  0
VERTEX
  5
81
  8
DEFAULT
 10
9.45217197015868
 20
-636.8134526118695
 30
-24.0
  0
VERTEX
  5
82
  8
DEFAULT
 10
9.473141670226912
 20
-636.8393579118012
 30
-24.0
  0
VERTEX
  5
83
  8
DEFAULT
 10
9.49465851858244
 20
-636.8647160634457
 30
-24.0
  0
VERTEX
  5
84
  8
DEFAULT
 10
9.51672345399842
 20
-636.8895261280295
 30
-24.0
  0
VERTEX
  5
85
  8
DEFAULT
 10
9.539337147027105
 20
-636.9137874350009
 30
-24.0
  0
VERTEX
  5
86
  8
DEFAULT
 10
9.562499999999847
 20
-636.9374995820282
 30
-24.0
  0
VERTEX
  5
87
  8
DEFAULT
 10
9.586212147027098
 20
-636.960662435001
 30
-24.0
  0
VERTEX
  5
88
  8
DEFAULT
 10
9.610473453998406
 20
-636.9832761280297
 30
-24.0
  0
VERTEX
  5
89
  8
DEFAULT
 10
9.635283518582419
 20
-637.0053410634457
 30
-24.0
  0
VERTEX
  5
8A
  8
DEFAULT
 10
9.660641670226884
 20
-637.0268579118011
 30
-24.0
  0
VERTEX
  5
8B
  8
DEFAULT
 10
9.686546970158645
 20
-637.0478276118693
 30
-24.0
  0
VERTEX
  5
8C
  8
DEFAULT
 10
9.712998211383647
 20
-637.0682513706442
 30
-24.0
  0
VERTEX
  5
8D
  8
DEFAULT
 10
9.739993918686931
 20
-637.088130663341
 30
-24.0
  0
VERTEX
  5
8E
  8
DEFAULT
 10
9.767532348632635
 20
-637.1074672333953
 30
-24.0
  0
VERTEX
  5
8F
  8
DEFAULT
 10
9.795611489564
 20
-637.126263092464
 30
-24.0
  0
VERTEX
  5
90
  8
DEFAULT
 10
9.824229061603361
 20
-637.1445205204246
 30
-24.0
  0
VERTEX
  5
91
  8
DEFAULT
 10
9.853382516652161
 20
-637.162242065376
 30
-24.0
  0
VERTEX
  5
92
  8
DEFAULT
 10
9.883069038390927
 20
-637.1794305436372
 30
-24.0
  0
VERTEX
  5
93
  8
DEFAULT
 10
9.913285542279294
 20
-637.1960890397488
 30
-24.0
  0
VERTEX
  5
94
  8
DEFAULT
 10
9.944028675555995
 20
-637.2122209064721
 30
-24.0
  0
VERTEX
  5
95
  8
DEFAULT
 10
9.975294817238854
 20
-637.2278297647892
 30
-24.0
  0
VERTEX
  5
96
  8
DEFAULT
 10
10.00708007812481
 20
-637.2429195039033
 30
-24.0
  0
VERTEX
  5
97
  8
DEFAULT
 10
10.03938030078988
 20
-637.2574942812382
 30
-24.0
  0
VERTEX
  5
98
  8
DEFAULT
 10
10.07219105958919
 20
-637.2715585224389
 30
-24.0
  0
VERTEX
  5
99
  8
DEFAULT
 10
10.10550766065698
 20
-637.2851169213711
 30
-24.0
  0
VERTEX
  5
9A
  8
DEFAULT
 10
10.13932514190654
 20
-637.2981744401216
 30
-24.0
  0
VERTEX
  5
9B
  8
DEFAULT
 10
10.20844155549984
 20
-637.3228080265283
 30
-24.0
  0
VERTEX
  5
9C
  8
DEFAULT
 10
10.27949523925762
 20
-637.3455043427705
 30
-24.0
  0
VERTEX
  5
9D
  8
DEFAULT
 10
10.35243684053402
 20
-637.3663127414941
 30
-24.0
  0
VERTEX
  5
9E
  8
DEFAULT
 10
10.42721271514874
 20
-637.3852868668794
 30
-24.0
  0
VERTEX
  5
9F
  8
DEFAULT
 10
10.50376492738705
 20
-637.4024846546411
 30
-24.0
  0
VERTEX
  5
A0
  8
DEFAULT
 10
10.58203124999982
 20
-637.4179683320283
 30
-24.0
  0
VERTEX
  5
A1
  8
DEFAULT
 10
10.66194516420347
 20
-637.4318044178247
 30
-24.0
  0
VERTEX
  5
A2
  8
DEFAULT
 10
10.74343585968001
 20
-637.4440637223481
 30
-24.0
  0
VERTEX
  5
A3
  8
DEFAULT
 10
10.82642823457702
 20
-637.4548213474511
 30
-24.0
  0
VERTEX
  5
A4
  8
DEFAULT
 10
10.91084289550766
 20
-637.4641566865205
 30
-24.0
  0
VERTEX
  5
A5
  8
DEFAULT
 10
11.08360004425036
 20
-637.4788995377778
 30
-24.0
  0
VERTEX
  5
A6
  8
DEFAULT
 10
11.26098632812489
 20
-637.4890132539033
 30
-24.0
  0
VERTEX
  5
A7
  8
DEFAULT
 10
11.62641906738276
 20
-637.4985805146455
 30
-24.0
  0
VERTEX
  5
A8
  8
DEFAULT
 10
12.00000000000001
 20
-637.4999995820283
 30
-24.0
  0
VERTEX
  5
A9
  8
DEFAULT
 10
186.9938671903401
 20
-637.4999995820281
 30
-24.0
  0
VERTEX
  5
AA
  8
DEFAULT
 10
187.3674481229573
 20
-637.4985805146453
 30
-24.0
  0
VERTEX
  5
AB
  8
DEFAULT
 10
187.7328808622152
 20
-637.4890132539031
 30
-24.0
  0
VERTEX
  5
AC
  8
DEFAULT
 10
187.9102671460897
 20
-637.4788995377776
 30
-24.0
  0
VERTEX
  5
AD
  8
DEFAULT
 10
188.0830242948323
 20
-637.4641566865203
 30
-24.0
  0
VERTEX
  5
AE
  8
DEFAULT
 10
188.167438955763
 20
-637.4548213474509
 30
-24.0
  0
VERTEX
  5
AF
  8
DEFAULT
 10
188.25043133066
 20
-637.4440637223479
 30
-24.0
  0
VERTEX
  5
B0
  8
DEFAULT
 10
188.3319220261365
 20
-637.4318044178244
 30
-24.0
  0
VERTEX
  5
B1
  8
DEFAULT
 10
188.4118359403402
 20
-637.4179683320281
 30
-24.0
  0
VERTEX
  5
B2
  8
DEFAULT
 10
188.4901022629529
 20
-637.4024846546408
 30
-24.0
  0
VERTEX
  5
B3
  8
DEFAULT
 10
188.5666544751913
 20
-637.3852868668791
 30
-24.0
  0
VERTEX
  5
B4
  8
DEFAULT
 10
188.641430349806
 20
-637.3663127414939
 30
-24.0
  0
VERTEX
  5
B5
  8
DEFAULT
 10
188.7143719510824
 20
-637.3455043427703
 30
-24.0
  0
VERTEX
  5
B6
  8
DEFAULT
 10
188.7854256348402
 20
-637.322808026528
 30
-24.0
  0
VERTEX
  5
B7
  8
DEFAULT
 10
188.8545420484335
 20
-637.2981744401213
 30
-24.0
  0
VERTEX
  5
B8
  8
DEFAULT
 10
188.888359529683
 20
-637.2851169213709
 30
-24.0
  0
VERTEX
  5
B9
  8
DEFAULT
 10
188.9216761307508
 20
-637.2715585224387
 30
-24.0
  0
VERTEX
  5
BA
  8
DEFAULT
 10
188.9544868895501
 20
-637.257494281238
 30
-24.0
  0
VERTEX
  5
BB
  8
DEFAULT
 10
188.9867871122152
 20
-637.2429195039031
 30
-24.0
  0
VERTEX
  5
BC
  8
DEFAULT
 10
189.0185723731012
 20
-637.227829764789
 30
-24.0
  0
VERTEX
  5
BD
  8
DEFAULT
 10
189.049838514784
 20
-637.2122209064719
 30
-24.0
  0
VERTEX
  5
BE
  8
DEFAULT
 10
189.0805816480607
 20
-637.1960890397486
 30
-24.0
  0
VERTEX
  5
BF
  8
DEFAULT
 10
189.1107981519491
 20
-637.179430543637
 30
-24.0
  0
VERTEX
  5
C0
  8
DEFAULT
 10
189.1404846736879
 20
-637.1622420653757
 30
-24.0
  0
VERTEX
  5
C1
  8
DEFAULT
 10
189.1696381287367
 20
-637.1445205204245
 30
-24.0
  0
VERTEX
  5
C2
  8
DEFAULT
 10
189.198255700776
 20
-637.1262630924639
 30
-24.0
  0
VERTEX
  5
C3
  8
DEFAULT
 10
189.2263348417074
 20
-637.1074672333953
 30
-24.0
  0
VERTEX
  5
C4
  8
DEFAULT
 10
189.2538732716531
 20
-637.088130663341
 30
-24.0
  0
VERTEX
  5
C5
  8
DEFAULT
 10
189.2808689789564
 20
-637.0682513706442
 30
-24.0
  0
VERTEX
  5
C6
  8
DEFAULT
 10
189.3073202201814
 20
-637.0478276118693
 30
-24.0
  0
VERTEX
  5
C7
  8
DEFAULT
 10
189.3332255201132
 20
-637.026857911801
 30
-24.0
  0
VERTEX
  5
C8
  8
DEFAULT
 10
189.3585836717576
 20
-637.0053410634455
 30
-24.0
  0
VERTEX
  5
C9
  8
DEFAULT
 10
189.3833937363416
 20
-636.9832761280295
 30
-24.0
  0
VERTEX
  5
CA
  8
DEFAULT
 10
189.407655043313
 20
-636.9606624350008
 30
-24.0
  0
VERTEX
  5
CB
  8
DEFAULT
 10
189.4313671903402
 20
-636.9374995820281
 30
-24.0
  0
VERTEX
  5
CC
  8
DEFAULT
 10
189.454530043313
 20
-636.9137874350008
 30
-24.0
  0
VERTEX
  5
CD
  8
DEFAULT
 10
189.4771437363416
 20
-636.8895261280295
 30
-24.0
  0
VERTEX
  5
CE
  8
DEFAULT
 10
189.4992086717576
 20
-636.8647160634455
 30
-24.0
  0
VERTEX
  5
CF
  8
DEFAULT
 10
189.5207255201132
 20
-636.839357911801
 30
-24.0
  0
VERTEX
  5
D0
  8
DEFAULT
 10
189.5416952201814
 20
-636.8134526118693
 30
-24.0
  0
VERTEX
  5
D1
  8
DEFAULT
 10
189.5621189789564
 20
-636.7870013706442
 30
-24.0
  0
VERTEX
  5
D2
  8
DEFAULT
 10
189.5819982716531
 20
-636.760005663341
 30
-24.0
  0
VERTEX
  5
D3
  8
DEFAULT
 10
189.6013348417074
 20
-636.7324672333953
 30
-24.0
  0
VERTEX
  5
D4
  8
DEFAULT
 10
189.620130700776
 20
-636.7043880924639
 30
-24.0
  0
VERTEX
  5
D5
  8
DEFAULT
 10
189.6383881287367
 20
-636.6757705204245
 30
-24.0
  0
VERTEX
  5
D6
  8
DEFAULT
 10
189.6561096736879
 20
-636.6466170653757
 30
-24.0
  0
VERTEX
  5
D7
  8
DEFAULT
 10
189.6732981519491
 20
-636.616930543637
 30
-24.0
  0
VERTEX
  5
D8
  8
DEFAULT
 10
189.6899566480607
 20
-636.5867140397486
 30
-24.0
  0
VERTEX
  5
D9
  8
DEFAULT
 10
189.706088514784
 20
-636.5559709064719
 30
-24.0
  0
VERTEX
  5
DA
  8
DEFAULT
 10
189.7216973731012
 20
-636.524704764789
 30
-24.0
  0
VERTEX
  5
DB
  8
DEFAULT
 10
189.7367871122152
 20
-636.4929195039031
 30
-24.0
  0
VERTEX
  5
DC
  8
DEFAULT
 10
189.7513618895501
 20
-636.460619281238
 30
-24.0
  0
VERTEX
  5
DD
  8
DEFAULT
 10
189.7654261307508
 20
-636.4278085224387
 30
-24.0
  0
VERTEX
  5
DE
  8
DEFAULT
 10
189.778984529683
 20
-636.3944919213709
 30
-24.0
  0
VERTEX
  5
DF
  8
DEFAULT
 10
189.7920420484335
 20
-636.3606744401213
 30
-24.0
  0
VERTEX
  5
E0
  8
DEFAULT
 10
189.8166756348402
 20
-636.291558026528
 30
-24.0
  0
VERTEX
  5
E1
  8
DEFAULT
 10
189.8393719510824
 20
-636.2205043427703
 30
-24.0
  0
VERTEX
  5
E2
  8
DEFAULT
 10
189.860180349806
 20
-636.1475627414939
 30
-24.0
  0
VERTEX
  5
E3
  8
DEFAULT
 10
189.8791544751913
 20
-636.0727868668791
 30
-24.0
  0
VERTEX
  5
E4
  8
DEFAULT
 10
189.896352262953
 20
-635.9962346546408
 30
-24.0
  0
VERTEX
  5
E5
  8
DEFAULT
 10
189.9118359403402
 20
-635.9179683320281
 30
-24.0
  0
VERTEX
  5
E6
  8
DEFAULT
 10
189.9256720261366
 20
-635.8380544178244
 30
-24.0
  0
VERTEX
  5
E7
  8
DEFAULT
 10
189.93793133066
 20
-635.7565637223479
 30
-24.0
  0
VERTEX
  5
E8
  8
DEFAULT
 10
189.948688955763
 20
-635.6735713474509
 30
-24.0
  0
VERTEX
  5
E9
  8
DEFAULT
 10
189.9580242948324
 20
-635.5891566865203
 30
-24.0
  0
VERTEX
  5
EA
  8
DEFAULT
 10
189.9727671460897
 20
-635.4163995377776
 30
-24.0
  0
VERTEX
  5
EB
  8
DEFAULT
 10
189.9828808622152
 20
-635.2390132539031
 30
-24.0
  0
VERTEX
  5
EC
  8
DEFAULT
 10
189.9924481229574
 20
-634.8735805146453
 30
-24.0
  0
VERTEX
  5
ED
  8
DEFAULT
 10
189.9938671903402
 20
-634.4999995820281
 30
-24.0
  0
VERTEX
  5
EE
  8
DEFAULT
 10
189.99386719034
 20
-608.7160959050475
 30
-24.0
  0
VERTEX
  5
EF
  8
DEFAULT
 10
189.9924481229572
 20
-608.3425149724303
 30
-24.0
  0
VERTEX
  5
F0
  8
DEFAULT
 10
189.982880862215
 20
-607.9770822331725
 30
-24.0
  0
VERTEX
  5
F1
  8
DEFAULT
 10
189.9727671460896
 20
-607.799695949298
 30
-24.0
  0
VERTEX
  5
F2
  8
DEFAULT
 10
189.9580242948322
 20
-607.6269388005553
 30
-24.0
  0
VERTEX
  5
F3
  8
DEFAULT
 10
189.9486889557629
 20
-607.5425241396247
 30
-24.0
  0
VERTEX
  5
F4
  8
DEFAULT
 10
189.9379313306599
 20
-607.4595317647277
 30
-24.0
  0
VERTEX
  5
F5
  8
DEFAULT
 10
189.9256720261364
 20
-607.3780410692511
 30
-24.0
  0
VERTEX
  5
F6
  8
DEFAULT
 10
189.91183594034
 20
-607.2981271550475
 30
-24.0
  0
VERTEX
  5
F7
  8
DEFAULT
 10
189.8963522629528
 20
-607.2198608324347
 30
-24.0
  0
VERTEX
  5
F8
  8
DEFAULT
 10
189.8791544751911
 20
-607.1433086201964
 30
-24.0
  0
VERTEX
  5
F9
  8
DEFAULT
 10
189.8601803498058
 20
-607.0685327455817
 30
-24.0
  0
VERTEX
  5
FA
  8
DEFAULT
 10
189.8393719510822
 20
-606.9955911443053
 30
-24.0
  0
VERTEX
  5
FB
  8
DEFAULT
 10
189.81667563484
 20
-606.9245374605475
 30
-24.0
  0
VERTEX
  5
FC
  8
DEFAULT
 10
189.7920420484333
 20
-606.8554210469542
 30
-24.0
  0
VERTEX
  5
FD
  8
DEFAULT
 10
189.7789845296829
 20
-606.8216035657047
 30
-24.0
  0
VERTEX
  5
FE
  8
DEFAULT
 10
189.7654261307507
 20
-606.7882869646369
 30
-24.0
  0
VERTEX
  5
FF
  8
DEFAULT
 10
189.75136188955
 20
-606.7554762058376
 30
-24.0
  0
VERTEX
  5
100
  8
DEFAULT
 10
189.736787112215
 20
-606.7231759831724
 30
-24.0
  0
VERTEX
  5
101
  8
DEFAULT
 10
189.721697373101
 20
-606.6913907222863
 30
-24.0
  0
VERTEX
  5
102
  8
DEFAULT
 10
189.7060885147839
 20
-606.6601245806035
 30
-24.0
  0
VERTEX
  5
103
  8
DEFAULT
 10
189.6899566480606
 20
-606.6293814473268
 30
-24.0
  0
VERTEX
  5
104
  8
DEFAULT
 10
189.6732981519489
 20
-606.5991649434384
 30
-24.0
  0
VERTEX
  5
105
  8
DEFAULT
 10
189.6561096736877
 20
-606.5694784216996
 30
-24.0
  0
VERTEX
  5
106
  8
DEFAULT
 10
189.6383881287365
 20
-606.5403249666508
 30
-24.0
  0
VERTEX
  5
107
  8
DEFAULT
 10
189.6201307007759
 20
-606.5117073946114
 30
-24.0
  0
VERTEX
  5
108
  8
DEFAULT
 10
189.6013348417073
 20
-606.4836282536801
 30
-24.0
  0
VERTEX
  5
109
  8
DEFAULT
 10
189.581998271653
 20
-606.4560898237344
 30
-24.0
  0
VERTEX
  5
10A
  8
DEFAULT
 10
189.5621189789563
 20
-606.4290941164311
 30
-24.0
  0
VERTEX
  5
10B
  8
DEFAULT
 10
189.5416952201813
 20
-606.4026428752061
 30
-24.0
  0
VERTEX
  5
10C
  8
DEFAULT
 10
189.520725520113
 20
-606.3767375752743
 30
-24.0
  0
VERTEX
  5
10D
  8
DEFAULT
 10
189.4992086717575
 20
-606.3513794236299
 30
-24.0
  0
VERTEX
  5
10E
  8
DEFAULT
 10
189.4771437363415
 20
-606.3265693590458
 30
-24.0
  0
VERTEX
  5
10F
  8
DEFAULT
 10
189.4545300433128
 20
-606.3023080520745
 30
-24.0
  0
VERTEX
  5
110
  8
DEFAULT
 10
189.4313671903401
 20
-606.2785959050473
 30
-24.0
  0
VERTEX
  5
111
  8
DEFAULT
 10
189.4076550433128
 20
-606.2554330520745
 30
-24.0
  0
VERTEX
  5
112
  8
DEFAULT
 10
189.3833937363415
 20
-606.2328193590458
 30
-24.0
  0
VERTEX
  5
113
  8
DEFAULT
 10
189.3585836717575
 20
-606.2107544236299
 30
-24.0
  0
VERTEX
  5
114
  8
DEFAULT
 10
189.333225520113
 20
-606.1892375752743
 30
-24.0
  0
VERTEX
  5
115
  8
DEFAULT
 10
189.3073202201813
 20
-606.1682678752061
 30
-24.0
  0
VERTEX
  5
116
  8
DEFAULT
 10
189.2808689789563
 20
-606.1478441164311
 30
-24.0
  0
VERTEX
  5
117
  8
DEFAULT
 10
189.253873271653
 20
-606.1279648237344
 30
-24.0
  0
VERTEX
  5
118
  8
DEFAULT
 10
189.2263348417073
 20
-606.1086282536801
 30
-24.0
  0
VERTEX
  5
119
  8
DEFAULT
 10
189.1982557007759
 20
-606.0898323946114
 30
-24.0
  0
VERTEX
  5
11A
  8
DEFAULT
 10
189.1696381287366
 20
-606.0715749666508
 30
-24.0
  0
VERTEX
  5
11B
  8
DEFAULT
 10
189.1404846736878
 20
-606.0538534216996
 30
-24.0
  0
VERTEX
  5
11C
  8
DEFAULT
 10
189.110798151949
 20
-606.0366649434384
 30
-24.0
  0
VERTEX
  5
11D
  8
DEFAULT
 10
189.0805816480606
 20
-606.0200064473268
 30
-24.0
  0
VERTEX
  5
11E
  8
DEFAULT
 10
189.0498385147839
 20
-606.0038745806035
 30
-24.0
  0
VERTEX
  5
11F
  8
DEFAULT
 10
189.0185723731011
 20
-605.9882657222863
 30
-24.0
  0
VERTEX
  5
120
  8
DEFAULT
 10
188.9867871122151
 20
-605.9731759831723
 30
-24.0
  0
VERTEX
  5
121
  8
DEFAULT
 10
188.9544868895501
 20
-605.9586012058373
 30
-24.0
  0
VERTEX
  5
122
  8
DEFAULT
 10
188.9216761307508
 20
-605.9445369646367
 30
-24.0
  0
VERTEX
  5
123
  8
DEFAULT
 10
188.888359529683
 20
-605.9309785657044
 30
-24.0
  0
VERTEX
  5
124
  8
DEFAULT
 10
188.8545420484334
 20
-605.917921046954
 30
-24.0
  0
VERTEX
  5
125
  8
DEFAULT
 10
188.7854256348401
 20
-605.8932874605473
 30
-24.0
  0
VERTEX
  5
126
  8
DEFAULT
 10
188.7143719510823
 20
-605.8705911443051
 30
-24.0
  0
VERTEX
  5
127
  8
DEFAULT
 10
188.6414303498059
 20
-605.8497827455815
 30
-24.0
  0
VERTEX
  5
128
  8
DEFAULT
 10
188.5666544751912
 20
-605.8308086201962
 30
-24.0
  0
VERTEX
  5
129
  8
DEFAULT
 10
188.4901022629529
 20
-605.8136108324345
 30
-24.0
  0
VERTEX
  5
12A
  8
DEFAULT
 10
188.4118359403401
 20
-605.7981271550473
 30
-24.0
  0
VERTEX
  5
12B
  8
DEFAULT
 10
188.3319220261365
 20
-605.7842910692509
 30
-24.0
  0
VERTEX
  5
12C
  8
DEFAULT
 10
188.2504313306599
 20
-605.7720317647274
 30
-24.0
  0
VERTEX
  5
12D
  8
DEFAULT
 10
188.1674389557629
 20
-605.7612741396244
 30
-24.0
  0
VERTEX
  5
12E
  8
DEFAULT
 10
188.0830242948323
 20
-605.7519388005551
 30
-24.0
  0
VERTEX
  5
12F
  8
DEFAULT
 10
187.9102671460896
 20
-605.7371959492978
 30
-24.0
  0
VERTEX
  5
130
  8
DEFAULT
 10
187.7328808622151
 20
-605.7270822331723
 30
-24.0
  0
VERTEX
  5
131
  8
DEFAULT
 10
187.3674481229573
 20
-605.7175149724301
 30
-24.0
  0
VERTEX
  5
132
  8
DEFAULT
 10
186.99386719034
 20
-605.7160959050473
 30
-24.0
  0
VERTEX
  5
133
  8
DEFAULT
 10
12.00000000000002
 20
-605.7160959050473
 30
-24.0
  0
VERTEX
  5
134
  8
DEFAULT
 10
11.62641906738279
 20
-605.7175149724301
 30
-24.0
  0
VERTEX
  5
135
  8
DEFAULT
 10
11.26098632812494
 20
-605.7270822331723
 30
-24.0
  0
VERTEX
  5
136
  8
DEFAULT
 10
11.08360004425042
 20
-605.7371959492978
 30
-24.0
  0
VERTEX
  5
137
  8
DEFAULT
 10
10.91084289550773
 20
-605.7519388005551
 30
-24.0
  0
VERTEX
  5
138
  8
DEFAULT
 10
10.82642823457709
 20
-605.7612741396244
 30
-24.0
  0
VERTEX
  5
139
  8
DEFAULT
 10
10.74343585968008
 20
-605.7720317647274
 30
-24.0
  0
VERTEX
  5
13A
  8
DEFAULT
 10
10.66194516420354
 20
-605.7842910692509
 30
-24.0
  0
VERTEX
  5
13B
  8
DEFAULT
 10
10.5820312499999
 20
-605.7981271550473
 30
-24.0
  0
VERTEX
  5
13C
  8
DEFAULT
 10
10.50376492738713
 20
-605.8136108324345
 30
-24.0
  0
VERTEX
  5
13D
  8
DEFAULT
 10
10.42721271514882
 20
-605.8308086201962
 30
-24.0
  0
VERTEX
  5
13E
  8
DEFAULT
 10
10.3524368405341
 20
-605.8497827455815
 30
-24.0
  0
VERTEX
  5
13F
  8
DEFAULT
 10
10.2794952392577
 20
-605.8705911443051
 30
-24.0
  0
VERTEX
  5
140
  8
DEFAULT
 10
10.20844155549991
 20
-605.8932874605473
 30
-24.0
  0
VERTEX
  5
141
  8
DEFAULT
 10
10.13932514190662
 20
-605.917921046954
 30
-24.0
  0
VERTEX
  5
142
  8
DEFAULT
 10
10.10550766065705
 20
-605.9309785657044
 30
-24.0
  0
VERTEX
  5
143
  8
DEFAULT
 10
10.07219105958927
 20
-605.9445369646367
 30
-24.0
  0
VERTEX
  5
144
  8
DEFAULT
 10
10.03938030078995
 20
-605.9586012058373
 30
-24.0
  0
VERTEX
  5
145
  8
DEFAULT
 10
10.00708007812488
 20
-605.9731759831723
 30
-24.0
  0
VERTEX
  5
146
  8
DEFAULT
 10
9.975294817238932
 20
-605.9882657222863
 30
-24.0
  0
VERTEX
  5
147
  8
DEFAULT
 10
9.94402867555607
 20
-606.0038745806035
 30
-24.0
  0
VERTEX
  5
148
  8
DEFAULT
 10
9.913285542279368
 20
-606.0200064473268
 30
-24.0
  0
VERTEX
  5
149
  8
DEFAULT
 10
9.883069038391001
 20
-606.0366649434384
 30
-24.0
  0
VERTEX
  5
14A
  8
DEFAULT
 10
9.853382516652236
 20
-606.0538534216996
 30
-24.0
  0
VERTEX
  5
14B
  8
DEFAULT
 10
9.824229061603436
 20
-606.0715749666509
 30
-24.0
  0
VERTEX
  5
14C
  8
DEFAULT
 10
9.795611489564074
 20
-606.0898323946116
 30
-24.0
  0
VERTEX
  5
14D
  8
DEFAULT
 10
9.767532348632706
 20
-606.1086282536803
 30
-24.0
  0
VERTEX
  5
14E
  8
DEFAULT
 10
9.739993918687002
 20
-606.1279648237346
 30
-24.0
  0
VERTEX
  5
14F
  8
DEFAULT
 10
9.712998211383717
 20
-606.1478441164313
 30
-24.0
  0
VERTEX
  5
150
  8
DEFAULT
 10
9.686546970158712
 20
-606.1682678752063
 30
-24.0
  0
VERTEX
  5
151
  8
DEFAULT
 10
9.660641670226951
 20
-606.1892375752744
 30
-24.0
  0
VERTEX
  5
152
  8
DEFAULT
 10
9.635283518582487
 20
-606.2107544236299
 30
-24.0
  0
VERTEX
  5
153
  8
DEFAULT
 10
9.61047345399847
 20
-606.2328193590458
 30
-24.0
  0
VERTEX
  5
154
  8
DEFAULT
 10
9.58621214702716
 20
-606.2554330520745
 30
-24.0
  0
VERTEX
  5
155
  8
DEFAULT
 10
9.562499999999908
 20
-606.2785959050474
 30
-24.0
  0
VERTEX
  5
156
  8
DEFAULT
 10
9.539337147027165
 20
-606.3023080520746
 30
-24.0
  0
VERTEX
  5
157
  8
DEFAULT
 10
9.516723453998479
 20
-606.3265693590461
 30
-24.0
  0
VERTEX
  5
158
  8
DEFAULT
 10
9.494658518582497
 20
-606.3513794236299
 30
-24.0
  0
VERTEX
  5
159
  8
DEFAULT
 10
9.473141670226969
 20
-606.3767375752743
 30
-24.0
  0
VERTEX
  5
15A
  8
DEFAULT
 10
9.452171970158734
 20
-606.4026428752061
 30
-24.0
  0
VERTEX
  5
15B
  8
DEFAULT
 10
9.431748211383741
 20
-606.4290941164311
 30
-24.0
  0
VERTEX
  5
15C
  8
DEFAULT
 10
9.411868918687029
 20
-606.4560898237344
 30
-24.0
  0
VERTEX
  5
15D
  8
DEFAULT
 10
9.392532348632738
 20
-606.4836282536801
 30
-24.0
  0
VERTEX
  5
15E
  8
DEFAULT
 10
9.373736489564108
 20
-606.5117073946114
 30
-24.0
  0
VERTEX
  5
15F
  8
DEFAULT
 10
9.355479061603475
 20
-606.5403249666508
 30
-24.0
  0
VERTEX
  5
160
  8
DEFAULT
 10
9.337757516652278
 20
-606.5694784216996
 30
-24.0
  0
VERTEX
  5
161
  8
DEFAULT
 10
9.32056903839105
 20
-606.5991649434384
 30
-24.0
  0
VERTEX
  5
162
  8
DEFAULT
 10
9.303910542279421
 20
-606.6293814473268
 30
-24.0
  0
VERTEX
  5
163
  8
DEFAULT
 10
9.287778675556124
 20
-606.6601245806035
 30
-24.0
  0
VERTEX
  5
164
  8
DEFAULT
 10
9.27216981723899
 20
-606.6913907222863
 30
-24.0
  0
VERTEX
  5
165
  8
DEFAULT
 10
9.257080078124947
 20
-606.7231759831724
 30
-24.0
  0
VERTEX
  5
166
  8
DEFAULT
 10
9.242505300790022
 20
-606.7554762058376
 30
-24.0
  0
VERTEX
  5
167
  8
DEFAULT
 10
9.228441059589338
 20
-606.7882869646369
 30
-24.0
  0
VERTEX
  5
168
  8
DEFAULT
 10
9.214882660657121
 20
-606.8216035657047
 30
-24.0
  0
VERTEX
  5
169
  8
DEFAULT
 10
9.201825141906696
 20
-606.8554210469542
 30
-24.0
  0
VERTEX
  5
16A
  8
DEFAULT
 10
9.177191555499991
 20
-606.9245374605475
 30
-24.0
  0
VERTEX
  5
16B
  8
DEFAULT
 10
9.154495239257777
 20
-606.9955911443053
 30
-24.0
  0
VERTEX
  5
16C
  8
DEFAULT
 10
9.13368684053418
 20
-607.0685327455817
 30
-24.0
  0
VERTEX
  5
16D
  8
DEFAULT
 10
9.114712715148901
 20
-607.1433086201964
 30
-24.0
  0
VERTEX
  5
16E
  8
DEFAULT
 10
9.097514927387216
 20
-607.2198608324347
 30
-24.0
  0
VERTEX
  5
16F
  8
DEFAULT
 10
9.082031249999982
 20
-607.2981271550475
 30
-24.0
  0
VERTEX
  5
170
  8
DEFAULT
 10
9.06819516420363
 20
-607.3780410692511
 30
-24.0
  0
VERTEX
  5
171
  8
DEFAULT
 10
9.055935859680165
 20
-607.4595317647277
 30
-24.0
  0
VERTEX
  5
172
  8
DEFAULT
 10
9.045178234577172
 20
-607.5425241396247
 30
-24.0
  0
VERTEX
  5
173
  8
DEFAULT
 10
9.035842895507809
 20
-607.6269388005553
 30
-24.0
  0
VERTEX
  5
174
  8
DEFAULT
 10
9.021100044250488
 20
-607.799695949298
 30
-24.0
  0
VERTEX
  5
175
  8
DEFAULT
 10
9.010986328125004
 20
-607.9770822331725
 30
-24.0
  0
VERTEX
  5
176
  8
DEFAULT
 10
9.00141906738282
 20
-608.3425149724303
 30
-24.0
  0
SEQEND
  5
177
  8
DEFAULT
  0
POLYLINE
  5
178
  8
DEFAULT
 66
     1
 10
0.0
 20
0.0
 30
-18.00000000000001
 70
     1
  0
VERTEX
  5
179
  8
DEFAULT
 10
38.29593603342575
 20
-594.0000000000002
 30
-18.00000000000001
 42
-1.000000000000084
  0
VERTEX
  5
17A
  8
DEFAULT
 10
43.7040639665738
 20
-594.0000000000002
 30
-18.00000000000001
  0
VERTEX
  5
17B
  8
DEFAULT
 10
55.99999999999952
 20
-594.0000000000002
 30
-18.00000000000001
  0
VERTEX
  5
17C
  8
DEFAULT
 10
56.37358093261665
 20
-593.9985809326174
 30
-18.00000000000001
  0
VERTEX
  5
17D
  8
DEFAULT
 10
56.73901367187442
 20
-593.9890136718752
 30
-18.00000000000001
  0
VERTEX
  5
17E
  8
DEFAULT
 10
56.91639995574891
 20
-593.9788999557497
 30
-18.00000000000001
  0
VERTEX
  5
17F
  8
DEFAULT
 10
57.08915710449156
 20
-593.9641571044923
 30
-18.00000000000001
  0
VERTEX
  5
180
  8
DEFAULT
 10
57.17357176542218
 20
-593.9548217654228
 30
-18.00000000000001
  0
VERTEX
  5
181
  8
DEFAULT
 10
57.25656414031918
 20
-593.94406414032
 30
-18.00000000000001
  0
VERTEX
  5
182
  8
DEFAULT
 10
57.33805483579571
 20
-593.9318048357966
 30
-18.00000000000001
  0
VERTEX
  5
183
  8
DEFAULT
 10
57.41796874999935
 20
-593.9179687500001
 30
-18.00000000000001
  0
VERTEX
  5
184
  8
DEFAULT
 10
57.4962350726121
 20
-593.9024850726129
 30
-18.00000000000001
  0
VERTEX
  5
185
  8
DEFAULT
 10
57.57278728485041
 20
-593.8852872848512
 30
-18.00000000000001
  0
VERTEX
  5
186
  8
DEFAULT
 10
57.64756315946513
 20
-593.866313159466
 30
-18.00000000000001
  0
VERTEX
  5
187
  8
DEFAULT
 10
57.72050476074152
 20
-593.8455047607424
 30
-18.00000000000001
  0
VERTEX
  5
188
  8
DEFAULT
 10
57.7915584444993
 20
-593.8228084445002
 30
-18.00000000000001
  0
VERTEX
  5
189
  8
DEFAULT
 10
57.8606748580926
 20
-593.7981748580935
 30
-18.00000000000001
  0
VERTEX
  5
18A
  8
DEFAULT
 10
57.89449233934218
 20
-593.7851173393431
 30
-18.00000000000001
  0
VERTEX
  5
18B
  8
DEFAULT
 10
57.92780894040996
 20
-593.7715589404108
 30
-18.00000000000001
  0
VERTEX
  5
18C
  8
DEFAULT
 10
57.96061969920927
 20
-593.7574946992102
 30
-18.00000000000001
  0
VERTEX
  5
18D
  8
DEFAULT
 10
57.99291992187435
 20
-593.7429199218752
 30
-18.00000000000001
  0
VERTEX
  5
18E
  8
DEFAULT
 10
58.0247051827603
 20
-593.7278301827612
 30
-18.00000000000001
  0
VERTEX
  5
18F
  8
DEFAULT
 10
58.05597132444316
 20
-593.712221324444
 30
-18.00000000000001
  0
VERTEX
  5
190
  8
DEFAULT
 10
58.08671445771986
 20
-593.6960894577207
 30
-18.00000000000001
  0
VERTEX
  5
191
  8
DEFAULT
 10
58.11693096160824
 20
-593.6794309616091
 30
-18.00000000000001
  0
VERTEX
  5
192
  8
DEFAULT
 10
58.14661748334701
 20
-593.6622424833479
 30
-18.00000000000001
  0
VERTEX
  5
193
  8
DEFAULT
 10
58.17577093839581
 20
-593.6445209383967
 30
-18.00000000000001
  0
VERTEX
  5
194
  8
DEFAULT
 10
58.20438851043518
 20
-593.626263510436
 30
-18.00000000000001
  0
VERTEX
  5
195
  8
DEFAULT
 10
58.23246765136655
 20
-593.6074676513674
 30
-18.00000000000001
  0
VERTEX
  5
196
  8
DEFAULT
 10
58.26000608131226
 20
-593.5881310813131
 30
-18.00000000000001
  0
VERTEX
  5
197
  8
DEFAULT
 10
58.28700178861555
 20
-593.5682517886164
 30
-18.00000000000001
  0
VERTEX
  5
198
  8
DEFAULT
 10
58.31345302984056
 20
-593.5478280298414
 30
-18.00000000000001
  0
VERTEX
  5
199
  8
DEFAULT
 10
58.33935832977232
 20
-593.5268583297732
 30
-18.00000000000001
  0
VERTEX
  5
19A
  8
DEFAULT
 10
58.36471648141679
 20
-593.5053414814176
 30
-18.00000000000001
  0
VERTEX
  5
19B
  8
DEFAULT
 10
58.38952654600081
 20
-593.4832765460017
 30
-18.00000000000001
  0
VERTEX
  5
19C
  8
DEFAULT
 10
58.41378785297213
 20
-593.460662852973
 30
-18.00000000000001
  0
VERTEX
  5
19D
  8
DEFAULT
 10
58.43749999999939
 20
-593.4375000000002
 30
-18.00000000000001
  0
VERTEX
  5
19E
  8
DEFAULT
 10
58.46066285297215
 20
-593.413787852973
 30
-18.00000000000001
  0
VERTEX
  5
19F
  8
DEFAULT
 10
58.48327654600084
 20
-593.3895265460017
 30
-18.00000000000001
  0
VERTEX
  5
1A0
  8
DEFAULT
 10
58.50534148141682
 20
-593.3647164814176
 30
-18.00000000000001
  0
VERTEX
  5
1A1
  8
DEFAULT
 10
58.52685832977235
 20
-593.3393583297732
 30
-18.00000000000001
  0
VERTEX
  5
1A2
  8
DEFAULT
 10
58.54782802984059
 20
-593.3134530298414
 30
-18.00000000000001
  0
VERTEX
  5
1A3
  8
DEFAULT
 10
58.5682517886156
 20
-593.2870017886164
 30
-18.00000000000001
  0
VERTEX
  5
1A4
  8
DEFAULT
 10
58.58813108131231
 20
-593.2600060813131
 30
-18.00000000000001
  0
VERTEX
  5
1A5
  8
DEFAULT
 10
58.60746765136661
 20
-593.2324676513674
 30
-18.00000000000001
  0
VERTEX
  5
1A6
  8
DEFAULT
 10
58.62626351043525
 20
-593.204388510436
 30
-18.00000000000001
  0
VERTEX
  5
1A7
  8
DEFAULT
 10
58.64452093839589
 20
-593.1757709383967
 30
-18.00000000000001
  0
VERTEX
  5
1A8
  8
DEFAULT
 10
58.6622424833471
 20
-593.1466174833479
 30
-18.00000000000001
  0
VERTEX
  5
1A9
  8
DEFAULT
 10
58.67943096160833
 20
-593.1169309616091
 30
-18.00000000000001
  0
VERTEX
  5
1AA
  8
DEFAULT
 10
58.69608945771996
 20
-593.0867144577207
 30
-18.00000000000001
  0
VERTEX
  5
1AB
  8
DEFAULT
 10
58.71222132444327
 20
-593.055971324444
 30
-18.00000000000001
  0
VERTEX
  5
1AC
  8
DEFAULT
 10
58.72783018276041
 20
-593.0247051827612
 30
-18.00000000000001
  0
VERTEX
  5
1AD
  8
DEFAULT
 10
58.74291992187446
 20
-592.9929199218752
 30
-18.00000000000001
  0
VERTEX
  5
1AE
  8
DEFAULT
 10
58.75749469920939
 20
-592.9606196992102
 30
-18.00000000000001
  0
VERTEX
  5
1AF
  8
DEFAULT
 10
58.77155894041007
 20
-592.9278089404108
 30
-18.00000000000001
  0
VERTEX
  5
1B0
  8
DEFAULT
 10
58.7851173393423
 20
-592.8944923393431
 30
-18.00000000000001
  0
VERTEX
  5
1B1
  8
DEFAULT
 10
58.79817485809274
 20
-592.8606748580935
 30
-18.00000000000001
  0
VERTEX
  5
1B2
  8
DEFAULT
 10
58.82280844449944
 20
-592.7915584445002
 30
-18.00000000000001
  0
VERTEX
  5
1B3
  8
DEFAULT
 10
58.84550476074168
 20
-592.7205047607424
 30
-18.00000000000001
  0
VERTEX
  5
1B4
  8
DEFAULT
 10
58.86631315946529
 20
-592.647563159466
 30
-18.00000000000001
  0
VERTEX
  5
1B5
  8
DEFAULT
 10
58.88528728485057
 20
-592.5727872848513
 30
-18.00000000000001
  0
VERTEX
  5
1B6
  8
DEFAULT
 10
58.90248507261227
 20
-592.496235072613
 30
-18.00000000000001
  0
VERTEX
  5
1B7
  8
DEFAULT
 10
58.91796874999952
 20
-592.4179687500002
 30
-18.00000000000001
  0
VERTEX
  5
1B8
  8
DEFAULT
 10
58.93180483579588
 20
-592.3380548357966
 30
-18.00000000000001
  0
VERTEX
  5
1B9
  8
DEFAULT
 10
58.94406414031936
 20
-592.2565641403202
 30
-18.00000000000001
  0
VERTEX
  5
1BA
  8
DEFAULT
 10
58.95482176542235
 20
-592.1735717654233
 30
-18.00000000000001
  0
VERTEX
  5
1BB
  8
DEFAULT
 10
58.96415710449173
 20
-592.0891571044925
 30
-18.00000000000001
  0
VERTEX
  5
1BC
  8
DEFAULT
 10
58.97889995574906
 20
-591.91639995575
 30
-18.00000000000001
  0
VERTEX
  5
1BD
  8
DEFAULT
 10
58.98901367187455
 20
-591.7390136718755
 30
-18.00000000000001
  0
VERTEX
  5
1BE
  8
DEFAULT
 10
58.99858093261675
 20
-591.3735809326176
 30
-18.00000000000001
  0
VERTEX
  5
1BF
  8
DEFAULT
 10
58.99999999999956
 20
-591.0000000000003
 30
-18.00000000000001
  0
VERTEX
  5
1C0
  8
DEFAULT
 10
58.99999999999956
 20
-562.0000000000002
 30
-18.00000000000001
  0
VERTEX
  5
1C1
  8
DEFAULT
 10
58.99858093261675
 20
-561.626419067383
 30
-18.00000000000001
  0
VERTEX
  5
1C2
  8
DEFAULT
 10
58.98901367187457
 20
-561.2609863281252
 30
-18.00000000000001
  0
VERTEX
  5
1C3
  8
DEFAULT
 10
58.97889995574909
 20
-561.0836000442507
 30
-18.00000000000001
  0
VERTEX
  5
1C4
  8
DEFAULT
 10
58.96415710449178
 20
-560.9108428955082
 30
-18.00000000000001
  0
VERTEX
  5
1C5
  8
DEFAULT
 10
58.95482176542241
 20
-560.8264282345774
 30
-18.00000000000001
  0
VERTEX
  5
1C6
  8
DEFAULT
 10
58.94406414031943
 20
-560.7434358596804
 30
-18.00000000000001
  0
VERTEX
  5
1C7
  8
DEFAULT
 10
58.93180483579596
 20
-560.6619451642039
 30
-18.00000000000001
  0
VERTEX
  5
1C8
  8
DEFAULT
 10
58.9179687499996
 20
-560.5820312500003
 30
-18.00000000000001
  0
VERTEX
  5
1C9
  8
DEFAULT
 10
58.90248507261237
 20
-560.5037649273876
 30
-18.00000000000001
  0
VERTEX
  5
1CA
  8
DEFAULT
 10
58.88528728485069
 20
-560.4272127151492
 30
-18.00000000000001
  0
VERTEX
  5
1CB
  8
DEFAULT
 10
58.86631315946541
 20
-560.3524368405344
 30
-18.00000000000001
  0
VERTEX
  5
1CC
  8
DEFAULT
 10
58.84550476074181
 20
-560.279495239258
 30
-18.00000000000001
  0
VERTEX
  5
1CD
  8
DEFAULT
 10
58.8228084444996
 20
-560.2084415555003
 30
-18.00000000000001
  0
VERTEX
  5
1CE
  8
DEFAULT
 10
58.79817485809289
 20
-560.139325141907
 30
-18.00000000000001
  0
VERTEX
  5
1CF
  8
DEFAULT
 10
58.78511733934246
 20
-560.1055076606574
 30
-18.00000000000001
  0
VERTEX
  5
1D0
  8
DEFAULT
 10
58.77155894041024
 20
-560.0721910595896
 30
-18.00000000000001
  0
VERTEX
  5
1D1
  8
DEFAULT
 10
58.75749469920957
 20
-560.0393803007903
 30
-18.00000000000001
  0
VERTEX
  5
1D2
  8
DEFAULT
 10
58.74291992187464
 20
-560.0070800781252
 30
-18.00000000000001
  0
VERTEX
  5
1D3
  8
DEFAULT
 10
58.72783018276061
 20
-559.9752948172393
 30
-18.00000000000001
  0
VERTEX
  5
1D4
  8
DEFAULT
 10
58.71222132444347
 20
-559.9440286755564
 30
-18.00000000000001
  0
VERTEX
  5
1D5
  8
DEFAULT
 10
58.69608945772017
 20
-559.9132855422797
 30
-18.00000000000001
  0
VERTEX
  5
1D6
  8
DEFAULT
 10
58.67943096160855
 20
-559.8830690383913
 30
-18.00000000000001
  0
VERTEX
  5
1D7
  8
DEFAULT
 10
58.66224248334731
 20
-559.8533825166526
 30
-18.00000000000001
  0
VERTEX
  5
1D8
  8
DEFAULT
 10
58.64452093839611
 20
-559.8242290616038
 30
-18.00000000000001
  0
VERTEX
  5
1D9
  8
DEFAULT
 10
58.62626351043548
 20
-559.7956114895644
 30
-18.00000000000001
  0
VERTEX
  5
1DA
  8
DEFAULT
 10
58.60746765136685
 20
-559.767532348633
 30
-18.00000000000001
  0
VERTEX
  5
1DB
  8
DEFAULT
 10
58.58813108131255
 20
-559.7399939186873
 30
-18.00000000000001
  0
VERTEX
  5
1DC
  8
DEFAULT
 10
58.56825178861584
 20
-559.7129982113839
 30
-18.00000000000001
  0
VERTEX
  5
1DD
  8
DEFAULT
 10
58.54782802984084
 20
-559.6865469701588
 30
-18.00000000000001
  0
VERTEX
  5
1DE
  8
DEFAULT
 10
58.52685832977262
 20
-559.660641670227
 30
-18.00000000000001
  0
VERTEX
  5
1DF
  8
DEFAULT
 10
58.50534148141709
 20
-559.6352835185826
 30
-18.00000000000001
  0
VERTEX
  5
1E0
  8
DEFAULT
 10
58.48327654600111
 20
-559.6104734539988
 30
-18.00000000000001
  0
VERTEX
  5
1E1
  8
DEFAULT
 10
58.46066285297242
 20
-559.5862121470274
 30
-18.00000000000001
  0
VERTEX
  5
1E2
  8
DEFAULT
 10
58.43749999999967
 20
-559.5625000000001
 30
-18.00000000000001
  0
VERTEX
  5
1E3
  8
DEFAULT
 10
58.41378785297242
 20
-559.5393371470273
 30
-18.00000000000001
  0
VERTEX
  5
1E4
  8
DEFAULT
 10
58.38952654600111
 20
-559.5167234539986
 30
-18.00000000000001
  0
VERTEX
  5
1E5
  8
DEFAULT
 10
58.3647164814171
 20
-559.4946585185826
 30
-18.00000000000001
  0
VERTEX
  5
1E6
  8
DEFAULT
 10
58.33935832977264
 20
-559.4731416702272
 30
-18.00000000000001
  0
VERTEX
  5
1E7
  8
DEFAULT
 10
58.31345302984087
 20
-559.452171970159
 30
-18.00000000000001
  0
VERTEX
  5
1E8
  8
DEFAULT
 10
58.28700178861587
 20
-559.431748211384
 30
-18.00000000000001
  0
VERTEX
  5
1E9
  8
DEFAULT
 10
58.26000608131258
 20
-559.4118689186873
 30
-18.00000000000001
  0
VERTEX
  5
1EA
  8
DEFAULT
 10
58.23246765136687
 20
-559.392532348633
 30
-18.00000000000001
  0
VERTEX
  5
1EB
  8
DEFAULT
 10
58.20438851043551
 20
-559.3737364895643
 30
-18.00000000000001
  0
VERTEX
  5
1EC
  8
DEFAULT
 10
58.17577093839614
 20
-559.3554790616037
 30
-18.00000000000001
  0
VERTEX
  5
1ED
  8
DEFAULT
 10
58.14661748334734
 20
-559.3377575166523
 30
-18.00000000000001
  0
VERTEX
  5
1EE
  8
DEFAULT
 10
58.11693096160857
 20
-559.3205690383911
 30
-18.00000000000001
  0
VERTEX
  5
1EF
  8
DEFAULT
 10
58.08671445772021
 20
-559.3039105422795
 30
-18.00000000000001
  0
VERTEX
  5
1F0
  8
DEFAULT
 10
58.0559713244435
 20
-559.2877786755562
 30
-18.00000000000001
  0
VERTEX
  5
1F1
  8
DEFAULT
 10
58.02470518276064
 20
-559.272169817239
 30
-18.00000000000001
  0
VERTEX
  5
1F2
  8
DEFAULT
 10
57.99291992187469
 20
-559.257080078125
 30
-18.00000000000001
  0
VERTEX
  5
1F3
  8
DEFAULT
 10
57.96061969920962
 20
-559.2425053007901
 30
-18.00000000000001
  0
VERTEX
  5
1F4
  8
DEFAULT
 10
57.9278089404103
 20
-559.2284410595894
 30
-18.00000000000001
  0
VERTEX
  5
1F5
  8
DEFAULT
 10
57.89449233934252
 20
-559.2148826606572
 30
-18.00000000000001
  0
VERTEX
  5
1F6
  8
DEFAULT
 10
57.86067485809295
 20
-559.2018251419067
 30
-18.00000000000001
  0
VERTEX
  5
1F7
  8
DEFAULT
 10
57.79155844449964
 20
-559.1771915555
 30
-18.00000000000001
  0
VERTEX
  5
1F8
  8
DEFAULT
 10
57.72050476074186
 20
-559.1544952392578
 30
-18.00000000000001
  0
VERTEX
  5
1F9
  8
DEFAULT
 10
57.64756315946546
 20
-559.1336868405342
 30
-18.00000000000001
  0
VERTEX
  5
1FA
  8
DEFAULT
 10
57.57278728485075
 20
-559.1147127151489
 30
-18.00000000000001
  0
VERTEX
  5
1FB
  8
DEFAULT
 10
57.49623507261243
 20
-559.0975149273872
 30
-18.00000000000001
  0
VERTEX
  5
1FC
  8
DEFAULT
 10
57.41796874999966
 20
-559.08203125
 30
-18.00000000000001
  0
VERTEX
  5
1FD
  8
DEFAULT
 10
57.33805483579601
 20
-559.0681951642036
 30
-18.00000000000001
  0
VERTEX
  5
1FE
  8
DEFAULT
 10
57.25656414031947
 20
-559.0559358596802
 30
-18.00000000000001
  0
VERTEX
  5
1FF
  8
DEFAULT
 10
57.17357176542247
 20
-559.0451782345772
 30
-18.00000000000001
  0
VERTEX
  5
200
  8
DEFAULT
 10
57.08915710449182
 20
-559.0358428955078
 30
-18.00000000000001
  0
VERTEX
  5
201
  8
DEFAULT
 10
56.91639995574912
 20
-559.0211000442505
 30
-18.00000000000001
  0
VERTEX
  5
202
  8
DEFAULT
 10
56.73901367187459
 20
-559.010986328125
 30
-18.00000000000001
  0
VERTEX
  5
203
  8
DEFAULT
 10
56.37358093261673
 20
-559.0014190673828
 30
-18.00000000000001
  0
VERTEX
  5
204
  8
DEFAULT
 10
55.99999999999949
 20
-559.0
 30
-18.00000000000001
  0
VERTEX
  5
205
  8
DEFAULT
 10
26.0
 20
-559.0
 30
-18.00000000000001
  0
VERTEX
  5
206
  8
DEFAULT
 10
25.62641906738281
 20
-559.0014190673828
 30
-18.00000000000001
  0
VERTEX
  5
207
  8
DEFAULT
 10
25.26098632812499
 20
-559.010986328125
 30
-18.00000000000001
  0
VERTEX
  5
208
  8
DEFAULT
 10
25.08360004425048
 20
-559.0211000442505
 30
-18.00000000000001
  0
VERTEX
  5
209
  8
DEFAULT
 10
24.91084289550781
 20
-559.0358428955078
 30
-18.00000000000001
  0
VERTEX
  5
20A
  8
DEFAULT
 10
24.82642823457717
 20
-559.0451782345772
 30
-18.00000000000001
  0
VERTEX
  5
20B
  8
DEFAULT
 10
24.74343585968017
 20
-559.0559358596802
 30
-18.00000000000001
  0
VERTEX
  5
20C
  8
DEFAULT
 10
24.66194516420363
 20
-559.0681951642036
 30
-18.00000000000001
  0
VERTEX
  5
20D
  8
DEFAULT
 10
24.58203124999999
 20
-559.08203125
 30
-18.00000000000001
  0
VERTEX
  5
20E
  8
DEFAULT
 10
24.50376492738723
 20
-559.0975149273872
 30
-18.00000000000001
  0
VERTEX
  5
20F
  8
DEFAULT
 10
24.42721271514892
 20
-559.1147127151489
 30
-18.00000000000001
  0
VERTEX
  5
210
  8
DEFAULT
 10
24.3524368405342
 20
-559.1336868405342
 30
-18.00000000000001
  0
VERTEX
  5
211
  8
DEFAULT
 10
24.2794952392578
 20
-559.1544952392578
 30
-18.00000000000001
  0
VERTEX
  5
212
  8
DEFAULT
 10
24.20844155550002
 20
-559.1771915555
 30
-18.00000000000001
  0
VERTEX
  5
213
  8
DEFAULT
 10
24.13932514190673
 20
-559.2018251419067
 30
-18.00000000000001
  0
VERTEX
  5
214
  8
DEFAULT
 10
24.10550766065716
 20
-559.2148826606572
 30
-18.00000000000001
  0
VERTEX
  5
215
  8
DEFAULT
 10
24.07219105958938
 20
-559.2284410595894
 30
-18.00000000000001
  0
VERTEX
  5
216
  8
DEFAULT
 10
24.03938030079006
 20
-559.2425053007901
 30
-18.00000000000001
  0
VERTEX
  5
217
  8
DEFAULT
 10
24.00708007812499
 20
-559.257080078125
 30
-18.00000000000001
  0
VERTEX
  5
218
  8
DEFAULT
 10
23.97529481723904
 20
-559.272169817239
 30
-18.00000000000001
  0
VERTEX
  5
219
  8
DEFAULT
 10
23.94402867555618
 20
-559.2877786755562
 30
-18.00000000000001
  0
VERTEX
  5
21A
  8
DEFAULT
 10
23.91328554227947
 20
-559.3039105422795
 30
-18.00000000000001
  0
VERTEX
  5
21B
  8
DEFAULT
 10
23.88306903839111
 20
-559.3205690383911
 30
-18.00000000000001
  0
VERTEX
  5
21C
  8
DEFAULT
 10
23.85338251665234
 20
-559.3377575166523
 30
-18.00000000000001
  0
VERTEX
  5
21D
  8
DEFAULT
 10
23.82422906160354
 20
-559.3554790616035
 30
-18.00000000000001
  0
VERTEX
  5
21E
  8
DEFAULT
 10
23.79561148956417
 20
-559.3737364895642
 30
-18.00000000000001
  0
VERTEX
  5
21F
  8
DEFAULT
 10
23.76753234863281
 20
-559.3925323486328
 30
-18.00000000000001
  0
VERTEX
  5
220
  8
DEFAULT
 10
23.7399939186871
 20
-559.4118689186871
 30
-18.00000000000001
  0
VERTEX
  5
221
  8
DEFAULT
 10
23.71299821138381
 20
-559.4317482113838
 30
-18.00000000000001
  0
VERTEX
  5
222
  8
DEFAULT
 10
23.68654697015881
 20
-559.4521719701588
 30
-18.00000000000001
  0
VERTEX
  5
223
  8
DEFAULT
 10
23.66064167022705
 20
-559.473141670227
 30
-18.00000000000001
  0
VERTEX
  5
224
  8
DEFAULT
 10
23.63528351858258
 20
-559.4946585185826
 30
-18.00000000000001
  0
VERTEX
  5
225
  8
DEFAULT
 10
23.61047345399856
 20
-559.5167234539986
 30
-18.00000000000001
  0
VERTEX
  5
226
  8
DEFAULT
 10
23.58621214702725
 20
-559.5393371470273
 30
-18.00000000000001
  0
VERTEX
  5
227
  8
DEFAULT
 10
23.5625
 20
-559.5625
 30
-18.00000000000001
  0
VERTEX
  5
228
  8
DEFAULT
 10
23.53933714702725
 20
-559.5862121470273
 30
-18.00000000000001
  0
VERTEX
  5
229
  8
DEFAULT
 10
23.51672345399856
 20
-559.6104734539986
 30
-18.00000000000001
  0
VERTEX
  5
22A
  8
DEFAULT
 10
23.49465851858258
 20
-559.6352835185826
 30
-18.00000000000001
  0
VERTEX
  5
22B
  8
DEFAULT
 10
23.47314167022705
 20
-559.660641670227
 30
-18.00000000000001
  0
VERTEX
  5
22C
  8
DEFAULT
 10
23.45217197015882
 20
-559.6865469701588
 30
-18.00000000000001
  0
VERTEX
  5
22D
  8
DEFAULT
 10
23.43174821138382
 20
-559.7129982113838
 30
-18.00000000000001
  0
VERTEX
  5
22E
  8
DEFAULT
 10
23.41186891868711
 20
-559.7399939186871
 30
-18.00000000000001
  0
VERTEX
  5
22F
  8
DEFAULT
 10
23.39253234863281
 20
-559.7675323486328
 30
-18.00000000000001
  0
VERTEX
  5
230
  8
DEFAULT
 10
23.37373648956418
 20
-559.7956114895642
 30
-18.00000000000001
  0
VERTEX
  5
231
  8
DEFAULT
 10
23.35547906160355
 20
-559.8242290616035
 30
-18.00000000000001
  0
VERTEX
  5
232
  8
DEFAULT
 10
23.33775751665235
 20
-559.8533825166523
 30
-18.00000000000001
  0
VERTEX
  5
233
  8
DEFAULT
 10
23.32056903839111
 20
-559.8830690383911
 30
-18.00000000000001
  0
VERTEX
  5
234
  8
DEFAULT
 10
23.30391054227948
 20
-559.9132855422795
 30
-18.00000000000001
  0
VERTEX
  5
235
  8
DEFAULT
 10
23.28777867555618
 20
-559.9440286755562
 30
-18.00000000000001
  0
VERTEX
  5
236
  8
DEFAULT
 10
23.27216981723905
 20
-559.975294817239
 30
-18.00000000000001
  0
VERTEX
  5
237
  8
DEFAULT
 10
23.257080078125
 20
-560.007080078125
 30
-18.00000000000001
  0
VERTEX
  5
238
  8
DEFAULT
 10
23.24250530079008
 20
-560.0393803007901
 30
-18.00000000000001
  0
VERTEX
  5
239
  8
DEFAULT
 10
23.22844105958939
 20
-560.0721910595894
 30
-18.00000000000001
  0
VERTEX
  5
23A
  8
DEFAULT
 10
23.21488266065717
 20
-560.1055076606572
 30
-18.00000000000001
  0
VERTEX
  5
23B
  8
DEFAULT
 10
23.20182514190674
 20
-560.1393251419067
 30
-18.00000000000001
  0
VERTEX
  5
23C
  8
DEFAULT
 10
23.17719155550004
 20
-560.2084415555
 30
-18.00000000000001
  0
VERTEX
  5
23D
  8
DEFAULT
 10
23.15449523925782
 20
-560.2794952392578
 30
-18.00000000000001
  0
VERTEX
  5
23E
  8
DEFAULT
 10
23.13368684053422
 20
-560.3524368405342
 30
-18.00000000000001
  0
VERTEX
  5
23F
  8
DEFAULT
 10
23.11471271514893
 20
-560.4272127151489
 30
-18.00000000000001
  0
VERTEX
  5
240
  8
DEFAULT
 10
23.09751492738724
 20
-560.5037649273872
 30
-18.00000000000001
  0
VERTEX
  5
241
  8
DEFAULT
 10
23.08203125000001
 20
-560.58203125
 30
-18.00000000000001
  0
VERTEX
  5
242
  8
DEFAULT
 10
23.06819516420365
 20
-560.6619451642036
 30
-18.00000000000001
  0
VERTEX
  5
243
  8
DEFAULT
 10
23.05593585968018
 20
-560.7434358596801
 30
-18.00000000000001
  0
VERTEX
  5
244
  8
DEFAULT
 10
23.04517823457719
 20
-560.826428234577
 30
-18.00000000000001
  0
VERTEX
  5
245
  8
DEFAULT
 10
23.03584289550782
 20
-560.9108428955077
 30
-18.00000000000001
  0
VERTEX
  5
246
  8
DEFAULT
 10
23.0211000442505
 20
-561.0836000442503
 30
-18.00000000000001
  0
VERTEX
  5
247
  8
DEFAULT
 10
23.01098632812501
 20
-561.2609863281248
 30
-18.00000000000001
  0
VERTEX
  5
248
  8
DEFAULT
 10
23.00141906738283
 20
-561.6264190673826
 30
-18.00000000000001
  0
VERTEX
  5
249
  8
DEFAULT
 10
23.00000000000001
 20
-561.9999999999999
 30
-18.00000000000001
  0
VERTEX
  5
24A
  8
DEFAULT
 10
23.00000000000001
 20
-591.0000000000007
 30
-18.00000000000001
  0
VERTEX
  5
24B
  8
DEFAULT
 10
23.00141906738283
 20
-591.3735809326179
 30
-18.00000000000001
  0
VERTEX
  5
24C
  8
DEFAULT
 10
23.01098632812502
 20
-591.7390136718757
 30
-18.00000000000001
  0
VERTEX
  5
24D
  8
DEFAULT
 10
23.02110004425052
 20
-591.9163999557502
 30
-18.00000000000001
  0
VERTEX
  5
24E
  8
DEFAULT
 10
23.03584289550785
 20
-592.0891571044929
 30
-18.00000000000001
  0
VERTEX
  5
24F
  8
DEFAULT
 10
23.04517823457722
 20
-592.1735717654235
 30
-18.00000000000001
  0
VERTEX
  5
250
  8
DEFAULT
 10
23.05593585968022
 20
-592.2565641403205
 30
-18.00000000000001
  0
VERTEX
  5
251
  8
DEFAULT
 10
23.06819516420369
 20
-592.338054835797
 30
-18.00000000000001
  0
VERTEX
  5
252
  8
DEFAULT
 10
23.08203125000005
 20
-592.4179687500007
 30
-18.00000000000001
  0
VERTEX
  5
253
  8
DEFAULT
 10
23.09751492738729
 20
-592.4962350726134
 30
-18.00000000000001
  0
VERTEX
  5
254
  8
DEFAULT
 10
23.11471271514898
 20
-592.5727872848518
 30
-18.00000000000001
  0
VERTEX
  5
255
  8
DEFAULT
 10
23.13368684053427
 20
-592.6475631594665
 30
-18.00000000000001
  0
VERTEX
  5
256
  8
DEFAULT
 10
23.15449523925788
 20
-592.7205047607429
 30
-18.00000000000001
  0
VERTEX
  5
257
  8
DEFAULT
 10
23.17719155550011
 20
-592.7915584445007
 30
-18.00000000000001
  0
VERTEX
  5
258
  8
DEFAULT
 10
23.20182514190682
 20
-592.860674858094
 30
-18.00000000000001
  0
VERTEX
  5
259
  8
DEFAULT
 10
23.21488266065725
 20
-592.8944923393435
 30
-18.00000000000001
  0
VERTEX
  5
25A
  8
DEFAULT
 10
23.22844105958948
 20
-592.9278089404113
 30
-18.00000000000001
  0
VERTEX
  5
25B
  8
DEFAULT
 10
23.24250530079017
 20
-592.9606196992106
 30
-18.00000000000001
  0
VERTEX
  5
25C
  8
DEFAULT
 10
23.2570800781251
 20
-592.9929199218757
 30
-18.00000000000001
  0
VERTEX
  5
25D
  8
DEFAULT
 10
23.27216981723915
 20
-593.0247051827616
 30
-18.00000000000001
  0
VERTEX
  5
25E
  8
DEFAULT
 10
23.28777867555629
 20
-593.0559713244445
 30
-18.00000000000001
  0
VERTEX
  5
25F
  8
DEFAULT
 10
23.30391054227959
 20
-593.0867144577212
 30
-18.00000000000001
  0
VERTEX
  5
260
  8
DEFAULT
 10
23.32056903839123
 20
-593.1169309616096
 30
-18.00000000000001
  0
VERTEX
  5
261
  8
DEFAULT
 10
23.33775751665247
 20
-593.1466174833483
 30
-18.00000000000001
  0
VERTEX
  5
262
  8
DEFAULT
 10
23.35547906160367
 20
-593.1757709383971
 30
-18.00000000000001
  0
VERTEX
  5
263
  8
DEFAULT
 10
23.37373648956431
 20
-593.2043885104365
 30
-18.00000000000001
  0
VERTEX
  5
264
  8
DEFAULT
 10
23.39253234863294
 20
-593.2324676513679
 30
-18.00000000000001
  0
VERTEX
  5
265
  8
DEFAULT
 10
23.41186891868723
 20
-593.2600060813136
 30
-18.00000000000001
  0
VERTEX
  5
266
  8
DEFAULT
 10
23.43174821138395
 20
-593.2870017886169
 30
-18.00000000000001
  0
VERTEX
  5
267
  8
DEFAULT
 10
23.45217197015895
 20
-593.3134530298419
 30
-18.00000000000001
  0
VERTEX
  5
268
  8
DEFAULT
 10
23.47314167022719
 20
-593.3393583297736
 30
-18.00000000000001
  0
VERTEX
  5
269
  8
DEFAULT
 10
23.49465851858273
 20
-593.3647164814181
 30
-18.00000000000001
  0
VERTEX
  5
26A
  8
DEFAULT
 10
23.51672345399871
 20
-593.3895265460021
 30
-18.00000000000001
  0
VERTEX
  5
26B
  8
DEFAULT
 10
23.53933714702741
 20
-593.4137878529734
 30
-18.00000000000001
  0
VERTEX
  5
26C
  8
DEFAULT
 10
23.56250000000016
 20
-593.4375000000007
 30
-18.00000000000001
  0
VERTEX
  5
26D
  8
DEFAULT
 10
23.58621214702742
 20
-593.4606628529734
 30
-18.00000000000001
  0
VERTEX
  5
26E
  8
DEFAULT
 10
23.61047345399873
 20
-593.4832765460021
 30
-18.00000000000001
  0
VERTEX
  5
26F
  8
DEFAULT
 10
23.63528351858275
 20
-593.5053414814181
 30
-18.00000000000001
  0
VERTEX
  5
270
  8
DEFAULT
 10
23.66064167022722
 20
-593.5268583297735
 30
-18.00000000000001
  0
VERTEX
  5
271
  8
DEFAULT
 10
23.68654697015899
 20
-593.5478280298416
 30
-18.00000000000001
  0
VERTEX
  5
272
  8
DEFAULT
 10
23.712998211384
 20
-593.5682517886166
 30
-18.00000000000001
  0
VERTEX
  5
273
  8
DEFAULT
 10
23.73999391868728
 20
-593.5881310813133
 30
-18.00000000000001
  0
VERTEX
  5
274
  8
DEFAULT
 10
23.76753234863299
 20
-593.6074676513676
 30
-18.00000000000001
  0
VERTEX
  5
275
  8
DEFAULT
 10
23.79561148956436
 20
-593.6262635104363
 30
-18.00000000000001
  0
VERTEX
  5
276
  8
DEFAULT
 10
23.82422906160372
 20
-593.6445209383969
 30
-18.00000000000001
  0
VERTEX
  5
277
  8
DEFAULT
 10
23.85338251665253
 20
-593.6622424833481
 30
-18.00000000000001
  0
VERTEX
  5
278
  8
DEFAULT
 10
23.8830690383913
 20
-593.6794309616093
 30
-18.00000000000001
  0
VERTEX
  5
279
  8
DEFAULT
 10
23.91328554227967
 20
-593.696089457721
 30
-18.00000000000001
  0
VERTEX
  5
27A
  8
DEFAULT
 10
23.94402867555637
 20
-593.7122213244443
 30
-18.00000000000001
  0
VERTEX
  5
27B
  8
DEFAULT
 10
23.97529481723923
 20
-593.7278301827614
 30
-18.00000000000001
  0
VERTEX
  5
27C
  8
DEFAULT
 10
24.00708007812519
 20
-593.7429199218755
 30
-18.00000000000001
  0
VERTEX
  5
27D
  8
DEFAULT
 10
24.03938030079026
 20
-593.7574946992104
 30
-18.00000000000001
  0
VERTEX
  5
27E
  8
DEFAULT
 10
24.07219105958958
 20
-593.7715589404111
 30
-18.00000000000001
  0
VERTEX
  5
27F
  8
DEFAULT
 10
24.10550766065736
 20
-593.7851173393433
 30
-18.00000000000001
  0
VERTEX
  5
280
  8
DEFAULT
 10
24.13932514190693
 20
-593.7981748580937
 30
-18.00000000000001
  0
VERTEX
  5
281
  8
DEFAULT
 10
24.20844155550022
 20
-593.8228084445004
 30
-18.00000000000001
  0
VERTEX
  5
282
  8
DEFAULT
 10
24.279495239258
 20
-593.8455047607426
 30
-18.00000000000001
  0
VERTEX
  5
283
  8
DEFAULT
 10
24.3524368405344
 20
-593.8663131594662
 30
-18.00000000000001
  0
VERTEX
  5
284
  8
DEFAULT
 10
24.42721271514911
 20
-593.8852872848515
 30
-18.00000000000001
  0
VERTEX
  5
285
  8
DEFAULT
 10
24.50376492738742
 20
-593.9024850726132
 30
-18.00000000000001
  0
VERTEX
  5
286
  8
DEFAULT
 10
24.58203125000018
 20
-593.9179687500005
 30
-18.00000000000001
  0
VERTEX
  5
287
  8
DEFAULT
 10
24.66194516420382
 20
-593.9318048357968
 30
-18.00000000000001
  0
VERTEX
  5
288
  8
DEFAULT
 10
24.74343585968034
 20
-593.9440641403203
 30
-18.00000000000001
  0
VERTEX
  5
289
  8
DEFAULT
 10
24.82642823457734
 20
-593.9548217654233
 30
-18.00000000000001
  0
VERTEX
  5
28A
  8
DEFAULT
 10
24.91084289550796
 20
-593.9641571044926
 30
-18.00000000000001
  0
VERTEX
  5
28B
  8
DEFAULT
 10
25.08360004425062
 20
-593.97889995575
 30
-18.00000000000001
  0
VERTEX
  5
28C
  8
DEFAULT
 10
25.26098632812511
 20
-593.9890136718755
 30
-18.00000000000001
  0
VERTEX
  5
28D
  8
DEFAULT
 10
25.62641906738288
 20
-593.9985809326176
 30
-18.00000000000001
  0
VERTEX
  5
28E
  8
DEFAULT
 10
26.00000000000001
 20
-594.0000000000005
 30
-18.00000000000001
  0
SEQEND
  5
28F
  8
DEFAULT
  0
CIRCLE
  5
290
  8
DEFAULT
 10
-53.99999999999955
 20
-576.5000000000003
 30
18.0
 40
1.709110028625332
210
0.0
220
0.0
230
-1.0
  0
CIRCLE
  5
291
  8
DEFAULT
 10
-28.0
 20
-576.5000000000003
 30
18.0
 40
1.709110028625332
210
0.0
220
0.0
230
-1.0
  0
CIRCLE
  5
292
  8
DEFAULT
 10
-41.19341597896528
 20
-577.500000208986
 30
18.0
 40
4.050000000000026
210
0.0
220
0.0
230
-1.0
  0
CIRCLE
  5
293
  8
DEFAULT
 10
28.00000000000006
 20
-534.5000000000003
 30
-30.0
 40
1.709110028625332
  0
CIRCLE
  5
294
  8
DEFAULT
 10
53.9999999999996
 20
-534.5000000000003
 30
-30.0
 40
1.709110028625332
  0
POLYLINE
  5
295
  8
DEFAULT
 66
     1
 10
0.0
 20
0.0
 30
-30.0
 70
     1
  0
VERTEX
  5
296
  8
DEFAULT
 10
43.7040639665738
 20
-552.0000000000002
 30
-30.0
 42
0.9999999999999999
  0
VERTEX
  5
297
  8
DEFAULT
 10
38.29593603342575
 20
-552.0000000000003
 30
-30.0
  0
VERTEX
  5
298
  8
DEFAULT
 10
26.00000000000001
 20
-552.0000000000002
 30
-30.0
  0
VERTEX
  5
299
  8
DEFAULT
 10
25.6264190673829
 20
-551.9985809326174
 30
-30.0
  0
VERTEX
  5
29A
  8
DEFAULT
 10
25.26098632812515
 20
-551.9890136718752
 30
-30.0
  0
VERTEX
  5
29B
  8
DEFAULT
 10
25.08360004425067
 20
-551.9788999557497
 30
-30.0
  0
VERTEX
  5
29C
  8
DEFAULT
 10
24.91084289550801
 20
-551.9641571044924
 30
-30.0
  0
VERTEX
  5
29D
  8
DEFAULT
 10
24.82642823457739
 20
-551.954821765423
 30
-30.0
  0
VERTEX
  5
29E
  8
DEFAULT
 10
24.7434358596804
 20
-551.94406414032
 30
-30.0
  0
VERTEX
  5
29F
  8
DEFAULT
 10
24.66194516420387
 20
-551.9318048357966
 30
-30.0
  0
VERTEX
  5
2A0
  8
DEFAULT
 10
24.58203125000023
 20
-551.9179687500002
 30
-30.0
  0
VERTEX
  5
2A1
  8
DEFAULT
 10
24.50376492738748
 20
-551.902485072613
 30
-30.0
  0
VERTEX
  5
2A2
  8
DEFAULT
 10
24.42721271514917
 20
-551.8852872848513
 30
-30.0
  0
VERTEX
  5
2A3
  8
DEFAULT
 10
24.35243684053446
 20
-551.866313159466
 30
-30.0
  0
VERTEX
  5
2A4
  8
DEFAULT
 10
24.27949523925806
 20
-551.8455047607424
 30
-30.0
  0
VERTEX
  5
2A5
  8
DEFAULT
 10
24.20844155550028
 20
-551.8228084445002
 30
-30.0
  0
VERTEX
  5
2A6
  8
DEFAULT
 10
24.13932514190699
 20
-551.7981748580935
 30
-30.0
  0
VERTEX
  5
2A7
  8
DEFAULT
 10
24.10550766065742
 20
-551.7851173393431
 30
-30.0
  0
VERTEX
  5
2A8
  8
DEFAULT
 10
24.07219105958963
 20
-551.7715589404108
 30
-30.0
  0
VERTEX
  5
2A9
  8
DEFAULT
 10
24.03938030079032
 20
-551.7574946992102
 30
-30.0
  0
VERTEX
  5
2AA
  8
DEFAULT
 10
24.00708007812525
 20
-551.7429199218752
 30
-30.0
  0
VERTEX
  5
2AB
  8
DEFAULT
 10
23.97529481723929
 20
-551.7278301827612
 30
-30.0
  0
VERTEX
  5
2AC
  8
DEFAULT
 10
23.94402867555642
 20
-551.712221324444
 30
-30.0
  0
VERTEX
  5
2AD
  8
DEFAULT
 10
23.91328554227972
 20
-551.6960894577207
 30
-30.0
  0
VERTEX
  5
2AE
  8
DEFAULT
 10
23.88306903839135
 20
-551.6794309616091
 30
-30.0
  0
VERTEX
  5
2AF
  8
DEFAULT
 10
23.85338251665259
 20
-551.6622424833479
 30
-30.0
  0
VERTEX
  5
2B0
  8
DEFAULT
 10
23.82422906160378
 20
-551.6445209383967
 30
-30.0
  0
VERTEX
  5
2B1
  8
DEFAULT
 10
23.79561148956441
 20
-551.626263510436
 30
-30.0
  0
VERTEX
  5
2B2
  8
DEFAULT
 10
23.76753234863304
 20
-551.6074676513674
 30
-30.0
  0
VERTEX
  5
2B3
  8
DEFAULT
 10
23.73999391868733
 20
-551.5881310813131
 30
-30.0
  0
VERTEX
  5
2B4
  8
DEFAULT
 10
23.71299821138404
 20
-551.5682517886164
 30
-30.0
  0
VERTEX
  5
2B5
  8
DEFAULT
 10
23.68654697015903
 20
-551.5478280298414
 30
-30.0
  0
VERTEX
  5
2B6
  8
DEFAULT
 10
23.66064167022726
 20
-551.5268583297732
 30
-30.0
  0
VERTEX
  5
2B7
  8
DEFAULT
 10
23.6352835185828
 20
-551.5053414814176
 30
-30.0
  0
VERTEX
  5
2B8
  8
DEFAULT
 10
23.61047345399877
 20
-551.4832765460017
 30
-30.0
  0
VERTEX
  5
2B9
  8
DEFAULT
 10
23.58621214702746
 20
-551.460662852973
 30
-30.0
  0
VERTEX
  5
2BA
  8
DEFAULT
 10
23.5625000000002
 20
-551.4375000000002
 30
-30.0
  0
VERTEX
  5
2BB
  8
DEFAULT
 10
23.53933714702745
 20
-551.413787852973
 30
-30.0
  0
VERTEX
  5
2BC
  8
DEFAULT
 10
23.51672345399876
 20
-551.3895265460017
 30
-30.0
  0
VERTEX
  5
2BD
  8
DEFAULT
 10
23.49465851858277
 20
-551.3647164814179
 30
-30.0
  0
VERTEX
  5
2BE
  8
DEFAULT
 10
23.47314167022724
 20
-551.3393583297734
 30
-30.0
  0
VERTEX
  5
2BF
  8
DEFAULT
 10
23.452171970159
 20
-551.3134530298416
 30
-30.0
  0
VERTEX
  5
2C0
  8
DEFAULT
 10
23.431748211384
 20
-551.2870017886166
 30
-30.0
  0
VERTEX
  5
2C1
  8
DEFAULT
 10
23.41186891868728
 20
-551.2600060813133
 30
-30.0
  0
VERTEX
  5
2C2
  8
DEFAULT
 10
23.39253234863298
 20
-551.2324676513676
 30
-30.0
  0
VERTEX
  5
2C3
  8
DEFAULT
 10
23.37373648956434
 20
-551.2043885104363
 30
-30.0
  0
VERTEX
  5
2C4
  8
DEFAULT
 10
23.3554790616037
 20
-551.1757709383969
 30
-30.0
  0
VERTEX
  5
2C5
  8
DEFAULT
 10
23.3377575166525
 20
-551.1466174833481
 30
-30.0
  0
VERTEX
  5
2C6
  8
DEFAULT
 10
23.32056903839126
 20
-551.1169309616093
 30
-30.0
  0
VERTEX
  5
2C7
  8
DEFAULT
 10
23.30391054227962
 20
-551.086714457721
 30
-30.0
  0
VERTEX
  5
2C8
  8
DEFAULT
 10
23.28777867555632
 20
-551.0559713244443
 30
-30.0
  0
VERTEX
  5
2C9
  8
DEFAULT
 10
23.27216981723918
 20
-551.0247051827614
 30
-30.0
  0
VERTEX
  5
2CA
  8
DEFAULT
 10
23.25708007812513
 20
-550.9929199218755
 30
-30.0
  0
VERTEX
  5
2CB
  8
DEFAULT
 10
23.24250530079019
 20
-550.9606196992104
 30
-30.0
  0
VERTEX
  5
2CC
  8
DEFAULT
 10
23.2284410595895
 20
-550.9278089404111
 30
-30.0
  0
VERTEX
  5
2CD
  8
DEFAULT
 10
23.21488266065728
 20
-550.8944923393433
 30
-30.0
  0
VERTEX
  5
2CE
  8
DEFAULT
 10
23.20182514190684
 20
-550.8606748580937
 30
-30.0
  0
VERTEX
  5
2CF
  8
DEFAULT
 10
23.17719155550013
 20
-550.7915584445004
 30
-30.0
  0
VERTEX
  5
2D0
  8
DEFAULT
 10
23.1544952392579
 20
-550.7205047607426
 30
-30.0
  0
VERTEX
  5
2D1
  8
DEFAULT
 10
23.13368684053429
 20
-550.6475631594662
 30
-30.0
  0
VERTEX
  5
2D2
  8
DEFAULT
 10
23.114712715149
 20
-550.5727872848515
 30
-30.0
  0
VERTEX
  5
2D3
  8
DEFAULT
 10
23.0975149273873
 20
-550.4962350726132
 30
-30.0
  0
VERTEX
  5
2D4
  8
DEFAULT
 10
23.08203125000006
 20
-550.4179687500005
 30
-30.0
  0
VERTEX
  5
2D5
  8
DEFAULT
 10
23.06819516420369
 20
-550.3380548357968
 30
-30.0
  0
VERTEX
  5
2D6
  8
DEFAULT
 10
23.05593585968022
 20
-550.2565641403203
 30
-30.0
  0
VERTEX
  5
2D7
  8
DEFAULT
 10
23.04517823457722
 20
-550.1735717654233
 30
-30.0
  0
VERTEX
  5
2D8
  8
DEFAULT
 10
23.03584289550785
 20
-550.0891571044926
 30
-30.0
  0
VERTEX
  5
2D9
  8
DEFAULT
 10
23.02110004425052
 20
-549.91639995575
 30
-30.0
  0
VERTEX
  5
2DA
  8
DEFAULT
 10
23.01098632812502
 20
-549.7390136718755
 30
-30.0
  0
VERTEX
  5
2DB
  8
DEFAULT
 10
23.00141906738283
 20
-549.3735809326176
 30
-30.0
  0
VERTEX
  5
2DC
  8
DEFAULT
 10
23.00000000000001
 20
-549.0000000000005
 30
-30.0
  0
VERTEX
  5
2DD
  8
DEFAULT
 10
23.00000000000001
 20
-520.0
 30
-30.0
  0
VERTEX
  5
2DE
  8
DEFAULT
 10
23.00141906738283
 20
-519.6264190673828
 30
-30.0
  0
VERTEX
  5
2DF
  8
DEFAULT
 10
23.01098632812501
 20
-519.260986328125
 30
-30.0
  0
VERTEX
  5
2E0
  8
DEFAULT
 10
23.0211000442505
 20
-519.0836000442505
 30
-30.0
  0
VERTEX
  5
2E1
  8
DEFAULT
 10
23.03584289550782
 20
-518.9108428955079
 30
-30.0
  0
VERTEX
  5
2E2
  8
DEFAULT
 10
23.04517823457719
 20
-518.8264282345772
 30
-30.0
  0
VERTEX
  5
2E3
  8
DEFAULT
 10
23.05593585968018
 20
-518.7434358596803
 30
-30.0
  0
VERTEX
  5
2E4
  8
DEFAULT
 10
23.06819516420365
 20
-518.6619451642039
 30
-30.0
  0
VERTEX
  5
2E5
  8
DEFAULT
 10
23.08203125000001
 20
-518.5820312500002
 30
-30.0
  0
VERTEX
  5
2E6
  8
DEFAULT
 10
23.09751492738724
 20
-518.5037649273875
 30
-30.0
  0
VERTEX
  5
2E7
  8
DEFAULT
 10
23.11471271514893
 20
-518.4272127151492
 30
-30.0
  0
VERTEX
  5
2E8
  8
DEFAULT
 10
23.13368684053422
 20
-518.3524368405344
 30
-30.0
  0
VERTEX
  5
2E9
  8
DEFAULT
 10
23.15449523925782
 20
-518.279495239258
 30
-30.0
  0
VERTEX
  5
2EA
  8
DEFAULT
 10
23.17719155550003
 20
-518.2084415555003
 30
-30.0
  0
VERTEX
  5
2EB
  8
DEFAULT
 10
23.20182514190673
 20
-518.139325141907
 30
-30.0
  0
VERTEX
  5
2EC
  8
DEFAULT
 10
23.21488266065716
 20
-518.1055076606574
 30
-30.0
  0
VERTEX
  5
2ED
  8
DEFAULT
 10
23.22844105958938
 20
-518.0721910595896
 30
-30.0
  0
VERTEX
  5
2EE
  8
DEFAULT
 10
23.24250530079006
 20
-518.0393803007903
 30
-30.0
  0
VERTEX
  5
2EF
  8
DEFAULT
 10
23.25708007812499
 20
-518.0070800781251
 30
-30.0
  0
VERTEX
  5
2F0
  8
DEFAULT
 10
23.27216981723904
 20
-517.975294817239
 30
-30.0
  0
VERTEX
  5
2F1
  8
DEFAULT
 10
23.28777867555618
 20
-517.9440286755562
 30
-30.0
  0
VERTEX
  5
2F2
  8
DEFAULT
 10
23.30391054227947
 20
-517.9132855422795
 30
-30.0
  0
VERTEX
  5
2F3
  8
DEFAULT
 10
23.32056903839111
 20
-517.8830690383911
 30
-30.0
  0
VERTEX
  5
2F4
  8
DEFAULT
 10
23.33775751665234
 20
-517.8533825166523
 30
-30.0
  0
VERTEX
  5
2F5
  8
DEFAULT
 10
23.35547906160354
 20
-517.8242290616035
 30
-30.0
  0
VERTEX
  5
2F6
  8
DEFAULT
 10
23.37373648956417
 20
-517.7956114895642
 30
-30.0
  0
VERTEX
  5
2F7
  8
DEFAULT
 10
23.3925323486328
 20
-517.7675323486328
 30
-30.0
  0
VERTEX
  5
2F8
  8
DEFAULT
 10
23.4118689186871
 20
-517.7399939186871
 30
-30.0
  0
VERTEX
  5
2F9
  8
DEFAULT
 10
23.43174821138381
 20
-517.7129982113838
 30
-30.0
  0
VERTEX
  5
2FA
  8
DEFAULT
 10
23.4521719701588
 20
-517.6865469701588
 30
-30.0
  0
VERTEX
  5
2FB
  8
DEFAULT
 10
23.47314167022704
 20
-517.660641670227
 30
-30.0
  0
VERTEX
  5
2FC
  8
DEFAULT
 10
23.49465851858257
 20
-517.6352835185826
 30
-30.0
  0
VERTEX
  5
2FD
  8
DEFAULT
 10
23.51672345399855
 20
-517.6104734539986
 30
-30.0
  0
VERTEX
  5
2FE
  8
DEFAULT
 10
23.53933714702724
 20
-517.5862121470273
 30
-30.0
  0
VERTEX
  5
2FF
  8
DEFAULT
 10
23.56249999999999
 20
-517.5625
 30
-30.0
  0
VERTEX
  5
300
  8
DEFAULT
 10
23.58621214702724
 20
-517.5393371470273
 30
-30.0
  0
VERTEX
  5
301
  8
DEFAULT
 10
23.61047345399855
 20
-517.5167234539986
 30
-30.0
  0
VERTEX
  5
302
  8
DEFAULT
 10
23.63528351858257
 20
-517.4946585185826
 30
-30.0
  0
VERTEX
  5
303
  8
DEFAULT
 10
23.66064167022704
 20
-517.473141670227
 30
-30.0
  0
VERTEX
  5
304
  8
DEFAULT
 10
23.6865469701588
 20
-517.4521719701588
 30
-30.0
  0
VERTEX
  5
305
  8
DEFAULT
 10
23.7129982113838
 20
-517.4317482113838
 30
-30.0
  0
VERTEX
  5
306
  8
DEFAULT
 10
23.73999391868708
 20
-517.4118689186871
 30
-30.0
  0
VERTEX
  5
307
  8
DEFAULT
 10
23.76753234863279
 20
-517.3925323486328
 30
-30.0
  0
VERTEX
  5
308
  8
DEFAULT
 10
23.79561148956416
 20
-517.3737364895642
 30
-30.0
  0
VERTEX
  5
309
  8
DEFAULT
 10
23.82422906160352
 20
-517.3554790616035
 30
-30.0
  0
VERTEX
  5
30A
  8
DEFAULT
 10
23.85338251665232
 20
-517.3377575166523
 30
-30.0
  0
VERTEX
  5
30B
  8
DEFAULT
 10
23.88306903839109
 20
-517.3205690383911
 30
-30.0
  0
VERTEX
  5
30C
  8
DEFAULT
 10
23.91328554227946
 20
-517.3039105422795
 30
-30.0
  0
VERTEX
  5
30D
  8
DEFAULT
 10
23.94402867555616
 20
-517.2877786755562
 30
-30.0
  0
VERTEX
  5
30E
  8
DEFAULT
 10
23.97529481723902
 20
-517.272169817239
 30
-30.0
  0
VERTEX
  5
30F
  8
DEFAULT
 10
24.00708007812498
 20
-517.257080078125
 30
-30.0
  0
VERTEX
  5
310
  8
DEFAULT
 10
24.03938030079005
 20
-517.2425053007901
 30
-30.0
  0
VERTEX
  5
311
  8
DEFAULT
 10
24.07219105958936
 20
-517.2284410595894
 30
-30.0
  0
VERTEX
  5
312
  8
DEFAULT
 10
24.10550766065715
 20
-517.2148826606572
 30
-30.0
  0
VERTEX
  5
313
  8
DEFAULT
 10
24.13932514190672
 20
-517.2018251419067
 30
-30.0
  0
VERTEX
  5
314
  8
DEFAULT
 10
24.20844155550001
 20
-517.1771915555
 30
-30.0
  0
VERTEX
  5
315
  8
DEFAULT
 10
24.27949523925779
 20
-517.1544952392578
 30
-30.0
  0
VERTEX
  5
316
  8
DEFAULT
 10
24.35243684053419
 20
-517.1336868405342
 30
-30.0
  0
VERTEX
  5
317
  8
DEFAULT
 10
24.4272127151489
 20
-517.1147127151489
 30
-30.0
  0
VERTEX
  5
318
  8
DEFAULT
 10
24.50376492738722
 20
-517.0975149273872
 30
-30.0
  0
VERTEX
  5
319
  8
DEFAULT
 10
24.58203124999998
 20
-517.08203125
 30
-30.0
  0
VERTEX
  5
31A
  8
DEFAULT
 10
24.66194516420362
 20
-517.0681951642036
 30
-30.0
  0
VERTEX
  5
31B
  8
DEFAULT
 10
24.74343585968015
 20
-517.0559358596802
 30
-30.0
  0
VERTEX
  5
31C
  8
DEFAULT
 10
24.82642823457716
 20
-517.0451782345772
 30
-30.0
  0
VERTEX
  5
31D
  8
DEFAULT
 10
24.91084289550779
 20
-517.0358428955078
 30
-30.0
  0
VERTEX
  5
31E
  8
DEFAULT
 10
25.08360004425047
 20
-517.0211000442505
 30
-30.0
  0
VERTEX
  5
31F
  8
DEFAULT
 10
25.26098632812499
 20
-517.010986328125
 30
-30.0
  0
VERTEX
  5
320
  8
DEFAULT
 10
25.6264190673828
 20
-517.0014190673828
 30
-30.0
  0
VERTEX
  5
321
  8
DEFAULT
 10
26.0
 20
-517.0
 30
-30.0
  0
VERTEX
  5
322
  8
DEFAULT
 10
55.99999999999956
 20
-517.0000000000002
 30
-30.0
  0
VERTEX
  5
323
  8
DEFAULT
 10
56.37358093261672
 20
-517.001419067383
 30
-30.0
  0
VERTEX
  5
324
  8
DEFAULT
 10
56.7390136718745
 20
-517.0109863281252
 30
-30.0
  0
VERTEX
  5
325
  8
DEFAULT
 10
56.91639995574901
 20
-517.0211000442507
 30
-30.0
  0
VERTEX
  5
326
  8
DEFAULT
 10
57.08915710449168
 20
-517.035842895508
 30
-30.0
  0
VERTEX
  5
327
  8
DEFAULT
 10
57.17357176542231
 20
-517.0451782345774
 30
-30.0
  0
VERTEX
  5
328
  8
DEFAULT
 10
57.25656414031931
 20
-517.0559358596804
 30
-30.0
  0
VERTEX
  5
329
  8
DEFAULT
 10
57.33805483579583
 20
-517.0681951642039
 30
-30.0
  0
VERTEX
  5
32A
  8
DEFAULT
 10
57.41796874999947
 20
-517.0820312500002
 30
-30.0
  0
VERTEX
  5
32B
  8
DEFAULT
 10
57.49623507261223
 20
-517.0975149273875
 30
-30.0
  0
VERTEX
  5
32C
  8
DEFAULT
 10
57.57278728485054
 20
-517.1147127151492
 30
-30.0
  0
VERTEX
  5
32D
  8
DEFAULT
 10
57.64756315946526
 20
-517.1336868405344
 30
-30.0
  0
VERTEX
  5
32E
  8
DEFAULT
 10
57.72050476074165
 20
-517.154495239258
 30
-30.0
  0
VERTEX
  5
32F
  8
DEFAULT
 10
57.79155844449943
 20
-517.1771915555003
 30
-30.0
  0
VERTEX
  5
330
  8
DEFAULT
 10
57.86067485809272
 20
-517.201825141907
 30
-30.0
  0
VERTEX
  5
331
  8
DEFAULT
 10
57.89449233934229
 20
-517.2148826606574
 30
-30.0
  0
VERTEX
  5
332
  8
DEFAULT
 10
57.92780894041007
 20
-517.2284410595896
 30
-30.0
  0
VERTEX
  5
333
  8
DEFAULT
 10
57.96061969920939
 20
-517.2425053007903
 30
-30.0
  0
VERTEX
  5
334
  8
DEFAULT
 10
57.99291992187446
 20
-517.2570800781252
 30
-30.0
  0
VERTEX
  5
335
  8
DEFAULT
 10
58.02470518276041
 20
-517.2721698172393
 30
-30.0
  0
VERTEX
  5
336
  8
DEFAULT
 10
58.05597132444328
 20
-517.2877786755564
 30
-30.0
  0
VERTEX
  5
337
  8
DEFAULT
 10
58.08671445771998
 20
-517.3039105422797
 30
-30.0
  0
VERTEX
  5
338
  8
DEFAULT
 10
58.11693096160835
 20
-517.3205690383913
 30
-30.0
  0
VERTEX
  5
339
  8
DEFAULT
 10
58.14661748334711
 20
-517.3377575166526
 30
-30.0
  0
VERTEX
  5
33A
  8
DEFAULT
 10
58.17577093839591
 20
-517.3554790616038
 30
-30.0
  0
VERTEX
  5
33B
  8
DEFAULT
 10
58.20438851043528
 20
-517.3737364895644
 30
-30.0
  0
VERTEX
  5
33C
  8
DEFAULT
 10
58.23246765136665
 20
-517.392532348633
 30
-30.0
  0
VERTEX
  5
33D
  8
DEFAULT
 10
58.26000608131235
 20
-517.4118689186873
 30
-30.0
  0
VERTEX
  5
33E
  8
DEFAULT
 10
58.28700178861565
 20
-517.431748211384
 30
-30.0
  0
VERTEX
  5
33F
  8
DEFAULT
 10
58.31345302984066
 20
-517.452171970159
 30
-30.0
  0
VERTEX
  5
340
  8
DEFAULT
 10
58.33935832977242
 20
-517.4731416702273
 30
-30.0
  0
VERTEX
  5
341
  8
DEFAULT
 10
58.36471648141689
 20
-517.4946585185828
 30
-30.0
  0
VERTEX
  5
342
  8
DEFAULT
 10
58.38952654600091
 20
-517.5167234539988
 30
-30.0
  0
VERTEX
  5
343
  8
DEFAULT
 10
58.41378785297223
 20
-517.5393371470275
 30
-30.0
  0
VERTEX
  5
344
  8
DEFAULT
 10
58.43749999999948
 20
-517.5625000000002
 30
-30.0
  0
VERTEX
  5
345
  8
DEFAULT
 10
58.46066285297223
 20
-517.5862121470275
 30
-30.0
  0
VERTEX
  5
346
  8
DEFAULT
 10
58.48327654600092
 20
-517.6104734539988
 30
-30.0
  0
VERTEX
  5
347
  8
DEFAULT
 10
58.50534148141691
 20
-517.6352835185828
 30
-30.0
  0
VERTEX
  5
348
  8
DEFAULT
 10
58.52685832977244
 20
-517.6606416702273
 30
-30.0
  0
VERTEX
  5
349
  8
DEFAULT
 10
58.54782802984067
 20
-517.686546970159
 30
-30.0
  0
VERTEX
  5
34A
  8
DEFAULT
 10
58.56825178861568
 20
-517.712998211384
 30
-30.0
  0
VERTEX
  5
34B
  8
DEFAULT
 10
58.5881310813124
 20
-517.7399939186873
 30
-30.0
  0
VERTEX
  5
34C
  8
DEFAULT
 10
58.60746765136669
 20
-517.767532348633
 30
-30.0
  0
VERTEX
  5
34D
  8
DEFAULT
 10
58.62626351043533
 20
-517.7956114895644
 30
-30.0
  0
VERTEX
  5
34E
  8
DEFAULT
 10
58.64452093839596
 20
-517.8242290616038
 30
-30.0
  0
VERTEX
  5
34F
  8
DEFAULT
 10
58.66224248334717
 20
-517.8533825166526
 30
-30.0
  0
VERTEX
  5
350
  8
DEFAULT
 10
58.6794309616084
 20
-517.8830690383913
 30
-30.0
  0
VERTEX
  5
351
  8
DEFAULT
 10
58.69608945772003
 20
-517.9132855422797
 30
-30.0
  0
VERTEX
  5
352
  8
DEFAULT
 10
58.71222132444333
 20
-517.9440286755564
 30
-30.0
  0
VERTEX
  5
353
  8
DEFAULT
 10
58.72783018276047
 20
-517.9752948172393
 30
-30.0
  0
VERTEX
  5
354
  8
DEFAULT
 10
58.74291992187452
 20
-518.0070800781252
 30
-30.0
  0
VERTEX
  5
355
  8
DEFAULT
 10
58.75749469920945
 20
-518.0393803007903
 30
-30.0
  0
VERTEX
  5
356
  8
DEFAULT
 10
58.77155894041013
 20
-518.0721910595896
 30
-30.0
  0
VERTEX
  5
357
  8
DEFAULT
 10
58.78511733934236
 20
-518.1055076606574
 30
-30.0
  0
VERTEX
  5
358
  8
DEFAULT
 10
58.79817485809279
 20
-518.139325141907
 30
-30.0
  0
VERTEX
  5
359
  8
DEFAULT
 10
58.8228084444995
 20
-518.2084415555003
 30
-30.0
  0
VERTEX
  5
35A
  8
DEFAULT
 10
58.84550476074172
 20
-518.279495239258
 30
-30.0
  0
VERTEX
  5
35B
  8
DEFAULT
 10
58.86631315946532
 20
-518.3524368405344
 30
-30.0
  0
VERTEX
  5
35C
  8
DEFAULT
 10
58.88528728485061
 20
-518.4272127151492
 30
-30.0
  0
VERTEX
  5
35D
  8
DEFAULT
 10
58.90248507261229
 20
-518.5037649273875
 30
-30.0
  0
VERTEX
  5
35E
  8
DEFAULT
 10
58.91796874999954
 20
-518.5820312500002
 30
-30.0
  0
VERTEX
  5
35F
  8
DEFAULT
 10
58.9318048357959
 20
-518.6619451642039
 30
-30.0
  0
VERTEX
  5
360
  8
DEFAULT
 10
58.94406414031938
 20
-518.7434358596803
 30
-30.0
  0
VERTEX
  5
361
  8
DEFAULT
 10
58.95482176542237
 20
-518.8264282345772
 30
-30.0
  0
VERTEX
  5
362
  8
DEFAULT
 10
58.96415710449174
 20
-518.9108428955079
 30
-30.0
  0
VERTEX
  5
363
  8
DEFAULT
 10
58.97889995574907
 20
-519.0836000442505
 30
-30.0
  0
VERTEX
  5
364
  8
DEFAULT
 10
58.98901367187456
 20
-519.260986328125
 30
-30.0
  0
VERTEX
  5
365
  8
DEFAULT
 10
58.99858093261675
 20
-519.6264190673828
 30
-30.0
  0
VERTEX
  5
366
  8
DEFAULT
 10
58.99999999999956
 20
-520.0
 30
-30.0
  0
VERTEX
  5
367
  8
DEFAULT
 10
58.99999999999956
 20
-549.0000000000005
 30
-30.0
  0
VERTEX
  5
368
  8
DEFAULT
 10
58.99858093261675
 20
-549.3735809326176
 30
-30.0
  0
VERTEX
  5
369
  8
DEFAULT
 10
58.98901367187455
 20
-549.7390136718755
 30
-30.0
  0
VERTEX
  5
36A
  8
DEFAULT
 10
58.97889995574906
 20
-549.91639995575
 30
-30.0
  0
VERTEX
  5
36B
  8
DEFAULT
 10
58.96415710449173
 20
-550.0891571044926
 30
-30.0
  0
VERTEX
  5
36C
  8
DEFAULT
 10
58.95482176542235
 20
-550.1735717654233
 30
-30.0
  0
VERTEX
  5
36D
  8
DEFAULT
 10
58.94406414031936
 20
-550.2565641403203
 30
-30.0
  0
VERTEX
  5
36E
  8
DEFAULT
 10
58.93180483579588
 20
-550.3380548357968
 30
-30.0
  0
VERTEX
  5
36F
  8
DEFAULT
 10
58.91796874999952
 20
-550.4179687500005
 30
-30.0
  0
VERTEX
  5
370
  8
DEFAULT
 10
58.90248507261227
 20
-550.4962350726132
 30
-30.0
  0
VERTEX
  5
371
  8
DEFAULT
 10
58.88528728485057
 20
-550.5727872848515
 30
-30.0
  0
VERTEX
  5
372
  8
DEFAULT
 10
58.86631315946529
 20
-550.6475631594662
 30
-30.0
  0
VERTEX
  5
373
  8
DEFAULT
 10
58.84550476074168
 20
-550.7205047607426
 30
-30.0
  0
VERTEX
  5
374
  8
DEFAULT
 10
58.82280844449944
 20
-550.7915584445004
 30
-30.0
  0
VERTEX
  5
375
  8
DEFAULT
 10
58.79817485809274
 20
-550.8606748580937
 30
-30.0
  0
VERTEX
  5
376
  8
DEFAULT
 10
58.7851173393423
 20
-550.8944923393433
 30
-30.0
  0
VERTEX
  5
377
  8
DEFAULT
 10
58.77155894041007
 20
-550.9278089404111
 30
-30.0
  0
VERTEX
  5
378
  8
DEFAULT
 10
58.75749469920939
 20
-550.9606196992104
 30
-30.0
  0
VERTEX
  5
379
  8
DEFAULT
 10
58.74291992187446
 20
-550.9929199218755
 30
-30.0
  0
VERTEX
  5
37A
  8
DEFAULT
 10
58.72783018276041
 20
-551.0247051827614
 30
-30.0
  0
VERTEX
  5
37B
  8
DEFAULT
 10
58.71222132444327
 20
-551.0559713244443
 30
-30.0
  0
VERTEX
  5
37C
  8
DEFAULT
 10
58.69608945771996
 20
-551.086714457721
 30
-30.0
  0
VERTEX
  5
37D
  8
DEFAULT
 10
58.67943096160833
 20
-551.1169309616093
 30
-30.0
  0
VERTEX
  5
37E
  8
DEFAULT
 10
58.6622424833471
 20
-551.1466174833481
 30
-30.0
  0
VERTEX
  5
37F
  8
DEFAULT
 10
58.64452093839589
 20
-551.1757709383969
 30
-30.0
  0
VERTEX
  5
380
  8
DEFAULT
 10
58.62626351043525
 20
-551.2043885104363
 30
-30.0
  0
VERTEX
  5
381
  8
DEFAULT
 10
58.60746765136661
 20
-551.2324676513676
 30
-30.0
  0
VERTEX
  5
382
  8
DEFAULT
 10
58.58813108131231
 20
-551.2600060813133
 30
-30.0
  0
VERTEX
  5
383
  8
DEFAULT
 10
58.5682517886156
 20
-551.2870017886166
 30
-30.0
  0
VERTEX
  5
384
  8
DEFAULT
 10
58.54782802984059
 20
-551.3134530298416
 30
-30.0
  0
VERTEX
  5
385
  8
DEFAULT
 10
58.52685832977235
 20
-551.3393583297734
 30
-30.0
  0
VERTEX
  5
386
  8
DEFAULT
 10
58.50534148141682
 20
-551.3647164814179
 30
-30.0
  0
VERTEX
  5
387
  8
DEFAULT
 10
58.48327654600084
 20
-551.3895265460019
 30
-30.0
  0
VERTEX
  5
388
  8
DEFAULT
 10
58.46066285297215
 20
-551.4137878529732
 30
-30.0
  0
VERTEX
  5
389
  8
DEFAULT
 10
58.43749999999939
 20
-551.4375000000005
 30
-30.0
  0
VERTEX
  5
38A
  8
DEFAULT
 10
58.41378785297213
 20
-551.4606628529732
 30
-30.0
  0
VERTEX
  5
38B
  8
DEFAULT
 10
58.38952654600081
 20
-551.4832765460019
 30
-30.0
  0
VERTEX
  5
38C
  8
DEFAULT
 10
58.36471648141679
 20
-551.5053414814179
 30
-30.0
  0
VERTEX
  5
38D
  8
DEFAULT
 10
58.33935832977232
 20
-551.5268583297734
 30
-30.0
  0
VERTEX
  5
38E
  8
DEFAULT
 10
58.31345302984056
 20
-551.5478280298416
 30
-30.0
  0
VERTEX
  5
38F
  8
DEFAULT
 10
58.28700178861555
 20
-551.5682517886166
 30
-30.0
  0
VERTEX
  5
390
  8
DEFAULT
 10
58.26000608131226
 20
-551.5881310813133
 30
-30.0
  0
VERTEX
  5
391
  8
DEFAULT
 10
58.23246765136655
 20
-551.6074676513676
 30
-30.0
  0
VERTEX
  5
392
  8
DEFAULT
 10
58.20438851043518
 20
-551.6262635104363
 30
-30.0
  0
VERTEX
  5
393
  8
DEFAULT
 10
58.17577093839581
 20
-551.6445209383969
 30
-30.0
  0
VERTEX
  5
394
  8
DEFAULT
 10
58.14661748334701
 20
-551.6622424833481
 30
-30.0
  0
VERTEX
  5
395
  8
DEFAULT
 10
58.11693096160824
 20
-551.6794309616093
 30
-30.0
  0
VERTEX
  5
396
  8
DEFAULT
 10
58.08671445771986
 20
-551.696089457721
 30
-30.0
  0
VERTEX
  5
397
  8
DEFAULT
 10
58.05597132444316
 20
-551.7122213244443
 30
-30.0
  0
VERTEX
  5
398
  8
DEFAULT
 10
58.0247051827603
 20
-551.7278301827614
 30
-30.0
  0
VERTEX
  5
399
  8
DEFAULT
 10
57.99291992187435
 20
-551.7429199218755
 30
-30.0
  0
VERTEX
  5
39A
  8
DEFAULT
 10
57.96061969920927
 20
-551.7574946992104
 30
-30.0
  0
VERTEX
  5
39B
  8
DEFAULT
 10
57.92780894040996
 20
-551.7715589404111
 30
-30.0
  0
VERTEX
  5
39C
  8
DEFAULT
 10
57.89449233934218
 20
-551.7851173393433
 30
-30.0
  0
VERTEX
  5
39D
  8
DEFAULT
 10
57.8606748580926
 20
-551.7981748580937
 30
-30.0
  0
VERTEX
  5
39E
  8
DEFAULT
 10
57.7915584444993
 20
-551.8228084445004
 30
-30.0
  0
VERTEX
  5
39F
  8
DEFAULT
 10
57.72050476074152
 20
-551.8455047607425
 30
-30.0
  0
VERTEX
  5
3A0
  8
DEFAULT
 10
57.64756315946512
 20
-551.866313159466
 30
-30.0
  0
VERTEX
  5
3A1
  8
DEFAULT
 10
57.57278728485041
 20
-551.8852872848513
 30
-30.0
  0
VERTEX
  5
3A2
  8
DEFAULT
 10
57.4962350726121
 20
-551.902485072613
 30
-30.0
  0
VERTEX
  5
3A3
  8
DEFAULT
 10
57.41796874999934
 20
-551.9179687500002
 30
-30.0
  0
VERTEX
  5
3A4
  8
DEFAULT
 10
57.3380548357957
 20
-551.9318048357966
 30
-30.0
  0
VERTEX
  5
3A5
  8
DEFAULT
 10
57.25656414031918
 20
-551.94406414032
 30
-30.0
  0
VERTEX
  5
3A6
  8
DEFAULT
 10
57.17357176542218
 20
-551.954821765423
 30
-30.0
  0
VERTEX
  5
3A7
  8
DEFAULT
 10
57.08915710449155
 20
-551.9641571044924
 30
-30.0
  0
VERTEX
  5
3A8
  8
DEFAULT
 10
56.91639995574889
 20
-551.9788999557497
 30
-30.0
  0
VERTEX
  5
3A9
  8
DEFAULT
 10
56.7390136718744
 20
-551.9890136718752
 30
-30.0
  0
VERTEX
  5
3AA
  8
DEFAULT
 10
56.37358093261665
 20
-551.9985809326174
 30
-30.0
  0
VERTEX
  5
3AB
  8
DEFAULT
 10
55.99999999999952
 20
-552.0000000000002
 30
-30.0
  0
SEQEND
  5
3AC
  8
DEFAULT
  0
POLYLINE
  5
3AD
  8
DEFAULT
 66
     1
 10
0.0
 20
0.0
 30
-30.00000000003144
 70
     1
  0
VERTEX
  5
3AE
  8
DEFAULT
 10
44.94619260803979
 20
-529.0000004179717
 30
-30.00000000003144
  0
VERTEX
  5
3AF
  8
DEFAULT
 10
37.44063934989074
 20
-529.0000004179717
 30
-30.00000000003144
  0
VERTEX
  5
3B0
  8
DEFAULT
 10
33.68786272081623
 20
-535.500000208986
 30
-30.00000000003144
  0
VERTEX
  5
3B1
  8
DEFAULT
 10
37.44063934989074
 20
-542.0
 30
-30.00000000003144
  0
VERTEX
  5
3B2
  8
DEFAULT
 10
44.94619260803979
 20
-542.0
 30
-30.00000000003144
  0
VERTEX
  5
3B3
  8
DEFAULT
 10
48.69896923711431
 20
-535.500000208986
 30
-30.00000000003144
  0
SEQEND
  5
3B4
  8
DEFAULT
  0
ENDSEC
  0
EOF
