  0
SECTION
  2
HEADER
  9
$ACADVER
  1
AC1009
  9
$DWGCODEPAGE
  3
ansi_1252
  9
$INSBASE
 10
0.0
 20
0.0
 30
0.0
  9
$EXTMIN
 10
2141.999996444059
 20
-359.0000000000001
 30
-0.0000000000000105
  9
$EXTMAX
 10
2447.99999644406
 20
16.00000000000045
 30
0.0
  9
$LIMMIN
 10
0.0
 20
0.0
  9
$LIMMAX
 10
12.0
 20
9.0
  9
$ORTHOMODE
 70
     0
  9
$REGENMODE
 70
     1
  9
$FILLMODE
 70
     1
  9
$QTEXTMODE
 70
     0
  9
$MIRRTEXT
 70
     1
  9
$DRAGMODE
 70
     2
  9
$LTSCALE
 40
1.0
  9
$OSMODE
 70
    37
  9
$ATTMODE
 70
     1
  9
$TEXTSIZE
 40
0.2
  9
$TRACEWID
 40
0.05
  9
$TEXTSTYLE
  7
STANDARD
  9
$CLAYER
  8
DEFAULT
  9
$CELTYPE
  6
BYLAYER
  9
$CECOLOR
 62
   256
  9
$DIMSCALE
 40
1.0
  9
$DIMASZ
 40
0.18
  9
$DIMEXO
 40
0.0625
  9
$DIMDLI
 40
0.38
  9
$DIMRND
 40
0.0
  9
$DIMDLE
 40
0.0
  9
$DIMEXE
 40
0.18
  9
$DIMTP
 40
0.0
  9
$DIMTM
 40
0.0
  9
$DIMTXT
 40
0.18
  9
$DIMCEN
 40
0.09
  9
$DIMTSZ
 40
0.0
  9
$DIMTOL
 70
     0
  9
$DIMLIM
 70
     0
  9
$DIMTIH
 70
     1
  9
$DIMTOH
 70
     1
  9
$DIMSE1
 70
     0
  9
$DIMSE2
 70
     0
  9
$DIMTAD
 70
     0
  9
$DIMZIN
 70
     0
  9
$DIMBLK
  1

  9
$DIMASO
 70
     1
  9
$DIMSHO
 70
     1
  9
$DIMPOST
  1

  9
$DIMAPOST
  1

  9
$DIMALT
 70
     0
  9
$DIMALTD
 70
     2
  9
$DIMALTF
 40
25.4
  9
$DIMLFAC
 40
1.0
  9
$DIMTOFL
 70
     0
  9
$DIMTVP
 40
0.0
  9
$DIMTIX
 70
     0
  9
$DIMSOXD
 70
     0
  9
$DIMSAH
 70
     0
  9
$DIMBLK1
  1

  9
$DIMBLK2
  1

  9
$DIMSTYLE
  2
STANDARD_ACAD
  9
$DIMCLRD
 70
     0
  9
$DIMCLRE
 70
     0
  9
$DIMCLRT
 70
     0
  9
$DIMTFAC
 40
1.0
  9
$DIMGAP
 40
0.09
  9
$LUNITS
 70
     2
  9
$LUPREC
 70
     3
  9
$SKETCHINC
 40
0.1
  9
$FILLETRAD
 40
0.0
  9
$AUNITS
 70
     0
  9
$AUPREC
 70
     0
  9
$MENU
  1
.
  9
$ELEVATION
 40
0.0
  9
$PELEVATION
 40
0.0
  9
$THICKNESS
 40
0.0
  9
$LIMCHECK
 70
     0
  9
$CHAMFERA
 40
0.0
  9
$CHAMFERB
 40
0.0
  9
$SKPOLY
 70
     0
  9
$TDCREATE
 40
2461119.593252338
  9
$TDUPDATE
 40
2461119.59328294
  9
$TDINDWG
 40
0.0000000116
  9
$TDUSRTIMER
 40
0.0000000116
  9
$USRTIMER
 70
     1
  9
$ANGBASE
 50
0.0
  9
$ANGDIR
 70
     0
  9
$PDMODE
 70
     0
  9
$PDSIZE
 40
0.0
  9
$PLINEWID
 40
0.0
  9
$COORDS
 70
     1
  9
$SPLFRAME
 70
     0
  9
$SPLINETYPE
 70
     6
  9
$SPLINESEGS
 70
     8
  9
$ATTDIA
 70
     0
  9
$ATTREQ
 70
     1
  9
$HANDLING
 70
     1
  9
$HANDSEED
  5
309
  9
$SURFTAB1
 70
     6
  9
$SURFTAB2
 70
     6
  9
$SURFTYPE
 70
     6
  9
$SURFU
 70
     6
  9
$SURFV
 70
     6
  9
$UCSNAME
  2

  9
$UCSORG
 10
0.0
 20
0.0
 30
0.0
  9
$UCSXDIR
 10
1.0
 20
0.0
 30
0.0
  9
$UCSYDIR
 10
0.0
 20
1.0
 30
0.0
  9
$PUCSNAME
  2

  9
$PUCSORG
 10
0.0
 20
0.0
 30
0.0
  9
$PUCSXDIR
 10
1.0
 20
0.0
 30
0.0
  9
$PUCSYDIR
 10
0.0
 20
1.0
 30
0.0
  9
$USERI1
 70
     0
  9
$USERI2
 70
     0
  9
$USERI3
 70
     0
  9
$USERI4
 70
     0
  9
$USERI5
 70
     0
  9
$USERR1
 40
0.0
  9
$USERR2
 40
0.0
  9
$USERR3
 40
0.0
  9
$USERR4
 40
0.0
  9
$USERR5
 40
0.0
  9
$WORLDVIEW
 70
     1
  9
$SHADEDGE
 70
     3
  9
$SHADEDIF
 70
    70
  9
$TILEMODE
 70
     1
  9
$MAXACTVP
 70
    64
  9
$PLIMCHECK
 70
     0
  9
$PEXTMIN
 10
1.000000000000000E+20
 20
1.000000000000000E+20
 30
1.000000000000000E+20
  9
$PEXTMAX
 10
-1.000000000000000E+20
 20
-1.000000000000000E+20
 30
-1.000000000000000E+20
  9
$PLIMMIN
 10
0.0
 20
0.0
  9
$PLIMMAX
 10
12.0
 20
9.0
  9
$UNITMODE
 70
     0
  9
$VISRETAIN
 70
     1
  9
$PLINEGEN
 70
     0
  9
$PSLTSCALE
 70
     1
  0
ENDSEC
  0
SECTION
  2
TABLES
  0
TABLE
  2
VPORT
 70
     1
  0
VPORT
  2
*ACTIVE
 70
     0
 10
0.0
 20
0.0
 11
1.0
 21
1.0
 12
10.42990654205607
 22
4.5
 13
0.0
 23
0.0
 14
0.5
 24
0.5
 15
0.5
 25
0.5
 16
0.0
 26
0.0
 36
1.0
 17
0.0
 27
0.0
 37
0.0
 40
9.0
 41
1.972972972850329
 42
50.0
 43
0.0
 44
0.0
 50
0.0
 51
0.0
 71
     0
 72
   100
 73
     1
 74
     3
 75
     0
 76
     0
 77
     0
 78
     0
  0
ENDTAB
  0
TABLE
  2
LTYPE
 70
     1
  0
LTYPE
  2
CONTINUOUS
 70
     0
  3
Solid line
 72
    65
 73
     0
 40
0.0
  0
ENDTAB
  0
TABLE
  2
LAYER
 70
     2
  0
LAYER
  2
0
 70
     0
 62
     7
  6
CONTINUOUS
  0
LAYER
  2
DEFAULT
 70
     0
 62
     7
  6
CONTINUOUS
  0
ENDTAB
  0
TABLE
  2
STYLE
 70
     1
  0
STYLE
  2
STANDARD
 70
     0
 40
0.0
 41
1.0
 50
0.0
 71
     0
 42
0.2
  3
txt
  4

  0
ENDTAB
  0
TABLE
  2
VIEW
 70
     0
  0
ENDTAB
  0
TABLE
  2
UCS
 70
     0
  0
ENDTAB
  0
TABLE
  2
APPID
 70
     2
  0
APPID
  2
ACAD
 70
     0
  0
APPID
  2
RHINO
 70
     0
  0
ENDTAB
  0
TABLE
  2
DIMSTYLE
 70
     1
  0
DIMSTYLE
  2
STANDARD_ACAD
 70
     0
  3

  4

  5

  6

  7

 40
1.0
 41
0.18
 42
0.0625
 43
0.38
 44
0.18
 45
0.0
 46
0.0
 47
0.0
 48
0.0
140
0.18
141
0.09
142
0.0
143
25.4
144
1.0
145
0.0
146
1.0
147
0.09
 71
     0
 72
     0
 73
     1
 74
     1
 75
     0
 76
     0
 77
     0
 78
     0
170
     0
171
     2
172
     0
173
     0
174
     0
175
     0
176
     0
177
     0
178
     0
  0
ENDTAB
  0
ENDSEC
  0
SECTION
  2
BLOCKS
  0
BLOCK
  8
0
  2
$MODEL_SPACE
 70
     0
 10
0.0
 20
0.0
 30
0.0
  3
$MODEL_SPACE
  1

  0
ENDBLK
  5
21
  8
0
  0
BLOCK
 67
     1
  8
0
  2
$PAPER_SPACE
 70
     0
 10
0.0
 20
0.0
 30
0.0
  3
$PAPER_SPACE
  1

  0
ENDBLK
  5
1D
 67
     1
  8
0
  0
ENDSEC
  0
SECTION
  2
ENTITIES
  0
LINE
  5
60
  8
DEFAULT
 10
2212.599846977812
 20
-282.3634276970157
 30
0.0
 11
2216.456006120888
 21
-282.3634276970157
 31
0.0
  0
LINE
  5
61
  8
DEFAULT
 10
2216.456006120888
 20
-282.3634276970157
 30
0.0
 11
2216.260723508034
 21
-281.9538542463654
 31
0.0
  0
LINE
  5
62
  8
DEFAULT
 10
2216.260723508034
 20
-281.9538542463654
 30
0.0
 11
2216.076558913543
 21
-281.5399770466714
 31
0.0
  0
LINE
  5
63
  8
DEFAULT
 10
2216.076558913543
 20
-281.5399770466714
 30
0.0
 11
2215.903512337414
 21
-281.1217960979338
 31
0.0
  0
LINE
  5
64
  8
DEFAULT
 10
2215.903512337414
 20
-281.1217960979338
 30
0.0
 11
2215.741583779648
 21
-280.6993114001526
 31
0.0
  0
LINE
  5
65
  8
DEFAULT
 10
2215.741583779648
 20
-280.6993114001526
 30
0.0
 11
2215.590773240245
 21
-280.2725229533278
 31
0.0
  0
LINE
  5
66
  8
DEFAULT
 10
2215.590773240245
 20
-280.2725229533278
 30
0.0
 11
2215.451080719205
 21
-279.8414307574594
 31
0.0
  0
LINE
  5
67
  8
DEFAULT
 10
2215.451080719205
 20
-279.8414307574594
 30
0.0
 11
2215.322506216527
 21
-279.4060348125474
 31
0.0
  0
LINE
  5
68
  8
DEFAULT
 10
2215.322506216527
 20
-279.4060348125474
 30
0.0
 11
2215.205049732212
 21
-278.9663351185918
 31
0.0
  0
LINE
  5
69
  8
DEFAULT
 10
2215.205049732212
 20
-278.9663351185918
 30
0.0
 11
2215.100145849274
 21
-278.5219730298389
 31
0.0
  0
LINE
  5
6A
  8
DEFAULT
 10
2215.100145849274
 20
-278.5219730298389
 30
0.0
 11
2215.009229150727
 21
-278.0725899005352
 31
0.0
  0
LINE
  5
6B
  8
DEFAULT
 10
2215.009229150727
 20
-278.0725899005352
 30
0.0
 11
2214.932299636573
 21
-277.6181857306806
 31
0.0
  0
LINE
  5
6C
  8
DEFAULT
 10
2214.932299636573
 20
-277.6181857306806
 30
0.0
 11
2214.86935730681
 21
-277.1587605202751
 31
0.0
  0
LINE
  5
6D
  8
DEFAULT
 10
2214.86935730681
 20
-277.1587605202751
 30
0.0
 11
2214.820402161438
 21
-276.6943142693187
 31
0.0
  0
LINE
  5
6E
  8
DEFAULT
 10
2214.820402161438
 20
-276.6943142693187
 30
0.0
 11
2214.785434200459
 21
-276.2248469778115
 31
0.0
  0
LINE
  5
6F
  8
DEFAULT
 10
2214.785434200459
 20
-276.2248469778115
 30
0.0
 11
2214.764453423872
 21
-275.7503586457533
 31
0.0
  0
LINE
  5
70
  8
DEFAULT
 10
2214.764453423872
 20
-275.7503586457533
 30
0.0
 11
2214.757459831676
 21
-275.2708492731443
 31
0.0
  0
LINE
  5
71
  8
DEFAULT
 10
2214.757459831676
 20
-275.2708492731443
 30
0.0
 11
2214.760351413065
 21
-274.9875191277732
 31
0.0
  0
LINE
  5
72
  8
DEFAULT
 10
2214.760351413065
 20
-274.9875191277732
 30
0.0
 11
2214.769026157231
 21
-274.7084927314457
 31
0.0
  0
LINE
  5
73
  8
DEFAULT
 10
2214.769026157231
 20
-274.7084927314457
 30
0.0
 11
2214.783484064174
 21
-274.4337700841619
 31
0.0
  0
LINE
  5
74
  8
DEFAULT
 10
2214.783484064174
 20
-274.4337700841619
 30
0.0
 11
2214.803725133895
 21
-274.1633511859216
 31
0.0
  0
LINE
  5
75
  8
DEFAULT
 10
2214.803725133895
 20
-274.1633511859216
 30
0.0
 11
2214.829749366393
 21
-273.897236036725
 31
0.0
  0
LINE
  5
76
  8
DEFAULT
 10
2214.829749366393
 20
-273.897236036725
 30
0.0
 11
2214.861556761668
 21
-273.6354246365719
 31
0.0
  0
LINE
  5
77
  8
DEFAULT
 10
2214.861556761668
 20
-273.6354246365719
 30
0.0
 11
2214.899147319721
 21
-273.3779169854625
 31
0.0
  0
LINE
  5
78
  8
DEFAULT
 10
2214.899147319721
 20
-273.3779169854625
 30
0.0
 11
2214.942521040551
 21
-273.1247130833967
 31
0.0
  0
LINE
  5
79
  8
DEFAULT
 10
2214.942521040551
 20
-273.1247130833967
 30
0.0
 11
2214.991677924159
 21
-272.8758129303745
 31
0.0
  0
LINE
  5
7A
  8
DEFAULT
 10
2214.991677924159
 20
-272.8758129303745
 30
0.0
 11
2215.046617970544
 21
-272.631216526396
 31
0.0
  0
LINE
  5
7B
  8
DEFAULT
 10
2215.046617970544
 20
-272.631216526396
 30
0.0
 11
2215.107341179706
 21
-272.390923871461
 31
0.0
  0
LINE
  5
7C
  8
DEFAULT
 10
2215.107341179706
 20
-272.390923871461
 30
0.0
 11
2215.173847551645
 21
-272.1549349655696
 31
0.0
  0
LINE
  5
7D
  8
DEFAULT
 10
2215.173847551645
 20
-272.1549349655696
 30
0.0
 11
2215.246137086363
 21
-271.9232498087219
 31
0.0
  0
LINE
  5
7E
  8
DEFAULT
 10
2215.246137086363
 20
-271.9232498087219
 30
0.0
 11
2215.324209783857
 21
-271.6958684009178
 31
0.0
  0
LINE
  5
7F
  8
DEFAULT
 10
2215.324209783857
 20
-271.6958684009178
 30
0.0
 11
2215.408065644128
 21
-271.4727907421573
 31
0.0
  0
LINE
  5
80
  8
DEFAULT
 10
2215.408065644128
 20
-271.4727907421573
 30
0.0
 11
2215.497704667177
 21
-271.2540168324404
 31
0.0
  0
LINE
  5
81
  8
DEFAULT
 10
2215.497704667177
 20
-271.2540168324404
 30
0.0
 11
2215.593126853003
 21
-271.0395466717671
 31
0.0
  0
LINE
  5
82
  8
DEFAULT
 10
2215.593126853003
 20
-271.0395466717671
 30
0.0
 11
2215.694332201607
 21
-270.8293802601374
 31
0.0
  0
LINE
  5
83
  8
DEFAULT
 10
2215.694332201607
 20
-270.8293802601374
 30
0.0
 11
2215.801320712988
 21
-270.6235175975513
 31
0.0
  0
LINE
  5
84
  8
DEFAULT
 10
2215.801320712988
 20
-270.6235175975513
 30
0.0
 11
2215.914092387146
 21
-270.4219586840089
 31
0.0
  0
LINE
  5
85
  8
DEFAULT
 10
2215.914092387146
 20
-270.4219586840089
 30
0.0
 11
2216.032647224082
 21
-270.2247035195101
 31
0.0
  0
LINE
  5
86
  8
DEFAULT
 10
2216.032647224082
 20
-270.2247035195101
 30
0.0
 11
2216.156985223795
 21
-270.0317521040548
 31
0.0
  0
LINE
  5
87
  8
DEFAULT
 10
2216.156985223795
 20
-270.0317521040548
 30
0.0
 11
2216.287106386286
 21
-269.8431044376431
 31
0.0
  0
LINE
  5
88
  8
DEFAULT
 10
2216.287106386286
 20
-269.8431044376431
 30
0.0
 11
2216.423010711554
 21
-269.6587605202751
 31
0.0
  0
LINE
  5
89
  8
DEFAULT
 10
2216.423010711554
 20
-269.6587605202751
 30
0.0
 11
2216.564698199599
 21
-269.4787203519507
 31
0.0
  0
LINE
  5
8A
  8
DEFAULT
 10
2216.564698199599
 20
-269.4787203519507
 30
0.0
 11
2216.712168850421
 21
-269.3029839326699
 31
0.0
  0
LINE
  5
8B
  8
DEFAULT
 10
2216.712168850421
 20
-269.3029839326699
 30
0.0
 11
2216.865422664021
 21
-269.1315512624327
 31
0.0
  0
LINE
  5
8C
  8
DEFAULT
 10
2216.865422664021
 20
-269.1315512624327
 30
0.0
 11
2217.024459640398
 21
-268.9644223412391
 31
0.0
  0
LINE
  5
8D
  8
DEFAULT
 10
2217.024459640398
 20
-268.9644223412391
 30
0.0
 11
2217.189279779553
 21
-268.8015971690892
 31
0.0
  0
LINE
  5
8E
  8
DEFAULT
 10
2217.189279779553
 20
-268.8015971690892
 30
0.0
 11
2217.359883081484
 21
-268.6430757459828
 31
0.0
  0
LINE
  5
8F
  8
DEFAULT
 10
2217.359883081484
 20
-268.6430757459828
 30
0.0
 11
2217.536269546194
 21
-268.48885807192
 31
0.0
  0
LINE
  5
90
  8
DEFAULT
 10
2217.536269546194
 20
-268.48885807192
 30
0.0
 11
2217.71843917368
 21
-268.3389441469009
 31
0.0
  0
LINE
  5
91
  8
DEFAULT
 10
2217.71843917368
 20
-268.3389441469009
 30
0.0
 11
2217.906302302506
 21
-268.1934908784426
 31
0.0
  0
LINE
  5
92
  8
DEFAULT
 10
2217.906302302506
 20
-268.1934908784426
 30
0.0
 11
2218.099769271232
 21
-268.0526551740624
 31
0.0
  0
LINE
  5
93
  8
DEFAULT
 10
2218.099769271232
 20
-268.0526551740624
 30
0.0
 11
2218.298840079859
 21
-267.9164370337601
 31
0.0
  0
LINE
  5
94
  8
DEFAULT
 10
2218.298840079859
 20
-267.9164370337601
 30
0.0
 11
2218.503514728386
 21
-267.784836457536
 31
0.0
  0
LINE
  5
95
  8
DEFAULT
 10
2218.503514728386
 20
-267.784836457536
 30
0.0
 11
2218.713793216814
 21
-267.6578534453898
 31
0.0
  0
LINE
  5
96
  8
DEFAULT
 10
2218.713793216814
 20
-267.6578534453898
 30
0.0
 11
2218.929675545142
 21
-267.5354879973218
 31
0.0
  0
LINE
  5
97
  8
DEFAULT
 10
2218.929675545142
 20
-267.5354879973218
 30
0.0
 11
2219.151161713371
 21
-267.4177401133317
 31
0.0
  0
LINE
  5
98
  8
DEFAULT
 10
2219.151161713371
 20
-267.4177401133317
 30
0.0
 11
2219.3782517215
 21
-267.3046097934197
 31
0.0
  0
LINE
  5
99
  8
DEFAULT
 10
2219.3782517215
 20
-267.3046097934197
 30
0.0
 11
2219.61094556953
 21
-267.1960970375857
 31
0.0
  0
LINE
  5
9A
  8
DEFAULT
 10
2219.61094556953
 20
-267.1960970375857
 30
0.0
 11
2219.84924325746
 21
-267.0922018458298
 31
0.0
  0
LINE
  5
9B
  8
DEFAULT
 10
2219.84924325746
 20
-267.0922018458298
 30
0.0
 11
2220.093144785291
 21
-266.9929242181519
 31
0.0
  0
LINE
  5
9C
  8
DEFAULT
 10
2220.093144785291
 20
-266.9929242181519
 30
0.0
 11
2220.342650153023
 21
-266.8982641545521
 31
0.0
  0
LINE
  5
9D
  8
DEFAULT
 10
2220.342650153023
 20
-266.8982641545521
 30
0.0
 11
2220.597759360654
 21
-266.8082216550303
 31
0.0
  0
LINE
  5
9E
  8
DEFAULT
 10
2220.597759360654
 20
-266.8082216550303
 30
0.0
 11
2220.858472408187
 21
-266.7227967195865
 31
0.0
  0
LINE
  5
9F
  8
DEFAULT
 10
2220.858472408187
 20
-266.7227967195865
 30
0.0
 11
2221.12478929562
 21
-266.6419893482207
 31
0.0
  0
LINE
  5
A0
  8
DEFAULT
 10
2221.12478929562
 20
-266.6419893482207
 30
0.0
 11
2221.396710022954
 21
-266.5657995409331
 31
0.0
  0
LINE
  5
A1
  8
DEFAULT
 10
2221.396710022954
 20
-266.5657995409331
 30
0.0
 11
2221.674234590188
 21
-266.4942272977235
 31
0.0
  0
LINE
  5
A2
  8
DEFAULT
 10
2221.674234590188
 20
-266.4942272977235
 30
0.0
 11
2221.957362997322
 21
-266.4272726185919
 31
0.0
  0
LINE
  5
A3
  8
DEFAULT
 10
2221.957362997322
 20
-266.4272726185919
 30
0.0
 11
2222.246095244358
 21
-266.3649355035383
 31
0.0
  0
LINE
  5
A4
  8
DEFAULT
 10
2222.246095244358
 20
-266.3649355035383
 30
0.0
 11
2222.540431331293
 21
-266.3072159525628
 31
0.0
  0
LINE
  5
A5
  8
DEFAULT
 10
2222.540431331293
 20
-266.3072159525628
 30
0.0
 11
2222.840371258129
 21
-266.2541139656653
 31
0.0
  0
LINE
  5
A6
  8
DEFAULT
 10
2222.840371258129
 20
-266.2541139656653
 30
0.0
 11
2223.145915024867
 21
-266.2056295428459
 31
0.0
  0
LINE
  5
A7
  8
DEFAULT
 10
2223.145915024867
 20
-266.2056295428459
 30
0.0
 11
2223.773814078042
 21
-266.1225133894411
 31
0.0
  0
LINE
  5
A8
  8
DEFAULT
 10
2223.773814078042
 20
-266.1225133894411
 30
0.0
 11
2224.424128490819
 21
-266.0578674923486
 31
0.0
  0
LINE
  5
A9
  8
DEFAULT
 10
2224.424128490819
 20
-266.0578674923486
 30
0.0
 11
2225.096858263199
 21
-266.0116918515681
 31
0.0
  0
LINE
  5
AA
  8
DEFAULT
 10
2225.096858263199
 20
-266.0116918515681
 30
0.0
 11
2225.79200339518
 21
-265.9839864670998
 31
0.0
  0
LINE
  5
AB
  8
DEFAULT
 10
2225.79200339518
 20
-265.9839864670998
 30
0.0
 11
2226.509563886764
 21
-265.9747513389438
 31
0.0
  0
LINE
  5
AC
  8
DEFAULT
 10
2226.509563886764
 20
-265.9747513389438
 30
0.0
 11
2227.194397953328
 21
-265.9847934200455
 31
0.0
  0
LINE
  5
AD
  8
DEFAULT
 10
2227.194397953328
 20
-265.9847934200455
 30
0.0
 11
2227.86022379495
 21
-266.0149196633508
 31
0.0
  0
LINE
  5
AE
  8
DEFAULT
 10
2227.86022379495
 20
-266.0149196633508
 30
0.0
 11
2228.50704141163
 21
-266.0651300688597
 31
0.0
  0
LINE
  5
AF
  8
DEFAULT
 10
2228.50704141163
 20
-266.0651300688597
 30
0.0
 11
2228.823322135616
 21
-266.0977668324404
 31
0.0
  0
LINE
  5
B0
  8
DEFAULT
 10
2228.823322135616
 20
-266.0977668324404
 30
0.0
 11
2229.134850803367
 21
-266.135424636572
 31
0.0
  0
LINE
  5
B1
  8
DEFAULT
 10
2229.134850803367
 20
-266.135424636572
 30
0.0
 11
2229.441627414881
 21
-266.1781034812545
 31
0.0
  0
LINE
  5
B2
  8
DEFAULT
 10
2229.441627414881
 20
-266.1781034812545
 30
0.0
 11
2229.74365197016
 21
-266.2258033664879
 31
0.0
  0
LINE
  5
B3
  8
DEFAULT
 10
2229.74365197016
 20
-266.2258033664879
 30
0.0
 11
2230.040924469204
 21
-266.2785242922721
 31
0.0
  0
LINE
  5
B4
  8
DEFAULT
 10
2230.040924469204
 20
-266.2785242922721
 30
0.0
 11
2230.333444912012
 21
-266.3362662586072
 31
0.0
  0
LINE
  5
B5
  8
DEFAULT
 10
2230.333444912012
 20
-266.3362662586072
 30
0.0
 11
2230.621213298584
 21
-266.3990292654931
 31
0.0
  0
LINE
  5
B6
  8
DEFAULT
 10
2230.621213298584
 20
-266.3990292654931
 30
0.0
 11
2230.904229628921
 21
-266.46681331293
 31
0.0
  0
LINE
  5
B7
  8
DEFAULT
 10
2230.904229628921
 20
-266.46681331293
 30
0.0
 11
2231.182493903023
 21
-266.5396184009178
 31
0.0
  0
LINE
  5
B8
  8
DEFAULT
 10
2231.182493903023
 20
-266.5396184009178
 30
0.0
 11
2231.456006120888
 21
-266.6174445294565
 31
0.0
  0
LINE
  5
B9
  8
DEFAULT
 10
2231.456006120888
 20
-266.6174445294565
 30
0.0
 11
2231.724542128921
 21
-266.6999330527924
 31
0.0
  0
LINE
  5
BA
  8
DEFAULT
 10
2231.724542128921
 20
-266.6999330527924
 30
0.0
 11
2231.987877773527
 21
-266.7867253251719
 31
0.0
  0
LINE
  5
BB
  8
DEFAULT
 10
2231.987877773527
 20
-266.7867253251719
 30
0.0
 11
2232.246013054705
 21
-266.877821346595
 31
0.0
  0
LINE
  5
BC
  8
DEFAULT
 10
2232.246013054705
 20
-266.877821346595
 30
0.0
 11
2232.498947972456
 21
-266.9732211170617
 31
0.0
  0
LINE
  5
BD
  8
DEFAULT
 10
2232.498947972456
 20
-266.9732211170617
 30
0.0
 11
2232.746682526779
 21
-267.072924636572
 31
0.0
  0
LINE
  5
BE
  8
DEFAULT
 10
2232.746682526779
 20
-267.072924636572
 30
0.0
 11
2232.989216717674
 21
-267.1769319051259
 31
0.0
  0
LINE
  5
BF
  8
DEFAULT
 10
2232.989216717674
 20
-267.1769319051259
 30
0.0
 11
2233.226550545141
 21
-267.2852429227235
 31
0.0
  0
LINE
  5
C0
  8
DEFAULT
 10
2233.226550545141
 20
-267.2852429227235
 30
0.0
 11
2233.458684009182
 21
-267.3978576893646
 31
0.0
  0
LINE
  5
C1
  8
DEFAULT
 10
2233.458684009182
 20
-267.3978576893646
 30
0.0
 11
2233.685617109793
 21
-267.5147762050494
 31
0.0
  0
LINE
  5
C2
  8
DEFAULT
 10
2233.685617109793
 20
-267.5147762050494
 30
0.0
 11
2233.907349846978
 21
-267.6359984697778
 31
0.0
  0
LINE
  5
C3
  8
DEFAULT
 10
2233.907349846978
 20
-267.6359984697778
 30
0.0
 11
2234.123882220735
 21
-267.7615244835498
 31
0.0
  0
LINE
  5
C4
  8
DEFAULT
 10
2234.123882220735
 20
-267.7615244835498
 30
0.0
 11
2234.335214231064
 21
-267.8913542463654
 31
0.0
  0
LINE
  5
C5
  8
DEFAULT
 10
2234.335214231064
 20
-267.8913542463654
 30
0.0
 11
2234.541345877965
 21
-268.0254877582246
 31
0.0
  0
LINE
  5
C6
  8
DEFAULT
 10
2234.541345877965
 20
-268.0254877582246
 30
0.0
 11
2234.742277161439
 21
-268.1639250191274
 31
0.0
  0
LINE
  5
C7
  8
DEFAULT
 10
2234.742277161439
 20
-268.1639250191274
 30
0.0
 11
2234.938008081485
 21
-268.3066660290739
 31
0.0
  0
LINE
  5
C8
  8
DEFAULT
 10
2234.938008081485
 20
-268.3066660290739
 30
0.0
 11
2235.128538638103
 21
-268.4537107880639
 31
0.0
  0
LINE
  5
C9
  8
DEFAULT
 10
2235.128538638103
 20
-268.4537107880639
 30
0.0
 11
2235.313689508416
 21
-268.60492480394
 31
0.0
  0
LINE
  5
CA
  8
DEFAULT
 10
2235.313689508416
 20
-268.60492480394
 30
0.0
 11
2235.493281369549
 21
-268.7601735845444
 31
0.0
  0
LINE
  5
CB
  8
DEFAULT
 10
2235.493281369549
 20
-268.7601735845444
 30
0.0
 11
2235.6673142215
 21
-268.9194571298773
 31
0.0
  0
LINE
  5
CC
  8
DEFAULT
 10
2235.6673142215
 20
-268.9194571298773
 30
0.0
 11
2235.83578806427
 21
-269.0827754399385
 31
0.0
  0
LINE
  5
CD
  8
DEFAULT
 10
2235.83578806427
 20
-269.0827754399385
 30
0.0
 11
2235.998702897858
 21
-269.2501285147281
 31
0.0
  0
LINE
  5
CE
  8
DEFAULT
 10
2235.998702897858
 20
-269.2501285147281
 30
0.0
 11
2236.156058722265
 21
-269.421516354246
 31
0.0
  0
LINE
  5
CF
  8
DEFAULT
 10
2236.156058722265
 20
-269.421516354246
 30
0.0
 11
2236.30785553749
 21
-269.5969389584924
 31
0.0
  0
LINE
  5
D0
  8
DEFAULT
 10
2236.30785553749
 20
-269.5969389584924
 30
0.0
 11
2236.454093343535
 21
-269.7763963274672
 31
0.0
  0
LINE
  5
D1
  8
DEFAULT
 10
2236.454093343535
 20
-269.7763963274672
 30
0.0
 11
2236.594772140398
 21
-269.9598884611704
 31
0.0
  0
LINE
  5
D2
  8
DEFAULT
 10
2236.594772140398
 20
-269.9598884611704
 30
0.0
 11
2236.72989192808
 21
-270.1474153596018
 31
0.0
  0
LINE
  5
D3
  8
DEFAULT
 10
2236.72989192808
 20
-270.1474153596018
 30
0.0
 11
2236.85945270658
 21
-270.3389770227618
 31
0.0
  0
LINE
  5
D4
  8
DEFAULT
 10
2236.85945270658
 20
-270.3389770227618
 30
0.0
 11
2236.983454475899
 21
-270.53457345065
 31
0.0
  0
LINE
  5
D5
  8
DEFAULT
 10
2236.983454475899
 20
-270.53457345065
 30
0.0
 11
2237.101897236037
 21
-270.7342046432667
 31
0.0
  0
LINE
  5
D6
  8
DEFAULT
 10
2237.101897236037
 20
-270.7342046432667
 30
0.0
 11
2237.214780986993
 21
-270.9378706006117
 31
0.0
  0
LINE
  5
D7
  8
DEFAULT
 10
2237.214780986993
 20
-270.9378706006117
 30
0.0
 11
2237.322105728768
 21
-271.1455713226852
 31
0.0
  0
LINE
  5
D8
  8
DEFAULT
 10
2237.322105728768
 20
-271.1455713226852
 30
0.0
 11
2237.423871461362
 21
-271.3573068094871
 31
0.0
  0
LINE
  5
D9
  8
DEFAULT
 10
2237.423871461362
 20
-271.3573068094871
 30
0.0
 11
2237.51976436974
 21
-271.5726287538253
 31
0.0
  0
LINE
  5
DA
  8
DEFAULT
 10
2237.51976436974
 20
-271.5726287538253
 30
0.0
 11
2237.609470638868
 21
-271.7910888485077
 31
0.0
  0
LINE
  5
DB
  8
DEFAULT
 10
2237.609470638868
 20
-271.7910888485077
 30
0.0
 11
2237.692990268745
 21
-272.0126870935345
 31
0.0
  0
LINE
  5
DC
  8
DEFAULT
 10
2237.692990268745
 20
-272.0126870935345
 30
0.0
 11
2237.770323259373
 21
-272.2374234889056
 31
0.0
  0
LINE
  5
DD
  8
DEFAULT
 10
2237.770323259373
 20
-272.2374234889056
 30
0.0
 11
2237.84146961075
 21
-272.4652980346209
 31
0.0
  0
LINE
  5
DE
  8
DEFAULT
 10
2237.84146961075
 20
-272.4652980346209
 30
0.0
 11
2237.906429322877
 21
-272.6963107306806
 31
0.0
  0
LINE
  5
DF
  8
DEFAULT
 10
2237.906429322877
 20
-272.6963107306806
 30
0.0
 11
2237.965202395753
 21
-272.9304615770846
 31
0.0
  0
LINE
  5
E0
  8
DEFAULT
 10
2237.965202395753
 20
-272.9304615770846
 30
0.0
 11
2238.01778882938
 21
-273.1677505738329
 31
0.0
  0
LINE
  5
E1
  8
DEFAULT
 10
2238.01778882938
 20
-273.1677505738329
 30
0.0
 11
2238.064188623757
 21
-273.4081777209254
 31
0.0
  0
LINE
  5
E2
  8
DEFAULT
 10
2238.064188623757
 20
-273.4081777209254
 30
0.0
 11
2238.104401778883
 21
-273.6517430183623
 31
0.0
  0
LINE
  5
E3
  8
DEFAULT
 10
2238.104401778883
 20
-273.6517430183623
 30
0.0
 11
2238.138428294759
 21
-273.8984464661435
 31
0.0
  0
LINE
  5
E4
  8
DEFAULT
 10
2238.138428294759
 20
-273.8984464661435
 30
0.0
 11
2238.166268171385
 21
-274.148288064269
 31
0.0
  0
LINE
  5
E5
  8
DEFAULT
 10
2238.166268171385
 20
-274.148288064269
 30
0.0
 11
2238.187921408761
 21
-274.4012678127388
 31
0.0
  0
LINE
  5
E6
  8
DEFAULT
 10
2238.187921408761
 20
-274.4012678127388
 30
0.0
 11
2238.203388006887
 21
-274.6573857115528
 31
0.0
  0
LINE
  5
E7
  8
DEFAULT
 10
2238.203388006887
 20
-274.6573857115528
 30
0.0
 11
2238.212667965761
 21
-274.9166417607112
 31
0.0
  0
LINE
  5
E8
  8
DEFAULT
 10
2238.212667965761
 20
-274.9166417607112
 30
0.0
 11
2238.215761285387
 21
-275.1790359602139
 31
0.0
  0
LINE
  5
E9
  8
DEFAULT
 10
2238.215761285387
 20
-275.1790359602139
 30
0.0
 11
2238.208409047437
 21
-275.6904648048964
 31
0.0
  0
LINE
  5
EA
  8
DEFAULT
 10
2238.208409047437
 20
-275.6904648048964
 30
0.0
 11
2238.186352333589
 21
-276.1918515684771
 31
0.0
  0
LINE
  5
EB
  8
DEFAULT
 10
2238.186352333589
 20
-276.1918515684771
 30
0.0
 11
2238.149591143841
 21
-276.683196250956
 31
0.0
  0
LINE
  5
EC
  8
DEFAULT
 10
2238.149591143841
 20
-276.683196250956
 30
0.0
 11
2238.098125478195
 21
-277.1644988523333
 31
0.0
  0
LINE
  5
ED
  8
DEFAULT
 10
2238.098125478195
 20
-277.1644988523333
 30
0.0
 11
2238.031955336649
 21
-277.6357593726087
 31
0.0
  0
LINE
  5
EE
  8
DEFAULT
 10
2238.031955336649
 20
-277.6357593726087
 30
0.0
 11
2237.951080719205
 21
-278.0969778117824
 31
0.0
  0
LINE
  5
EF
  8
DEFAULT
 10
2237.951080719205
 20
-278.0969778117824
 30
0.0
 11
2237.90512923202
 21
-278.323821250956
 31
0.0
  0
LINE
  5
F0
  8
DEFAULT
 10
2237.90512923202
 20
-278.323821250956
 30
0.0
 11
2237.855501625861
 21
-278.5481541698542
 31
0.0
  0
LINE
  5
F1
  8
DEFAULT
 10
2237.855501625861
 20
-278.5481541698542
 30
0.0
 11
2237.802197900727
 21
-278.769976568477
 31
0.0
  0
LINE
  5
F2
  8
DEFAULT
 10
2237.802197900727
 20
-278.769976568477
 30
0.0
 11
2237.745218056618
 21
-278.9892884468244
 31
0.0
  0
LINE
  5
F3
  8
DEFAULT
 10
2237.745218056618
 20
-278.9892884468244
 30
0.0
 11
2237.620947302984
 21
-279.4236084544756
 31
0.0
  0
LINE
  5
F4
  8
DEFAULT
 10
2237.620947302984
 20
-279.4236084544756
 30
0.0
 11
2237.483406656465
 21
-279.8543420045904
 31
0.0
  0
LINE
  5
F5
  8
DEFAULT
 10
2237.483406656465
 20
-279.8543420045904
 30
0.0
 11
2237.332596117062
 21
-280.2814890971688
 31
0.0
  0
LINE
  5
F6
  8
DEFAULT
 10
2237.332596117062
 20
-280.2814890971688
 30
0.0
 11
2237.168515684775
 21
-280.7050497322109
 31
0.0
  0
LINE
  5
F7
  8
DEFAULT
 10
2237.168515684775
 20
-280.7050497322109
 30
0.0
 11
2236.991165359603
 21
-281.1250239097166
 31
0.0
  0
LINE
  5
F8
  8
DEFAULT
 10
2236.991165359603
 20
-281.1250239097166
 30
0.0
 11
2236.800545141546
 21
-281.541411629686
 31
0.0
  0
LINE
  5
F9
  8
DEFAULT
 10
2236.800545141546
 20
-281.541411629686
 30
0.0
 11
2236.596655030605
 21
-281.9542128921191
 31
0.0
  0
LINE
  5
FA
  8
DEFAULT
 10
2236.596655030605
 20
-281.9542128921191
 30
0.0
 11
2236.379495026779
 21
-282.3634276970158
 31
0.0
  0
LINE
  5
FB
  8
DEFAULT
 10
2236.379495026779
 20
-282.3634276970158
 30
0.0
 11
2240.396327467482
 21
-282.3634276970158
 31
0.0
  0
LINE
  5
FC
  8
DEFAULT
 10
2240.396327467482
 20
-282.3634276970158
 30
0.0
 11
2240.574036438408
 21
-281.9481159143073
 31
0.0
  0
LINE
  5
FD
  8
DEFAULT
 10
2240.574036438408
 20
-281.9481159143073
 30
0.0
 11
2240.739910099464
 21
-281.5285003825552
 31
0.0
  0
LINE
  5
FE
  8
DEFAULT
 10
2240.739910099464
 20
-281.5285003825552
 30
0.0
 11
2240.89394845065
 21
-281.1045811017594
 31
0.0
  0
LINE
  5
FF
  8
DEFAULT
 10
2240.89394845065
 20
-281.1045811017594
 30
0.0
 11
2241.036151491966
 21
-280.6763580719202
 31
0.0
  0
LINE
  5
100
  8
DEFAULT
 10
2241.036151491966
 20
-280.6763580719202
 30
0.0
 11
2241.166519223412
 21
-280.2438312930372
 31
0.0
  0
LINE
  5
101
  8
DEFAULT
 10
2241.166519223412
 20
-280.2438312930372
 30
0.0
 11
2241.285051644988
 21
-279.8070007651106
 31
0.0
  0
LINE
  5
102
  8
DEFAULT
 10
2241.285051644988
 20
-279.8070007651106
 30
0.0
 11
2241.391748756695
 21
-279.3658664881405
 31
0.0
  0
LINE
  5
103
  8
DEFAULT
 10
2241.391748756695
 20
-279.3658664881405
 30
0.0
 11
2241.486610558531
 21
-278.9204284621267
 31
0.0
  0
LINE
  5
104
  8
DEFAULT
 10
2241.486610558531
 20
-278.9204284621267
 30
0.0
 11
2241.569995696251
 21
-278.4681761667938
 31
0.0
  0
LINE
  5
105
  8
DEFAULT
 10
2241.569995696251
 20
-278.4681761667938
 30
0.0
 11
2241.642262815608
 21
-278.0065990818665
 31
0.0
  0
LINE
  5
106
  8
DEFAULT
 10
2241.642262815608
 20
-278.0065990818665
 30
0.0
 11
2241.703411916603
 21
-277.5356972073447
 31
0.0
  0
LINE
  5
107
  8
DEFAULT
 10
2241.703411916603
 20
-277.5356972073447
 30
0.0
 11
2241.753442999235
 21
-277.0554705432285
 31
0.0
  0
LINE
  5
108
  8
DEFAULT
 10
2241.753442999235
 20
-277.0554705432285
 30
0.0
 11
2241.792356063504
 21
-276.5659190895177
 31
0.0
  0
LINE
  5
109
  8
DEFAULT
 10
2241.792356063504
 20
-276.5659190895177
 30
0.0
 11
2241.820151109411
 21
-276.0670428462124
 31
0.0
  0
LINE
  5
10A
  8
DEFAULT
 10
2241.820151109411
 20
-276.0670428462124
 30
0.0
 11
2241.836828136955
 21
-275.5588418133126
 31
0.0
  0
LINE
  5
10B
  8
DEFAULT
 10
2241.836828136955
 20
-275.5588418133126
 30
0.0
 11
2241.842387146136
 21
-275.0413159908184
 31
0.0
  0
LINE
  5
10C
  8
DEFAULT
 10
2241.842387146136
 20
-275.0413159908184
 30
0.0
 11
2241.838083397093
 21
-274.6591789403211
 31
0.0
  0
LINE
  5
10D
  8
DEFAULT
 10
2241.838083397093
 20
-274.6591789403211
 30
0.0
 11
2241.825172149962
 21
-274.281704284621
 31
0.0
  0
LINE
  5
10E
  8
DEFAULT
 10
2241.825172149962
 20
-274.281704284621
 30
0.0
 11
2241.803653404744
 21
-273.9088920237181
 31
0.0
  0
LINE
  5
10F
  8
DEFAULT
 10
2241.803653404744
 20
-273.9088920237181
 30
0.0
 11
2241.773527161438
 21
-273.5407421576126
 31
0.0
  0
LINE
  5
110
  8
DEFAULT
 10
2241.773527161438
 20
-273.5407421576126
 30
0.0
 11
2241.734793420046
 21
-273.1772546863042
 31
0.0
  0
LINE
  5
111
  8
DEFAULT
 10
2241.734793420046
 20
-273.1772546863042
 30
0.0
 11
2241.687452180566
 21
-272.8184296097932
 31
0.0
  0
LINE
  5
112
  8
DEFAULT
 10
2241.687452180566
 20
-272.8184296097932
 30
0.0
 11
2241.631503442999
 21
-272.4642669280793
 31
0.0
  0
LINE
  5
113
  8
DEFAULT
 10
2241.631503442999
 20
-272.4642669280793
 30
0.0
 11
2241.566947207345
 21
-272.1147666411626
 31
0.0
  0
LINE
  5
114
  8
DEFAULT
 10
2241.566947207345
 20
-272.1147666411626
 30
0.0
 11
2241.493783473604
 21
-271.7699287490433
 31
0.0
  0
LINE
  5
115
  8
DEFAULT
 10
2241.493783473604
 20
-271.7699287490433
 30
0.0
 11
2241.412012241775
 21
-271.4297532517212
 31
0.0
  0
LINE
  5
116
  8
DEFAULT
 10
2241.412012241775
 20
-271.4297532517212
 30
0.0
 11
2241.32163351186
 21
-271.0942401491963
 31
0.0
  0
LINE
  5
117
  8
DEFAULT
 10
2241.32163351186
 20
-271.0942401491963
 30
0.0
 11
2241.222647283857
 21
-270.7633894414687
 31
0.0
  0
LINE
  5
118
  8
DEFAULT
 10
2241.222647283857
 20
-270.7633894414687
 30
0.0
 11
2241.115053557766
 21
-270.4372011285383
 31
0.0
  0
LINE
  5
119
  8
DEFAULT
 10
2241.115053557766
 20
-270.4372011285383
 30
0.0
 11
2240.998852333589
 21
-270.1156752104052
 31
0.0
  0
LINE
  5
11A
  8
DEFAULT
 10
2240.998852333589
 20
-270.1156752104052
 30
0.0
 11
2240.874043611324
 21
-269.7988116870693
 31
0.0
  0
LINE
  5
11B
  8
DEFAULT
 10
2240.874043611324
 20
-269.7988116870693
 30
0.0
 11
2240.740627390972
 21
-269.4866105585307
 31
0.0
  0
LINE
  5
11C
  8
DEFAULT
 10
2240.740627390972
 20
-269.4866105585307
 30
0.0
 11
2240.59927613332
 21
-269.1796097934197
 31
0.0
  0
LINE
  5
11D
  8
DEFAULT
 10
2240.59927613332
 20
-269.1796097934197
 30
0.0
 11
2240.450662299158
 21
-268.8783473603669
 31
0.0
  0
LINE
  5
11E
  8
DEFAULT
 10
2240.450662299158
 20
-268.8783473603669
 30
0.0
 11
2240.294785888485
 21
-268.5828232593723
 31
0.0
  0
LINE
  5
11F
  8
DEFAULT
 10
2240.294785888485
 20
-268.5828232593723
 30
0.0
 11
2240.131646901301
 21
-268.2930374904358
 31
0.0
  0
LINE
  5
120
  8
DEFAULT
 10
2240.131646901301
 20
-268.2930374904358
 30
0.0
 11
2239.961245337605
 21
-268.0089900535575
 31
0.0
  0
LINE
  5
121
  8
DEFAULT
 10
2239.961245337605
 20
-268.0089900535575
 30
0.0
 11
2239.783581197399
 21
-267.7306809487372
 31
0.0
  0
LINE
  5
122
  8
DEFAULT
 10
2239.783581197399
 20
-267.7306809487372
 30
0.0
 11
2239.598654480681
 21
-267.4581101759752
 31
0.0
  0
LINE
  5
123
  8
DEFAULT
 10
2239.598654480681
 20
-267.4581101759752
 30
0.0
 11
2239.406465187452
 21
-267.1912777352713
 31
0.0
  0
LINE
  5
124
  8
DEFAULT
 10
2239.406465187452
 20
-267.1912777352713
 30
0.0
 11
2239.207013317712
 21
-266.9301836266255
 31
0.0
  0
LINE
  5
125
  8
DEFAULT
 10
2239.207013317712
 20
-266.9301836266255
 30
0.0
 11
2239.000298871461
 21
-266.674827850038
 31
0.0
  0
LINE
  5
126
  8
DEFAULT
 10
2239.000298871461
 20
-266.674827850038
 30
0.0
 11
2238.786321848699
 21
-266.4252104055085
 31
0.0
  0
LINE
  5
127
  8
DEFAULT
 10
2238.786321848699
 20
-266.4252104055085
 30
0.0
 11
2238.565082249426
 21
-266.1813312930372
 31
0.0
  0
LINE
  5
128
  8
DEFAULT
 10
2238.565082249426
 20
-266.1813312930372
 30
0.0
 11
2238.336580073642
 21
-265.943190512624
 31
0.0
  0
LINE
  5
129
  8
DEFAULT
 10
2238.336580073642
 20
-265.943190512624
 30
0.0
 11
2238.100815321347
 21
-265.710788064269
 31
0.0
  0
LINE
  5
12A
  8
DEFAULT
 10
2238.100815321347
 20
-265.710788064269
 30
0.0
 11
2237.85778799254
 21
-265.4841239479722
 31
0.0
  0
LINE
  5
12B
  8
DEFAULT
 10
2237.85778799254
 20
-265.4841239479722
 30
0.0
 11
2237.607498087223
 21
-265.2631981637334
 31
0.0
  0
LINE
  5
12C
  8
DEFAULT
 10
2237.607498087223
 20
-265.2631981637334
 30
0.0
 11
2237.350124928271
 21
-265.048279695868
 31
0.0
  0
LINE
  5
12D
  8
DEFAULT
 10
2237.350124928271
 20
-265.048279695868
 30
0.0
 11
2237.085847838562
 21
-264.8396375286913
 31
0.0
  0
LINE
  5
12E
  8
DEFAULT
 10
2237.085847838562
 20
-264.8396375286913
 30
0.0
 11
2236.814666818095
 21
-264.6372716622031
 31
0.0
  0
LINE
  5
12F
  8
DEFAULT
 10
2236.814666818095
 20
-264.6372716622031
 30
0.0
 11
2236.536581866871
 21
-264.4411820964036
 31
0.0
  0
LINE
  5
130
  8
DEFAULT
 10
2236.536581866871
 20
-264.4411820964036
 30
0.0
 11
2236.251592984889
 21
-264.2513688312927
 31
0.0
  0
LINE
  5
131
  8
DEFAULT
 10
2236.251592984889
 20
-264.2513688312927
 30
0.0
 11
2235.95970017215
 21
-264.0678318668703
 31
0.0
  0
LINE
  5
132
  8
DEFAULT
 10
2235.95970017215
 20
-264.0678318668703
 30
0.0
 11
2235.660903428653
 21
-263.8905712031366
 31
0.0
  0
LINE
  5
133
  8
DEFAULT
 10
2235.660903428653
 20
-263.8905712031366
 30
0.0
 11
2235.355202754399
 21
-263.7195868400915
 31
0.0
  0
LINE
  5
134
  8
DEFAULT
 10
2235.355202754399
 20
-263.7195868400915
 30
0.0
 11
2235.042598149388
 21
-263.554878777735
 31
0.0
  0
LINE
  5
135
  8
DEFAULT
 10
2235.042598149388
 20
-263.554878777735
 30
0.0
 11
2234.723089613619
 21
-263.396447016067
 31
0.0
  0
LINE
  5
136
  8
DEFAULT
 10
2234.723089613619
 20
-263.396447016067
 30
0.0
 11
2234.396677147092
 21
-263.2442915550877
 31
0.0
  0
LINE
  5
137
  8
DEFAULT
 10
2234.396677147092
 20
-263.2442915550877
 30
0.0
 11
2234.063360749808
 21
-263.0984123947969
 31
0.0
  0
LINE
  5
138
  8
DEFAULT
 10
2234.063360749808
 20
-263.0984123947969
 30
0.0
 11
2233.723140421767
 21
-262.9588095351947
 31
0.0
  0
LINE
  5
139
  8
DEFAULT
 10
2233.723140421767
 20
-262.9588095351947
 30
0.0
 11
2233.376016162969
 21
-262.8254829762813
 31
0.0
  0
LINE
  5
13A
  8
DEFAULT
 10
2233.376016162969
 20
-262.8254829762813
 30
0.0
 11
2233.021987973412
 21
-262.6984327180563
 31
0.0
  0
LINE
  5
13B
  8
DEFAULT
 10
2233.021987973412
 20
-262.6984327180563
 30
0.0
 11
2232.661055853099
 21
-262.57765876052
 31
0.0
  0
LINE
  5
13C
  8
DEFAULT
 10
2232.661055853099
 20
-262.57765876052
 30
0.0
 11
2232.293981924254
 21
-262.4636990723027
 31
0.0
  0
LINE
  5
13D
  8
DEFAULT
 10
2232.293981924254
 20
-262.4636990723027
 30
0.0
 11
2231.921528309105
 21
-262.3570916220349
 31
0.0
  0
LINE
  5
13E
  8
DEFAULT
 10
2231.921528309105
 20
-262.3570916220349
 30
0.0
 11
2231.543695007651
 21
-262.2578364097166
 31
0.0
  0
LINE
  5
13F
  8
DEFAULT
 10
2231.543695007651
 20
-262.2578364097166
 30
0.0
 11
2231.160482019893
 21
-262.1659334353478
 31
0.0
  0
LINE
  5
140
  8
DEFAULT
 10
2231.160482019893
 20
-262.1659334353478
 30
0.0
 11
2230.77188934583
 21
-262.0813826989286
 31
0.0
  0
LINE
  5
141
  8
DEFAULT
 10
2230.77188934583
 20
-262.0813826989286
 30
0.0
 11
2230.377916985463
 21
-262.0041842004587
 31
0.0
  0
LINE
  5
142
  8
DEFAULT
 10
2230.377916985463
 20
-262.0041842004587
 30
0.0
 11
2229.978564938791
 21
-261.9343379399384
 31
0.0
  0
LINE
  5
143
  8
DEFAULT
 10
2229.978564938791
 20
-261.9343379399384
 30
0.0
 11
2229.573833205815
 21
-261.8718439173677
 31
0.0
  0
LINE
  5
144
  8
DEFAULT
 10
2229.573833205815
 20
-261.8718439173677
 30
0.0
 11
2229.163721786534
 21
-261.8167021327465
 31
0.0
  0
LINE
  5
145
  8
DEFAULT
 10
2229.163721786534
 20
-261.8167021327465
 30
0.0
 11
2228.748230680949
 21
-261.7689125860747
 31
0.0
  0
LINE
  5
146
  8
DEFAULT
 10
2228.748230680949
 20
-261.7689125860747
 30
0.0
 11
2228.327359889059
 21
-261.7284752773525
 31
0.0
  0
LINE
  5
147
  8
DEFAULT
 10
2228.327359889059
 20
-261.7284752773525
 30
0.0
 11
2227.901109410865
 21
-261.6953902065796
 31
0.0
  0
LINE
  5
148
  8
DEFAULT
 10
2227.901109410865
 20
-261.6953902065796
 30
0.0
 11
2227.469479246366
 21
-261.6696573737564
 31
0.0
  0
LINE
  5
149
  8
DEFAULT
 10
2227.469479246366
 20
-261.6696573737564
 30
0.0
 11
2227.032469395563
 21
-261.6512767788826
 31
0.0
  0
LINE
  5
14A
  8
DEFAULT
 10
2227.032469395563
 20
-261.6512767788826
 30
0.0
 11
2226.142310635042
 21
-261.6365723029836
 31
0.0
  0
LINE
  5
14B
  8
DEFAULT
 10
2226.142310635042
 20
-261.6365723029836
 30
0.0
 11
2225.22691217961
 21
-261.6498870265873
 31
0.0
  0
LINE
  5
14C
  8
DEFAULT
 10
2225.22691217961
 20
-261.6498870265873
 30
0.0
 11
2224.339936400153
 21
-261.6898311973983
 31
0.0
  0
LINE
  5
14D
  8
DEFAULT
 10
2224.339936400153
 20
-261.6898311973983
 30
0.0
 11
2223.481383296672
 21
-261.7564048154167
 31
0.0
  0
LINE
  5
14E
  8
DEFAULT
 10
2223.481383296672
 20
-261.7564048154167
 30
0.0
 11
2223.062765248422
 21
-261.7996776671285
 31
0.0
  0
LINE
  5
14F
  8
DEFAULT
 10
2223.062765248422
 20
-261.7996776671285
 30
0.0
 11
2222.651252869166
 21
-261.8496078806423
 31
0.0
  0
LINE
  5
150
  8
DEFAULT
 10
2222.651252869166
 20
-261.8496078806423
 30
0.0
 11
2222.246846158904
 21
-261.906195455958
 31
0.0
  0
LINE
  5
151
  8
DEFAULT
 10
2222.246846158904
 20
-261.906195455958
 30
0.0
 11
2221.849545117636
 21
-261.9694403930754
 31
0.0
  0
LINE
  5
152
  8
DEFAULT
 10
2221.849545117636
 20
-261.9694403930754
 30
0.0
 11
2221.459349745362
 21
-262.0393426919946
 31
0.0
  0
LINE
  5
153
  8
DEFAULT
 10
2221.459349745362
 20
-262.0393426919946
 30
0.0
 11
2221.076260042081
 21
-262.1159023527158
 31
0.0
  0
LINE
  5
154
  8
DEFAULT
 10
2221.076260042081
 20
-262.1159023527158
 30
0.0
 11
2220.700276007795
 21
-262.1991193752388
 31
0.0
  0
LINE
  5
155
  8
DEFAULT
 10
2220.700276007795
 20
-262.1991193752388
 30
0.0
 11
2220.331397642502
 21
-262.2889937595636
 31
0.0
  0
LINE
  5
156
  8
DEFAULT
 10
2220.331397642502
 20
-262.2889937595636
 30
0.0
 11
2219.969624946204
 21
-262.3855255056902
 31
0.0
  0
LINE
  5
157
  8
DEFAULT
 10
2219.969624946204
 20
-262.3855255056902
 30
0.0
 11
2219.614957918899
 21
-262.4887146136186
 31
0.0
  0
LINE
  5
158
  8
DEFAULT
 10
2219.614957918899
 20
-262.4887146136186
 30
0.0
 11
2219.267396560588
 21
-262.598561083349
 31
0.0
  0
LINE
  5
159
  8
DEFAULT
 10
2219.267396560588
 20
-262.598561083349
 30
0.0
 11
2218.926940871271
 21
-262.7150649148811
 31
0.0
  0
LINE
  5
15A
  8
DEFAULT
 10
2218.926940871271
 20
-262.7150649148811
 30
0.0
 11
2218.593590850947
 21
-262.8382261082151
 31
0.0
  0
LINE
  5
15B
  8
DEFAULT
 10
2218.593590850947
 20
-262.8382261082151
 30
0.0
 11
2218.267346499618
 21
-262.9680446633508
 31
0.0
  0
LINE
  5
15C
  8
DEFAULT
 10
2218.267346499618
 20
-262.9680446633508
 30
0.0
 11
2217.948207817282
 21
-263.1045205802885
 31
0.0
  0
LINE
  5
15D
  8
DEFAULT
 10
2217.948207817282
 20
-263.1045205802885
 30
0.0
 11
2217.636174803941
 21
-263.247653859028
 31
0.0
  0
LINE
  5
15E
  8
DEFAULT
 10
2217.636174803941
 20
-263.247653859028
 30
0.0
 11
2217.331247459593
 21
-263.3974444995693
 31
0.0
  0
LINE
  5
15F
  8
DEFAULT
 10
2217.331247459593
 20
-263.3974444995693
 30
0.0
 11
2217.033425784239
 21
-263.5538925019124
 31
0.0
  0
LINE
  5
160
  8
DEFAULT
 10
2217.033425784239
 20
-263.5538925019124
 30
0.0
 11
2216.742709777879
 21
-263.7169978660575
 31
0.0
  0
LINE
  5
161
  8
DEFAULT
 10
2216.742709777879
 20
-263.7169978660575
 30
0.0
 11
2216.459099440513
 21
-263.8867605920042
 31
0.0
  0
LINE
  5
162
  8
DEFAULT
 10
2216.459099440513
 20
-263.8867605920042
 30
0.0
 11
2216.182594772141
 21
-264.0631806797529
 31
0.0
  0
LINE
  5
163
  8
DEFAULT
 10
2216.182594772141
 20
-264.0631806797529
 30
0.0
 11
2215.913195772762
 21
-264.2462581293034
 31
0.0
  0
LINE
  5
164
  8
DEFAULT
 10
2215.913195772762
 20
-264.2462581293034
 30
0.0
 11
2215.650902442378
 21
-264.4359929406558
 31
0.0
  0
LINE
  5
165
  8
DEFAULT
 10
2215.650902442378
 20
-264.4359929406558
 30
0.0
 11
2215.395714780987
 21
-264.6323851138099
 31
0.0
  0
LINE
  5
166
  8
DEFAULT
 10
2215.395714780987
 20
-264.6323851138099
 30
0.0
 11
2215.14763278859
 21
-264.8354346487659
 31
0.0
  0
LINE
  5
167
  8
DEFAULT
 10
2215.14763278859
 20
-264.8354346487659
 30
0.0
 11
2214.906656465188
 21
-265.0451415455237
 31
0.0
  0
LINE
  5
168
  8
DEFAULT
 10
2214.906656465188
 20
-265.0451415455237
 30
0.0
 11
2214.672942718296
 21
-265.2610574968913
 31
0.0
  0
LINE
  5
169
  8
DEFAULT
 10
2214.672942718296
 20
-265.2610574968913
 30
0.0
 11
2214.446648455432
 21
-265.4827341956768
 31
0.0
  0
LINE
  5
16A
  8
DEFAULT
 10
2214.446648455432
 20
-265.4827341956768
 30
0.0
 11
2214.227773676597
 21
-265.7101716418799
 31
0.0
  0
LINE
  5
16B
  8
DEFAULT
 10
2214.227773676597
 20
-265.7101716418799
 30
0.0
 11
2214.01631838179
 21
-265.9433698355008
 31
0.0
  0
LINE
  5
16C
  8
DEFAULT
 10
2214.01631838179
 20
-265.9433698355008
 30
0.0
 11
2213.812282571012
 21
-266.1823287765394
 31
0.0
  0
LINE
  5
16D
  8
DEFAULT
 10
2213.812282571012
 20
-266.1823287765394
 30
0.0
 11
2213.615666244262
 21
-266.4270484649958
 31
0.0
  0
LINE
  5
16E
  8
DEFAULT
 10
2213.615666244262
 20
-266.4270484649958
 30
0.0
 11
2213.42646940154
 21
-266.6775289008699
 31
0.0
  0
LINE
  5
16F
  8
DEFAULT
 10
2213.42646940154
 20
-266.6775289008699
 30
0.0
 11
2213.244692042846
 21
-266.9337700841618
 31
0.0
  0
LINE
  5
170
  8
DEFAULT
 10
2213.244692042846
 20
-266.9337700841618
 30
0.0
 11
2213.070334168181
 21
-267.1957720148715
 31
0.0
  0
LINE
  5
171
  8
DEFAULT
 10
2213.070334168181
 20
-267.1957720148715
 30
0.0
 11
2212.903395777544
 21
-267.4635346929989
 31
0.0
  0
LINE
  5
172
  8
DEFAULT
 10
2212.903395777544
 20
-267.4635346929989
 30
0.0
 11
2212.743876870935
 21
-267.737058118544
 31
0.0
  0
LINE
  5
173
  8
DEFAULT
 10
2212.743876870935
 20
-267.737058118544
 30
0.0
 11
2212.591777448355
 21
-268.0163422915069
 31
0.0
  0
LINE
  5
174
  8
DEFAULT
 10
2212.591777448355
 20
-268.0163422915069
 30
0.0
 11
2212.447097509803
 21
-268.3013872118876
 31
0.0
  0
LINE
  5
175
  8
DEFAULT
 10
2212.447097509803
 20
-268.3013872118876
 30
0.0
 11
2212.309837055279
 21
-268.592192879686
 31
0.0
  0
LINE
  5
176
  8
DEFAULT
 10
2212.309837055279
 20
-268.592192879686
 30
0.0
 11
2212.179996084784
 21
-268.8887592949021
 31
0.0
  0
LINE
  5
177
  8
DEFAULT
 10
2212.179996084784
 20
-268.8887592949021
 30
0.0
 11
2212.057574598317
 21
-269.191086457536
 31
0.0
  0
LINE
  5
178
  8
DEFAULT
 10
2212.057574598317
 20
-269.191086457536
 30
0.0
 11
2211.942572595878
 21
-269.4991743675876
 31
0.0
  0
LINE
  5
179
  8
DEFAULT
 10
2211.942572595878
 20
-269.4991743675876
 30
0.0
 11
2211.834990077467
 21
-269.813023025057
 31
0.0
  0
LINE
  5
17A
  8
DEFAULT
 10
2211.834990077467
 20
-269.813023025057
 30
0.0
 11
2211.734827043086
 21
-270.1326324299441
 31
0.0
  0
LINE
  5
17B
  8
DEFAULT
 10
2211.734827043086
 20
-270.1326324299441
 30
0.0
 11
2211.642083492732
 21
-270.458002582249
 31
0.0
  0
LINE
  5
17C
  8
DEFAULT
 10
2211.642083492732
 20
-270.458002582249
 30
0.0
 11
2211.556759426406
 21
-270.7891334819717
 31
0.0
  0
LINE
  5
17D
  8
DEFAULT
 10
2211.556759426406
 20
-270.7891334819717
 30
0.0
 11
2211.478854844109
 21
-271.1260251291121
 31
0.0
  0
LINE
  5
17E
  8
DEFAULT
 10
2211.478854844109
 20
-271.1260251291121
 30
0.0
 11
2211.40836974584
 21
-271.4686775236702
 31
0.0
  0
LINE
  5
17F
  8
DEFAULT
 10
2211.40836974584
 20
-271.4686775236702
 30
0.0
 11
2211.345304131599
 21
-271.8170906656461
 31
0.0
  0
LINE
  5
180
  8
DEFAULT
 10
2211.345304131599
 20
-271.8170906656461
 30
0.0
 11
2211.289658001387
 21
-272.1712645550398
 31
0.0
  0
LINE
  5
181
  8
DEFAULT
 10
2211.289658001387
 20
-272.1712645550398
 30
0.0
 11
2211.241431355203
 21
-272.5311991918512
 31
0.0
  0
LINE
  5
182
  8
DEFAULT
 10
2211.241431355203
 20
-272.5311991918512
 30
0.0
 11
2211.200624193047
 21
-272.8968945760804
 31
0.0
  0
LINE
  5
183
  8
DEFAULT
 10
2211.200624193047
 20
-272.8968945760804
 30
0.0
 11
2211.16723651492
 21
-273.2683507077273
 31
0.0
  0
LINE
  5
184
  8
DEFAULT
 10
2211.16723651492
 20
-273.2683507077273
 30
0.0
 11
2211.141268320821
 21
-273.6455675867919
 31
0.0
  0
LINE
  5
185
  8
DEFAULT
 10
2211.141268320821
 20
-273.6455675867919
 30
0.0
 11
2211.12271961075
 21
-274.0285452132744
 31
0.0
  0
LINE
  5
186
  8
DEFAULT
 10
2211.12271961075
 20
-274.0285452132744
 30
0.0
 11
2211.111590384707
 21
-274.4172835871745
 31
0.0
  0
LINE
  5
187
  8
DEFAULT
 10
2211.111590384707
 20
-274.4172835871745
 30
0.0
 11
2211.107880642693
 21
-274.8117827084924
 31
0.0
  0
LINE
  5
188
  8
DEFAULT
 10
2211.107880642693
 20
-274.8117827084924
 30
0.0
 11
2211.11370863619
 21
-275.303934343917
 31
0.0
  0
LINE
  5
189
  8
DEFAULT
 10
2211.11370863619
 20
-275.303934343917
 30
0.0
 11
2211.131192616679
 21
-275.7933961361894
 31
0.0
  0
LINE
  5
18A
  8
DEFAULT
 10
2211.131192616679
 20
-275.7933961361894
 30
0.0
 11
2211.160332584162
 21
-276.2801680853095
 31
0.0
  0
LINE
  5
18B
  8
DEFAULT
 10
2211.160332584162
 20
-276.2801680853095
 30
0.0
 11
2211.201128538638
 21
-276.7642501912774
 31
0.0
  0
LINE
  5
18C
  8
DEFAULT
 10
2211.201128538638
 20
-276.7642501912774
 30
0.0
 11
2211.253580480107
 21
-277.2456424540929
 31
0.0
  0
LINE
  5
18D
  8
DEFAULT
 10
2211.253580480107
 20
-277.2456424540929
 30
0.0
 11
2211.317688408569
 21
-277.7243448737563
 31
0.0
  0
LINE
  5
18E
  8
DEFAULT
 10
2211.317688408569
 20
-277.7243448737563
 30
0.0
 11
2211.393452324024
 21
-278.2003574502674
 31
0.0
  0
LINE
  5
18F
  8
DEFAULT
 10
2211.393452324024
 20
-278.2003574502674
 30
0.0
 11
2211.480872226473
 21
-278.6736801836262
 31
0.0
  0
LINE
  5
190
  8
DEFAULT
 10
2211.480872226473
 20
-278.6736801836262
 30
0.0
 11
2211.579948115915
 21
-279.1443130738328
 31
0.0
  0
LINE
  5
191
  8
DEFAULT
 10
2211.579948115915
 20
-279.1443130738328
 30
0.0
 11
2211.690679992349
 21
-279.6122561208871
 31
0.0
  0
LINE
  5
192
  8
DEFAULT
 10
2211.690679992349
 20
-279.6122561208871
 30
0.0
 11
2211.813067855777
 21
-280.0775093247892
 31
0.0
  0
LINE
  5
193
  8
DEFAULT
 10
2211.813067855777
 20
-280.0775093247892
 30
0.0
 11
2211.947111706198
 21
-280.540072685539
 31
0.0
  0
LINE
  5
194
  8
DEFAULT
 10
2211.947111706198
 20
-280.540072685539
 30
0.0
 11
2212.092811543611
 21
-280.9999462031366
 31
0.0
  0
LINE
  5
195
  8
DEFAULT
 10
2212.092811543611
 20
-280.9999462031366
 30
0.0
 11
2212.250167368018
 21
-281.4571298775818
 31
0.0
  0
LINE
  5
196
  8
DEFAULT
 10
2212.250167368018
 20
-281.4571298775818
 30
0.0
 11
2212.419179179418
 21
-281.9116237088749
 31
0.0
  0
LINE
  5
197
  8
DEFAULT
 10
2212.419179179418
 20
-281.9116237088749
 30
0.0
 11
2212.599846977812
 21
-282.3634276970157
 31
0.0
  0
LINE
  5
198
  8
DEFAULT
 10
2228.48422935626
 20
-144.7165263963276
 30
0.0
 11
2228.415584559014
 21
-145.0489006742961
 31
0.0
  0
LINE
  5
199
  8
DEFAULT
 10
2228.415584559014
 20
-145.0489006742961
 30
0.0
 11
2228.335893472557
 21
-145.3769355312778
 31
0.0
  0
LINE
  5
19A
  8
DEFAULT
 10
2228.335893472557
 20
-145.3769355312778
 30
0.0
 11
2228.291905570873
 21
-145.5393256768984
 31
0.0
  0
LINE
  5
19B
  8
DEFAULT
 10
2228.291905570873
 20
-145.5393256768984
 30
0.0
 11
2228.245156096887
 21
-145.7006309672724
 31
0.0
  0
LINE
  5
19C
  8
DEFAULT
 10
2228.245156096887
 20
-145.7006309672724
 30
0.0
 11
2228.195645050598
 21
-145.8608514023996
 31
0.0
  0
LINE
  5
19D
  8
DEFAULT
 10
2228.195645050598
 20
-145.8608514023996
 30
0.0
 11
2228.143372432005
 21
-146.01998698228
 31
0.0
  0
LINE
  5
19E
  8
DEFAULT
 10
2228.143372432005
 20
-146.01998698228
 30
0.0
 11
2228.08833824111
 21
-146.1780377069137
 31
0.0
  0
LINE
  5
19F
  8
DEFAULT
 10
2228.08833824111
 20
-146.1780377069137
 30
0.0
 11
2228.030542477912
 21
-146.3350035763007
 31
0.0
  0
LINE
  5
1A0
  8
DEFAULT
 10
2228.030542477912
 20
-146.3350035763007
 30
0.0
 11
2227.969985142411
 21
-146.4908845904409
 31
0.0
  0
LINE
  5
1A1
  8
DEFAULT
 10
2227.969985142411
 20
-146.4908845904409
 30
0.0
 11
2227.906666234607
 21
-146.6456807493344
 31
0.0
  0
LINE
  5
1A2
  8
DEFAULT
 10
2227.906666234607
 20
-146.6456807493344
 30
0.0
 11
2227.840585754499
 21
-146.7993920529811
 31
0.0
  0
LINE
  5
1A3
  8
DEFAULT
 10
2227.840585754499
 20
-146.7993920529811
 30
0.0
 11
2227.771743702089
 21
-146.9520185013811
 31
0.0
  0
LINE
  5
1A4
  8
DEFAULT
 10
2227.771743702089
 20
-146.9520185013811
 30
0.0
 11
2227.700140077376
 21
-147.1035600945343
 31
0.0
  0
LINE
  5
1A5
  8
DEFAULT
 10
2227.700140077376
 20
-147.1035600945343
 30
0.0
 11
2227.62577488036
 21
-147.2540168324408
 31
0.0
  0
LINE
  5
1A6
  8
DEFAULT
 10
2227.62577488036
 20
-147.2540168324408
 30
0.0
 11
2227.548648111041
 21
-147.402796540264
 31
0.0
  0
LINE
  5
1A7
  8
DEFAULT
 10
2227.548648111041
 20
-147.402796540264
 30
0.0
 11
2227.468759769419
 21
-147.5493078136956
 31
0.0
  0
LINE
  5
1A8
  8
DEFAULT
 10
2227.468759769419
 20
-147.5493078136956
 30
0.0
 11
2227.386109855494
 21
-147.6935506527354
 31
0.0
  0
LINE
  5
1A9
  8
DEFAULT
 10
2227.386109855494
 20
-147.6935506527354
 30
0.0
 11
2227.300698369266
 21
-147.8355250573834
 31
0.0
  0
LINE
  5
1AA
  8
DEFAULT
 10
2227.300698369266
 20
-147.8355250573834
 30
0.0
 11
2227.212525310735
 21
-147.9752310276397
 31
0.0
  0
LINE
  5
1AB
  8
DEFAULT
 10
2227.212525310735
 20
-147.9752310276397
 30
0.0
 11
2227.121590679901
 21
-148.1126685635043
 31
0.0
  0
LINE
  5
1AC
  8
DEFAULT
 10
2227.121590679901
 20
-148.1126685635043
 30
0.0
 11
2227.027894476764
 21
-148.2478376649771
 31
0.0
  0
LINE
  5
1AD
  8
DEFAULT
 10
2227.027894476764
 20
-148.2478376649771
 30
0.0
 11
2226.931436701324
 21
-148.3807383320582
 31
0.0
  0
LINE
  5
1AE
  8
DEFAULT
 10
2226.931436701324
 20
-148.3807383320582
 30
0.0
 11
2226.832217353582
 21
-148.5113705647476
 31
0.0
  0
LINE
  5
1AF
  8
DEFAULT
 10
2226.832217353582
 20
-148.5113705647476
 30
0.0
 11
2226.730236433536
 21
-148.6397343630452
 31
0.0
  0
LINE
  5
1B0
  8
DEFAULT
 10
2226.730236433536
 20
-148.6397343630452
 30
0.0
 11
2226.625493941187
 21
-148.7658297269511
 31
0.0
  0
LINE
  5
1B1
  8
DEFAULT
 10
2226.625493941187
 20
-148.7658297269511
 30
0.0
 11
2226.517989876535
 21
-148.8896566564653
 31
0.0
  0
LINE
  5
1B2
  8
DEFAULT
 10
2226.517989876535
 20
-148.8896566564653
 30
0.0
 11
2226.40772423958
 21
-149.0112151515877
 31
0.0
  0
LINE
  5
1B3
  8
DEFAULT
 10
2226.40772423958
 20
-149.0112151515877
 30
0.0
 11
2226.294697030322
 21
-149.1305052123184
 31
0.0
  0
LINE
  5
1B4
  8
DEFAULT
 10
2226.294697030322
 20
-149.1305052123184
 30
0.0
 11
2226.178908248761
 21
-149.2475268386573
 31
0.0
  0
LINE
  5
1B5
  8
DEFAULT
 10
2226.178908248761
 20
-149.2475268386573
 30
0.0
 11
2226.060357894898
 21
-149.3622800306045
 31
0.0
  0
LINE
  5
1B6
  8
DEFAULT
 10
2226.060357894898
 20
-149.3622800306045
 30
0.0
 11
2225.939045968731
 21
-149.4744195916221
 31
0.0
  0
LINE
  5
1B7
  8
DEFAULT
 10
2225.939045968731
 20
-149.4744195916221
 30
0.0
 11
2225.814972470261
 21
-149.5836003251722
 31
0.0
  0
LINE
  5
1B8
  8
DEFAULT
 10
2225.814972470261
 20
-149.5836003251722
 30
0.0
 11
2225.688137399488
 21
-149.6898222312549
 31
0.0
  0
LINE
  5
1B9
  8
DEFAULT
 10
2225.688137399488
 20
-149.6898222312549
 30
0.0
 11
2225.558540756412
 21
-149.79308530987
 31
0.0
  0
LINE
  5
1BA
  8
DEFAULT
 10
2225.558540756412
 20
-149.79308530987
 30
0.0
 11
2225.426182541034
 21
-149.8933895610177
 31
0.0
  0
LINE
  5
1BB
  8
DEFAULT
 10
2225.426182541034
 20
-149.8933895610177
 30
0.0
 11
2225.291062753352
 21
-149.9907349846979
 31
0.0
  0
LINE
  5
1BC
  8
DEFAULT
 10
2225.291062753352
 20
-149.9907349846979
 30
0.0
 11
2225.153181393367
 21
-150.0851215809105
 31
0.0
  0
LINE
  5
1BD
  8
DEFAULT
 10
2225.153181393367
 20
-150.0851215809105
 30
0.0
 11
2225.01253846108
 21
-150.1765493496558
 31
0.0
  0
LINE
  5
1BE
  8
DEFAULT
 10
2225.01253846108
 20
-150.1765493496558
 30
0.0
 11
2224.869133956489
 21
-150.2650182909335
 31
0.0
  0
LINE
  5
1BF
  8
DEFAULT
 10
2224.869133956489
 20
-150.2650182909335
 30
0.0
 11
2224.722967879596
 21
-150.3505284047438
 31
0.0
  0
LINE
  5
1C0
  8
DEFAULT
 10
2224.722967879596
 20
-150.3505284047438
 30
0.0
 11
2224.574040230399
 21
-150.4330796910865
 31
0.0
  0
LINE
  5
1C1
  8
DEFAULT
 10
2224.574040230399
 20
-150.4330796910865
 30
0.0
 11
2224.422351008899
 21
-150.5126721499618
 31
0.0
  0
LINE
  5
1C2
  8
DEFAULT
 10
2224.422351008899
 20
-150.5126721499618
 30
0.0
 11
2224.267900215096
 21
-150.5893057813696
 31
0.0
  0
LINE
  5
1C3
  8
DEFAULT
 10
2224.267900215096
 20
-150.5893057813696
 30
0.0
 11
2224.110687848991
 21
-150.66298058531
 31
0.0
  0
LINE
  5
1C4
  8
DEFAULT
 10
2224.110687848991
 20
-150.66298058531
 30
0.0
 11
2223.950713910582
 21
-150.7336965617828
 31
0.0
  0
LINE
  5
1C5
  8
DEFAULT
 10
2223.950713910582
 20
-150.7336965617828
 30
0.0
 11
2223.787978399871
 21
-150.8014537107881
 31
0.0
  0
LINE
  5
1C6
  8
DEFAULT
 10
2223.787978399871
 20
-150.8014537107881
 30
0.0
 11
2223.622579944438
 21
-150.8656602668325
 31
0.0
  0
LINE
  5
1C7
  8
DEFAULT
 10
2223.622579944438
 20
-150.8656602668325
 30
0.0
 11
2223.454617171868
 21
-150.9257244644224
 31
0.0
  0
LINE
  5
1C8
  8
DEFAULT
 10
2223.454617171868
 20
-150.9257244644224
 30
0.0
 11
2223.284090082158
 21
-150.9816463035579
 31
0.0
  0
LINE
  5
1C9
  8
DEFAULT
 10
2223.284090082158
 20
-150.9816463035579
 30
0.0
 11
2223.11099867531
 21
-151.0334257842388
 31
0.0
  0
LINE
  5
1CA
  8
DEFAULT
 10
2223.11099867531
 20
-151.0334257842388
 30
0.0
 11
2222.935342951324
 21
-151.0810629064653
 31
0.0
  0
LINE
  5
1CB
  8
DEFAULT
 10
2222.935342951324
 20
-151.0810629064653
 30
0.0
 11
2222.7571229102
 21
-151.1245576702373
 31
0.0
  0
LINE
  5
1CC
  8
DEFAULT
 10
2222.7571229102
 20
-151.1245576702373
 30
0.0
 11
2222.576338551936
 21
-151.1639100755548
 31
0.0
  0
LINE
  5
1CD
  8
DEFAULT
 10
2222.576338551936
 20
-151.1639100755548
 30
0.0
 11
2222.392989876535
 21
-151.1991201224178
 31
0.0
  0
LINE
  5
1CE
  8
DEFAULT
 10
2222.392989876535
 20
-151.1991201224178
 30
0.0
 11
2222.207076883994
 21
-151.2301878108264
 31
0.0
  0
LINE
  5
1CF
  8
DEFAULT
 10
2222.207076883994
 20
-151.2301878108264
 30
0.0
 11
2222.018599574316
 21
-151.2571131407805
 31
0.0
  0
LINE
  5
1D0
  8
DEFAULT
 10
2222.018599574316
 20
-151.2571131407805
 30
0.0
 11
2221.827557947498
 21
-151.2798961122801
 31
0.0
  0
LINE
  5
1D1
  8
DEFAULT
 10
2221.827557947498
 20
-151.2798961122801
 30
0.0
 11
2221.633952003543
 21
-151.2985367253252
 31
0.0
  0
LINE
  5
1D2
  8
DEFAULT
 10
2221.633952003543
 20
-151.2985367253252
 30
0.0
 11
2221.437781742449
 21
-151.3130349799159
 31
0.0
  0
LINE
  5
1D3
  8
DEFAULT
 10
2221.437781742449
 20
-151.3130349799159
 30
0.0
 11
2221.239047164217
 21
-151.3233908760521
 31
0.0
  0
LINE
  5
1D4
  8
DEFAULT
 10
2221.239047164217
 20
-151.3233908760521
 30
0.0
 11
2221.037748268845
 21
-151.3296044137338
 31
0.0
  0
LINE
  5
1D5
  8
DEFAULT
 10
2221.037748268845
 20
-151.3296044137338
 30
0.0
 11
2220.833885056336
 21
-151.3316755929611
 31
0.0
  0
LINE
  5
1D6
  8
DEFAULT
 10
2220.833885056336
 20
-151.3316755929611
 30
0.0
 11
2220.539333781948
 21
-151.328075686209
 31
0.0
  0
LINE
  5
1D7
  8
DEFAULT
 10
2220.539333781948
 20
-151.328075686209
 30
0.0
 11
2220.249023493597
 21
-151.3172759659527
 31
0.0
  0
LINE
  5
1D8
  8
DEFAULT
 10
2220.249023493597
 20
-151.3172759659527
 30
0.0
 11
2219.962954191283
 21
-151.2992764321921
 31
0.0
  0
LINE
  5
1D9
  8
DEFAULT
 10
2219.962954191283
 20
-151.2992764321921
 30
0.0
 11
2219.681125875005
 21
-151.2740770849274
 31
0.0
  0
LINE
  5
1DA
  8
DEFAULT
 10
2219.681125875005
 20
-151.2740770849274
 30
0.0
 11
2219.403538544764
 21
-151.2416779241585
 31
0.0
  0
LINE
  5
1DB
  8
DEFAULT
 10
2219.403538544764
 20
-151.2416779241585
 30
0.0
 11
2219.13019220056
 21
-151.2020789498853
 31
0.0
  0
LINE
  5
1DC
  8
DEFAULT
 10
2219.13019220056
 20
-151.2020789498853
 30
0.0
 11
2218.861086842392
 21
-151.155280162108
 31
0.0
  0
LINE
  5
1DD
  8
DEFAULT
 10
2218.861086842392
 20
-151.155280162108
 30
0.0
 11
2218.596222470261
 21
-151.1012815608264
 31
0.0
  0
LINE
  5
1DE
  8
DEFAULT
 10
2218.596222470261
 20
-151.1012815608264
 30
0.0
 11
2218.335599084167
 21
-151.0400831460406
 31
0.0
  0
LINE
  5
1DF
  8
DEFAULT
 10
2218.335599084167
 20
-151.0400831460406
 30
0.0
 11
2218.079216684109
 21
-150.9716849177507
 31
0.0
  0
LINE
  5
1E0
  8
DEFAULT
 10
2218.079216684109
 20
-150.9716849177507
 30
0.0
 11
2217.827075270089
 21
-150.8960868759565
 31
0.0
  0
LINE
  5
1E1
  8
DEFAULT
 10
2217.827075270089
 20
-150.8960868759565
 30
0.0
 11
2217.579174842105
 21
-150.8132890206581
 31
0.0
  0
LINE
  5
1E2
  8
DEFAULT
 10
2217.579174842105
 20
-150.8132890206581
 30
0.0
 11
2217.335515400157
 21
-150.7232913518555
 31
0.0
  0
LINE
  5
1E3
  8
DEFAULT
 10
2217.335515400157
 20
-150.7232913518555
 30
0.0
 11
2217.096096944247
 21
-150.6260938695487
 31
0.0
  0
LINE
  5
1E4
  8
DEFAULT
 10
2217.096096944247
 20
-150.6260938695487
 30
0.0
 11
2216.860919474374
 21
-150.5216965737377
 31
0.0
  0
LINE
  5
1E5
  8
DEFAULT
 10
2216.860919474374
 20
-150.5216965737377
 30
0.0
 11
2216.629982990537
 21
-150.4100994644224
 31
0.0
  0
LINE
  5
1E6
  8
DEFAULT
 10
2216.629982990537
 20
-150.4100994644224
 30
0.0
 11
2216.403386120319
 21
-150.2918449933053
 31
0.0
  0
LINE
  5
1E7
  8
DEFAULT
 10
2216.403386120319
 20
-150.2918449933053
 30
0.0
 11
2216.181227491302
 21
-150.1674756120888
 31
0.0
  0
LINE
  5
1E8
  8
DEFAULT
 10
2216.181227491302
 20
-150.1674756120888
 30
0.0
 11
2215.963507103486
 21
-150.0369913207728
 31
0.0
  0
LINE
  5
1E9
  8
DEFAULT
 10
2215.963507103486
 20
-150.0369913207728
 30
0.0
 11
2215.750224956872
 21
-149.9003921193574
 31
0.0
  0
LINE
  5
1EA
  8
DEFAULT
 10
2215.750224956872
 20
-149.9003921193574
 30
0.0
 11
2215.541381051458
 21
-149.7576780078425
 31
0.0
  0
LINE
  5
1EB
  8
DEFAULT
 10
2215.541381051458
 20
-149.7576780078425
 30
0.0
 11
2215.336975387246
 21
-149.6088489862281
 31
0.0
  0
LINE
  5
1EC
  8
DEFAULT
 10
2215.336975387246
 20
-149.6088489862281
 30
0.0
 11
2215.137007964236
 21
-149.4539050545142
 31
0.0
  0
LINE
  5
1ED
  8
DEFAULT
 10
2215.137007964236
 20
-149.4539050545142
 30
0.0
 11
2214.941478782426
 21
-149.2928462127009
 31
0.0
  0
LINE
  5
1EE
  8
DEFAULT
 10
2214.941478782426
 20
-149.2928462127009
 30
0.0
 11
2214.750387841818
 21
-149.1256724607882
 31
0.0
  0
LINE
  5
1EF
  8
DEFAULT
 10
2214.750387841818
 20
-149.1256724607882
 30
0.0
 11
2214.563735142411
 21
-148.9523837987759
 31
0.0
  0
LINE
  5
1F0
  8
DEFAULT
 10
2214.563735142411
 20
-148.9523837987759
 30
0.0
 11
2214.381520684205
 21
-148.7729802266642
 31
0.0
  0
LINE
  5
1F1
  8
DEFAULT
 10
2214.381520684205
 20
-148.7729802266642
 30
0.0
 11
2214.203744467201
 21
-148.587461744453
 31
0.0
  0
LINE
  5
1F2
  8
DEFAULT
 10
2214.203744467201
 20
-148.587461744453
 30
0.0
 11
2214.030406491397
 21
-148.3958283521424
 31
0.0
  0
LINE
  5
1F3
  8
DEFAULT
 10
2214.030406491397
 20
-148.3958283521424
 30
0.0
 11
2213.861506756795
 21
-148.1980800497323
 31
0.0
  0
LINE
  5
1F4
  8
DEFAULT
 10
2213.861506756795
 20
-148.1980800497323
 30
0.0
 11
2213.697045263394
 21
-147.9942168372227
 31
0.0
  0
LINE
  5
1F5
  8
DEFAULT
 10
2213.697045263394
 20
-147.9942168372227
 30
0.0
 11
2213.537022011194
 21
-147.7842387146137
 31
0.0
  0
LINE
  5
1F6
  8
DEFAULT
 10
2213.537022011194
 20
-147.7842387146137
 30
0.0
 11
2213.38158494157
 21
-147.568441564652
 31
0.0
  0
LINE
  5
1F7
  8
DEFAULT
 10
2213.38158494157
 20
-147.568441564652
 30
0.0
 11
2213.230881995893
 21
-147.3471212700842
 31
0.0
  0
LINE
  5
1F8
  8
DEFAULT
 10
2213.230881995893
 20
-147.3471212700842
 30
0.0
 11
2213.084913174163
 21
-147.1202778309106
 31
0.0
  0
LINE
  5
1F9
  8
DEFAULT
 10
2213.084913174163
 20
-147.1202778309106
 30
0.0
 11
2212.943678476382
 21
-146.8879112471309
 31
0.0
  0
LINE
  5
1FA
  8
DEFAULT
 10
2212.943678476382
 20
-146.8879112471309
 30
0.0
 11
2212.807177902549
 21
-146.6500215187453
 31
0.0
  0
LINE
  5
1FB
  8
DEFAULT
 10
2212.807177902549
 20
-146.6500215187453
 30
0.0
 11
2212.675411452663
 21
-146.4066086457537
 31
0.0
  0
LINE
  5
1FC
  8
DEFAULT
 10
2212.675411452663
 20
-146.4066086457537
 30
0.0
 11
2212.548379126726
 21
-146.1576726281562
 31
0.0
  0
LINE
  5
1FD
  8
DEFAULT
 10
2212.548379126726
 20
-146.1576726281562
 30
0.0
 11
2212.426080924737
 21
-145.9032134659527
 31
0.0
  0
LINE
  5
1FE
  8
DEFAULT
 10
2212.426080924737
 20
-145.9032134659527
 30
0.0
 11
2212.308516846696
 21
-145.6432311591432
 31
0.0
  0
LINE
  5
1FF
  8
DEFAULT
 10
2212.308516846696
 20
-145.6432311591432
 30
0.0
 11
2212.195686892603
 21
-145.3777257077277
 31
0.0
  0
LINE
  5
200
  8
DEFAULT
 10
2212.195686892603
 20
-145.3777257077277
 30
0.0
 11
2212.087591062457
 21
-145.1066971117063
 31
0.0
  0
LINE
  5
201
  8
DEFAULT
 10
2212.087591062457
 20
-145.1066971117063
 30
0.0
 11
2211.98422935626
 21
-144.8301453710789
 31
0.0
  0
LINE
  5
202
  8
DEFAULT
 10
2211.98422935626
 20
-144.8301453710789
 30
0.0
 11
2211.88560177401
 21
-144.5480704858455
 31
0.0
  0
LINE
  5
203
  8
DEFAULT
 10
2211.88560177401
 20
-144.5480704858455
 30
0.0
 11
2211.791708315709
 21
-144.2604724560062
 31
0.0
  0
LINE
  5
204
  8
DEFAULT
 10
2211.791708315709
 20
-144.2604724560062
 30
0.0
 11
2211.702548981355
 21
-143.9673512815609
 31
0.0
  0
LINE
  5
205
  8
DEFAULT
 10
2211.702548981355
 20
-143.9673512815609
 30
0.0
 11
2211.61812377095
 21
-143.6687069625096
 31
0.0
  0
LINE
  5
206
  8
DEFAULT
 10
2211.61812377095
 20
-143.6687069625096
 30
0.0
 11
2211.538629939657
 21
-143.365180578137
 31
0.0
  0
LINE
  5
207
  8
DEFAULT
 10
2211.538629939657
 20
-143.365180578137
 30
0.0
 11
2211.464264742641
 21
-143.0574132077277
 31
0.0
  0
LINE
  5
208
  8
DEFAULT
 10
2211.464264742641
 20
-143.0574132077277
 30
0.0
 11
2211.395028179902
 21
-142.7454048512816
 31
0.0
  0
LINE
  5
209
  8
DEFAULT
 10
2211.395028179902
 20
-142.7454048512816
 30
0.0
 11
2211.330920251439
 21
-142.4291555087989
 31
0.0
  0
LINE
  5
20A
  8
DEFAULT
 10
2211.330920251439
 20
-142.4291555087989
 30
0.0
 11
2211.271940957254
 21
-142.1086651802793
 31
0.0
  0
LINE
  5
20B
  8
DEFAULT
 10
2211.271940957254
 20
-142.1086651802793
 30
0.0
 11
2211.218090297346
 21
-141.7839338657231
 31
0.0
  0
LINE
  5
20C
  8
DEFAULT
 10
2211.218090297346
 20
-141.7839338657231
 30
0.0
 11
2211.12577488036
 21
-141.1217482785005
 31
0.0
  0
LINE
  5
20D
  8
DEFAULT
 10
2211.12577488036
 20
-141.1217482785005
 30
0.0
 11
2211.053974000482
 21
-140.4425987471309
 31
0.0
  0
LINE
  5
20E
  8
DEFAULT
 10
2211.053974000482
 20
-140.4425987471309
 30
0.0
 11
2211.002687657713
 21
-139.7464852716145
 31
0.0
  0
LINE
  5
20F
  8
DEFAULT
 10
2211.002687657713
 20
-139.7464852716145
 30
0.0
 11
2210.971915852051
 21
-139.0334078519511
 31
0.0
  0
LINE
  5
210
  8
DEFAULT
 10
2210.971915852051
 20
-139.0334078519511
 30
0.0
 11
2210.961658583497
 21
-138.3033664881409
 31
0.0
  0
LINE
  5
211
  8
DEFAULT
 10
2210.961658583497
 20
-138.3033664881409
 30
0.0
 11
2210.961658583497
 21
-129.6683244070391
 31
0.0
  0
LINE
  5
212
  8
DEFAULT
 10
2210.961658583497
 20
-129.6683244070391
 30
0.0
 11
2243.961658583497
 21
-129.6683244070391
 31
0.0
  0
LINE
  5
213
  8
DEFAULT
 10
2243.961658583497
 20
-129.6683244070391
 30
0.0
 11
2243.961658583497
 21
-139.1113236419282
 31
0.0
  0
LINE
  5
214
  8
DEFAULT
 10
2243.961658583497
 20
-139.1113236419282
 30
0.0
 11
2243.953817690709
 21
-139.7901526336555
 31
0.0
  0
LINE
  5
215
  8
DEFAULT
 10
2243.953817690709
 20
-139.7901526336555
 30
0.0
 11
2243.930295012342
 21
-140.4474314986612
 31
0.0
  0
LINE
  5
216
  8
DEFAULT
 10
2243.930295012342
 20
-140.4474314986612
 30
0.0
 11
2243.891090548398
 21
-141.0831602369454
 31
0.0
  0
LINE
  5
217
  8
DEFAULT
 10
2243.891090548398
 20
-141.0831602369454
 30
0.0
 11
2243.836204298876
 21
-141.6973388485081
 31
0.0
  0
LINE
  5
218
  8
DEFAULT
 10
2243.836204298876
 20
-141.6973388485081
 30
0.0
 11
2243.765636263777
 21
-142.2899673333494
 31
0.0
  0
LINE
  5
219
  8
DEFAULT
 10
2243.765636263777
 20
-142.2899673333494
 30
0.0
 11
2243.6793864431
 21
-142.8610456914691
 31
0.0
  0
LINE
  5
21A
  8
DEFAULT
 10
2243.6793864431
 20
-142.8610456914691
 30
0.0
 11
2243.577454836845
 21
-143.4105739228673
 31
0.0
  0
LINE
  5
21B
  8
DEFAULT
 10
2243.577454836845
 20
-143.4105739228673
 30
0.0
 11
2243.520608364126
 21
-143.6772567410459
 31
0.0
  0
LINE
  5
21C
  8
DEFAULT
 10
2243.520608364126
 20
-143.6772567410459
 30
0.0
 11
2243.459841445012
 21
-143.9385520275441
 31
0.0
  0
LINE
  5
21D
  8
DEFAULT
 10
2243.459841445012
 20
-143.9385520275441
 30
0.0
 11
2243.395154079505
 21
-144.1944597823619
 31
0.0
  0
LINE
  5
21E
  8
DEFAULT
 10
2243.395154079505
 20
-144.1944597823619
 30
0.0
 11
2243.326546267603
 21
-144.4449800054994
 31
0.0
  0
LINE
  5
21F
  8
DEFAULT
 10
2243.326546267603
 20
-144.4449800054994
 30
0.0
 11
2243.254018009306
 21
-144.6901126969564
 31
0.0
  0
LINE
  5
220
  8
DEFAULT
 10
2243.254018009306
 20
-144.6901126969564
 30
0.0
 11
2243.177569304615
 21
-144.9298578567331
 31
0.0
  0
LINE
  5
221
  8
DEFAULT
 10
2243.177569304615
 20
-144.9298578567331
 30
0.0
 11
2243.097200153529
 21
-145.1642154848294
 31
0.0
  0
LINE
  5
222
  8
DEFAULT
 10
2243.097200153529
 20
-145.1642154848294
 30
0.0
 11
2243.012910556049
 21
-145.3931855812453
 31
0.0
  0
LINE
  5
223
  8
DEFAULT
 10
2243.012910556049
 20
-145.3931855812453
 30
0.0
 11
2242.924700512175
 21
-145.6167681459809
 31
0.0
  0
LINE
  5
224
  8
DEFAULT
 10
2242.924700512175
 20
-145.6167681459809
 30
0.0
 11
2242.832570021906
 21
-145.8349631790361
 31
0.0
  0
LINE
  5
225
  8
DEFAULT
 10
2242.832570021906
 20
-145.8349631790361
 30
0.0
 11
2242.736519085243
 21
-146.0477706804109
 31
0.0
  0
LINE
  5
226
  8
DEFAULT
 10
2242.736519085243
 20
-146.0477706804109
 30
0.0
 11
2242.636547702185
 21
-146.2551906501053
 31
0.0
  0
LINE
  5
227
  8
DEFAULT
 10
2242.636547702185
 20
-146.2551906501053
 30
0.0
 11
2242.532655872733
 21
-146.4572230881193
 31
0.0
  0
LINE
  5
228
  8
DEFAULT
 10
2242.532655872733
 20
-146.4572230881193
 30
0.0
 11
2242.424843596887
 21
-146.6538679944531
 31
0.0
  0
LINE
  5
229
  8
DEFAULT
 10
2242.424843596887
 20
-146.6538679944531
 30
0.0
 11
2242.313110874646
 21
-146.8451253691064
 31
0.0
  0
LINE
  5
22A
  8
DEFAULT
 10
2242.313110874646
 20
-146.8451253691064
 30
0.0
 11
2242.197457706011
 21
-147.0309952120793
 31
0.0
  0
LINE
  5
22B
  8
DEFAULT
 10
2242.197457706011
 20
-147.0309952120793
 30
0.0
 11
2242.077884090981
 21
-147.2114775233719
 31
0.0
  0
LINE
  5
22C
  8
DEFAULT
 10
2242.077884090981
 20
-147.2114775233719
 30
0.0
 11
2241.954390029557
 21
-147.3865723029841
 31
0.0
  0
LINE
  5
22D
  8
DEFAULT
 10
2241.954390029557
 20
-147.3865723029841
 30
0.0
 11
2241.826975521739
 21
-147.5562795509159
 31
0.0
  0
LINE
  5
22E
  8
DEFAULT
 10
2241.826975521739
 20
-147.5562795509159
 30
0.0
 11
2241.695640567526
 21
-147.7205992671673
 31
0.0
  0
LINE
  5
22F
  8
DEFAULT
 10
2241.695640567526
 20
-147.7205992671673
 30
0.0
 11
2241.560385166918
 21
-147.8795314517384
 31
0.0
  0
LINE
  5
230
  8
DEFAULT
 10
2241.560385166918
 20
-147.8795314517384
 30
0.0
 11
2241.421209319917
 21
-148.0330761046291
 31
0.0
  0
LINE
  5
231
  8
DEFAULT
 10
2241.421209319917
 20
-148.0330761046291
 30
0.0
 11
2241.278113026521
 21
-148.1812332258394
 31
0.0
  0
LINE
  5
232
  8
DEFAULT
 10
2241.278113026521
 20
-148.1812332258394
 30
0.0
 11
2241.13109628673
 21
-148.3240028153693
 31
0.0
  0
LINE
  5
233
  8
DEFAULT
 10
2241.13109628673
 20
-148.3240028153693
 30
0.0
 11
2240.980159100545
 21
-148.4613848732188
 31
0.0
  0
LINE
  5
234
  8
DEFAULT
 10
2240.980159100545
 20
-148.4613848732188
 30
0.0
 11
2240.825301467966
 21
-148.593379399388
 31
0.0
  0
LINE
  5
235
  8
DEFAULT
 10
2240.825301467966
 20
-148.593379399388
 30
0.0
 11
2240.666523388992
 21
-148.7199863938768
 31
0.0
  0
LINE
  5
236
  8
DEFAULT
 10
2240.666523388992
 20
-148.7199863938768
 30
0.0
 11
2240.503824863624
 21
-148.8412058566853
 31
0.0
  0
LINE
  5
237
  8
DEFAULT
 10
2240.503824863624
 20
-148.8412058566853
 30
0.0
 11
2240.337205891861
 21
-148.9570377878133
 31
0.0
  0
LINE
  5
238
  8
DEFAULT
 10
2240.337205891861
 20
-148.9570377878133
 30
0.0
 11
2240.166666473704
 21
-149.067482187261
 31
0.0
  0
LINE
  5
239
  8
DEFAULT
 10
2240.166666473704
 20
-149.067482187261
 30
0.0
 11
2239.992206609152
 21
-149.1725390550283
 31
0.0
  0
LINE
  5
23A
  8
DEFAULT
 10
2239.992206609152
 20
-149.1725390550283
 30
0.0
 11
2239.813826298206
 21
-149.2722083911153
 31
0.0
  0
LINE
  5
23B
  8
DEFAULT
 10
2239.813826298206
 20
-149.2722083911153
 30
0.0
 11
2239.631525540866
 21
-149.3664901955218
 31
0.0
  0
LINE
  5
23C
  8
DEFAULT
 10
2239.631525540866
 20
-149.3664901955218
 30
0.0
 11
2239.445304337131
 21
-149.455384468248
 31
0.0
  0
LINE
  5
23D
  8
DEFAULT
 10
2239.445304337131
 20
-149.455384468248
 30
0.0
 11
2239.255162687003
 21
-149.5388912092938
 31
0.0
  0
LINE
  5
23E
  8
DEFAULT
 10
2239.255162687003
 20
-149.5388912092938
 30
0.0
 11
2239.061100590479
 21
-149.6170104186592
 31
0.0
  0
LINE
  5
23F
  8
DEFAULT
 10
2239.061100590479
 20
-149.6170104186592
 30
0.0
 11
2238.863118047561
 21
-149.6897420963443
 31
0.0
  0
LINE
  5
240
  8
DEFAULT
 10
2238.863118047561
 20
-149.6897420963443
 30
0.0
 11
2238.661215058249
 21
-149.757086242349
 31
0.0
  0
LINE
  5
241
  8
DEFAULT
 10
2238.661215058249
 20
-149.757086242349
 30
0.0
 11
2238.455391622542
 21
-149.8190428566733
 31
0.0
  0
LINE
  5
242
  8
DEFAULT
 10
2238.455391622542
 20
-149.8190428566733
 30
0.0
 11
2238.245647740441
 21
-149.8756119393172
 31
0.0
  0
LINE
  5
243
  8
DEFAULT
 10
2238.245647740441
 20
-149.8756119393172
 30
0.0
 11
2238.031983411945
 21
-149.9267934902808
 31
0.0
  0
LINE
  5
244
  8
DEFAULT
 10
2238.031983411945
 20
-149.9267934902808
 30
0.0
 11
2237.814398637055
 21
-149.972587509564
 31
0.0
  0
LINE
  5
245
  8
DEFAULT
 10
2237.814398637055
 20
-149.972587509564
 30
0.0
 11
2237.592893415771
 21
-150.0129939971668
 31
0.0
  0
LINE
  5
246
  8
DEFAULT
 10
2237.592893415771
 20
-150.0129939971668
 30
0.0
 11
2237.367467748092
 21
-150.0480129530893
 31
0.0
  0
LINE
  5
247
  8
DEFAULT
 10
2237.367467748092
 20
-150.0480129530893
 30
0.0
 11
2237.138121634018
 21
-150.0776443773313
 31
0.0
  0
LINE
  5
248
  8
DEFAULT
 10
2237.138121634018
 20
-150.0776443773313
 30
0.0
 11
2236.904855073551
 21
-150.101888269893
 31
0.0
  0
LINE
  5
249
  8
DEFAULT
 10
2236.904855073551
 20
-150.101888269893
 30
0.0
 11
2236.667668066689
 21
-150.1207446307743
 31
0.0
  0
LINE
  5
24A
  8
DEFAULT
 10
2236.667668066689
 20
-150.1207446307743
 30
0.0
 11
2236.426560613432
 21
-150.1342134599752
 31
0.0
  0
LINE
  5
24B
  8
DEFAULT
 10
2236.426560613432
 20
-150.1342134599752
 30
0.0
 11
2236.181532713782
 21
-150.1422947574958
 31
0.0
  0
LINE
  5
24C
  8
DEFAULT
 10
2236.181532713782
 20
-150.1422947574958
 30
0.0
 11
2235.932584367736
 21
-150.144988523336
 31
0.0
  0
LINE
  5
24D
  8
DEFAULT
 10
2235.932584367736
 20
-150.144988523336
 30
0.0
 11
2235.600998436214
 21
-150.1400078304324
 31
0.0
  0
LINE
  5
24E
  8
DEFAULT
 10
2235.600998436214
 20
-150.1400078304324
 30
0.0
 11
2235.275330159626
 21
-150.1250657517216
 31
0.0
  0
LINE
  5
24F
  8
DEFAULT
 10
2235.275330159626
 20
-150.1250657517216
 30
0.0
 11
2234.955579537973
 21
-150.1001622872036
 31
0.0
  0
LINE
  5
250
  8
DEFAULT
 10
2234.955579537973
 20
-150.1001622872036
 30
0.0
 11
2234.641746571256
 21
-150.0652974368784
 31
0.0
  0
LINE
  5
251
  8
DEFAULT
 10
2234.641746571256
 20
-150.0652974368784
 30
0.0
 11
2234.333831259473
 21
-150.020471200746
 31
0.0
  0
LINE
  5
252
  8
DEFAULT
 10
2234.333831259473
 20
-150.020471200746
 30
0.0
 11
2234.182092724182
 21
-149.9943225630022
 31
0.0
  0
LINE
  5
253
  8
DEFAULT
 10
2234.182092724182
 20
-149.9943225630022
 30
0.0
 11
2234.031833602625
 21
-149.9656835788065
 31
0.0
  0
LINE
  5
254
  8
DEFAULT
 10
2234.031833602625
 20
-149.9656835788065
 30
0.0
 11
2233.883053894801
 21
-149.934554248159
 31
0.0
  0
LINE
  5
255
  8
DEFAULT
 10
2233.883053894801
 20
-149.934554248159
 30
0.0
 11
2233.735753600712
 21
-149.9009345710597
 31
0.0
  0
LINE
  5
256
  8
DEFAULT
 10
2233.735753600712
 20
-149.9009345710597
 30
0.0
 11
2233.589932720356
 21
-149.8648245475087
 31
0.0
  0
LINE
  5
257
  8
DEFAULT
 10
2233.589932720356
 20
-149.8648245475087
 30
0.0
 11
2233.445591253734
 21
-149.8262241775058
 31
0.0
  0
LINE
  5
258
  8
DEFAULT
 10
2233.445591253734
 20
-149.8262241775058
 30
0.0
 11
2233.302729200846
 21
-149.7851334610511
 31
0.0
  0
LINE
  5
259
  8
DEFAULT
 10
2233.302729200846
 20
-149.7851334610511
 30
0.0
 11
2233.161346561691
 21
-149.7415523981447
 31
0.0
  0
LINE
  5
25A
  8
DEFAULT
 10
2233.161346561691
 20
-149.7415523981447
 30
0.0
 11
2233.02144333627
 21
-149.6954809887864
 31
0.0
  0
LINE
  5
25B
  8
DEFAULT
 10
2233.02144333627
 20
-149.6954809887864
 30
0.0
 11
2232.883019524583
 21
-149.6469192329764
 31
0.0
  0
LINE
  5
25C
  8
DEFAULT
 10
2232.883019524583
 20
-149.6469192329764
 30
0.0
 11
2232.74607512663
 21
-149.5958671307145
 31
0.0
  0
LINE
  5
25D
  8
DEFAULT
 10
2232.74607512663
 20
-149.5958671307145
 30
0.0
 11
2232.61061014241
 21
-149.5423246820009
 31
0.0
  0
LINE
  5
25E
  8
DEFAULT
 10
2232.61061014241
 20
-149.5423246820009
 30
0.0
 11
2232.476624571925
 21
-149.4862918868354
 31
0.0
  0
LINE
  5
25F
  8
DEFAULT
 10
2232.476624571925
 20
-149.4862918868354
 30
0.0
 11
2232.344118415172
 21
-149.4277687452181
 31
0.0
  0
LINE
  5
260
  8
DEFAULT
 10
2232.344118415172
 20
-149.4277687452181
 30
0.0
 11
2232.213091672154
 21
-149.3667552571491
 31
0.0
  0
LINE
  5
261
  8
DEFAULT
 10
2232.213091672154
 20
-149.3667552571491
 30
0.0
 11
2232.08354434287
 21
-149.3032514226283
 31
0.0
  0
LINE
  5
262
  8
DEFAULT
 10
2232.08354434287
 20
-149.3032514226283
 30
0.0
 11
2231.955476427319
 21
-149.2372572416556
 31
0.0
  0
LINE
  5
263
  8
DEFAULT
 10
2231.955476427319
 20
-149.2372572416556
 30
0.0
 11
2231.828887925501
 21
-149.1687727142312
 31
0.0
  0
LINE
  5
264
  8
DEFAULT
 10
2231.828887925501
 20
-149.1687727142312
 30
0.0
 11
2231.703778837418
 21
-149.0977978403549
 31
0.0
  0
LINE
  5
265
  8
DEFAULT
 10
2231.703778837418
 20
-149.0977978403549
 30
0.0
 11
2231.580149163069
 21
-149.0243326200269
 31
0.0
  0
LINE
  5
266
  8
DEFAULT
 10
2231.580149163069
 20
-149.0243326200269
 30
0.0
 11
2231.457998902452
 21
-148.948377053247
 31
0.0
  0
LINE
  5
267
  8
DEFAULT
 10
2231.457998902452
 20
-148.948377053247
 30
0.0
 11
2231.337328055571
 21
-148.8699311400154
 31
0.0
  0
LINE
  5
268
  8
DEFAULT
 10
2231.337328055571
 20
-148.8699311400154
 30
0.0
 11
2231.218358534482
 21
-148.7886743406896
 31
0.0
  0
LINE
  5
269
  8
DEFAULT
 10
2231.218358534482
 20
-148.7886743406896
 30
0.0
 11
2231.101312251248
 21
-148.7042861156275
 31
0.0
  0
LINE
  5
26A
  8
DEFAULT
 10
2231.101312251248
 20
-148.7042861156275
 30
0.0
 11
2230.986189205867
 21
-148.6167664648289
 31
0.0
  0
LINE
  5
26B
  8
DEFAULT
 10
2230.986189205867
 20
-148.6167664648289
 30
0.0
 11
2230.87298939834
 21
-148.5261153882939
 31
0.0
  0
LINE
  5
26C
  8
DEFAULT
 10
2230.87298939834
 20
-148.5261153882939
 30
0.0
 11
2230.761712828667
 21
-148.4323328860224
 31
0.0
  0
LINE
  5
26D
  8
DEFAULT
 10
2230.761712828667
 20
-148.4323328860224
 30
0.0
 11
2230.652359496848
 21
-148.3354189580146
 31
0.0
  0
LINE
  5
26E
  8
DEFAULT
 10
2230.652359496848
 20
-148.3354189580146
 30
0.0
 11
2230.544929402884
 21
-148.2353736042704
 31
0.0
  0
LINE
  5
26F
  8
DEFAULT
 10
2230.544929402884
 20
-148.2353736042704
 30
0.0
 11
2230.439422546772
 21
-148.1321968247897
 31
0.0
  0
LINE
  5
270
  8
DEFAULT
 10
2230.439422546772
 20
-148.1321968247897
 30
0.0
 11
2230.335838928515
 21
-148.0258886195726
 31
0.0
  0
LINE
  5
271
  8
DEFAULT
 10
2230.335838928515
 20
-148.0258886195726
 30
0.0
 11
2230.234178548111
 21
-147.916448988619
 31
0.0
  0
LINE
  5
272
  8
DEFAULT
 10
2230.234178548111
 20
-147.916448988619
 30
0.0
 11
2230.134441405562
 21
-147.8038779319291
 31
0.0
  0
LINE
  5
273
  8
DEFAULT
 10
2230.134441405562
 20
-147.8038779319291
 30
0.0
 11
2230.036627500866
 21
-147.6881754495028
 31
0.0
  0
LINE
  5
274
  8
DEFAULT
 10
2230.036627500866
 20
-147.6881754495028
 30
0.0
 11
2229.940736834023
 21
-147.56934154134
 31
0.0
  0
LINE
  5
275
  8
DEFAULT
 10
2229.940736834023
 20
-147.56934154134
 30
0.0
 11
2229.846769405036
 21
-147.4473762074408
 31
0.0
  0
LINE
  5
276
  8
DEFAULT
 10
2229.846769405036
 20
-147.4473762074408
 30
0.0
 11
2229.754725213901
 21
-147.3222794478052
 31
0.0
  0
LINE
  5
277
  8
DEFAULT
 10
2229.754725213901
 20
-147.3222794478052
 30
0.0
 11
2229.664604260621
 21
-147.1940512624331
 31
0.0
  0
LINE
  5
278
  8
DEFAULT
 10
2229.664604260621
 20
-147.1940512624331
 30
0.0
 11
2229.576406545194
 21
-147.0626916513247
 31
0.0
  0
LINE
  5
279
  8
DEFAULT
 10
2229.576406545194
 20
-147.0626916513247
 30
0.0
 11
2229.490132067622
 21
-146.9282006144798
 31
0.0
  0
LINE
  5
27A
  8
DEFAULT
 10
2229.490132067622
 20
-146.9282006144798
 30
0.0
 11
2229.405780827903
 21
-146.7905781518985
 31
0.0
  0
LINE
  5
27B
  8
DEFAULT
 10
2229.405780827903
 20
-146.7905781518985
 30
0.0
 11
2229.323352826038
 21
-146.6498242635808
 31
0.0
  0
LINE
  5
27C
  8
DEFAULT
 10
2229.323352826038
 20
-146.6498242635808
 30
0.0
 11
2229.242848062026
 21
-146.5059389495267
 31
0.0
  0
LINE
  5
27D
  8
DEFAULT
 10
2229.242848062026
 20
-146.5059389495267
 30
0.0
 11
2229.164266535869
 21
-146.3589222097361
 31
0.0
  0
LINE
  5
27E
  8
DEFAULT
 10
2229.164266535869
 20
-146.3589222097361
 30
0.0
 11
2229.087608247566
 21
-146.2087740442091
 31
0.0
  0
LINE
  5
27F
  8
DEFAULT
 10
2229.087608247566
 20
-146.2087740442091
 30
0.0
 11
2229.012873197116
 21
-146.0554944529458
 31
0.0
  0
LINE
  5
280
  8
DEFAULT
 10
2229.012873197116
 20
-146.0554944529458
 30
0.0
 11
2228.940061384521
 21
-145.899083435946
 31
0.0
  0
LINE
  5
281
  8
DEFAULT
 10
2228.940061384521
 20
-145.899083435946
 30
0.0
 11
2228.869172809779
 21
-145.7395409932097
 31
0.0
  0
LINE
  5
282
  8
DEFAULT
 10
2228.869172809779
 20
-145.7395409932097
 30
0.0
 11
2228.733165373857
 21
-145.411061830528
 31
0.0
  0
LINE
  5
283
  8
DEFAULT
 10
2228.733165373857
 20
-145.411061830528
 30
0.0
 11
2228.604850889351
 21
-145.0700569649006
 31
0.0
  0
LINE
  5
284
  8
DEFAULT
 10
2228.604850889351
 20
-145.0700569649006
 30
0.0
 11
2228.48422935626
 21
-144.7165263963276
 31
0.0
  0
LINE
  5
285
  8
DEFAULT
 10
2243.961658583497
 20
-12.65608263198174
 30
0.0
 11
2210.961658583497
 21
-23.46250956388686
 31
0.0
  0
LINE
  5
286
  8
DEFAULT
 10
2210.961658583497
 20
-23.46250956388686
 30
0.0
 11
2210.961658583497
 21
-18.56426931905135
 31
0.0
  0
LINE
  5
287
  8
DEFAULT
 10
2210.961658583497
 20
-18.56426931905135
 30
0.0
 11
2218.157526984415
 21
-16.26664116296872
 31
0.0
  0
LINE
  5
288
  8
DEFAULT
 10
2218.157526984415
 20
-16.26664116296872
 30
0.0
 11
2218.157526984415
 21
-2.531369548584635
 31
0.0
  0
LINE
  5
289
  8
DEFAULT
 10
2218.157526984415
 20
-2.531369548584635
 30
0.0
 11
2210.961658583497
 21
-0.2084927314461567
 31
0.0
  0
LINE
  5
28A
  8
DEFAULT
 10
2210.961658583497
 20
-0.2084927314461567
 30
0.0
 11
2210.961658583497
 21
4.462509563886655
 31
0.0
  0
LINE
  5
28B
  8
DEFAULT
 10
2210.961658583497
 20
4.462509563886655
 30
0.0
 11
2243.961658583497
 21
-6.495409334353575
 31
0.0
  0
LINE
  5
28C
  8
DEFAULT
 10
2243.961658583497
 20
-6.495409334353575
 30
0.0
 11
2243.961658583497
 21
-12.65608263198174
 31
0.0
  0
CIRCLE
  5
28D
  8
DEFAULT
 10
-2437.457868718291
 20
-256.0000000000001
 30
0.0000000000000105
 40
7.999999999999963
210
0.0
220
0.0
230
-1.0
  0
CIRCLE
  5
28E
  8
DEFAULT
 10
-2437.457868718292
 20
-347.9999999999999
 30
0.0000000000000105
 40
8.000000000000105
210
0.0
220
0.0
230
-1.0
  0
CIRCLE
  5
28F
  8
DEFAULT
 10
-2153.457868718292
 20
-348.0
 30
0.0000000000000105
 40
7.999999999999996
210
0.0
220
0.0
230
-1.0
  0
CIRCLE
  5
290
  8
DEFAULT
 10
-2153.457868718291
 20
-256.0000000000001
 30
0.0000000000000105
 40
7.999999999999963
210
0.0
220
0.0
230
-1.0
  0
CIRCLE
  5
291
  8
DEFAULT
 10
-2437.457868718291
 20
-126.0000000000002
 30
0.0000000000000105
 40
8.000000000000071
210
0.0
220
0.0
230
-1.0
  0
CIRCLE
  5
292
  8
DEFAULT
 10
-2437.457868718292
 20
-217.9999999999999
 30
0.0000000000000105
 40
8.000000000000105
210
0.0
220
0.0
230
-1.0
  0
CIRCLE
  5
293
  8
DEFAULT
 10
-2153.457868718292
 20
-217.9999999999998
 30
0.0000000000000105
 40
8.000000000000353
210
0.0
220
0.0
230
-1.0
  0
CIRCLE
  5
294
  8
DEFAULT
 10
-2153.457868718291
 20
-126.0000000000001
 30
0.0000000000000105
 40
7.999999999999963
210
0.0
220
0.0
230
-1.0
  0
CIRCLE
  5
295
  8
DEFAULT
 10
-2437.457868718291
 20
4.999999999999773
 30
0.0000000000000105
 40
8.000000000000071
210
0.0
220
0.0
230
-1.0
  0
CIRCLE
  5
296
  8
DEFAULT
 10
-2437.457868718292
 20
-87.00000000000017
 30
0.0000000000000105
 40
7.999999999999834
210
0.0
220
0.0
230
-1.0
  0
CIRCLE
  5
297
  8
DEFAULT
 10
-2153.457868718292
 20
-86.99999999999977
 30
0.0000000000000105
 40
8.000000000000353
210
0.0
220
0.0
230
-1.0
  0
CIRCLE
  5
298
  8
DEFAULT
 10
-2153.457868718291
 20
4.999999999999773
 30
0.0000000000000105
 40
8.000000000000071
210
0.0
220
0.0
230
-1.0
  0
CIRCLE
  5
299
  8
DEFAULT
 10
-2284.997796656849
 20
-336.6782081015815
 30
0.0000000000000105
 40
3.150000000000091
210
0.0
220
0.0
230
-1.0
  0
CIRCLE
  5
29A
  8
DEFAULT
 10
-2294.997796656849
 20
-336.6782081015815
 30
0.0000000000000105
 40
3.150000000000091
210
0.0
220
0.0
230
-1.0
  0
CIRCLE
  5
29B
  8
DEFAULT
 10
-2304.997796656849
 20
-336.6782081015813
 30
0.0000000000000105
 40
3.150000000000091
210
0.0
220
0.0
230
-1.0
  0
CIRCLE
  5
29C
  8
DEFAULT
 10
-2289.993419467702
 20
-205.6472786758281
 30
0.0000000000000105
 40
3.150000000000091
210
0.0
220
0.0
230
-1.0
  0
CIRCLE
  5
29D
  8
DEFAULT
 10
-2299.993419467702
 20
-205.6472786758281
 30
0.0000000000000105
 40
3.150000000000091
210
0.0
220
0.0
230
-1.0
  0
CIRCLE
  5
29E
  8
DEFAULT
 10
-2294.993419467702
 20
-77.64727867582769
 30
0.0000000000000105
 40
3.150000000000091
210
0.0
220
0.0
230
-1.0
  0
CIRCLE
  5
29F
  8
DEFAULT
 10
-2153.457868718292
 20
-256.0000000000002
 30
0.0000000000000105
 40
3.049999999999727
210
0.0
220
0.0
230
-1.0
  0
CIRCLE
  5
2A0
  8
DEFAULT
 10
-2153.457868718292
 20
-348.0
 30
0.0000000000000105
 40
3.049999999999727
210
0.0
220
0.0
230
-1.0
  0
CIRCLE
  5
2A1
  8
DEFAULT
 10
-2437.457868718292
 20
-348.0
 30
0.0000000000000105
 40
3.049999999999727
210
0.0
220
0.0
230
-1.0
  0
CIRCLE
  5
2A2
  8
DEFAULT
 10
-2437.457868718292
 20
-256.0
 30
0.0000000000000105
 40
3.049999999999727
210
0.0
220
0.0
230
-1.0
  0
LINE
  5
2A3
  8
DEFAULT
 10
2447.999996444059
 20
-346.9999999999999
 30
-0.0000000000000105
 11
2447.999996444059
 21
-257.0
 31
-0.0000000000000105
  0
ARC
  5
2A4
  8
DEFAULT
 10
2435.999996444059
 20
-257.0000000000002
 30
-0.0000000000000105
 40
12.00000000000045
 50
0.0000000000010856
 51
89.99999999999784
  0
LINE
  5
2A5
  8
DEFAULT
 10
2435.999996444059
 20
-245.0
 30
-0.0000000000000105
 11
2153.999996444059
 21
-245.0
 31
-0.0000000000000105
  0
ARC
  5
2A6
  8
DEFAULT
 10
2153.999996444059
 20
-256.9999999999998
 30
-0.0000000000000105
 40
11.99999999999977
 50
90.0
 51
180.0000000000011
  0
LINE
  5
2A7
  8
DEFAULT
 10
2141.999996444059
 20
-257.0
 30
-0.0000000000000105
 11
2141.999996444059
 21
-347.0
 31
-0.0000000000000105
  0
ARC
  5
2A8
  8
DEFAULT
 10
2153.999996444059
 20
-347.0000000000006
 30
-0.0000000000000105
 40
11.99999999999955
 50
179.9999999999973
 51
270.0000000000021
  0
LINE
  5
2A9
  8
DEFAULT
 10
2153.999996444059
 20
-359.0
 30
-0.0000000000000105
 11
2435.999996444059
 21
-359.0
 31
-0.0000000000000105
  0
ARC
  5
2AA
  8
DEFAULT
 10
2435.999996444059
 20
-346.9999999999994
 30
-0.0000000000000105
 40
12.00000000000057
 50
270.0
 51
359.9999999999978
  0
ARC
  5
2AB
  8
DEFAULT
 10
-2295.000000000001
 20
-307.9999999999976
 30
0.0000000000000105
 40
12.50000000000244
 50
270.0000000000063
 51
330.6728312346158
210
0.0
220
0.0
230
-1.0
  0
ARC
  5
2AC
  8
DEFAULT
 10
2273.639990636706
 20
-320.000000000001
 30
-0.0000000000000105
 40
12.00000000000063
 50
29.32716876538139
 51
90.0
  0
LINE
  5
2AD
  8
DEFAULT
 10
2273.639990636706
 20
-308.0
 30
-0.0000000000000105
 11
2168.873370961926
 21
-308.0
 31
-0.0000000000000105
  0
ARC
  5
2AE
  8
DEFAULT
 10
2168.873370961926
 20
-310.9999999999997
 30
-0.0000000000000105
 40
2.999999999999716
 50
90.0
 51
150.2730117288827
  0
ARC
  5
2AF
  8
DEFAULT
 10
-2163.619562819254
 20
-308.0000000000002
 30
0.0000000000000105
 40
3.050000000000129
 50
209.7269882711172
 51
0.0000000000021357
210
0.0
220
0.0
230
-1.0
  0
LINE
  5
2B0
  8
DEFAULT
 10
2160.569562819254
 20
-308.0000000000001
 30
-0.0000000000000105
 11
2160.569562819254
 21
-295.9999999999999
 31
-0.0000000000000105
  0
ARC
  5
2B1
  8
DEFAULT
 10
-2163.619562819254
 20
-296.0000000000006
 30
0.0000000000000105
 40
3.050000000000182
 50
0.000000000012814
 51
150.273011728881
210
0.0
220
0.0
230
-1.0
  0
ARC
  5
2B2
  8
DEFAULT
 10
2168.873370961926
 20
-293.0000000000015
 30
-0.0000000000000105
 40
2.999999999999016
 50
209.726988271115
 51
270.0
  0
LINE
  5
2B3
  8
DEFAULT
 10
2168.873370961926
 20
-296.0000000000003
 30
-0.0000000000000105
 11
2273.639990636706
 21
-296.0
 31
-0.0000000000000105
  0
ARC
  5
2B4
  8
DEFAULT
 10
2273.639990636707
 20
-284.0000000000008
 30
-0.0000000000000105
 40
11.9999999999992
 50
269.9999999999978
 51
330.6728312346247
  0
ARC
  5
2B5
  8
DEFAULT
 10
-2295.0
 20
-296.0000000000001
 30
0.0000000000000105
 40
12.50000000000011
 50
29.32716876537839
 51
150.6728312346216
210
0.0
220
0.0
230
-1.0
  0
ARC
  5
2B6
  8
DEFAULT
 10
2316.360009363293
 20
-284.0000000000009
 30
-0.0000000000000105
 40
11.99999999999889
 50
209.3271687653755
 51
270.0000000000043
  0
LINE
  5
2B7
  8
DEFAULT
 10
2316.360009363294
 20
-295.9999999999999
 30
-0.0000000000000105
 11
2421.126629038074
 21
-296.0
 31
-0.0000000000000105
  0
ARC
  5
2B8
  8
DEFAULT
 10
2421.126629038074
 20
-292.9999999999985
 30
-0.0000000000000105
 40
3.000000000001535
 50
270.0000000000086
 51
330.2730117288483
  0
ARC
  5
2B9
  8
DEFAULT
 10
-2426.380437180746
 20
-295.9999999999995
 30
0.0000000000000105
 40
3.049999999999848
 50
29.72698827110788
 51
180.0
210
0.0
220
0.0
230
-1.0
  0
LINE
  5
2BA
  8
DEFAULT
 10
2429.430437180746
 20
-295.9999999999995
 30
-0.0000000000000105
 11
2429.430437180746
 21
-307.9999999999998
 31
-0.0000000000000105
  0
ARC
  5
2BB
  8
DEFAULT
 10
-2426.380437180746
 20
-307.9999999999995
 30
0.0000000000000105
 40
3.050000000000182
 50
180.0000000000043
 51
330.2730117288675
210
0.0
220
0.0
230
-1.0
  0
ARC
  5
2BC
  8
DEFAULT
 10
2421.126629038074
 20
-310.9999999999999
 30
-0.0000000000000105
 40
3.000000000000342
 50
29.72698827112432
 51
90.0
  0
LINE
  5
2BD
  8
DEFAULT
 10
2421.126629038074
 20
-307.9999999999997
 30
-0.0000000000000105
 11
2316.360009363294
 21
-307.9999999999999
 31
-0.0000000000000105
  0
ARC
  5
2BE
  8
DEFAULT
 10
2316.360009363293
 20
-319.9999999999987
 30
-0.0000000000000105
 40
11.99999999999881
 50
89.99999999999567
 51
150.6728312346255
  0
ARC
  5
2BF
  8
DEFAULT
 10
-2295.0
 20
-307.9999999999994
 30
0.0000000000000105
 40
12.50000000000068
 50
209.3271687653788
 51
269.9999999999979
210
0.0
220
0.0
230
-1.0
  0
CIRCLE
  5
2C0
  8
DEFAULT
 10
-2153.457868718292
 20
-126.0000000000002
 30
0.0000000000000105
 40
3.049999999999727
210
0.0
220
0.0
230
-1.0
  0
CIRCLE
  5
2C1
  8
DEFAULT
 10
-2153.457868718292
 20
-218.0000000000005
 30
0.0000000000000105
 40
3.049999999999727
210
0.0
220
0.0
230
-1.0
  0
CIRCLE
  5
2C2
  8
DEFAULT
 10
-2437.457868718292
 20
-218.0
 30
0.0000000000000105
 40
3.049999999999727
210
0.0
220
0.0
230
-1.0
  0
CIRCLE
  5
2C3
  8
DEFAULT
 10
-2437.457868718292
 20
-126.0
 30
0.0000000000000105
 40
3.049999999999727
210
0.0
220
0.0
230
-1.0
  0
LINE
  5
2C4
  8
DEFAULT
 10
2447.999996444059
 20
-216.9999999999999
 30
-0.0000000000000105
 11
2447.999996444059
 21
-127.0
 31
-0.0000000000000105
  0
ARC
  5
2C5
  8
DEFAULT
 10
2435.999996444059
 20
-126.9999999999999
 30
-0.0000000000000105
 40
12.0
 50
359.9999999999994
 51
90.0
  0
LINE
  5
2C6
  8
DEFAULT
 10
2435.999996444059
 20
-115.0
 30
-0.0000000000000105
 11
2153.999996444059
 21
-115.0
 31
-0.0000000000000105
  0
ARC
  5
2C7
  8
DEFAULT
 10
2153.999996444059
 20
-126.9999999999998
 30
-0.0000000000000105
 40
11.99999999999977
 50
90.0
 51
180.0000000000011
  0
LINE
  5
2C8
  8
DEFAULT
 10
2141.999996444059
 20
-127.0
 30
-0.0000000000000105
 11
2141.999996444059
 21
-217.0
 31
-0.0000000000000105
  0
ARC
  5
2C9
  8
DEFAULT
 10
2153.999996444059
 20
-217.0000000000003
 30
-0.0000000000000105
 40
12.0
 50
179.9999999999984
 51
270.0
  0
LINE
  5
2CA
  8
DEFAULT
 10
2153.999996444059
 20
-229.0
 30
-0.0000000000000105
 11
2435.999996444059
 21
-229.0
 31
-0.0000000000000105
  0
ARC
  5
2CB
  8
DEFAULT
 10
2435.999996444058
 20
-216.999999999999
 30
-0.0000000000000105
 40
12.00000000000102
 50
270.0000000000065
 51
359.9999999999957
  0
ARC
  5
2CC
  8
DEFAULT
 10
-2295.0
 20
-177.9999999999984
 30
0.0000000000000105
 40
12.50000000000162
 50
270.0000000000021
 51
330.6728312346162
210
0.0
220
0.0
230
-1.0
  0
ARC
  5
2CD
  8
DEFAULT
 10
2273.639990636705
 20
-190.0000000000022
 30
-0.0000000000000105
 40
12.00000000000205
 50
29.32716876538459
 51
89.99999999999567
  0
LINE
  5
2CE
  8
DEFAULT
 10
2273.639990636706
 20
-178.0
 30
-0.0000000000000105
 11
2168.873370961926
 21
-178.0
 31
-0.0000000000000105
  0
ARC
  5
2CF
  8
DEFAULT
 10
2168.873370961926
 20
-180.9999999999994
 30
-0.0000000000000105
 40
2.999999999999375
 50
90.0
 51
150.2730117288898
  0
ARC
  5
2D0
  8
DEFAULT
 10
-2163.619562819254
 20
-178.0000000000002
 30
0.0000000000000105
 40
3.050000000000144
 50
209.7269882711176
 51
0.0000000000016017
210
0.0
220
0.0
230
-1.0
  0
LINE
  5
2D1
  8
DEFAULT
 10
2160.569562819254
 20
-178.0000000000001
 30
-0.0000000000000105
 11
2160.569562819254
 21
-165.9999999999999
 31
-0.0000000000000105
  0
ARC
  5
2D2
  8
DEFAULT
 10
-2163.619562819254
 20
-166.0000000000007
 30
0.0000000000000105
 40
3.050000000000182
 50
0.0000000000154836
 51
150.2730117288792
210
0.0
220
0.0
230
-1.0
  0
ARC
  5
2D3
  8
DEFAULT
 10
2168.873370961925
 20
-163.0000000000017
 30
-0.0000000000000105
 40
2.999999999998551
 50
209.726988271117
 51
270.0000000000086
  0
LINE
  5
2D4
  8
DEFAULT
 10
2168.873370961926
 20
-166.0000000000003
 30
-0.0000000000000105
 11
2273.639990636706
 21
-166.0
 31
-0.0000000000000105
  0
ARC
  5
2D5
  8
DEFAULT
 10
2273.639990636707
 20
-154.000000000002
 30
-0.0000000000000105
 40
11.99999999999801
 50
269.9999999999956
 51
330.6728312346281
  0
ARC
  5
2D6
  8
DEFAULT
 10
-2295.0
 20
-166.0
 30
0.0000000000000105
 40
12.50000000000005
 50
29.32716876537782
 51
150.6728312346221
210
0.0
220
0.0
230
-1.0
  0
ARC
  5
2D7
  8
DEFAULT
 10
2316.360009363294
 20
-154.0000000000003
 30
-0.0000000000000105
 40
11.99999999999996
 50
209.3271687653757
 51
270.0
  0
LINE
  5
2D8
  8
DEFAULT
 10
2316.360009363294
 20
-165.9999999999999
 30
-0.0000000000000105
 11
2421.126629038074
 21
-166.0
 31
-0.0000000000000105
  0
ARC
  5
2D9
  8
DEFAULT
 10
2421.126629038074
 20
-162.999999999999
 30
-0.0000000000000105
 40
3.000000000001023
 50
270.0
 51
330.2730117288563
  0
ARC
  5
2DA
  8
DEFAULT
 10
-2426.380437180746
 20
-166.0
 30
0.0000000000000105
 40
3.05000000000006
 50
29.72698827111483
 51
179.999999999992
210
0.0
220
0.0
230
-1.0
  0
LINE
  5
2DB
  8
DEFAULT
 10
2429.430437180746
 20
-165.9999999999995
 30
-0.0000000000000105
 11
2429.430437180746
 21
-177.9999999999998
 31
-0.0000000000000105
  0
ARC
  5
2DC
  8
DEFAULT
 10
-2426.380437180746
 20
-177.9999999999996
 30
0.0000000000000105
 40
3.050000000000182
 50
180.0000000000027
 51
330.2730117288684
210
0.0
220
0.0
230
-1.0
  0
ARC
  5
2DD
  8
DEFAULT
 10
2421.126629038074
 20
-180.9999999999997
 30
-0.0000000000000105
 40
3.000000000000243
 50
29.72698827112102
 51
90.0
  0
LINE
  5
2DE
  8
DEFAULT
 10
2421.126629038074
 20
-177.9999999999997
 30
-0.0000000000000105
 11
2316.360009363294
 21
-177.9999999999999
 31
-0.0000000000000105
  0
ARC
  5
2DF
  8
DEFAULT
 10
2316.360009363293
 20
-189.9999999999987
 30
-0.0000000000000105
 40
11.99999999999872
 50
89.99999999999567
 51
150.6728312346259
  0
ARC
  5
2E0
  8
DEFAULT
 10
-2294.999999999999
 20
-177.9999999999989
 30
0.0000000000000105
 40
12.50000000000133
 50
209.3271687653798
 51
269.9999999999959
210
0.0
220
0.0
230
-1.0
  0
CIRCLE
  5
2E1
  8
DEFAULT
 10
-2153.457868718292
 20
4.999999999999545
 30
0.0000000000000105
 40
3.049999999999727
210
0.0
220
0.0
230
-1.0
  0
CIRCLE
  5
2E2
  8
DEFAULT
 10
-2153.457868718292
 20
-87.0
 30
0.0000000000000105
 40
3.049999999999727
210
0.0
220
0.0
230
-1.0
  0
CIRCLE
  5
2E3
  8
DEFAULT
 10
-2437.457868718292
 20
-87.0
 30
0.0000000000000105
 40
3.049999999999727
210
0.0
220
0.0
230
-1.0
  0
CIRCLE
  5
2E4
  8
DEFAULT
 10
-2437.457868718292
 20
5.000000000000455
 30
0.0000000000000105
 40
3.049999999999727
210
0.0
220
0.0
230
-1.0
  0
LINE
  5
2E5
  8
DEFAULT
 10
2447.999996444059
 20
-85.99999999999989
 30
-0.0000000000000105
 11
2447.999996444059
 21
4.0
 31
-0.0000000000000105
  0
ARC
  5
2E6
  8
DEFAULT
 10
2435.999996444059
 20
4.0
 30
-0.0000000000000105
 40
12.00000000000045
 50
0.0
 51
89.99999999999784
  0
LINE
  5
2E7
  8
DEFAULT
 10
2435.999996444059
 20
16.0
 30
-0.0000000000000105
 11
2153.999996444059
 21
16.0
 31
-0.0000000000000105
  0
ARC
  5
2E8
  8
DEFAULT
 10
2153.99999644406
 20
4.0
 30
-0.0000000000000105
 40
12.0
 50
90.00000000000217
 51
180.0
  0
LINE
  5
2E9
  8
DEFAULT
 10
2141.999996444059
 20
4.0
 30
-0.0000000000000105
 11
2141.999996444059
 21
-86.0
 31
-0.0000000000000105
  0
ARC
  5
2EA
  8
DEFAULT
 10
2153.999996444059
 20
-86.00000000000045
 30
-0.0000000000000105
 40
11.99999999999955
 50
179.9999999999978
 51
270.0000000000021
  0
LINE
  5
2EB
  8
DEFAULT
 10
2153.999996444059
 20
-98.0
 30
-0.0000000000000105
 11
2435.999996444059
 21
-98.0
 31
-0.0000000000000105
  0
ARC
  5
2EC
  8
DEFAULT
 10
2435.999996444059
 20
-85.99999999999919
 30
-0.0000000000000105
 40
12.00000000000081
 50
270.0000000000021
 51
359.9999999999967
  0
ARC
  5
2ED
  8
DEFAULT
 10
-2295.000000000001
 20
-46.9999999999978
 30
0.0000000000000105
 40
12.50000000000222
 50
270.0000000000041
 51
330.6728312346161
210
0.0
220
0.0
230
-1.0
  0
ARC
  5
2EE
  8
DEFAULT
 10
2273.639990636706
 20
-59.000000000002
 30
-0.0000000000000105
 40
12.00000000000153
 50
29.32716876538459
 51
89.99999999999784
  0
LINE
  5
2EF
  8
DEFAULT
 10
2273.639990636706
 20
-47.0
 30
-0.0000000000000105
 11
2168.873370961926
 21
-47.0
 31
-0.0000000000000105
  0
ARC
  5
2F0
  8
DEFAULT
 10
2168.873370961926
 20
-49.99999999999983
 30
-0.0000000000000105
 40
2.999999999999829
 50
90.0
 51
150.2730117288806
  0
ARC
  5
2F1
  8
DEFAULT
 10
-2163.619562819254
 20
-47.00000000000036
 30
0.0000000000000105
 40
3.050000000000067
 50
209.7269882711151
 51
0.0000000000045383
210
0.0
220
0.0
230
-1.0
  0
LINE
  5
2F2
  8
DEFAULT
 10
2160.569562819254
 20
-47.00000000000011
 30
-0.0000000000000105
 11
2160.569562819254
 21
-34.99999999999989
 31
-0.0000000000000105
  0
ARC
  5
2F3
  8
DEFAULT
 10
-2163.619562819254
 20
-35.00000000000068
 30
0.0000000000000105
 40
3.050000000000182
 50
0.0000000000149496
 51
150.2730117288796
210
0.0
220
0.0
230
-1.0
  0
ARC
  5
2F4
  8
DEFAULT
 10
2168.873370961925
 20
-32.00000000000179
 30
-0.0000000000000105
 40
2.999999999998495
 50
209.7269882711151
 51
270.0000000000086
  0
LINE
  5
2F5
  8
DEFAULT
 10
2168.873370961926
 20
-35.00000000000034
 30
-0.0000000000000105
 11
2273.639990636706
 21
-35.0
 31
-0.0000000000000105
  0
ARC
  5
2F6
  8
DEFAULT
 10
2273.639990636708
 20
-23.00000000000224
 30
-0.0000000000000105
 40
11.99999999999776
 50
269.9999999999935
 51
330.6728312346285
  0
ARC
  5
2F7
  8
DEFAULT
 10
-2295.0
 20
-35.00000000000011
 30
0.0000000000000105
 40
12.50000000000011
 50
29.32716876537837
 51
150.6728312346216
210
0.0
220
0.0
230
-1.0
  0
ARC
  5
2F8
  8
DEFAULT
 10
2316.360009363294
 20
-23.00000000000124
 30
-0.0000000000000105
 40
11.99999999999909
 50
209.3271687653727
 51
270.0000000000021
  0
LINE
  5
2F9
  8
DEFAULT
 10
2316.360009363294
 20
-34.99999999999994
 30
-0.0000000000000105
 11
2421.126629038074
 21
-35.00000000000002
 31
-0.0000000000000105
  0
ARC
  5
2FA
  8
DEFAULT
 10
2421.126629038074
 20
-31.99999999999768
 30
-0.0000000000000105
 40
3.000000000002345
 50
270.0000000000173
 51
330.2730117288436
  0
ARC
  5
2FB
  8
DEFAULT
 10
-2426.380437180746
 20
-34.99999999999939
 30
0.0000000000000105
 40
3.049999999999763
 50
29.7269882711051
 51
180.0000000000029
210
0.0
220
0.0
230
-1.0
  0
LINE
  5
2FC
  8
DEFAULT
 10
2429.430437180746
 20
-34.99999999999955
 30
-0.0000000000000105
 11
2429.430437180746
 21
-46.99999999999977
 31
-0.0000000000000105
  0
ARC
  5
2FD
  8
DEFAULT
 10
-2426.380437180746
 20
-47.00000000000005
 30
0.0000000000000105
 40
3.049999999999727
 50
179.9999999999948
 51
330.2730117288805
210
0.0
220
0.0
230
-1.0
  0
ARC
  5
2FE
  8
DEFAULT
 10
2421.126629038075
 20
-49.99999999999892
 30
-0.0000000000000105
 40
2.999999999999066
 50
29.72698827111667
 51
90.00000000001738
  0
LINE
  5
2FF
  8
DEFAULT
 10
2421.126629038074
 20
-46.99999999999968
 30
-0.0000000000000105
 11
2316.360009363294
 21
-46.99999999999994
 31
-0.0000000000000105
  0
ARC
  5
300
  8
DEFAULT
 10
2316.360009363294
 20
-58.99999999999941
 30
-0.0000000000000105
 40
11.99999999999947
 50
90.0
 51
150.6728312346247
  0
ARC
  5
301
  8
DEFAULT
 10
-2295.0
 20
-46.99999999999927
 30
0.0000000000000105
 40
12.50000000000074
 50
209.3271687653793
 51
269.9999999999979
210
0.0
220
0.0
230
-1.0
  0
ENDSEC
  0
EOF
