  0
SECTION
  2
HEADER
  9
$ACADVER
  1
AC1009
  9
$DWGCODEPAGE
  3
ansi_1252
  9
$INSBASE
 10
0.0
 20
0.0
 30
0.0
  9
$EXTMIN
 10
752.1800000000001
 20
-412.0
 30
-35.99757003784318
  9
$EXTMAX
 10
1375.0
 20
-137.0048713684058
 30
-35.99757003784318
  9
$LIMMIN
 10
0.0
 20
0.0
  9
$LIMMAX
 10
12.0
 20
9.0
  9
$ORTHOMODE
 70
     0
  9
$REGENMODE
 70
     1
  9
$FILLMODE
 70
     1
  9
$QTEXTMODE
 70
     0
  9
$MIRRTEXT
 70
     1
  9
$DRAGMODE
 70
     2
  9
$LTSCALE
 40
1.0
  9
$OSMODE
 70
    37
  9
$ATTMODE
 70
     1
  9
$TEXTSIZE
 40
0.2
  9
$TRACEWID
 40
0.05
  9
$TEXTSTYLE
  7
STANDARD
  9
$CLAYER
  8
DEFAULT
  9
$CELTYPE
  6
BYLAYER
  9
$CECOLOR
 62
   256
  9
$DIMSCALE
 40
1.0
  9
$DIMASZ
 40
0.18
  9
$DIMEXO
 40
0.0625
  9
$DIMDLI
 40
0.38
  9
$DIMRND
 40
0.0
  9
$DIMDLE
 40
0.0
  9
$DIMEXE
 40
0.18
  9
$DIMTP
 40
0.0
  9
$DIMTM
 40
0.0
  9
$DIMTXT
 40
0.18
  9
$DIMCEN
 40
0.09
  9
$DIMTSZ
 40
0.0
  9
$DIMTOL
 70
     0
  9
$DIMLIM
 70
     0
  9
$DIMTIH
 70
     1
  9
$DIMTOH
 70
     1
  9
$DIMSE1
 70
     0
  9
$DIMSE2
 70
     0
  9
$DIMTAD
 70
     0
  9
$DIMZIN
 70
     0
  9
$DIMBLK
  1

  9
$DIMASO
 70
     1
  9
$DIMSHO
 70
     1
  9
$DIMPOST
  1

  9
$DIMAPOST
  1

  9
$DIMALT
 70
     0
  9
$DIMALTD
 70
     2
  9
$DIMALTF
 40
25.4
  9
$DIMLFAC
 40
1.0
  9
$DIMTOFL
 70
     0
  9
$DIMTVP
 40
0.0
  9
$DIMTIX
 70
     0
  9
$DIMSOXD
 70
     0
  9
$DIMSAH
 70
     0
  9
$DIMBLK1
  1

  9
$DIMBLK2
  1

  9
$DIMSTYLE
  2
STANDARD_ACAD
  9
$DIMCLRD
 70
     0
  9
$DIMCLRE
 70
     0
  9
$DIMCLRT
 70
     0
  9
$DIMTFAC
 40
1.0
  9
$DIMGAP
 40
0.09
  9
$LUNITS
 70
     2
  9
$LUPREC
 70
     3
  9
$SKETCHINC
 40
0.1
  9
$FILLETRAD
 40
0.0
  9
$AUNITS
 70
     0
  9
$AUPREC
 70
     0
  9
$MENU
  1
.
  9
$ELEVATION
 40
0.0
  9
$PELEVATION
 40
0.0
  9
$THICKNESS
 40
0.0
  9
$LIMCHECK
 70
     0
  9
$CHAMFERA
 40
0.0
  9
$CHAMFERB
 40
0.0
  9
$SKPOLY
 70
     0
  9
$TDCREATE
 40
2461153.708968368
  9
$TDUPDATE
 40
2461153.708984514
  9
$TDINDWG
 40
0.0000000116
  9
$TDUSRTIMER
 40
0.0000000116
  9
$USRTIMER
 70
     1
  9
$ANGBASE
 50
0.0
  9
$ANGDIR
 70
     0
  9
$PDMODE
 70
     0
  9
$PDSIZE
 40
0.0
  9
$PLINEWID
 40
0.0
  9
$COORDS
 70
     1
  9
$SPLFRAME
 70
     0
  9
$SPLINETYPE
 70
     6
  9
$SPLINESEGS
 70
     8
  9
$ATTDIA
 70
     0
  9
$ATTREQ
 70
     1
  9
$HANDLING
 70
     1
  9
$HANDSEED
  5
1DA
  9
$SURFTAB1
 70
     6
  9
$SURFTAB2
 70
     6
  9
$SURFTYPE
 70
     6
  9
$SURFU
 70
     6
  9
$SURFV
 70
     6
  9
$UCSNAME
  2

  9
$UCSORG
 10
0.0
 20
0.0
 30
0.0
  9
$UCSXDIR
 10
1.0
 20
0.0
 30
0.0
  9
$UCSYDIR
 10
0.0
 20
1.0
 30
0.0
  9
$PUCSNAME
  2

  9
$PUCSORG
 10
0.0
 20
0.0
 30
0.0
  9
$PUCSXDIR
 10
1.0
 20
0.0
 30
0.0
  9
$PUCSYDIR
 10
0.0
 20
1.0
 30
0.0
  9
$USERI1
 70
     0
  9
$USERI2
 70
     0
  9
$USERI3
 70
     0
  9
$USERI4
 70
     0
  9
$USERI5
 70
     0
  9
$USERR1
 40
0.0
  9
$USERR2
 40
0.0
  9
$USERR3
 40
0.0
  9
$USERR4
 40
0.0
  9
$USERR5
 40
0.0
  9
$WORLDVIEW
 70
     1
  9
$SHADEDGE
 70
     3
  9
$SHADEDIF
 70
    70
  9
$TILEMODE
 70
     1
  9
$MAXACTVP
 70
    64
  9
$PLIMCHECK
 70
     0
  9
$PEXTMIN
 10
1.000000000000000E+20
 20
1.000000000000000E+20
 30
1.000000000000000E+20
  9
$PEXTMAX
 10
-1.000000000000000E+20
 20
-1.000000000000000E+20
 30
-1.000000000000000E+20
  9
$PLIMMIN
 10
0.0
 20
0.0
  9
$PLIMMAX
 10
12.0
 20
9.0
  9
$UNITMODE
 70
     0
  9
$VISRETAIN
 70
     1
  9
$PLINEGEN
 70
     0
  9
$PSLTSCALE
 70
     1
  0
ENDSEC
  0
SECTION
  2
TABLES
  0
TABLE
  2
VPORT
 70
     1
  0
VPORT
  2
*ACTIVE
 70
     0
 10
0.0
 20
0.0
 11
1.0
 21
1.0
 12
10.42990654205607
 22
4.5
 13
0.0
 23
0.0
 14
0.5
 24
0.5
 15
0.5
 25
0.5
 16
0.0
 26
0.0
 36
1.0
 17
0.0
 27
0.0
 37
0.0
 40
9.0
 41
1.972972972850329
 42
50.0
 43
0.0
 44
0.0
 50
0.0
 51
0.0
 71
     0
 72
   100
 73
     1
 74
     3
 75
     0
 76
     0
 77
     0
 78
     0
  0
ENDTAB
  0
TABLE
  2
LTYPE
 70
     1
  0
LTYPE
  2
CONTINUOUS
 70
     0
  3
Solid line
 72
    65
 73
     0
 40
0.0
  0
ENDTAB
  0
TABLE
  2
LAYER
 70
     2
  0
LAYER
  2
0
 70
     0
 62
     7
  6
CONTINUOUS
  0
LAYER
  2
DEFAULT
 70
     0
 62
     7
  6
CONTINUOUS
  0
ENDTAB
  0
TABLE
  2
STYLE
 70
     1
  0
STYLE
  2
STANDARD
 70
     0
 40
0.0
 41
1.0
 50
0.0
 71
     0
 42
0.2
  3
txt
  4

  0
ENDTAB
  0
TABLE
  2
VIEW
 70
     0
  0
ENDTAB
  0
TABLE
  2
UCS
 70
     0
  0
ENDTAB
  0
TABLE
  2
APPID
 70
     2
  0
APPID
  2
ACAD
 70
     0
  0
APPID
  2
RHINO
 70
     0
  0
ENDTAB
  0
TABLE
  2
DIMSTYLE
 70
     1
  0
DIMSTYLE
  2
STANDARD_ACAD
 70
     0
  3

  4

  5

  6

  7

 40
1.0
 41
0.18
 42
0.0625
 43
0.38
 44
0.18
 45
0.0
 46
0.0
 47
0.0
 48
0.0
140
0.18
141
0.09
142
0.0
143
25.4
144
1.0
145
0.0
146
1.0
147
0.09
 71
     0
 72
     0
 73
     1
 74
     1
 75
     0
 76
     0
 77
     0
 78
     0
170
     0
171
     2
172
     0
173
     0
174
     0
175
     0
176
     0
177
     0
178
     0
  0
ENDTAB
  0
ENDSEC
  0
SECTION
  2
BLOCKS
  0
BLOCK
  8
0
  2
$MODEL_SPACE
 70
     0
 10
0.0
 20
0.0
 30
0.0
  3
$MODEL_SPACE
  1

  0
ENDBLK
  5
21
  8
0
  0
BLOCK
 67
     1
  8
0
  2
$PAPER_SPACE
 70
     0
 10
0.0
 20
0.0
 30
0.0
  3
$PAPER_SPACE
  1

  0
ENDBLK
  5
1D
 67
     1
  8
0
  0
ENDSEC
  0
SECTION
  2
ENTITIES
  0
POLYLINE
  5
60
  8
DEFAULT
 66
     1
 10
0.0
 20
0.0
 30
-35.99757003784318
 70
     1
  0
VERTEX
  5
61
  8
DEFAULT
 10
1208.666152857654
 20
-275.3718940993911
 30
-35.99757003784318
 42
-0.5178108697219431
  0
VERTEX
  5
62
  8
DEFAULT
 10
1209.999999999898
 20
-276.3145213245523
 30
-35.99757003784318
  0
VERTEX
  5
63
  8
DEFAULT
 10
1209.999999999899
 20
-283.7698588501021
 30
-35.99757003784318
  0
VERTEX
  5
64
  8
DEFAULT
 10
1215.999999999899
 20
-283.7698588501019
 30
-35.99757003784318
  0
VERTEX
  5
65
  8
DEFAULT
 10
1215.999999999899
 20
-298.2476967857503
 30
-35.99757003784318
  0
VERTEX
  5
66
  8
DEFAULT
 10
1209.999999999899
 20
-298.2476967857506
 30
-35.99757003784318
  0
VERTEX
  5
67
  8
DEFAULT
 10
1209.999999999899
 20
-303.680624235232
 30
-35.99757003784318
 42
-0.4142135623725917
  0
VERTEX
  5
68
  8
DEFAULT
 10
1208.999999999899
 20
-304.680624235232
 30
-35.99757003784318
  0
VERTEX
  5
69
  8
DEFAULT
 10
1144.000000000101
 20
-304.6806242352329
 30
-35.99757003784318
  0
VERTEX
  5
6A
  8
DEFAULT
 10
1144.000000000101
 20
-299.8994904693909
 30
-35.99757003784318
  0
VERTEX
  5
6B
  8
DEFAULT
 10
1179.999999999899
 20
-299.8994904693902
 30
-35.99757003784318
  0
VERTEX
  5
6C
  8
DEFAULT
 10
1179.999999999899
 20
-293.8994899031798
 30
-35.99757003784318
  0
VERTEX
  5
6D
  8
DEFAULT
 10
1155.999999999899
 20
-293.8994899031802
 30
-35.99757003784318
  0
VERTEX
  5
6E
  8
DEFAULT
 10
1155.999999999899
 20
-292.6061879912197
 30
-35.99757003784318
 42
-0.3176872296120904
  0
VERTEX
  5
6F
  8
DEFAULT
 10
1156.666152857654
 20
-291.6635607660585
 30
-35.99757003784318
  0
VERTEX
  5
70
  8
DEFAULT
 10
1194.002427220107
 20
-278.440296929356
 30
-35.99757003784318
  0
VERTEX
  5
71
  8
DEFAULT
 10
1200.002427220107
 20
-278.4402969293558
 30
-35.99757003784318
  0
SEQEND
  5
72
  8
DEFAULT
  0
POLYLINE
  5
73
  8
DEFAULT
 66
     1
 10
0.0
 20
0.0
 30
-35.99757003784318
 70
     1
  0
VERTEX
  5
74
  8
DEFAULT
 10
1323.990792253629
 20
-209.0
 30
-35.99757003784318
  0
VERTEX
  5
75
  8
DEFAULT
 10
1257.990786531583
 20
-187.0000000000001
 30
-35.99757003784318
  0
VERTEX
  5
76
  8
DEFAULT
 10
1257.990786531583
 20
-175.0000000000001
 30
-35.99757003784318
  0
VERTEX
  5
77
  8
DEFAULT
 10
1251.990786531583
 20
-175.0000000000001
 30
-35.99757003784318
  0
VERTEX
  5
78
  8
DEFAULT
 10
1251.990786531583
 20
-155.0048713684059
 30
-35.99757003784318
  0
VERTEX
  5
79
  8
DEFAULT
 10
1257.990786531583
 20
-155.0048713684059
 30
-35.99757003784318
  0
VERTEX
  5
7A
  8
DEFAULT
 10
1257.990786531583
 20
-143.0048713684058
 30
-35.99757003784318
  0
VERTEX
  5
7B
  8
DEFAULT
 10
1273.483828780022
 20
-143.0048713684059
 30
-35.99757003784318
  0
VERTEX
  5
7C
  8
DEFAULT
 10
1273.483828780022
 20
-137.0048713684058
 30
-35.99757003784318
  0
VERTEX
  5
7D
  8
DEFAULT
 10
1308.49775000519
 20
-137.0048713684058
 30
-35.99757003784318
  0
VERTEX
  5
7E
  8
DEFAULT
 10
1308.49775000519
 20
-143.0048713684058
 30
-35.99757003784318
  0
VERTEX
  5
7F
  8
DEFAULT
 10
1323.990792253629
 20
-143.0048713684058
 30
-35.99757003784318
  0
VERTEX
  5
80
  8
DEFAULT
 10
1323.990792253629
 20
-163.0048713684058
 30
-35.99757003784318
  0
VERTEX
  5
81
  8
DEFAULT
 10
1329.990792253629
 20
-163.0048713684058
 30
-35.99757003784318
  0
VERTEX
  5
82
  8
DEFAULT
 10
1329.990792253629
 20
-189.0
 30
-35.99757003784318
  0
VERTEX
  5
83
  8
DEFAULT
 10
1323.990792253629
 20
-189.0
 30
-35.99757003784318
  0
SEQEND
  5
84
  8
DEFAULT
  0
POLYLINE
  5
85
  8
DEFAULT
 66
     1
 10
0.0
 20
0.0
 30
-35.99757003784318
 70
     1
  0
VERTEX
  5
86
  8
DEFAULT
 10
1257.999997138977
 20
-260.0
 30
-35.99757003784318
  0
VERTEX
  5
87
  8
DEFAULT
 10
1273.493039387416
 20
-260.0
 30
-35.99757003784318
  0
VERTEX
  5
88
  8
DEFAULT
 10
1273.493039387416
 20
-266.0000000000001
 30
-35.99757003784318
  0
VERTEX
  5
89
  8
DEFAULT
 10
1308.506960612584
 20
-266.0000000000001
 30
-35.99757003784318
  0
VERTEX
  5
8A
  8
DEFAULT
 10
1308.506960612584
 20
-260.0
 30
-35.99757003784318
  0
VERTEX
  5
8B
  8
DEFAULT
 10
1324.000002861023
 20
-260.0
 30
-35.99757003784318
  0
VERTEX
  5
8C
  8
DEFAULT
 10
1324.000002861023
 20
-248.0
 30
-35.99757003784318
  0
VERTEX
  5
8D
  8
DEFAULT
 10
1330.000002861023
 20
-248.0
 30
-35.99757003784318
  0
VERTEX
  5
8E
  8
DEFAULT
 10
1330.000002861023
 20
-228.0048713684058
 30
-35.99757003784318
  0
VERTEX
  5
8F
  8
DEFAULT
 10
1324.000002861023
 20
-228.0048713684058
 30
-35.99757003784318
  0
VERTEX
  5
90
  8
DEFAULT
 10
1324.000002861023
 20
-216.0048713684058
 30
-35.99757003784318
  0
VERTEX
  5
91
  8
DEFAULT
 10
1257.999997138977
 20
-194.0048713684058
 30
-35.99757003784318
  0
VERTEX
  5
92
  8
DEFAULT
 10
1257.999997138977
 20
-214.0048713684058
 30
-35.99757003784318
  0
VERTEX
  5
93
  8
DEFAULT
 10
1251.999997138977
 20
-214.0048713684058
 30
-35.99757003784318
  0
VERTEX
  5
94
  8
DEFAULT
 10
1251.999997138977
 20
-240.0
 30
-35.99757003784318
  0
VERTEX
  5
95
  8
DEFAULT
 10
1257.999997138977
 20
-240.0
 30
-35.99757003784318
  0
SEQEND
  5
96
  8
DEFAULT
  0
POLYLINE
  5
97
  8
DEFAULT
 66
     1
 10
0.0
 20
0.0
 30
-35.99757003784318
 70
     1
  0
VERTEX
  5
98
  8
DEFAULT
 10
1255.0
 20
-334.5045220673582
 30
-35.99757003784318
  0
VERTEX
  5
99
  8
DEFAULT
 10
1255.0
 20
-349.997564315797
 30
-35.99757003784318
  0
VERTEX
  5
9A
  8
DEFAULT
 10
1289.0
 20
-349.9975643157971
 30
-35.99757003784318
  0
VERTEX
  5
9B
  8
DEFAULT
 10
1289.0
 20
-355.9975643157971
 30
-35.99757003784318
  0
VERTEX
  5
9C
  8
DEFAULT
 10
1339.0
 20
-355.9975643157971
 30
-35.99757003784318
  0
VERTEX
  5
9D
  8
DEFAULT
 10
1339.0
 20
-349.9975643157971
 30
-35.99757003784318
  0
VERTEX
  5
9E
  8
DEFAULT
 10
1373.0
 20
-349.9975643157971
 30
-35.99757003784318
  0
VERTEX
  5
9F
  8
DEFAULT
 10
1373.0
 20
-334.5045220673583
 30
-35.99757003784318
  0
VERTEX
  5
A0
  8
DEFAULT
 10
1367.0
 20
-334.5045220673582
 30
-35.99757003784318
  0
VERTEX
  5
A1
  8
DEFAULT
 10
1367.0
 20
-299.4906008421899
 30
-35.99757003784318
  0
VERTEX
  5
A2
  8
DEFAULT
 10
1373.0
 20
-299.4906008421899
 30
-35.99757003784318
  0
VERTEX
  5
A3
  8
DEFAULT
 10
1373.0
 20
-283.9975585937511
 30
-35.99757003784318
  0
VERTEX
  5
A4
  8
DEFAULT
 10
1364.0
 20
-283.9975585937511
 30
-35.99757003784318
  0
VERTEX
  5
A5
  8
DEFAULT
 10
1364.0
 20
-278.002435684203
 30
-35.99757003784318
  0
VERTEX
  5
A6
  8
DEFAULT
 10
1332.400789392605
 20
-278.002435684203
 30
-35.99757003784318
  0
VERTEX
  5
A7
  8
DEFAULT
 10
1332.400789392605
 20
-283.9975585937511
 30
-35.99757003784318
  0
VERTEX
  5
A8
  8
DEFAULT
 10
1295.59
 20
-283.9975585937511
 30
-35.99757003784318
  0
VERTEX
  5
A9
  8
DEFAULT
 10
1295.59
 20
-278.002435684203
 30
-35.99757003784318
  0
VERTEX
  5
AA
  8
DEFAULT
 10
1264.0
 20
-278.002435684203
 30
-35.99757003784318
  0
VERTEX
  5
AB
  8
DEFAULT
 10
1264.0
 20
-283.9975585937511
 30
-35.99757003784318
  0
VERTEX
  5
AC
  8
DEFAULT
 10
1255.0
 20
-283.9975585937511
 30
-35.99757003784318
  0
VERTEX
  5
AD
  8
DEFAULT
 10
1255.0
 20
-299.49060084219
 30
-35.99757003784318
  0
VERTEX
  5
AE
  8
DEFAULT
 10
1260.990789392605
 20
-299.4906008421899
 30
-35.99757003784318
  0
VERTEX
  5
AF
  8
DEFAULT
 10
1260.990789392605
 20
-334.5045220673582
 30
-35.99757003784318
  0
SEQEND
  5
B0
  8
DEFAULT
  0
CIRCLE
  5
B1
  8
DEFAULT
 10
1359.0
 20
-384.002435684203
 30
-35.99757003784318
 40
1.5
  0
CIRCLE
  5
B2
  8
DEFAULT
 10
1273.0
 20
-384.002435684203
 30
-35.99757003784318
 40
1.5
  0
POLYLINE
  5
B3
  8
DEFAULT
 66
     1
 10
0.0
 20
0.0
 30
-35.99757003784318
 70
     1
  0
VERTEX
  5
B4
  8
DEFAULT
 10
1262.990789392606
 20
-394.0
 30
-35.99757003784318
  0
VERTEX
  5
B5
  8
DEFAULT
 10
1262.990789392606
 20
-374.0048713684058
 30
-35.99757003784318
  0
VERTEX
  5
B6
  8
DEFAULT
 10
1257.0
 20
-374.0048713684058
 30
-35.99757003784318
  0
VERTEX
  5
B7
  8
DEFAULT
 10
1257.0
 20
-362.0
 30
-35.99757003784318
  0
VERTEX
  5
B8
  8
DEFAULT
 10
1375.0
 20
-362.0
 30
-35.99757003784318
  0
VERTEX
  5
B9
  8
DEFAULT
 10
1375.0
 20
-374.0048713684058
 30
-35.99757003784318
  0
VERTEX
  5
BA
  8
DEFAULT
 10
1369.0
 20
-374.0048713684058
 30
-35.99757003784318
  0
VERTEX
  5
BB
  8
DEFAULT
 10
1369.0
 20
-394.0
 30
-35.99757003784318
  0
VERTEX
  5
BC
  8
DEFAULT
 10
1375.0
 20
-394.0
 30
-35.99757003784318
  0
VERTEX
  5
BD
  8
DEFAULT
 10
1375.0
 20
-412.0
 30
-35.99757003784318
  0
VERTEX
  5
BE
  8
DEFAULT
 10
1341.0
 20
-412.0
 30
-35.99757003784318
  0
VERTEX
  5
BF
  8
DEFAULT
 10
1341.0
 20
-406.0
 30
-35.99757003784318
  0
VERTEX
  5
C0
  8
DEFAULT
 10
1291.0
 20
-406.0
 30
-35.99757003784318
  0
VERTEX
  5
C1
  8
DEFAULT
 10
1291.0
 20
-412.0
 30
-35.99757003784318
  0
VERTEX
  5
C2
  8
DEFAULT
 10
1257.0
 20
-412.0
 30
-35.99757003784318
  0
VERTEX
  5
C3
  8
DEFAULT
 10
1257.0
 20
-394.0
 30
-35.99757003784318
  0
SEQEND
  5
C4
  8
DEFAULT
  0
POLYLINE
  5
C5
  8
DEFAULT
 66
     1
 10
0.0
 20
0.0
 30
-35.99757003784318
 70
     1
  0
VERTEX
  5
C6
  8
DEFAULT
 10
1121.500000246106
 20
-243.9975727799771
 30
-35.99757003784318
  0
VERTEX
  5
C7
  8
DEFAULT
 10
1125.848206882571
 20
-243.9975727799771
 30
-35.99757003784318
  0
VERTEX
  5
C8
  8
DEFAULT
 10
1125.848206882571
 20
-249.9975727797913
 30
-35.99757003784318
  0
VERTEX
  5
C9
  8
DEFAULT
 10
1111.370368946923
 20
-249.9975727797913
 30
-35.99757003784318
  0
VERTEX
  5
CA
  8
DEFAULT
 10
1111.370368946923
 20
-243.9975727797913
 30
-35.99757003784318
  0
VERTEX
  5
CB
  8
DEFAULT
 10
1096.5
 20
-243.9975727797913
 30
-35.99757003784318
  0
VERTEX
  5
CC
  8
DEFAULT
 10
1096.5
 20
-215.9927183395594
 30
-35.99757003784318
  0
VERTEX
  5
CD
  8
DEFAULT
 10
1102.5
 20
-215.9927183395594
 30
-35.99757003784318
  0
VERTEX
  5
CE
  8
DEFAULT
 10
1102.5
 20
-180.0024272202088
 30
-35.99757003784318
  0
VERTEX
  5
CF
  8
DEFAULT
 10
1096.5
 20
-180.0024272202088
 30
-35.99757003784318
  0
VERTEX
  5
D0
  8
DEFAULT
 10
1096.5
 20
-157.997572779977
 30
-35.99757003784318
  0
VERTEX
  5
D1
  8
DEFAULT
 10
1121.5
 20
-157.997572779977
 30
-35.99757003784318
  0
VERTEX
  5
D2
  8
DEFAULT
 10
1121.5
 20
-177.9975727799936
 30
-35.99757003784318
  0
VERTEX
  5
D3
  8
DEFAULT
 10
1127.5
 20
-177.9975727799936
 30
-35.99757003784318
  0
VERTEX
  5
D4
  8
DEFAULT
 10
1127.5
 20
-217.9975727797913
 30
-35.99757003784318
  0
VERTEX
  5
D5
  8
DEFAULT
 10
1121.5
 20
-217.9975727797912
 30
-35.99757003784318
  0
VERTEX
  5
D6
  8
DEFAULT
 10
1121.5
 20
-234.0000000000001
 30
-35.99757003784318
  0
SEQEND
  5
D7
  8
DEFAULT
  0
POLYLINE
  5
D8
  8
DEFAULT
 66
     1
 10
0.0
 20
0.0
 30
-35.99757003784318
 70
     1
  0
VERTEX
  5
D9
  8
DEFAULT
 10
1171.109433665932
 20
-243.9975727799771
 30
-35.99757003784318
  0
VERTEX
  5
DA
  8
DEFAULT
 10
1171.109432833974
 20
-234.0000000000001
 30
-35.99757003784318
  0
VERTEX
  5
DB
  8
DEFAULT
 10
1171.109432833974
 20
-217.9975727797912
 30
-35.99757003784318
  0
VERTEX
  5
DC
  8
DEFAULT
 10
1181.890567166026
 20
-217.9975727797913
 30
-35.99757003784318
  0
VERTEX
  5
DD
  8
DEFAULT
 10
1181.890567166026
 20
-177.9975727799936
 30
-35.99757003784318
  0
VERTEX
  5
DE
  8
DEFAULT
 10
1171.109432833974
 20
-177.9975727799936
 30
-35.99757003784318
  0
VERTEX
  5
DF
  8
DEFAULT
 10
1171.109432833974
 20
-157.997572779977
 30
-35.99757003784318
  0
VERTEX
  5
E0
  8
DEFAULT
 10
1146.109432833974
 20
-157.997572779977
 30
-35.99757003784318
  0
VERTEX
  5
E1
  8
DEFAULT
 10
1146.109432833974
 20
-180.0024272202088
 30
-35.99757003784318
  0
VERTEX
  5
E2
  8
DEFAULT
 10
1152.109432833974
 20
-180.0024272202088
 30
-35.99757003784318
  0
VERTEX
  5
E3
  8
DEFAULT
 10
1152.109432833974
 20
-215.9927183395594
 30
-35.99757003784318
  0
VERTEX
  5
E4
  8
DEFAULT
 10
1146.109432833974
 20
-215.9927183395594
 30
-35.99757003784318
  0
VERTEX
  5
E5
  8
DEFAULT
 10
1146.109432833974
 20
-243.9975727797913
 30
-35.99757003784318
  0
VERTEX
  5
E6
  8
DEFAULT
 10
1160.979801780896
 20
-243.9975727797913
 30
-35.99757003784318
  0
VERTEX
  5
E7
  8
DEFAULT
 10
1160.979801780896
 20
-249.9975727797913
 30
-35.99757003784318
  0
VERTEX
  5
E8
  8
DEFAULT
 10
1175.457639716545
 20
-249.9975727797913
 30
-35.99757003784318
  0
VERTEX
  5
E9
  8
DEFAULT
 10
1175.457639716545
 20
-243.9975727799771
 30
-35.99757003784318
  0
SEQEND
  5
EA
  8
DEFAULT
  0
POLYLINE
  5
EB
  8
DEFAULT
 66
     1
 10
0.0
 20
0.0
 30
-35.99757003784318
 70
     1
  0
VERTEX
  5
EC
  8
DEFAULT
 10
1225.500000061526
 20
-243.9975727799771
 30
-35.99757003784318
  0
VERTEX
  5
ED
  8
DEFAULT
 10
1225.5
 20
-217.9975727797912
 30
-35.99757003784318
  0
VERTEX
  5
EE
  8
DEFAULT
 10
1231.5
 20
-217.9975727797912
 30
-35.99757003784318
  0
VERTEX
  5
EF
  8
DEFAULT
 10
1231.5
 20
-177.9975727799936
 30
-35.99757003784318
  0
VERTEX
  5
F0
  8
DEFAULT
 10
1225.5
 20
-177.9975727799936
 30
-35.99757003784318
  0
VERTEX
  5
F1
  8
DEFAULT
 10
1225.5
 20
-157.997572779977
 30
-35.99757003784318
  0
VERTEX
  5
F2
  8
DEFAULT
 10
1200.5
 20
-157.997572779977
 30
-35.99757003784318
  0
VERTEX
  5
F3
  8
DEFAULT
 10
1200.5
 20
-180.0024272202088
 30
-35.99757003784318
  0
VERTEX
  5
F4
  8
DEFAULT
 10
1206.5
 20
-180.0024272202088
 30
-35.99757003784318
  0
VERTEX
  5
F5
  8
DEFAULT
 10
1206.5
 20
-215.9927183395594
 30
-35.99757003784318
  0
VERTEX
  5
F6
  8
DEFAULT
 10
1200.5
 20
-215.9927183395594
 30
-35.99757003784318
  0
VERTEX
  5
F7
  8
DEFAULT
 10
1200.5
 20
-243.9975727797913
 30
-35.99757003784318
  0
VERTEX
  5
F8
  8
DEFAULT
 10
1215.370368946923
 20
-243.9975727797913
 30
-35.99757003784318
  0
VERTEX
  5
F9
  8
DEFAULT
 10
1215.370368946923
 20
-249.9975727797913
 30
-35.99757003784318
  0
VERTEX
  5
FA
  8
DEFAULT
 10
1229.848206882571
 20
-249.9975727797913
 30
-35.99757003784318
  0
VERTEX
  5
FB
  8
DEFAULT
 10
1229.848206882571
 20
-243.9975727799771
 30
-35.99757003784318
  0
SEQEND
  5
FC
  8
DEFAULT
  0
POLYLINE
  5
FD
  8
DEFAULT
 66
     1
 10
0.0
 20
0.0
 30
-35.99757003784318
 70
     1
  0
VERTEX
  5
FE
  8
DEFAULT
 10
1185.0
 20
-375.9975727797913
 30
-35.99757003784318
  0
VERTEX
  5
FF
  8
DEFAULT
 10
1185.0
 20
-404.9975727195949
 30
-35.99757003784318
 42
0.414213549864863
  0
VERTEX
  5
100
  8
DEFAULT
 10
1186.0
 20
-405.9975727799769
 30
-35.99757003784318
  0
VERTEX
  5
101
  8
DEFAULT
 10
1204.0
 20
-405.9975727799771
 30
-35.99757003784318
  0
VERTEX
  5
102
  8
DEFAULT
 10
1204.0
 20
-411.9975727799771
 30
-35.99757003784318
  0
VERTEX
  5
103
  8
DEFAULT
 10
1228.556759937752
 20
-411.9975727799771
 30
-35.99757003784318
  0
VERTEX
  5
104
  8
DEFAULT
 10
1228.556759937752
 20
-405.9975727799771
 30
-35.99757003784318
  0
VERTEX
  5
105
  8
DEFAULT
 10
1239.0
 20
-405.9975727799771
 30
-35.99757003784318
 42
0.4142133368331797
  0
VERTEX
  5
106
  8
DEFAULT
 10
1247.0
 20
-397.9975640679508
 30
-35.99757003784318
  0
VERTEX
  5
107
  8
DEFAULT
 10
1247.0
 20
-383.185645966519
 30
-35.99757003784318
 42
0.149537020168454
  0
VERTEX
  5
108
  8
DEFAULT
 10
1245.630789392605
 20
-378.7098533616144
 30
-35.99757003784318
  0
VERTEX
  5
109
  8
DEFAULT
 10
1208.378846582994
 20
-323.5217899399685
 30
-35.99757003784318
 42
0.2492383259116945
  0
VERTEX
  5
10A
  8
DEFAULT
 10
1201.748057190389
 20
-319.9975727799769
 30
-35.99757003784318
  0
VERTEX
  5
10B
  8
DEFAULT
 10
1162.251942809611
 20
-319.997572779977
 30
-35.99757003784318
 42
0.2492383259117144
  0
VERTEX
  5
10C
  8
DEFAULT
 10
1155.621153417006
 20
-323.5217899399685
 30
-35.99757003784318
  0
VERTEX
  5
10D
  8
DEFAULT
 10
1118.369210607395
 20
-378.7098533616143
 30
-35.99757003784318
 42
0.1495370201684548
  0
VERTEX
  5
10E
  8
DEFAULT
 10
1117.0
 20
-383.1856459665188
 30
-35.99757003784318
  0
VERTEX
  5
10F
  8
DEFAULT
 10
1117.0
 20
-397.9975640679508
 30
-35.99757003784318
 42
0.4142133368331365
  0
VERTEX
  5
110
  8
DEFAULT
 10
1125.0
 20
-405.997572779977
 30
-35.99757003784318
  0
VERTEX
  5
111
  8
DEFAULT
 10
1135.443240062248
 20
-405.9975727799771
 30
-35.99757003784318
  0
VERTEX
  5
112
  8
DEFAULT
 10
1135.443240062248
 20
-411.9975727799771
 30
-35.99757003784318
  0
VERTEX
  5
113
  8
DEFAULT
 10
1160.0
 20
-411.9975727799771
 30
-35.99757003784318
  0
VERTEX
  5
114
  8
DEFAULT
 10
1160.0
 20
-405.9975727799771
 30
-35.99757003784318
  0
VERTEX
  5
115
  8
DEFAULT
 10
1178.0
 20
-405.9975727799771
 30
-35.99757003784318
 42
0.4142135498646464
  0
VERTEX
  5
116
  8
DEFAULT
 10
1179.0
 20
-404.9975727195927
 30
-35.99757003784318
  0
VERTEX
  5
117
  8
DEFAULT
 10
1179.0
 20
-375.9975727797913
 30
-35.99757003784318
  0
SEQEND
  5
118
  8
DEFAULT
  0
CIRCLE
  5
119
  8
DEFAULT
 10
-1196.0
 20
-329.9975727799768
 30
35.99757003784318
 40
2.400000000000091
210
0.0
220
0.0
230
-1.0
  0
CIRCLE
  5
11A
  8
DEFAULT
 10
-1168.0
 20
-329.9975727799772
 30
35.99757003784318
 40
2.400000000000091
210
0.0
220
0.0
230
-1.0
  0
POLYLINE
  5
11B
  8
DEFAULT
 66
     1
 10
0.0
 20
0.0
 30
-35.99757003784318
 70
     1
  0
VERTEX
  5
11C
  8
DEFAULT
 10
1020.0
 20
-175.9975727799936
 30
-35.99757003784318
  0
VERTEX
  5
11D
  8
DEFAULT
 10
1020.0
 20
-215.9975727797912
 30
-35.99757003784318
  0
VERTEX
  5
11E
  8
DEFAULT
 10
1014.0
 20
-215.9975727797913
 30
-35.99757003784318
  0
VERTEX
  5
11F
  8
DEFAULT
 10
1014.0
 20
-175.9975727799936
 30
-35.99757003784318
  0
SEQEND
  5
120
  8
DEFAULT
  0
POLYLINE
  5
121
  8
DEFAULT
 66
     1
 10
0.0
 20
0.0
 30
-35.99757003784318
 70
     1
  0
VERTEX
  5
122
  8
DEFAULT
 10
1072.0
 20
-175.9975727799936
 30
-35.99757003784318
  0
VERTEX
  5
123
  8
DEFAULT
 10
1072.0
 20
-215.9975727797912
 30
-35.99757003784318
  0
VERTEX
  5
124
  8
DEFAULT
 10
1066.0
 20
-215.9975727797913
 30
-35.99757003784318
  0
VERTEX
  5
125
  8
DEFAULT
 10
1066.0
 20
-175.9975727799936
 30
-35.99757003784318
  0
SEQEND
  5
126
  8
DEFAULT
  0
POLYLINE
  5
127
  8
DEFAULT
 66
     1
 10
0.0
 20
0.0
 30
-35.99757003784318
 70
     1
  0
VERTEX
  5
128
  8
DEFAULT
 10
968.0
 20
-175.9975727799936
 30
-35.99757003784318
  0
VERTEX
  5
129
  8
DEFAULT
 10
962.0
 20
-175.9975727799936
 30
-35.99757003784318
  0
VERTEX
  5
12A
  8
DEFAULT
 10
962.0
 20
-215.9975727797912
 30
-35.99757003784318
  0
VERTEX
  5
12B
  8
DEFAULT
 10
968.0
 20
-215.9975727797913
 30
-35.99757003784318
  0
SEQEND
  5
12C
  8
DEFAULT
  0
POLYLINE
  5
12D
  8
DEFAULT
 66
     1
 10
0.0
 20
0.0
 30
-35.99757003784318
 70
     1
  0
VERTEX
  5
12E
  8
DEFAULT
 10
1082.0
 20
-160.9975727799768
 30
-35.99757003784318
 42
0.4142135623730733
  0
VERTEX
  5
12F
  8
DEFAULT
 10
1077.0
 20
-155.9975727799765
 30
-35.99757003784318
  0
VERTEX
  5
130
  8
DEFAULT
 10
957.0
 20
-155.9975727799772
 30
-35.99757003784318
 42
0.4142135623730692
  0
VERTEX
  5
131
  8
DEFAULT
 10
952.0000000000001
 20
-160.9975727799773
 30
-35.99757003784318
  0
VERTEX
  5
132
  8
DEFAULT
 10
952.0
 20
-233.9975631213917
 30
-35.99757003784318
 42
0.414213312328314
  0
VERTEX
  5
133
  8
DEFAULT
 10
960.0
 20
-241.9975727799769
 30
-35.99757003784318
  0
VERTEX
  5
134
  8
DEFAULT
 10
970.4432400622477
 20
-241.9975727799771
 30
-35.99757003784318
  0
VERTEX
  5
135
  8
DEFAULT
 10
970.4432400622477
 20
-247.9975727799771
 30
-35.99757003784318
  0
VERTEX
  5
136
  8
DEFAULT
 10
995.0
 20
-247.9975727799771
 30
-35.99757003784318
  0
VERTEX
  5
137
  8
DEFAULT
 10
995.0
 20
-241.9975727799771
 30
-35.99757003784318
  0
VERTEX
  5
138
  8
DEFAULT
 10
1039.0
 20
-241.9975727799771
 30
-35.99757003784318
  0
VERTEX
  5
139
  8
DEFAULT
 10
1039.0
 20
-247.9975727799771
 30
-35.99757003784318
  0
VERTEX
  5
13A
  8
DEFAULT
 10
1063.556759937752
 20
-247.9975727799771
 30
-35.99757003784318
  0
VERTEX
  5
13B
  8
DEFAULT
 10
1063.556759937752
 20
-241.9975727799771
 30
-35.99757003784318
  0
VERTEX
  5
13C
  8
DEFAULT
 10
1074.0
 20
-241.9975727799771
 30
-35.99757003784318
 42
0.4142133123283339
  0
VERTEX
  5
13D
  8
DEFAULT
 10
1082.0
 20
-233.9975631213917
 30
-35.99757003784318
  0
SEQEND
  5
13E
  8
DEFAULT
  0
CIRCLE
  5
13F
  8
DEFAULT
 10
1003.0
 20
-165.9975727799769
 30
-35.99757003784318
 40
2.400000000000091
  0
CIRCLE
  5
140
  8
DEFAULT
 10
1031.0
 20
-165.997572779977
 30
-35.99757003784318
 40
2.400000000000318
  0
CIRCLE
  5
141
  8
DEFAULT
 10
1090.656854249492
 20
-400.6592842116495
 30
-35.99757003784318
 40
2.500000000000114
  0
CIRCLE
  5
142
  8
DEFAULT
 10
963.3431457505078
 20
-400.6592842116493
 30
-35.99757003784318
 40
2.5
  0
CIRCLE
  5
143
  8
DEFAULT
 10
963.3431457505079
 20
-275.3455757126646
 30
-35.99757003784318
 40
2.499999999999886
  0
CIRCLE
  5
144
  8
DEFAULT
 10
1090.656854249492
 20
-275.3455757126645
 30
-35.99757003784318
 40
2.500000000000057
  0
POLYLINE
  5
145
  8
DEFAULT
 66
     1
 10
0.0
 20
0.0
 30
-35.99757003784318
 70
     1
  0
VERTEX
  5
146
  8
DEFAULT
 10
1093.0
 20
-265.002429962157
 30
-35.99757003784318
 42
-0.4142135623731024
  0
VERTEX
  5
147
  8
DEFAULT
 10
1101.0
 20
-273.002429962157
 30
-35.99757003784318
  0
VERTEX
  5
148
  8
DEFAULT
 10
1101.0
 20
-403.002429962157
 30
-35.99757003784318
 42
-0.4142135623731437
  0
VERTEX
  5
149
  8
DEFAULT
 10
1093.0
 20
-411.002429962157
 30
-35.99757003784318
  0
VERTEX
  5
14A
  8
DEFAULT
 10
961.0
 20
-411.002429962157
 30
-35.99757003784318
 42
-0.4142135623730811
  0
VERTEX
  5
14B
  8
DEFAULT
 10
953.0
 20
-403.002429962157
 30
-35.99757003784318
  0
VERTEX
  5
14C
  8
DEFAULT
 10
953.0
 20
-273.0024299621572
 30
-35.99757003784318
 42
-0.4142135623730939
  0
VERTEX
  5
14D
  8
DEFAULT
 10
961.0
 20
-265.002429962157
 30
-35.99757003784318
  0
VERTEX
  5
14E
  8
DEFAULT
 10
999.0
 20
-265.002429962157
 30
-35.99757003784318
  0
VERTEX
  5
14F
  8
DEFAULT
 10
999.0
 20
-259.002429962157
 30
-35.99757003784318
  0
VERTEX
  5
150
  8
DEFAULT
 10
1055.0
 20
-259.002429962157
 30
-35.99757003784318
  0
VERTEX
  5
151
  8
DEFAULT
 10
1055.0
 20
-265.002429962157
 30
-35.99757003784318
  0
SEQEND
  5
152
  8
DEFAULT
  0
POLYLINE
  5
153
  8
DEFAULT
 66
     1
 10
0.0
 20
0.0
 30
-35.99757003784318
 70
     1
  0
VERTEX
  5
154
  8
DEFAULT
 10
1005.0
 20
-290.0024302834248
 30
-35.99757003784318
  0
VERTEX
  5
155
  8
DEFAULT
 10
1005.0
 20
-284.0024302834248
 30
-35.99757003784318
  0
VERTEX
  5
156
  8
DEFAULT
 10
980.4432400622477
 20
-284.0024302834248
 30
-35.99757003784318
  0
VERTEX
  5
157
  8
DEFAULT
 10
980.4432400622477
 20
-290.0024302834248
 30
-35.99757003784318
  0
SEQEND
  5
158
  8
DEFAULT
  0
POLYLINE
  5
159
  8
DEFAULT
 66
     1
 10
0.0
 20
0.0
 30
-35.99757003784318
 70
     1
  0
VERTEX
  5
15A
  8
DEFAULT
 10
978.0
 20
-288.3506368447281
 30
-35.99757003784318
  0
VERTEX
  5
15B
  8
DEFAULT
 10
978.0
 20
-273.8727989090795
 30
-35.99757003784318
  0
VERTEX
  5
15C
  8
DEFAULT
 10
972.0
 20
-273.8727989090795
 30
-35.99757003784318
  0
VERTEX
  5
15D
  8
DEFAULT
 10
972.0
 20
-288.3506368447281
 30
-35.99757003784318
  0
SEQEND
  5
15E
  8
DEFAULT
  0
POLYLINE
  5
15F
  8
DEFAULT
 66
     1
 10
0.0
 20
0.0
 30
-35.99757003784318
 70
     1
  0
VERTEX
  5
160
  8
DEFAULT
 10
1030.0
 20
-288.350636844728
 30
-35.99757003784318
  0
VERTEX
  5
161
  8
DEFAULT
 10
1030.0
 20
-273.8727989090795
 30
-35.99757003784318
  0
VERTEX
  5
162
  8
DEFAULT
 10
1024.0
 20
-273.8727989090795
 30
-35.99757003784318
  0
VERTEX
  5
163
  8
DEFAULT
 10
1024.0
 20
-288.350636844728
 30
-35.99757003784318
  0
SEQEND
  5
164
  8
DEFAULT
  0
POLYLINE
  5
165
  8
DEFAULT
 66
     1
 10
0.0
 20
0.0
 30
-35.99757003784318
 70
     1
  0
VERTEX
  5
166
  8
DEFAULT
 10
1073.556759937752
 20
-290.0024302834248
 30
-35.99757003784318
  0
VERTEX
  5
167
  8
DEFAULT
 10
1073.556759937752
 20
-284.0024302834248
 30
-35.99757003784318
  0
VERTEX
  5
168
  8
DEFAULT
 10
1049.0
 20
-284.0024302834248
 30
-35.99757003784318
  0
VERTEX
  5
169
  8
DEFAULT
 10
1049.0
 20
-290.0024302834248
 30
-35.99757003784318
  0
SEQEND
  5
16A
  8
DEFAULT
  0
POLYLINE
  5
16B
  8
DEFAULT
 66
     1
 10
0.0
 20
0.0
 30
-35.99757003784318
 70
     1
  0
VERTEX
  5
16C
  8
DEFAULT
 10
1082.0
 20
-288.3506368447281
 30
-35.99757003784318
  0
VERTEX
  5
16D
  8
DEFAULT
 10
1082.0
 20
-273.8727989090795
 30
-35.99757003784318
  0
VERTEX
  5
16E
  8
DEFAULT
 10
1076.0
 20
-273.8727989090795
 30
-35.99757003784318
  0
VERTEX
  5
16F
  8
DEFAULT
 10
1076.0
 20
-288.3506368447281
 30
-35.99757003784318
  0
SEQEND
  5
170
  8
DEFAULT
  0
POLYLINE
  5
171
  8
DEFAULT
 66
     1
 10
0.0
 20
0.0
 30
-35.99757003784318
 70
     1
  0
VERTEX
  5
172
  8
DEFAULT
 10
1049.0
 20
-386.0024296408892
 30
-35.99757003784318
  0
VERTEX
  5
173
  8
DEFAULT
 10
1049.0
 20
-392.0024296408892
 30
-35.99757003784318
  0
VERTEX
  5
174
  8
DEFAULT
 10
1073.556759937752
 20
-392.0024296408892
 30
-35.99757003784318
  0
VERTEX
  5
175
  8
DEFAULT
 10
1073.556759937752
 20
-386.0024296408892
 30
-35.99757003784318
  0
SEQEND
  5
176
  8
DEFAULT
  0
POLYLINE
  5
177
  8
DEFAULT
 66
     1
 10
0.0
 20
0.0
 30
-35.99757003784318
 70
     1
  0
VERTEX
  5
178
  8
DEFAULT
 10
1030.0
 20
-402.1320610152346
 30
-35.99757003784318
  0
VERTEX
  5
179
  8
DEFAULT
 10
1030.0
 20
-387.654223079586
 30
-35.99757003784318
  0
VERTEX
  5
17A
  8
DEFAULT
 10
1024.0
 20
-387.654223079586
 30
-35.99757003784318
  0
VERTEX
  5
17B
  8
DEFAULT
 10
1024.0
 20
-402.1320610152346
 30
-35.99757003784318
  0
SEQEND
  5
17C
  8
DEFAULT
  0
POLYLINE
  5
17D
  8
DEFAULT
 66
     1
 10
0.0
 20
0.0
 30
-35.99757003784318
 70
     1
  0
VERTEX
  5
17E
  8
DEFAULT
 10
1005.0
 20
-392.0024296408892
 30
-35.99757003784318
  0
VERTEX
  5
17F
  8
DEFAULT
 10
1005.0
 20
-386.0024296408892
 30
-35.99757003784318
  0
VERTEX
  5
180
  8
DEFAULT
 10
980.4432400622477
 20
-386.0024296408892
 30
-35.99757003784318
  0
VERTEX
  5
181
  8
DEFAULT
 10
980.4432400622477
 20
-392.0024296408892
 30
-35.99757003784318
  0
SEQEND
  5
182
  8
DEFAULT
  0
CIRCLE
  5
183
  8
DEFAULT
 10
929.8107893926051
 20
-402.9999999999998
 30
-35.99757003784318
 40
2.5
  0
CIRCLE
  5
184
  8
DEFAULT
 10
929.8107893926051
 20
-179.0048713684057
 30
-35.99757003784318
 40
2.5
  0
CIRCLE
  5
185
  8
DEFAULT
 10
760.1800000000001
 20
-403.0
 30
-35.99757003784318
 40
2.5
  0
CIRCLE
  5
186
  8
DEFAULT
 10
760.1800000000001
 20
-179.0048713684058
 30
-35.99757003784318
 40
2.5
  0
POLYLINE
  5
187
  8
DEFAULT
 66
     1
 10
0.0
 20
0.0
 30
-35.99757003784318
 70
     1
  0
VERTEX
  5
188
  8
DEFAULT
 10
937.8107893926053
 20
-179.0048713684058
 30
-35.99757003784318
  0
VERTEX
  5
189
  8
DEFAULT
 10
937.8107893926051
 20
-403.0
 30
-35.99757003784318
 42
-0.4142135623730687
  0
VERTEX
  5
18A
  8
DEFAULT
 10
929.8107893926051
 20
-410.9999999999997
 30
-35.99757003784318
  0
VERTEX
  5
18B
  8
DEFAULT
 10
881.0
 20
-410.9999999999998
 30
-35.99757003784318
 42
-0.4142135623731445
  0
VERTEX
  5
18C
  8
DEFAULT
 10
873.0000000000002
 20
-403.0000000000011
 30
-35.99757003784318
  0
VERTEX
  5
18D
  8
DEFAULT
 10
873.0
 20
-402.0024299621595
 30
-35.99757003784318
  0
VERTEX
  5
18E
  8
DEFAULT
 10
816.9999999999999
 20
-402.0024299621595
 30
-35.99757003784318
  0
VERTEX
  5
18F
  8
DEFAULT
 10
816.9999999999999
 20
-402.9999999999997
 30
-35.99757003784318
 42
-0.4142135623730731
  0
VERTEX
  5
190
  8
DEFAULT
 10
808.9999999999998
 20
-411.0
 30
-35.99757003784318
  0
VERTEX
  5
191
  8
DEFAULT
 10
760.1800000000001
 20
-411.0
 30
-35.99757003784318
 42
-0.4142135623731089
  0
VERTEX
  5
192
  8
DEFAULT
 10
752.1800000000001
 20
-403.0
 30
-35.99757003784318
  0
VERTEX
  5
193
  8
DEFAULT
 10
752.1800000000001
 20
-179.0048713684059
 30
-35.99757003784318
 42
-0.4142135623731018
  0
VERTEX
  5
194
  8
DEFAULT
 10
760.18
 20
-171.0048713684056
 30
-35.99757003784318
  0
VERTEX
  5
195
  8
DEFAULT
 10
929.8107893926056
 20
-171.004871368406
 30
-35.99757003784318
 42
-0.4142135623731129
  0
SEQEND
  5
196
  8
DEFAULT
  0
POLYLINE
  5
197
  8
DEFAULT
 66
     1
 10
0.0
 20
0.0
 30
-35.99757003784318
 70
     1
  0
VERTEX
  5
198
  8
DEFAULT
 10
842.0
 20
-373.9927183395594
 30
-35.99757003784318
  0
VERTEX
  5
199
  8
DEFAULT
 10
842.0
 20
-401.9975727797913
 30
-35.99757003784318
  0
VERTEX
  5
19A
  8
DEFAULT
 10
848.0
 20
-401.9975727797912
 30
-35.99757003784318
  0
VERTEX
  5
19B
  8
DEFAULT
 10
848.0
 20
-373.9927183395594
 30
-35.99757003784318
  0
SEQEND
  5
19C
  8
DEFAULT
  0
POLYLINE
  5
19D
  8
DEFAULT
 66
     1
 10
0.0
 20
0.0
 30
-35.99757003784318
 70
     1
  0
VERTEX
  5
19E
  8
DEFAULT
 10
894.0
 20
-373.9927183395594
 30
-35.99757003784318
  0
VERTEX
  5
19F
  8
DEFAULT
 10
894.0
 20
-401.9975727797913
 30
-35.99757003784318
  0
VERTEX
  5
1A0
  8
DEFAULT
 10
900.0
 20
-401.9975727797913
 30
-35.99757003784318
  0
VERTEX
  5
1A1
  8
DEFAULT
 10
900.0
 20
-373.9927183395594
 30
-35.99757003784318
  0
SEQEND
  5
1A2
  8
DEFAULT
  0
POLYLINE
  5
1A3
  8
DEFAULT
 66
     1
 10
0.0
 20
0.0
 30
-35.99757003784318
 70
     1
  0
VERTEX
  5
1A4
  8
DEFAULT
 10
900.0
 20
-338.0024272202088
 30
-35.99757003784318
  0
VERTEX
  5
1A5
  8
DEFAULT
 10
900.0
 20
-315.997572779977
 30
-35.99757003784318
  0
VERTEX
  5
1A6
  8
DEFAULT
 10
894.0
 20
-315.997572779977
 30
-35.99757003784318
  0
VERTEX
  5
1A7
  8
DEFAULT
 10
894.0
 20
-338.0024272202088
 30
-35.99757003784318
  0
SEQEND
  5
1A8
  8
DEFAULT
  0
POLYLINE
  5
1A9
  8
DEFAULT
 66
     1
 10
0.0
 20
0.0
 30
-35.99757003784318
 70
     1
  0
VERTEX
  5
1AA
  8
DEFAULT
 10
826.59
 20
-243.0
 30
-35.99757003784318
  0
VERTEX
  5
1AB
  8
DEFAULT
 10
795.0
 20
-243.0
 30
-35.99757003784318
  0
VERTEX
  5
1AC
  8
DEFAULT
 10
795.0
 20
-237.0000000000001
 30
-35.99757003784318
  0
VERTEX
  5
1AD
  8
DEFAULT
 10
826.59
 20
-237.0000000000001
 30
-35.99757003784318
  0
SEQEND
  5
1AE
  8
DEFAULT
  0
POLYLINE
  5
1AF
  8
DEFAULT
 66
     1
 10
0.0
 20
0.0
 30
-35.99757003784318
 70
     1
  0
VERTEX
  5
1B0
  8
DEFAULT
 10
863.4007893926052
 20
-237.0000000000001
 30
-35.99757003784318
  0
VERTEX
  5
1B1
  8
DEFAULT
 10
895.0
 20
-237.0000000000001
 30
-35.99757003784318
  0
VERTEX
  5
1B2
  8
DEFAULT
 10
895.0
 20
-243.0
 30
-35.99757003784318
  0
VERTEX
  5
1B3
  8
DEFAULT
 10
863.4007893926052
 20
-243.0
 30
-35.99757003784318
  0
SEQEND
  5
1B4
  8
DEFAULT
  0
POLYLINE
  5
1B5
  8
DEFAULT
 66
     1
 10
0.0
 20
0.0
 30
-35.99757003784318
 70
     1
  0
VERTEX
  5
1B6
  8
DEFAULT
 10
790.0
 20
-401.9975727797912
 30
-35.99757003784318
  0
VERTEX
  5
1B7
  8
DEFAULT
 10
790.0
 20
-373.9927183395594
 30
-35.99757003784318
  0
VERTEX
  5
1B8
  8
DEFAULT
 10
796.0
 20
-373.9927183395594
 30
-35.99757003784318
  0
VERTEX
  5
1B9
  8
DEFAULT
 10
796.0
 20
-401.9975727797912
 30
-35.99757003784318
  0
SEQEND
  5
1BA
  8
DEFAULT
  0
POLYLINE
  5
1BB
  8
DEFAULT
 66
     1
 10
0.0
 20
0.0
 30
-35.99757003784318
 70
     1
  0
VERTEX
  5
1BC
  8
DEFAULT
 10
904.0
 20
-217.0
 30
-35.99757003784318
  0
VERTEX
  5
1BD
  8
DEFAULT
 10
904.0
 20
-191.0048713684058
 30
-35.99757003784318
  0
VERTEX
  5
1BE
  8
DEFAULT
 10
898.0
 20
-191.0048713684058
 30
-35.99757003784318
  0
VERTEX
  5
1BF
  8
DEFAULT
 10
898.0
 20
-217.0
 30
-35.99757003784318
  0
SEQEND
  5
1C0
  8
DEFAULT
  0
POLYLINE
  5
1C1
  8
DEFAULT
 66
     1
 10
0.0
 20
0.0
 30
-35.99757003784318
 70
     1
  0
VERTEX
  5
1C2
  8
DEFAULT
 10
796.0
 20
-315.997572779977
 30
-35.99757003784318
  0
VERTEX
  5
1C3
  8
DEFAULT
 10
796.0
 20
-338.0024272202088
 30
-35.99757003784318
  0
VERTEX
  5
1C4
  8
DEFAULT
 10
790.0
 20
-338.0024272202088
 30
-35.99757003784318
  0
VERTEX
  5
1C5
  8
DEFAULT
 10
790.0
 20
-315.997572779977
 30
-35.99757003784318
  0
SEQEND
  5
1C6
  8
DEFAULT
  0
POLYLINE
  5
1C7
  8
DEFAULT
 66
     1
 10
0.0
 20
0.0
 30
-35.99757003784318
 70
     1
  0
VERTEX
  5
1C8
  8
DEFAULT
 10
848.0
 20
-338.0024272202088
 30
-35.99757003784318
  0
VERTEX
  5
1C9
  8
DEFAULT
 10
848.0
 20
-315.997572779977
 30
-35.99757003784318
  0
VERTEX
  5
1CA
  8
DEFAULT
 10
842.0
 20
-315.997572779977
 30
-35.99757003784318
  0
VERTEX
  5
1CB
  8
DEFAULT
 10
842.0
 20
-338.0024272202088
 30
-35.99757003784318
  0
SEQEND
  5
1CC
  8
DEFAULT
  0
POLYLINE
  5
1CD
  8
DEFAULT
 66
     1
 10
0.0
 20
0.0
 30
-35.99757003784318
 70
     1
  0
VERTEX
  5
1CE
  8
DEFAULT
 10
791.9907893926056
 20
-191.0048713684058
 30
-35.99757003784318
  0
VERTEX
  5
1CF
  8
DEFAULT
 10
785.9907893926056
 20
-191.0048713684058
 30
-35.99757003784318
  0
VERTEX
  5
1D0
  8
DEFAULT
 10
785.9907893926056
 20
-217.0
 30
-35.99757003784318
  0
VERTEX
  5
1D1
  8
DEFAULT
 10
791.9907893926056
 20
-217.0
 30
-35.99757003784318
  0
SEQEND
  5
1D2
  8
DEFAULT
  0
ENDSEC
  0
EOF
