  0
SECTION
  2
HEADER
  9
$ACADVER
  1
AC1009
  9
$DWGCODEPAGE
  3
ansi_1252
  9
$INSBASE
 10
0.0
 20
0.0
 30
0.0
  9
$EXTMIN
 10
-136.0
 20
90.0
 30
2.999999999999986
  9
$EXTMAX
 10
18.00000000000001
 20
222.0
 30
3.000000000000017
  9
$LIMMIN
 10
0.0
 20
0.0
  9
$LIMMAX
 10
12.0
 20
9.0
  9
$ORTHOMODE
 70
     0
  9
$REGENMODE
 70
     1
  9
$FILLMODE
 70
     1
  9
$QTEXTMODE
 70
     0
  9
$MIRRTEXT
 70
     1
  9
$DRAGMODE
 70
     2
  9
$LTSCALE
 40
1.0
  9
$OSMODE
 70
    37
  9
$ATTMODE
 70
     1
  9
$TEXTSIZE
 40
0.2
  9
$TRACEWID
 40
0.05
  9
$TEXTSTYLE
  7
STANDARD
  9
$CLAYER
  8
DEFAULT
  9
$CELTYPE
  6
BYLAYER
  9
$CECOLOR
 62
   256
  9
$DIMSCALE
 40
1.0
  9
$DIMASZ
 40
0.18
  9
$DIMEXO
 40
0.0625
  9
$DIMDLI
 40
0.38
  9
$DIMRND
 40
0.0
  9
$DIMDLE
 40
0.0
  9
$DIMEXE
 40
0.18
  9
$DIMTP
 40
0.0
  9
$DIMTM
 40
0.0
  9
$DIMTXT
 40
0.18
  9
$DIMCEN
 40
0.09
  9
$DIMTSZ
 40
0.0
  9
$DIMTOL
 70
     0
  9
$DIMLIM
 70
     0
  9
$DIMTIH
 70
     1
  9
$DIMTOH
 70
     1
  9
$DIMSE1
 70
     0
  9
$DIMSE2
 70
     0
  9
$DIMTAD
 70
     0
  9
$DIMZIN
 70
     0
  9
$DIMBLK
  1

  9
$DIMASO
 70
     1
  9
$DIMSHO
 70
     1
  9
$DIMPOST
  1

  9
$DIMAPOST
  1

  9
$DIMALT
 70
     0
  9
$DIMALTD
 70
     2
  9
$DIMALTF
 40
25.4
  9
$DIMLFAC
 40
1.0
  9
$DIMTOFL
 70
     0
  9
$DIMTVP
 40
0.0
  9
$DIMTIX
 70
     0
  9
$DIMSOXD
 70
     0
  9
$DIMSAH
 70
     0
  9
$DIMBLK1
  1

  9
$DIMBLK2
  1

  9
$DIMSTYLE
  2
STANDARD_ACAD
  9
$DIMCLRD
 70
     0
  9
$DIMCLRE
 70
     0
  9
$DIMCLRT
 70
     0
  9
$DIMTFAC
 40
1.0
  9
$DIMGAP
 40
0.09
  9
$LUNITS
 70
     2
  9
$LUPREC
 70
     3
  9
$SKETCHINC
 40
0.1
  9
$FILLETRAD
 40
0.0
  9
$AUNITS
 70
     0
  9
$AUPREC
 70
     0
  9
$MENU
  1
.
  9
$ELEVATION
 40
0.0
  9
$PELEVATION
 40
0.0
  9
$THICKNESS
 40
0.0
  9
$LIMCHECK
 70
     0
  9
$CHAMFERA
 40
0.0
  9
$CHAMFERB
 40
0.0
  9
$SKPOLY
 70
     0
  9
$TDCREATE
 40
2461133.679569526
  9
$TDUPDATE
 40
2461133.679601146
  9
$TDINDWG
 40
0.0000000116
  9
$TDUSRTIMER
 40
0.0000000116
  9
$USRTIMER
 70
     1
  9
$ANGBASE
 50
0.0
  9
$ANGDIR
 70
     0
  9
$PDMODE
 70
     0
  9
$PDSIZE
 40
0.0
  9
$PLINEWID
 40
0.0
  9
$COORDS
 70
     1
  9
$SPLFRAME
 70
     0
  9
$SPLINETYPE
 70
     6
  9
$SPLINESEGS
 70
     8
  9
$ATTDIA
 70
     0
  9
$ATTREQ
 70
     1
  9
$HANDLING
 70
     1
  9
$HANDSEED
  5
2A9
  9
$SURFTAB1
 70
     6
  9
$SURFTAB2
 70
     6
  9
$SURFTYPE
 70
     6
  9
$SURFU
 70
     6
  9
$SURFV
 70
     6
  9
$UCSNAME
  2

  9
$UCSORG
 10
0.0
 20
0.0
 30
0.0
  9
$UCSXDIR
 10
1.0
 20
0.0
 30
0.0
  9
$UCSYDIR
 10
0.0
 20
1.0
 30
0.0
  9
$PUCSNAME
  2

  9
$PUCSORG
 10
0.0
 20
0.0
 30
0.0
  9
$PUCSXDIR
 10
1.0
 20
0.0
 30
0.0
  9
$PUCSYDIR
 10
0.0
 20
1.0
 30
0.0
  9
$USERI1
 70
     0
  9
$USERI2
 70
     0
  9
$USERI3
 70
     0
  9
$USERI4
 70
     0
  9
$USERI5
 70
     0
  9
$USERR1
 40
0.0
  9
$USERR2
 40
0.0
  9
$USERR3
 40
0.0
  9
$USERR4
 40
0.0
  9
$USERR5
 40
0.0
  9
$WORLDVIEW
 70
     1
  9
$SHADEDGE
 70
     3
  9
$SHADEDIF
 70
    70
  9
$TILEMODE
 70
     1
  9
$MAXACTVP
 70
    64
  9
$PLIMCHECK
 70
     0
  9
$PEXTMIN
 10
1.000000000000000E+20
 20
1.000000000000000E+20
 30
1.000000000000000E+20
  9
$PEXTMAX
 10
-1.000000000000000E+20
 20
-1.000000000000000E+20
 30
-1.000000000000000E+20
  9
$PLIMMIN
 10
0.0
 20
0.0
  9
$PLIMMAX
 10
12.0
 20
9.0
  9
$UNITMODE
 70
     0
  9
$VISRETAIN
 70
     1
  9
$PLINEGEN
 70
     0
  9
$PSLTSCALE
 70
     1
  0
ENDSEC
  0
SECTION
  2
TABLES
  0
TABLE
  2
VPORT
 70
     1
  0
VPORT
  2
*ACTIVE
 70
     0
 10
0.0
 20
0.0
 11
1.0
 21
1.0
 12
10.42990654205607
 22
4.5
 13
0.0
 23
0.0
 14
0.5
 24
0.5
 15
0.5
 25
0.5
 16
0.0
 26
0.0
 36
1.0
 17
0.0
 27
0.0
 37
0.0
 40
9.0
 41
1.972972972850329
 42
50.0
 43
0.0
 44
0.0
 50
0.0
 51
0.0
 71
     0
 72
   100
 73
     1
 74
     3
 75
     0
 76
     0
 77
     0
 78
     0
  0
ENDTAB
  0
TABLE
  2
LTYPE
 70
     1
  0
LTYPE
  2
CONTINUOUS
 70
     0
  3
Solid line
 72
    65
 73
     0
 40
0.0
  0
ENDTAB
  0
TABLE
  2
LAYER
 70
     2
  0
LAYER
  2
0
 70
     0
 62
     7
  6
CONTINUOUS
  0
LAYER
  2
DEFAULT
 70
     0
 62
     7
  6
CONTINUOUS
  0
ENDTAB
  0
TABLE
  2
STYLE
 70
     1
  0
STYLE
  2
STANDARD
 70
     0
 40
0.0
 41
1.0
 50
0.0
 71
     0
 42
0.2
  3
txt
  4

  0
ENDTAB
  0
TABLE
  2
VIEW
 70
     0
  0
ENDTAB
  0
TABLE
  2
UCS
 70
     0
  0
ENDTAB
  0
TABLE
  2
APPID
 70
     2
  0
APPID
  2
ACAD
 70
     0
  0
APPID
  2
RHINO
 70
     0
  0
ENDTAB
  0
TABLE
  2
DIMSTYLE
 70
     1
  0
DIMSTYLE
  2
STANDARD_ACAD
 70
     0
  3

  4

  5

  6

  7

 40
1.0
 41
0.18
 42
0.0625
 43
0.38
 44
0.18
 45
0.0
 46
0.0
 47
0.0
 48
0.0
140
0.18
141
0.09
142
0.0
143
25.4
144
1.0
145
0.0
146
1.0
147
0.09
 71
     0
 72
     0
 73
     1
 74
     1
 75
     0
 76
     0
 77
     0
 78
     0
170
     0
171
     2
172
     0
173
     0
174
     0
175
     0
176
     0
177
     0
178
     0
  0
ENDTAB
  0
ENDSEC
  0
SECTION
  2
BLOCKS
  0
BLOCK
  8
0
  2
$MODEL_SPACE
 70
     0
 10
0.0
 20
0.0
 30
0.0
  3
$MODEL_SPACE
  1

  0
ENDBLK
  5
21
  8
0
  0
BLOCK
 67
     1
  8
0
  2
$PAPER_SPACE
 70
     0
 10
0.0
 20
0.0
 30
0.0
  3
$PAPER_SPACE
  1

  0
ENDBLK
  5
1D
 67
     1
  8
0
  0
ENDSEC
  0
SECTION
  2
ENTITIES
  0
LINE
  5
60
  8
DEFAULT
 10
-136.0
 20
172.3532799456734
 30
3.000000000000005
 11
-136.0
 21
164.0
 31
3.000000000000003
  0
LINE
  5
61
  8
DEFAULT
 10
-136.0
 20
164.0
 30
3.000000000000003
 11
-135.9976348876953
 21
163.3773651123047
 31
3.000000000000003
  0
LINE
  5
62
  8
DEFAULT
 10
-135.9976348876953
 20
163.3773651123047
 30
3.000000000000003
 11
-135.981689453125
 21
162.768310546875
 31
3.000000000000003
  0
LINE
  5
63
  8
DEFAULT
 10
-135.981689453125
 20
162.768310546875
 30
3.000000000000003
 11
-135.9648332595825
 21
162.4726667404175
 31
3.000000000000003
  0
LINE
  5
64
  8
DEFAULT
 10
-135.9648332595825
 20
162.4726667404175
 30
3.000000000000003
 11
-135.9402618408203
 21
162.1847381591797
 31
3.000000000000002
  0
LINE
  5
65
  8
DEFAULT
 10
-135.9402618408203
 20
162.1847381591797
 30
3.000000000000002
 11
-135.9247029423714
 21
162.0440470576286
 31
3.000000000000002
  0
LINE
  5
66
  8
DEFAULT
 10
-135.9247029423714
 20
162.0440470576286
 30
3.000000000000002
 11
-135.9067735671997
 21
161.9057264328003
 31
3.000000000000002
  0
LINE
  5
67
  8
DEFAULT
 10
-135.9067735671997
 20
161.9057264328003
 30
3.000000000000002
 11
-135.8863413929939
 21
161.7699086070061
 31
3.000000000000001
  0
LINE
  5
68
  8
DEFAULT
 10
-135.8863413929939
 20
161.7699086070061
 30
3.000000000000001
 11
-135.86328125
 21
161.63671875
 31
3.000000000000001
  0
LINE
  5
69
  8
DEFAULT
 10
-135.86328125
 20
161.63671875
 30
3.000000000000001
 11
-135.8374751210213
 21
161.5062748789787
 31
3.000000000000001
  0
LINE
  5
6A
  8
DEFAULT
 10
-135.8374751210213
 20
161.5062748789787
 30
3.000000000000001
 11
-135.8088121414185
 21
161.3786878585815
 31
3.0
  0
LINE
  5
6B
  8
DEFAULT
 10
-135.8088121414185
 20
161.3786878585815
 30
3.0
 11
-135.7771885991096
 21
161.2540614008904
 31
3.0
  0
LINE
  5
6C
  8
DEFAULT
 10
-135.7771885991096
 20
161.2540614008904
 30
3.0
 11
-135.7425079345703
 21
161.1324920654297
 31
3.0
  0
LINE
  5
6D
  8
DEFAULT
 10
-135.7425079345703
 20
161.1324920654297
 30
3.0
 11
-135.7046807408333
 21
161.0140692591667
 31
2.999999999999999
  0
LINE
  5
6E
  8
DEFAULT
 10
-135.7046807408333
 20
161.0140692591667
 30
2.999999999999999
 11
-135.6636247634888
 21
160.8988752365112
 31
2.999999999999999
  0
LINE
  5
6F
  8
DEFAULT
 10
-135.6636247634888
 20
160.8988752365112
 30
2.999999999999999
 11
-135.6418622322381
 21
160.8425127677619
 31
2.999999999999999
  0
LINE
  5
70
  8
DEFAULT
 10
-135.6418622322381
 20
160.8425127677619
 30
2.999999999999999
 11
-135.6192649006844
 21
160.7869850993156
 31
2.999999999999999
  0
LINE
  5
71
  8
DEFAULT
 10
-135.6192649006844
 20
160.7869850993156
 30
2.999999999999999
 11
-135.5958244986832
 21
160.7323005013168
 31
2.999999999999998
  0
LINE
  5
72
  8
DEFAULT
 10
-135.5958244986832
 20
160.7323005013168
 30
2.999999999999998
 11
-135.571533203125
 21
160.678466796875
 31
2.999999999999998
  0
LINE
  5
73
  8
DEFAULT
 10
-135.571533203125
 20
160.678466796875
 30
2.999999999999998
 11
-135.5463836379349
 21
160.6254913620651
 31
2.999999999999998
  0
LINE
  5
74
  8
DEFAULT
 10
-135.5463836379349
 20
160.6254913620651
 30
2.999999999999998
 11
-135.520368874073
 21
160.573381125927
 31
2.999999999999998
  0
LINE
  5
75
  8
DEFAULT
 10
-135.520368874073
 20
160.573381125927
 30
2.999999999999998
 11
-135.4934824295342
 21
160.5221425704658
 31
2.999999999999998
  0
LINE
  5
76
  8
DEFAULT
 10
-135.4934824295342
 20
160.5221425704658
 30
2.999999999999998
 11
-135.4657182693481
 21
160.4717817306519
 31
2.999999999999997
  0
LINE
  5
77
  8
DEFAULT
 10
-135.4657182693481
 20
160.4717817306519
 30
2.999999999999997
 11
-135.4370708055794
 21
160.4223041944206
 31
2.999999999999997
  0
LINE
  5
78
  8
DEFAULT
 10
-135.4370708055794
 20
160.4223041944206
 30
2.999999999999997
 11
-135.4075348973274
 21
160.3737151026726
 31
2.999999999999997
  0
LINE
  5
79
  8
DEFAULT
 10
-135.4075348973274
 20
160.3737151026726
 30
2.999999999999997
 11
-135.3771058507264
 21
160.3260191492736
 31
2.999999999999997
  0
LINE
  5
7A
  8
DEFAULT
 10
-135.3771058507264
 20
160.3260191492736
 30
2.999999999999997
 11
-135.3457794189453
 21
160.2792205810547
 31
2.999999999999997
  0
LINE
  5
7B
  8
DEFAULT
 10
-135.3457794189453
 20
160.2792205810547
 30
2.999999999999997
 11
-135.3135518021882
 21
160.2333231978118
 31
2.999999999999996
  0
LINE
  5
7C
  8
DEFAULT
 10
-135.3135518021882
 20
160.2333231978118
 30
2.999999999999996
 11
-135.2804196476936
 21
160.1883303523064
 31
2.999999999999996
  0
LINE
  5
7D
  8
DEFAULT
 10
-135.2804196476936
 20
160.1883303523064
 30
2.999999999999996
 11
-135.2463800497353
 21
160.1442449502647
 31
2.999999999999996
  0
LINE
  5
7E
  8
DEFAULT
 10
-135.2463800497353
 20
160.1442449502647
 30
2.999999999999996
 11
-135.2114305496216
 21
160.1010694503784
 31
2.999999999999996
  0
LINE
  5
7F
  8
DEFAULT
 10
-135.2114305496216
 20
160.1010694503784
 30
2.999999999999996
 11
-135.1755691356957
 21
160.0588058643043
 31
2.999999999999996
  0
LINE
  5
80
  8
DEFAULT
 10
-135.1755691356957
 20
160.0588058643043
 30
2.999999999999996
 11
-135.1387942433357
 21
160.0174557566643
 31
2.999999999999996
  0
LINE
  5
81
  8
DEFAULT
 10
-135.1387942433357
 20
160.0174557566643
 30
2.999999999999996
 11
-135.1011047549546
 21
159.9770202450454
 31
2.999999999999995
  0
LINE
  5
82
  8
DEFAULT
 10
-135.1011047549546
 20
159.9770202450454
 30
2.999999999999995
 11
-135.0625
 21
159.9375
 31
2.999999999999995
  0
LINE
  5
83
  8
DEFAULT
 10
-135.0625
 20
159.9375
 30
2.999999999999995
 11
-135.0229797549546
 21
159.8988952450454
 31
2.999999999999995
  0
LINE
  5
84
  8
DEFAULT
 10
-135.0229797549546
 20
159.8988952450454
 30
2.999999999999995
 11
-134.9825442433357
 21
159.8612057566643
 31
2.999999999999994
  0
LINE
  5
85
  8
DEFAULT
 10
-134.9825442433357
 20
159.8612057566643
 30
2.999999999999994
 11
-134.9411941356957
 21
159.8244308643043
 31
2.999999999999994
  0
LINE
  5
86
  8
DEFAULT
 10
-134.9411941356957
 20
159.8244308643043
 30
2.999999999999994
 11
-134.8989305496216
 21
159.7885694503784
 31
2.999999999999994
  0
LINE
  5
87
  8
DEFAULT
 10
-134.8989305496216
 20
159.7885694503784
 30
2.999999999999994
 11
-134.8557550497353
 21
159.7536199502647
 31
2.999999999999993
  0
LINE
  5
88
  8
DEFAULT
 10
-134.8557550497353
 20
159.7536199502647
 30
2.999999999999993
 11
-134.8116696476936
 21
159.7195803523064
 31
2.999999999999993
  0
LINE
  5
89
  8
DEFAULT
 10
-134.8116696476936
 20
159.7195803523064
 30
2.999999999999993
 11
-134.7666768021882
 21
159.6864481978118
 31
2.999999999999993
  0
LINE
  5
8A
  8
DEFAULT
 10
-134.7666768021882
 20
159.6864481978118
 30
2.999999999999993
 11
-134.7207794189453
 21
159.6542205810547
 31
2.999999999999992
  0
LINE
  5
8B
  8
DEFAULT
 10
-134.7207794189453
 20
159.6542205810547
 30
2.999999999999992
 11
-134.6739808507264
 21
159.6228941492736
 31
2.999999999999992
  0
LINE
  5
8C
  8
DEFAULT
 10
-134.6739808507264
 20
159.6228941492736
 30
2.999999999999992
 11
-134.6262848973274
 21
159.5924651026726
 31
2.999999999999992
  0
LINE
  5
8D
  8
DEFAULT
 10
-134.6262848973274
 20
159.5924651026726
 30
2.999999999999992
 11
-134.5776958055794
 21
159.5629291944206
 31
2.999999999999992
  0
LINE
  5
8E
  8
DEFAULT
 10
-134.5776958055794
 20
159.5629291944206
 30
2.999999999999992
 11
-134.5282182693481
 21
159.5342817306519
 31
2.999999999999992
  0
LINE
  5
8F
  8
DEFAULT
 10
-134.5282182693481
 20
159.5342817306519
 30
2.999999999999992
 11
-134.4778574295342
 21
159.5065175704658
 31
2.999999999999991
  0
LINE
  5
90
  8
DEFAULT
 10
-134.4778574295342
 20
159.5065175704658
 30
2.999999999999991
 11
-134.426618874073
 21
159.479631125927
 31
2.999999999999991
  0
LINE
  5
91
  8
DEFAULT
 10
-134.426618874073
 20
159.479631125927
 30
2.999999999999991
 11
-134.3745086379349
 21
159.4536163620651
 31
2.999999999999991
  0
LINE
  5
92
  8
DEFAULT
 10
-134.3745086379349
 20
159.4536163620651
 30
2.999999999999991
 11
-134.321533203125
 21
159.428466796875
 31
2.999999999999991
  0
LINE
  5
93
  8
DEFAULT
 10
-134.321533203125
 20
159.428466796875
 30
2.999999999999991
 11
-134.2676994986832
 21
159.4041755013168
 31
2.999999999999991
  0
LINE
  5
94
  8
DEFAULT
 10
-134.2676994986832
 20
159.4041755013168
 30
2.999999999999991
 11
-134.2130149006844
 21
159.3807350993156
 31
2.99999999999999
  0
LINE
  5
95
  8
DEFAULT
 10
-134.2130149006844
 20
159.3807350993156
 30
2.99999999999999
 11
-134.1574872322381
 21
159.3581377677619
 31
2.99999999999999
  0
LINE
  5
96
  8
DEFAULT
 10
-134.1574872322381
 20
159.3581377677619
 30
2.99999999999999
 11
-134.1011247634888
 21
159.3363752365112
 31
2.99999999999999
  0
LINE
  5
97
  8
DEFAULT
 10
-134.1011247634888
 20
159.3363752365112
 30
2.99999999999999
 11
-133.9859307408333
 21
159.2953192591667
 31
2.999999999999989
  0
LINE
  5
98
  8
DEFAULT
 10
-133.9859307408333
 20
159.2953192591667
 30
2.999999999999989
 11
-133.8675079345703
 21
159.2574920654297
 31
2.999999999999989
  0
LINE
  5
99
  8
DEFAULT
 10
-133.8675079345703
 20
159.2574920654297
 30
2.999999999999989
 11
-133.7459385991096
 21
159.2228114008904
 31
2.999999999999988
  0
LINE
  5
9A
  8
DEFAULT
 10
-133.7459385991096
 20
159.2228114008904
 30
2.999999999999988
 11
-133.6213121414185
 21
159.1911878585815
 31
2.999999999999988
  0
LINE
  5
9B
  8
DEFAULT
 10
-133.6213121414185
 20
159.1911878585815
 30
2.999999999999988
 11
-133.4937251210213
 21
159.1625248789787
 31
2.999999999999988
  0
LINE
  5
9C
  8
DEFAULT
 10
-133.4937251210213
 20
159.1625248789787
 30
2.999999999999988
 11
-133.36328125
 21
159.13671875
 31
2.999999999999988
  0
LINE
  5
9D
  8
DEFAULT
 10
-133.36328125
 20
159.13671875
 30
2.999999999999988
 11
-133.2300913929939
 21
159.1136586070061
 31
2.999999999999988
  0
LINE
  5
9E
  8
DEFAULT
 10
-133.2300913929939
 20
159.1136586070061
 30
2.999999999999988
 11
-133.0942735671997
 21
159.0932264328003
 31
2.999999999999987
  0
LINE
  5
9F
  8
DEFAULT
 10
-133.0942735671997
 20
159.0932264328003
 30
2.999999999999987
 11
-132.9559529423714
 21
159.0752970576286
 31
2.999999999999987
  0
LINE
  5
A0
  8
DEFAULT
 10
-132.9559529423714
 20
159.0752970576286
 30
2.999999999999987
 11
-132.8152618408203
 21
159.0597381591797
 31
2.999999999999987
  0
LINE
  5
A1
  8
DEFAULT
 10
-132.8152618408203
 20
159.0597381591797
 30
2.999999999999987
 11
-132.5273332595825
 21
159.0351667404175
 31
2.999999999999987
  0
LINE
  5
A2
  8
DEFAULT
 10
-132.5273332595825
 20
159.0351667404175
 30
2.999999999999987
 11
-132.231689453125
 21
159.018310546875
 31
2.999999999999986
  0
LINE
  5
A3
  8
DEFAULT
 10
-132.231689453125
 20
159.018310546875
 30
2.999999999999986
 11
-131.6226348876953
 21
159.0023651123047
 31
2.999999999999986
  0
LINE
  5
A4
  8
DEFAULT
 10
-131.6226348876953
 20
159.0023651123047
 30
2.999999999999986
 11
-131.0
 21
159.0
 31
2.999999999999986
  0
LINE
  5
A5
  8
DEFAULT
 10
-131.0
 20
159.0
 30
2.999999999999986
 11
12.99999999999999
 21
159.0
 31
3.000000000000006
  0
LINE
  5
A6
  8
DEFAULT
 10
12.99999999999999
 20
159.0
 30
3.000000000000006
 11
13.62263488769531
 21
159.0023651123047
 31
3.000000000000008
  0
LINE
  5
A7
  8
DEFAULT
 10
13.62263488769531
 20
159.0023651123047
 30
3.000000000000008
 11
14.23168945312499
 21
159.018310546875
 31
3.000000000000009
  0
LINE
  5
A8
  8
DEFAULT
 10
14.23168945312499
 20
159.018310546875
 30
3.000000000000009
 11
14.52733325958251
 21
159.0351667404175
 31
3.00000000000001
  0
LINE
  5
A9
  8
DEFAULT
 10
14.52733325958251
 20
159.0351667404175
 30
3.00000000000001
 11
14.8152618408203
 21
159.0597381591797
 31
3.00000000000001
  0
LINE
  5
AA
  8
DEFAULT
 10
14.8152618408203
 20
159.0597381591797
 30
3.00000000000001
 11
14.95595294237135
 21
159.0752970576286
 31
3.00000000000001
  0
LINE
  5
AB
  8
DEFAULT
 10
14.95595294237135
 20
159.0752970576286
 30
3.00000000000001
 11
15.09427356719969
 21
159.0932264328003
 31
3.00000000000001
  0
LINE
  5
AC
  8
DEFAULT
 10
15.09427356719969
 20
159.0932264328003
 30
3.00000000000001
 11
15.23009139299391
 21
159.1136586070061
 31
3.000000000000009
  0
LINE
  5
AD
  8
DEFAULT
 10
15.23009139299391
 20
159.1136586070061
 30
3.000000000000009
 11
15.36328124999999
 21
159.13671875
 31
3.000000000000009
  0
LINE
  5
AE
  8
DEFAULT
 10
15.36328124999999
 20
159.13671875
 30
3.000000000000009
 11
15.49372512102126
 21
159.1625248789787
 31
3.000000000000009
  0
LINE
  5
AF
  8
DEFAULT
 10
15.49372512102126
 20
159.1625248789787
 30
3.000000000000009
 11
15.62131214141844
 21
159.1911878585815
 31
3.000000000000009
  0
LINE
  5
B0
  8
DEFAULT
 10
15.62131214141844
 20
159.1911878585815
 30
3.000000000000009
 11
15.74593859910964
 21
159.2228114008904
 31
3.000000000000009
  0
LINE
  5
B1
  8
DEFAULT
 10
15.74593859910964
 20
159.2228114008904
 30
3.000000000000009
 11
15.8675079345703
 21
159.2574920654297
 31
3.000000000000008
  0
LINE
  5
B2
  8
DEFAULT
 10
15.8675079345703
 20
159.2574920654297
 30
3.000000000000008
 11
15.98593074083327
 21
159.2953192591667
 31
3.000000000000008
  0
LINE
  5
B3
  8
DEFAULT
 10
15.98593074083327
 20
159.2953192591667
 30
3.000000000000008
 11
16.10112476348876
 21
159.3363752365112
 31
3.000000000000007
  0
LINE
  5
B4
  8
DEFAULT
 10
16.10112476348876
 20
159.3363752365112
 30
3.000000000000007
 11
16.15748723223804
 21
159.3581377677619
 31
3.000000000000007
  0
LINE
  5
B5
  8
DEFAULT
 10
16.15748723223804
 20
159.3581377677619
 30
3.000000000000007
 11
16.21301490068434
 21
159.3807350993156
 31
3.000000000000007
  0
LINE
  5
B6
  8
DEFAULT
 10
16.21301490068434
 20
159.3807350993156
 30
3.000000000000007
 11
16.2676994986832
 21
159.4041755013168
 31
3.000000000000006
  0
LINE
  5
B7
  8
DEFAULT
 10
16.2676994986832
 20
159.4041755013168
 30
3.000000000000006
 11
16.32153320312499
 21
159.428466796875
 31
3.000000000000006
  0
LINE
  5
B8
  8
DEFAULT
 10
16.32153320312499
 20
159.428466796875
 30
3.000000000000006
 11
16.37450863793491
 21
159.4536163620651
 31
3.000000000000005
  0
LINE
  5
B9
  8
DEFAULT
 10
16.37450863793491
 20
159.4536163620651
 30
3.000000000000005
 11
16.42661887407301
 21
159.479631125927
 31
3.000000000000005
  0
LINE
  5
BA
  8
DEFAULT
 10
16.42661887407301
 20
159.479631125927
 30
3.000000000000005
 11
16.47785742953418
 21
159.5065175704658
 31
3.000000000000005
  0
LINE
  5
BB
  8
DEFAULT
 10
16.47785742953418
 20
159.5065175704658
 30
3.000000000000005
 11
16.52821826934814
 21
159.5342817306519
 31
3.000000000000004
  0
LINE
  5
BC
  8
DEFAULT
 10
16.52821826934814
 20
159.5342817306519
 30
3.000000000000004
 11
16.57769580557942
 21
159.5629291944206
 31
3.000000000000004
  0
LINE
  5
BD
  8
DEFAULT
 10
16.57769580557942
 20
159.5629291944206
 30
3.000000000000004
 11
16.62628489732742
 21
159.5924651026726
 31
3.000000000000004
  0
LINE
  5
BE
  8
DEFAULT
 10
16.62628489732742
 20
159.5924651026726
 30
3.000000000000004
 11
16.67398085072636
 21
159.6228941492736
 31
3.000000000000004
  0
LINE
  5
BF
  8
DEFAULT
 10
16.67398085072636
 20
159.6228941492736
 30
3.000000000000004
 11
16.72077941894531
 21
159.6542205810547
 31
3.000000000000003
  0
LINE
  5
C0
  8
DEFAULT
 10
16.72077941894531
 20
159.6542205810547
 30
3.000000000000003
 11
16.76667680218815
 21
159.6864481978118
 31
3.000000000000003
  0
LINE
  5
C1
  8
DEFAULT
 10
16.76667680218815
 20
159.6864481978118
 30
3.000000000000003
 11
16.81166964769363
 21
159.7195803523064
 31
3.000000000000003
  0
LINE
  5
C2
  8
DEFAULT
 10
16.81166964769363
 20
159.7195803523064
 30
3.000000000000003
 11
16.8557550497353
 21
159.7536199502647
 31
3.000000000000002
  0
LINE
  5
C3
  8
DEFAULT
 10
16.8557550497353
 20
159.7536199502647
 30
3.000000000000002
 11
16.89893054962157
 21
159.7885694503784
 31
3.000000000000002
  0
LINE
  5
C4
  8
DEFAULT
 10
16.89893054962157
 20
159.7885694503784
 30
3.000000000000002
 11
16.94119413569569
 21
159.8244308643043
 31
3.000000000000001
  0
LINE
  5
C5
  8
DEFAULT
 10
16.94119413569569
 20
159.8244308643043
 30
3.000000000000001
 11
16.98254424333572
 21
159.8612057566643
 31
3.000000000000001
  0
LINE
  5
C6
  8
DEFAULT
 10
16.98254424333572
 20
159.8612057566643
 30
3.000000000000001
 11
17.02297975495457
 21
159.8988952450454
 31
3.000000000000001
  0
LINE
  5
C7
  8
DEFAULT
 10
17.02297975495457
 20
159.8988952450454
 30
3.000000000000001
 11
17.06249999999999
 21
159.9375
 31
3.0
  0
LINE
  5
C8
  8
DEFAULT
 10
17.06249999999999
 20
159.9375
 30
3.0
 11
17.10110475495457
 21
159.9770202450454
 31
3.0
  0
LINE
  5
C9
  8
DEFAULT
 10
17.10110475495457
 20
159.9770202450454
 30
3.0
 11
17.13879424333572
 21
160.0174557566642
 31
2.999999999999999
  0
LINE
  5
CA
  8
DEFAULT
 10
17.13879424333572
 20
160.0174557566642
 30
2.999999999999999
 11
17.17556913569569
 21
160.0588058643042
 31
2.999999999999999
  0
LINE
  5
CB
  8
DEFAULT
 10
17.17556913569569
 20
160.0588058643042
 30
2.999999999999999
 11
17.21143054962157
 21
160.1010694503784
 31
2.999999999999999
  0
LINE
  5
CC
  8
DEFAULT
 10
17.21143054962157
 20
160.1010694503784
 30
2.999999999999999
 11
17.2463800497353
 21
160.1442449502646
 31
2.999999999999998
  0
LINE
  5
CD
  8
DEFAULT
 10
17.2463800497353
 20
160.1442449502646
 30
2.999999999999998
 11
17.28041964769363
 21
160.1883303523063
 31
2.999999999999998
  0
LINE
  5
CE
  8
DEFAULT
 10
17.28041964769363
 20
160.1883303523063
 30
2.999999999999998
 11
17.31355180218816
 21
160.2333231978118
 31
2.999999999999997
  0
LINE
  5
CF
  8
DEFAULT
 10
17.31355180218816
 20
160.2333231978118
 30
2.999999999999997
 11
17.34577941894531
 21
160.2792205810546
 31
2.999999999999997
  0
LINE
  5
D0
  8
DEFAULT
 10
17.34577941894531
 20
160.2792205810546
 30
2.999999999999997
 11
17.37710585072637
 21
160.3260191492736
 31
2.999999999999996
  0
LINE
  5
D1
  8
DEFAULT
 10
17.37710585072637
 20
160.3260191492736
 30
2.999999999999996
 11
17.40753489732742
 21
160.3737151026725
 31
2.999999999999996
  0
LINE
  5
D2
  8
DEFAULT
 10
17.40753489732742
 20
160.3737151026725
 30
2.999999999999996
 11
17.43707080557942
 21
160.4223041944205
 31
2.999999999999996
  0
LINE
  5
D3
  8
DEFAULT
 10
17.43707080557942
 20
160.4223041944205
 30
2.999999999999996
 11
17.46571826934814
 21
160.4717817306518
 31
2.999999999999996
  0
LINE
  5
D4
  8
DEFAULT
 10
17.46571826934814
 20
160.4717817306518
 30
2.999999999999996
 11
17.4934824295342
 21
160.5221425704657
 31
2.999999999999996
  0
LINE
  5
D5
  8
DEFAULT
 10
17.4934824295342
 20
160.5221425704657
 30
2.999999999999996
 11
17.52036887407303
 21
160.5733811259269
 31
2.999999999999996
  0
LINE
  5
D6
  8
DEFAULT
 10
17.52036887407303
 20
160.5733811259269
 30
2.999999999999996
 11
17.54638363793492
 21
160.625491362065
 31
2.999999999999995
  0
LINE
  5
D7
  8
DEFAULT
 10
17.54638363793492
 20
160.625491362065
 30
2.999999999999995
 11
17.571533203125
 21
160.6784667968749
 31
2.999999999999995
  0
LINE
  5
D8
  8
DEFAULT
 10
17.571533203125
 20
160.6784667968749
 30
2.999999999999995
 11
17.59582449868321
 21
160.7323005013167
 31
2.999999999999995
  0
LINE
  5
D9
  8
DEFAULT
 10
17.59582449868321
 20
160.7323005013167
 30
2.999999999999995
 11
17.61926490068436
 21
160.7869850993156
 31
2.999999999999994
  0
LINE
  5
DA
  8
DEFAULT
 10
17.61926490068436
 20
160.7869850993156
 30
2.999999999999994
 11
17.64186223223805
 21
160.8425127677619
 31
2.999999999999994
  0
LINE
  5
DB
  8
DEFAULT
 10
17.64186223223805
 20
160.8425127677619
 30
2.999999999999994
 11
17.66362476348878
 21
160.8988752365112
 31
2.999999999999994
  0
LINE
  5
DC
  8
DEFAULT
 10
17.66362476348878
 20
160.8988752365112
 30
2.999999999999994
 11
17.70468074083329
 21
161.0140692591667
 31
2.999999999999993
  0
LINE
  5
DD
  8
DEFAULT
 10
17.70468074083329
 20
161.0140692591667
 30
2.999999999999993
 11
17.74250793457032
 21
161.1324920654296
 31
2.999999999999992
  0
LINE
  5
DE
  8
DEFAULT
 10
17.74250793457032
 20
161.1324920654296
 30
2.999999999999992
 11
17.77718859910966
 21
161.2540614008903
 31
2.999999999999992
  0
LINE
  5
DF
  8
DEFAULT
 10
17.77718859910966
 20
161.2540614008903
 30
2.999999999999992
 11
17.80881214141846
 21
161.3786878585815
 31
2.999999999999992
  0
LINE
  5
E0
  8
DEFAULT
 10
17.80881214141846
 20
161.3786878585815
 30
2.999999999999992
 11
17.83747512102128
 21
161.5062748789787
 31
2.999999999999991
  0
LINE
  5
E1
  8
DEFAULT
 10
17.83747512102128
 20
161.5062748789787
 30
2.999999999999991
 11
17.86328125000001
 21
161.6367187499999
 31
2.999999999999991
  0
LINE
  5
E2
  8
DEFAULT
 10
17.86328125000001
 20
161.6367187499999
 30
2.999999999999991
 11
17.88634139299393
 21
161.769908607006
 31
2.999999999999991
  0
LINE
  5
E3
  8
DEFAULT
 10
17.88634139299393
 20
161.769908607006
 30
2.999999999999991
 11
17.90677356719971
 21
161.9057264328002
 31
2.99999999999999
  0
LINE
  5
E4
  8
DEFAULT
 10
17.90677356719971
 20
161.9057264328002
 30
2.99999999999999
 11
17.92470294237138
 21
162.0440470576286
 31
2.99999999999999
  0
LINE
  5
E5
  8
DEFAULT
 10
17.92470294237138
 20
162.0440470576286
 30
2.99999999999999
 11
17.94026184082032
 21
162.1847381591796
 31
2.99999999999999
  0
LINE
  5
E6
  8
DEFAULT
 10
17.94026184082032
 20
162.1847381591796
 30
2.99999999999999
 11
17.96483325958253
 21
162.4726667404174
 31
2.99999999999999
  0
LINE
  5
E7
  8
DEFAULT
 10
17.96483325958253
 20
162.4726667404174
 30
2.99999999999999
 11
17.98168945312501
 21
162.7683105468749
 31
2.999999999999991
  0
LINE
  5
E8
  8
DEFAULT
 10
17.98168945312501
 20
162.7683105468749
 30
2.999999999999991
 11
17.99763488769532
 21
163.3773651123046
 31
2.999999999999992
  0
LINE
  5
E9
  8
DEFAULT
 10
17.99763488769532
 20
163.3773651123046
 30
2.999999999999992
 11
18.00000000000001
 21
163.9999999999999
 31
2.999999999999995
  0
LINE
  5
EA
  8
DEFAULT
 10
18.00000000000001
 20
163.9999999999999
 30
2.999999999999995
 11
17.99999999999999
 21
216.9999999999999
 31
3.000000000000003
  0
LINE
  5
EB
  8
DEFAULT
 10
17.99999999999999
 20
216.9999999999999
 30
3.000000000000003
 11
17.99763488769531
 21
217.6226348876953
 31
3.000000000000004
  0
LINE
  5
EC
  8
DEFAULT
 10
17.99763488769531
 20
217.6226348876953
 30
3.000000000000004
 11
17.98168945312499
 21
218.2316894531249
 31
3.000000000000004
  0
LINE
  5
ED
  8
DEFAULT
 10
17.98168945312499
 20
218.2316894531249
 30
3.000000000000004
 11
17.96483325958251
 21
218.5273332595825
 31
3.000000000000004
  0
LINE
  5
EE
  8
DEFAULT
 10
17.96483325958251
 20
218.5273332595825
 30
3.000000000000004
 11
17.94026184082031
 21
218.8152618408203
 31
3.000000000000004
  0
LINE
  5
EF
  8
DEFAULT
 10
17.94026184082031
 20
218.8152618408203
 30
3.000000000000004
 11
17.92470294237136
 21
218.9559529423713
 31
3.000000000000004
  0
LINE
  5
F0
  8
DEFAULT
 10
17.92470294237136
 20
218.9559529423713
 30
3.000000000000004
 11
17.9067735671997
 21
219.0942735671997
 31
3.000000000000004
  0
LINE
  5
F1
  8
DEFAULT
 10
17.9067735671997
 20
219.0942735671997
 30
3.000000000000004
 11
17.88634139299392
 21
219.2300913929939
 31
3.000000000000004
  0
LINE
  5
F2
  8
DEFAULT
 10
17.88634139299392
 20
219.2300913929939
 30
3.000000000000004
 11
17.86328124999999
 21
219.3632812499999
 31
3.000000000000004
  0
LINE
  5
F3
  8
DEFAULT
 10
17.86328124999999
 20
219.3632812499999
 30
3.000000000000004
 11
17.83747512102126
 21
219.4937251210212
 31
3.000000000000004
  0
LINE
  5
F4
  8
DEFAULT
 10
17.83747512102126
 20
219.4937251210212
 30
3.000000000000004
 11
17.80881214141845
 21
219.6213121414184
 31
3.000000000000004
  0
LINE
  5
F5
  8
DEFAULT
 10
17.80881214141845
 20
219.6213121414184
 30
3.000000000000004
 11
17.77718859910964
 21
219.7459385991096
 31
3.000000000000004
  0
LINE
  5
F6
  8
DEFAULT
 10
17.77718859910964
 20
219.7459385991096
 30
3.000000000000004
 11
17.74250793457031
 21
219.8675079345703
 31
3.000000000000004
  0
LINE
  5
F7
  8
DEFAULT
 10
17.74250793457031
 20
219.8675079345703
 30
3.000000000000004
 11
17.70468074083328
 21
219.9859307408332
 31
3.000000000000004
  0
LINE
  5
F8
  8
DEFAULT
 10
17.70468074083328
 20
219.9859307408332
 30
3.000000000000004
 11
17.66362476348876
 21
220.1011247634887
 31
3.000000000000004
  0
LINE
  5
F9
  8
DEFAULT
 10
17.66362476348876
 20
220.1011247634887
 30
3.000000000000004
 11
17.64186223223805
 21
220.157487232238
 31
3.000000000000004
  0
LINE
  5
FA
  8
DEFAULT
 10
17.64186223223805
 20
220.157487232238
 30
3.000000000000004
 11
17.61926490068436
 21
220.2130149006843
 31
3.000000000000004
  0
LINE
  5
FB
  8
DEFAULT
 10
17.61926490068436
 20
220.2130149006843
 30
3.000000000000004
 11
17.59582449868321
 21
220.2676994986832
 31
3.000000000000004
  0
LINE
  5
FC
  8
DEFAULT
 10
17.59582449868321
 20
220.2676994986832
 30
3.000000000000004
 11
17.571533203125
 21
220.3215332031249
 31
3.000000000000004
  0
LINE
  5
FD
  8
DEFAULT
 10
17.571533203125
 20
220.3215332031249
 30
3.000000000000004
 11
17.54638363793492
 21
220.3745086379349
 31
3.000000000000004
  0
LINE
  5
FE
  8
DEFAULT
 10
17.54638363793492
 20
220.3745086379349
 30
3.000000000000004
 11
17.52036887407303
 21
220.426618874073
 31
3.000000000000004
  0
LINE
  5
FF
  8
DEFAULT
 10
17.52036887407303
 20
220.426618874073
 30
3.000000000000004
 11
17.4934824295342
 21
220.4778574295341
 31
3.000000000000004
  0
LINE
  5
100
  8
DEFAULT
 10
17.4934824295342
 20
220.4778574295341
 30
3.000000000000004
 11
17.46571826934814
 21
220.5282182693481
 31
3.000000000000004
  0
LINE
  5
101
  8
DEFAULT
 10
17.46571826934814
 20
220.5282182693481
 30
3.000000000000004
 11
17.43707080557942
 21
220.5776958055794
 31
3.000000000000004
  0
LINE
  5
102
  8
DEFAULT
 10
17.43707080557942
 20
220.5776958055794
 30
3.000000000000004
 11
17.40753489732742
 21
220.6262848973274
 31
3.000000000000004
  0
LINE
  5
103
  8
DEFAULT
 10
17.40753489732742
 20
220.6262848973274
 30
3.000000000000004
 11
17.37710585072637
 21
220.6739808507263
 31
3.000000000000004
  0
LINE
  5
104
  8
DEFAULT
 10
17.37710585072637
 20
220.6739808507263
 30
3.000000000000004
 11
17.34577941894531
 21
220.7207794189453
 31
3.000000000000004
  0
LINE
  5
105
  8
DEFAULT
 10
17.34577941894531
 20
220.7207794189453
 30
3.000000000000004
 11
17.31355180218816
 21
220.7666768021881
 31
3.000000000000004
  0
LINE
  5
106
  8
DEFAULT
 10
17.31355180218816
 20
220.7666768021881
 30
3.000000000000004
 11
17.28041964769363
 21
220.8116696476936
 31
3.000000000000004
  0
LINE
  5
107
  8
DEFAULT
 10
17.28041964769363
 20
220.8116696476936
 30
3.000000000000004
 11
17.24638004973531
 21
220.8557550497353
 31
3.000000000000004
  0
LINE
  5
108
  8
DEFAULT
 10
17.24638004973531
 20
220.8557550497353
 30
3.000000000000004
 11
17.21143054962158
 21
220.8989305496215
 31
3.000000000000004
  0
LINE
  5
109
  8
DEFAULT
 10
17.21143054962158
 20
220.8989305496215
 30
3.000000000000004
 11
17.1755691356957
 21
220.9411941356956
 31
3.000000000000004
  0
LINE
  5
10A
  8
DEFAULT
 10
17.1755691356957
 20
220.9411941356956
 30
3.000000000000004
 11
17.13879424333572
 21
220.9825442433357
 31
3.000000000000004
  0
LINE
  5
10B
  8
DEFAULT
 10
17.13879424333572
 20
220.9825442433357
 30
3.000000000000004
 11
17.10110475495458
 21
221.0229797549545
 31
3.000000000000004
  0
LINE
  5
10C
  8
DEFAULT
 10
17.10110475495458
 20
221.0229797549545
 30
3.000000000000004
 11
17.0625
 21
221.0625
 31
3.000000000000004
  0
LINE
  5
10D
  8
DEFAULT
 10
17.0625
 20
221.0625
 30
3.000000000000004
 11
17.02297975495458
 21
221.1011047549546
 31
3.000000000000004
  0
LINE
  5
10E
  8
DEFAULT
 10
17.02297975495458
 20
221.1011047549546
 30
3.000000000000004
 11
16.98254424333573
 21
221.1387942433357
 31
3.000000000000004
  0
LINE
  5
10F
  8
DEFAULT
 10
16.98254424333573
 20
221.1387942433357
 30
3.000000000000004
 11
16.9411941356957
 21
221.1755691356957
 31
3.000000000000004
  0
LINE
  5
110
  8
DEFAULT
 10
16.9411941356957
 20
221.1755691356957
 30
3.000000000000004
 11
16.89893054962159
 21
221.2114305496216
 31
3.000000000000004
  0
LINE
  5
111
  8
DEFAULT
 10
16.89893054962159
 20
221.2114305496216
 30
3.000000000000004
 11
16.85575504973531
 21
221.2463800497353
 31
3.000000000000004
  0
LINE
  5
112
  8
DEFAULT
 10
16.85575504973531
 20
221.2463800497353
 30
3.000000000000004
 11
16.81166964769364
 21
221.2804196476936
 31
3.000000000000004
  0
LINE
  5
113
  8
DEFAULT
 10
16.81166964769364
 20
221.2804196476936
 30
3.000000000000004
 11
16.76667680218817
 21
221.3135518021882
 31
3.000000000000004
  0
LINE
  5
114
  8
DEFAULT
 10
16.76667680218817
 20
221.3135518021882
 30
3.000000000000004
 11
16.72077941894532
 21
221.3457794189453
 31
3.000000000000004
  0
LINE
  5
115
  8
DEFAULT
 10
16.72077941894532
 20
221.3457794189453
 30
3.000000000000004
 11
16.67398085072637
 21
221.3771058507264
 31
3.000000000000004
  0
LINE
  5
116
  8
DEFAULT
 10
16.67398085072637
 20
221.3771058507264
 30
3.000000000000004
 11
16.62628489732743
 21
221.4075348973274
 31
3.000000000000004
  0
LINE
  5
117
  8
DEFAULT
 10
16.62628489732743
 20
221.4075348973274
 30
3.000000000000004
 11
16.57769580557943
 21
221.4370708055794
 31
3.000000000000004
  0
LINE
  5
118
  8
DEFAULT
 10
16.57769580557943
 20
221.4370708055794
 30
3.000000000000004
 11
16.52821826934815
 21
221.4657182693481
 31
3.000000000000004
  0
LINE
  5
119
  8
DEFAULT
 10
16.52821826934815
 20
221.4657182693481
 30
3.000000000000004
 11
16.4778574295342
 21
221.4934824295342
 31
3.000000000000004
  0
LINE
  5
11A
  8
DEFAULT
 10
16.4778574295342
 20
221.4934824295342
 30
3.000000000000004
 11
16.42661887407304
 21
221.520368874073
 31
3.000000000000004
  0
LINE
  5
11B
  8
DEFAULT
 10
16.42661887407304
 20
221.520368874073
 30
3.000000000000004
 11
16.37450863793493
 21
221.5463836379349
 31
3.000000000000004
  0
LINE
  5
11C
  8
DEFAULT
 10
16.37450863793493
 20
221.5463836379349
 30
3.000000000000004
 11
16.32153320312501
 21
221.571533203125
 31
3.000000000000004
  0
LINE
  5
11D
  8
DEFAULT
 10
16.32153320312501
 20
221.571533203125
 30
3.000000000000004
 11
16.26769949868322
 21
221.5958244986832
 31
3.000000000000004
  0
LINE
  5
11E
  8
DEFAULT
 10
16.26769949868322
 20
221.5958244986832
 30
3.000000000000004
 11
16.21301490068436
 21
221.6192649006844
 31
3.000000000000004
  0
LINE
  5
11F
  8
DEFAULT
 10
16.21301490068436
 20
221.6192649006844
 30
3.000000000000004
 11
16.15748723223806
 21
221.6418622322381
 31
3.000000000000004
  0
LINE
  5
120
  8
DEFAULT
 10
16.15748723223806
 20
221.6418622322381
 30
3.000000000000004
 11
16.10112476348878
 21
221.6636247634888
 31
3.000000000000004
  0
LINE
  5
121
  8
DEFAULT
 10
16.10112476348878
 20
221.6636247634888
 30
3.000000000000004
 11
15.98593074083329
 21
221.7046807408333
 31
3.000000000000004
  0
LINE
  5
122
  8
DEFAULT
 10
15.98593074083329
 20
221.7046807408333
 30
3.000000000000004
 11
15.86750793457032
 21
221.7425079345703
 31
3.000000000000004
  0
LINE
  5
123
  8
DEFAULT
 10
15.86750793457032
 20
221.7425079345703
 30
3.000000000000004
 11
15.74593859910966
 21
221.7771885991096
 31
3.000000000000005
  0
LINE
  5
124
  8
DEFAULT
 10
15.74593859910966
 20
221.7771885991096
 30
3.000000000000005
 11
15.62131214141846
 21
221.8088121414185
 31
3.000000000000005
  0
LINE
  5
125
  8
DEFAULT
 10
15.62131214141846
 20
221.8088121414185
 30
3.000000000000005
 11
15.49372512102128
 21
221.8374751210213
 31
3.000000000000005
  0
LINE
  5
126
  8
DEFAULT
 10
15.49372512102128
 20
221.8374751210213
 30
3.000000000000005
 11
15.36328125000001
 21
221.86328125
 31
3.000000000000005
  0
LINE
  5
127
  8
DEFAULT
 10
15.36328125000001
 20
221.86328125
 30
3.000000000000005
 11
15.23009139299393
 21
221.8863413929939
 31
3.000000000000005
  0
LINE
  5
128
  8
DEFAULT
 10
15.23009139299393
 20
221.8863413929939
 30
3.000000000000005
 11
15.09427356719971
 21
221.9067735671997
 31
3.000000000000005
  0
LINE
  5
129
  8
DEFAULT
 10
15.09427356719971
 20
221.9067735671997
 30
3.000000000000005
 11
14.95595294237137
 21
221.9247029423714
 31
3.000000000000005
  0
LINE
  5
12A
  8
DEFAULT
 10
14.95595294237137
 20
221.9247029423714
 30
3.000000000000005
 11
14.81526184082032
 21
221.9402618408203
 31
3.000000000000005
  0
LINE
  5
12B
  8
DEFAULT
 10
14.81526184082032
 20
221.9402618408203
 30
3.000000000000005
 11
14.52733325958252
 21
221.9648332595825
 31
3.000000000000005
  0
LINE
  5
12C
  8
DEFAULT
 10
14.52733325958252
 20
221.9648332595825
 30
3.000000000000005
 11
14.231689453125
 21
221.981689453125
 31
3.000000000000005
  0
LINE
  5
12D
  8
DEFAULT
 10
14.231689453125
 20
221.981689453125
 30
3.000000000000005
 11
13.62263488769531
 21
221.9976348876953
 31
3.000000000000005
  0
LINE
  5
12E
  8
DEFAULT
 10
13.62263488769531
 20
221.9976348876953
 30
3.000000000000005
 11
12.99999999999999
 21
222.0
 31
3.000000000000006
  0
LINE
  5
12F
  8
DEFAULT
 10
12.99999999999999
 20
222.0
 30
3.000000000000006
 11
-131.0
 21
222.0
 31
3.000000000000003
  0
LINE
  5
130
  8
DEFAULT
 10
-131.0
 20
222.0
 30
3.000000000000003
 11
-131.6226348876953
 21
221.9976348876953
 31
3.000000000000004
  0
LINE
  5
131
  8
DEFAULT
 10
-131.6226348876953
 20
221.9976348876953
 30
3.000000000000004
 11
-132.2316894531249
 21
221.981689453125
 31
3.000000000000006
  0
LINE
  5
132
  8
DEFAULT
 10
-132.2316894531249
 20
221.981689453125
 30
3.000000000000006
 11
-132.5273332595825
 21
221.9648332595825
 31
3.000000000000006
  0
LINE
  5
133
  8
DEFAULT
 10
-132.5273332595825
 20
221.9648332595825
 30
3.000000000000006
 11
-132.8152618408203
 21
221.9402618408203
 31
3.000000000000007
  0
LINE
  5
134
  8
DEFAULT
 10
-132.8152618408203
 20
221.9402618408203
 30
3.000000000000007
 11
-132.9559529423713
 21
221.9247029423714
 31
3.000000000000007
  0
LINE
  5
135
  8
DEFAULT
 10
-132.9559529423713
 20
221.9247029423714
 30
3.000000000000007
 11
-133.0942735671997
 21
221.9067735671997
 31
3.000000000000007
  0
LINE
  5
136
  8
DEFAULT
 10
-133.0942735671997
 20
221.9067735671997
 30
3.000000000000007
 11
-133.2300913929939
 21
221.8863413929939
 31
3.000000000000008
  0
LINE
  5
137
  8
DEFAULT
 10
-133.2300913929939
 20
221.8863413929939
 30
3.000000000000008
 11
-133.3632812499999
 21
221.86328125
 31
3.000000000000008
  0
LINE
  5
138
  8
DEFAULT
 10
-133.3632812499999
 20
221.86328125
 30
3.000000000000008
 11
-133.4937251210212
 21
221.8374751210213
 31
3.000000000000008
  0
LINE
  5
139
  8
DEFAULT
 10
-133.4937251210212
 20
221.8374751210213
 30
3.000000000000008
 11
-133.6213121414184
 21
221.8088121414185
 31
3.000000000000009
  0
LINE
  5
13A
  8
DEFAULT
 10
-133.6213121414184
 20
221.8088121414185
 30
3.000000000000009
 11
-133.7459385991096
 21
221.7771885991096
 31
3.000000000000009
  0
LINE
  5
13B
  8
DEFAULT
 10
-133.7459385991096
 20
221.7771885991096
 30
3.000000000000009
 11
-133.8675079345703
 21
221.7425079345703
 31
3.000000000000009
  0
LINE
  5
13C
  8
DEFAULT
 10
-133.8675079345703
 20
221.7425079345703
 30
3.000000000000009
 11
-133.9859307408332
 21
221.7046807408333
 31
3.000000000000009
  0
LINE
  5
13D
  8
DEFAULT
 10
-133.9859307408332
 20
221.7046807408333
 30
3.000000000000009
 11
-134.1011247634887
 21
221.6636247634888
 31
3.000000000000009
  0
LINE
  5
13E
  8
DEFAULT
 10
-134.1011247634887
 20
221.6636247634888
 30
3.000000000000009
 11
-134.157487232238
 21
221.6418622322381
 31
3.00000000000001
  0
LINE
  5
13F
  8
DEFAULT
 10
-134.157487232238
 20
221.6418622322381
 30
3.00000000000001
 11
-134.2130149006843
 21
221.6192649006844
 31
3.00000000000001
  0
LINE
  5
140
  8
DEFAULT
 10
-134.2130149006843
 20
221.6192649006844
 30
3.00000000000001
 11
-134.2676994986832
 21
221.5958244986832
 31
3.00000000000001
  0
LINE
  5
141
  8
DEFAULT
 10
-134.2676994986832
 20
221.5958244986832
 30
3.00000000000001
 11
-134.3215332031249
 21
221.571533203125
 31
3.00000000000001
  0
LINE
  5
142
  8
DEFAULT
 10
-134.3215332031249
 20
221.571533203125
 30
3.00000000000001
 11
-134.3745086379349
 21
221.5463836379349
 31
3.00000000000001
  0
LINE
  5
143
  8
DEFAULT
 10
-134.3745086379349
 20
221.5463836379349
 30
3.00000000000001
 11
-134.426618874073
 21
221.520368874073
 31
3.00000000000001
  0
LINE
  5
144
  8
DEFAULT
 10
-134.426618874073
 20
221.520368874073
 30
3.00000000000001
 11
-134.4778574295341
 21
221.4934824295342
 31
3.00000000000001
  0
LINE
  5
145
  8
DEFAULT
 10
-134.4778574295341
 20
221.4934824295342
 30
3.00000000000001
 11
-134.5282182693481
 21
221.4657182693481
 31
3.00000000000001
  0
LINE
  5
146
  8
DEFAULT
 10
-134.5282182693481
 20
221.4657182693481
 30
3.00000000000001
 11
-134.5776958055794
 21
221.4370708055794
 31
3.00000000000001
  0
LINE
  5
147
  8
DEFAULT
 10
-134.5776958055794
 20
221.4370708055794
 30
3.00000000000001
 11
-134.6262848973274
 21
221.4075348973274
 31
3.00000000000001
  0
LINE
  5
148
  8
DEFAULT
 10
-134.6262848973274
 20
221.4075348973274
 30
3.00000000000001
 11
-134.6739808507263
 21
221.3771058507264
 31
3.00000000000001
  0
LINE
  5
149
  8
DEFAULT
 10
-134.6739808507263
 20
221.3771058507264
 30
3.00000000000001
 11
-134.7207794189453
 21
221.3457794189453
 31
3.00000000000001
  0
LINE
  5
14A
  8
DEFAULT
 10
-134.7207794189453
 20
221.3457794189453
 30
3.00000000000001
 11
-134.7666768021881
 21
221.3135518021882
 31
3.00000000000001
  0
LINE
  5
14B
  8
DEFAULT
 10
-134.7666768021881
 20
221.3135518021882
 30
3.00000000000001
 11
-134.8116696476936
 21
221.2804196476936
 31
3.00000000000001
  0
LINE
  5
14C
  8
DEFAULT
 10
-134.8116696476936
 20
221.2804196476936
 30
3.00000000000001
 11
-134.8557550497353
 21
221.2463800497353
 31
3.00000000000001
  0
LINE
  5
14D
  8
DEFAULT
 10
-134.8557550497353
 20
221.2463800497353
 30
3.00000000000001
 11
-134.8989305496215
 21
221.2114305496216
 31
3.00000000000001
  0
LINE
  5
14E
  8
DEFAULT
 10
-134.8989305496215
 20
221.2114305496216
 30
3.00000000000001
 11
-134.9411941356956
 21
221.1755691356957
 31
3.00000000000001
  0
LINE
  5
14F
  8
DEFAULT
 10
-134.9411941356956
 20
221.1755691356957
 30
3.00000000000001
 11
-134.9825442433357
 21
221.1387942433357
 31
3.00000000000001
  0
LINE
  5
150
  8
DEFAULT
 10
-134.9825442433357
 20
221.1387942433357
 30
3.00000000000001
 11
-135.0229797549545
 21
221.1011047549546
 31
3.00000000000001
  0
LINE
  5
151
  8
DEFAULT
 10
-135.0229797549545
 20
221.1011047549546
 30
3.00000000000001
 11
-135.0624999999999
 21
221.0625
 31
3.00000000000001
  0
LINE
  5
152
  8
DEFAULT
 10
-135.0624999999999
 20
221.0625
 30
3.00000000000001
 11
-135.1011047549545
 21
221.0229797549546
 31
3.000000000000011
  0
LINE
  5
153
  8
DEFAULT
 10
-135.1011047549545
 20
221.0229797549546
 30
3.000000000000011
 11
-135.1387942433357
 21
220.9825442433358
 31
3.000000000000011
  0
LINE
  5
154
  8
DEFAULT
 10
-135.1387942433357
 20
220.9825442433358
 30
3.000000000000011
 11
-135.1755691356956
 21
220.9411941356958
 31
3.000000000000011
  0
LINE
  5
155
  8
DEFAULT
 10
-135.1755691356956
 20
220.9411941356958
 30
3.000000000000011
 11
-135.2114305496215
 21
220.8989305496216
 31
3.000000000000011
  0
LINE
  5
156
  8
DEFAULT
 10
-135.2114305496215
 20
220.8989305496216
 30
3.000000000000011
 11
-135.2463800497353
 21
220.8557550497354
 31
3.000000000000011
  0
LINE
  5
157
  8
DEFAULT
 10
-135.2463800497353
 20
220.8557550497354
 30
3.000000000000011
 11
-135.2804196476936
 21
220.8116696476937
 31
3.000000000000011
  0
LINE
  5
158
  8
DEFAULT
 10
-135.2804196476936
 20
220.8116696476937
 30
3.000000000000011
 11
-135.3135518021881
 21
220.7666768021882
 31
3.000000000000011
  0
LINE
  5
159
  8
DEFAULT
 10
-135.3135518021881
 20
220.7666768021882
 30
3.000000000000011
 11
-135.3457794189453
 21
220.7207794189454
 31
3.000000000000011
  0
LINE
  5
15A
  8
DEFAULT
 10
-135.3457794189453
 20
220.7207794189454
 30
3.000000000000011
 11
-135.3771058507263
 21
220.6739808507264
 31
3.000000000000011
  0
LINE
  5
15B
  8
DEFAULT
 10
-135.3771058507263
 20
220.6739808507264
 30
3.000000000000011
 11
-135.4075348973274
 21
220.6262848973275
 31
3.000000000000011
  0
LINE
  5
15C
  8
DEFAULT
 10
-135.4075348973274
 20
220.6262848973275
 30
3.000000000000011
 11
-135.4370708055794
 21
220.5776958055795
 31
3.000000000000011
  0
LINE
  5
15D
  8
DEFAULT
 10
-135.4370708055794
 20
220.5776958055795
 30
3.000000000000011
 11
-135.4657182693481
 21
220.5282182693482
 31
3.000000000000011
  0
LINE
  5
15E
  8
DEFAULT
 10
-135.4657182693481
 20
220.5282182693482
 30
3.000000000000011
 11
-135.4934824295341
 21
220.4778574295343
 31
3.000000000000011
  0
LINE
  5
15F
  8
DEFAULT
 10
-135.4934824295341
 20
220.4778574295343
 30
3.000000000000011
 11
-135.520368874073
 21
220.4266188740731
 31
3.000000000000011
  0
LINE
  5
160
  8
DEFAULT
 10
-135.520368874073
 20
220.4266188740731
 30
3.000000000000011
 11
-135.5463836379349
 21
220.374508637935
 31
3.000000000000011
  0
LINE
  5
161
  8
DEFAULT
 10
-135.5463836379349
 20
220.374508637935
 30
3.000000000000011
 11
-135.5715332031249
 21
220.3215332031251
 31
3.000000000000011
  0
LINE
  5
162
  8
DEFAULT
 10
-135.5715332031249
 20
220.3215332031251
 30
3.000000000000011
 11
-135.5958244986832
 21
220.2676994986833
 31
3.000000000000011
  0
LINE
  5
163
  8
DEFAULT
 10
-135.5958244986832
 20
220.2676994986833
 30
3.000000000000011
 11
-135.6192649006843
 21
220.2130149006844
 31
3.000000000000011
  0
LINE
  5
164
  8
DEFAULT
 10
-135.6192649006843
 20
220.2130149006844
 30
3.000000000000011
 11
-135.641862232238
 21
220.1574872322381
 31
3.000000000000011
  0
LINE
  5
165
  8
DEFAULT
 10
-135.641862232238
 20
220.1574872322381
 30
3.000000000000011
 11
-135.6636247634887
 21
220.1011247634888
 31
3.000000000000012
  0
LINE
  5
166
  8
DEFAULT
 10
-135.6636247634887
 20
220.1011247634888
 30
3.000000000000012
 11
-135.7046807408332
 21
219.9859307408333
 31
3.000000000000012
  0
LINE
  5
167
  8
DEFAULT
 10
-135.7046807408332
 20
219.9859307408333
 30
3.000000000000012
 11
-135.7425079345703
 21
219.8675079345704
 31
3.000000000000012
  0
LINE
  5
168
  8
DEFAULT
 10
-135.7425079345703
 20
219.8675079345704
 30
3.000000000000012
 11
-135.7771885991096
 21
219.7459385991097
 31
3.000000000000012
  0
LINE
  5
169
  8
DEFAULT
 10
-135.7771885991096
 20
219.7459385991097
 30
3.000000000000012
 11
-135.8088121414184
 21
219.6213121414185
 31
3.000000000000012
  0
LINE
  5
16A
  8
DEFAULT
 10
-135.8088121414184
 20
219.6213121414185
 30
3.000000000000012
 11
-135.8374751210212
 21
219.4937251210213
 31
3.000000000000012
  0
LINE
  5
16B
  8
DEFAULT
 10
-135.8374751210212
 20
219.4937251210213
 30
3.000000000000012
 11
-135.8632812499999
 21
219.3632812500001
 31
3.000000000000012
  0
LINE
  5
16C
  8
DEFAULT
 10
-135.8632812499999
 20
219.3632812500001
 30
3.000000000000012
 11
-135.8863413929939
 21
219.230091392994
 31
3.000000000000012
  0
LINE
  5
16D
  8
DEFAULT
 10
-135.8863413929939
 20
219.230091392994
 30
3.000000000000012
 11
-135.9067735671997
 21
219.0942735671998
 31
3.000000000000013
  0
LINE
  5
16E
  8
DEFAULT
 10
-135.9067735671997
 20
219.0942735671998
 30
3.000000000000013
 11
-135.9247029423713
 21
218.9559529423714
 31
3.000000000000013
  0
LINE
  5
16F
  8
DEFAULT
 10
-135.9247029423713
 20
218.9559529423714
 30
3.000000000000013
 11
-135.9402618408203
 21
218.8152618408203
 31
3.000000000000013
  0
LINE
  5
170
  8
DEFAULT
 10
-135.9402618408203
 20
218.8152618408203
 30
3.000000000000013
 11
-135.9648332595825
 21
218.5273332595825
 31
3.000000000000014
  0
LINE
  5
171
  8
DEFAULT
 10
-135.9648332595825
 20
218.5273332595825
 30
3.000000000000014
 11
-135.9816894531249
 21
218.231689453125
 31
3.000000000000015
  0
LINE
  5
172
  8
DEFAULT
 10
-135.9816894531249
 20
218.231689453125
 30
3.000000000000015
 11
-135.9976348876953
 21
217.6226348876953
 31
3.000000000000016
  0
LINE
  5
173
  8
DEFAULT
 10
-135.9976348876953
 20
217.6226348876953
 30
3.000000000000016
 11
-135.9999999999999
 21
217.0
 31
3.000000000000017
  0
LINE
  5
174
  8
DEFAULT
 10
-135.9999999999999
 20
217.0
 30
3.000000000000017
 11
-135.9999999999999
 21
208.6467200543266
 31
3.000000000000009
  0
ARC
  5
175
  8
DEFAULT
 10
-133.9999999999999
 20
208.6467200543267
 30
3.000000000000005
 40
2.0
 50
180.0000000000008
 51
291.3236862634969
  0
ARC
  5
176
  8
DEFAULT
 10
132.0000000000001
 20
203.5232446713469
 30
-2.999999999999997
 40
3.499999999999957
 50
68.67631373650316
 51
291.3236862634982
210
0.0
220
0.0
230
-1.0
  0
ARC
  5
177
  8
DEFAULT
 10
-133.9999999999999
 20
198.3997692883671
 30
3.000000000000001
 40
2.0
 50
68.67631373650569
 51
180.0
  0
LINE
  5
178
  8
DEFAULT
 10
-135.9999999999999
 20
198.3997692883671
 30
3.000000000000005
 11
-136.0
 21
182.6002307116329
 31
3.000000000000003
  0
ARC
  5
179
  8
DEFAULT
 10
-134.0
 20
182.6002307116329
 30
3.000000000000001
 40
2.0
 50
180.0000000000008
 51
291.3236862634984
  0
ARC
  5
17A
  8
DEFAULT
 10
132.0000000000001
 20
177.4767553286532
 30
-2.999999999999999
 40
3.499999999999957
 50
68.67631373650316
 51
291.3236862634969
210
0.0
220
0.0
230
-1.0
  0
ARC
  5
17B
  8
DEFAULT
 10
-134.0
 20
172.3532799456734
 30
3.0
 40
2.0
 50
68.67631373650235
 51
180.0
  0
CIRCLE
  5
17C
  8
DEFAULT
 10
-6.999999999999996
 20
177.4767553286531
 30
2.999999999999998
 40
3.5
  0
CIRCLE
  5
17D
  8
DEFAULT
 10
-35.00000000000001
 20
177.4767553286531
 30
2.999999999999998
 40
3.5
  0
CIRCLE
  5
17E
  8
DEFAULT
 10
-6.999999999999996
 20
203.5232446713468
 30
2.999999999999998
 40
3.5
  0
CIRCLE
  5
17F
  8
DEFAULT
 10
-35.00000000000001
 20
203.5232446713469
 30
2.999999999999998
 40
3.5
  0
CIRCLE
  5
180
  8
DEFAULT
 10
-12.99999999999999
 20
217.0
 30
-3.000000000000003
 40
3.050000000000004
210
0.0
220
0.0
230
-1.0
  0
CIRCLE
  5
181
  8
DEFAULT
 10
-12.99999999999998
 20
164.0
 30
-3.000000000000003
 40
3.049999999999995
210
0.0
220
0.0
230
-1.0
  0
CIRCLE
  5
182
  8
DEFAULT
 10
130.9999999999999
 20
217.0
 30
-3.000000000000003
 40
3.049999999999969
210
0.0
220
0.0
230
-1.0
  0
CIRCLE
  5
183
  8
DEFAULT
 10
131.0
 20
164.0
 30
-3.000000000000003
 40
3.049999999999997
210
0.0
220
0.0
230
-1.0
  0
CIRCLE
  5
184
  8
DEFAULT
 10
131.0
 20
95.00000000000001
 30
-3.000000000000003
 40
3.050000000000026
210
0.0
220
0.0
230
-1.0
  0
CIRCLE
  5
185
  8
DEFAULT
 10
131.0
 20
148.0
 30
-3.000000000000003
 40
3.049999999999997
210
0.0
220
0.0
230
-1.0
  0
CIRCLE
  5
186
  8
DEFAULT
 10
-12.99999999999998
 20
95.00000000000001
 30
-3.000000000000003
 40
3.049999999999995
210
0.0
220
0.0
230
-1.0
  0
CIRCLE
  5
187
  8
DEFAULT
 10
-12.99999999999998
 20
148.0
 30
-3.000000000000003
 40
3.049999999999995
210
0.0
220
0.0
230
-1.0
  0
CIRCLE
  5
188
  8
DEFAULT
 10
35.0
 20
108.4767553286531
 30
-2.999999999999998
 40
1.5
210
0.0
220
0.0
230
-1.0
  0
CIRCLE
  5
189
  8
DEFAULT
 10
6.999999999999996
 20
108.4767553286531
 30
-2.999999999999998
 40
1.499999999999996
210
0.0
220
0.0
230
-1.0
  0
CIRCLE
  5
18A
  8
DEFAULT
 10
6.999999999999996
 20
134.5232446713469
 30
-2.999999999999998
 40
1.499999999999996
210
0.0
220
0.0
230
-1.0
  0
CIRCLE
  5
18B
  8
DEFAULT
 10
35.00000000000001
 20
134.5232446713469
 30
-2.999999999999998
 40
1.500000000000007
210
0.0
220
0.0
230
-1.0
  0
CIRCLE
  5
18C
  8
DEFAULT
 10
132.0
 20
134.5232446713469
 30
-2.999999999999997
 40
1.5
210
0.0
220
0.0
230
-1.0
  0
CIRCLE
  5
18D
  8
DEFAULT
 10
132.0
 20
108.4767553286531
 30
-2.999999999999999
 40
1.5
210
0.0
220
0.0
230
-1.0
  0
LINE
  5
18E
  8
DEFAULT
 10
12.99999999999999
 20
153.0
 30
3.000000000000006
 11
-131.0
 21
153.0
 31
3.000000000000003
  0
LINE
  5
18F
  8
DEFAULT
 10
-131.0
 20
153.0
 30
3.000000000000003
 11
-131.6226348876953
 21
152.9976348876953
 31
3.000000000000004
  0
LINE
  5
190
  8
DEFAULT
 10
-131.6226348876953
 20
152.9976348876953
 30
3.000000000000004
 11
-132.2316894531249
 21
152.981689453125
 31
3.000000000000006
  0
LINE
  5
191
  8
DEFAULT
 10
-132.2316894531249
 20
152.981689453125
 30
3.000000000000006
 11
-132.5273332595825
 21
152.9648332595825
 31
3.000000000000006
  0
LINE
  5
192
  8
DEFAULT
 10
-132.5273332595825
 20
152.9648332595825
 30
3.000000000000006
 11
-132.8152618408203
 21
152.9402618408203
 31
3.000000000000007
  0
LINE
  5
193
  8
DEFAULT
 10
-132.8152618408203
 20
152.9402618408203
 30
3.000000000000007
 11
-132.9559529423713
 21
152.9247029423714
 31
3.000000000000007
  0
LINE
  5
194
  8
DEFAULT
 10
-132.9559529423713
 20
152.9247029423714
 30
3.000000000000007
 11
-133.0942735671997
 21
152.9067735671997
 31
3.000000000000007
  0
LINE
  5
195
  8
DEFAULT
 10
-133.0942735671997
 20
152.9067735671997
 30
3.000000000000007
 11
-133.2300913929939
 21
152.8863413929939
 31
3.000000000000008
  0
LINE
  5
196
  8
DEFAULT
 10
-133.2300913929939
 20
152.8863413929939
 30
3.000000000000008
 11
-133.3632812499999
 21
152.86328125
 31
3.000000000000008
  0
LINE
  5
197
  8
DEFAULT
 10
-133.3632812499999
 20
152.86328125
 30
3.000000000000008
 11
-133.4937251210212
 21
152.8374751210213
 31
3.000000000000008
  0
LINE
  5
198
  8
DEFAULT
 10
-133.4937251210212
 20
152.8374751210213
 30
3.000000000000008
 11
-133.6213121414184
 21
152.8088121414185
 31
3.000000000000009
  0
LINE
  5
199
  8
DEFAULT
 10
-133.6213121414184
 20
152.8088121414185
 30
3.000000000000009
 11
-133.7459385991096
 21
152.7771885991096
 31
3.000000000000009
  0
LINE
  5
19A
  8
DEFAULT
 10
-133.7459385991096
 20
152.7771885991096
 30
3.000000000000009
 11
-133.8675079345703
 21
152.7425079345703
 31
3.000000000000009
  0
LINE
  5
19B
  8
DEFAULT
 10
-133.8675079345703
 20
152.7425079345703
 30
3.000000000000009
 11
-133.9859307408332
 21
152.7046807408333
 31
3.000000000000009
  0
LINE
  5
19C
  8
DEFAULT
 10
-133.9859307408332
 20
152.7046807408333
 30
3.000000000000009
 11
-134.1011247634887
 21
152.6636247634888
 31
3.000000000000009
  0
LINE
  5
19D
  8
DEFAULT
 10
-134.1011247634887
 20
152.6636247634888
 30
3.000000000000009
 11
-134.157487232238
 21
152.6418622322381
 31
3.00000000000001
  0
LINE
  5
19E
  8
DEFAULT
 10
-134.157487232238
 20
152.6418622322381
 30
3.00000000000001
 11
-134.2130149006843
 21
152.6192649006844
 31
3.00000000000001
  0
LINE
  5
19F
  8
DEFAULT
 10
-134.2130149006843
 20
152.6192649006844
 30
3.00000000000001
 11
-134.2676994986832
 21
152.5958244986832
 31
3.00000000000001
  0
LINE
  5
1A0
  8
DEFAULT
 10
-134.2676994986832
 20
152.5958244986832
 30
3.00000000000001
 11
-134.3215332031249
 21
152.571533203125
 31
3.00000000000001
  0
LINE
  5
1A1
  8
DEFAULT
 10
-134.3215332031249
 20
152.571533203125
 30
3.00000000000001
 11
-134.3745086379349
 21
152.5463836379349
 31
3.00000000000001
  0
LINE
  5
1A2
  8
DEFAULT
 10
-134.3745086379349
 20
152.5463836379349
 30
3.00000000000001
 11
-134.426618874073
 21
152.520368874073
 31
3.00000000000001
  0
LINE
  5
1A3
  8
DEFAULT
 10
-134.426618874073
 20
152.520368874073
 30
3.00000000000001
 11
-134.4778574295341
 21
152.4934824295342
 31
3.00000000000001
  0
LINE
  5
1A4
  8
DEFAULT
 10
-134.4778574295341
 20
152.4934824295342
 30
3.00000000000001
 11
-134.5282182693481
 21
152.4657182693481
 31
3.00000000000001
  0
LINE
  5
1A5
  8
DEFAULT
 10
-134.5282182693481
 20
152.4657182693481
 30
3.00000000000001
 11
-134.5776958055794
 21
152.4370708055794
 31
3.00000000000001
  0
LINE
  5
1A6
  8
DEFAULT
 10
-134.5776958055794
 20
152.4370708055794
 30
3.00000000000001
 11
-134.6262848973274
 21
152.4075348973274
 31
3.00000000000001
  0
LINE
  5
1A7
  8
DEFAULT
 10
-134.6262848973274
 20
152.4075348973274
 30
3.00000000000001
 11
-134.6739808507263
 21
152.3771058507264
 31
3.00000000000001
  0
LINE
  5
1A8
  8
DEFAULT
 10
-134.6739808507263
 20
152.3771058507264
 30
3.00000000000001
 11
-134.7207794189453
 21
152.3457794189453
 31
3.00000000000001
  0
LINE
  5
1A9
  8
DEFAULT
 10
-134.7207794189453
 20
152.3457794189453
 30
3.00000000000001
 11
-134.7666768021881
 21
152.3135518021882
 31
3.00000000000001
  0
LINE
  5
1AA
  8
DEFAULT
 10
-134.7666768021881
 20
152.3135518021882
 30
3.00000000000001
 11
-134.8116696476936
 21
152.2804196476936
 31
3.00000000000001
  0
LINE
  5
1AB
  8
DEFAULT
 10
-134.8116696476936
 20
152.2804196476936
 30
3.00000000000001
 11
-134.8557550497353
 21
152.2463800497353
 31
3.00000000000001
  0
LINE
  5
1AC
  8
DEFAULT
 10
-134.8557550497353
 20
152.2463800497353
 30
3.00000000000001
 11
-134.8989305496215
 21
152.2114305496216
 31
3.00000000000001
  0
LINE
  5
1AD
  8
DEFAULT
 10
-134.8989305496215
 20
152.2114305496216
 30
3.00000000000001
 11
-134.9411941356956
 21
152.1755691356957
 31
3.00000000000001
  0
LINE
  5
1AE
  8
DEFAULT
 10
-134.9411941356956
 20
152.1755691356957
 30
3.00000000000001
 11
-134.9825442433357
 21
152.1387942433357
 31
3.00000000000001
  0
LINE
  5
1AF
  8
DEFAULT
 10
-134.9825442433357
 20
152.1387942433357
 30
3.00000000000001
 11
-135.0229797549545
 21
152.1011047549546
 31
3.00000000000001
  0
LINE
  5
1B0
  8
DEFAULT
 10
-135.0229797549545
 20
152.1011047549546
 30
3.00000000000001
 11
-135.0624999999999
 21
152.0625
 31
3.00000000000001
  0
LINE
  5
1B1
  8
DEFAULT
 10
-135.0624999999999
 20
152.0625
 30
3.00000000000001
 11
-135.1011047549545
 21
152.0229797549546
 31
3.000000000000011
  0
LINE
  5
1B2
  8
DEFAULT
 10
-135.1011047549545
 20
152.0229797549546
 30
3.000000000000011
 11
-135.1387942433357
 21
151.9825442433358
 31
3.000000000000011
  0
LINE
  5
1B3
  8
DEFAULT
 10
-135.1387942433357
 20
151.9825442433358
 30
3.000000000000011
 11
-135.1755691356956
 21
151.9411941356958
 31
3.000000000000011
  0
LINE
  5
1B4
  8
DEFAULT
 10
-135.1755691356956
 20
151.9411941356958
 30
3.000000000000011
 11
-135.2114305496215
 21
151.8989305496216
 31
3.000000000000011
  0
LINE
  5
1B5
  8
DEFAULT
 10
-135.2114305496215
 20
151.8989305496216
 30
3.000000000000011
 11
-135.2463800497353
 21
151.8557550497354
 31
3.000000000000011
  0
LINE
  5
1B6
  8
DEFAULT
 10
-135.2463800497353
 20
151.8557550497354
 30
3.000000000000011
 11
-135.2804196476936
 21
151.8116696476937
 31
3.000000000000011
  0
LINE
  5
1B7
  8
DEFAULT
 10
-135.2804196476936
 20
151.8116696476937
 30
3.000000000000011
 11
-135.3135518021881
 21
151.7666768021882
 31
3.000000000000011
  0
LINE
  5
1B8
  8
DEFAULT
 10
-135.3135518021881
 20
151.7666768021882
 30
3.000000000000011
 11
-135.3457794189453
 21
151.7207794189454
 31
3.000000000000011
  0
LINE
  5
1B9
  8
DEFAULT
 10
-135.3457794189453
 20
151.7207794189454
 30
3.000000000000011
 11
-135.3771058507263
 21
151.6739808507264
 31
3.000000000000011
  0
LINE
  5
1BA
  8
DEFAULT
 10
-135.3771058507263
 20
151.6739808507264
 30
3.000000000000011
 11
-135.4075348973274
 21
151.6262848973275
 31
3.000000000000011
  0
LINE
  5
1BB
  8
DEFAULT
 10
-135.4075348973274
 20
151.6262848973275
 30
3.000000000000011
 11
-135.4370708055794
 21
151.5776958055795
 31
3.000000000000011
  0
LINE
  5
1BC
  8
DEFAULT
 10
-135.4370708055794
 20
151.5776958055795
 30
3.000000000000011
 11
-135.4657182693481
 21
151.5282182693482
 31
3.000000000000011
  0
LINE
  5
1BD
  8
DEFAULT
 10
-135.4657182693481
 20
151.5282182693482
 30
3.000000000000011
 11
-135.4934824295341
 21
151.4778574295343
 31
3.000000000000011
  0
LINE
  5
1BE
  8
DEFAULT
 10
-135.4934824295341
 20
151.4778574295343
 30
3.000000000000011
 11
-135.520368874073
 21
151.4266188740731
 31
3.000000000000011
  0
LINE
  5
1BF
  8
DEFAULT
 10
-135.520368874073
 20
151.4266188740731
 30
3.000000000000011
 11
-135.5463836379349
 21
151.374508637935
 31
3.000000000000011
  0
LINE
  5
1C0
  8
DEFAULT
 10
-135.5463836379349
 20
151.374508637935
 30
3.000000000000011
 11
-135.5715332031249
 21
151.3215332031251
 31
3.000000000000011
  0
LINE
  5
1C1
  8
DEFAULT
 10
-135.5715332031249
 20
151.3215332031251
 30
3.000000000000011
 11
-135.5958244986832
 21
151.2676994986833
 31
3.000000000000011
  0
LINE
  5
1C2
  8
DEFAULT
 10
-135.5958244986832
 20
151.2676994986833
 30
3.000000000000011
 11
-135.6192649006843
 21
151.2130149006844
 31
3.000000000000011
  0
LINE
  5
1C3
  8
DEFAULT
 10
-135.6192649006843
 20
151.2130149006844
 30
3.000000000000011
 11
-135.641862232238
 21
151.1574872322381
 31
3.000000000000011
  0
LINE
  5
1C4
  8
DEFAULT
 10
-135.641862232238
 20
151.1574872322381
 30
3.000000000000011
 11
-135.6636247634887
 21
151.1011247634888
 31
3.000000000000012
  0
LINE
  5
1C5
  8
DEFAULT
 10
-135.6636247634887
 20
151.1011247634888
 30
3.000000000000012
 11
-135.7046807408332
 21
150.9859307408333
 31
3.000000000000012
  0
LINE
  5
1C6
  8
DEFAULT
 10
-135.7046807408332
 20
150.9859307408333
 30
3.000000000000012
 11
-135.7425079345703
 21
150.8675079345704
 31
3.000000000000012
  0
LINE
  5
1C7
  8
DEFAULT
 10
-135.7425079345703
 20
150.8675079345704
 30
3.000000000000012
 11
-135.7771885991096
 21
150.7459385991097
 31
3.000000000000012
  0
LINE
  5
1C8
  8
DEFAULT
 10
-135.7771885991096
 20
150.7459385991097
 30
3.000000000000012
 11
-135.8088121414184
 21
150.6213121414185
 31
3.000000000000012
  0
LINE
  5
1C9
  8
DEFAULT
 10
-135.8088121414184
 20
150.6213121414185
 30
3.000000000000012
 11
-135.8374751210212
 21
150.4937251210213
 31
3.000000000000012
  0
LINE
  5
1CA
  8
DEFAULT
 10
-135.8374751210212
 20
150.4937251210213
 30
3.000000000000012
 11
-135.8632812499999
 21
150.3632812500001
 31
3.000000000000012
  0
LINE
  5
1CB
  8
DEFAULT
 10
-135.8632812499999
 20
150.3632812500001
 30
3.000000000000012
 11
-135.8863413929939
 21
150.230091392994
 31
3.000000000000012
  0
LINE
  5
1CC
  8
DEFAULT
 10
-135.8863413929939
 20
150.230091392994
 30
3.000000000000012
 11
-135.9067735671997
 21
150.0942735671998
 31
3.000000000000013
  0
LINE
  5
1CD
  8
DEFAULT
 10
-135.9067735671997
 20
150.0942735671998
 30
3.000000000000013
 11
-135.9247029423713
 21
149.9559529423714
 31
3.000000000000013
  0
LINE
  5
1CE
  8
DEFAULT
 10
-135.9247029423713
 20
149.9559529423714
 30
3.000000000000013
 11
-135.9402618408203
 21
149.8152618408203
 31
3.000000000000013
  0
LINE
  5
1CF
  8
DEFAULT
 10
-135.9402618408203
 20
149.8152618408203
 30
3.000000000000013
 11
-135.9648332595825
 21
149.5273332595825
 31
3.000000000000014
  0
LINE
  5
1D0
  8
DEFAULT
 10
-135.9648332595825
 20
149.5273332595825
 30
3.000000000000014
 11
-135.9816894531249
 21
149.231689453125
 31
3.000000000000015
  0
LINE
  5
1D1
  8
DEFAULT
 10
-135.9816894531249
 20
149.231689453125
 30
3.000000000000015
 11
-135.9976348876953
 21
148.6226348876953
 31
3.000000000000016
  0
LINE
  5
1D2
  8
DEFAULT
 10
-135.9976348876953
 20
148.6226348876953
 30
3.000000000000016
 11
-135.9999999999999
 21
148.0
 31
3.000000000000017
  0
LINE
  5
1D3
  8
DEFAULT
 10
-135.9999999999999
 20
148.0
 30
3.000000000000017
 11
-136.0
 21
95.0
 31
3.000000000000003
  0
LINE
  5
1D4
  8
DEFAULT
 10
-136.0
 20
95.0
 30
3.000000000000003
 11
-135.9976348876953
 21
94.37736511230469
 31
3.000000000000003
  0
LINE
  5
1D5
  8
DEFAULT
 10
-135.9976348876953
 20
94.37736511230469
 30
3.000000000000003
 11
-135.981689453125
 21
93.768310546875
 31
3.000000000000003
  0
LINE
  5
1D6
  8
DEFAULT
 10
-135.981689453125
 20
93.768310546875
 30
3.000000000000003
 11
-135.9648332595825
 21
93.47266674041748
 31
3.000000000000003
  0
LINE
  5
1D7
  8
DEFAULT
 10
-135.9648332595825
 20
93.47266674041748
 30
3.000000000000003
 11
-135.9402618408203
 21
93.18473815917969
 31
3.000000000000002
  0
LINE
  5
1D8
  8
DEFAULT
 10
-135.9402618408203
 20
93.18473815917969
 30
3.000000000000002
 11
-135.9247029423714
 21
93.04404705762863
 31
3.000000000000002
  0
LINE
  5
1D9
  8
DEFAULT
 10
-135.9247029423714
 20
93.04404705762863
 30
3.000000000000002
 11
-135.9067735671997
 21
92.9057264328003
 31
3.000000000000002
  0
LINE
  5
1DA
  8
DEFAULT
 10
-135.9067735671997
 20
92.9057264328003
 30
3.000000000000002
 11
-135.8863413929939
 21
92.76990860700607
 31
3.000000000000001
  0
LINE
  5
1DB
  8
DEFAULT
 10
-135.8863413929939
 20
92.76990860700607
 30
3.000000000000001
 11
-135.86328125
 21
92.63671875
 31
3.000000000000001
  0
LINE
  5
1DC
  8
DEFAULT
 10
-135.86328125
 20
92.63671875
 30
3.000000000000001
 11
-135.8374751210213
 21
92.50627487897873
 31
3.000000000000001
  0
LINE
  5
1DD
  8
DEFAULT
 10
-135.8374751210213
 20
92.50627487897873
 30
3.000000000000001
 11
-135.8088121414185
 21
92.37868785858154
 31
3.0
  0
LINE
  5
1DE
  8
DEFAULT
 10
-135.8088121414185
 20
92.37868785858154
 30
3.0
 11
-135.7771885991096
 21
92.25406140089035
 31
3.0
  0
LINE
  5
1DF
  8
DEFAULT
 10
-135.7771885991096
 20
92.25406140089035
 30
3.0
 11
-135.7425079345703
 21
92.13249206542969
 31
3.0
  0
LINE
  5
1E0
  8
DEFAULT
 10
-135.7425079345703
 20
92.13249206542969
 30
3.0
 11
-135.7046807408333
 21
92.01406925916672
 31
2.999999999999999
  0
LINE
  5
1E1
  8
DEFAULT
 10
-135.7046807408333
 20
92.01406925916672
 30
2.999999999999999
 11
-135.6636247634888
 21
91.89887523651123
 31
2.999999999999999
  0
LINE
  5
1E2
  8
DEFAULT
 10
-135.6636247634888
 20
91.89887523651123
 30
2.999999999999999
 11
-135.6418622322381
 21
91.84251276776195
 31
2.999999999999999
  0
LINE
  5
1E3
  8
DEFAULT
 10
-135.6418622322381
 20
91.84251276776195
 30
2.999999999999999
 11
-135.6192649006844
 21
91.78698509931564
 31
2.999999999999999
  0
LINE
  5
1E4
  8
DEFAULT
 10
-135.6192649006844
 20
91.78698509931564
 30
2.999999999999999
 11
-135.5958244986832
 21
91.73230050131679
 31
2.999999999999998
  0
LINE
  5
1E5
  8
DEFAULT
 10
-135.5958244986832
 20
91.73230050131679
 30
2.999999999999998
 11
-135.571533203125
 21
91.678466796875
 31
2.999999999999998
  0
LINE
  5
1E6
  8
DEFAULT
 10
-135.571533203125
 20
91.678466796875
 30
2.999999999999998
 11
-135.5463836379349
 21
91.62549136206508
 31
2.999999999999998
  0
LINE
  5
1E7
  8
DEFAULT
 10
-135.5463836379349
 20
91.62549136206508
 30
2.999999999999998
 11
-135.520368874073
 21
91.57338112592697
 31
2.999999999999998
  0
LINE
  5
1E8
  8
DEFAULT
 10
-135.520368874073
 20
91.57338112592697
 30
2.999999999999998
 11
-135.4934824295342
 21
91.5221425704658
 31
2.999999999999998
  0
LINE
  5
1E9
  8
DEFAULT
 10
-135.4934824295342
 20
91.5221425704658
 30
2.999999999999998
 11
-135.4657182693481
 21
91.47178173065186
 31
2.999999999999997
  0
LINE
  5
1EA
  8
DEFAULT
 10
-135.4657182693481
 20
91.47178173065186
 30
2.999999999999997
 11
-135.4370708055794
 21
91.42230419442058
 31
2.999999999999997
  0
LINE
  5
1EB
  8
DEFAULT
 10
-135.4370708055794
 20
91.42230419442058
 30
2.999999999999997
 11
-135.4075348973274
 21
91.37371510267258
 31
2.999999999999997
  0
LINE
  5
1EC
  8
DEFAULT
 10
-135.4075348973274
 20
91.37371510267258
 30
2.999999999999997
 11
-135.3771058507264
 21
91.32601914927363
 31
2.999999999999997
  0
LINE
  5
1ED
  8
DEFAULT
 10
-135.3771058507264
 20
91.32601914927363
 30
2.999999999999997
 11
-135.3457794189453
 21
91.27922058105469
 31
2.999999999999997
  0
LINE
  5
1EE
  8
DEFAULT
 10
-135.3457794189453
 20
91.27922058105469
 30
2.999999999999997
 11
-135.3135518021882
 21
91.23332319781184
 31
2.999999999999996
  0
LINE
  5
1EF
  8
DEFAULT
 10
-135.3135518021882
 20
91.23332319781184
 30
2.999999999999996
 11
-135.2804196476936
 21
91.18833035230637
 31
2.999999999999996
  0
LINE
  5
1F0
  8
DEFAULT
 10
-135.2804196476936
 20
91.18833035230637
 30
2.999999999999996
 11
-135.2463800497353
 21
91.14424495026469
 31
2.999999999999996
  0
LINE
  5
1F1
  8
DEFAULT
 10
-135.2463800497353
 20
91.14424495026469
 30
2.999999999999996
 11
-135.2114305496216
 21
91.10106945037842
 31
2.999999999999996
  0
LINE
  5
1F2
  8
DEFAULT
 10
-135.2114305496216
 20
91.10106945037842
 30
2.999999999999996
 11
-135.1755691356957
 21
91.0588058643043
 31
2.999999999999996
  0
LINE
  5
1F3
  8
DEFAULT
 10
-135.1755691356957
 20
91.0588058643043
 30
2.999999999999996
 11
-135.1387942433357
 21
91.01745575666428
 31
2.999999999999996
  0
LINE
  5
1F4
  8
DEFAULT
 10
-135.1387942433357
 20
91.01745575666428
 30
2.999999999999996
 11
-135.1011047549546
 21
90.97702024504542
 31
2.999999999999995
  0
LINE
  5
1F5
  8
DEFAULT
 10
-135.1011047549546
 20
90.97702024504542
 30
2.999999999999995
 11
-135.0625
 21
90.9375
 31
2.999999999999995
  0
LINE
  5
1F6
  8
DEFAULT
 10
-135.0625
 20
90.9375
 30
2.999999999999995
 11
-135.0229797549546
 21
90.89889524504542
 31
2.999999999999995
  0
LINE
  5
1F7
  8
DEFAULT
 10
-135.0229797549546
 20
90.89889524504542
 30
2.999999999999995
 11
-134.9825442433357
 21
90.86120575666428
 31
2.999999999999994
  0
LINE
  5
1F8
  8
DEFAULT
 10
-134.9825442433357
 20
90.86120575666428
 30
2.999999999999994
 11
-134.9411941356957
 21
90.8244308643043
 31
2.999999999999994
  0
LINE
  5
1F9
  8
DEFAULT
 10
-134.9411941356957
 20
90.8244308643043
 30
2.999999999999994
 11
-134.8989305496216
 21
90.78856945037842
 31
2.999999999999994
  0
LINE
  5
1FA
  8
DEFAULT
 10
-134.8989305496216
 20
90.78856945037842
 30
2.999999999999994
 11
-134.8557550497353
 21
90.75361995026469
 31
2.999999999999993
  0
LINE
  5
1FB
  8
DEFAULT
 10
-134.8557550497353
 20
90.75361995026469
 30
2.999999999999993
 11
-134.8116696476936
 21
90.71958035230637
 31
2.999999999999993
  0
LINE
  5
1FC
  8
DEFAULT
 10
-134.8116696476936
 20
90.71958035230637
 30
2.999999999999993
 11
-134.7666768021882
 21
90.68644819781184
 31
2.999999999999993
  0
LINE
  5
1FD
  8
DEFAULT
 10
-134.7666768021882
 20
90.68644819781184
 30
2.999999999999993
 11
-134.7207794189453
 21
90.65422058105469
 31
2.999999999999992
  0
LINE
  5
1FE
  8
DEFAULT
 10
-134.7207794189453
 20
90.65422058105469
 30
2.999999999999992
 11
-134.6739808507264
 21
90.62289414927363
 31
2.999999999999992
  0
LINE
  5
1FF
  8
DEFAULT
 10
-134.6739808507264
 20
90.62289414927363
 30
2.999999999999992
 11
-134.6262848973274
 21
90.59246510267258
 31
2.999999999999992
  0
LINE
  5
200
  8
DEFAULT
 10
-134.6262848973274
 20
90.59246510267258
 30
2.999999999999992
 11
-134.5776958055794
 21
90.56292919442058
 31
2.999999999999992
  0
LINE
  5
201
  8
DEFAULT
 10
-134.5776958055794
 20
90.56292919442058
 30
2.999999999999992
 11
-134.5282182693481
 21
90.53428173065186
 31
2.999999999999992
  0
LINE
  5
202
  8
DEFAULT
 10
-134.5282182693481
 20
90.53428173065186
 30
2.999999999999992
 11
-134.4778574295342
 21
90.5065175704658
 31
2.999999999999991
  0
LINE
  5
203
  8
DEFAULT
 10
-134.4778574295342
 20
90.5065175704658
 30
2.999999999999991
 11
-134.426618874073
 21
90.47963112592697
 31
2.999999999999991
  0
LINE
  5
204
  8
DEFAULT
 10
-134.426618874073
 20
90.47963112592697
 30
2.999999999999991
 11
-134.3745086379349
 21
90.45361636206508
 31
2.999999999999991
  0
LINE
  5
205
  8
DEFAULT
 10
-134.3745086379349
 20
90.45361636206508
 30
2.999999999999991
 11
-134.321533203125
 21
90.428466796875
 31
2.999999999999991
  0
LINE
  5
206
  8
DEFAULT
 10
-134.321533203125
 20
90.428466796875
 30
2.999999999999991
 11
-134.2676994986832
 21
90.40417550131679
 31
2.999999999999991
  0
LINE
  5
207
  8
DEFAULT
 10
-134.2676994986832
 20
90.40417550131679
 30
2.999999999999991
 11
-134.2130149006844
 21
90.38073509931564
 31
2.99999999999999
  0
LINE
  5
208
  8
DEFAULT
 10
-134.2130149006844
 20
90.38073509931564
 30
2.99999999999999
 11
-134.1574872322381
 21
90.35813776776195
 31
2.99999999999999
  0
LINE
  5
209
  8
DEFAULT
 10
-134.1574872322381
 20
90.35813776776195
 30
2.99999999999999
 11
-134.1011247634888
 21
90.33637523651123
 31
2.99999999999999
  0
LINE
  5
20A
  8
DEFAULT
 10
-134.1011247634888
 20
90.33637523651123
 30
2.99999999999999
 11
-133.9859307408333
 21
90.29531925916672
 31
2.999999999999989
  0
LINE
  5
20B
  8
DEFAULT
 10
-133.9859307408333
 20
90.29531925916672
 30
2.999999999999989
 11
-133.8675079345703
 21
90.25749206542969
 31
2.999999999999989
  0
LINE
  5
20C
  8
DEFAULT
 10
-133.8675079345703
 20
90.25749206542969
 30
2.999999999999989
 11
-133.7459385991096
 21
90.22281140089035
 31
2.999999999999988
  0
LINE
  5
20D
  8
DEFAULT
 10
-133.7459385991096
 20
90.22281140089035
 30
2.999999999999988
 11
-133.6213121414185
 21
90.19118785858154
 31
2.999999999999988
  0
LINE
  5
20E
  8
DEFAULT
 10
-133.6213121414185
 20
90.19118785858154
 30
2.999999999999988
 11
-133.4937251210213
 21
90.16252487897873
 31
2.999999999999988
  0
LINE
  5
20F
  8
DEFAULT
 10
-133.4937251210213
 20
90.16252487897873
 30
2.999999999999988
 11
-133.36328125
 21
90.13671875
 31
2.999999999999988
  0
LINE
  5
210
  8
DEFAULT
 10
-133.36328125
 20
90.13671875
 30
2.999999999999988
 11
-133.2300913929939
 21
90.11365860700607
 31
2.999999999999988
  0
LINE
  5
211
  8
DEFAULT
 10
-133.2300913929939
 20
90.11365860700607
 30
2.999999999999988
 11
-133.0942735671997
 21
90.0932264328003
 31
2.999999999999987
  0
LINE
  5
212
  8
DEFAULT
 10
-133.0942735671997
 20
90.0932264328003
 30
2.999999999999987
 11
-132.9559529423714
 21
90.07529705762863
 31
2.999999999999987
  0
LINE
  5
213
  8
DEFAULT
 10
-132.9559529423714
 20
90.07529705762863
 30
2.999999999999987
 11
-132.8152618408203
 21
90.05973815917969
 31
2.999999999999987
  0
LINE
  5
214
  8
DEFAULT
 10
-132.8152618408203
 20
90.05973815917969
 30
2.999999999999987
 11
-132.5273332595825
 21
90.03516674041748
 31
2.999999999999987
  0
LINE
  5
215
  8
DEFAULT
 10
-132.5273332595825
 20
90.03516674041748
 30
2.999999999999987
 11
-132.231689453125
 21
90.018310546875
 31
2.999999999999986
  0
LINE
  5
216
  8
DEFAULT
 10
-132.231689453125
 20
90.018310546875
 30
2.999999999999986
 11
-131.6226348876953
 21
90.00236511230469
 31
2.999999999999986
  0
LINE
  5
217
  8
DEFAULT
 10
-131.6226348876953
 20
90.00236511230469
 30
2.999999999999986
 11
-131.0
 21
90.0
 31
2.999999999999986
  0
LINE
  5
218
  8
DEFAULT
 10
-131.0
 20
90.0
 30
2.999999999999986
 11
12.99999999999999
 21
90.0
 31
3.000000000000006
  0
LINE
  5
219
  8
DEFAULT
 10
12.99999999999999
 20
90.0
 30
3.000000000000006
 11
13.62263488769531
 21
90.00236511230469
 31
3.000000000000008
  0
LINE
  5
21A
  8
DEFAULT
 10
13.62263488769531
 20
90.00236511230469
 30
3.000000000000008
 11
14.23168945312499
 21
90.018310546875
 31
3.000000000000009
  0
LINE
  5
21B
  8
DEFAULT
 10
14.23168945312499
 20
90.018310546875
 30
3.000000000000009
 11
14.52733325958251
 21
90.03516674041748
 31
3.00000000000001
  0
LINE
  5
21C
  8
DEFAULT
 10
14.52733325958251
 20
90.03516674041748
 30
3.00000000000001
 11
14.8152618408203
 21
90.05973815917969
 31
3.00000000000001
  0
LINE
  5
21D
  8
DEFAULT
 10
14.8152618408203
 20
90.05973815917969
 30
3.00000000000001
 11
14.95595294237135
 21
90.07529705762863
 31
3.00000000000001
  0
LINE
  5
21E
  8
DEFAULT
 10
14.95595294237135
 20
90.07529705762863
 30
3.00000000000001
 11
15.09427356719969
 21
90.0932264328003
 31
3.00000000000001
  0
LINE
  5
21F
  8
DEFAULT
 10
15.09427356719969
 20
90.0932264328003
 30
3.00000000000001
 11
15.23009139299391
 21
90.11365860700607
 31
3.000000000000009
  0
LINE
  5
220
  8
DEFAULT
 10
15.23009139299391
 20
90.11365860700607
 30
3.000000000000009
 11
15.36328124999999
 21
90.13671875
 31
3.000000000000009
  0
LINE
  5
221
  8
DEFAULT
 10
15.36328124999999
 20
90.13671875
 30
3.000000000000009
 11
15.49372512102126
 21
90.16252487897873
 31
3.000000000000009
  0
LINE
  5
222
  8
DEFAULT
 10
15.49372512102126
 20
90.16252487897873
 30
3.000000000000009
 11
15.62131214141844
 21
90.19118785858154
 31
3.000000000000009
  0
LINE
  5
223
  8
DEFAULT
 10
15.62131214141844
 20
90.19118785858154
 30
3.000000000000009
 11
15.74593859910964
 21
90.22281140089035
 31
3.000000000000009
  0
LINE
  5
224
  8
DEFAULT
 10
15.74593859910964
 20
90.22281140089035
 30
3.000000000000009
 11
15.8675079345703
 21
90.25749206542969
 31
3.000000000000008
  0
LINE
  5
225
  8
DEFAULT
 10
15.8675079345703
 20
90.25749206542969
 30
3.000000000000008
 11
15.98593074083327
 21
90.29531925916672
 31
3.000000000000008
  0
LINE
  5
226
  8
DEFAULT
 10
15.98593074083327
 20
90.29531925916672
 30
3.000000000000008
 11
16.10112476348876
 21
90.33637523651123
 31
3.000000000000007
  0
LINE
  5
227
  8
DEFAULT
 10
16.10112476348876
 20
90.33637523651123
 30
3.000000000000007
 11
16.15748723223804
 21
90.35813776776195
 31
3.000000000000007
  0
LINE
  5
228
  8
DEFAULT
 10
16.15748723223804
 20
90.35813776776195
 30
3.000000000000007
 11
16.21301490068434
 21
90.38073509931564
 31
3.000000000000007
  0
LINE
  5
229
  8
DEFAULT
 10
16.21301490068434
 20
90.38073509931564
 30
3.000000000000007
 11
16.2676994986832
 21
90.40417550131679
 31
3.000000000000006
  0
LINE
  5
22A
  8
DEFAULT
 10
16.2676994986832
 20
90.40417550131679
 30
3.000000000000006
 11
16.32153320312499
 21
90.428466796875
 31
3.000000000000006
  0
LINE
  5
22B
  8
DEFAULT
 10
16.32153320312499
 20
90.428466796875
 30
3.000000000000006
 11
16.37450863793491
 21
90.45361636206508
 31
3.000000000000005
  0
LINE
  5
22C
  8
DEFAULT
 10
16.37450863793491
 20
90.45361636206508
 30
3.000000000000005
 11
16.42661887407301
 21
90.47963112592697
 31
3.000000000000005
  0
LINE
  5
22D
  8
DEFAULT
 10
16.42661887407301
 20
90.47963112592697
 30
3.000000000000005
 11
16.47785742953418
 21
90.5065175704658
 31
3.000000000000005
  0
LINE
  5
22E
  8
DEFAULT
 10
16.47785742953418
 20
90.5065175704658
 30
3.000000000000005
 11
16.52821826934814
 21
90.53428173065183
 31
3.000000000000004
  0
LINE
  5
22F
  8
DEFAULT
 10
16.52821826934814
 20
90.53428173065183
 30
3.000000000000004
 11
16.57769580557942
 21
90.56292919442055
 31
3.000000000000004
  0
LINE
  5
230
  8
DEFAULT
 10
16.57769580557942
 20
90.56292919442055
 30
3.000000000000004
 11
16.62628489732742
 21
90.59246510267255
 31
3.000000000000004
  0
LINE
  5
231
  8
DEFAULT
 10
16.62628489732742
 20
90.59246510267255
 30
3.000000000000004
 11
16.67398085072636
 21
90.6228941492736
 31
3.000000000000004
  0
LINE
  5
232
  8
DEFAULT
 10
16.67398085072636
 20
90.6228941492736
 30
3.000000000000004
 11
16.72077941894531
 21
90.65422058105466
 31
3.000000000000003
  0
LINE
  5
233
  8
DEFAULT
 10
16.72077941894531
 20
90.65422058105466
 30
3.000000000000003
 11
16.76667680218815
 21
90.68644819781181
 31
3.000000000000003
  0
LINE
  5
234
  8
DEFAULT
 10
16.76667680218815
 20
90.68644819781181
 30
3.000000000000003
 11
16.81166964769363
 21
90.71958035230634
 31
3.000000000000003
  0
LINE
  5
235
  8
DEFAULT
 10
16.81166964769363
 20
90.71958035230634
 30
3.000000000000003
 11
16.8557550497353
 21
90.75361995026466
 31
3.000000000000002
  0
LINE
  5
236
  8
DEFAULT
 10
16.8557550497353
 20
90.75361995026466
 30
3.000000000000002
 11
16.89893054962157
 21
90.78856945037839
 31
3.000000000000002
  0
LINE
  5
237
  8
DEFAULT
 10
16.89893054962157
 20
90.78856945037839
 30
3.000000000000002
 11
16.94119413569569
 21
90.82443086430428
 31
3.000000000000001
  0
LINE
  5
238
  8
DEFAULT
 10
16.94119413569569
 20
90.82443086430428
 30
3.000000000000001
 11
16.98254424333572
 21
90.86120575666425
 31
3.000000000000001
  0
LINE
  5
239
  8
DEFAULT
 10
16.98254424333572
 20
90.86120575666425
 30
3.000000000000001
 11
17.02297975495457
 21
90.8988952450454
 31
3.000000000000001
  0
LINE
  5
23A
  8
DEFAULT
 10
17.02297975495457
 20
90.8988952450454
 30
3.000000000000001
 11
17.06249999999999
 21
90.93749999999997
 31
3.0
  0
LINE
  5
23B
  8
DEFAULT
 10
17.06249999999999
 20
90.93749999999997
 30
3.0
 11
17.10110475495457
 21
90.9770202450454
 31
3.0
  0
LINE
  5
23C
  8
DEFAULT
 10
17.10110475495457
 20
90.9770202450454
 30
3.0
 11
17.13879424333572
 21
91.01745575666425
 31
2.999999999999999
  0
LINE
  5
23D
  8
DEFAULT
 10
17.13879424333572
 20
91.01745575666425
 30
2.999999999999999
 11
17.17556913569569
 21
91.05880586430428
 31
2.999999999999999
  0
LINE
  5
23E
  8
DEFAULT
 10
17.17556913569569
 20
91.05880586430428
 30
2.999999999999999
 11
17.21143054962157
 21
91.10106945037839
 31
2.999999999999999
  0
LINE
  5
23F
  8
DEFAULT
 10
17.21143054962157
 20
91.10106945037839
 30
2.999999999999999
 11
17.2463800497353
 21
91.14424495026466
 31
2.999999999999998
  0
LINE
  5
240
  8
DEFAULT
 10
17.2463800497353
 20
91.14424495026466
 30
2.999999999999998
 11
17.28041964769363
 21
91.18833035230634
 31
2.999999999999998
  0
LINE
  5
241
  8
DEFAULT
 10
17.28041964769363
 20
91.18833035230634
 30
2.999999999999998
 11
17.31355180218816
 21
91.23332319781181
 31
2.999999999999997
  0
LINE
  5
242
  8
DEFAULT
 10
17.31355180218816
 20
91.23332319781181
 30
2.999999999999997
 11
17.34577941894531
 21
91.27922058105466
 31
2.999999999999997
  0
LINE
  5
243
  8
DEFAULT
 10
17.34577941894531
 20
91.27922058105466
 30
2.999999999999997
 11
17.37710585072637
 21
91.3260191492736
 31
2.999999999999996
  0
LINE
  5
244
  8
DEFAULT
 10
17.37710585072637
 20
91.3260191492736
 30
2.999999999999996
 11
17.40753489732742
 21
91.37371510267255
 31
2.999999999999996
  0
LINE
  5
245
  8
DEFAULT
 10
17.40753489732742
 20
91.37371510267255
 30
2.999999999999996
 11
17.43707080557942
 21
91.42230419442055
 31
2.999999999999996
  0
LINE
  5
246
  8
DEFAULT
 10
17.43707080557942
 20
91.42230419442055
 30
2.999999999999996
 11
17.46571826934814
 21
91.47178173065183
 31
2.999999999999996
  0
LINE
  5
247
  8
DEFAULT
 10
17.46571826934814
 20
91.47178173065183
 30
2.999999999999996
 11
17.4934824295342
 21
91.52214257046575
 31
2.999999999999996
  0
LINE
  5
248
  8
DEFAULT
 10
17.4934824295342
 20
91.52214257046575
 30
2.999999999999996
 11
17.52036887407303
 21
91.57338112592691
 31
2.999999999999996
  0
LINE
  5
249
  8
DEFAULT
 10
17.52036887407303
 20
91.57338112592691
 30
2.999999999999996
 11
17.54638363793492
 21
91.62549136206502
 31
2.999999999999995
  0
LINE
  5
24A
  8
DEFAULT
 10
17.54638363793492
 20
91.62549136206502
 30
2.999999999999995
 11
17.571533203125
 21
91.67846679687494
 31
2.999999999999995
  0
LINE
  5
24B
  8
DEFAULT
 10
17.571533203125
 20
91.67846679687494
 30
2.999999999999995
 11
17.59582449868321
 21
91.73230050131673
 31
2.999999999999995
  0
LINE
  5
24C
  8
DEFAULT
 10
17.59582449868321
 20
91.73230050131673
 30
2.999999999999995
 11
17.61926490068436
 21
91.78698509931559
 31
2.999999999999994
  0
LINE
  5
24D
  8
DEFAULT
 10
17.61926490068436
 20
91.78698509931559
 30
2.999999999999994
 11
17.64186223223805
 21
91.84251276776189
 31
2.999999999999994
  0
LINE
  5
24E
  8
DEFAULT
 10
17.64186223223805
 20
91.84251276776189
 30
2.999999999999994
 11
17.66362476348878
 21
91.89887523651117
 31
2.999999999999994
  0
LINE
  5
24F
  8
DEFAULT
 10
17.66362476348878
 20
91.89887523651117
 30
2.999999999999994
 11
17.70468074083329
 21
92.01406925916666
 31
2.999999999999993
  0
LINE
  5
250
  8
DEFAULT
 10
17.70468074083329
 20
92.01406925916666
 30
2.999999999999993
 11
17.74250793457032
 21
92.13249206542963
 31
2.999999999999992
  0
LINE
  5
251
  8
DEFAULT
 10
17.74250793457032
 20
92.13249206542963
 30
2.999999999999992
 11
17.77718859910966
 21
92.2540614008903
 31
2.999999999999992
  0
LINE
  5
252
  8
DEFAULT
 10
17.77718859910966
 20
92.2540614008903
 30
2.999999999999992
 11
17.80881214141846
 21
92.37868785858149
 31
2.999999999999992
  0
LINE
  5
253
  8
DEFAULT
 10
17.80881214141846
 20
92.37868785858149
 30
2.999999999999992
 11
17.83747512102128
 21
92.50627487897867
 31
2.999999999999991
  0
LINE
  5
254
  8
DEFAULT
 10
17.83747512102128
 20
92.50627487897867
 30
2.999999999999991
 11
17.86328125000001
 21
92.63671874999994
 31
2.999999999999991
  0
LINE
  5
255
  8
DEFAULT
 10
17.86328125000001
 20
92.63671874999994
 30
2.999999999999991
 11
17.88634139299393
 21
92.76990860700602
 31
2.999999999999991
  0
LINE
  5
256
  8
DEFAULT
 10
17.88634139299393
 20
92.76990860700602
 30
2.999999999999991
 11
17.90677356719971
 21
92.90572643280024
 31
2.99999999999999
  0
LINE
  5
257
  8
DEFAULT
 10
17.90677356719971
 20
92.90572643280024
 30
2.99999999999999
 11
17.92470294237138
 21
93.04404705762857
 31
2.99999999999999
  0
LINE
  5
258
  8
DEFAULT
 10
17.92470294237138
 20
93.04404705762857
 30
2.99999999999999
 11
17.94026184082032
 21
93.18473815917963
 31
2.99999999999999
  0
LINE
  5
259
  8
DEFAULT
 10
17.94026184082032
 20
93.18473815917963
 30
2.99999999999999
 11
17.96483325958253
 21
93.47266674041742
 31
2.99999999999999
  0
LINE
  5
25A
  8
DEFAULT
 10
17.96483325958253
 20
93.47266674041742
 30
2.99999999999999
 11
17.98168945312501
 21
93.76831054687494
 31
2.999999999999991
  0
LINE
  5
25B
  8
DEFAULT
 10
17.98168945312501
 20
93.76831054687494
 30
2.999999999999991
 11
17.99763488769532
 21
94.37736511230463
 31
2.999999999999992
  0
LINE
  5
25C
  8
DEFAULT
 10
17.99763488769532
 20
94.37736511230463
 30
2.999999999999992
 11
18.00000000000001
 21
94.99999999999996
 31
2.999999999999995
  0
LINE
  5
25D
  8
DEFAULT
 10
18.00000000000001
 20
94.99999999999996
 30
2.999999999999995
 11
17.99999999999999
 21
147.9999999999999
 31
3.000000000000003
  0
LINE
  5
25E
  8
DEFAULT
 10
17.99999999999999
 20
147.9999999999999
 30
3.000000000000003
 11
17.99763488769531
 21
148.6226348876953
 31
3.000000000000004
  0
LINE
  5
25F
  8
DEFAULT
 10
17.99763488769531
 20
148.6226348876953
 30
3.000000000000004
 11
17.98168945312499
 21
149.2316894531249
 31
3.000000000000004
  0
LINE
  5
260
  8
DEFAULT
 10
17.98168945312499
 20
149.2316894531249
 30
3.000000000000004
 11
17.96483325958251
 21
149.5273332595825
 31
3.000000000000004
  0
LINE
  5
261
  8
DEFAULT
 10
17.96483325958251
 20
149.5273332595825
 30
3.000000000000004
 11
17.94026184082031
 21
149.8152618408203
 31
3.000000000000004
  0
LINE
  5
262
  8
DEFAULT
 10
17.94026184082031
 20
149.8152618408203
 30
3.000000000000004
 11
17.92470294237136
 21
149.9559529423713
 31
3.000000000000004
  0
LINE
  5
263
  8
DEFAULT
 10
17.92470294237136
 20
149.9559529423713
 30
3.000000000000004
 11
17.9067735671997
 21
150.0942735671997
 31
3.000000000000004
  0
LINE
  5
264
  8
DEFAULT
 10
17.9067735671997
 20
150.0942735671997
 30
3.000000000000004
 11
17.88634139299392
 21
150.2300913929939
 31
3.000000000000004
  0
LINE
  5
265
  8
DEFAULT
 10
17.88634139299392
 20
150.2300913929939
 30
3.000000000000004
 11
17.86328124999999
 21
150.3632812499999
 31
3.000000000000004
  0
LINE
  5
266
  8
DEFAULT
 10
17.86328124999999
 20
150.3632812499999
 30
3.000000000000004
 11
17.83747512102126
 21
150.4937251210212
 31
3.000000000000004
  0
LINE
  5
267
  8
DEFAULT
 10
17.83747512102126
 20
150.4937251210212
 30
3.000000000000004
 11
17.80881214141845
 21
150.6213121414184
 31
3.000000000000004
  0
LINE
  5
268
  8
DEFAULT
 10
17.80881214141845
 20
150.6213121414184
 30
3.000000000000004
 11
17.77718859910964
 21
150.7459385991096
 31
3.000000000000004
  0
LINE
  5
269
  8
DEFAULT
 10
17.77718859910964
 20
150.7459385991096
 30
3.000000000000004
 11
17.74250793457031
 21
150.8675079345703
 31
3.000000000000004
  0
LINE
  5
26A
  8
DEFAULT
 10
17.74250793457031
 20
150.8675079345703
 30
3.000000000000004
 11
17.70468074083328
 21
150.9859307408332
 31
3.000000000000004
  0
LINE
  5
26B
  8
DEFAULT
 10
17.70468074083328
 20
150.9859307408332
 30
3.000000000000004
 11
17.66362476348876
 21
151.1011247634887
 31
3.000000000000004
  0
LINE
  5
26C
  8
DEFAULT
 10
17.66362476348876
 20
151.1011247634887
 30
3.000000000000004
 11
17.64186223223805
 21
151.157487232238
 31
3.000000000000004
  0
LINE
  5
26D
  8
DEFAULT
 10
17.64186223223805
 20
151.157487232238
 30
3.000000000000004
 11
17.61926490068436
 21
151.2130149006843
 31
3.000000000000004
  0
LINE
  5
26E
  8
DEFAULT
 10
17.61926490068436
 20
151.2130149006843
 30
3.000000000000004
 11
17.59582449868321
 21
151.2676994986832
 31
3.000000000000004
  0
LINE
  5
26F
  8
DEFAULT
 10
17.59582449868321
 20
151.2676994986832
 30
3.000000000000004
 11
17.571533203125
 21
151.3215332031249
 31
3.000000000000004
  0
LINE
  5
270
  8
DEFAULT
 10
17.571533203125
 20
151.3215332031249
 30
3.000000000000004
 11
17.54638363793492
 21
151.3745086379349
 31
3.000000000000004
  0
LINE
  5
271
  8
DEFAULT
 10
17.54638363793492
 20
151.3745086379349
 30
3.000000000000004
 11
17.52036887407303
 21
151.426618874073
 31
3.000000000000004
  0
LINE
  5
272
  8
DEFAULT
 10
17.52036887407303
 20
151.426618874073
 30
3.000000000000004
 11
17.4934824295342
 21
151.4778574295341
 31
3.000000000000004
  0
LINE
  5
273
  8
DEFAULT
 10
17.4934824295342
 20
151.4778574295341
 30
3.000000000000004
 11
17.46571826934814
 21
151.5282182693481
 31
3.000000000000004
  0
LINE
  5
274
  8
DEFAULT
 10
17.46571826934814
 20
151.5282182693481
 30
3.000000000000004
 11
17.43707080557942
 21
151.5776958055794
 31
3.000000000000004
  0
LINE
  5
275
  8
DEFAULT
 10
17.43707080557942
 20
151.5776958055794
 30
3.000000000000004
 11
17.40753489732742
 21
151.6262848973274
 31
3.000000000000004
  0
LINE
  5
276
  8
DEFAULT
 10
17.40753489732742
 20
151.6262848973274
 30
3.000000000000004
 11
17.37710585072637
 21
151.6739808507263
 31
3.000000000000004
  0
LINE
  5
277
  8
DEFAULT
 10
17.37710585072637
 20
151.6739808507263
 30
3.000000000000004
 11
17.34577941894531
 21
151.7207794189453
 31
3.000000000000004
  0
LINE
  5
278
  8
DEFAULT
 10
17.34577941894531
 20
151.7207794189453
 30
3.000000000000004
 11
17.31355180218816
 21
151.7666768021881
 31
3.000000000000004
  0
LINE
  5
279
  8
DEFAULT
 10
17.31355180218816
 20
151.7666768021881
 30
3.000000000000004
 11
17.28041964769363
 21
151.8116696476936
 31
3.000000000000004
  0
LINE
  5
27A
  8
DEFAULT
 10
17.28041964769363
 20
151.8116696476936
 30
3.000000000000004
 11
17.24638004973531
 21
151.8557550497353
 31
3.000000000000004
  0
LINE
  5
27B
  8
DEFAULT
 10
17.24638004973531
 20
151.8557550497353
 30
3.000000000000004
 11
17.21143054962158
 21
151.8989305496215
 31
3.000000000000004
  0
LINE
  5
27C
  8
DEFAULT
 10
17.21143054962158
 20
151.8989305496215
 30
3.000000000000004
 11
17.1755691356957
 21
151.9411941356956
 31
3.000000000000004
  0
LINE
  5
27D
  8
DEFAULT
 10
17.1755691356957
 20
151.9411941356956
 30
3.000000000000004
 11
17.13879424333572
 21
151.9825442433357
 31
3.000000000000004
  0
LINE
  5
27E
  8
DEFAULT
 10
17.13879424333572
 20
151.9825442433357
 30
3.000000000000004
 11
17.10110475495458
 21
152.0229797549545
 31
3.000000000000004
  0
LINE
  5
27F
  8
DEFAULT
 10
17.10110475495458
 20
152.0229797549545
 30
3.000000000000004
 11
17.0625
 21
152.0625
 31
3.000000000000004
  0
LINE
  5
280
  8
DEFAULT
 10
17.0625
 20
152.0625
 30
3.000000000000004
 11
17.02297975495458
 21
152.1011047549546
 31
3.000000000000004
  0
LINE
  5
281
  8
DEFAULT
 10
17.02297975495458
 20
152.1011047549546
 30
3.000000000000004
 11
16.98254424333573
 21
152.1387942433357
 31
3.000000000000004
  0
LINE
  5
282
  8
DEFAULT
 10
16.98254424333573
 20
152.1387942433357
 30
3.000000000000004
 11
16.9411941356957
 21
152.1755691356957
 31
3.000000000000004
  0
LINE
  5
283
  8
DEFAULT
 10
16.9411941356957
 20
152.1755691356957
 30
3.000000000000004
 11
16.89893054962159
 21
152.2114305496216
 31
3.000000000000004
  0
LINE
  5
284
  8
DEFAULT
 10
16.89893054962159
 20
152.2114305496216
 30
3.000000000000004
 11
16.85575504973531
 21
152.2463800497353
 31
3.000000000000004
  0
LINE
  5
285
  8
DEFAULT
 10
16.85575504973531
 20
152.2463800497353
 30
3.000000000000004
 11
16.81166964769364
 21
152.2804196476936
 31
3.000000000000004
  0
LINE
  5
286
  8
DEFAULT
 10
16.81166964769364
 20
152.2804196476936
 30
3.000000000000004
 11
16.76667680218817
 21
152.3135518021882
 31
3.000000000000004
  0
LINE
  5
287
  8
DEFAULT
 10
16.76667680218817
 20
152.3135518021882
 30
3.000000000000004
 11
16.72077941894532
 21
152.3457794189453
 31
3.000000000000004
  0
LINE
  5
288
  8
DEFAULT
 10
16.72077941894532
 20
152.3457794189453
 30
3.000000000000004
 11
16.67398085072637
 21
152.3771058507264
 31
3.000000000000004
  0
LINE
  5
289
  8
DEFAULT
 10
16.67398085072637
 20
152.3771058507264
 30
3.000000000000004
 11
16.62628489732743
 21
152.4075348973274
 31
3.000000000000004
  0
LINE
  5
28A
  8
DEFAULT
 10
16.62628489732743
 20
152.4075348973274
 30
3.000000000000004
 11
16.57769580557943
 21
152.4370708055794
 31
3.000000000000004
  0
LINE
  5
28B
  8
DEFAULT
 10
16.57769580557943
 20
152.4370708055794
 30
3.000000000000004
 11
16.52821826934815
 21
152.4657182693481
 31
3.000000000000004
  0
LINE
  5
28C
  8
DEFAULT
 10
16.52821826934815
 20
152.4657182693481
 30
3.000000000000004
 11
16.4778574295342
 21
152.4934824295342
 31
3.000000000000004
  0
LINE
  5
28D
  8
DEFAULT
 10
16.4778574295342
 20
152.4934824295342
 30
3.000000000000004
 11
16.42661887407304
 21
152.520368874073
 31
3.000000000000004
  0
LINE
  5
28E
  8
DEFAULT
 10
16.42661887407304
 20
152.520368874073
 30
3.000000000000004
 11
16.37450863793493
 21
152.5463836379349
 31
3.000000000000004
  0
LINE
  5
28F
  8
DEFAULT
 10
16.37450863793493
 20
152.5463836379349
 30
3.000000000000004
 11
16.32153320312501
 21
152.571533203125
 31
3.000000000000004
  0
LINE
  5
290
  8
DEFAULT
 10
16.32153320312501
 20
152.571533203125
 30
3.000000000000004
 11
16.26769949868322
 21
152.5958244986832
 31
3.000000000000004
  0
LINE
  5
291
  8
DEFAULT
 10
16.26769949868322
 20
152.5958244986832
 30
3.000000000000004
 11
16.21301490068436
 21
152.6192649006844
 31
3.000000000000004
  0
LINE
  5
292
  8
DEFAULT
 10
16.21301490068436
 20
152.6192649006844
 30
3.000000000000004
 11
16.15748723223806
 21
152.6418622322381
 31
3.000000000000004
  0
LINE
  5
293
  8
DEFAULT
 10
16.15748723223806
 20
152.6418622322381
 30
3.000000000000004
 11
16.10112476348878
 21
152.6636247634888
 31
3.000000000000004
  0
LINE
  5
294
  8
DEFAULT
 10
16.10112476348878
 20
152.6636247634888
 30
3.000000000000004
 11
15.98593074083329
 21
152.7046807408333
 31
3.000000000000004
  0
LINE
  5
295
  8
DEFAULT
 10
15.98593074083329
 20
152.7046807408333
 30
3.000000000000004
 11
15.86750793457032
 21
152.7425079345703
 31
3.000000000000004
  0
LINE
  5
296
  8
DEFAULT
 10
15.86750793457032
 20
152.7425079345703
 30
3.000000000000004
 11
15.74593859910966
 21
152.7771885991096
 31
3.000000000000005
  0
LINE
  5
297
  8
DEFAULT
 10
15.74593859910966
 20
152.7771885991096
 30
3.000000000000005
 11
15.62131214141846
 21
152.8088121414185
 31
3.000000000000005
  0
LINE
  5
298
  8
DEFAULT
 10
15.62131214141846
 20
152.8088121414185
 30
3.000000000000005
 11
15.49372512102128
 21
152.8374751210213
 31
3.000000000000005
  0
LINE
  5
299
  8
DEFAULT
 10
15.49372512102128
 20
152.8374751210213
 30
3.000000000000005
 11
15.36328125000001
 21
152.86328125
 31
3.000000000000005
  0
LINE
  5
29A
  8
DEFAULT
 10
15.36328125000001
 20
152.86328125
 30
3.000000000000005
 11
15.23009139299393
 21
152.8863413929939
 31
3.000000000000005
  0
LINE
  5
29B
  8
DEFAULT
 10
15.23009139299393
 20
152.8863413929939
 30
3.000000000000005
 11
15.09427356719971
 21
152.9067735671997
 31
3.000000000000005
  0
LINE
  5
29C
  8
DEFAULT
 10
15.09427356719971
 20
152.9067735671997
 30
3.000000000000005
 11
14.95595294237137
 21
152.9247029423714
 31
3.000000000000005
  0
LINE
  5
29D
  8
DEFAULT
 10
14.95595294237137
 20
152.9247029423714
 30
3.000000000000005
 11
14.81526184082032
 21
152.9402618408203
 31
3.000000000000005
  0
LINE
  5
29E
  8
DEFAULT
 10
14.81526184082032
 20
152.9402618408203
 30
3.000000000000005
 11
14.52733325958252
 21
152.9648332595825
 31
3.000000000000005
  0
LINE
  5
29F
  8
DEFAULT
 10
14.52733325958252
 20
152.9648332595825
 30
3.000000000000005
 11
14.231689453125
 21
152.981689453125
 31
3.000000000000005
  0
LINE
  5
2A0
  8
DEFAULT
 10
14.231689453125
 20
152.981689453125
 30
3.000000000000005
 11
13.62263488769531
 21
152.9976348876953
 31
3.000000000000005
  0
LINE
  5
2A1
  8
DEFAULT
 10
13.62263488769531
 20
152.9976348876953
 30
3.000000000000005
 11
12.99999999999999
 21
153.0
 31
3.000000000000006
  0
ENDSEC
  0
EOF
